<svg width="40" height="41" viewBox="0 0 40 41" fill="none" xmlns="http://www.w3.org/2000/svg">
<path d="M15 5.5H14V7.5H15V5.5Z" fill="white"/>
<path d="M28.835 5.5V7.407H33.602V12.174H35.509V5.5H28.835Z" fill="white"/>
<path d="M33.602 34.102H28.835V36.009H35.509V29.335H33.602V34.102Z" fill="white"/>
<path d="M15 34.5H14V36.5H15V34.5Z" fill="white"/>
<path d="M19 5.5H18V7.5H19V5.5Z" fill="white"/>
<path d="M19 34.5H18V36.5H19V34.5Z" fill="white"/>
<path d="M23 5.5H22V7.5H23V5.5Z" fill="white"/>
<path d="M23 34.5H22V36.5H23V34.5Z" fill="white"/>
<path d="M27 5.5H25V7.5H27V5.5Z" fill="white"/>
<path d="M7 25.5H5V27.5H7V25.5Z" fill="white"/>
<path d="M7 22.5H5V23.5H7V22.5Z" fill="white"/>
<path d="M7 18.5H5V19.5H7V18.5Z" fill="white"/>
<path d="M7 14.5H5V15.5H7V14.5Z" fill="white"/>
<path d="M36 25.5H34V27.5H36V25.5Z" fill="white"/>
<path d="M36 22.5H34V23.5H36V22.5Z" fill="white"/>
<path d="M36 18.5H34V19.5H36V18.5Z" fill="white"/>
<path d="M36 14.5H34V15.5H36V14.5Z" fill="white"/>
<path d="M27 34.5H25V36.5H27V34.5Z" fill="white"/>
<path d="M6.907 29.335H5V36.009H11.674V34.102H6.907V29.335Z" fill="white"/>
<path d="M5 12.174H6.907V7.407H11.674V5.5H5V12.174Z" fill="white"/>
<path d="M28 26.5H26V28.5H28V26.5Z" fill="white"/>
<path d="M21.0691 26.4751H19.4351V28.3821H21.0691V26.4751Z" fill="white"/>
<path d="M24.3401 26.4751H22.7061V28.3821H24.3401V26.4751Z" fill="white"/>
<path d="M17.802 26.4751H16.168V28.3821H17.802V26.4751Z" fill="white"/>
<path d="M14 26.5H13V28.5H14V26.5Z" fill="white"/>
<path d="M14.534 19.9351H12.627V21.5691H14.534V19.9351Z" fill="white"/>
<path d="M14.534 16.668H12.627V18.302H14.534V16.668Z" fill="white"/>
<path d="M14.534 23.2061H12.627V24.8401H14.534V23.2061Z" fill="white"/>
<path d="M14 13.5H13V14.5H14V13.5Z" fill="white"/>
<path d="M24.3401 13.127H22.7061V15.034H24.3401V13.127Z" fill="white"/>
<path d="M21.0691 13.127H19.4351V15.034H21.0691V13.127Z" fill="white"/>
<path d="M17.802 13.127H16.168V15.034H17.802V13.127Z" fill="white"/>
<path d="M28 13.5H26V14.5H28V13.5Z" fill="white"/>
<path d="M27.8821 19.9351H25.9751V21.5691H27.8821V19.9351Z" fill="white"/>
<path d="M27.8821 16.668H25.9751V18.302H27.8821V16.668Z" fill="white"/>
<path d="M27.8821 23.2061H25.9751V24.8401H27.8821V23.2061Z" fill="white"/>
</svg>
