<svg width="40" height="41" viewBox="0 0 40 41" fill="none" xmlns="http://www.w3.org/2000/svg">
<path d="M8.333 37.166C7.44936 37.165 6.60221 36.8135 5.97738 36.1886C5.35255 35.5638 5.00106 34.7167 5 33.833V10.499C5.00106 9.61537 5.35255 8.76822 5.97738 8.14339C6.60221 7.51856 7.44936 7.16707 8.333 7.16601H13.333V3.83301H15V7.16601H25V3.83301H26.667V7.16601H31.667C32.5506 7.16707 33.3978 7.51856 34.0226 8.14339C34.6474 8.76822 34.9989 9.61537 35 10.499V33.833C34.9989 34.7167 34.6474 35.5638 34.0226 36.1886C33.3978 36.8135 32.5506 37.165 31.667 37.166H8.333ZM6.667 10.499V33.833C6.66726 34.275 6.84298 34.6989 7.15555 35.0115C7.46811 35.324 7.89197 35.4997 8.334 35.5H31.667C32.109 35.4997 32.5329 35.324 32.8455 35.0115C33.158 34.6989 33.3337 34.275 33.334 33.833V18.833H6.667V17.167H33.334V10.499C33.3332 10.0572 33.1573 9.63378 32.8448 9.32149C32.5323 9.0092 32.1088 8.83354 31.667 8.83301H26.667V12.167H25V8.83301H15V12.167H13.334V8.83301H8.334C7.89222 8.83354 7.46867 9.0092 7.15619 9.32149C6.84371 9.63378 6.66779 10.0572 6.667 10.499Z" fill="white"/>
</svg>
