<svg xmlns="http://www.w3.org/2000/svg" width="13.238" height="13.246" viewBox="0 0 11.68 6.82">
    <defs>
        <style>.cls-1{fill:#fff;}</style>
    </defs>
    <title>crossPlay-light</title>
    <g id="Layer_2" data-name="Layer 2">
        <g id="Layer_1-2" data-name="Layer 1">
            <path class="cls-1" d="M8.28,6.82h-1a.49.49,0,0,1,0-1h1A2.44,2.44,0,0,0,8.28,1h-1A.47.47,0,0,1,6.82.49.48.48,0,0,1,7.3,0h1a3.41,3.41,0,0,1,0,6.82Z"/>
            <path class="cls-1" d="M4.38,6.82h-1A3.41,3.41,0,0,1,3.41,0h1a.49.49,0,0,1,.49.49A.48.48,0,0,1,4.38,1h-1a2.44,2.44,0,1,0,0,4.87h1a.49.49,0,1,1,0,1Z"/>
            <path class="cls-1" d="M7.3,3.89H4.38a.48.48,0,0,1-.49-.48.49.49,0,0,1,.49-.49H7.3a.49.49,0,0,1,.49.49A.48.48,0,0,1,7.3,3.89Z"/>
        </g>
    </g>
</svg>