<svg width="500" height="98" viewBox="0 0 500 98" fill="none" xmlns="http://www.w3.org/2000/svg">
<path d="M40.833 91.165V89.165H469.633V91.165H40.833ZM40.833 70.165V68.165H469.633V70.165H40.833ZM40.833 49.165V47.165H469.633V49.165H40.833ZM40.833 29.165V27.165H469.633V29.165H40.833ZM40.833 11.165V9.16504H469.633V11.165H40.833Z" fill="#282D33"/>
<path d="M40.833 91.17V89.165H75.254V91.165L40.833 91.17ZM40.833 70.165V68.165H86.728V70.165H40.833ZM40.833 49.165V47.165H124.973V49.165H40.833ZM40.833 29.165V27.165H469.183V29.165H40.833ZM40.833 11.165V9.16504H247.359V11.165H40.833Z" fill="#335191"/>
<path d="M3.76117 8.27344V10.5H3.01117V4.8125H5.10883C5.73122 4.8125 6.2182 4.97135 6.56976 5.28906C6.92393 5.60677 7.10101 6.02734 7.10101 6.55078C7.10101 7.10286 6.92784 7.52865 6.58148 7.82812C6.23773 8.125 5.74424 8.27344 5.10101 8.27344H3.76117ZM3.76117 7.66016H5.10883C5.50987 7.66016 5.81716 7.56641 6.0307 7.37891C6.24424 7.1888 6.35101 6.91536 6.35101 6.55859C6.35101 6.22005 6.24424 5.94922 6.0307 5.74609C5.81716 5.54297 5.52419 5.4375 5.15179 5.42969H3.76117V7.66016ZM9.73383 7.96484C9.0906 7.77995 8.62185 7.55339 8.32758 7.28516C8.03591 7.01432 7.89008 6.68099 7.89008 6.28516C7.89008 5.83724 8.06846 5.46745 8.42523 5.17578C8.78461 4.88151 9.25075 4.73438 9.82367 4.73438C10.2143 4.73438 10.562 4.8099 10.8666 4.96094C11.1739 5.11198 11.4109 5.32031 11.5776 5.58594C11.7468 5.85156 11.8315 6.14193 11.8315 6.45703H11.0776C11.0776 6.11328 10.9682 5.84375 10.7495 5.64844C10.5307 5.45052 10.2221 5.35156 9.82367 5.35156C9.45388 5.35156 9.16482 5.43359 8.95648 5.59766C8.75075 5.75911 8.64789 5.98438 8.64789 6.27344C8.64789 6.50521 8.74554 6.70182 8.94086 6.86328C9.13877 7.02214 9.47341 7.16797 9.94476 7.30078C10.4187 7.43359 10.7885 7.58073 11.0541 7.74219C11.3224 7.90104 11.5203 8.08724 11.6479 8.30078C11.7781 8.51432 11.8432 8.76562 11.8432 9.05469C11.8432 9.51562 11.6635 9.88542 11.3041 10.1641C10.9448 10.4401 10.4643 10.5781 9.86273 10.5781C9.47211 10.5781 9.10752 10.5039 8.76898 10.3555C8.43044 10.2044 8.16872 9.9987 7.98383 9.73828C7.80153 9.47786 7.71039 9.18229 7.71039 8.85156H8.46429C8.46429 9.19531 8.5906 9.46745 8.8432 9.66797C9.09841 9.86589 9.43825 9.96484 9.86273 9.96484C10.2586 9.96484 10.562 9.88411 10.7729 9.72266C10.9838 9.5612 11.0893 9.34115 11.0893 9.0625C11.0893 8.78385 10.9916 8.56901 10.7963 8.41797C10.601 8.26432 10.2468 8.11328 9.73383 7.96484ZM15.6713 8.58984H16.4604V9.17969H15.6713V10.5H14.9448V9.17969H12.3549V8.75391L14.9018 4.8125H15.6713V8.58984ZM13.1752 8.58984H14.9448V5.80078L14.8588 5.95703L13.1752 8.58984Z" fill="#93A8B3"/>
<path d="M3.76117 28.2734V30.5H3.01117V24.8125H5.10883C5.73122 24.8125 6.2182 24.9714 6.56976 25.2891C6.92393 25.6068 7.10101 26.0273 7.10101 26.5508C7.10101 27.1029 6.92784 27.5286 6.58148 27.8281C6.23773 28.125 5.74424 28.2734 5.10101 28.2734H3.76117ZM3.76117 27.6602H5.10883C5.50987 27.6602 5.81716 27.5664 6.0307 27.3789C6.24424 27.1888 6.35101 26.9154 6.35101 26.5586C6.35101 26.2201 6.24424 25.9492 6.0307 25.7461C5.81716 25.543 5.52419 25.4375 5.15179 25.4297H3.76117V27.6602ZM9.73383 27.9648C9.0906 27.7799 8.62185 27.5534 8.32758 27.2852C8.03591 27.0143 7.89008 26.681 7.89008 26.2852C7.89008 25.8372 8.06846 25.4674 8.42523 25.1758C8.78461 24.8815 9.25075 24.7344 9.82367 24.7344C10.2143 24.7344 10.562 24.8099 10.8666 24.9609C11.1739 25.112 11.4109 25.3203 11.5776 25.5859C11.7468 25.8516 11.8315 26.1419 11.8315 26.457H11.0776C11.0776 26.1133 10.9682 25.8438 10.7495 25.6484C10.5307 25.4505 10.2221 25.3516 9.82367 25.3516C9.45388 25.3516 9.16482 25.4336 8.95648 25.5977C8.75075 25.7591 8.64789 25.9844 8.64789 26.2734C8.64789 26.5052 8.74554 26.7018 8.94086 26.8633C9.13877 27.0221 9.47341 27.168 9.94476 27.3008C10.4187 27.4336 10.7885 27.5807 11.0541 27.7422C11.3224 27.901 11.5203 28.0872 11.6479 28.3008C11.7781 28.5143 11.8432 28.7656 11.8432 29.0547C11.8432 29.5156 11.6635 29.8854 11.3041 30.1641C10.9448 30.4401 10.4643 30.5781 9.86273 30.5781C9.47211 30.5781 9.10752 30.5039 8.76898 30.3555C8.43044 30.2044 8.16872 29.9987 7.98383 29.7383C7.80153 29.4779 7.71039 29.1823 7.71039 28.8516H8.46429C8.46429 29.1953 8.5906 29.4674 8.8432 29.668C9.09841 29.8659 9.43825 29.9648 9.86273 29.9648C10.2586 29.9648 10.562 29.8841 10.7729 29.7227C10.9838 29.5612 11.0893 29.3411 11.0893 29.0625C11.0893 28.7839 10.9916 28.569 10.7963 28.418C10.601 28.2643 10.2468 28.1133 9.73383 27.9648ZM12.9526 27.6484L13.2416 24.8125H16.1557V25.4805H13.8549L13.683 27.0312C13.9617 26.8672 14.2781 26.7852 14.6323 26.7852C15.1505 26.7852 15.562 26.957 15.8666 27.3008C16.1713 27.6419 16.3237 28.1042 16.3237 28.6875C16.3237 29.2734 16.1648 29.7357 15.8471 30.0742C15.532 30.4102 15.0906 30.5781 14.5229 30.5781C14.0203 30.5781 13.6101 30.4388 13.2924 30.1602C12.9747 29.8815 12.7937 29.4961 12.7495 29.0039H13.433C13.4773 29.3294 13.5932 29.5755 13.7807 29.7422C13.9682 29.9062 14.2156 29.9883 14.5229 29.9883C14.8588 29.9883 15.1218 29.8737 15.312 29.6445C15.5047 29.4154 15.601 29.099 15.601 28.6953C15.601 28.3151 15.4968 28.0104 15.2885 27.7812C15.0828 27.5495 14.808 27.4336 14.4643 27.4336C14.1492 27.4336 13.9018 27.5026 13.7221 27.6406L13.5307 27.7969L12.9526 27.6484Z" fill="#93A8B3"/>
<path d="M4.86664 47.9922L6.22992 45.8125H7.11273L5.31586 48.6328L7.1557 51.5H6.26508L4.86664 49.2812L3.46039 51.5H2.57367L4.41742 48.6328L2.61664 45.8125H3.49554L4.86664 47.9922ZM8.02679 51.5V45.8125H9.88617C10.5034 45.8125 10.9669 45.9401 11.2768 46.1953C11.5893 46.4505 11.7455 46.8281 11.7455 47.3281C11.7455 47.5938 11.67 47.8294 11.519 48.0352C11.3679 48.2383 11.1622 48.3958 10.9018 48.5078C11.2091 48.5938 11.4513 48.7578 11.6284 49C11.808 49.2396 11.8979 49.526 11.8979 49.8594C11.8979 50.3698 11.7325 50.7708 11.4018 51.0625C11.0711 51.3542 10.6036 51.5 9.99945 51.5H8.02679ZM8.77679 48.8398V50.8867H10.0151C10.364 50.8867 10.6388 50.7969 10.8393 50.6172C11.0424 50.4349 11.144 50.1849 11.144 49.8672C11.144 49.1823 10.7716 48.8398 10.0268 48.8398H8.77679ZM8.77679 48.2383H9.90961C10.2377 48.2383 10.4995 48.1562 10.6948 47.9922C10.8927 47.8281 10.9916 47.6055 10.9916 47.3242C10.9916 47.0117 10.9005 46.7852 10.7182 46.6445C10.5359 46.5013 10.2586 46.4297 9.88617 46.4297H8.77679V48.2383ZM12.7065 49.3477C12.7065 48.9336 12.7872 48.5612 12.9487 48.2305C13.1127 47.8997 13.3393 47.6445 13.6284 47.4648C13.92 47.2852 14.2521 47.1953 14.6245 47.1953C15.2 47.1953 15.6648 47.3945 16.019 47.793C16.3758 48.1914 16.5541 48.7214 16.5541 49.3828V49.4336C16.5541 49.8451 16.4747 50.2148 16.3159 50.543C16.1596 50.8685 15.9343 51.1224 15.6401 51.3047C15.3484 51.487 15.0125 51.5781 14.6323 51.5781C14.0593 51.5781 13.5945 51.3789 13.2377 50.9805C12.8836 50.582 12.7065 50.0547 12.7065 49.3984V49.3477ZM13.433 49.4336C13.433 49.9023 13.5411 50.2786 13.7573 50.5625C13.976 50.8464 14.2677 50.9883 14.6323 50.9883C14.9995 50.9883 15.2911 50.8451 15.5073 50.5586C15.7234 50.2695 15.8315 49.8659 15.8315 49.3477C15.8315 48.8841 15.7208 48.5091 15.4995 48.2227C15.2807 47.9336 14.989 47.7891 14.6245 47.7891C14.2677 47.7891 13.9799 47.931 13.7612 48.2148C13.5424 48.4987 13.433 48.9049 13.433 49.4336ZM18.7924 48.8164L19.7299 47.2734H20.5737L19.1909 49.3633L20.6166 51.5H19.7807L18.8041 49.918L17.8276 51.5H16.9877L18.4135 49.3633L17.0307 47.2734H17.8666L18.7924 48.8164Z" fill="#93A8B3"/>
<path d="M3.97992 65.8125L5.83929 70.4531L7.69867 65.8125H8.67133V71.5H7.92133V69.2852L7.99164 66.8945L6.12445 71.5H5.55023L3.68695 66.9062L3.76117 69.2852V71.5H3.01117V65.8125H3.97992ZM9.69086 69.3477C9.69086 68.9336 9.77159 68.5612 9.93304 68.2305C10.0971 67.8997 10.3237 67.6445 10.6127 67.4648C10.9044 67.2852 11.2364 67.1953 11.6088 67.1953C12.1843 67.1953 12.6492 67.3945 13.0034 67.793C13.3601 68.1914 13.5385 68.7214 13.5385 69.3828V69.4336C13.5385 69.8451 13.4591 70.2148 13.3002 70.543C13.144 70.8685 12.9187 71.1224 12.6245 71.3047C12.3328 71.487 11.9968 71.5781 11.6166 71.5781C11.0437 71.5781 10.5789 71.3789 10.2221 70.9805C9.86794 70.582 9.69086 70.0547 9.69086 69.3984V69.3477ZM10.4174 69.4336C10.4174 69.9023 10.5255 70.2786 10.7416 70.5625C10.9604 70.8464 11.2521 70.9883 11.6166 70.9883C11.9838 70.9883 12.2755 70.8451 12.4916 70.5586C12.7078 70.2695 12.8159 69.8659 12.8159 69.3477C12.8159 68.8841 12.7052 68.5091 12.4838 68.2227C12.2651 67.9336 11.9734 67.7891 11.6088 67.7891C11.2521 67.7891 10.9643 67.931 10.7455 68.2148C10.5268 68.4987 10.4174 68.9049 10.4174 69.4336ZM18.0229 69.4336C18.0229 70.0794 17.8745 70.599 17.5776 70.9922C17.2807 71.3828 16.8823 71.5781 16.3823 71.5781C15.8484 71.5781 15.4356 71.3893 15.144 71.0117L15.1088 71.5H14.4448V65.5H15.1674V67.7383C15.4591 67.3763 15.8614 67.1953 16.3745 67.1953C16.8875 67.1953 17.2898 67.3893 17.5815 67.7773C17.8758 68.1654 18.0229 68.6966 18.0229 69.3711V69.4336ZM17.3002 69.3516C17.3002 68.8594 17.2052 68.4792 17.0151 68.2109C16.825 67.9427 16.5515 67.8086 16.1948 67.8086C15.7182 67.8086 15.3758 68.0299 15.1674 68.4727V70.3008C15.3888 70.7435 15.7338 70.9648 16.2026 70.9648C16.5489 70.9648 16.8185 70.8307 17.0112 70.5625C17.2039 70.2943 17.3002 69.8906 17.3002 69.3516ZM19.7221 71.5H18.9995V67.2734H19.7221V71.5ZM18.9409 66.1523C18.9409 66.0352 18.976 65.9362 19.0463 65.8555C19.1192 65.7747 19.226 65.7344 19.3666 65.7344C19.5073 65.7344 19.614 65.7747 19.687 65.8555C19.7599 65.9362 19.7963 66.0352 19.7963 66.1523C19.7963 66.2695 19.7599 66.3672 19.687 66.4453C19.614 66.5234 19.5073 66.5625 19.3666 66.5625C19.226 66.5625 19.1192 66.5234 19.0463 66.4453C18.976 66.3672 18.9409 66.2695 18.9409 66.1523ZM21.6674 71.5H20.9448V65.5H21.6674V71.5ZM24.5815 71.5781C24.0086 71.5781 23.5424 71.3906 23.183 71.0156C22.8237 70.638 22.644 70.1341 22.644 69.5039V69.3711C22.644 68.9518 22.7234 68.5781 22.8823 68.25C23.0437 67.9193 23.2677 67.6615 23.5541 67.4766C23.8432 67.2891 24.1557 67.1953 24.4916 67.1953C25.0411 67.1953 25.4682 67.3763 25.7729 67.7383C26.0776 68.1003 26.2299 68.6185 26.2299 69.293V69.5938H23.3666C23.3771 70.0104 23.4981 70.3477 23.7299 70.6055C23.9643 70.8607 24.2612 70.9883 24.6205 70.9883C24.8758 70.9883 25.0919 70.9362 25.269 70.832C25.4461 70.7279 25.601 70.5898 25.7338 70.418L26.1752 70.7617C25.8211 71.306 25.2898 71.5781 24.5815 71.5781ZM24.4916 67.7891C24.2 67.7891 23.9552 67.8958 23.7573 68.1094C23.5593 68.3203 23.437 68.6172 23.3901 69H25.5073V68.9453C25.4864 68.5781 25.3875 68.2943 25.2104 68.0938C25.0333 67.8906 24.7937 67.7891 24.4916 67.7891Z" fill="#93A8B3"/>
<path d="M3.76117 89.2734V91.5H3.01117V85.8125H5.10883C5.73122 85.8125 6.2182 85.9714 6.56976 86.2891C6.92393 86.6068 7.10101 87.0273 7.10101 87.5508C7.10101 88.1029 6.92784 88.5286 6.58148 88.8281C6.23773 89.125 5.74424 89.2734 5.10101 89.2734H3.76117ZM3.76117 88.6602H5.10883C5.50987 88.6602 5.81716 88.5664 6.0307 88.3789C6.24424 88.1888 6.35101 87.9154 6.35101 87.5586C6.35101 87.2201 6.24424 86.9492 6.0307 86.7461C5.81716 86.543 5.52419 86.4375 5.15179 86.4297H3.76117V88.6602ZM12.2416 89.6953C12.1713 90.2969 11.9487 90.7617 11.5737 91.0898C11.2013 91.4154 10.7052 91.5781 10.0854 91.5781C9.41351 91.5781 8.87445 91.3372 8.4682 90.8555C8.06455 90.3737 7.86273 89.7292 7.86273 88.9219V88.375C7.86273 87.8464 7.95648 87.3815 8.14398 86.9805C8.33409 86.5794 8.60232 86.2721 8.94867 86.0586C9.29502 85.8424 9.69607 85.7344 10.1518 85.7344C10.756 85.7344 11.2403 85.9036 11.6049 86.2422C11.9695 86.5781 12.1817 87.0443 12.2416 87.6406H11.4877C11.4226 87.1875 11.2807 86.8594 11.062 86.6562C10.8458 86.4531 10.5424 86.3516 10.1518 86.3516C9.67263 86.3516 9.29633 86.5286 9.02289 86.8828C8.75205 87.237 8.61664 87.7409 8.61664 88.3945V88.9453C8.61664 89.5625 8.74554 90.0534 9.00336 90.418C9.26117 90.7826 9.62185 90.9648 10.0854 90.9648C10.5021 90.9648 10.8211 90.8711 11.0424 90.6836C11.2664 90.4935 11.4148 90.1641 11.4877 89.6953H12.2416Z" fill="#93A8B3"/>
<path d="M485.3 7.30469H485.843C486.185 7.29948 486.453 7.20964 486.648 7.03516C486.843 6.86068 486.941 6.625 486.941 6.32812C486.941 5.66146 486.609 5.32812 485.945 5.32812C485.632 5.32812 485.382 5.41797 485.195 5.59766C485.01 5.77474 484.918 6.01042 484.918 6.30469H484.195C484.195 5.85417 484.359 5.48047 484.687 5.18359C485.018 4.88411 485.437 4.73438 485.945 4.73438C486.481 4.73438 486.902 4.8763 487.207 5.16016C487.511 5.44401 487.664 5.83854 487.664 6.34375C487.664 6.59115 487.583 6.83073 487.422 7.0625C487.263 7.29427 487.045 7.46745 486.769 7.58203C487.082 7.68099 487.323 7.84505 487.492 8.07422C487.664 8.30339 487.75 8.58333 487.75 8.91406C487.75 9.42448 487.583 9.82943 487.25 10.1289C486.916 10.4284 486.483 10.5781 485.949 10.5781C485.415 10.5781 484.98 10.4336 484.644 10.1445C484.311 9.85547 484.144 9.47396 484.144 9H484.871C484.871 9.29948 484.968 9.53906 485.164 9.71875C485.359 9.89844 485.621 9.98828 485.949 9.98828C486.298 9.98828 486.565 9.89714 486.75 9.71484C486.935 9.53255 487.027 9.27083 487.027 8.92969C487.027 8.59896 486.925 8.34505 486.722 8.16797C486.519 7.99089 486.226 7.89974 485.843 7.89453H485.3V7.30469ZM488.679 5.90625C488.679 5.5651 488.787 5.28385 489.004 5.0625C489.222 4.84115 489.502 4.73047 489.843 4.73047C490.19 4.73047 490.47 4.84245 490.683 5.06641C490.899 5.28776 491.007 5.57552 491.007 5.92969V6.20703C491.007 6.55078 490.898 6.83203 490.679 7.05078C490.463 7.26693 490.187 7.375 489.851 7.375C489.513 7.375 489.233 7.26693 489.011 7.05078C488.79 6.83203 488.679 6.54167 488.679 6.17969V5.90625ZM489.218 6.20703C489.218 6.41016 489.276 6.57812 489.39 6.71094C489.505 6.84115 489.659 6.90625 489.851 6.90625C490.036 6.90625 490.185 6.84245 490.297 6.71484C490.411 6.58724 490.468 6.41276 490.468 6.19141V5.90625C490.468 5.70312 490.412 5.53516 490.3 5.40234C490.188 5.26953 490.036 5.20312 489.843 5.20312C489.651 5.20312 489.498 5.26953 489.386 5.40234C489.274 5.53516 489.218 5.70833 489.218 5.92188V6.20703ZM491.449 9.10547C491.449 8.76432 491.557 8.48438 491.773 8.26562C491.992 8.04427 492.272 7.93359 492.613 7.93359C492.954 7.93359 493.234 8.04297 493.453 8.26172C493.672 8.48047 493.781 8.77083 493.781 9.13281V9.41016C493.781 9.7513 493.672 10.0326 493.453 10.2539C493.237 10.4727 492.959 10.582 492.621 10.582C492.282 10.582 492.002 10.474 491.781 10.2578C491.56 10.0391 491.449 9.7487 491.449 9.38672V9.10547ZM491.988 9.41016C491.988 9.61589 492.045 9.78516 492.16 9.91797C492.274 10.0482 492.428 10.1133 492.621 10.1133C492.808 10.1133 492.958 10.0495 493.07 9.92188C493.182 9.79167 493.238 9.61589 493.238 9.39453V9.10547C493.238 8.89974 493.181 8.73177 493.066 8.60156C492.954 8.47135 492.803 8.40625 492.613 8.40625C492.428 8.40625 492.277 8.47135 492.16 8.60156C492.045 8.72917 491.988 8.90234 491.988 9.12109V9.41016ZM490.015 10.0703L489.605 9.8125L492.382 5.36719L492.793 5.625L490.015 10.0703Z" fill="#93A8B3"/>
<path d="M487.922 25.2188L485.566 30.5H484.808L487.156 25.4062H484.078V24.8125H487.922V25.2188ZM488.679 25.9062C488.679 25.5651 488.787 25.2839 489.004 25.0625C489.222 24.8411 489.502 24.7305 489.843 24.7305C490.19 24.7305 490.47 24.8424 490.683 25.0664C490.899 25.2878 491.007 25.5755 491.007 25.9297V26.207C491.007 26.5508 490.898 26.832 490.679 27.0508C490.463 27.2669 490.187 27.375 489.851 27.375C489.513 27.375 489.233 27.2669 489.011 27.0508C488.79 26.832 488.679 26.5417 488.679 26.1797V25.9062ZM489.218 26.207C489.218 26.4102 489.276 26.5781 489.39 26.7109C489.505 26.8411 489.659 26.9062 489.851 26.9062C490.036 26.9062 490.185 26.8424 490.297 26.7148C490.411 26.5872 490.468 26.4128 490.468 26.1914V25.9062C490.468 25.7031 490.412 25.5352 490.3 25.4023C490.188 25.2695 490.036 25.2031 489.843 25.2031C489.651 25.2031 489.498 25.2695 489.386 25.4023C489.274 25.5352 489.218 25.7083 489.218 25.9219V26.207ZM491.449 29.1055C491.449 28.7643 491.557 28.4844 491.773 28.2656C491.992 28.0443 492.272 27.9336 492.613 27.9336C492.954 27.9336 493.234 28.043 493.453 28.2617C493.672 28.4805 493.781 28.7708 493.781 29.1328V29.4102C493.781 29.7513 493.672 30.0326 493.453 30.2539C493.237 30.4727 492.959 30.582 492.621 30.582C492.282 30.582 492.002 30.474 491.781 30.2578C491.56 30.0391 491.449 29.7487 491.449 29.3867V29.1055ZM491.988 29.4102C491.988 29.6159 492.045 29.7852 492.16 29.918C492.274 30.0482 492.428 30.1133 492.621 30.1133C492.808 30.1133 492.958 30.0495 493.07 29.9219C493.182 29.7917 493.238 29.6159 493.238 29.3945V29.1055C493.238 28.8997 493.181 28.7318 493.066 28.6016C492.954 28.4714 492.803 28.4062 492.613 28.4062C492.428 28.4062 492.277 28.4714 492.16 28.6016C492.045 28.7292 491.988 28.9023 491.988 29.1211V29.4102ZM490.015 30.0703L489.605 29.8125L492.382 25.3672L492.793 25.625L490.015 30.0703Z" fill="#93A8B3"/>
<path d="M485.599 51.5H484.872V46.6836L483.415 47.2188V46.5625L485.485 45.7852H485.599V51.5ZM491.442 51.5H487.716V50.9805L489.685 48.793C489.976 48.4622 490.177 48.194 490.286 47.9883C490.398 47.7799 490.454 47.5651 490.454 47.3438C490.454 47.0469 490.364 46.8034 490.185 46.6133C490.005 46.4232 489.765 46.3281 489.466 46.3281C489.106 46.3281 488.827 46.431 488.626 46.6367C488.428 46.8398 488.329 47.1237 488.329 47.4883H487.606C487.606 46.9648 487.774 46.5417 488.11 46.2188C488.449 45.8958 488.901 45.7344 489.466 45.7344C489.994 45.7344 490.412 45.8737 490.72 46.1523C491.027 46.4284 491.181 46.7969 491.181 47.2578C491.181 47.8177 490.824 48.4844 490.11 49.2578L488.587 50.9102H491.442V51.5ZM492.146 46.9062C492.146 46.5651 492.254 46.2839 492.47 46.0625C492.689 45.8411 492.968 45.7305 493.31 45.7305C493.656 45.7305 493.936 45.8424 494.149 46.0664C494.366 46.2878 494.474 46.5755 494.474 46.9297V47.207C494.474 47.5508 494.364 47.832 494.146 48.0508C493.929 48.2669 493.653 48.375 493.317 48.375C492.979 48.375 492.699 48.2669 492.478 48.0508C492.256 47.832 492.146 47.5417 492.146 47.1797V46.9062ZM492.685 47.207C492.685 47.4102 492.742 47.5781 492.856 47.7109C492.971 47.8411 493.125 47.9062 493.317 47.9062C493.502 47.9062 493.651 47.8424 493.763 47.7148C493.877 47.5872 493.935 47.4128 493.935 47.1914V46.9062C493.935 46.7031 493.879 46.5352 493.767 46.4023C493.655 46.2695 493.502 46.2031 493.31 46.2031C493.117 46.2031 492.965 46.2695 492.853 46.4023C492.741 46.5352 492.685 46.7083 492.685 46.9219V47.207ZM494.915 50.1055C494.915 49.7643 495.023 49.4844 495.239 49.2656C495.458 49.0443 495.738 48.9336 496.079 48.9336C496.42 48.9336 496.7 49.043 496.919 49.2617C497.138 49.4805 497.247 49.7708 497.247 50.1328V50.4102C497.247 50.7513 497.138 51.0326 496.919 51.2539C496.703 51.4727 496.425 51.582 496.087 51.582C495.748 51.582 495.468 51.474 495.247 51.2578C495.026 51.0391 494.915 50.7487 494.915 50.3867V50.1055ZM495.454 50.4102C495.454 50.6159 495.511 50.7852 495.626 50.918C495.741 51.0482 495.894 51.1133 496.087 51.1133C496.274 51.1133 496.424 51.0495 496.536 50.9219C496.648 50.7917 496.704 50.6159 496.704 50.3945V50.1055C496.704 49.8997 496.647 49.7318 496.532 49.6016C496.42 49.4714 496.269 49.4062 496.079 49.4062C495.894 49.4062 495.743 49.4714 495.626 49.6016C495.511 49.7292 495.454 49.9023 495.454 50.1211V50.4102ZM493.481 51.0703L493.071 50.8125L495.849 46.3672L496.259 46.625L493.481 51.0703Z" fill="#93A8B3"/>
<path d="M485.3 68.3047H485.843C486.185 68.2995 486.453 68.2096 486.648 68.0352C486.843 67.8607 486.941 67.625 486.941 67.3281C486.941 66.6615 486.609 66.3281 485.945 66.3281C485.632 66.3281 485.382 66.418 485.195 66.5977C485.01 66.7747 484.918 67.0104 484.918 67.3047H484.195C484.195 66.8542 484.359 66.4805 484.687 66.1836C485.018 65.8841 485.437 65.7344 485.945 65.7344C486.481 65.7344 486.902 65.8763 487.207 66.1602C487.511 66.444 487.664 66.8385 487.664 67.3438C487.664 67.5911 487.583 67.8307 487.422 68.0625C487.263 68.2943 487.045 68.4674 486.769 68.582C487.082 68.681 487.323 68.8451 487.492 69.0742C487.664 69.3034 487.75 69.5833 487.75 69.9141C487.75 70.4245 487.583 70.8294 487.25 71.1289C486.916 71.4284 486.483 71.5781 485.949 71.5781C485.415 71.5781 484.98 71.4336 484.644 71.1445C484.311 70.8555 484.144 70.474 484.144 70H484.871C484.871 70.2995 484.968 70.5391 485.164 70.7188C485.359 70.8984 485.621 70.9883 485.949 70.9883C486.298 70.9883 486.565 70.8971 486.75 70.7148C486.935 70.5326 487.027 70.2708 487.027 69.9297C487.027 69.599 486.925 69.3451 486.722 69.168C486.519 68.9909 486.226 68.8997 485.843 68.8945H485.3V68.3047ZM488.679 66.9062C488.679 66.5651 488.787 66.2839 489.004 66.0625C489.222 65.8411 489.502 65.7305 489.843 65.7305C490.19 65.7305 490.47 65.8424 490.683 66.0664C490.899 66.2878 491.007 66.5755 491.007 66.9297V67.207C491.007 67.5508 490.898 67.832 490.679 68.0508C490.463 68.2669 490.187 68.375 489.851 68.375C489.513 68.375 489.233 68.2669 489.011 68.0508C488.79 67.832 488.679 67.5417 488.679 67.1797V66.9062ZM489.218 67.207C489.218 67.4102 489.276 67.5781 489.39 67.7109C489.505 67.8411 489.659 67.9062 489.851 67.9062C490.036 67.9062 490.185 67.8424 490.297 67.7148C490.411 67.5872 490.468 67.4128 490.468 67.1914V66.9062C490.468 66.7031 490.412 66.5352 490.3 66.4023C490.188 66.2695 490.036 66.2031 489.843 66.2031C489.651 66.2031 489.498 66.2695 489.386 66.4023C489.274 66.5352 489.218 66.7083 489.218 66.9219V67.207ZM491.449 70.1055C491.449 69.7643 491.557 69.4844 491.773 69.2656C491.992 69.0443 492.272 68.9336 492.613 68.9336C492.954 68.9336 493.234 69.043 493.453 69.2617C493.672 69.4805 493.781 69.7708 493.781 70.1328V70.4102C493.781 70.7513 493.672 71.0326 493.453 71.2539C493.237 71.4727 492.959 71.582 492.621 71.582C492.282 71.582 492.002 71.474 491.781 71.2578C491.56 71.0391 491.449 70.7487 491.449 70.3867V70.1055ZM491.988 70.4102C491.988 70.6159 492.045 70.7852 492.16 70.918C492.274 71.0482 492.428 71.1133 492.621 71.1133C492.808 71.1133 492.958 71.0495 493.07 70.9219C493.182 70.7917 493.238 70.6159 493.238 70.3945V70.1055C493.238 69.8997 493.181 69.7318 493.066 69.6016C492.954 69.4714 492.803 69.4062 492.613 69.4062C492.428 69.4062 492.277 69.4714 492.16 69.6016C492.045 69.7292 491.988 69.9023 491.988 70.1211V70.4102ZM490.015 71.0703L489.605 70.8125L492.382 66.3672L492.793 66.625L490.015 71.0703Z" fill="#93A8B3"/>
<path d="M488.95 91.5H485.224V90.9805L487.192 88.793C487.484 88.4622 487.685 88.194 487.794 87.9883C487.906 87.7799 487.962 87.5651 487.962 87.3438C487.962 87.0469 487.872 86.8034 487.692 86.6133C487.513 86.4232 487.273 86.3281 486.974 86.3281C486.614 86.3281 486.334 86.431 486.134 86.6367C485.936 86.8398 485.837 87.1237 485.837 87.4883H485.114C485.114 86.9648 485.282 86.5417 485.618 86.2188C485.957 85.8958 486.409 85.7344 486.974 85.7344C487.502 85.7344 487.92 85.8737 488.228 86.1523C488.535 86.4284 488.689 86.7969 488.689 87.2578C488.689 87.8177 488.332 88.4844 487.618 89.2578L486.095 90.9102H488.95V91.5ZM490.767 88.3047H491.31C491.651 88.2995 491.919 88.2096 492.114 88.0352C492.31 87.8607 492.407 87.625 492.407 87.3281C492.407 86.6615 492.075 86.3281 491.411 86.3281C491.099 86.3281 490.849 86.418 490.661 86.5977C490.476 86.7747 490.384 87.0104 490.384 87.3047H489.661C489.661 86.8542 489.825 86.4805 490.153 86.1836C490.484 85.8841 490.903 85.7344 491.411 85.7344C491.948 85.7344 492.368 85.8763 492.673 86.1602C492.978 86.444 493.13 86.8385 493.13 87.3438C493.13 87.5911 493.049 87.8307 492.888 88.0625C492.729 88.2943 492.511 88.4674 492.235 88.582C492.548 88.681 492.789 88.8451 492.958 89.0742C493.13 89.3034 493.216 89.5833 493.216 89.9141C493.216 90.4245 493.049 90.8294 492.716 91.1289C492.383 91.4284 491.949 91.5781 491.415 91.5781C490.881 91.5781 490.446 91.4336 490.11 91.1445C489.777 90.8555 489.61 90.474 489.61 90H490.337C490.337 90.2995 490.435 90.5391 490.63 90.7188C490.825 90.8984 491.087 90.9883 491.415 90.9883C491.764 90.9883 492.031 90.8971 492.216 90.7148C492.401 90.5326 492.493 90.2708 492.493 89.9297C492.493 89.599 492.392 89.3451 492.189 89.168C491.985 88.9909 491.692 88.8997 491.31 88.8945H490.767V88.3047ZM494.146 86.9062C494.146 86.5651 494.254 86.2839 494.47 86.0625C494.689 85.8411 494.968 85.7305 495.31 85.7305C495.656 85.7305 495.936 85.8424 496.149 86.0664C496.366 86.2878 496.474 86.5755 496.474 86.9297V87.207C496.474 87.5508 496.364 87.832 496.146 88.0508C495.929 88.2669 495.653 88.375 495.317 88.375C494.979 88.375 494.699 88.2669 494.478 88.0508C494.256 87.832 494.146 87.5417 494.146 87.1797V86.9062ZM494.685 87.207C494.685 87.4102 494.742 87.5781 494.856 87.7109C494.971 87.8411 495.125 87.9062 495.317 87.9062C495.502 87.9062 495.651 87.8424 495.763 87.7148C495.877 87.5872 495.935 87.4128 495.935 87.1914V86.9062C495.935 86.7031 495.879 86.5352 495.767 86.4023C495.655 86.2695 495.502 86.2031 495.31 86.2031C495.117 86.2031 494.965 86.2695 494.853 86.4023C494.741 86.5352 494.685 86.7083 494.685 86.9219V87.207ZM496.915 90.1055C496.915 89.7643 497.023 89.4844 497.239 89.2656C497.458 89.0443 497.738 88.9336 498.079 88.9336C498.42 88.9336 498.7 89.043 498.919 89.2617C499.138 89.4805 499.247 89.7708 499.247 90.1328V90.4102C499.247 90.7513 499.138 91.0326 498.919 91.2539C498.703 91.4727 498.425 91.582 498.087 91.582C497.748 91.582 497.468 91.474 497.247 91.2578C497.026 91.0391 496.915 90.7487 496.915 90.3867V90.1055ZM497.454 90.4102C497.454 90.6159 497.511 90.7852 497.626 90.918C497.741 91.0482 497.894 91.1133 498.087 91.1133C498.274 91.1133 498.424 91.0495 498.536 90.9219C498.648 90.7917 498.704 90.6159 498.704 90.3945V90.1055C498.704 89.8997 498.647 89.7318 498.532 89.6016C498.42 89.4714 498.269 89.4062 498.079 89.4062C497.894 89.4062 497.743 89.4714 497.626 89.6016C497.511 89.7292 497.454 89.9023 497.454 90.1211V90.4102ZM495.481 91.0703L495.071 90.8125L497.849 86.3672L498.259 86.625L495.481 91.0703Z" fill="#93A8B3"/>
</svg>
