<svg id="discord" xmlns="http://www.w3.org/2000/svg" width="30" height="32.727" viewBox="0 0 30 32.727">
  <path id="Path_1" data-name="Path 1" d="M4.518,28.9H23.962L23.034,25.9c.138.12,7.966,6.83,7.966,6.83V3.375A3.62,3.62,0,0,0,27.389,0L4.525,0A3.481,3.481,0,0,0,1,3.382V25.527A3.412,3.412,0,0,0,4.518,28.9ZM18.9,7.75l-.045.016.016-.016ZM8.5,9.48a8.412,8.412,0,0,1,4.816-1.732l.187.184a9.926,9.926,0,0,0-4.445,2.1,15.484,15.484,0,0,1,13.8.09,11.216,11.216,0,0,0-4.26-2.1l.254-.25a8.42,8.42,0,0,1,4.744,1.718,21.05,21.05,0,0,1,2.515,9.573,7.267,7.267,0,0,1-5.36,2.354s-.644-.728-1.1-1.364A5.507,5.507,0,0,0,22.7,18.139c-4.327,2.725-8.119,2.3-12.656.458a.105.105,0,0,1-.083-.041v-.008a.109.109,0,0,0-.083-.041H9.8a4.607,4.607,0,0,0-.464-.273A5.473,5.473,0,0,0,12.3,20.149c-.56.64-1.115,1.366-1.115,1.366C7.382,21.425,6,19.053,6,19.053A21.1,21.1,0,0,1,8.5,9.48Z" transform="translate(-1 0)" fill="#335191"/>
  <path id="Path_2" data-name="Path 2" d="M14.308,12.771a1.338,1.338,0,0,0,0-2.675v0a1.337,1.337,0,0,0,0,2.672Z" transform="translate(3.951 4.132)" fill="#335191"/>
  <path id="Path_3" data-name="Path 3" d="M9.69,12.771a1.338,1.338,0,0,0,0-2.675l0,0a1.337,1.337,0,0,0,0,2.672Z" transform="translate(2.048 4.132)" fill="#335191"/>
</svg>
