<svg xmlns="http://www.w3.org/2000/svg" width="10.606" height="10.166" viewBox="0 0 10.606 10.166">
  <g id="logo" transform="translate(0 -10.618)">
    <path id="Path_17" data-name="Path 17" d="M4.169,49.678.192,50.2A.221.221,0,0,0,0,50.416v3.093a.221.221,0,0,0,.221.221H4.2a.221.221,0,0,0,.221-.221V49.9a.221.221,0,0,0-.075-.166A.226.226,0,0,0,4.169,49.678Z" transform="translate(0 -38.25)" fill="#fff"/>
    <path id="Path_18" data-name="Path 18" d="M240.337,10.674a.221.221,0,0,0-.174-.055l-5.3.692a.221.221,0,0,0-.193.221v3.727a.221.221,0,0,0,.221.221h5.3a.221.221,0,0,0,.221-.221V10.84A.221.221,0,0,0,240.337,10.674Z" transform="translate(-229.807 0)" fill="#fff"/>
    <path id="Path_19" data-name="Path 19" d="M4.2,266.693H.221a.221.221,0,0,0-.221.221v3.093a.221.221,0,0,0,.193.221l3.977.519H4.2a.221.221,0,0,0,.221-.221v-3.612A.221.221,0,0,0,4.2,266.693Z" transform="translate(0 -250.771)" fill="#fff"/>
    <path id="Path_20" data-name="Path 20" d="M240.19,266.693h-5.3a.221.221,0,0,0-.221.221v3.727a.221.221,0,0,0,.193.221l5.3.692h.028a.221.221,0,0,0,.221-.221h0v-4.419A.221.221,0,0,0,240.19,266.693Z" transform="translate(-229.806 -250.771)" fill="#fff"/>
  </g>
</svg>
