<svg xmlns="http://www.w3.org/2000/svg" width="13.238" height="10.246" viewBox="0 0 13.238 10.246">
  <g id="game" transform="translate(0 -12.063)">
    <g id="Group_82" data-name="Group 82" transform="translate(0 12.063)">
      <path id="Path_14" data-name="Path 14" d="M1.452,60.117l-.447.174c-.67.285-1.017.583-1,.843.037.385.471.67,1.265.881a7.69,7.69,0,0,0,3.151.174V61.11h0l-.856.323a1.734,1.734,0,0,1-1.352.05c-.136-.087-.2-.3.174-.434l.471-.174,1.563-.558V59.063l-.4.136Z" transform="translate(0 -53.233)" fill="#fff"/>
      <path id="Path_15" data-name="Path 15" d="M43.806,14.593v3.213a1.6,1.6,0,0,0,1.712.012,1.952,1.952,0,0,0,.707-1.724,3,3,0,0,0-.558-2,3.77,3.77,0,0,0-1.885-1.178c-1.141-.372-2.109-.695-2.878-.856v9.613l2.071.633V14.321C42.962,13.837,43.806,13.874,43.806,14.593Z" transform="translate(-35.829 -12.063)" fill="#fff"/>
      <path id="Path_16" data-name="Path 16" d="M67.372,64.032c-.012-.335-.409-.6-1.116-.831a6.207,6.207,0,0,0-2.22-.36,8.368,8.368,0,0,0-2.233.471V64.54l2.009-.707a2.193,2.193,0,0,1,1.129-.087c.4.1.372.323-.025.459l-.459.186-2.654.955V66.6l1.24-.447L66.02,65.1l.347-.161C67.087,64.677,67.41,64.392,67.372,64.032Z" transform="translate(-54.137 -56.54)" fill="#fff"/>
    </g>
  </g>
</svg>
