<svg xmlns="http://www.w3.org/2000/svg" width="11.716" height="11.715" viewBox="0 0 11.716 11.715">
  <g id="game_android_app_aplication_phone" data-name="game android app aplication phone" transform="translate(-3.004 -3.005)">
    <path id="Path_21" data-name="Path 21" d="M3.185,11.966a2.936,2.936,0,0,0,2.573,2.574,26.738,26.738,0,0,0,6.207,0,2.936,2.936,0,0,0,2.574-2.574,26.714,26.714,0,0,0,0-6.207,2.936,2.936,0,0,0-2.573-2.573,26.738,26.738,0,0,0-6.207,0A2.936,2.936,0,0,0,3.185,5.759a26.714,26.714,0,0,0,0,6.207Zm4.061-4.72h3.232v3.232H7.247Z" transform="translate(0 0)" fill="#fff"/>
    <path id="Path_22" data-name="Path 22" d="M22.129,17.564v-.808H20.8V15.429h-.808v1.327H17.57V15.429h-.808v1.327H15.434v.808h1.328v2.424H15.434V20.8h1.328v1.327h.808V17.564h2.424v2.424H18.378V20.8h1.616v1.327H20.8V20.8h1.327v-.808H20.8V17.564Z" transform="translate(-9.919 -9.914)"/>
  </g>
</svg>
