<svg id="ico_menu_stations_copy" data-name="ico/menu/stations copy" xmlns="http://www.w3.org/2000/svg" width="24" height="24" viewBox="0 0 24 24">
  <rect id="ico_menu_book_background" data-name="ico/menu/book background" width="24" height="24" fill="none"/>
  <path id="Combined_Shape" data-name="Combined Shape" d="M10,16H9v-.235A2.994,2.994,0,0,0,7,15H0V0H6A4.005,4.005,0,0,1,9.5,2.065,4.009,4.009,0,0,1,13,0h6V15H12a2.994,2.994,0,0,0-2,.765V16ZM13,1a3,3,0,0,0-3,3V14.535A4,4,0,0,1,12,14h6V1ZM1,1V14H7a4,4,0,0,1,2,.535V4A3,3,0,0,0,6,1Z" transform="translate(3 4)" fill="#5d6c76"/>
</svg>
