<svg id="ico_menu_history_copy" data-name="ico/menu/history copy" xmlns="http://www.w3.org/2000/svg" width="24" height="24" viewBox="0 0 24 24">
  <rect id="ico_menu_fav_background" data-name="ico/menu/fav background" width="24" height="24" fill="none"/>
  <g id="Love_Messages_82_" transform="translate(-56 2.5)">
    <g id="Group_130" data-name="Group 130" transform="translate(61)">
      <path id="Path_60" data-name="Path 60" d="M74.668,17.943H61V0H74.668ZM62.051,16.892H73.616V1.051H62.051Z" transform="translate(-61)" fill="#5d6c76"/>
    </g>
    <g id="Group_131" data-name="Group 131" transform="translate(64.1 9.489)">
      <path id="Path_61" data-name="Path 61" d="M151,271h7.467v1.067H151Z" transform="translate(-151 -271)" fill="#5d6c76"/>
    </g>
    <g id="Group_132" data-name="Group 132" transform="translate(64.1 11.59)">
      <path id="Path_62" data-name="Path 62" d="M151,331h7.467v1.067H151Z" transform="translate(-151 -331)" fill="#5d6c76"/>
    </g>
    <g id="Group_133" data-name="Group 133" transform="translate(64.1 13.69)">
      <path id="Path_63" data-name="Path 63" d="M151,391h7.467v1.067H151Z" transform="translate(-151 -391)" fill="#5d6c76"/>
    </g>
    <g id="Group_134" data-name="Group 134" transform="translate(64.1 2.172)">
      <path id="Path_64" data-name="Path 64" d="M154.734,67.633c-.339-.281-.358-.3-1.166-.96-1.49-1.21-2.567-2.083-2.567-3.4a2.063,2.063,0,0,1,1.463-2.1,2.5,2.5,0,0,1,2.272.447A2.493,2.493,0,0,1,157,61.183a2.061,2.061,0,0,1,1.469,2.091c0,1.314-1.077,2.188-2.567,3.4C155.108,67.315,155.024,67.393,154.734,67.633Zm-1.96-5.435a1,1,0,0,0-.707,1.077c0,.909,1.107,1.693,2.667,2.972,1.561-1.28,2.667-2.064,2.667-2.972a1,1,0,0,0-.713-1.071,1.4,1.4,0,0,0-1.511.5l-.443.659-.443-.659A1.409,1.409,0,0,0,152.774,62.2Z" transform="translate(-151 -61.074)" fill="#5d6c76"/>
    </g>
  </g>
</svg>
