<?xml version="1.0" encoding="utf-8"?>
<!-- Generator: Adobe Illustrator 22.0.0, SVG Export Plug-In . SVG Version: 6.00 Build 0)  -->
<svg version="1.1" id="Layer_1" xmlns="http://www.w3.org/2000/svg" xmlns:xlink="http://www.w3.org/1999/xlink" x="0px" y="0px"
	 width="190" height="44" viewBox="0 0 1463.9 287.9" style="enable-background:new 0 0 1463.9 287.9;" xml:space="preserve">
<style type="text/css">
	.st0{enable-background:new    ;}
	.st1{fill:#060A33;}
</style>
<title>Playarone_primary_dark</title>
<g class="st0">
	<path class="st1" d="M1212.2,241v-89.5c0-10.8-2.4-18.9-7.2-24.4s-11.6-8.2-20.4-8.2c-8.8,0-15.8,2.7-20.8,8.2
		c-5.1,5.5-7.7,13.6-7.7,24.4V241h-45.6V80.2h45.6v23c2.6-3.4,5.4-6.7,8.5-9.8c3.1-3.1,6.5-5.9,10.4-8.3c3.8-2.4,8-4.3,12.6-5.7
		c4.6-1.4,9.8-2.1,15.6-2.1c17.4,0,30.8,5.3,40.3,15.9c9.5,10.6,14.2,25.2,14.2,43.8V241H1212.2z"/>
	<path class="st1" d="M1447.3,170.8c-0.1,1.6-0.3,3.5-0.5,5.7h-111.9c2.2,10.4,6.8,18.3,13.6,23.6c6.9,5.3,15.5,7.9,25.7,7.9
		c7.6,0,14.4-1.3,20.4-3.9c6-2.6,12.2-6.8,18.6-12.6l26.1,23.1c-7.6,9.4-16.8,16.8-27.6,22.1s-23.5,7.9-38.1,7.9
		c-12,0-23.2-2-33.5-6c-10.3-4-19.2-9.7-26.7-17.1c-7.5-7.4-13.3-16.1-17.5-26.2c-4.2-10.1-6.3-21.3-6.3-33.8v-0.6
		c0-11.4,1.9-22.2,5.8-32.4s9.3-19.1,16.3-26.7c7-7.6,15.3-13.6,25.1-18c9.7-4.4,20.4-6.6,32.2-6.6c13.4,0,25,2.4,34.8,7.2
		c9.8,4.8,17.9,11.2,24.5,19.3c6.5,8.1,11.3,17.4,14.4,27.9c3.1,10.5,4.7,21.4,4.7,32.8v0.6C1447.4,167.3,1447.4,169.2,1447.3,170.8
		z M1392.2,123.3c-5.8-6.3-13.5-9.5-23.1-9.5c-9.6,0-17.4,3.1-23.2,9.3c-5.9,6.2-9.8,14.5-11.6,24.9h68.7
		C1401.6,137.8,1398,129.6,1392.2,123.3z"/>
</g>
<path class="st1" d="M992.3,83.7c101-10.1,120.5,139.4,15.7,163.9c-135.7,15.2-136.4-183.1-2.4-170.8
	c-137.4,16.2-84.5,159.8-1.9,150C1073.4,217,1090.3,92,992.3,83.7z"/>
<g class="st0">
	<path class="st1" d="M180.8,117.3c-4.4,8.4-10.3,15.4-17.8,21c-7.5,5.6-16.2,9.8-26.1,12.6c-9.9,2.8-20.4,4.2-31.4,4.2H48.8v78.3
		H33.2v-210h76.2c11.6,0,22.1,1.5,31.6,4.3c9.5,2.9,17.7,7.1,24.6,12.6c6.9,5.5,12.2,12.2,16.1,20.1c3.8,7.9,5.7,17,5.7,27.2v0.6
		C187.4,99.2,185.2,108.9,180.8,117.3z M171.8,88.5c0-8.4-1.6-15.8-4.6-22.2c-3.1-6.3-7.5-11.6-13-15.8c-5.6-4.2-12.3-7.4-20.1-9.7
		c-7.8-2.2-16.4-3.3-25.8-3.3H48.8V141h57.6c9.8,0,18.7-1.2,26.7-3.6c8-2.4,14.9-5.9,20.5-10.4c5.7-4.5,10.1-10,13.4-16.4
		c3.2-6.4,4.8-13.6,4.8-21.4V88.5z"/>
	<path class="st1" d="M232.4,233.4v-219h14.7v219H232.4z"/>
</g>
<g class="st0">
	<path class="st1" d="M410,233.4v-25.5c-2.6,3.6-5.8,7.2-9.4,10.7c-3.7,3.5-8,6.6-12.8,9.3c-4.8,2.7-10.3,4.9-16.4,6.6
		c-6.1,1.7-12.8,2.5-20,2.5c-7.2,0-14.3-1-21.3-3c-7-2-13.3-5-18.9-9c-5.6-4-10.2-9-13.7-15c-3.5-6-5.2-13-5.2-21v-0.6
		c0-8,1.7-15.1,5-21.3c3.3-6.2,7.8-11.4,13.6-15.6c5.8-4.2,12.8-7.4,21-9.6c8.2-2.2,17.3-3.3,27.3-3.3c10.8,0,20.1,0.6,27.9,1.8
		c7.8,1.2,15.4,2.8,22.8,4.8v-6.6c0-15.5-4.5-27.1-13.4-34.9c-8.9-7.8-21.3-11.6-37-11.6c-9.4,0-18,1.2-25.8,3.5
		c-7.8,2.3-15.2,5.2-22.2,8.8l-5.4-12.9c8.4-4.1,16.9-7.4,25.5-9.8c8.6-2.5,18.2-3.7,28.8-3.7c19.8,0,35.4,5,46.8,15
		c11.4,10,17.1,25,17.1,45v95.4H410z M410.3,158.7c-6.4-1.6-13.9-3.1-22.5-4.6c-8.6-1.5-18.4-2.2-29.4-2.2
		c-16.2,0-28.6,3.2-37.3,9.7c-8.7,6.5-13.1,15.1-13.1,25.8v0.6c0,5.6,1.2,10.5,3.6,14.8c2.4,4.3,5.6,7.9,9.8,10.9
		c4.1,3,8.9,5.3,14.2,6.9s11,2.4,16.8,2.4c7.8,0,15.2-1.1,22.2-3.4c7-2.3,13.1-5.5,18.5-9.6c5.3-4.1,9.5-9,12.6-14.8
		c3.1-5.8,4.7-12.1,4.7-19.1V158.7z"/>
</g>
<g class="st0">
	<path class="st1" d="M540.8,238.8c-6.8,16-14.2,27.2-22.4,33.8c-8.1,6.5-17.7,9.8-28.6,9.8c-5.8,0-11-0.6-15.6-1.7
		c-4.6-1.1-9.5-2.8-14.7-5.1l5.1-13.1c4,2,7.9,3.5,11.7,4.4c3.8,0.9,8.6,1.3,14.4,1.3c4,0,7.7-0.6,11.1-1.8c3.4-1.2,6.6-3.2,9.6-6.1
		c3-2.9,5.9-6.6,8.7-11.2c2.8-4.6,5.6-10.2,8.4-16.8L455,80.4h17.1l63.6,136.8l55.2-136.8h16.2L540.8,238.8z"/>
</g>
<g class="st0">
	<path class="st1" d="M745.1,233.4v-25.5c-2.6,3.6-5.8,7.2-9.5,10.7c-3.7,3.5-8,6.6-12.8,9.3c-4.8,2.7-10.3,4.9-16.4,6.6
		c-6.1,1.7-12.8,2.5-20,2.5c-7.2,0-14.3-1-21.3-3c-7-2-13.3-5-18.9-9c-5.6-4-10.2-9-13.7-15c-3.5-6-5.2-13-5.2-21v-0.6
		c0-8,1.7-15.1,5-21.3c3.3-6.2,7.8-11.4,13.6-15.6c5.8-4.2,12.8-7.4,21-9.6c8.2-2.2,17.3-3.3,27.3-3.3c10.8,0,20.1,0.6,27.9,1.8
		c7.8,1.2,15.4,2.8,22.8,4.8v-6.6c0-15.5-4.5-27.1-13.4-34.9c-8.9-7.8-21.3-11.6-37-11.6c-9.4,0-18,1.2-25.8,3.5
		c-7.8,2.3-15.2,5.2-22.2,8.8l-5.4-12.9c8.4-4.1,16.9-7.4,25.5-9.8c8.6-2.5,18.2-3.7,28.8-3.7c19.8,0,35.4,5,46.8,15
		c11.4,10,17.1,25,17.1,45v95.4H745.1z M745.4,158.7c-6.4-1.6-13.9-3.1-22.5-4.6c-8.6-1.5-18.4-2.2-29.4-2.2
		c-16.2,0-28.6,3.2-37.3,9.7c-8.7,6.5-13.1,15.1-13.1,25.8v0.6c0,5.6,1.2,10.5,3.6,14.8c2.4,4.3,5.6,7.9,9.8,10.9
		c4.1,3,8.9,5.3,14.2,6.9s11,2.4,16.8,2.4c7.8,0,15.2-1.1,22.2-3.4c7-2.3,13.1-5.5,18.5-9.6c5.3-4.1,9.5-9,12.6-14.8
		c3.1-5.8,4.7-12.1,4.7-19.1V158.7z"/>
	<path class="st1" d="M893.3,94.2c-8.8,0-17.2,1.7-25.2,5c-8,3.3-15.1,8.2-21.2,14.7c-6.1,6.5-11,14.5-14.5,24
		c-3.6,9.5-5.4,20.5-5.4,32.9v62.7h-14.7v-153H827v43.5c3-6.8,6.8-13.1,11.4-18.9c4.6-5.8,9.8-10.7,15.6-14.8
		c5.8-4.1,12.2-7.2,19-9.3c6.9-2.1,14.1-3,21.8-2.9v16.2H893.3z"/>
</g>
</svg>
