<svg id="ico_menu_charts_copy" data-name="ico/menu/charts copy" xmlns="http://www.w3.org/2000/svg" width="22" height="22" viewBox="0 0 22 22">
  <rect id="ico_menu_calendar_background" data-name="ico/menu/calendar background" width="22" height="22" fill="none"/>
  <g id="settings" transform="translate(2 2)">
    <path id="Path_58" data-name="Path 58" d="M9.392,17.674H8.282a1.629,1.629,0,0,1-1.627-1.627v-.375a7.135,7.135,0,0,1-1.108-.46l-.266.266a1.627,1.627,0,0,1-2.3,0L2.2,14.693a1.627,1.627,0,0,1,0-2.3l.266-.266A7.135,7.135,0,0,1,2,11.019H1.627A1.629,1.629,0,0,1,0,9.392V8.282A1.629,1.629,0,0,1,1.627,6.655H2a7.137,7.137,0,0,1,.46-1.108L2.2,5.281a1.627,1.627,0,0,1,0-2.3L2.98,2.2a1.627,1.627,0,0,1,2.3,0l.266.266A7.142,7.142,0,0,1,6.655,2V1.627A1.629,1.629,0,0,1,8.282,0H9.392a1.629,1.629,0,0,1,1.627,1.627V2a7.135,7.135,0,0,1,1.108.46l.266-.266a1.627,1.627,0,0,1,2.3,0l.784.784a1.627,1.627,0,0,1,0,2.3l-.266.266a7.136,7.136,0,0,1,.46,1.108h.375a1.629,1.629,0,0,1,1.627,1.627V9.392a1.629,1.629,0,0,1-1.627,1.627h-.375a7.137,7.137,0,0,1-.46,1.108l.266.266a1.627,1.627,0,0,1,0,2.3l-.784.784a1.627,1.627,0,0,1-2.3,0l-.266-.266a7.142,7.142,0,0,1-1.108.46v.375A1.629,1.629,0,0,1,9.392,17.674ZM5.72,14.124a6.1,6.1,0,0,0,1.582.657.518.518,0,0,1,.388.5v.765a.592.592,0,0,0,.591.591H9.392a.592.592,0,0,0,.591-.591v-.765a.518.518,0,0,1,.388-.5,6.1,6.1,0,0,0,1.582-.657.518.518,0,0,1,.63.08l.542.542a.591.591,0,0,0,.836,0l.785-.784a.591.591,0,0,0,0-.836l-.542-.542a.518.518,0,0,1-.08-.63,6.1,6.1,0,0,0,.657-1.582.518.518,0,0,1,.5-.388h.764a.592.592,0,0,0,.591-.591V8.282a.592.592,0,0,0-.591-.591h-.764a.518.518,0,0,1-.5-.388,6.1,6.1,0,0,0-.657-1.582.518.518,0,0,1,.08-.63l.542-.542a.591.591,0,0,0,0-.836l-.784-.784a.591.591,0,0,0-.836,0l-.542.542a.518.518,0,0,1-.63.08,6.1,6.1,0,0,0-1.582-.657.518.518,0,0,1-.388-.5V1.627a.592.592,0,0,0-.591-.591H8.282a.592.592,0,0,0-.591.591v.765a.518.518,0,0,1-.388.5A6.1,6.1,0,0,0,5.72,3.55a.518.518,0,0,1-.63-.08l-.542-.542a.591.591,0,0,0-.836,0l-.785.784a.591.591,0,0,0,0,.836l.542.542a.518.518,0,0,1,.08.63A6.1,6.1,0,0,0,2.893,7.3a.518.518,0,0,1-.5.388H1.627a.592.592,0,0,0-.591.591V9.392a.592.592,0,0,0,.591.591h.764a.518.518,0,0,1,.5.388,6.1,6.1,0,0,0,.657,1.582.518.518,0,0,1-.08.63l-.542.542a.591.591,0,0,0,0,.836l.784.784a.591.591,0,0,0,.836,0l.542-.542a.52.52,0,0,1,.63-.08Z" fill="#5d6c76"/>
    <path id="Path_59" data-name="Path 59" d="M148.445,152.291a3.845,3.845,0,1,1,3.845-3.845A3.85,3.85,0,0,1,148.445,152.291Zm0-6.655a2.81,2.81,0,1,0,2.81,2.81A2.813,2.813,0,0,0,148.445,145.636Z" transform="translate(-139.609 -139.609)" fill="#5d6c76"/>
  </g>
</svg>
