<svg id="buttons_normal_copy_2" data-name="buttons/normal copy 2" xmlns="http://www.w3.org/2000/svg" width="40" height="40" viewBox="0 0 40 40">
  <rect id="buttons_03-icon_default_background" data-name="buttons/03-icon/default background" width="40" height="40" fill="none"/>
  <rect id="frame" width="40" height="40" rx="6" fill="#1a1b1f"/>
  <g id="like" transform="translate(9 9.9)">
    <g id="Group_149" data-name="Group 149" transform="translate(0 0)">
      <path id="Path_70" data-name="Path 70" d="M151.1,20.394a2.893,2.893,0,0,0,.726-1.966,2.568,2.568,0,0,0-2.533-2.534h-3.656a3.329,3.329,0,0,1,.105-.317,2.21,2.21,0,0,1,.145-.29c.061-.106.106-.185.132-.238q.237-.448.363-.739a5.394,5.394,0,0,0,.251-.792,4.114,4.114,0,0,0,.125-1c0-.211,0-.383-.007-.515a5.679,5.679,0,0,0-.066-.594,3.333,3.333,0,0,0-.159-.66,3.075,3.075,0,0,0-.317-.594,1.85,1.85,0,0,0-.528-.535,2.892,2.892,0,0,0-.792-.343,3.941,3.941,0,0,0-1.089-.139.812.812,0,0,0-.594.251,2.291,2.291,0,0,0-.449.66,3.927,3.927,0,0,0-.258.686q-.073.29-.165.805-.119.555-.178.8a4.223,4.223,0,0,1-.231.64,2.022,2.022,0,0,1-.409.634,19.512,19.512,0,0,0-1.333,1.584q-.647.845-1.333,1.6t-1,.779a.866.866,0,0,0-.567.271.8.8,0,0,0-.238.574v8.46a.79.79,0,0,0,.251.587.873.873,0,0,0,.594.258,9.65,9.65,0,0,1,2.085.581c.677.228,1.59.521,1.59.521s.918.246,1.6.383a9.807,9.807,0,0,0,1.9.2h1.7a3.279,3.279,0,0,0,2.6-1.029,3.173,3.173,0,0,0,.647-2.389,2.567,2.567,0,0,0,.713-1.241,2.715,2.715,0,0,0,0-1.544,2.739,2.739,0,0,0,.567-1.808A3.146,3.146,0,0,0,151.1,20.394Z" transform="translate(-130.704 -9.136)" fill="#00e65a"/>
      <path id="Path_71" data-name="Path 71" d="M4.646,191.864H.845a.812.812,0,0,0-.594.251.812.812,0,0,0-.251.594v8.447a.812.812,0,0,0,.251.594A.813.813,0,0,0,.845,202h3.8a.856.856,0,0,0,.845-.844v-8.447a.856.856,0,0,0-.845-.845Zm-1.518,8.2a.823.823,0,0,1-.594.244.845.845,0,0,1-.6-1.438.836.836,0,0,1,1.194,0,.836.836,0,0,1,0,1.194Z" transform="translate(0 -183.417)" fill="#00e65a"/>
    </g>
  </g>
</svg>
