<svg xmlns="http://www.w3.org/2000/svg" width="13.445" height="16.527" viewBox="0 0 13.445 16.527">
  <g id="trash" transform="translate(-44)">
    <path id="Path_51" data-name="Path 51" d="M228.28,137.8a.28.28,0,0,0,.28-.28V128.28a.28.28,0,1,0-.56,0v9.244A.28.28,0,0,0,228.28,137.8Z" transform="translate(-177.557 -123.518)" fill="#5d6c76"/>
    <path id="Path_52" data-name="Path 52" d="M148.28,137.8a.28.28,0,0,0,.28-.28V128.28a.28.28,0,1,0-.56,0v9.244A.28.28,0,0,0,148.28,137.8Z" transform="translate(-100.359 -123.518)" fill="#5d6c76"/>
    <path id="Path_53" data-name="Path 53" d="M308.28,137.8a.28.28,0,0,0,.28-.28V128.28a.28.28,0,1,0-.56,0v9.244A.28.28,0,0,0,308.28,137.8Z" transform="translate(-254.756 -123.518)" fill="#5d6c76"/>
    <path id="Path_54" data-name="Path 54" d="M57.165,1.681H53.231a2.226,2.226,0,0,0-.508-1.32A1.185,1.185,0,0,0,51.843,0h-2.8a1.185,1.185,0,0,0-.881.361,2.226,2.226,0,0,0-.508,1.32H44.28a.28.28,0,1,0,0,.56h.572l.536,12.891a1.359,1.359,0,0,0,1.375,1.395h7.919a1.357,1.357,0,0,0,1.375-1.389l.537-12.9h.572a.28.28,0,1,0,0-.56Zm-8.6-.93A.635.635,0,0,1,49.042.56h2.8a.635.635,0,0,1,.478.191,1.648,1.648,0,0,1,.347.93H48.217A1.65,1.65,0,0,1,48.564.751ZM55.5,15.12a.813.813,0,0,1-.815.846H46.763a.823.823,0,0,1-.815-.852L45.412,2.241h10.62Z" fill="#5d6c76"/>
  </g>
</svg>
