<svg xmlns="http://www.w3.org/2000/svg" width="20.555" height="15.802" viewBox="0 0 20.555 15.802">
  <g id="Group_135" data-name="Group 135" transform="translate(20385.934 22691.273)">
    <g id="Group_125" data-name="Group 125" transform="translate(-20374.82 -22691.273)">
      <path id="Path_56" data-name="Path 56" d="M139.44,5.981h.074a2.121,2.121,0,0,0,1.621-.7,4.2,4.2,0,0,0,.722-2.871A2.345,2.345,0,0,0,140.742.324,2.556,2.556,0,0,0,139.5,0h-.039a2.56,2.56,0,0,0-1.237.315A2.347,2.347,0,0,0,137.1,2.409a4.2,4.2,0,0,0,.722,2.871A2.113,2.113,0,0,0,139.44,5.981Zm-1.726-3.515c0-.007,0-.014,0-.018A1.672,1.672,0,0,1,139.463.623h.028a1.681,1.681,0,0,1,1.747,1.825.045.045,0,0,0,0,.018,3.639,3.639,0,0,1-.568,2.4,1.507,1.507,0,0,1-1.184.492h-.023a1.5,1.5,0,0,1-1.182-.492A3.659,3.659,0,0,1,137.714,2.467Z" transform="translate(-134.76)" fill="#5d6c76"/>
      <path id="Path_57" data-name="Path 57" d="M45.514,262.1V262.1c0-.018,0-.037,0-.057a1.8,1.8,0,0,0-1.041-1.86l-.023-.007a6.634,6.634,0,0,1-1.908-.869.31.31,0,1,0-.356.508,7.158,7.158,0,0,0,2.1.959c.536.191.6.763.611,1.287a.461.461,0,0,0,0,.057,4.173,4.173,0,0,1-.048.71,9.179,9.179,0,0,1-8.108,0,3.95,3.95,0,0,1-.048-.71c0-.018,0-.037,0-.057.016-.524.076-1.1.611-1.287a7.227,7.227,0,0,0,2.1-.959.31.31,0,1,0-.356-.508,6.562,6.562,0,0,1-1.908.869l-.023.007a1.806,1.806,0,0,0-1.041,1.86.461.461,0,0,1,0,.057v.007a3.525,3.525,0,0,0,.117,1.041.3.3,0,0,0,.12.145,8.7,8.7,0,0,0,4.487,1.1,8.721,8.721,0,0,0,4.487-1.1.307.307,0,0,0,.12-.145A3.7,3.7,0,0,0,45.514,262.1Z" transform="translate(-36.073 -253.285)" fill="#5d6c76"/>
    </g>
    <g id="Group_127" data-name="Group 127" transform="translate(-20381.686 -22689.541)">
      <path id="Path_56-2" data-name="Path 56" d="M140.072,7.581h.093a2.689,2.689,0,0,0,2.054-.889,5.329,5.329,0,0,0,.915-3.639A2.973,2.973,0,0,0,141.721.411,3.24,3.24,0,0,0,140.153,0h-.05a3.245,3.245,0,0,0-1.568.4,2.974,2.974,0,0,0-1.431,2.654,5.329,5.329,0,0,0,.915,3.639A2.678,2.678,0,0,0,140.072,7.581Zm-2.188-4.455c0-.009,0-.017,0-.023A2.119,2.119,0,0,1,140.1.79h.035A2.13,2.13,0,0,1,142.35,3.1a.057.057,0,0,0,0,.023,4.613,4.613,0,0,1-.72,3.045,1.91,1.91,0,0,1-1.5.624H140.1a1.9,1.9,0,0,1-1.5-.624A4.638,4.638,0,0,1,137.883,3.126Z" transform="translate(-134.139)" fill="#5d6c76"/>
      <path id="Path_57-2" data-name="Path 57" d="M48.04,262.867v-.009c0-.023,0-.047,0-.073a2.285,2.285,0,0,0-1.32-2.357l-.029-.009a8.409,8.409,0,0,1-2.418-1.1.393.393,0,1,0-.452.644,9.075,9.075,0,0,0,2.66,1.215c.679.242.755.967.775,1.632a.584.584,0,0,0,0,.073,5.288,5.288,0,0,1-.061.9,11.635,11.635,0,0,1-10.276,0,5.006,5.006,0,0,1-.061-.9c0-.023,0-.047,0-.073.02-.664.1-1.39.775-1.632a9.159,9.159,0,0,0,2.66-1.215.393.393,0,1,0-.452-.644,8.317,8.317,0,0,1-2.418,1.1l-.029.009a2.289,2.289,0,0,0-1.32,2.357.585.585,0,0,1,0,.073v.009a4.468,4.468,0,0,0,.149,1.32.374.374,0,0,0,.152.184,11.021,11.021,0,0,0,5.687,1.393,11.054,11.054,0,0,0,5.687-1.393.39.39,0,0,0,.152-.184A4.688,4.688,0,0,0,48.04,262.867Z" transform="translate(-36.073 -251.691)" fill="#5d6c76"/>
    </g>
    <g id="Group_126" data-name="Group 126" transform="translate(-20385.934 -22691.273)">
      <path id="Path_56-3" data-name="Path 56" d="M139.44,5.981h.074a2.121,2.121,0,0,0,1.621-.7,4.2,4.2,0,0,0,.722-2.871A2.345,2.345,0,0,0,140.742.324,2.556,2.556,0,0,0,139.5,0h-.039a2.56,2.56,0,0,0-1.237.315A2.347,2.347,0,0,0,137.1,2.409a4.2,4.2,0,0,0,.722,2.871A2.113,2.113,0,0,0,139.44,5.981Zm-1.726-3.515c0-.007,0-.014,0-.018A1.672,1.672,0,0,1,139.463.623h.028a1.681,1.681,0,0,1,1.747,1.825.045.045,0,0,0,0,.018,3.639,3.639,0,0,1-.568,2.4,1.507,1.507,0,0,1-1.184.492h-.023a1.5,1.5,0,0,1-1.182-.492A3.659,3.659,0,0,1,137.714,2.467Z" transform="translate(-134.76)" fill="#5d6c76"/>
      <path id="Path_57-3" data-name="Path 57" d="M45.514,262.1V262.1c0-.018,0-.037,0-.057a1.8,1.8,0,0,0-1.041-1.86l-.023-.007a6.634,6.634,0,0,1-1.908-.869.31.31,0,1,0-.356.508,7.158,7.158,0,0,0,2.1.959c.536.191.6.763.611,1.287a.461.461,0,0,0,0,.057,4.173,4.173,0,0,1-.048.71,9.179,9.179,0,0,1-8.108,0,3.95,3.95,0,0,1-.048-.71c0-.018,0-.037,0-.057.016-.524.076-1.1.611-1.287a7.227,7.227,0,0,0,2.1-.959.31.31,0,1,0-.356-.508,6.562,6.562,0,0,1-1.908.869l-.023.007a1.806,1.806,0,0,0-1.041,1.86.461.461,0,0,1,0,.057v.007a3.525,3.525,0,0,0,.117,1.041.3.3,0,0,0,.12.145,8.7,8.7,0,0,0,4.487,1.1,8.721,8.721,0,0,0,4.487-1.1.307.307,0,0,0,.12-.145A3.7,3.7,0,0,0,45.514,262.1Z" transform="translate(-36.073 -253.285)" fill="#5d6c76"/>
    </g>
  </g>
</svg>
