<svg id="youtube_1_" data-name="youtube (1)" xmlns="http://www.w3.org/2000/svg" width="35.706" height="25" viewBox="0 0 35.706 25">
  <path id="Path_4" data-name="Path 4" d="M34.97,3.912A4.473,4.473,0,0,0,31.823.765C29.029,0,17.853,0,17.853,0S6.676,0,3.882.736A4.565,4.565,0,0,0,.735,3.912,47.139,47.139,0,0,0,0,12.5s0,5.823.735,8.588a4.474,4.474,0,0,0,3.147,3.147C6.706,25,17.853,25,17.853,25s11.176,0,13.97-.736a4.473,4.473,0,0,0,3.147-3.147,47.14,47.14,0,0,0,.735-8.588S35.735,6.706,34.97,3.912Zm0,0" transform="translate(0)" fill="#335191"/>
  <path id="Path_5" data-name="Path 5" d="M204.969,114l10-5.76-10-5.76Zm0,0" transform="translate(-192.325 -95.971)" fill="#fff"/>
</svg>
