<svg id="africa" xmlns="http://www.w3.org/2000/svg" width="16.281" height="19.316" viewBox="0 0 16.281 19.316">
  <g id="Group_153" data-name="Group 153">
    <g id="Group_152" data-name="Group 152" transform="translate(0 0)">
      <path id="Path_76" data-name="Path 76" d="M50.449,19.316H48.127l-1.669-4.472.446-2.083-.929-3.118-.726-.449L42.5,9.958,40.232,7.688V3.373L43.359,0h3.776l.208,1.142L48.6,1.7l.488-.872,3.127.79,2.143,4.43,2.154-.331V6.8l-.608,2.052-1.347,2.016.062,2.881L53.132,15.24,52.576,17Zm-1.536-1.132h1.038l1.622-1.769.564-1.781,1.341-1.342-.06-2.755,1.45-2.169.39-1.318L53.7,7.29,51.426,2.583l-1.774-.448-.567,1.014L46.337,1.935l-.146-.8H43.853l-2.49,2.686v3.4l1.472,1.472,2.588-.72,1.514.936,1.134,3.808-.438,2.043Z" transform="translate(-40.232 0)" fill="#fff"/>
    </g>
  </g>
</svg>
