<svg width="793" height="90" viewBox="0 0 793 90" fill="none" xmlns="http://www.w3.org/2000/svg">
<path opacity="0.099" d="M1.98804 20.976C2.53538 20.6093 3.12244 20.3057 3.73804 20.071L19.747 53.929C19.8185 54.1016 19.933 54.253 20.0797 54.3687C20.2264 54.4844 20.4003 54.5606 20.5848 54.5899C20.7693 54.6192 20.9582 54.6006 21.1335 54.536C21.3088 54.4715 21.4646 54.363 21.586 54.221L39.788 33.409C39.8816 33.2975 39.9968 33.2062 40.1267 33.1405C40.2566 33.0748 40.3984 33.0361 40.5437 33.0268C40.6889 33.0174 40.8345 33.0376 40.9717 33.0861C41.109 33.1346 41.2349 33.2104 41.342 33.309L58.83 49.1C58.9999 49.2551 59.2144 49.3528 59.443 49.379L76.288 51.233C76.4538 51.2517 76.6129 51.3085 76.753 51.399L95.888 63.675C96.0196 63.7584 96.1675 63.8126 96.3218 63.8341C96.4761 63.8556 96.6332 63.8439 96.7826 63.7996C96.932 63.7554 97.0702 63.6797 97.1879 63.5777C97.3056 63.4756 97.4001 63.3496 97.465 63.208L114.727 28.763C114.801 28.6008 114.914 28.4591 115.055 28.3505C115.196 28.2419 115.362 28.1697 115.538 28.1401C115.714 28.1105 115.894 28.1244 116.063 28.1807C116.232 28.237 116.385 28.3339 116.508 28.463L133.254 45.731C133.379 45.8633 133.536 45.9618 133.709 46.0174C133.883 46.0729 134.067 46.0838 134.246 46.049L152.215 42.443C152.347 42.4175 152.483 42.4175 152.615 42.443L172.152 46.063C172.315 46.0925 172.482 46.0842 172.641 46.0388C172.799 45.9933 172.946 45.912 173.068 45.801L189.814 30.881C189.955 30.7525 190.128 30.664 190.315 30.6246C190.501 30.5853 190.695 30.5964 190.876 30.657L209.061 36.782C209.264 36.8493 209.483 36.8546 209.69 36.7973C209.896 36.7399 210.081 36.6225 210.22 36.46L229.062 15.169C229.186 15.0284 229.342 14.9208 229.518 14.856C229.518 14.856 243.05 -10.12 247.561 8.26298C249.298 15.341 272.892 22.563 272.723 36.784C272.675 40.805 310.755 47.984 309.088 52.24L319.549 36.784C319.549 36.784 333.213 36.777 335.24 34.064C335.24 34.064 314.34 28.764 356.169 42.438C369.178 46.69 344.883 24.422 365.288 30.883C375.735 34.192 391.936 15.169 391.936 15.169L421.011 20.446C421.011 20.446 421.255 32.114 441.645 49.191C448.679 55.083 464.229 63.207 464.229 63.207L480.91 20.446L502.566 8.26298L536.202 20.447L561.247 42.438L596.106 45.804L662.614 30.663L690.165 57.72L729.247 63.212L750.454 49.196L767.888 52.24L791.858 68.892V87.63L1.98804 88.151V20.976Z" fill="url(#paint0_linear)" stroke="#335191" stroke-width="2" stroke-miterlimit="10" stroke-linecap="square"/>
<path d="M2.79901 20.4749L18.977 52.5359C19.13 52.8685 19.3642 53.1573 19.6581 53.3755C19.952 53.5938 20.2961 53.7346 20.6588 53.7849C21.0214 53.8352 21.3908 53.7934 21.7331 53.6634C22.0753 53.5334 22.3793 53.3193 22.617 53.0409L39.056 34.2469C39.2432 34.0242 39.4735 33.8416 39.7332 33.7104C39.9929 33.5791 40.2764 33.5017 40.5668 33.4831C40.8571 33.4644 41.1483 33.5047 41.4226 33.6016C41.697 33.6985 41.9488 33.85 42.163 34.0469L58.563 48.8629C58.9028 49.1733 59.3318 49.3686 59.789 49.4209L76.035 51.2099C76.3664 51.247 76.6847 51.3603 76.965 51.5409L94.872 63.0229C95.1352 63.1895 95.431 63.2979 95.7396 63.3408C96.0481 63.3838 96.3623 63.3602 96.661 63.2717C96.9597 63.1833 97.236 63.032 97.4714 62.828C97.7069 62.624 97.896 62.372 98.026 62.0889L114.02 30.1699C114.168 29.8457 114.393 29.5626 114.676 29.3456C114.958 29.1285 115.29 28.984 115.641 28.9248C115.993 28.8656 116.353 28.8935 116.691 29.0059C117.03 29.1184 117.335 29.312 117.581 29.5699L132.832 45.2969C133.082 45.5614 133.396 45.7584 133.742 45.8696C134.089 45.9807 134.459 46.0025 134.816 45.9329L152.016 42.4819C152.28 42.429 152.551 42.427 152.816 42.4759L171.637 45.9759C171.962 46.0348 172.297 46.0181 172.614 45.9271C172.932 45.836 173.224 45.6731 173.469 45.4509L189.34 31.3109C189.622 31.0541 189.967 30.8771 190.341 30.7982C190.714 30.7193 191.101 30.7413 191.463 30.8619L208.387 36.5619C208.794 36.6967 209.232 36.7073 209.645 36.5924C210.058 36.4775 210.427 36.2424 210.706 35.9169L228.87 15.3859C229.117 15.1044 229.43 14.8889 229.781 14.7589L247.561 8.26294L273.644 36.5569L306.744 53.0419L319.479 36.5569L335.579 34.2479L355.599 42.4759L365.224 31.3059L391.982 14.7629L421.33 20.4779L441.389 49.4199L464.289 63.0259L481.384 20.4779L501.676 8.26294L535.976 20.4749L561.626 42.4749L596.006 49.1749L638.86 36.5599L661.77 29.5719L689.781 58.1969L729.997 61.9409L752.28 48.7939L767.715 51.1629L791.229 67.5989" stroke="#335191" stroke-width="2" stroke-miterlimit="10"/>
<defs>
<linearGradient id="paint0_linear" x1="396.923" y1="8.87472" x2="396.923" y2="88.151" gradientUnits="userSpaceOnUse">
<stop stop-color="#335191"/>
<stop offset="1" stop-color="#0149FF" stop-opacity="0"/>
</linearGradient>
</defs>
</svg>
