<svg xmlns="http://www.w3.org/2000/svg" width="11.361" height="11.36" viewBox="0 0 11.361 11.36">
  <g id="xbox" transform="translate(0 -0.036)">
    <path id="Path_12" data-name="Path 12" d="M159.265,1.04a8.392,8.392,0,0,1,1.723.926.355.355,0,0,0,.406,0,8.4,8.4,0,0,1,1.723-.927.355.355,0,0,0,0-.662,5.586,5.586,0,0,0-3.846,0,.355.355,0,0,0,0,.663Z" transform="translate(-155.511 0)" fill="#fff"/>
    <path id="Path_13" data-name="Path 13" d="M8.9,42.582a.354.354,0,0,0-.378-.015,15.571,15.571,0,0,0-1.911,1.3.355.355,0,0,0-.024.535,18.571,18.571,0,0,1,3.395,6.551c-.866-1.464-2.8-4.91-4.059-6.088a.355.355,0,0,0-.484,0c-1.265,1.179-3.188,4.628-4.055,6.093A18.581,18.581,0,0,1,4.774,44.4a.355.355,0,0,0-.023-.535,15.626,15.626,0,0,0-1.911-1.3.358.358,0,0,0-.379.015,5.681,5.681,0,1,0,6.438,0Z" transform="translate(0 -41.54)" fill="#fff"/>
  </g>
</svg>
