<svg id="ico_menu_charts_copy_3" data-name="ico/menu/charts copy 3" xmlns="http://www.w3.org/2000/svg" xmlns:xlink="http://www.w3.org/1999/xlink" width="24" height="24" viewBox="0 0 24 24">
  <defs>
    <clipPath id="clip-path">
      <path id="Combined_Shape" data-name="Combined Shape" d="M17,16H5V0H17V16h0ZM6,15H16V1H6Zm13-2V3h1V13ZM2,13V3H3V13Zm19-2V5h1v6ZM0,11V5H1v6Z" fill="#5d6c76"/>
    </clipPath>
  </defs>
  <rect id="ico_menu_discover_background" data-name="ico/menu/discover background" width="24" height="24" fill="none"/>
  <g id="Group_42" data-name="Group 42" transform="translate(1 4)">
    <path id="Combined_Shape-2" data-name="Combined Shape" d="M17,16H5V0H17V16h0ZM6,15H16V1H6Zm13-2V3h1V13ZM2,13V3H3V13Zm19-2V5h1v6ZM0,11V5H1v6Z" fill="#5d6c76"/>
  </g>
</svg>
