<svg xmlns="http://www.w3.org/2000/svg" xmlns:xlink="http://www.w3.org/1999/xlink" width="50" height="50" viewBox="0 0 50 50">
  <defs>
    <filter id="Rectangle_7" x="0" y="0" width="50" height="50" filterUnits="userSpaceOnUse">
      <feOffset dy="5" input="SourceAlpha"/>
      <feGaussianBlur stdDeviation="5" result="blur"/>
      <feFlood flood-color="#0c0d12" flood-opacity="0.353"/>
      <feComposite operator="in" in2="blur"/>
      <feComposite in="SourceGraphic"/>
    </filter>
    <filter id="Rectangle_7-2" x="0" y="0" width="50" height="50" filterUnits="userSpaceOnUse">
      <feOffset dy="5" input="SourceAlpha"/>
      <feGaussianBlur stdDeviation="5" result="blur-2"/>
      <feFlood flood-color="#0c0d12" flood-opacity="0.353"/>
      <feComposite operator="in" in2="blur-2"/>
      <feComposite in="SourceGraphic"/>
    </filter>
    <clipPath id="clip-path">
      <g transform="matrix(1, 0, 0, 1, 0, 0)" filter="url(#Rectangle_7)">
        <rect id="Rectangle_7-3" data-name="Rectangle 7" width="14" height="14" rx="7" fill="#0149ff" stroke="#1b1d25" stroke-miterlimit="10" stroke-width="3"/>
      </g>
    </clipPath>
  </defs>
  <g id="ico_menu_history" data-name="ico/menu/history" transform="translate(3 13)">
    <rect id="ico_menu_history_background" data-name="ico/menu/history background" width="24" height="24" transform="translate(0 0.5)" fill="none"/>
    <g id="chat" transform="translate(4 4.498)">
      <g id="Group_119" data-name="Group 119" transform="translate(0 0.002)">
        <path id="Path_55" data-name="Path 55" d="M16.762,0H2.011C.343,0,0,.2,0,2.013V12.741a1.759,1.759,0,0,0,2.011,2.011h2.38l-.365,3.279a.67.67,0,0,0,1.115.572l4.279-3.851h7.341a2.011,2.011,0,0,0,2.011-2.011V2.013A1.824,1.824,0,0,0,16.762,0Zm1.3,12.739c0,.37-.931,1.264-1.3,1.264H9.62c-.166,0-.488-.01-.611.1L4.8,17.869l.342-3.216s.164-.607-.2-.648c-.025,0-.62,0-.645,0H2.011A1.151,1.151,0,0,1,.782,12.741V2.013C.825,1.279.857.795,2.011.764H16.762c.676.024,1.376.237,1.3,1.531V12.741Z" transform="translate(0 -0.002)" fill="#5d6c76"/>
      </g>
    </g>
    <g id="counter_" data-name="counter 🔢" transform="translate(15)">
      <g transform="matrix(1, 0, 0, 1, -18, -13)" filter="url(#Rectangle_7-2)">
        <g id="Rectangle_7-4" data-name="Rectangle 7" transform="translate(18 13)" fill="#0149ff">
          <path d="M 7 15.5 C 2.313080072402954 15.5 -1.5 11.68692016601563 -1.5 7 C -1.5 2.313080072402954 2.313080072402954 -1.5 7 -1.5 C 11.68692016601563 -1.5 15.5 2.313080072402954 15.5 7 C 15.5 11.68692016601563 11.68692016601563 15.5 7 15.5 Z" stroke="none"/>
          <path d="M 7 0 C 3.134010314941406 0 0 3.134010314941406 0 7 C 0 10.86598968505859 3.134010314941406 14 7 14 C 10.86598968505859 14 14 10.86598968505859 14 7 C 14 3.134010314941406 10.86598968505859 0 7 0 M 7 -3 C 12.51401996612549 -3 17 1.485980033874512 17 7 C 17 12.51401996612549 12.51401996612549 17 7 17 C 1.485980033874512 17 -3 12.51401996612549 -3 7 C -3 1.485980033874512 1.485980033874512 -3 7 -3 Z" stroke="none" fill="#121317"/>
        </g>
      </g>
      <g id="counter_2" data-name="counter 🔢" clip-path="url(#clip-path)">
        <text id="_Counter" data-name="🔢 Counter" transform="translate(4 11)" fill="#fff" font-size="11" font-family="Roboto-Bold, Roboto" font-weight="700" letter-spacing="-0.025em"><tspan x="0" y="0">2</tspan></text>
      </g>
    </g>
  </g>
</svg>
