<?xml version="1.0" encoding="utf-8"?>
<!-- Generator: Adobe Illustrator 22.0.0, SVG Export Plug-In . SVG Version: 6.00 Build 0)  -->
<svg version="1.1" id="ico_favs" xmlns="http://www.w3.org/2000/svg" xmlns:xlink="http://www.w3.org/1999/xlink" x="0px" y="0px"
	 width="24" height="24" viewBox="0 0 24 24" style="enable-background:new 0 0 24 24;" xml:space="preserve">
<style type="text/css">
	.st0{fill:none;}
	.st1{fill:#5D6C76;}
</style>
<rect id="ico_menu_stats_background" class="st0" width="24" height="24"/>
<g id="chat" transform="translate(4 4.498)">
	<g id="Group_119" transform="translate(0 0.002)">
		<path id="Path_55" class="st1" d="M15.4-1.9H0.6c-1.7,0-2,0.2-2,2v10.7c-0.2,1,0.5,1.9,1.5,2c0.2,0,0.4,0,0.5,0H3l-0.4,3.3
			c0,0.4,0.2,0.7,0.6,0.7c0.2,0,0.4,0,0.5-0.2L8,12.9h7.3c1.1,0,2-0.9,2-2V0.1c0.1-1-0.6-1.9-1.6-2C15.6-1.9,15.5-1.9,15.4-1.9z
			 M16.7,10.9c0,0.4-0.9,1.3-1.3,1.3H8.2c-0.2,0-0.5,0-0.6,0.1L3.4,16l0.3-3.2c0,0,0.2-0.6-0.2-0.6c0,0-0.6,0-0.6,0H0.6
			c-0.6,0-1.2-0.4-1.2-1.1c0-0.1,0-0.1,0-0.2V0.1c0-0.7,0.1-1.2,1.2-1.2h14.8c0.7,0,1.4,0.2,1.3,1.5V10.9L16.7,10.9z"/>
	</g>
</g>
</svg>
