<svg id="instagram-sketched" xmlns="http://www.w3.org/2000/svg" width="30" height="30.006" viewBox="0 0 30 30.006">
  <path id="Path_6" data-name="Path 6" d="M1.887,2.045C-.464,4.487.017,7.08.017,14.96c0,6.544-1.142,13.1,4.834,14.648,1.866.48,18.4.48,20.262,0,2.488-.642,4.512-2.66,4.789-6.178.039-.491.039-16.434,0-16.935C29.606,2.744,27.3.584,24.259.147A26.911,26.911,0,0,0,19.848.009C7.168.016,4.388-.549,1.887,2.045Z" transform="translate(0.07 0.038)" fill="#335191"/>
  <path id="Path_7" data-name="Path 7" d="M14.963,3.142c-4.846,0-9.447-.431-11.2,4.079-.726,1.863-.621,4.282-.621,7.746,0,3.04-.1,5.9.621,7.744,1.754,4.513,6.392,4.08,11.2,4.08,4.64,0,9.424.483,11.2-4.08.727-1.881.621-4.264.621-7.744,0-4.619.255-7.6-1.986-9.841-2.269-2.268-5.337-1.984-9.841-1.984ZM13.9,5.273C24.012,5.257,25.3,4.133,24.588,19.741c-.252,5.52-4.456,4.914-9.623,4.914-9.422,0-9.693-.27-9.693-9.694,0-9.534.747-9.683,8.632-9.691Zm7.372,1.963a1.418,1.418,0,1,0,1.419,1.418A1.419,1.419,0,0,0,21.276,7.236ZM14.963,8.894a6.072,6.072,0,1,0,6.071,6.072,6.073,6.073,0,0,0-6.071-6.072Zm0,2.131c5.211,0,5.218,7.883,0,7.883S9.746,11.025,14.963,11.025Z" transform="translate(0.07 0.038)" fill="#fff"/>
</svg>
