<svg xmlns="http://www.w3.org/2000/svg" width="11.716" height="11.715" viewBox="0 0 11.72 11.72">
    <defs>
        <style>.cls-1{fill:#335191;}.cls-2{fill:#fff;}</style>
    </defs>
    <title>mob-blue</title>
    <g id="Layer_2" data-name="Layer 2">
        <g id="Layer_1-2" data-name="Layer 1">
            <g id="game_android_app_aplication_phone" data-name="game android app aplication phone">
                <path id="Path_21" data-name="Path 21" class="cls-1" d="M.18,9a2.92,2.92,0,0,0,2.57,2.57,25.8,25.8,0,0,0,6.21,0A2.91,2.91,0,0,0,11.53,9a25.8,25.8,0,0,0,0-6.21A2.92,2.92,0,0,0,9,.18a26.87,26.87,0,0,0-6.21,0A2.93,2.93,0,0,0,.18,2.75,26.87,26.87,0,0,0,.18,9ZM4.24,4.24H7.47V7.47H4.24Z"/>
                <path id="Path_22" data-name="Path 22" class="cls-2" d="M9.21,4.64v-.8H7.88V2.51H7.07V3.84H4.65V2.51H3.84V3.84H2.51v.8H3.84V7.07H2.51v.81H3.84V9.21h.81V4.64H7.07V7.07H5.45v.81H7.07V9.21h.81V7.88H9.2V7.07H7.88V4.64Z"/>
            </g>
        </g>
    </g>
</svg>