<svg xmlns="http://www.w3.org/2000/svg" xmlns:xlink="http://www.w3.org/1999/xlink" width="50" height="50" viewBox="0 0 50 50">
  <defs>
    <filter id="Rectangle_7" x="0" y="0" width="50" height="50" filterUnits="userSpaceOnUse">
      <feOffset dy="5" input="SourceAlpha"/>
      <feGaussianBlur stdDeviation="5" result="blur"/>
      <feFlood flood-color="#0c0d12" flood-opacity="0.353"/>
      <feComposite operator="in" in2="blur"/>
      <feComposite in="SourceGraphic"/>
    </filter>
    <clipPath id="clip-path">
      <path id="Shape" d="M8,20a2.028,2.028,0,0,1-2-2.051h4A2.028,2.028,0,0,1,8,20Zm8-3.077H0V15.9l2-2.051V8.718A7.415,7.415,0,0,1,3.174,4.554,5.519,5.519,0,0,1,6.5,2.236v-.7a1.5,1.5,0,1,1,3,0v.7a5.527,5.527,0,0,1,3.322,2.322A7.4,7.4,0,0,1,14,8.718v5.128L16,15.9v1.024Z" fill="#fff"/>
    </clipPath>
    <filter id="Rectangle_7-2" x="0" y="0" width="50" height="50" filterUnits="userSpaceOnUse">
      <feOffset dy="5" input="SourceAlpha"/>
      <feGaussianBlur stdDeviation="5" result="blur-2"/>
      <feFlood flood-color="#0c0d12" flood-opacity="0.353"/>
      <feComposite operator="in" in2="blur-2"/>
      <feComposite in="SourceGraphic"/>
    </filter>
    <clipPath id="clip-path-2">
      <g transform="matrix(1, 0, 0, 1, 0, 0)" filter="url(#Rectangle_7)">
        <rect id="Rectangle_7-3" data-name="Rectangle 7" width="14" height="14" rx="7" fill="#0149ff" stroke="#1b1d25" stroke-miterlimit="10" stroke-width="3"/>
      </g>
    </clipPath>
  </defs>
  <g id="parts_notofication" data-name="parts/notofication" transform="translate(7 13)">
    <g id="_icon" data-name="💎icon" transform="translate(0 6)">
      <path id="Shape-2" data-name="Shape" d="M8,20a2.028,2.028,0,0,1-2-2.051h4A2.028,2.028,0,0,1,8,20Zm8-3.077H0V15.9l2-2.051V8.718A7.415,7.415,0,0,1,3.174,4.554,5.519,5.519,0,0,1,6.5,2.236v-.7a1.5,1.5,0,1,1,3,0v.7a5.527,5.527,0,0,1,3.322,2.322A7.4,7.4,0,0,1,14,8.718v5.128L16,15.9v1.024Z" fill="#fff"/>
    </g>
    <g id="counter_" data-name="counter 🔢" transform="translate(11)">
      <g transform="matrix(1, 0, 0, 1, -18, -13)" filter="url(#Rectangle_7-2)">
        <g id="Rectangle_7-4" data-name="Rectangle 7" transform="translate(18 13)" fill="#0149ff">
          <path d="M 7 15.5 C 2.313080072402954 15.5 -1.5 11.68692016601563 -1.5 7 C -1.5 2.313080072402954 2.313080072402954 -1.5 7 -1.5 C 11.68692016601563 -1.5 15.5 2.313080072402954 15.5 7 C 15.5 11.68692016601563 11.68692016601563 15.5 7 15.5 Z" stroke="none"/>
          <path d="M 7 0 C 3.134010314941406 0 0 3.134010314941406 0 7 C 0 10.86598968505859 3.134010314941406 14 7 14 C 10.86598968505859 14 14 10.86598968505859 14 7 C 14 3.134010314941406 10.86598968505859 0 7 0 M 7 -3 C 12.51401996612549 -3 17 1.485980033874512 17 7 C 17 12.51401996612549 12.51401996612549 17 7 17 C 1.485980033874512 17 -3 12.51401996612549 -3 7 C -3 1.485980033874512 1.485980033874512 -3 7 -3 Z" stroke="none" fill="#1b1d25"/>
        </g>
      </g>
      <g id="counter_2" data-name="counter 🔢" clip-path="url(#clip-path-2)">
        <text id="_Counter" data-name="🔢 Counter" transform="translate(4 11)" fill="#fff" font-size="11" font-family="Roboto-Bold, Roboto" font-weight="700" letter-spacing="-0.025em"><tspan x="0" y="0">2</tspan></text>
      </g>
    </g>
  </g>
</svg>
