<svg xmlns="http://www.w3.org/2000/svg" width="27.091" height="27.091" viewBox="0 0 27.091 27.091">
  <path id="price" d="M19.156,3.765,15.382,0H10.627L8.753,1.868a14.165,14.165,0,0,0-8.47,2.27.339.339,0,1,0,.395.552,13.543,13.543,0,0,1,7.43-2.18L2.037,8.561l0,0L0,10.6l8.539,8.557,3.409-3.4a5.038,5.038,0,0,0,2.321.547,4.411,4.411,0,0,0,3.09-1.122,5.2,5.2,0,0,0,1.169-5.988l.628-.626v-4.8ZM15.1.679l3.376,3.368V8.285L11.843,14.9c-1.387-.994-1.809-2.86-1.186-5.306A.34.34,0,0,0,10,9.424c-.879,3.452.3,5.155,1.358,5.958l-.779.776L3,8.565,9,2.577a10.393,10.393,0,0,1,4.43,1.585,1.319,1.319,0,0,0-.023.23,1.354,1.354,0,1,0,.313-.849A11.06,11.06,0,0,0,9.609,1.974l1.3-1.3Zm-.9,4.007a.339.339,0,1,0,.407-.543c-.1-.078-.21-.148-.315-.221a.656.656,0,1,1-.15.724C14.16,4.66,14.18,4.671,14.2,4.686ZM.96,10.6,2.52,9.045l7.58,7.6L8.54,18.2Zm15.918,4.1a4.253,4.253,0,0,1-4.425.55l5.56-5.546A4.461,4.461,0,0,1,16.879,14.7Z" transform="translate(0 13.545) rotate(-45)" fill="#5d6c76"/>
</svg>
