<svg id="game" xmlns="http://www.w3.org/2000/svg" width="31.189" height="24.138" viewBox="0 0 31.189 24.138">
  <g id="Group_82" data-name="Group 82" transform="translate(0 0)">
    <path id="Path_14" data-name="Path 14" d="M3.42,2.484l-1.052.409C.79,3.565-.028,4.267,0,4.88c.088.906,1.11,1.578,2.981,2.075a18.117,18.117,0,0,0,7.423.409V4.822h0l-2.016.76A4.086,4.086,0,0,1,5.2,5.7c-.321-.2-.468-.7.409-1.023l1.11-.409L10.4,2.952V0L9.469.321Z" transform="translate(0 13.735)" fill="#335191"/>
    <path id="Path_15" data-name="Path 15" d="M6.838,5.962V13.53c1.578.76,2.981.818,4.033.029,1.081-.76,1.666-2.075,1.666-4.062a7.062,7.062,0,0,0-1.315-4.7A8.881,8.881,0,0,0,6.78,2.016C4.091,1.14,1.812.38,0,0V22.648l4.88,1.49V5.319C4.851,4.179,6.838,4.267,6.838,5.962Z" transform="translate(11.953 0)" fill="#335191"/>
    <path id="Path_16" data-name="Path 16" d="M13.121,2.813c-.029-.789-.964-1.4-2.63-1.958A14.624,14.624,0,0,0,5.26.007,19.714,19.714,0,0,0,0,1.118V4.011L4.734,2.345a5.166,5.166,0,0,1,2.659-.2c.935.234.877.76-.058,1.081L6.254,3.66,0,5.91V8.862L2.922,7.81,9.936,5.326l.818-.38C12.449,4.332,13.209,3.66,13.121,2.813Z" transform="translate(18.061 14.838)" fill="#335191"/>
  </g>
</svg>
