<svg id="twitter" xmlns="http://www.w3.org/2000/svg" width="30" height="30" viewBox="0 0 30 30">
  <path id="Rectangle_4_Copy_9" data-name="Rectangle 4 Copy 9" d="M15,0A15,15,0,1,1,0,15,15,15,0,0,1,15,0Z" fill="#335191"/>
  <g id="elements_socials_fb_copy" data-name="elements/socials/fb copy" transform="translate(8.999 10.077)">
    <path id="Shape" d="M6.312,2.858l.028.465-.47-.057A7.639,7.639,0,0,1,1.4,1.066L.78.449.62.9A2.737,2.737,0,0,0,1.2,3.711c.376.4.291.455-.357.218a1.108,1.108,0,0,0-.441-.1A3.4,3.4,0,0,0,.742,5.1,3.033,3.033,0,0,0,2.029,6.31l.46.218-.545.009c-.526,0-.545.009-.488.209A2.84,2.84,0,0,0,3.212,8.3l.582.2-.507.3a5.289,5.289,0,0,1-2.517.7A2.781,2.781,0,0,0,0,9.581a7.146,7.146,0,0,0,1.813.835,7.934,7.934,0,0,0,6.162-.7A8.246,8.246,0,0,0,11.1,6.035a9.781,9.781,0,0,0,.639-2.845c0-.436.028-.493.554-1.015a6.192,6.192,0,0,0,.658-.73c.094-.18.085-.18-.395-.019-.8.284-.911.247-.517-.18A2.759,2.759,0,0,0,12.681.231c0-.028-.141.019-.3.1a5.24,5.24,0,0,1-.827.322l-.507.161-.46-.313a3.823,3.823,0,0,0-.8-.417A3.209,3.209,0,0,0,8.144.127,2.715,2.715,0,0,0,6.312,2.858Z" transform="translate(0 0)" fill="#fff"/>
  </g>
</svg>
