<svg width="40" height="40" viewBox="0 0 40 40" fill="none" xmlns="http://www.w3.org/2000/svg">
<path d="M40 20C40 8.9543 31.0457 0 20 0C8.9543 0 0 8.9543 0 20C0 31.0457 8.9543 40 20 40C31.0457 40 40 31.0457 40 20Z" fill="#F29538"/>
<path d="M9.64786 25.855C9.55412 25.7612 9.50146 25.6341 9.50146 25.5015C9.50146 25.3689 9.55412 25.2418 9.64786 25.148L16.4639 18.273C16.5103 18.2261 16.5656 18.1889 16.6266 18.1636C16.6875 18.1382 16.7529 18.1251 16.8189 18.1251C16.8849 18.1251 16.9502 18.1382 17.0111 18.1636C17.0721 18.1889 17.1274 18.2261 17.1739 18.273L21.3639 22.5L28.2999 15.5H23.9999V14.5H29.9999V20.5H28.9999V16.21L21.7189 23.56C21.6724 23.6069 21.6171 23.6441 21.5561 23.6694C21.4952 23.6948 21.4299 23.7079 21.3639 23.7079C21.2979 23.7079 21.2325 23.6948 21.1716 23.6694C21.1106 23.6441 21.0553 23.6069 21.0089 23.56L16.8179 19.335L10.3549 25.852C10.2611 25.9457 10.1339 25.9984 10.0014 25.9984C9.86878 25.9984 9.74162 25.9457 9.64786 25.852V25.855Z" fill="white"/>
</svg>
