<svg width="20" height="20" viewBox="0 0 20 20" fill="none" xmlns="http://www.w3.org/2000/svg">
<path fill-rule="evenodd" clip-rule="evenodd" d="M14.0799 20H5.90991C2.37991 20 -9.15527e-05 17.729 -9.15527e-05 14.34V5.67C-9.15527e-05 2.28 2.37991 0 5.90991 0H14.0799C17.6199 0 19.9999 2.28 19.9999 5.67V14.34C19.9999 17.729 17.6199 20 14.0799 20ZM12.2699 9.25H5.91991C5.49991 9.25 5.16991 9.59 5.16991 10C5.16991 10.42 5.49991 10.75 5.91991 10.75H12.2699L9.78991 13.22C9.64991 13.36 9.56991 13.56 9.56991 13.75C9.56991 13.939 9.64991 14.13 9.78991 14.28C10.0799 14.57 10.5599 14.57 10.8499 14.28L14.6199 10.53C14.8999 10.25 14.8999 9.75 14.6199 9.47L10.8499 5.72C10.5599 5.43 10.0799 5.43 9.78991 5.72C9.49991 6.02 9.49991 6.49 9.78991 6.79L12.2699 9.25Z" fill="white"/>
</svg>
