<svg width="38" height="38" viewBox="0 0 38 38" fill="none" xmlns="http://www.w3.org/2000/svg">
<path d="M34.2095 8.62256H26.0254V5.32473C26.0254 3.75447 24.7479 2.47705 23.1776 2.47705H14.8218C13.2515 2.47705 11.974 3.75447 11.974 5.32473V8.62256H3.78985C1.70499 8.62256 0.00878065 10.3188 0.00878065 12.4036C0.00878065 14.2974 -0.185165 15.9981 1.24994 17.9108C2.06191 18.9929 3.17772 19.7648 4.47669 20.143L17.0906 23.8156C18.3394 24.1791 19.6596 24.1793 20.9086 23.8156L33.5226 20.143C34.8215 19.7647 35.9373 18.9929 36.7493 17.9108C38.1909 15.9896 37.9905 14.2713 37.9905 12.4036C37.9905 10.3188 36.2944 8.62256 34.2095 8.62256ZM14.3861 5.32473C14.3861 5.0845 14.5815 4.88912 14.8218 4.88912H23.1776C23.4179 4.88912 23.6133 5.08458 23.6133 5.32473V8.62256H14.3861V5.32473Z" fill="#45B5E3"/>
<path d="M34.1969 22.4583C20.5912 26.4197 20.7674 26.4998 18.9996 26.4998C17.2445 26.4998 17.6609 26.4933 3.80245 22.4583C2.34126 22.0328 1.04719 21.2486 0.00878906 20.1675V31.7421C0.00878906 33.827 1.70493 35.5231 3.78986 35.5231H34.2095C36.2943 35.5231 37.9905 33.827 37.9905 31.7421V20.1675C36.9521 21.2485 35.658 22.0328 34.1969 22.4583Z" fill="#45B5E3"/>
</svg>
