<svg width="20" height="20" viewBox="0 0 20 20" fill="none" xmlns="http://www.w3.org/2000/svg">
<path d="M11.8323 10.1046L19.6199 2.61458C20.1267 2.12738 20.1267 1.33965 19.6199 0.852458C19.1134 0.365261 18.2943 0.365261 17.7877 0.852458L9.9999 8.3425L2.21229 0.852458C1.70548 0.365261 0.88667 0.365261 0.380103 0.852458C-0.126701 1.33965 -0.126701 2.12738 0.380103 2.61458L8.16771 10.1046L0.380103 17.5947C-0.126701 18.0819 -0.126701 18.8696 0.380103 19.3568C0.632556 19.5998 0.964494 19.7219 1.2962 19.7219C1.6279 19.7219 1.9596 19.5998 2.21229 19.3568L9.9999 11.8667L17.7877 19.3568C18.0404 19.5998 18.3721 19.7219 18.7038 19.7219C19.0355 19.7219 19.3672 19.5998 19.6199 19.3568C20.1267 18.8696 20.1267 18.0819 19.6199 17.5947L11.8323 10.1046Z" fill="#838383"/>
</svg>
