<svg width="705" height="713" viewBox="0 0 705 713" fill="none" xmlns="http://www.w3.org/2000/svg">
<rect width="705" height="713" fill="white"/>
<g clip-path="url(#clip0_746_9504)">
<path d="M673.512 30.8038L682.766 21.5235C683.368 20.9198 683.368 19.9438 682.766 19.3402C682.164 18.7365 681.19 18.7365 680.589 19.3402L671.335 28.6205L662.082 19.3402C661.48 18.7365 660.507 18.7365 659.905 19.3402C659.303 19.9438 659.303 20.9198 659.905 21.5235L669.158 30.8038L659.905 40.0842C659.303 40.6878 659.303 41.6638 659.905 42.2675C660.205 42.5686 660.599 42.7198 660.993 42.7198C661.387 42.7198 661.782 42.5686 662.082 42.2675L671.335 32.9871L680.589 42.2675C680.889 42.5686 681.283 42.7198 681.677 42.7198C682.071 42.7198 682.465 42.5686 682.766 42.2675C683.368 41.6638 683.368 40.6878 682.766 40.0842L673.512 30.8038Z" fill="#838383"/>
</g>
<defs>
<clipPath id="clip0_746_9504">
<rect width="23.764" height="23.8329" fill="white" transform="translate(659.453 18.8677)"/>
</clipPath>
</defs>
</svg>
