<svg width="262" height="263" viewBox="0 0 262 263" fill="none" xmlns="http://www.w3.org/2000/svg">
<path d="M262 131.579C262 163.603 250.269 194.519 229.024 218.482C207.78 242.445 178.493 257.797 146.699 261.635C114.905 265.472 82.8066 257.531 56.47 239.311C30.1334 221.091 11.383 193.855 3.76272 162.75C-3.85762 131.645 0.179938 98.8266 15.1123 70.4963C30.0447 42.166 54.8374 20.2869 84.8049 8.99389C114.772 -2.29912 147.839 -2.22365 177.754 9.20603C207.67 20.6357 232.362 42.6278 247.165 71.0259L246.27 71.4928C231.581 43.3136 207.079 21.4911 177.394 10.1496C147.709 -1.19199 114.898 -1.26687 85.1611 9.93906C55.4247 21.145 30.8231 42.8554 16.0059 70.9673C1.18861 99.0791 -2.81782 131.645 4.74376 162.51C12.3053 193.375 30.9111 220.401 57.0446 238.48C83.1782 256.56 115.029 264.44 146.578 260.632C178.127 256.824 207.188 241.591 228.269 217.812C249.35 194.033 260.99 163.356 260.99 131.579H262Z" fill="#1F365D"/>
</svg>
