<svg width="160" height="172" viewBox="0 0 160 172" fill="none" xmlns="http://www.w3.org/2000/svg">
<path d="M71.3567 171.352C57.1638 168.99 43.799 162.982 32.5285 153.897C21.2579 144.812 12.4549 132.952 6.95348 119.439C1.45201 105.925 -0.565689 91.2078 1.09154 76.6798C2.74875 62.1518 8.026 48.2946 16.4233 36.4212C24.8206 24.5479 36.0599 15.0514 49.0762 8.83165C62.0926 2.61189 76.455 -0.125214 90.8026 0.879684C105.15 1.88458 119.008 6.59819 131.063 14.5739C143.118 22.5496 152.971 33.5234 159.688 46.4554L159.113 46.7647C152.447 33.9324 142.67 23.0433 130.708 15.1291C118.746 7.21486 104.995 2.5376 90.7579 1.54045C76.5208 0.543304 62.2692 3.25929 49.3532 9.43109C36.4372 15.6029 25.2846 25.0261 16.9521 36.808C8.61949 48.5898 3.38293 62.3401 1.73849 76.7561C0.0940552 91.1721 2.09619 105.776 7.55522 119.185C13.0143 132.594 21.7494 144.363 32.933 153.378C44.1167 162.393 57.3785 168.355 71.4619 170.699L71.3567 171.352Z" fill="#1F365D"/>
</svg>
