<svg width="195" height="220" viewBox="0 0 195 220" fill="none" xmlns="http://www.w3.org/2000/svg">
<path d="M0.591135 39.789C14.6517 22.7833 33.5211 10.4211 54.7271 4.32209C75.9332 -1.77696 98.487 -1.32847 119.434 5.60879C140.381 12.5461 158.744 25.6486 172.117 43.1998C185.49 60.7511 193.251 81.9325 194.381 103.969C195.511 126.006 189.959 147.87 178.452 166.698C166.944 185.525 150.018 200.438 129.891 209.482C109.764 218.526 87.3745 221.28 65.6557 217.383C43.9369 213.485 23.9018 203.119 8.17498 187.641L8.76733 187.039C24.3729 202.397 44.2536 212.684 65.8049 216.551C87.3562 220.419 109.573 217.686 129.545 208.712C149.517 199.737 166.312 184.94 177.731 166.257C189.15 147.575 194.659 125.879 193.538 104.013C192.416 82.1457 184.716 61.1276 171.445 43.7116C158.175 26.2957 139.954 13.2942 119.168 6.41045C98.383 -0.473331 76.0031 -0.918358 54.9605 5.13367C33.918 11.1857 15.1942 23.4525 1.24196 40.3271L0.591135 39.789Z" fill="#1F365D"/>
</svg>
