<svg width="195" height="220" viewBox="0 0 195 220" fill="none" xmlns="http://www.w3.org/2000/svg">
<path d="M0.592112 39.789C14.6527 22.7833 33.522 10.4211 54.7281 4.32209C75.9342 -1.77696 98.4879 -1.32847 119.435 5.60879C140.382 12.5461 158.745 25.6486 172.118 43.1998C185.491 60.7511 193.252 81.9325 194.382 103.969C195.512 126.006 189.96 147.87 178.453 166.698C166.945 185.525 150.019 200.438 129.892 209.482C109.765 218.526 87.3755 221.28 65.6567 217.383C43.9379 213.485 23.9028 203.119 8.17595 187.641L8.7683 187.039C24.3738 202.397 44.2545 212.684 65.8059 216.551C87.3572 220.419 109.574 217.686 129.546 208.712C149.518 199.737 166.313 184.94 177.732 166.257C189.151 147.575 194.66 125.879 193.539 104.013C192.417 82.1457 184.717 61.1276 171.446 43.7116C158.176 26.2957 139.955 13.2942 119.169 6.41045C98.384 -0.473331 76.0041 -0.918358 54.9615 5.13367C33.919 11.1857 15.1951 23.4525 1.24294 40.3271L0.592112 39.789Z" fill="#1F365D"/>
</svg>
