<svg width="23" height="23" viewBox="0 0 23 23" fill="none" xmlns="http://www.w3.org/2000/svg">
<path d="M5.56013 9.16021H18.3831L18.8431 7.32021H7.40013V5.48021H20.0225C20.1624 5.48022 20.3004 5.5121 20.4261 5.57344C20.5517 5.63479 20.6618 5.72397 20.7478 5.83422C20.8338 5.94447 20.8936 6.07288 20.9226 6.20969C20.9515 6.34651 20.9489 6.48812 20.9149 6.62377L18.6149 15.8238C18.5651 16.0227 18.4502 16.1993 18.2885 16.3255C18.1268 16.4517 17.9276 16.5202 17.7225 16.5202H4.64013C4.39613 16.5202 4.16212 16.4233 3.98959 16.2508C3.81706 16.0782 3.72013 15.8442 3.72013 15.6002V4.56021H1.88013V2.72021H4.64013C4.88413 2.72021 5.11813 2.81714 5.29066 2.98968C5.4632 3.16221 5.56013 3.39622 5.56013 3.64021V9.16021ZM5.56013 22.0402C5.07213 22.0402 4.60412 21.8464 4.25905 21.5013C3.91398 21.1562 3.72013 20.6882 3.72013 20.2002C3.72013 19.7122 3.91398 19.2442 4.25905 18.8991C4.60412 18.5541 5.07213 18.3602 5.56013 18.3602C6.04813 18.3602 6.51614 18.5541 6.8612 18.8991C7.20627 19.2442 7.40013 19.7122 7.40013 20.2002C7.40013 20.6882 7.20627 21.1562 6.8612 21.5013C6.51614 21.8464 6.04813 22.0402 5.56013 22.0402ZM16.6001 22.0402C16.1121 22.0402 15.6441 21.8464 15.2991 21.5013C14.954 21.1562 14.7601 20.6882 14.7601 20.2002C14.7601 19.7122 14.954 19.2442 15.2991 18.8991C15.6441 18.5541 16.1121 18.3602 16.6001 18.3602C17.0881 18.3602 17.5561 18.5541 17.9012 18.8991C18.2463 19.2442 18.4401 19.7122 18.4401 20.2002C18.4401 20.6882 18.2463 21.1562 17.9012 21.5013C17.5561 21.8464 17.0881 22.0402 16.6001 22.0402Z" fill="white"/>
</svg>
