<svg width="20" height="20" viewBox="0 0 20 20" fill="none" xmlns="http://www.w3.org/2000/svg">
<path d="M14.3224 5.3606L15.4401 4.24291L16.5278 5.3306L15.4101 6.44829C16.5145 7.83073 17.0477 9.58358 16.9002 11.3469C16.7526 13.1101 15.9355 14.75 14.6166 15.9296C13.2978 17.1093 11.5773 17.7391 9.80855 17.6899C8.0398 17.6407 6.35703 16.916 5.10585 15.6649C3.85467 14.4137 3.13005 12.7309 3.08081 10.9621C3.03157 9.1934 3.66145 7.47292 4.84109 6.15407C6.02072 4.83522 7.66057 4.0181 9.42385 3.87054C11.1871 3.72297 12.94 4.25616 14.3224 5.3606ZM10.0009 16.1544C10.708 16.1544 11.4082 16.0152 12.0615 15.7446C12.7148 15.474 13.3084 15.0773 13.8084 14.5773C14.3084 14.0773 14.705 13.4837 14.9756 12.8304C15.2462 12.1771 15.3855 11.4769 15.3855 10.7698C15.3855 10.0627 15.2462 9.36252 14.9756 8.70923C14.705 8.05594 14.3084 7.46234 13.8084 6.96233C13.3084 6.46233 12.7148 6.0657 12.0615 5.7951C11.4082 5.52449 10.708 5.38522 10.0009 5.38522C8.57278 5.38522 7.20319 5.95252 6.19337 6.96233C5.18356 7.97215 4.61626 9.34174 4.61626 10.7698C4.61626 12.1979 5.18356 13.5675 6.19337 14.5773C7.20319 15.5871 8.57278 16.1544 10.0009 16.1544ZM9.23164 6.92368H10.7701V11.5391H9.23164V6.92368ZM6.92395 1.53906H13.0778V3.07752H6.92395V1.53906Z" fill="#45B5E3"/>
</svg>
