<svg width="29" height="28" viewBox="0 0 29 28" fill="none" xmlns="http://www.w3.org/2000/svg">
<path d="M15.8056 19.8598L10.9068 17.1882C10.2672 17.8719 9.43675 18.3475 8.52336 18.553C7.60996 18.7586 6.65585 18.6847 5.78501 18.3409C4.91418 17.9971 4.16689 17.3993 3.64027 16.6252C3.11364 15.8511 2.83203 14.9365 2.83203 14.0002C2.83203 13.064 3.11364 12.1494 3.64027 11.3753C4.16689 10.6012 4.91418 10.0034 5.78501 9.65962C6.65585 9.31581 7.60996 9.24189 8.52336 9.44747C9.43675 9.65304 10.2672 10.1286 10.9068 10.8123L15.8068 8.14067C15.5286 7.03942 15.6616 5.87452 16.1808 4.86432C16.7001 3.85412 17.57 3.06798 18.6274 2.65325C19.6848 2.23853 20.8572 2.22369 21.9247 2.61152C22.9923 2.99936 23.8818 3.76324 24.4265 4.75997C24.9711 5.75671 25.1336 6.91787 24.8833 8.0258C24.6331 9.13374 23.9874 10.1124 23.0672 10.7783C22.147 11.4442 21.0156 11.7516 19.885 11.643C18.7543 11.5344 17.7021 11.0171 16.9256 10.1882L12.0256 12.8598C12.2137 13.6081 12.2137 14.3912 12.0256 15.1395L16.9244 17.8112C17.701 16.9822 18.7532 16.465 19.8838 16.3563C21.0144 16.2477 22.1459 16.5552 23.066 17.2211C23.9862 17.887 24.6319 18.8656 24.8822 19.9735C25.1324 21.0815 24.9699 22.2426 24.4253 23.2394C23.8806 24.2361 22.9912 25 21.9236 25.3878C20.856 25.7756 19.6836 25.7608 18.6262 25.3461C17.5688 24.9314 16.6989 24.1452 16.1797 23.135C15.6604 22.1248 15.5274 20.9599 15.8056 19.8587V19.8598ZM7.49894 16.333C8.11778 16.333 8.71127 16.0872 9.14885 15.6496C9.58644 15.212 9.83227 14.6185 9.83227 13.9997C9.83227 13.3808 9.58644 12.7873 9.14885 12.3498C8.71127 11.9122 8.11778 11.6663 7.49894 11.6663C6.8801 11.6663 6.28661 11.9122 5.84902 12.3498C5.41144 12.7873 5.1656 13.3808 5.1656 13.9997C5.1656 14.6185 5.41144 15.212 5.84902 15.6496C6.28661 16.0872 6.8801 16.333 7.49894 16.333ZM20.3323 9.333C20.9511 9.333 21.5446 9.08717 21.9822 8.64958C22.4198 8.212 22.6656 7.61851 22.6656 6.99967C22.6656 6.38083 22.4198 5.78734 21.9822 5.34975C21.5446 4.91217 20.9511 4.66633 20.3323 4.66633C19.7134 4.66633 19.1199 4.91217 18.6824 5.34975C18.2448 5.78734 17.9989 6.38083 17.9989 6.99967C17.9989 7.61851 18.2448 8.212 18.6824 8.64958C19.1199 9.08717 19.7134 9.333 20.3323 9.333ZM20.3323 23.333C20.9511 23.333 21.5446 23.0872 21.9822 22.6496C22.4198 22.212 22.6656 21.6185 22.6656 20.9997C22.6656 20.3808 22.4198 19.7873 21.9822 19.3498C21.5446 18.9122 20.9511 18.6663 20.3323 18.6663C19.7134 18.6663 19.1199 18.9122 18.6824 19.3498C18.2448 19.7873 17.9989 20.3808 17.9989 20.9997C17.9989 21.6185 18.2448 22.212 18.6824 22.6496C19.1199 23.0872 19.7134 23.333 20.3323 23.333Z" fill="white"/>
</svg>
