<svg width="20" height="20" viewBox="0 0 20 20" fill="none" xmlns="http://www.w3.org/2000/svg">
<path d="M10.0015 6.15454C11.6336 6.15454 13.1989 6.80289 14.3529 7.95696C15.507 9.11103 16.1553 10.6763 16.1553 12.3084C16.1553 13.9405 15.507 15.5057 14.3529 16.6598C13.1989 17.8139 11.6336 18.4622 10.0015 18.4622C8.3694 18.4622 6.80415 17.8139 5.65008 16.6598C4.49601 15.5057 3.84766 13.9405 3.84766 12.3084C3.84766 10.6763 4.49601 9.11103 5.65008 7.95696C6.80415 6.80289 8.3694 6.15454 10.0015 6.15454ZM10.0015 7.693C8.77743 7.693 7.60349 8.17926 6.73793 9.04482C5.87238 9.91037 5.38612 11.0843 5.38612 12.3084C5.38612 13.5325 5.87238 14.7064 6.73793 15.572C7.60349 16.4375 8.77743 16.9238 10.0015 16.9238C11.2256 16.9238 12.3995 16.4375 13.2651 15.572C14.1306 14.7064 14.6169 13.5325 14.6169 12.3084C14.6169 11.0843 14.1306 9.91037 13.2651 9.04482C12.3995 8.17926 11.2256 7.693 10.0015 7.693ZM10.0015 8.84685L11.0192 10.9084L13.2938 11.2392L11.6477 12.843L12.0361 15.1092L10.0015 14.0392L7.96689 15.1084L8.35535 12.843L6.70919 11.2384L8.98381 10.9076L10.0015 8.84685ZM14.6169 2.30839V4.61608L13.5684 5.49146C12.6984 5.03499 11.7485 4.75057 10.7707 4.65377V2.30839H14.6169ZM9.23227 2.30762V4.65377C8.25485 4.75042 7.30521 5.03458 6.43535 5.49069L5.38612 4.61608V2.30839L9.23227 2.30762Z" fill="#45B5E3"/>
</svg>
