<svg width="26" height="26" viewBox="0 0 26 26" fill="none" xmlns="http://www.w3.org/2000/svg">
<path d="M18.207 6.74967H23.4154V8.83301H21.332V22.3747C21.332 22.6509 21.2223 22.9159 21.0269 23.1112C20.8316 23.3066 20.5666 23.4163 20.2904 23.4163H5.70703C5.43076 23.4163 5.16581 23.3066 4.97046 23.1112C4.77511 22.9159 4.66536 22.6509 4.66536 22.3747V8.83301H2.58203V6.74967H7.79037V3.62467C7.79037 3.34841 7.90011 3.08346 8.09546 2.8881C8.29081 2.69275 8.55576 2.58301 8.83203 2.58301H17.1654C17.4416 2.58301 17.7066 2.69275 17.9019 2.8881C18.0973 3.08346 18.207 3.34841 18.207 3.62467V6.74967ZM19.2487 8.83301H6.7487V21.333H19.2487V8.83301ZM9.8737 11.958H11.957V18.208H9.8737V11.958ZM14.0404 11.958H16.1237V18.208H14.0404V11.958ZM9.8737 4.66634V6.74967H16.1237V4.66634H9.8737Z" fill="#BEBEBE"/>
</svg>
