<svg width="70" height="70" viewBox="0 0 70 70" fill="none" xmlns="http://www.w3.org/2000/svg">
<path d="M11.9621 15.6212L44.122 10.9318L54.6297 18.7651C55.1613 19.1613 55.5138 19.7524 55.6096 20.4084L60.1497 51.5442C60.2454 52.2003 60.0765 52.8675 59.6802 53.3991C59.2839 53.9307 58.6927 54.2831 58.0366 54.3787L18.4552 60.1503C17.799 60.246 17.1318 60.0771 16.6002 59.6808C16.0686 59.2845 15.7163 58.6933 15.6206 58.0372L9.84901 18.4558C9.75334 17.7997 9.92222 17.1324 10.3185 16.6009C10.7148 16.0693 11.306 15.7169 11.9621 15.6212ZM37.1637 49.843C39.132 49.556 40.9057 48.4988 42.0945 46.9041C43.2834 45.3093 43.79 43.3076 43.503 41.3393C43.216 39.371 42.1589 37.5973 40.5641 36.4085C38.9694 35.2196 36.9677 34.713 34.9993 35C33.031 35.287 31.2574 36.3441 30.0685 37.9389C28.8796 39.5336 28.373 41.5353 28.66 43.5037C28.947 45.472 30.0042 47.2456 31.5989 48.4345C33.1937 49.6234 35.1954 50.13 37.1637 49.843ZM15.1574 20.2082L16.6003 30.1035L41.3387 26.4963L39.8958 16.6009L15.1574 20.2082Z" fill="#45B5E3"/>
</svg>
