<svg width="19" height="19" viewBox="0 0 19 19" fill="none" xmlns="http://www.w3.org/2000/svg">
<path d="M13.0766 2.30786H16.1532C16.3572 2.30786 16.5529 2.3889 16.6971 2.53315C16.8414 2.67739 16.9224 2.87304 16.9224 3.07703V15.3837C16.9224 15.5877 16.8414 15.7833 16.6971 15.9276C16.5529 16.0718 16.3572 16.1529 16.1532 16.1529H2.30823C2.10423 16.1529 1.90859 16.0718 1.76435 15.9276C1.6201 15.7833 1.53906 15.5877 1.53906 15.3837V3.07703C1.53906 2.87304 1.6201 2.67739 1.76435 2.53315C1.90859 2.3889 2.10423 2.30786 2.30823 2.30786H5.3849V0.769531H6.92323V2.30786H11.5382V0.769531H13.0766V2.30786ZM11.5382 3.8462H6.92323V5.38453H5.3849V3.8462H3.0774V6.92286H15.3841V3.8462H13.0766V5.38453H11.5382V3.8462ZM15.3841 8.4612H3.0774V14.6145H15.3841V8.4612ZM4.61573 10.7687H6.15406V12.307H4.61573V10.7687ZM7.6924 10.7687H13.8457V12.307H7.6924V10.7687Z" fill="#45B5E3"/>
</svg>
