<svg width="23" height="23" viewBox="0 0 23 23" fill="none" xmlns="http://www.w3.org/2000/svg">
<path d="M5.55994 9.16021H18.3829L18.8429 7.32021H7.39994V5.48021H20.0223C20.1622 5.48022 20.3002 5.5121 20.4259 5.57344C20.5515 5.63479 20.6616 5.72397 20.7476 5.83422C20.8336 5.94447 20.8934 6.07288 20.9224 6.20969C20.9513 6.34651 20.9487 6.48812 20.9147 6.62377L18.6147 15.8238C18.5649 16.0227 18.45 16.1993 18.2883 16.3255C18.1266 16.4517 17.9274 16.5202 17.7223 16.5202H4.63994C4.39594 16.5202 4.16194 16.4233 3.98941 16.2508C3.81687 16.0782 3.71994 15.8442 3.71994 15.6002V4.56021H1.87994V2.72021H4.63994C4.88394 2.72021 5.11795 2.81714 5.29048 2.98968C5.46302 3.16221 5.55994 3.39622 5.55994 3.64021V9.16021ZM5.55994 22.0402C5.07195 22.0402 4.60393 21.8464 4.25887 21.5013C3.9138 21.1562 3.71994 20.6882 3.71994 20.2002C3.71994 19.7122 3.9138 19.2442 4.25887 18.8991C4.60393 18.5541 5.07195 18.3602 5.55994 18.3602C6.04794 18.3602 6.51595 18.5541 6.86102 18.8991C7.20609 19.2442 7.39994 19.7122 7.39994 20.2002C7.39994 20.6882 7.20609 21.1562 6.86102 21.5013C6.51595 21.8464 6.04794 22.0402 5.55994 22.0402ZM16.5999 22.0402C16.1119 22.0402 15.6439 21.8464 15.2989 21.5013C14.9538 21.1562 14.7599 20.6882 14.7599 20.2002C14.7599 19.7122 14.9538 19.2442 15.2989 18.8991C15.6439 18.5541 16.1119 18.3602 16.5999 18.3602C17.0879 18.3602 17.556 18.5541 17.901 18.8991C18.2461 19.2442 18.4399 19.7122 18.4399 20.2002C18.4399 20.6882 18.2461 21.1562 17.901 21.5013C17.556 21.8464 17.0879 22.0402 16.5999 22.0402Z" fill="white"/>
</svg>
