<svg width="20" height="20" viewBox="0 0 20 20" fill="none" xmlns="http://www.w3.org/2000/svg">
<path d="M9.99955 6.15454C11.6317 6.15454 13.1969 6.80289 14.351 7.95696C15.505 9.11103 16.1534 10.6763 16.1534 12.3084C16.1534 13.9405 15.505 15.5057 14.351 16.6598C13.1969 17.8139 11.6317 18.4622 9.99955 18.4622C8.36745 18.4622 6.80219 17.8139 5.64812 16.6598C4.49405 15.5057 3.8457 13.9405 3.8457 12.3084C3.8457 10.6763 4.49405 9.11103 5.64812 7.95696C6.80219 6.80289 8.36745 6.15454 9.99955 6.15454ZM9.99955 7.693C8.77547 7.693 7.60153 8.17926 6.73598 9.04482C5.87043 9.91037 5.38416 11.0843 5.38416 12.3084C5.38416 13.5325 5.87043 14.7064 6.73598 15.572C7.60153 16.4375 8.77547 16.9238 9.99955 16.9238C11.2236 16.9238 12.3976 16.4375 13.2631 15.572C14.1287 14.7064 14.6149 13.5325 14.6149 12.3084C14.6149 11.0843 14.1287 9.91037 13.2631 9.04482C12.3976 8.17926 11.2236 7.693 9.99955 7.693ZM9.99955 8.84685L11.0172 10.9084L13.2919 11.2392L11.6457 12.843L12.0342 15.1092L9.99955 14.0392L7.96493 15.1084L8.35339 12.843L6.70724 11.2384L8.98186 10.9076L9.99955 8.84685ZM14.6149 2.30839V4.61608L13.5665 5.49146C12.6964 5.03499 11.7465 4.75057 10.7688 4.65377V2.30839H14.6149ZM9.23032 2.30762V4.65377C8.25289 4.75042 7.30326 5.03458 6.4334 5.49069L5.38416 4.61608V2.30839L9.23032 2.30762Z" fill="#45B5E3"/>
</svg>
