<svg width="26" height="26" viewBox="0 0 26 26" fill="none" xmlns="http://www.w3.org/2000/svg">
<rect x="0.5" y="0.5" width="25" height="25" rx="12.5" fill="white"/>
<g clip-path="url(#clip0_642_4135)">
<path d="M9.66536 10.5156H7.15956C6.90578 10.5156 6.69928 10.7221 6.69928 10.9759V19.0259C6.69928 19.2797 6.90576 19.4862 7.15956 19.4862H9.66536C9.91917 19.4862 10.1256 19.2797 10.1256 19.0259V10.9759C10.1256 10.7221 9.91917 10.5156 9.66536 10.5156ZM9.60775 18.9683H7.21722V11.0335H9.60775V18.9683Z" fill="#1F365D"/>
<path d="M9.7633 7.07381C9.40197 6.71263 8.92224 6.51367 8.41247 6.51367C7.35792 6.51367 6.5 7.37081 6.5 8.42434C6.5 9.47828 7.35792 10.3357 8.41247 10.3357C9.46629 10.3357 10.3236 9.47828 10.3236 8.42437C10.3237 7.9147 10.1247 7.43507 9.7633 7.07381ZM8.41247 9.81778C7.64354 9.81778 7.01792 9.19266 7.01792 8.42434C7.01792 7.65638 7.64352 7.03162 8.41247 7.03162C8.78394 7.03162 9.13364 7.1767 9.39712 7.44013C9.6606 7.70353 9.80568 8.05308 9.80568 8.42434C9.80571 9.19269 9.18072 9.81778 8.41247 9.81778Z" fill="#1F365D"/>
<path d="M18.9211 11.7129C18.3744 10.7859 17.4045 10.3159 16.0382 10.3159C15.158 10.3159 14.5184 10.6163 14.0928 10.9262C14.0678 10.6959 13.8721 10.516 13.6352 10.516H11.2355C10.9817 10.516 10.7752 10.7224 10.7752 10.9763V19.0263C10.7752 19.2801 10.9817 19.4866 11.2355 19.4866H13.7358C13.9896 19.4866 14.1961 19.2801 14.1961 19.0263V15.0434C14.1961 13.6933 14.562 13.4374 15.2373 13.4374C15.8975 13.4374 16.0782 13.7975 16.0782 15.1125V19.0264C16.0782 19.2802 16.2847 19.4867 16.5385 19.4867H19.0398C19.2935 19.4867 19.5 19.2802 19.5 19.0264V14.6108C19.5 13.7186 19.4342 12.583 18.9211 11.7129ZM18.9821 18.9687H16.5962V15.1125C16.5962 14.5879 16.5816 14.0415 16.4076 13.633C16.2059 13.1595 15.8122 12.9194 15.2373 12.9194C13.8634 12.9194 13.6782 13.9931 13.6782 15.0434V18.9687H11.2932V11.0339H13.5776V11.4991C13.5776 11.6059 13.6431 11.7017 13.7426 11.7404C13.8421 11.7792 13.9552 11.7529 14.0273 11.6742C14.3154 11.3604 14.9598 10.8339 16.0382 10.8339C18.6255 10.8339 18.9821 12.6491 18.9821 14.6108V18.9687H18.9821Z" fill="#1F365D"/>
<path d="M7.74315 15.7451C7.60013 15.7451 7.48419 15.8611 7.48419 16.0041V18.4125C7.48419 18.5555 7.60013 18.6714 7.74315 18.6714C7.88618 18.6714 8.00211 18.5555 8.00211 18.4125V16.0041C8.00211 15.8611 7.88618 15.7451 7.74315 15.7451Z" fill="#1F365D"/>
<path d="M7.74315 14.6572C7.60013 14.6572 7.48419 14.7732 7.48419 14.9162V15.1492C7.48419 15.2923 7.60013 15.4082 7.74315 15.4082C7.88618 15.4082 8.00211 15.2923 8.00211 15.1492V14.9162C8.00211 14.7732 7.88618 14.6572 7.74315 14.6572Z" fill="#1F365D"/>
</g>
<rect x="0.5" y="0.5" width="25" height="25" rx="12.5" stroke="#45B5E3"/>
<defs>
<clipPath id="clip0_642_4135">
<rect width="13" height="13" fill="white" transform="translate(6.5 6.5)"/>
</clipPath>
</defs>
</svg>
