<svg width="26" height="26" viewBox="0 0 26 26" fill="none" xmlns="http://www.w3.org/2000/svg">
<path d="M18.209 6.75016H23.4173V8.8335H21.334V22.3752C21.334 22.6514 21.2242 22.9164 21.0289 23.1117C20.8335 23.3071 20.5686 23.4168 20.2923 23.4168H5.70898C5.43272 23.4168 5.16777 23.3071 4.97242 23.1117C4.77706 22.9164 4.66732 22.6514 4.66732 22.3752V8.8335H2.58398V6.75016H7.79232V3.62516C7.79232 3.3489 7.90206 3.08394 8.09742 2.88859C8.29277 2.69324 8.55772 2.5835 8.83398 2.5835H17.1673C17.4436 2.5835 17.7085 2.69324 17.9039 2.88859C18.0992 3.08394 18.209 3.3489 18.209 3.62516V6.75016ZM19.2507 8.8335H6.75065V21.3335H19.2507V8.8335ZM9.87565 11.9585H11.959V18.2085H9.87565V11.9585ZM14.0423 11.9585H16.1257V18.2085H14.0423V11.9585ZM9.87565 4.66683V6.75016H16.1257V4.66683H9.87565Z" fill="#BEBEBE"/>
</svg>
