<svg width="23" height="23" viewBox="0 0 23 23" fill="none" xmlns="http://www.w3.org/2000/svg">
<path d="M5.55891 9.16021H18.3819L18.8419 7.32021H7.39891V5.48021H20.0213C20.1611 5.48022 20.2992 5.5121 20.4248 5.57344C20.5505 5.63479 20.6605 5.72397 20.7466 5.83422C20.8326 5.94447 20.8924 6.07288 20.9213 6.20969C20.9503 6.34651 20.9477 6.48812 20.9137 6.62377L18.6137 15.8238C18.5639 16.0227 18.449 16.1993 18.2873 16.3255C18.1256 16.4517 17.9264 16.5202 17.7213 16.5202H4.63891C4.39491 16.5202 4.1609 16.4233 3.98837 16.2508C3.81583 16.0782 3.71891 15.8442 3.71891 15.6002V4.56021H1.87891V2.72021H4.63891C4.88291 2.72021 5.11691 2.81714 5.28944 2.98968C5.46198 3.16221 5.55891 3.39622 5.55891 3.64021V9.16021ZM5.55891 22.0402C5.07091 22.0402 4.6029 21.8464 4.25783 21.5013C3.91276 21.1562 3.71891 20.6882 3.71891 20.2002C3.71891 19.7122 3.91276 19.2442 4.25783 18.8991C4.6029 18.5541 5.07091 18.3602 5.55891 18.3602C6.0469 18.3602 6.51492 18.5541 6.85998 18.8991C7.20505 19.2442 7.39891 19.7122 7.39891 20.2002C7.39891 20.6882 7.20505 21.1562 6.85998 21.5013C6.51492 21.8464 6.0469 22.0402 5.55891 22.0402ZM16.5989 22.0402C16.1109 22.0402 15.6429 21.8464 15.2978 21.5013C14.9528 21.1562 14.7589 20.6882 14.7589 20.2002C14.7589 19.7122 14.9528 19.2442 15.2978 18.8991C15.6429 18.5541 16.1109 18.3602 16.5989 18.3602C17.0869 18.3602 17.5549 18.5541 17.9 18.8991C18.245 19.2442 18.4389 19.7122 18.4389 20.2002C18.4389 20.6882 18.245 21.1562 17.9 21.5013C17.5549 21.8464 17.0869 22.0402 16.5989 22.0402Z" fill="white"/>
</svg>
