<svg width="28" height="28" viewBox="0 0 28 28" fill="none" xmlns="http://www.w3.org/2000/svg">
<path d="M15.3066 19.8601L10.4077 17.1884C9.76817 17.8721 8.93773 18.3477 8.02433 18.5533C7.11094 18.7588 6.15682 18.6849 5.28599 18.3411C4.41516 17.9973 3.66787 17.3995 3.14124 16.6254C2.61462 15.8513 2.33301 14.9367 2.33301 14.0005C2.33301 13.0642 2.61462 12.1497 3.14124 11.3756C3.66787 10.6015 4.41516 10.0037 5.28599 9.65986C6.15682 9.31606 7.11094 9.24214 8.02433 9.44771C8.93773 9.65328 9.76817 10.1288 10.4077 10.8126L15.3077 8.14091C15.0296 7.03966 15.1626 5.87476 15.6818 4.86456C16.2011 3.85436 17.0709 3.06822 18.1284 2.6535C19.1858 2.23877 20.3582 2.22393 21.4257 2.61177C22.4933 2.9996 23.3828 3.76348 23.9274 4.76022C24.4721 5.75695 24.6345 6.91811 24.3843 8.02605C24.1341 9.13398 23.4884 10.1126 22.5682 10.7785C21.648 11.4444 20.5166 11.7519 19.3859 11.6432C18.2553 11.5346 17.2031 11.0173 16.4266 10.1884L11.5266 12.8601C11.7146 13.6083 11.7146 14.3915 11.5266 15.1397L16.4254 17.8114C17.2019 16.9825 18.2541 16.4652 19.3848 16.3566C20.5154 16.2479 21.6469 16.5554 22.567 17.2213C23.4872 17.8872 24.1329 18.8658 24.3831 19.9738C24.6334 21.0817 24.4709 22.2429 23.9263 23.2396C23.3816 24.2363 22.4921 25.0002 21.4246 25.3881C20.357 25.7759 19.1846 25.761 18.1272 25.3463C17.0698 24.9316 16.1999 24.1455 15.6807 23.1353C15.1614 22.1251 15.0284 20.9602 15.3066 19.8589V19.8601ZM6.99991 16.3332C7.61875 16.3332 8.21224 16.0874 8.64983 15.6498C9.08741 15.2122 9.33325 14.6187 9.33325 13.9999C9.33325 13.3811 9.08741 12.7876 8.64983 12.35C8.21224 11.9124 7.61875 11.6666 6.99991 11.6666C6.38108 11.6666 5.78758 11.9124 5.35 12.35C4.91241 12.7876 4.66658 13.3811 4.66658 13.9999C4.66658 14.6187 4.91241 15.2122 5.35 15.6498C5.78758 16.0874 6.38108 16.3332 6.99991 16.3332ZM19.8332 9.33324C20.4521 9.33324 21.0456 9.08741 21.4832 8.64983C21.9207 8.21224 22.1666 7.61875 22.1666 6.99991C22.1666 6.38107 21.9207 5.78758 21.4832 5.35C21.0456 4.91241 20.4521 4.66658 19.8332 4.66658C19.2144 4.66658 18.6209 4.91241 18.1833 5.35C17.7457 5.78758 17.4999 6.38107 17.4999 6.99991C17.4999 7.61875 17.7457 8.21224 18.1833 8.64983C18.6209 9.08741 19.2144 9.33324 19.8332 9.33324ZM19.8332 23.3332C20.4521 23.3332 21.0456 23.0874 21.4832 22.6498C21.9207 22.2122 22.1666 21.6187 22.1666 20.9999C22.1666 20.3811 21.9207 19.7876 21.4832 19.35C21.0456 18.9124 20.4521 18.6666 19.8332 18.6666C19.2144 18.6666 18.6209 18.9124 18.1833 19.35C17.7457 19.7876 17.4999 20.3811 17.4999 20.9999C17.4999 21.6187 17.7457 22.2122 18.1833 22.6498C18.6209 23.0874 19.2144 23.3332 19.8332 23.3332Z" fill="#DBDBDB"/>
</svg>
