<svg width="52" height="324" viewBox="0 0 52 324" fill="none" xmlns="http://www.w3.org/2000/svg">
<rect x="0.5" y="68.5" width="51" height="51" rx="25.5" fill="white"/>
<path d="M32.3246 87.9251C32.713 87.9251 33.0278 87.6102 33.0278 87.222V82.7031C33.0278 82.3148 32.713 82 32.3246 82H27.0525C24.5884 82 22.5838 84.0046 22.5838 86.4687V91.0375H19.6719C19.2835 91.0375 18.9688 91.3523 18.9688 91.7407V96.2593C18.9688 96.6477 19.2835 96.9625 19.6719 96.9625H22.5838V105.297C22.5838 105.685 22.8986 106 23.2869 106H27.8058C28.1942 106 28.5089 105.685 28.5089 105.297V96.9625H31.4208C31.7561 96.9625 32.0447 96.7259 32.1104 96.3972L33.014 91.8785C33.0554 91.672 33.002 91.4578 32.8683 91.2948C32.7348 91.132 32.5352 91.0375 32.3246 91.0375H28.5089V87.9251H32.3246ZM27.8058 92.4438H31.467L30.8444 95.5562H27.8058C27.4174 95.5562 27.1027 95.871 27.1027 96.2593V104.594H23.9901V96.2593C23.9901 95.871 23.6753 95.5562 23.2869 95.5562H20.375V92.4438H23.2869C23.6753 92.4438 23.9901 92.129 23.9901 91.7407V86.4687C23.9901 84.7801 25.3639 83.4062 27.0525 83.4062H31.6215V86.5189H27.8058C27.4174 86.5189 27.1027 86.8336 27.1027 87.222V91.7407C27.1027 92.129 27.4174 92.4438 27.8058 92.4438Z" fill="#1F365D"/>
<rect x="0.5" y="68.5" width="51" height="51" rx="25.5" stroke="#45B5E3"/>
<rect x="0.5" y="136.5" width="51" height="51" rx="25.5" fill="white"/>
<g clip-path="url(#clip0_105_570)">
<path d="M26.2362 174C26.1567 174 26.0773 174 25.9973 174C24.116 174.004 22.3778 173.956 20.6874 173.853C19.1376 173.759 17.7229 173.224 16.5961 172.305C15.5088 171.418 14.7663 170.219 14.3893 168.742C14.0612 167.456 14.0438 166.193 14.0271 164.972C14.015 164.096 14.0026 163.058 14 162.002C14.0026 160.942 14.015 159.904 14.0271 159.028C14.0438 157.807 14.0612 156.544 14.3893 155.258C14.7663 153.781 15.5088 152.582 16.5961 151.695C17.7229 150.776 19.1376 150.241 20.6876 150.146C22.378 150.044 24.1166 149.996 26.0018 150C27.8836 149.996 29.6213 150.044 31.3117 150.146C32.8615 150.241 34.2762 150.776 35.403 151.695C36.4905 152.582 37.2328 153.781 37.6098 155.258C37.9379 156.544 37.9553 157.807 37.972 159.028C37.9841 159.904 37.9967 160.942 37.9991 161.998C37.9967 163.058 37.9841 164.096 37.972 164.972C37.965 165.49 37.5373 165.904 37.0219 165.897C36.504 165.89 36.0902 165.464 36.0972 164.947C36.1091 164.076 36.1217 163.044 36.1241 161.998C36.1217 160.956 36.1091 159.924 36.0972 159.053C36.082 157.942 36.0662 156.792 35.793 155.721C35.5175 154.641 34.9875 153.776 34.2181 153.148C33.3859 152.469 32.3697 152.089 31.1978 152.018C29.5471 151.918 27.8479 151.871 26.0018 151.875C24.1514 151.871 22.452 151.918 20.8013 152.018C19.6294 152.089 18.6133 152.469 17.7809 153.148C17.0115 153.776 16.4816 154.641 16.2061 155.721C15.9329 156.792 15.9171 157.942 15.9019 159.053C15.89 159.924 15.8776 160.956 15.875 162.002C15.8776 163.044 15.89 164.076 15.9019 164.947C15.9171 166.058 15.9329 167.208 16.2061 168.278C16.4816 169.358 17.0115 170.224 17.7809 170.852C18.6133 171.53 19.6294 171.911 20.8013 171.982C22.452 172.082 24.1517 172.129 25.9974 172.125C27.8481 172.129 29.5471 172.082 31.1978 171.982C32.3697 171.911 33.3857 171.53 34.2181 170.852C34.7724 170.4 35.2054 169.819 35.5052 169.127C35.711 168.652 36.2629 168.434 36.738 168.64C37.2132 168.846 37.4315 169.397 37.2258 169.873C36.8056 170.843 36.1924 171.661 35.403 172.305C34.2762 173.224 32.8615 173.759 31.3117 173.853C29.6929 173.952 28.0299 174 26.2362 174ZM31.812 162C31.812 158.769 29.1835 156.141 25.9526 156.141C22.7219 156.141 20.0932 158.769 20.0932 162C20.0932 165.231 22.7219 167.859 25.9526 167.859C29.1835 167.859 31.812 165.231 31.812 162ZM29.937 162C29.937 164.197 28.1497 165.984 25.9526 165.984C23.7557 165.984 21.9682 164.197 21.9682 162C21.9682 159.803 23.7557 158.016 25.9526 158.016C28.1497 158.016 29.937 159.803 29.937 162ZM32.4682 154.266C31.6917 154.266 31.062 154.895 31.062 155.672C31.062 156.449 31.6917 157.078 32.4682 157.078C33.2449 157.078 33.8745 156.449 33.8745 155.672C33.8745 154.895 33.2449 154.266 32.4682 154.266Z" fill="#1F365D"/>
</g>
<rect x="0.5" y="136.5" width="51" height="51" rx="25.5" stroke="#45B5E3"/>
<rect x="0.5" y="204.5" width="51" height="51" rx="25.5" fill="white"/>
<g clip-path="url(#clip1_105_570)">
<path d="M20.6894 225.655L20.7111 225.665C20.7744 225.694 20.8407 225.707 20.9061 225.707C21.0837 225.707 21.2537 225.606 21.3326 225.434C21.4404 225.198 21.3371 224.92 21.1017 224.812L21.0823 224.804C20.8472 224.695 20.5687 224.798 20.4603 225.033C20.3518 225.268 20.4544 225.546 20.6894 225.655Z" fill="#1F365D"/>
<path d="M37.8897 222.547C37.7553 222.388 37.5318 222.336 37.3412 222.421C37.0559 222.547 36.7655 222.659 36.4709 222.755C36.8527 222.271 37.1495 221.719 37.343 221.122C37.4031 220.936 37.3421 220.733 37.1899 220.611C37.0376 220.49 36.8258 220.475 36.6581 220.574C35.8394 221.059 34.9594 221.408 34.0387 221.614C33.077 220.69 31.779 220.165 30.4365 220.165C27.5702 220.165 25.2385 222.496 25.2385 225.363C25.2385 225.551 25.2487 225.74 25.2691 225.929C24.5321 225.859 23.8026 225.727 23.0933 225.534C22.8435 225.466 22.5859 225.614 22.5181 225.864C22.4502 226.113 22.5977 226.371 22.8476 226.439C23.8081 226.7 24.8029 226.858 25.8043 226.908C25.951 226.916 26.0919 226.854 26.1863 226.742C26.2807 226.63 26.3173 226.48 26.2853 226.338C26.2128 226.014 26.176 225.685 26.176 225.363C26.176 223.013 28.0872 221.102 30.4365 221.102C31.6104 221.102 32.7426 221.592 33.5427 222.446C33.6529 222.563 33.8158 222.616 33.9742 222.585C34.6178 222.46 35.2444 222.272 35.8483 222.024C35.5098 222.493 35.0774 222.893 34.5736 223.195C34.3839 223.308 34.2993 223.539 34.3707 223.748C34.4421 223.958 34.65 224.089 34.8696 224.063C35.3025 224.011 35.7314 223.931 36.1538 223.823C35.7696 224.225 35.3481 224.591 34.8921 224.919C34.7664 225.009 34.6935 225.156 34.6971 225.311L34.7114 225.918C34.7084 232.299 29.8509 238.898 21.7238 238.898C19.8666 238.898 18.0469 238.503 16.3731 237.745C18.3434 237.596 20.1925 236.881 21.7604 235.655C21.9165 235.533 21.979 235.326 21.9164 235.138C21.8538 234.95 21.6796 234.821 21.4814 234.817C19.9123 234.785 18.5085 233.899 17.7914 232.549C17.8425 232.551 17.894 232.551 17.9458 232.551C18.4108 232.551 18.8701 232.492 19.3108 232.375C19.5214 232.32 19.6657 232.126 19.6593 231.909C19.6529 231.691 19.4974 231.506 19.2839 231.463C17.5354 231.109 16.2103 229.694 15.9246 227.974C16.4413 228.163 16.977 228.266 17.525 228.28C17.7337 228.285 17.9208 228.152 17.9839 227.952C18.0468 227.753 17.9705 227.537 17.7967 227.421C16.6099 226.631 15.9014 225.306 15.9014 223.878C15.9014 223.35 15.9982 222.83 16.1846 222.346C16.9488 223.189 17.8116 223.936 18.7571 224.571C18.972 224.715 19.2632 224.658 19.4075 224.443C19.5518 224.228 19.4945 223.936 19.2796 223.792C18.2099 223.074 17.2537 222.203 16.4373 221.202C16.3403 221.083 16.191 221.019 16.0381 221.031C15.885 221.043 15.7475 221.129 15.6698 221.261C15.208 222.048 14.9639 222.953 14.9639 223.878C14.9639 225.021 15.3358 226.109 16.0003 226.995C15.8738 226.94 15.7486 226.878 15.6251 226.81C15.4799 226.73 15.3031 226.732 15.1603 226.816C15.0174 226.901 14.9298 227.054 14.9298 227.22V227.278C14.9298 229.012 15.7952 230.587 17.1479 231.541C17.1451 231.54 17.1423 231.54 17.1395 231.539C16.977 231.509 16.8103 231.566 16.7009 231.69C16.5915 231.814 16.5555 231.986 16.6062 232.144C17.1562 233.851 18.5355 235.126 20.2175 235.578C18.826 236.405 17.2485 236.837 15.5948 236.837C15.2359 236.837 14.8845 236.817 14.5206 236.777C14.3044 236.753 14.0997 236.881 14.027 237.086C13.9542 237.291 14.0325 237.52 14.2159 237.637C16.4597 239.075 19.0559 239.835 21.7239 239.835C23.8697 239.835 25.878 239.409 27.6929 238.568C29.3578 237.797 30.8289 236.695 32.0654 235.292C34.3427 232.709 35.6489 229.29 35.6489 225.912C35.6489 225.908 35.6488 225.905 35.6487 225.901L35.64 225.532C36.5329 224.856 37.2995 224.042 37.9213 223.109C38.0369 222.936 38.0241 222.707 37.8897 222.547Z" fill="#1F365D"/>
<path d="M31.658 231.548C31.4361 231.415 31.1481 231.487 31.0149 231.709L31.014 231.71C30.8808 231.932 30.9532 232.219 31.1752 232.352C31.2505 232.398 31.3335 232.419 31.4154 232.419C31.575 232.419 31.7308 232.338 31.8188 232.191C31.952 231.969 31.88 231.681 31.658 231.548Z" fill="#1F365D"/>
<path d="M30.7433 232.959C30.5436 232.794 30.2481 232.822 30.0834 233.022C29.2629 234.018 28.2928 234.839 27.2001 235.464C26.9753 235.592 26.8973 235.878 27.0257 236.103C27.1122 236.255 27.2704 236.339 27.4331 236.339C27.5119 236.339 27.5919 236.32 27.6653 236.278C28.8568 235.597 29.9138 234.702 30.8069 233.618C30.9715 233.419 30.9431 233.123 30.7433 232.959Z" fill="#1F365D"/>
</g>
<rect x="0.5" y="204.5" width="51" height="51" rx="25.5" stroke="#45B5E3"/>
<rect x="0.5" y="272.5" width="51" height="51" rx="25.5" fill="white"/>
<g clip-path="url(#clip2_105_570)">
<path d="M19.8421 293.414H15.216C14.7474 293.414 14.3662 293.795 14.3662 294.263V309.125C14.3662 309.593 14.7474 309.975 15.216 309.975H19.8421C20.3106 309.975 20.6918 309.593 20.6918 309.125V294.263C20.6918 293.795 20.3106 293.414 19.8421 293.414ZM19.7357 309.019H15.3224V294.37H19.7357V309.019Z" fill="#1F365D"/>
<path d="M20.0246 287.06C19.3575 286.393 18.4718 286.025 17.5307 286.025C15.5839 286.025 14 287.608 14 289.553C14 291.499 15.5839 293.081 17.5307 293.081C19.4762 293.081 21.059 291.499 21.059 289.553C21.059 288.612 20.6917 287.726 20.0246 287.06ZM17.5307 292.125C16.1112 292.125 14.9562 290.971 14.9562 289.553C14.9562 288.135 16.1111 286.982 17.5307 286.982C18.2165 286.982 18.8621 287.249 19.3485 287.736C19.835 288.222 20.1028 288.867 20.1028 289.553C20.1028 290.971 18.949 292.125 17.5307 292.125Z" fill="#1F365D"/>
<path d="M36.9312 295.623C35.9219 293.912 34.1312 293.044 31.6089 293.044C29.9839 293.044 28.8031 293.598 28.0174 294.171C27.9712 293.745 27.6099 293.413 27.1726 293.413H22.7423C22.2738 293.413 21.8926 293.794 21.8926 294.263V309.125C21.8926 309.593 22.2738 309.974 22.7423 309.974H27.3583C27.8269 309.974 28.208 309.593 28.208 309.125V301.772C28.208 299.279 28.8836 298.807 30.1303 298.807C31.3491 298.807 31.6828 299.471 31.6828 301.899V309.125C31.6828 309.593 32.064 309.975 32.5325 309.975H37.1502C37.6187 309.975 38 309.593 38 309.125V300.973C38 299.326 37.8785 297.229 36.9312 295.623ZM37.0438 309.018H32.639V301.899C32.639 300.931 32.6121 299.922 32.2909 299.168C31.9185 298.294 31.1916 297.85 30.1303 297.85C27.5939 297.85 27.2519 299.833 27.2519 301.772V309.018H22.8488V294.369H27.0662V295.228C27.0662 295.425 27.1872 295.602 27.3709 295.674C27.5546 295.745 27.7632 295.697 27.8965 295.552C28.4284 294.972 29.618 294 31.6089 294C36.3854 294 37.0438 297.351 37.0438 300.973V309.018H37.0438Z" fill="#1F365D"/>
<path d="M16.2945 303.068C16.0304 303.068 15.8164 303.282 15.8164 303.546V307.992C15.8164 308.256 16.0304 308.47 16.2945 308.47C16.5585 308.47 16.7726 308.256 16.7726 307.992V303.546C16.7726 303.282 16.5585 303.068 16.2945 303.068Z" fill="#1F365D"/>
<path d="M16.2945 301.06C16.0304 301.06 15.8164 301.274 15.8164 301.538V301.968C15.8164 302.232 16.0304 302.446 16.2945 302.446C16.5585 302.446 16.7726 302.232 16.7726 301.968V301.538C16.7726 301.274 16.5585 301.06 16.2945 301.06Z" fill="#1F365D"/>
</g>
<rect x="0.5" y="272.5" width="51" height="51" rx="25.5" stroke="#45B5E3"/>
<rect x="0.5" y="0.5" width="51" height="51" rx="25.5" fill="white"/>
<g clip-path="url(#clip3_105_570)">
<path d="M37.6464 19.2185C37.6464 17.8225 37.1041 16.5115 36.1195 15.5269C35.1349 14.5423 33.8238 14 32.4279 14C32.4278 14 32.428 14 32.4279 14C31.0321 14 29.7209 14.5423 28.7364 15.5269L27.1077 17.1555C26.9247 17.3385 26.9247 17.6353 27.1077 17.8184C27.2908 18.0014 27.5876 18.0015 27.7706 17.8184L29.3993 16.1898C30.2068 15.3822 31.2824 14.9375 32.4279 14.9375C33.5735 14.9375 34.649 15.3822 35.4566 16.1898C36.2641 16.9974 36.7089 18.0729 36.7089 19.2185C36.7089 20.364 36.2641 21.4395 35.4566 22.247L30.9683 26.7353C30.9694 26.6913 30.9699 26.6472 30.9699 26.603C30.9699 25.9096 30.836 25.2373 30.5807 24.6154L34.2028 20.9932C34.6763 20.5197 34.937 19.8895 34.937 19.2184C34.937 18.5473 34.6763 17.917 34.2028 17.4435C33.2242 16.4649 31.6317 16.4649 30.6531 17.4435L24.4885 23.6081C23.5098 24.5868 23.5098 26.1792 24.4885 27.1579C24.9778 27.6471 25.6206 27.8918 26.2634 27.8918C26.4197 27.8918 26.5761 27.8771 26.7303 27.8481L25.0803 29.498C24.3843 29.2992 23.7502 28.9272 23.2347 28.4116C22.4271 27.6041 21.9824 26.5285 21.9824 25.383C21.9824 24.2375 22.4272 23.1619 23.2347 22.3543L24.7883 20.8008C24.9713 20.6177 24.9714 20.3209 24.7883 20.1378C24.6052 19.9549 24.3084 19.9548 24.1254 20.1378L22.5718 21.6914C22.0165 22.2467 21.602 22.9058 21.346 23.6253L15.8814 29.09C14.8968 30.0746 14.3545 31.3857 14.3545 32.7816C14.3545 34.1775 14.8967 35.4885 15.8814 36.4731C16.866 37.4578 18.1771 38 19.5729 38H19.573C20.9688 38 22.28 37.4577 23.2645 36.4731L29.4431 30.2946C29.9983 29.7394 30.4128 29.0802 30.6688 28.3607L36.1195 22.91C37.1041 21.9254 37.6464 20.6143 37.6464 19.2185ZM31.316 18.1065C31.9291 17.4934 32.9268 17.4934 33.5399 18.1065C33.8363 18.4029 33.9995 18.7978 33.9995 19.2185C33.9995 19.6391 33.8363 20.0339 33.5399 20.3304L30.123 23.7473C29.9277 23.4493 29.7007 23.1691 29.4431 22.9115C28.9353 22.4038 28.333 22.0104 27.6727 21.7498L31.316 18.1065ZM25.1514 26.495C24.8594 26.203 24.7068 25.8238 24.693 25.4404C25.3093 24.8786 26.2678 24.8955 26.8635 25.4911C27.1555 25.7832 27.3081 26.1624 27.3219 26.5458C27.0323 26.8099 26.6593 26.9546 26.2634 26.9546C25.8427 26.9546 25.4478 26.7913 25.1514 26.495ZM24.3421 30.2363L20.6849 33.8935C20.3885 34.1899 19.9936 34.3532 19.5729 34.3532C19.1523 34.3532 18.7574 34.19 18.461 33.8935C18.1646 33.5971 18.0014 33.2022 18.0014 32.7815C18.0014 32.3609 18.1646 31.966 18.461 31.6696L21.8919 28.2388C22.0871 28.5368 22.3141 28.817 22.5718 29.0746C23.0795 29.5823 23.6819 29.9757 24.3421 30.2363ZM28.7801 29.6317L22.6016 35.8102C21.7941 36.6178 20.7185 37.0625 19.5729 37.0625C18.4274 37.0625 17.3519 36.6178 16.5443 35.8102C15.7367 35.0026 15.292 33.9271 15.292 32.7816C15.292 31.6361 15.7368 30.5605 16.5444 29.753L21.0466 25.2507C21.0455 25.2947 21.045 25.3388 21.045 25.383C21.045 26.0764 21.1789 26.7488 21.4342 27.3707L17.7982 31.0068C17.3247 31.4802 17.0639 32.1105 17.0639 32.7816C17.0639 33.4527 17.3247 34.083 17.7981 34.5565C18.2875 35.0457 18.9302 35.2904 19.573 35.2904C20.2157 35.2904 20.8585 35.0457 21.3479 34.5565L27.5264 28.378C28.5051 27.3993 28.5051 25.8069 27.5264 24.8282C26.918 24.2198 26.0725 23.9899 25.2846 24.1379L26.9346 22.488C27.6306 22.6868 28.2647 23.0589 28.7802 23.5744C29.5877 24.3819 30.0325 25.4575 30.0325 26.603C30.0324 27.7486 29.5877 28.8242 28.7801 29.6317Z" fill="#1F365D"/>
<path d="M25.9482 19.4463C26.0715 19.4463 26.1925 19.3962 26.2797 19.3089C26.3668 19.2218 26.417 19.1008 26.417 18.9775C26.417 18.8543 26.3668 18.7333 26.2797 18.6462C26.1925 18.559 26.0715 18.5088 25.9482 18.5088C25.825 18.5088 25.704 18.5589 25.6168 18.6462C25.5296 18.7333 25.4795 18.8543 25.4795 18.9775C25.4795 19.1008 25.5296 19.2218 25.6168 19.3089C25.704 19.3962 25.825 19.4463 25.9482 19.4463Z" fill="#1F365D"/>
</g>
<rect x="0.5" y="0.5" width="51" height="51" rx="25.5" stroke="#45B5E3"/>
<defs>
<clipPath id="clip0_105_570">
<rect width="24" height="24" fill="white" transform="translate(14 150)"/>
</clipPath>
<clipPath id="clip1_105_570">
<rect width="24" height="24" fill="white" transform="translate(14 218)"/>
</clipPath>
<clipPath id="clip2_105_570">
<rect width="24" height="24" fill="white" transform="translate(14 286)"/>
</clipPath>
<clipPath id="clip3_105_570">
<rect width="24" height="24" fill="white" transform="translate(14 14)"/>
</clipPath>
</defs>
</svg>
