<svg width="884" height="160" viewBox="0 0 884 160" fill="none" xmlns="http://www.w3.org/2000/svg">
<g filter="url(#filter0_d_610_7496)">
<rect x="35" y="31" width="814" height="90" rx="4" fill="white"/>
<path d="M70.5156 70.2227V75.1797H77.2305V70.2227H78.8125V82H77.2305V76.6738H70.5156V82H68.9336V70.2227H70.5156ZM86.2129 73.0352C87.1035 73.0352 87.8945 73.2461 88.5859 73.668C89.2773 74.0898 89.8164 74.6523 90.2031 75.3555C90.6016 76.0586 90.8008 76.8262 90.8008 77.6582C90.8008 78.4902 90.6016 79.2578 90.2031 79.9609C89.8164 80.6523 89.2773 81.209 88.5859 81.6309C87.8945 82.0527 87.1035 82.2637 86.2129 82.2637C85.3223 82.2637 84.5312 82.0527 83.8398 81.6309C83.1484 81.209 82.6035 80.6523 82.2051 79.9609C81.8184 79.2578 81.625 78.4902 81.625 77.6582C81.625 76.8262 81.8184 76.0586 82.2051 75.3555C82.6035 74.6523 83.1484 74.0898 83.8398 73.668C84.5312 73.2461 85.3223 73.0352 86.2129 73.0352ZM86.2129 74.4414C85.5918 74.4414 85.0469 74.5938 84.5781 74.8984C84.1094 75.1914 83.7461 75.584 83.4883 76.0762C83.2422 76.5566 83.1191 77.084 83.1191 77.6582C83.1191 78.2207 83.2422 78.748 83.4883 79.2402C83.7461 79.7207 84.1094 80.1133 84.5781 80.418C85.0469 80.7109 85.5918 80.8574 86.2129 80.8574C86.8457 80.8574 87.3906 80.7109 87.8477 80.418C88.3164 80.1133 88.6738 79.7207 88.9199 79.2402C89.1777 78.748 89.3066 78.2207 89.3066 77.6582C89.3066 77.084 89.1777 76.5566 88.9199 76.0762C88.6738 75.584 88.3164 75.1914 87.8477 74.8984C87.3906 74.5938 86.8457 74.4414 86.2129 74.4414ZM104.705 73.2109L101.629 82H100.732L98.3242 75.7949L95.916 82H95.0195L91.9434 73.2109H93.666L95.6172 79.3809L97.9199 73.2109H98.7285L101.031 79.3809L102.982 73.2109H104.705ZM114.355 73.0352C114.871 73.0352 115.352 73.1113 115.797 73.2637C116.242 73.4043 116.564 73.5508 116.764 73.7031V75.25C116.518 75.0625 116.184 74.8809 115.762 74.7051C115.34 74.5293 114.906 74.4414 114.461 74.4414C113.91 74.4414 113.494 74.5703 113.213 74.8281C112.943 75.0859 112.809 75.3555 112.809 75.6367C112.809 75.8594 112.885 76.0879 113.037 76.3223C113.201 76.5449 113.482 76.7266 113.881 76.8672L115.357 77.3945C115.932 77.5938 116.359 77.8809 116.641 78.2559C116.922 78.6309 117.062 79.0703 117.062 79.5742C117.062 80.0664 116.922 80.5176 116.641 80.9277C116.371 81.3379 115.99 81.666 115.498 81.9121C115.018 82.1465 114.461 82.2637 113.828 82.2637C113.488 82.2637 113.131 82.2168 112.756 82.123C112.393 82.041 112.064 81.9414 111.771 81.8242C111.479 81.6953 111.262 81.584 111.121 81.4902V79.9434C111.285 80.0605 111.514 80.1953 111.807 80.3477C112.111 80.4883 112.434 80.6113 112.773 80.7168C113.113 80.8105 113.43 80.8574 113.723 80.8574C114.273 80.8574 114.707 80.7344 115.023 80.4883C115.352 80.2422 115.516 79.9375 115.516 79.5742C115.516 79.293 115.404 79.0703 115.182 78.9062C114.971 78.7422 114.66 78.584 114.25 78.4316L112.949 77.957C112.27 77.6992 111.818 77.377 111.596 76.9902C111.373 76.5918 111.262 76.1406 111.262 75.6367C111.262 74.8867 111.543 74.2656 112.105 73.7734C112.668 73.2812 113.418 73.0352 114.355 73.0352ZM123.232 73.0352C124.123 73.0352 124.914 73.2461 125.605 73.668C126.297 74.0898 126.836 74.6523 127.223 75.3555C127.621 76.0586 127.82 76.8262 127.82 77.6582C127.82 78.4902 127.621 79.2578 127.223 79.9609C126.836 80.6523 126.297 81.209 125.605 81.6309C124.914 82.0527 124.123 82.2637 123.232 82.2637C122.342 82.2637 121.551 82.0527 120.859 81.6309C120.168 81.209 119.623 80.6523 119.225 79.9609C118.838 79.2578 118.645 78.4902 118.645 77.6582C118.645 76.8262 118.838 76.0586 119.225 75.3555C119.623 74.6523 120.168 74.0898 120.859 73.668C121.551 73.2461 122.342 73.0352 123.232 73.0352ZM123.232 74.4414C122.611 74.4414 122.066 74.5938 121.598 74.8984C121.129 75.1914 120.766 75.584 120.508 76.0762C120.262 76.5566 120.139 77.084 120.139 77.6582C120.139 78.2207 120.262 78.748 120.508 79.2402C120.766 79.7207 121.129 80.1133 121.598 80.418C122.066 80.7109 122.611 80.8574 123.232 80.8574C123.865 80.8574 124.41 80.7109 124.867 80.418C125.336 80.1133 125.693 79.7207 125.939 79.2402C126.197 78.748 126.326 78.2207 126.326 77.6582C126.326 77.084 126.197 76.5566 125.939 76.0762C125.693 75.584 125.336 75.1914 124.867 74.8984C124.41 74.5938 123.865 74.4414 123.232 74.4414ZM134.166 73.0352C135.057 73.0352 135.848 73.2461 136.539 73.668C137.23 74.0898 137.77 74.6523 138.156 75.3555C138.555 76.0586 138.754 76.8262 138.754 77.6582C138.754 78.4902 138.555 79.2578 138.156 79.9609C137.77 80.6523 137.23 81.209 136.539 81.6309C135.848 82.0527 135.057 82.2637 134.166 82.2637C133.275 82.2637 132.484 82.0527 131.793 81.6309C131.102 81.209 130.557 80.6523 130.158 79.9609C129.771 79.2578 129.578 78.4902 129.578 77.6582C129.578 76.8262 129.771 76.0586 130.158 75.3555C130.557 74.6523 131.102 74.0898 131.793 73.668C132.484 73.2461 133.275 73.0352 134.166 73.0352ZM134.166 74.4414C133.545 74.4414 133 74.5938 132.531 74.8984C132.062 75.1914 131.699 75.584 131.441 76.0762C131.195 76.5566 131.072 77.084 131.072 77.6582C131.072 78.2207 131.195 78.748 131.441 79.2402C131.699 79.7207 132.062 80.1133 132.531 80.418C133 80.7109 133.545 80.8574 134.166 80.8574C134.799 80.8574 135.344 80.7109 135.801 80.418C136.27 80.1133 136.627 79.7207 136.873 79.2402C137.131 78.748 137.26 78.2207 137.26 77.6582C137.26 77.084 137.131 76.5566 136.873 76.0762C136.627 75.584 136.27 75.1914 135.801 74.8984C135.344 74.5938 134.799 74.4414 134.166 74.4414ZM142.568 73.2109V74.5996C142.756 74.3652 142.996 74.1309 143.289 73.8965C143.582 73.6504 143.91 73.4453 144.273 73.2812C144.648 73.1172 145.035 73.0352 145.434 73.0352C146.031 73.0352 146.576 73.1699 147.068 73.4395C147.561 73.6973 147.953 74.0957 148.246 74.6348C148.539 75.1621 148.686 75.8301 148.686 76.6387V82H147.244L147.227 76.7793C147.227 76.0176 147.057 75.4375 146.717 75.0391C146.389 74.6406 145.879 74.4414 145.188 74.4414C144.719 74.4414 144.25 74.6172 143.781 74.9688C143.324 75.3086 142.92 75.707 142.568 76.1641V82H141.127V73.2109H142.568ZM160.305 73.0352C160.809 73.0352 161.318 73.1582 161.834 73.4043C162.361 73.6387 162.812 73.9668 163.188 74.3887V73.2109H164.629V82H163.188V80.5059C162.883 80.9746 162.467 81.3848 161.939 81.7363C161.424 82.0879 160.832 82.2637 160.164 82.2637C159.414 82.2637 158.729 82.0762 158.107 81.7012C157.486 81.3145 156.988 80.7812 156.613 80.1016C156.25 79.4219 156.068 78.6367 156.068 77.7461C156.068 76.7734 156.25 75.9355 156.613 75.2324C156.988 74.5293 157.498 73.9902 158.143 73.6152C158.787 73.2285 159.508 73.0352 160.305 73.0352ZM160.568 74.4414C159.936 74.4414 159.396 74.5996 158.951 74.916C158.506 75.2324 158.16 75.6426 157.914 76.1465C157.68 76.6387 157.562 77.1719 157.562 77.7461C157.562 78.3086 157.68 78.8301 157.914 79.3105C158.148 79.7793 158.477 80.1543 158.898 80.4355C159.332 80.7168 159.83 80.8574 160.393 80.8574C160.932 80.8574 161.412 80.7168 161.834 80.4355C162.256 80.1543 162.59 79.7676 162.836 79.2754C163.082 78.7715 163.199 78.209 163.188 77.5879L163.17 75.9004C162.807 75.4434 162.414 75.0859 161.992 74.8281C161.582 74.5703 161.107 74.4414 160.568 74.4414ZM172.17 73.2109V74.5645H169.604V82H168.162V74.5645H166.773V73.2109H168.162V72.0859C168.162 71.3945 168.297 70.832 168.566 70.3984C168.836 69.9531 169.182 69.625 169.604 69.4141C170.025 69.1914 170.453 69.0801 170.887 69.0801C171.484 69.0801 171.971 69.2383 172.346 69.5547V70.8203C172.17 70.7031 171.959 70.6094 171.713 70.5391C171.467 70.4688 171.221 70.4395 170.975 70.4512C170.541 70.4629 170.201 70.6035 169.955 70.873C169.721 71.1309 169.604 71.5879 169.604 72.2441V73.2109H172.17ZM176.512 70.6797V73.2109H179.078V74.5645H176.512V79.7148C176.512 80.0781 176.605 80.3652 176.793 80.5762C176.98 80.7871 177.268 80.8926 177.654 80.8926C178.006 80.8926 178.299 80.8516 178.533 80.7695C178.768 80.6758 178.973 80.5762 179.148 80.4707V81.6484C178.914 81.8359 178.662 81.9824 178.393 82.0879C178.135 82.2051 177.783 82.2637 177.338 82.2637C176.588 82.2637 176.02 82.041 175.633 81.5957C175.258 81.1387 175.07 80.5352 175.07 79.7852V74.5645H173.383V74.1426C173.957 73.8848 174.438 73.4629 174.824 72.877C175.211 72.2793 175.551 71.5469 175.844 70.6797H176.512ZM185.318 73.0352C186.221 73.0352 186.971 73.2227 187.568 73.5977C188.166 73.9727 188.611 74.4824 188.904 75.127C189.209 75.7715 189.361 76.498 189.361 77.3066V78.168H182.611C182.682 78.6602 182.852 79.1113 183.121 79.5215C183.391 79.9316 183.742 80.2598 184.176 80.5059C184.609 80.7402 185.107 80.8574 185.67 80.8574C186.303 80.8574 186.895 80.6992 187.445 80.3828C187.996 80.0547 188.459 79.6973 188.834 79.3105L188.816 80.875C188.652 81.0742 188.406 81.2852 188.078 81.5078C187.762 81.7188 187.393 81.8945 186.971 82.0352C186.561 82.1875 186.127 82.2637 185.67 82.2637C184.779 82.2637 183.988 82.0527 183.297 81.6309C182.605 81.209 182.061 80.6523 181.662 79.9609C181.275 79.2578 181.082 78.4902 181.082 77.6582C181.082 76.8262 181.264 76.0586 181.627 75.3555C181.99 74.6523 182.488 74.0898 183.121 73.668C183.766 73.2461 184.498 73.0352 185.318 73.0352ZM185.318 74.4414C184.592 74.4414 183.994 74.6875 183.525 75.1797C183.057 75.6602 182.764 76.2461 182.646 76.9375H187.938C187.879 76.3633 187.715 75.8945 187.445 75.5312C187.188 75.168 186.871 74.8984 186.496 74.7227C186.121 74.5352 185.729 74.4414 185.318 74.4414ZM193.176 73.2109V74.9688C193.516 74.3828 193.926 73.9141 194.406 73.5625C194.887 73.2109 195.379 73.0352 195.883 73.0352C196.223 73.0352 196.527 73.0938 196.797 73.2109V74.8809C196.422 74.6582 196.047 74.5469 195.672 74.5469C195.074 74.5469 194.588 74.7578 194.213 75.1797C193.85 75.6016 193.504 76.1055 193.176 76.6914V82H191.734V73.2109H193.176ZM206.342 70.6797V73.2109H208.908V74.5645H206.342V79.7148C206.342 80.0781 206.436 80.3652 206.623 80.5762C206.811 80.7871 207.098 80.8926 207.484 80.8926C207.836 80.8926 208.129 80.8516 208.363 80.7695C208.598 80.6758 208.803 80.5762 208.979 80.4707V81.6484C208.744 81.8359 208.492 81.9824 208.223 82.0879C207.965 82.2051 207.613 82.2637 207.168 82.2637C206.418 82.2637 205.85 82.041 205.463 81.5957C205.088 81.1387 204.9 80.5352 204.9 79.7852V74.5645H203.213V74.1426C203.787 73.8848 204.268 73.4629 204.654 72.877C205.041 72.2793 205.381 71.5469 205.674 70.6797H206.342ZM215.834 73.0352C216.432 73.0352 216.977 73.1699 217.469 73.4395C217.961 73.6973 218.354 74.0957 218.646 74.6348C218.939 75.1621 219.086 75.8301 219.086 76.6387V82H217.645L217.627 76.7793C217.627 76.0176 217.457 75.4375 217.117 75.0391C216.789 74.6406 216.279 74.4414 215.588 74.4414C215.119 74.4414 214.65 74.6172 214.182 74.9688C213.725 75.3086 213.32 75.707 212.969 76.1641V82H211.527V69.3438H212.969V74.5996C213.156 74.3652 213.396 74.1309 213.689 73.8965C213.982 73.6504 214.311 73.4453 214.674 73.2812C215.049 73.1172 215.436 73.0352 215.834 73.0352ZM225.432 73.0352C226.334 73.0352 227.084 73.2227 227.682 73.5977C228.279 73.9727 228.725 74.4824 229.018 75.127C229.322 75.7715 229.475 76.498 229.475 77.3066V78.168H222.725C222.795 78.6602 222.965 79.1113 223.234 79.5215C223.504 79.9316 223.855 80.2598 224.289 80.5059C224.723 80.7402 225.221 80.8574 225.783 80.8574C226.416 80.8574 227.008 80.6992 227.559 80.3828C228.109 80.0547 228.572 79.6973 228.947 79.3105L228.93 80.875C228.766 81.0742 228.52 81.2852 228.191 81.5078C227.875 81.7188 227.506 81.8945 227.084 82.0352C226.674 82.1875 226.24 82.2637 225.783 82.2637C224.893 82.2637 224.102 82.0527 223.41 81.6309C222.719 81.209 222.174 80.6523 221.775 79.9609C221.389 79.2578 221.195 78.4902 221.195 77.6582C221.195 76.8262 221.377 76.0586 221.74 75.3555C222.104 74.6523 222.602 74.0898 223.234 73.668C223.879 73.2461 224.611 73.0352 225.432 73.0352ZM225.432 74.4414C224.705 74.4414 224.107 74.6875 223.639 75.1797C223.17 75.6602 222.877 76.2461 222.76 76.9375H228.051C227.992 76.3633 227.828 75.8945 227.559 75.5312C227.301 75.168 226.984 74.8984 226.609 74.7227C226.234 74.5352 225.842 74.4414 225.432 74.4414ZM238.527 68.9922C238.867 68.9922 239.148 69.1152 239.371 69.3613C239.605 69.5957 239.723 69.8711 239.723 70.1875C239.723 70.4922 239.605 70.7676 239.371 71.0137C239.148 71.2598 238.867 71.3828 238.527 71.3828C238.188 71.3828 237.9 71.2598 237.666 71.0137C237.443 70.7676 237.332 70.4922 237.332 70.1875C237.332 69.8711 237.443 69.5957 237.666 69.3613C237.9 69.1152 238.188 68.9922 238.527 68.9922ZM239.424 73.2109V82H237.982V74.5645H236.594V73.2109H239.424ZM243.977 73.2109V74.5996C244.164 74.3652 244.404 74.1309 244.697 73.8965C244.99 73.6504 245.318 73.4453 245.682 73.2812C246.057 73.1172 246.443 73.0352 246.842 73.0352C247.439 73.0352 247.984 73.1699 248.477 73.4395C248.969 73.6973 249.361 74.0957 249.654 74.6348C249.947 75.1621 250.094 75.8301 250.094 76.6387V82H248.652L248.635 76.7793C248.635 76.0176 248.465 75.4375 248.125 75.0391C247.797 74.6406 247.287 74.4414 246.596 74.4414C246.127 74.4414 245.658 74.6172 245.189 74.9688C244.732 75.3086 244.328 75.707 243.977 76.1641V82H242.535V73.2109H243.977ZM254.225 68.9922C254.564 68.9922 254.846 69.1152 255.068 69.3613C255.303 69.5957 255.42 69.8711 255.42 70.1875C255.42 70.4922 255.303 70.7676 255.068 71.0137C254.846 71.2598 254.564 71.3828 254.225 71.3828C253.885 71.3828 253.598 71.2598 253.363 71.0137C253.141 70.7676 253.029 70.4922 253.029 70.1875C253.029 69.8711 253.141 69.5957 253.363 69.3613C253.598 69.1152 253.885 68.9922 254.225 68.9922ZM255.121 73.2109V82H253.68V74.5645H252.291V73.2109H255.121ZM260.658 70.6797V73.2109H263.225V74.5645H260.658V79.7148C260.658 80.0781 260.752 80.3652 260.939 80.5762C261.127 80.7871 261.414 80.8926 261.801 80.8926C262.152 80.8926 262.445 80.8516 262.68 80.7695C262.914 80.6758 263.119 80.5762 263.295 80.4707V81.6484C263.061 81.8359 262.809 81.9824 262.539 82.0879C262.281 82.2051 261.93 82.2637 261.484 82.2637C260.734 82.2637 260.166 82.041 259.779 81.5957C259.404 81.1387 259.217 80.5352 259.217 79.7852V74.5645H257.529V74.1426C258.104 73.8848 258.584 73.4629 258.971 72.877C259.357 72.2793 259.697 71.5469 259.99 70.6797H260.658ZM267.25 68.9922C267.59 68.9922 267.871 69.1152 268.094 69.3613C268.328 69.5957 268.445 69.8711 268.445 70.1875C268.445 70.4922 268.328 70.7676 268.094 71.0137C267.871 71.2598 267.59 71.3828 267.25 71.3828C266.91 71.3828 266.623 71.2598 266.389 71.0137C266.166 70.7676 266.055 70.4922 266.055 70.1875C266.055 69.8711 266.166 69.5957 266.389 69.3613C266.623 69.1152 266.91 68.9922 267.25 68.9922ZM268.146 73.2109V82H266.705V74.5645H265.316V73.2109H268.146ZM274.879 73.0352C275.383 73.0352 275.893 73.1582 276.408 73.4043C276.936 73.6387 277.387 73.9668 277.762 74.3887V73.2109H279.203V82H277.762V80.5059C277.457 80.9746 277.041 81.3848 276.514 81.7363C275.998 82.0879 275.406 82.2637 274.738 82.2637C273.988 82.2637 273.303 82.0762 272.682 81.7012C272.061 81.3145 271.562 80.7812 271.188 80.1016C270.824 79.4219 270.643 78.6367 270.643 77.7461C270.643 76.7734 270.824 75.9355 271.188 75.2324C271.562 74.5293 272.072 73.9902 272.717 73.6152C273.361 73.2285 274.082 73.0352 274.879 73.0352ZM275.143 74.4414C274.51 74.4414 273.971 74.5996 273.525 74.916C273.08 75.2324 272.734 75.6426 272.488 76.1465C272.254 76.6387 272.137 77.1719 272.137 77.7461C272.137 78.3086 272.254 78.8301 272.488 79.3105C272.723 79.7793 273.051 80.1543 273.473 80.4355C273.906 80.7168 274.404 80.8574 274.967 80.8574C275.506 80.8574 275.986 80.7168 276.408 80.4355C276.83 80.1543 277.164 79.7676 277.41 79.2754C277.656 78.7715 277.773 78.209 277.762 77.5879L277.744 75.9004C277.381 75.4434 276.988 75.0859 276.566 74.8281C276.156 74.5703 275.682 74.4414 275.143 74.4414ZM283.633 69.3438V82H282.191V69.3438H283.633ZM296.359 73.0352C297.121 73.0352 297.807 73.2227 298.416 73.5977C299.037 73.9609 299.529 74.4766 299.893 75.1445C300.268 75.8008 300.455 76.5742 300.455 77.4648C300.455 78.4258 300.268 79.2695 299.893 79.9961C299.529 80.7109 299.025 81.2676 298.381 81.666C297.748 82.0645 297.027 82.2637 296.219 82.2637C295.715 82.2637 295.199 82.1289 294.672 81.8594C294.156 81.5898 293.711 81.2441 293.336 80.8223V86.2188H291.895V73.2109H293.336V74.7051C293.641 74.2363 294.051 73.8438 294.566 73.5273C295.094 73.1992 295.691 73.0352 296.359 73.0352ZM296.131 74.4414C295.604 74.4414 295.123 74.5762 294.689 74.8457C294.268 75.1152 293.934 75.4902 293.688 75.9707C293.453 76.4395 293.336 76.9902 293.336 77.623L293.354 79.3105C293.729 79.7676 294.121 80.1426 294.531 80.4355C294.941 80.7168 295.416 80.8574 295.955 80.8574C296.588 80.8574 297.127 80.6934 297.572 80.3652C298.018 80.0371 298.357 79.6152 298.592 79.0996C298.838 78.5723 298.961 78.0273 298.961 77.4648C298.961 76.8906 298.844 76.3809 298.609 75.9355C298.375 75.4785 298.047 75.1152 297.625 74.8457C297.203 74.5762 296.705 74.4414 296.131 74.4414ZM306.449 73.0352C306.953 73.0352 307.463 73.1582 307.979 73.4043C308.506 73.6387 308.957 73.9668 309.332 74.3887V73.2109H310.773V82H309.332V80.5059C309.027 80.9746 308.611 81.3848 308.084 81.7363C307.568 82.0879 306.977 82.2637 306.309 82.2637C305.559 82.2637 304.873 82.0762 304.252 81.7012C303.631 81.3145 303.133 80.7812 302.758 80.1016C302.395 79.4219 302.213 78.6367 302.213 77.7461C302.213 76.7734 302.395 75.9355 302.758 75.2324C303.133 74.5293 303.643 73.9902 304.287 73.6152C304.932 73.2285 305.652 73.0352 306.449 73.0352ZM306.713 74.4414C306.08 74.4414 305.541 74.5996 305.096 74.916C304.65 75.2324 304.305 75.6426 304.059 76.1465C303.824 76.6387 303.707 77.1719 303.707 77.7461C303.707 78.3086 303.824 78.8301 304.059 79.3105C304.293 79.7793 304.621 80.1543 305.043 80.4355C305.477 80.7168 305.975 80.8574 306.537 80.8574C307.076 80.8574 307.557 80.7168 307.979 80.4355C308.4 80.1543 308.734 79.7676 308.98 79.2754C309.227 78.7715 309.344 78.209 309.332 77.5879L309.314 75.9004C308.951 75.4434 308.559 75.0859 308.137 74.8281C307.727 74.5703 307.252 74.4414 306.713 74.4414ZM314.254 73.2109L317.33 79.6797L320.318 73.2109H322.041L315.572 86.2188H313.902L316.416 81.4727L312.531 73.2109H314.254ZM325.24 73.2109V74.3359C325.521 74.0195 325.879 73.7266 326.312 73.457C326.758 73.1758 327.279 73.0352 327.877 73.0352C328.51 73.0352 329.102 73.1875 329.652 73.4922C330.203 73.7852 330.625 74.2305 330.918 74.8281C331.328 74.3359 331.773 73.9141 332.254 73.5625C332.734 73.2109 333.297 73.0352 333.941 73.0352C334.539 73.0352 335.096 73.1699 335.611 73.4395C336.139 73.6973 336.561 74.0957 336.877 74.6348C337.205 75.1621 337.369 75.8301 337.369 76.6387V82H335.928L335.91 76.7793C335.91 76.0176 335.711 75.4375 335.312 75.0391C334.926 74.6406 334.387 74.4414 333.695 74.4414C333.191 74.4414 332.752 74.5996 332.377 74.916C332.002 75.2324 331.645 75.6016 331.305 76.0234V82H329.863L329.846 76.7793C329.846 76.0176 329.646 75.4375 329.248 75.0391C328.861 74.6406 328.322 74.4414 327.631 74.4414C327.15 74.4414 326.711 74.582 326.312 74.8633C325.926 75.1445 325.568 75.4844 325.24 75.8828V82H323.799V73.2109H325.24ZM343.715 73.0352C344.617 73.0352 345.367 73.2227 345.965 73.5977C346.562 73.9727 347.008 74.4824 347.301 75.127C347.605 75.7715 347.758 76.498 347.758 77.3066V78.168H341.008C341.078 78.6602 341.248 79.1113 341.518 79.5215C341.787 79.9316 342.139 80.2598 342.572 80.5059C343.006 80.7402 343.504 80.8574 344.066 80.8574C344.699 80.8574 345.291 80.6992 345.842 80.3828C346.393 80.0547 346.855 79.6973 347.23 79.3105L347.213 80.875C347.049 81.0742 346.803 81.2852 346.475 81.5078C346.158 81.7188 345.789 81.8945 345.367 82.0352C344.957 82.1875 344.523 82.2637 344.066 82.2637C343.176 82.2637 342.385 82.0527 341.693 81.6309C341.002 81.209 340.457 80.6523 340.059 79.9609C339.672 79.2578 339.479 78.4902 339.479 77.6582C339.479 76.8262 339.66 76.0586 340.023 75.3555C340.387 74.6523 340.885 74.0898 341.518 73.668C342.162 73.2461 342.895 73.0352 343.715 73.0352ZM343.715 74.4414C342.988 74.4414 342.391 74.6875 341.922 75.1797C341.453 75.6602 341.16 76.2461 341.043 76.9375H346.334C346.275 76.3633 346.111 75.8945 345.842 75.5312C345.584 75.168 345.268 74.8984 344.893 74.7227C344.518 74.5352 344.125 74.4414 343.715 74.4414ZM351.572 73.2109V74.5996C351.76 74.3652 352 74.1309 352.293 73.8965C352.586 73.6504 352.914 73.4453 353.277 73.2812C353.652 73.1172 354.039 73.0352 354.438 73.0352C355.035 73.0352 355.58 73.1699 356.072 73.4395C356.564 73.6973 356.957 74.0957 357.25 74.6348C357.543 75.1621 357.689 75.8301 357.689 76.6387V82H356.248L356.23 76.7793C356.23 76.0176 356.061 75.4375 355.721 75.0391C355.393 74.6406 354.883 74.4414 354.191 74.4414C353.723 74.4414 353.254 74.6172 352.785 74.9688C352.328 75.3086 351.924 75.707 351.572 76.1641V82H350.131V73.2109H351.572ZM362.84 70.6797V73.2109H365.406V74.5645H362.84V79.7148C362.84 80.0781 362.934 80.3652 363.121 80.5762C363.309 80.7871 363.596 80.8926 363.982 80.8926C364.334 80.8926 364.627 80.8516 364.861 80.7695C365.096 80.6758 365.301 80.5762 365.477 80.4707V81.6484C365.242 81.8359 364.99 81.9824 364.721 82.0879C364.463 82.2051 364.111 82.2637 363.666 82.2637C362.916 82.2637 362.348 82.041 361.961 81.5957C361.586 81.1387 361.398 80.5352 361.398 79.7852V74.5645H359.711V74.1426C360.285 73.8848 360.766 73.4629 361.152 72.877C361.539 72.2793 361.879 71.5469 362.172 70.6797H362.84ZM381.244 69.3438V82H379.803V80.5059C379.498 80.9746 379.082 81.3848 378.555 81.7363C378.039 82.0879 377.447 82.2637 376.779 82.2637C376.029 82.2637 375.344 82.0762 374.723 81.7012C374.102 81.3145 373.604 80.7812 373.229 80.1016C372.865 79.4219 372.684 78.6367 372.684 77.7461C372.684 76.7734 372.865 75.9355 373.229 75.2324C373.604 74.5293 374.113 73.9902 374.758 73.6152C375.402 73.2285 376.123 73.0352 376.92 73.0352C377.424 73.0352 377.934 73.1582 378.449 73.4043C378.977 73.6387 379.428 73.9668 379.803 74.3887V69.3438H381.244ZM377.184 74.4766C376.551 74.4766 376.012 74.6348 375.566 74.9512C375.121 75.2559 374.775 75.6543 374.529 76.1465C374.295 76.6387 374.178 77.1719 374.178 77.7461C374.178 78.3086 374.295 78.8301 374.529 79.3105C374.764 79.7793 375.092 80.1543 375.514 80.4355C375.947 80.7168 376.445 80.8574 377.008 80.8574C377.547 80.8574 378.027 80.7168 378.449 80.4355C378.871 80.1543 379.205 79.7676 379.451 79.2754C379.697 78.7715 379.814 78.209 379.803 77.5879L379.785 75.9004C379.422 75.4434 379.029 75.0918 378.607 74.8457C378.197 74.5996 377.723 74.4766 377.184 74.4766ZM388.205 73.0352C389.096 73.0352 389.887 73.2461 390.578 73.668C391.27 74.0898 391.809 74.6523 392.195 75.3555C392.594 76.0586 392.793 76.8262 392.793 77.6582C392.793 78.4902 392.594 79.2578 392.195 79.9609C391.809 80.6523 391.27 81.209 390.578 81.6309C389.887 82.0527 389.096 82.2637 388.205 82.2637C387.314 82.2637 386.523 82.0527 385.832 81.6309C385.141 81.209 384.596 80.6523 384.197 79.9609C383.811 79.2578 383.617 78.4902 383.617 77.6582C383.617 76.8262 383.811 76.0586 384.197 75.3555C384.596 74.6523 385.141 74.0898 385.832 73.668C386.523 73.2461 387.314 73.0352 388.205 73.0352ZM388.205 74.4414C387.584 74.4414 387.039 74.5938 386.57 74.8984C386.102 75.1914 385.738 75.584 385.48 76.0762C385.234 76.5566 385.111 77.084 385.111 77.6582C385.111 78.2207 385.234 78.748 385.48 79.2402C385.738 79.7207 386.102 80.1133 386.57 80.418C387.039 80.7109 387.584 80.8574 388.205 80.8574C388.838 80.8574 389.383 80.7109 389.84 80.418C390.309 80.1133 390.666 79.7207 390.912 79.2402C391.17 78.748 391.299 78.2207 391.299 77.6582C391.299 77.084 391.17 76.5566 390.912 76.0762C390.666 75.584 390.309 75.1914 389.84 74.8984C389.383 74.5938 388.838 74.4414 388.205 74.4414ZM406.434 80.5059V82H400.879V80.5059H402.865V71.7168H400.879V70.2227H406.434V71.7168H404.447V80.5059H406.434ZM419.441 73.0352C420.039 73.0352 420.584 73.1699 421.076 73.4395C421.568 73.6973 421.961 74.0957 422.254 74.6348C422.547 75.1621 422.693 75.8301 422.693 76.6387V82H421.252L421.234 76.7793C421.234 76.0176 421.064 75.4375 420.725 75.0391C420.396 74.6406 419.887 74.4414 419.195 74.4414C418.727 74.4414 418.258 74.6172 417.789 74.9688C417.332 75.3086 416.928 75.707 416.576 76.1641V82H415.135V69.3438H416.576V74.5996C416.764 74.3652 417.004 74.1309 417.297 73.8965C417.59 73.6504 417.918 73.4453 418.281 73.2812C418.656 73.1172 419.043 73.0352 419.441 73.0352ZM429.039 73.0352C429.543 73.0352 430.053 73.1582 430.568 73.4043C431.096 73.6387 431.547 73.9668 431.922 74.3887V73.2109H433.363V82H431.922V80.5059C431.617 80.9746 431.201 81.3848 430.674 81.7363C430.158 82.0879 429.566 82.2637 428.898 82.2637C428.148 82.2637 427.463 82.0762 426.842 81.7012C426.221 81.3145 425.723 80.7812 425.348 80.1016C424.984 79.4219 424.803 78.6367 424.803 77.7461C424.803 76.7734 424.984 75.9355 425.348 75.2324C425.723 74.5293 426.232 73.9902 426.877 73.6152C427.521 73.2285 428.242 73.0352 429.039 73.0352ZM429.303 74.4414C428.67 74.4414 428.131 74.5996 427.686 74.916C427.24 75.2324 426.895 75.6426 426.648 76.1465C426.414 76.6387 426.297 77.1719 426.297 77.7461C426.297 78.3086 426.414 78.8301 426.648 79.3105C426.883 79.7793 427.211 80.1543 427.633 80.4355C428.066 80.7168 428.564 80.8574 429.127 80.8574C429.666 80.8574 430.146 80.7168 430.568 80.4355C430.99 80.1543 431.324 79.7676 431.57 79.2754C431.816 78.7715 431.934 78.209 431.922 77.5879L431.904 75.9004C431.541 75.4434 431.148 75.0859 430.727 74.8281C430.316 74.5703 429.842 74.4414 429.303 74.4414ZM443.928 73.2109L439.797 82H438.9L434.945 73.2109H436.668L439.322 79.6797L442.205 73.2109H443.928ZM449.131 73.0352C450.033 73.0352 450.783 73.2227 451.381 73.5977C451.979 73.9727 452.424 74.4824 452.717 75.127C453.021 75.7715 453.174 76.498 453.174 77.3066V78.168H446.424C446.494 78.6602 446.664 79.1113 446.934 79.5215C447.203 79.9316 447.555 80.2598 447.988 80.5059C448.422 80.7402 448.92 80.8574 449.482 80.8574C450.115 80.8574 450.707 80.6992 451.258 80.3828C451.809 80.0547 452.271 79.6973 452.646 79.3105L452.629 80.875C452.465 81.0742 452.219 81.2852 451.891 81.5078C451.574 81.7188 451.205 81.8945 450.783 82.0352C450.373 82.1875 449.939 82.2637 449.482 82.2637C448.592 82.2637 447.801 82.0527 447.109 81.6309C446.418 81.209 445.873 80.6523 445.475 79.9609C445.088 79.2578 444.895 78.4902 444.895 77.6582C444.895 76.8262 445.076 76.0586 445.439 75.3555C445.803 74.6523 446.301 74.0898 446.934 73.668C447.578 73.2461 448.311 73.0352 449.131 73.0352ZM449.131 74.4414C448.404 74.4414 447.807 74.6875 447.338 75.1797C446.869 75.6602 446.576 76.2461 446.459 76.9375H451.75C451.691 76.3633 451.527 75.8945 451.258 75.5312C451 75.168 450.684 74.8984 450.309 74.7227C449.934 74.5352 449.541 74.4414 449.131 74.4414ZM463.246 70.6797V73.2109H465.812V74.5645H463.246V79.7148C463.246 80.0781 463.34 80.3652 463.527 80.5762C463.715 80.7871 464.002 80.8926 464.389 80.8926C464.74 80.8926 465.033 80.8516 465.268 80.7695C465.502 80.6758 465.707 80.5762 465.883 80.4707V81.6484C465.648 81.8359 465.396 81.9824 465.127 82.0879C464.869 82.2051 464.518 82.2637 464.072 82.2637C463.322 82.2637 462.754 82.041 462.367 81.5957C461.992 81.1387 461.805 80.5352 461.805 79.7852V74.5645H460.117V74.1426C460.691 73.8848 461.172 73.4629 461.559 72.877C461.945 72.2793 462.285 71.5469 462.578 70.6797H463.246ZM472.404 73.0352C473.295 73.0352 474.086 73.2461 474.777 73.668C475.469 74.0898 476.008 74.6523 476.395 75.3555C476.793 76.0586 476.992 76.8262 476.992 77.6582C476.992 78.4902 476.793 79.2578 476.395 79.9609C476.008 80.6523 475.469 81.209 474.777 81.6309C474.086 82.0527 473.295 82.2637 472.404 82.2637C471.514 82.2637 470.723 82.0527 470.031 81.6309C469.34 81.209 468.795 80.6523 468.396 79.9609C468.01 79.2578 467.816 78.4902 467.816 77.6582C467.816 76.8262 468.01 76.0586 468.396 75.3555C468.795 74.6523 469.34 74.0898 470.031 73.668C470.723 73.2461 471.514 73.0352 472.404 73.0352ZM472.404 74.4414C471.783 74.4414 471.238 74.5938 470.77 74.8984C470.301 75.1914 469.938 75.584 469.68 76.0762C469.434 76.5566 469.311 77.084 469.311 77.6582C469.311 78.2207 469.434 78.748 469.68 79.2402C469.938 79.7207 470.301 80.1133 470.77 80.418C471.238 80.7109 471.783 80.8574 472.404 80.8574C473.037 80.8574 473.582 80.7109 474.039 80.418C474.508 80.1133 474.865 79.7207 475.111 79.2402C475.369 78.748 475.498 78.2207 475.498 77.6582C475.498 77.084 475.369 76.5566 475.111 76.0762C474.865 75.584 474.508 75.1914 474.039 74.8984C473.582 74.5938 473.037 74.4414 472.404 74.4414ZM486.08 73.2109V74.3359C486.361 74.0195 486.719 73.7266 487.152 73.457C487.598 73.1758 488.119 73.0352 488.717 73.0352C489.35 73.0352 489.941 73.1875 490.492 73.4922C491.043 73.7852 491.465 74.2305 491.758 74.8281C492.168 74.3359 492.613 73.9141 493.094 73.5625C493.574 73.2109 494.137 73.0352 494.781 73.0352C495.379 73.0352 495.936 73.1699 496.451 73.4395C496.979 73.6973 497.4 74.0957 497.717 74.6348C498.045 75.1621 498.209 75.8301 498.209 76.6387V82H496.768L496.75 76.7793C496.75 76.0176 496.551 75.4375 496.152 75.0391C495.766 74.6406 495.227 74.4414 494.535 74.4414C494.031 74.4414 493.592 74.5996 493.217 74.916C492.842 75.2324 492.484 75.6016 492.145 76.0234V82H490.703L490.686 76.7793C490.686 76.0176 490.486 75.4375 490.088 75.0391C489.701 74.6406 489.162 74.4414 488.471 74.4414C487.99 74.4414 487.551 74.582 487.152 74.8633C486.766 75.1445 486.408 75.4844 486.08 75.8828V82H484.639V73.2109H486.08ZM504.555 73.0352C505.059 73.0352 505.568 73.1582 506.084 73.4043C506.611 73.6387 507.062 73.9668 507.438 74.3887V73.2109H508.879V82H507.438V80.5059C507.133 80.9746 506.717 81.3848 506.189 81.7363C505.674 82.0879 505.082 82.2637 504.414 82.2637C503.664 82.2637 502.979 82.0762 502.357 81.7012C501.736 81.3145 501.238 80.7812 500.863 80.1016C500.5 79.4219 500.318 78.6367 500.318 77.7461C500.318 76.7734 500.5 75.9355 500.863 75.2324C501.238 74.5293 501.748 73.9902 502.393 73.6152C503.037 73.2285 503.758 73.0352 504.555 73.0352ZM504.818 74.4414C504.186 74.4414 503.646 74.5996 503.201 74.916C502.756 75.2324 502.41 75.6426 502.164 76.1465C501.93 76.6387 501.812 77.1719 501.812 77.7461C501.812 78.3086 501.93 78.8301 502.164 79.3105C502.398 79.7793 502.727 80.1543 503.148 80.4355C503.582 80.7168 504.08 80.8574 504.643 80.8574C505.182 80.8574 505.662 80.7168 506.084 80.4355C506.506 80.1543 506.84 79.7676 507.086 79.2754C507.332 78.7715 507.449 78.209 507.438 77.5879L507.42 75.9004C507.057 75.4434 506.664 75.0859 506.242 74.8281C505.832 74.5703 505.357 74.4414 504.818 74.4414ZM519.637 73.2109L515.559 77.043L519.865 82H518.037L514.557 77.9922L513.309 79.1523V82H511.867V69.3438H513.309V77.5L517.686 73.2109H519.637ZM524.541 73.0352C525.443 73.0352 526.193 73.2227 526.791 73.5977C527.389 73.9727 527.834 74.4824 528.127 75.127C528.432 75.7715 528.584 76.498 528.584 77.3066V78.168H521.834C521.904 78.6602 522.074 79.1113 522.344 79.5215C522.613 79.9316 522.965 80.2598 523.398 80.5059C523.832 80.7402 524.33 80.8574 524.893 80.8574C525.525 80.8574 526.117 80.6992 526.668 80.3828C527.219 80.0547 527.682 79.6973 528.057 79.3105L528.039 80.875C527.875 81.0742 527.629 81.2852 527.301 81.5078C526.984 81.7188 526.615 81.8945 526.193 82.0352C525.783 82.1875 525.35 82.2637 524.893 82.2637C524.002 82.2637 523.211 82.0527 522.52 81.6309C521.828 81.209 521.283 80.6523 520.885 79.9609C520.498 79.2578 520.305 78.4902 520.305 77.6582C520.305 76.8262 520.486 76.0586 520.85 75.3555C521.213 74.6523 521.711 74.0898 522.344 73.668C522.988 73.2461 523.721 73.0352 524.541 73.0352ZM524.541 74.4414C523.814 74.4414 523.217 74.6875 522.748 75.1797C522.279 75.6602 521.986 76.2461 521.869 76.9375H527.16C527.102 76.3633 526.938 75.8945 526.668 75.5312C526.41 75.168 526.094 74.8984 525.719 74.7227C525.344 74.5352 524.951 74.4414 524.541 74.4414ZM538.656 70.6797V73.2109H541.223V74.5645H538.656V79.7148C538.656 80.0781 538.75 80.3652 538.938 80.5762C539.125 80.7871 539.412 80.8926 539.799 80.8926C540.15 80.8926 540.443 80.8516 540.678 80.7695C540.912 80.6758 541.117 80.5762 541.293 80.4707V81.6484C541.059 81.8359 540.807 81.9824 540.537 82.0879C540.279 82.2051 539.928 82.2637 539.482 82.2637C538.732 82.2637 538.164 82.041 537.777 81.5957C537.402 81.1387 537.215 80.5352 537.215 79.7852V74.5645H535.527V74.1426C536.102 73.8848 536.582 73.4629 536.969 72.877C537.355 72.2793 537.695 71.5469 537.988 70.6797H538.656ZM548.148 73.0352C548.746 73.0352 549.291 73.1699 549.783 73.4395C550.275 73.6973 550.668 74.0957 550.961 74.6348C551.254 75.1621 551.4 75.8301 551.4 76.6387V82H549.959L549.941 76.7793C549.941 76.0176 549.771 75.4375 549.432 75.0391C549.104 74.6406 548.594 74.4414 547.902 74.4414C547.434 74.4414 546.965 74.6172 546.496 74.9688C546.039 75.3086 545.635 75.707 545.283 76.1641V82H543.842V69.3438H545.283V74.5996C545.471 74.3652 545.711 74.1309 546.004 73.8965C546.297 73.6504 546.625 73.4453 546.988 73.2812C547.363 73.1172 547.75 73.0352 548.148 73.0352ZM557.746 73.0352C558.648 73.0352 559.398 73.2227 559.996 73.5977C560.594 73.9727 561.039 74.4824 561.332 75.127C561.637 75.7715 561.789 76.498 561.789 77.3066V78.168H555.039C555.109 78.6602 555.279 79.1113 555.549 79.5215C555.818 79.9316 556.17 80.2598 556.604 80.5059C557.037 80.7402 557.535 80.8574 558.098 80.8574C558.73 80.8574 559.322 80.6992 559.873 80.3828C560.424 80.0547 560.887 79.6973 561.262 79.3105L561.244 80.875C561.08 81.0742 560.834 81.2852 560.506 81.5078C560.189 81.7188 559.82 81.8945 559.398 82.0352C558.988 82.1875 558.555 82.2637 558.098 82.2637C557.207 82.2637 556.416 82.0527 555.725 81.6309C555.033 81.209 554.488 80.6523 554.09 79.9609C553.703 79.2578 553.51 78.4902 553.51 77.6582C553.51 76.8262 553.691 76.0586 554.055 75.3555C554.418 74.6523 554.916 74.0898 555.549 73.668C556.193 73.2461 556.926 73.0352 557.746 73.0352ZM557.746 74.4414C557.02 74.4414 556.422 74.6875 555.953 75.1797C555.484 75.6602 555.191 76.2461 555.074 76.9375H560.365C560.307 76.3633 560.143 75.8945 559.873 75.5312C559.615 75.168 559.299 74.8984 558.924 74.7227C558.549 74.5352 558.156 74.4414 557.746 74.4414ZM572.055 73.0352C572.57 73.0352 573.051 73.1113 573.496 73.2637C573.941 73.4043 574.264 73.5508 574.463 73.7031V75.25C574.217 75.0625 573.883 74.8809 573.461 74.7051C573.039 74.5293 572.605 74.4414 572.16 74.4414C571.609 74.4414 571.193 74.5703 570.912 74.8281C570.643 75.0859 570.508 75.3555 570.508 75.6367C570.508 75.8594 570.584 76.0879 570.736 76.3223C570.9 76.5449 571.182 76.7266 571.58 76.8672L573.057 77.3945C573.631 77.5938 574.059 77.8809 574.34 78.2559C574.621 78.6309 574.762 79.0703 574.762 79.5742C574.762 80.0664 574.621 80.5176 574.34 80.9277C574.07 81.3379 573.689 81.666 573.197 81.9121C572.717 82.1465 572.16 82.2637 571.527 82.2637C571.188 82.2637 570.83 82.2168 570.455 82.123C570.092 82.041 569.764 81.9414 569.471 81.8242C569.178 81.6953 568.961 81.584 568.82 81.4902V79.9434C568.984 80.0605 569.213 80.1953 569.506 80.3477C569.811 80.4883 570.133 80.6113 570.473 80.7168C570.812 80.8105 571.129 80.8574 571.422 80.8574C571.973 80.8574 572.406 80.7344 572.723 80.4883C573.051 80.2422 573.215 79.9375 573.215 79.5742C573.215 79.293 573.104 79.0703 572.881 78.9062C572.67 78.7422 572.359 78.584 571.949 78.4316L570.648 77.957C569.969 77.6992 569.518 77.377 569.295 76.9902C569.072 76.5918 568.961 76.1406 568.961 75.6367C568.961 74.8867 569.242 74.2656 569.805 73.7734C570.367 73.2812 571.117 73.0352 572.055 73.0352ZM584.148 73.2109V78.4141C584.148 79.1875 583.984 79.8555 583.656 80.418C583.328 80.9805 582.883 81.4141 582.32 81.7188C581.758 82.0234 581.125 82.1758 580.422 82.1758C579.719 82.1758 579.086 82.0234 578.523 81.7188C577.961 81.4141 577.516 80.9805 577.188 80.418C576.859 79.8555 576.695 79.1875 576.695 78.4141V73.2109H578.189V78.4141C578.189 79.1758 578.412 79.7617 578.857 80.1719C579.314 80.5703 579.836 80.7695 580.422 80.7695C581.008 80.7695 581.523 80.5703 581.969 80.1719C582.426 79.7617 582.654 79.1758 582.654 78.4141V73.2109H584.148ZM591.197 73.0352C592.006 73.0352 592.727 73.2285 593.359 73.6152C594.004 73.9902 594.508 74.5293 594.871 75.2324C595.246 75.9355 595.434 76.7734 595.434 77.7461C595.434 78.6367 595.246 79.4219 594.871 80.1016C594.508 80.7812 594.016 81.3145 593.395 81.7012C592.785 82.0762 592.1 82.2637 591.338 82.2637C590.67 82.2637 590.072 82.0879 589.545 81.7363C589.029 81.3848 588.619 80.9746 588.314 80.5059V82H586.873V69.3438H588.314V74.3887C588.689 73.9668 589.135 73.6387 589.65 73.4043C590.178 73.1582 590.693 73.0352 591.197 73.0352ZM590.934 74.459C590.395 74.459 589.92 74.5879 589.51 74.8457C589.1 75.0918 588.707 75.4434 588.332 75.9004L588.314 77.5879C588.314 78.209 588.432 78.7656 588.666 79.2578C588.912 79.75 589.246 80.1367 589.668 80.418C590.102 80.6992 590.582 80.8398 591.109 80.8398C591.684 80.8398 592.182 80.6992 592.604 80.418C593.025 80.1367 593.354 79.7617 593.588 79.293C593.822 78.8242 593.939 78.3086 593.939 77.7461C593.939 77.1719 593.816 76.6387 593.57 76.1465C593.336 75.6426 592.996 75.2383 592.551 74.9336C592.105 74.6172 591.566 74.459 590.934 74.459ZM600.426 73.0352C600.941 73.0352 601.422 73.1113 601.867 73.2637C602.312 73.4043 602.635 73.5508 602.834 73.7031V75.25C602.588 75.0625 602.254 74.8809 601.832 74.7051C601.41 74.5293 600.977 74.4414 600.531 74.4414C599.98 74.4414 599.564 74.5703 599.283 74.8281C599.014 75.0859 598.879 75.3555 598.879 75.6367C598.879 75.8594 598.955 76.0879 599.107 76.3223C599.271 76.5449 599.553 76.7266 599.951 76.8672L601.428 77.3945C602.002 77.5938 602.43 77.8809 602.711 78.2559C602.992 78.6309 603.133 79.0703 603.133 79.5742C603.133 80.0664 602.992 80.5176 602.711 80.9277C602.441 81.3379 602.061 81.666 601.568 81.9121C601.088 82.1465 600.531 82.2637 599.898 82.2637C599.559 82.2637 599.201 82.2168 598.826 82.123C598.463 82.041 598.135 81.9414 597.842 81.8242C597.549 81.6953 597.332 81.584 597.191 81.4902V79.9434C597.355 80.0605 597.584 80.1953 597.877 80.3477C598.182 80.4883 598.504 80.6113 598.844 80.7168C599.184 80.8105 599.5 80.8574 599.793 80.8574C600.344 80.8574 600.777 80.7344 601.094 80.4883C601.422 80.2422 601.586 79.9375 601.586 79.5742C601.586 79.293 601.475 79.0703 601.252 78.9062C601.041 78.7422 600.73 78.584 600.32 78.4316L599.02 77.957C598.34 77.6992 597.889 77.377 597.666 76.9902C597.443 76.5918 597.332 76.1406 597.332 75.6367C597.332 74.8867 597.613 74.2656 598.176 73.7734C598.738 73.2812 599.488 73.0352 600.426 73.0352ZM608.951 73.0352C609.854 73.0352 610.604 73.2227 611.201 73.5977C611.799 73.9727 612.244 74.4824 612.537 75.127C612.842 75.7715 612.994 76.498 612.994 77.3066V78.168H606.244C606.314 78.6602 606.484 79.1113 606.754 79.5215C607.023 79.9316 607.375 80.2598 607.809 80.5059C608.242 80.7402 608.74 80.8574 609.303 80.8574C609.936 80.8574 610.527 80.6992 611.078 80.3828C611.629 80.0547 612.092 79.6973 612.467 79.3105L612.449 80.875C612.285 81.0742 612.039 81.2852 611.711 81.5078C611.395 81.7188 611.025 81.8945 610.604 82.0352C610.193 82.1875 609.76 82.2637 609.303 82.2637C608.412 82.2637 607.621 82.0527 606.93 81.6309C606.238 81.209 605.693 80.6523 605.295 79.9609C604.908 79.2578 604.715 78.4902 604.715 77.6582C604.715 76.8262 604.896 76.0586 605.26 75.3555C605.623 74.6523 606.121 74.0898 606.754 73.668C607.398 73.2461 608.131 73.0352 608.951 73.0352ZM608.951 74.4414C608.225 74.4414 607.627 74.6875 607.158 75.1797C606.689 75.6602 606.396 76.2461 606.279 76.9375H611.57C611.512 76.3633 611.348 75.8945 611.078 75.5312C610.82 75.168 610.504 74.8984 610.129 74.7227C609.754 74.5352 609.361 74.4414 608.951 74.4414ZM618.988 73.0352C619.492 73.0352 620.002 73.1582 620.518 73.4043C621.045 73.6387 621.496 73.9668 621.871 74.3887V73.2109H623.312V86.2188H621.871V80.5059C621.566 80.9746 621.15 81.3848 620.623 81.7363C620.107 82.0879 619.516 82.2637 618.848 82.2637C618.098 82.2637 617.412 82.0762 616.791 81.7012C616.17 81.3145 615.672 80.7812 615.297 80.1016C614.934 79.4219 614.752 78.6367 614.752 77.7461C614.752 76.7734 614.934 75.9355 615.297 75.2324C615.672 74.5293 616.182 73.9902 616.826 73.6152C617.471 73.2285 618.191 73.0352 618.988 73.0352ZM619.252 74.459C618.619 74.459 618.08 74.6172 617.635 74.9336C617.189 75.2383 616.844 75.6426 616.598 76.1465C616.363 76.6387 616.246 77.1719 616.246 77.7461C616.246 78.3086 616.363 78.8242 616.598 79.293C616.832 79.7617 617.16 80.1367 617.582 80.418C618.016 80.6992 618.514 80.8398 619.076 80.8398C619.615 80.8398 620.096 80.6992 620.518 80.418C620.939 80.1367 621.273 79.75 621.52 79.2578C621.766 78.7656 621.883 78.209 621.871 77.5879L621.854 75.9004C621.49 75.4434 621.098 75.0918 620.676 74.8457C620.266 74.5879 619.791 74.459 619.252 74.459ZM633.49 73.2109V78.4141C633.49 79.1875 633.326 79.8555 632.998 80.418C632.67 80.9805 632.225 81.4141 631.662 81.7188C631.1 82.0234 630.467 82.1758 629.764 82.1758C629.061 82.1758 628.428 82.0234 627.865 81.7188C627.303 81.4141 626.857 80.9805 626.529 80.418C626.201 79.8555 626.037 79.1875 626.037 78.4141V73.2109H627.531V78.4141C627.531 79.1758 627.754 79.7617 628.199 80.1719C628.656 80.5703 629.178 80.7695 629.764 80.7695C630.35 80.7695 630.865 80.5703 631.311 80.1719C631.768 79.7617 631.996 79.1758 631.996 78.4141V73.2109H633.49ZM639.836 73.0352C640.738 73.0352 641.488 73.2227 642.086 73.5977C642.684 73.9727 643.129 74.4824 643.422 75.127C643.727 75.7715 643.879 76.498 643.879 77.3066V78.168H637.129C637.199 78.6602 637.369 79.1113 637.639 79.5215C637.908 79.9316 638.26 80.2598 638.693 80.5059C639.127 80.7402 639.625 80.8574 640.188 80.8574C640.82 80.8574 641.412 80.6992 641.963 80.3828C642.514 80.0547 642.977 79.6973 643.352 79.3105L643.334 80.875C643.17 81.0742 642.924 81.2852 642.596 81.5078C642.279 81.7188 641.91 81.8945 641.488 82.0352C641.078 82.1875 640.645 82.2637 640.188 82.2637C639.297 82.2637 638.506 82.0527 637.814 81.6309C637.123 81.209 636.578 80.6523 636.18 79.9609C635.793 79.2578 635.6 78.4902 635.6 77.6582C635.6 76.8262 635.781 76.0586 636.145 75.3555C636.508 74.6523 637.006 74.0898 637.639 73.668C638.283 73.2461 639.016 73.0352 639.836 73.0352ZM639.836 74.4414C639.109 74.4414 638.512 74.6875 638.043 75.1797C637.574 75.6602 637.281 76.2461 637.164 76.9375H642.455C642.396 76.3633 642.232 75.8945 641.963 75.5312C641.705 75.168 641.389 74.8984 641.014 74.7227C640.639 74.5352 640.246 74.4414 639.836 74.4414ZM647.693 73.2109V74.5996C647.881 74.3652 648.121 74.1309 648.414 73.8965C648.707 73.6504 649.035 73.4453 649.398 73.2812C649.773 73.1172 650.16 73.0352 650.559 73.0352C651.156 73.0352 651.701 73.1699 652.193 73.4395C652.686 73.6973 653.078 74.0957 653.371 74.6348C653.664 75.1621 653.811 75.8301 653.811 76.6387V82H652.369L652.352 76.7793C652.352 76.0176 652.182 75.4375 651.842 75.0391C651.514 74.6406 651.004 74.4414 650.312 74.4414C649.844 74.4414 649.375 74.6172 648.906 74.9688C648.449 75.3086 648.045 75.707 647.693 76.1641V82H646.252V73.2109H647.693ZM658.961 70.6797V73.2109H661.527V74.5645H658.961V79.7148C658.961 80.0781 659.055 80.3652 659.242 80.5762C659.43 80.7871 659.717 80.8926 660.104 80.8926C660.455 80.8926 660.748 80.8516 660.982 80.7695C661.217 80.6758 661.422 80.5762 661.598 80.4707V81.6484C661.363 81.8359 661.111 81.9824 660.842 82.0879C660.584 82.2051 660.232 82.2637 659.787 82.2637C659.037 82.2637 658.469 82.041 658.082 81.5957C657.707 81.1387 657.52 80.5352 657.52 79.7852V74.5645H655.832V74.1426C656.406 73.8848 656.887 73.4629 657.273 72.877C657.66 72.2793 658 71.5469 658.293 70.6797H658.961ZM673.393 73.0352C674.283 73.0352 675.074 73.2461 675.766 73.668C676.457 74.0898 676.996 74.6523 677.383 75.3555C677.781 76.0586 677.98 76.8262 677.98 77.6582C677.98 78.4902 677.781 79.2578 677.383 79.9609C676.996 80.6523 676.457 81.209 675.766 81.6309C675.074 82.0527 674.283 82.2637 673.393 82.2637C672.502 82.2637 671.711 82.0527 671.02 81.6309C670.328 81.209 669.783 80.6523 669.385 79.9609C668.998 79.2578 668.805 78.4902 668.805 77.6582C668.805 76.8262 668.998 76.0586 669.385 75.3555C669.783 74.6523 670.328 74.0898 671.02 73.668C671.711 73.2461 672.502 73.0352 673.393 73.0352ZM673.393 74.4414C672.771 74.4414 672.227 74.5938 671.758 74.8984C671.289 75.1914 670.926 75.584 670.668 76.0762C670.422 76.5566 670.299 77.084 670.299 77.6582C670.299 78.2207 670.422 78.748 670.668 79.2402C670.926 79.7207 671.289 80.1133 671.758 80.418C672.227 80.7109 672.771 80.8574 673.393 80.8574C674.025 80.8574 674.57 80.7109 675.027 80.418C675.496 80.1133 675.854 79.7207 676.1 79.2402C676.357 78.748 676.486 78.2207 676.486 77.6582C676.486 77.084 676.357 76.5566 676.1 76.0762C675.854 75.584 675.496 75.1914 675.027 74.8984C674.57 74.5938 674.025 74.4414 673.393 74.4414ZM681.795 73.2109V74.5996C681.982 74.3652 682.223 74.1309 682.516 73.8965C682.809 73.6504 683.137 73.4453 683.5 73.2812C683.875 73.1172 684.262 73.0352 684.66 73.0352C685.258 73.0352 685.803 73.1699 686.295 73.4395C686.787 73.6973 687.18 74.0957 687.473 74.6348C687.766 75.1621 687.912 75.8301 687.912 76.6387V82H686.471L686.453 76.7793C686.453 76.0176 686.283 75.4375 685.943 75.0391C685.615 74.6406 685.105 74.4414 684.414 74.4414C683.945 74.4414 683.477 74.6172 683.008 74.9688C682.551 75.3086 682.146 75.707 681.795 76.1641V82H680.354V73.2109H681.795ZM694.258 73.0352C695.16 73.0352 695.91 73.2227 696.508 73.5977C697.105 73.9727 697.551 74.4824 697.844 75.127C698.148 75.7715 698.301 76.498 698.301 77.3066V78.168H691.551C691.621 78.6602 691.791 79.1113 692.061 79.5215C692.33 79.9316 692.682 80.2598 693.115 80.5059C693.549 80.7402 694.047 80.8574 694.609 80.8574C695.242 80.8574 695.834 80.6992 696.385 80.3828C696.936 80.0547 697.398 79.6973 697.773 79.3105L697.756 80.875C697.592 81.0742 697.346 81.2852 697.018 81.5078C696.701 81.7188 696.332 81.8945 695.91 82.0352C695.5 82.1875 695.066 82.2637 694.609 82.2637C693.719 82.2637 692.928 82.0527 692.236 81.6309C691.545 81.209 691 80.6523 690.602 79.9609C690.215 79.2578 690.021 78.4902 690.021 77.6582C690.021 76.8262 690.203 76.0586 690.566 75.3555C690.93 74.6523 691.428 74.0898 692.061 73.668C692.705 73.2461 693.438 73.0352 694.258 73.0352ZM694.258 74.4414C693.531 74.4414 692.934 74.6875 692.465 75.1797C691.996 75.6602 691.703 76.2461 691.586 76.9375H696.877C696.818 76.3633 696.654 75.8945 696.385 75.5312C696.127 75.168 695.811 74.8984 695.436 74.7227C695.061 74.5352 694.668 74.4414 694.258 74.4414ZM703.838 69.959C704.541 69.959 705.18 70.1055 705.754 70.3984C706.328 70.6914 706.779 71.0957 707.107 71.6113C707.447 72.127 707.617 72.7188 707.617 73.3867C707.617 73.8203 707.506 74.2129 707.283 74.5645C707.072 74.9043 706.803 75.2148 706.475 75.4961C706.158 75.7773 705.842 76.041 705.525 76.2871C705.209 76.5332 704.945 76.7793 704.734 77.0254C704.523 77.2715 704.424 77.5293 704.436 77.7988L704.453 78.168H702.748V77.4648C702.748 77.207 702.848 76.9609 703.047 76.7266C703.258 76.4805 703.516 76.2402 703.82 76.0059C704.125 75.7598 704.43 75.5137 704.734 75.2676C705.051 75.0098 705.309 74.7461 705.508 74.4766C705.719 74.207 705.824 73.9199 705.824 73.6152C705.824 73.041 705.637 72.5664 705.262 72.1914C704.898 71.8164 704.365 71.6289 703.662 71.6289C702.959 71.6289 702.373 71.7695 701.904 72.0508C701.447 72.3203 701.008 72.7246 700.586 73.2637V71.3477C700.902 70.9609 701.354 70.6328 701.939 70.3633C702.525 70.0938 703.158 69.959 703.838 69.959ZM703.68 79.8555C704.02 79.8555 704.307 79.9785 704.541 80.2246C704.787 80.459 704.91 80.7461 704.91 81.0859C704.91 81.4141 704.787 81.7012 704.541 81.9473C704.307 82.1934 704.02 82.3164 703.68 82.3164C703.34 82.3164 703.047 82.1934 702.801 81.9473C702.566 81.7012 702.449 81.4141 702.449 81.0859C702.449 80.7461 702.566 80.459 702.801 80.2246C703.047 79.9785 703.34 79.8555 703.68 79.8555Z" fill="#1F365D"/>
<path d="M799.668 74.667V66.667H802.335V74.667H810.335V77.3337H802.335V85.3337H799.668V77.3337H791.668V74.667H799.668Z" fill="#1F365D"/>
</g>
<defs>
<filter id="filter0_d_610_7496" x="0" y="0" width="884" height="160" filterUnits="userSpaceOnUse" color-interpolation-filters="sRGB">
<feFlood flood-opacity="0" result="BackgroundImageFix"/>
<feColorMatrix in="SourceAlpha" type="matrix" values="0 0 0 0 0 0 0 0 0 0 0 0 0 0 0 0 0 0 127 0" result="hardAlpha"/>
<feOffset dy="4"/>
<feGaussianBlur stdDeviation="17.5"/>
<feComposite in2="hardAlpha" operator="out"/>
<feColorMatrix type="matrix" values="0 0 0 0 0.920833 0 0 0 0 0.916997 0 0 0 0 0.916997 0 0 0 0.25 0"/>
<feBlend mode="normal" in2="BackgroundImageFix" result="effect1_dropShadow_610_7496"/>
<feBlend mode="normal" in="SourceGraphic" in2="effect1_dropShadow_610_7496" result="shape"/>
</filter>
</defs>
</svg>
