<svg width="884" height="160" viewBox="0 0 884 160" fill="none" xmlns="http://www.w3.org/2000/svg">
<g filter="url(#filter0_d_610_7063)">
<rect x="35" y="31" width="814" height="90" rx="4" fill="white"/>
<path d="M74.084 69.959C74.9395 69.959 75.6367 70.0762 76.1758 70.3105C76.7266 70.5449 77.207 70.8496 77.6172 71.2246V72.9648C77.3594 72.7773 77.0664 72.5723 76.7383 72.3496C76.4219 72.127 76.0469 71.9336 75.6133 71.7695C75.1914 71.5938 74.6816 71.5059 74.084 71.5059C73.2051 71.5059 72.4199 71.7051 71.7285 72.1035C71.0371 72.502 70.4922 73.0527 70.0938 73.7559C69.6953 74.4473 69.4961 75.2324 69.4961 76.1113C69.4961 76.9902 69.6953 77.7754 70.0938 78.4668C70.4922 79.1582 71.0371 79.709 71.7285 80.1191C72.4199 80.5176 73.2051 80.7168 74.084 80.7168C74.9863 80.7168 75.7539 80.5703 76.3867 80.2773C77.0312 79.9727 77.5586 79.6621 77.9688 79.3457V80.9277C77.5586 81.291 77.0195 81.6074 76.3516 81.877C75.6953 82.1348 74.9395 82.2637 74.084 82.2637C73.1934 82.2637 72.373 82.1055 71.623 81.7891C70.873 81.4609 70.2168 81.0156 69.6543 80.4531C69.0918 79.8906 68.6523 79.2402 68.3359 78.502C68.0312 77.752 67.8789 76.9551 67.8789 76.1113C67.8789 75.2676 68.0312 74.4766 68.3359 73.7383C68.6523 72.9883 69.0918 72.332 69.6543 71.7695C70.2168 71.207 70.873 70.7676 71.623 70.4512C72.373 70.123 73.1934 69.959 74.084 69.959ZM83.9629 73.0352C84.4668 73.0352 84.9766 73.1582 85.4922 73.4043C86.0195 73.6387 86.4707 73.9668 86.8457 74.3887V73.2109H88.2871V82H86.8457V80.5059C86.541 80.9746 86.125 81.3848 85.5977 81.7363C85.082 82.0879 84.4902 82.2637 83.8223 82.2637C83.0723 82.2637 82.3867 82.0762 81.7656 81.7012C81.1445 81.3145 80.6465 80.7812 80.2715 80.1016C79.9082 79.4219 79.7266 78.6367 79.7266 77.7461C79.7266 76.7734 79.9082 75.9355 80.2715 75.2324C80.6465 74.5293 81.1562 73.9902 81.8008 73.6152C82.4453 73.2285 83.166 73.0352 83.9629 73.0352ZM84.2266 74.4414C83.5938 74.4414 83.0547 74.5996 82.6094 74.916C82.1641 75.2324 81.8184 75.6426 81.5723 76.1465C81.3379 76.6387 81.2207 77.1719 81.2207 77.7461C81.2207 78.3086 81.3379 78.8301 81.5723 79.3105C81.8066 79.7793 82.1348 80.1543 82.5566 80.4355C82.9902 80.7168 83.4883 80.8574 84.0508 80.8574C84.5898 80.8574 85.0703 80.7168 85.4922 80.4355C85.9141 80.1543 86.248 79.7676 86.4941 79.2754C86.7402 78.7715 86.8574 78.209 86.8457 77.5879L86.8281 75.9004C86.4648 75.4434 86.0723 75.0859 85.6504 74.8281C85.2402 74.5703 84.7656 74.4414 84.2266 74.4414ZM92.7168 73.2109V74.5996C92.9043 74.3652 93.1445 74.1309 93.4375 73.8965C93.7305 73.6504 94.0586 73.4453 94.4219 73.2812C94.7969 73.1172 95.1836 73.0352 95.582 73.0352C96.1797 73.0352 96.7246 73.1699 97.2168 73.4395C97.709 73.6973 98.1016 74.0957 98.3945 74.6348C98.6875 75.1621 98.834 75.8301 98.834 76.6387V82H97.3926L97.375 76.7793C97.375 76.0176 97.2051 75.4375 96.8652 75.0391C96.5371 74.6406 96.0273 74.4414 95.3359 74.4414C94.8672 74.4414 94.3984 74.6172 93.9297 74.9688C93.4727 75.3086 93.0684 75.707 92.7168 76.1641V82H91.2754V73.2109H92.7168ZM112.826 80.5059V82H107.271V80.5059H109.258V71.7168H107.271V70.2227H112.826V71.7168H110.84V80.5059H112.826ZM125.148 73.0352C126.051 73.0352 126.801 73.2227 127.398 73.5977C127.996 73.9727 128.441 74.4824 128.734 75.127C129.039 75.7715 129.191 76.498 129.191 77.3066V78.168H122.441C122.512 78.6602 122.682 79.1113 122.951 79.5215C123.221 79.9316 123.572 80.2598 124.006 80.5059C124.439 80.7402 124.938 80.8574 125.5 80.8574C126.133 80.8574 126.725 80.6992 127.275 80.3828C127.826 80.0547 128.289 79.6973 128.664 79.3105L128.646 80.875C128.482 81.0742 128.236 81.2852 127.908 81.5078C127.592 81.7188 127.223 81.8945 126.801 82.0352C126.391 82.1875 125.957 82.2637 125.5 82.2637C124.609 82.2637 123.818 82.0527 123.127 81.6309C122.436 81.209 121.891 80.6523 121.492 79.9609C121.105 79.2578 120.912 78.4902 120.912 77.6582C120.912 76.8262 121.094 76.0586 121.457 75.3555C121.82 74.6523 122.318 74.0898 122.951 73.668C123.596 73.2461 124.328 73.0352 125.148 73.0352ZM125.148 74.4414C124.422 74.4414 123.824 74.6875 123.355 75.1797C122.887 75.6602 122.594 76.2461 122.477 76.9375H127.768C127.709 76.3633 127.545 75.8945 127.275 75.5312C127.018 75.168 126.701 74.8984 126.326 74.7227C125.951 74.5352 125.559 74.4414 125.148 74.4414ZM139.123 73.2109L135.484 77.4297L139.176 82H137.312L134.588 78.3613L131.846 82H129.982L133.674 77.4297L130.035 73.2109H131.898L134.588 76.375L137.26 73.2109H139.123ZM145.398 73.0352C146.16 73.0352 146.846 73.2227 147.455 73.5977C148.076 73.9609 148.568 74.4766 148.932 75.1445C149.307 75.8008 149.494 76.5742 149.494 77.4648C149.494 78.4258 149.307 79.2695 148.932 79.9961C148.568 80.7109 148.064 81.2676 147.42 81.666C146.787 82.0645 146.066 82.2637 145.258 82.2637C144.754 82.2637 144.238 82.1289 143.711 81.8594C143.195 81.5898 142.75 81.2441 142.375 80.8223V86.2188H140.934V73.2109H142.375V74.7051C142.68 74.2363 143.09 73.8438 143.605 73.5273C144.133 73.1992 144.73 73.0352 145.398 73.0352ZM145.17 74.4414C144.643 74.4414 144.162 74.5762 143.729 74.8457C143.307 75.1152 142.973 75.4902 142.727 75.9707C142.492 76.4395 142.375 76.9902 142.375 77.623L142.393 79.3105C142.768 79.7676 143.16 80.1426 143.57 80.4355C143.98 80.7168 144.455 80.8574 144.994 80.8574C145.627 80.8574 146.166 80.6934 146.611 80.3652C147.057 80.0371 147.396 79.6152 147.631 79.0996C147.877 78.5723 148 78.0273 148 77.4648C148 76.8906 147.883 76.3809 147.648 75.9355C147.414 75.4785 147.086 75.1152 146.664 74.8457C146.242 74.5762 145.744 74.4414 145.17 74.4414ZM155.84 73.0352C156.73 73.0352 157.521 73.2461 158.213 73.668C158.904 74.0898 159.443 74.6523 159.83 75.3555C160.229 76.0586 160.428 76.8262 160.428 77.6582C160.428 78.4902 160.229 79.2578 159.83 79.9609C159.443 80.6523 158.904 81.209 158.213 81.6309C157.521 82.0527 156.73 82.2637 155.84 82.2637C154.949 82.2637 154.158 82.0527 153.467 81.6309C152.775 81.209 152.23 80.6523 151.832 79.9609C151.445 79.2578 151.252 78.4902 151.252 77.6582C151.252 76.8262 151.445 76.0586 151.832 75.3555C152.23 74.6523 152.775 74.0898 153.467 73.668C154.158 73.2461 154.949 73.0352 155.84 73.0352ZM155.84 74.4414C155.219 74.4414 154.674 74.5938 154.205 74.8984C153.736 75.1914 153.373 75.584 153.115 76.0762C152.869 76.5566 152.746 77.084 152.746 77.6582C152.746 78.2207 152.869 78.748 153.115 79.2402C153.373 79.7207 153.736 80.1133 154.205 80.418C154.674 80.7109 155.219 80.8574 155.84 80.8574C156.473 80.8574 157.018 80.7109 157.475 80.418C157.943 80.1133 158.301 79.7207 158.547 79.2402C158.805 78.748 158.934 78.2207 158.934 77.6582C158.934 77.084 158.805 76.5566 158.547 76.0762C158.301 75.584 157.943 75.1914 157.475 74.8984C157.018 74.5938 156.473 74.4414 155.84 74.4414ZM164.242 73.2109V74.9688C164.582 74.3828 164.992 73.9141 165.473 73.5625C165.953 73.2109 166.445 73.0352 166.949 73.0352C167.289 73.0352 167.594 73.0938 167.863 73.2109V74.8809C167.488 74.6582 167.113 74.5469 166.738 74.5469C166.141 74.5469 165.654 74.7578 165.279 75.1797C164.916 75.6016 164.57 76.1055 164.242 76.6914V82H162.801V73.2109H164.242ZM172.135 70.6797V73.2109H174.701V74.5645H172.135V79.7148C172.135 80.0781 172.229 80.3652 172.416 80.5762C172.604 80.7871 172.891 80.8926 173.277 80.8926C173.629 80.8926 173.922 80.8516 174.156 80.7695C174.391 80.6758 174.596 80.5762 174.771 80.4707V81.6484C174.537 81.8359 174.285 81.9824 174.016 82.0879C173.758 82.2051 173.406 82.2637 172.961 82.2637C172.211 82.2637 171.643 82.041 171.256 81.5957C170.881 81.1387 170.693 80.5352 170.693 79.7852V74.5645H169.006V74.1426C169.58 73.8848 170.061 73.4629 170.447 72.877C170.834 72.2793 171.174 71.5469 171.467 70.6797H172.135ZM184.035 73.2109V74.3359C184.316 74.0195 184.674 73.7266 185.107 73.457C185.553 73.1758 186.074 73.0352 186.672 73.0352C187.305 73.0352 187.896 73.1875 188.447 73.4922C188.998 73.7852 189.42 74.2305 189.713 74.8281C190.123 74.3359 190.568 73.9141 191.049 73.5625C191.529 73.2109 192.092 73.0352 192.736 73.0352C193.334 73.0352 193.891 73.1699 194.406 73.4395C194.934 73.6973 195.355 74.0957 195.672 74.6348C196 75.1621 196.164 75.8301 196.164 76.6387V82H194.723L194.705 76.7793C194.705 76.0176 194.506 75.4375 194.107 75.0391C193.721 74.6406 193.182 74.4414 192.49 74.4414C191.986 74.4414 191.547 74.5996 191.172 74.916C190.797 75.2324 190.439 75.6016 190.1 76.0234V82H188.658L188.641 76.7793C188.641 76.0176 188.441 75.4375 188.043 75.0391C187.656 74.6406 187.117 74.4414 186.426 74.4414C185.945 74.4414 185.506 74.582 185.107 74.8633C184.721 75.1445 184.363 75.4844 184.035 75.8828V82H182.594V73.2109H184.035ZM199.381 73.2109L202.457 79.6797L205.445 73.2109H207.168L200.699 86.2188H199.029L201.543 81.4727L197.658 73.2109H199.381ZM218.172 73.0352C218.816 73.0352 219.373 73.1406 219.842 73.3516C220.311 73.5508 220.633 73.7324 220.809 73.8965V75.3555C220.48 75.1094 220.105 74.8984 219.684 74.7227C219.262 74.5352 218.758 74.4414 218.172 74.4414C217.551 74.4414 217.006 74.5938 216.537 74.8984C216.068 75.1914 215.705 75.584 215.447 76.0762C215.201 76.5566 215.078 77.084 215.078 77.6582C215.078 78.2207 215.201 78.748 215.447 79.2402C215.705 79.7207 216.068 80.1133 216.537 80.418C217.006 80.7109 217.551 80.8574 218.172 80.8574C218.758 80.8574 219.262 80.7695 219.684 80.5938C220.105 80.4062 220.48 80.1895 220.809 79.9434V81.4023C220.633 81.5781 220.311 81.7656 219.842 81.9648C219.373 82.1641 218.816 82.2637 218.172 82.2637C217.281 82.2637 216.49 82.0527 215.799 81.6309C215.107 81.209 214.562 80.6523 214.164 79.9609C213.777 79.2578 213.584 78.4902 213.584 77.6582C213.584 76.8262 213.777 76.0586 214.164 75.3555C214.562 74.6523 215.107 74.0898 215.799 73.668C216.49 73.2461 217.281 73.0352 218.172 73.0352ZM226.803 73.0352C227.705 73.0352 228.455 73.2227 229.053 73.5977C229.65 73.9727 230.096 74.4824 230.389 75.127C230.693 75.7715 230.846 76.498 230.846 77.3066V78.168H224.096C224.166 78.6602 224.336 79.1113 224.605 79.5215C224.875 79.9316 225.227 80.2598 225.66 80.5059C226.094 80.7402 226.592 80.8574 227.154 80.8574C227.787 80.8574 228.379 80.6992 228.93 80.3828C229.48 80.0547 229.943 79.6973 230.318 79.3105L230.301 80.875C230.137 81.0742 229.891 81.2852 229.562 81.5078C229.246 81.7188 228.877 81.8945 228.455 82.0352C228.045 82.1875 227.611 82.2637 227.154 82.2637C226.264 82.2637 225.473 82.0527 224.781 81.6309C224.09 81.209 223.545 80.6523 223.146 79.9609C222.76 79.2578 222.566 78.4902 222.566 77.6582C222.566 76.8262 222.748 76.0586 223.111 75.3555C223.475 74.6523 223.973 74.0898 224.605 73.668C225.25 73.2461 225.982 73.0352 226.803 73.0352ZM226.803 74.4414C226.076 74.4414 225.479 74.6875 225.01 75.1797C224.541 75.6602 224.248 76.2461 224.131 76.9375H229.422C229.363 76.3633 229.199 75.8945 228.93 75.5312C228.672 75.168 228.355 74.8984 227.98 74.7227C227.605 74.5352 227.213 74.4414 226.803 74.4414ZM234.66 73.2109V74.9688C235 74.3828 235.41 73.9141 235.891 73.5625C236.371 73.2109 236.863 73.0352 237.367 73.0352C237.707 73.0352 238.012 73.0938 238.281 73.2109V74.8809C237.906 74.6582 237.531 74.5469 237.156 74.5469C236.559 74.5469 236.072 74.7578 235.697 75.1797C235.334 75.6016 234.988 76.1055 234.66 76.6914V82H233.219V73.2109H234.66ZM242.553 70.6797V73.2109H245.119V74.5645H242.553V79.7148C242.553 80.0781 242.646 80.3652 242.834 80.5762C243.021 80.7871 243.309 80.8926 243.695 80.8926C244.047 80.8926 244.34 80.8516 244.574 80.7695C244.809 80.6758 245.014 80.5762 245.189 80.4707V81.6484C244.955 81.8359 244.703 81.9824 244.434 82.0879C244.176 82.2051 243.824 82.2637 243.379 82.2637C242.629 82.2637 242.061 82.041 241.674 81.5957C241.299 81.1387 241.111 80.5352 241.111 79.7852V74.5645H239.424V74.1426C239.998 73.8848 240.479 73.4629 240.865 72.877C241.252 72.2793 241.592 71.5469 241.885 70.6797H242.553ZM249.145 68.9922C249.484 68.9922 249.766 69.1152 249.988 69.3613C250.223 69.5957 250.34 69.8711 250.34 70.1875C250.34 70.4922 250.223 70.7676 249.988 71.0137C249.766 71.2598 249.484 71.3828 249.145 71.3828C248.805 71.3828 248.518 71.2598 248.283 71.0137C248.061 70.7676 247.949 70.4922 247.949 70.1875C247.949 69.8711 248.061 69.5957 248.283 69.3613C248.518 69.1152 248.805 68.9922 249.145 68.9922ZM250.041 73.2109V82H248.6V74.5645H247.211V73.2109H250.041ZM257.705 73.2109V74.5645H255.139V82H253.697V74.5645H252.309V73.2109H253.697V72.0859C253.697 71.3945 253.832 70.832 254.102 70.3984C254.371 69.9531 254.717 69.625 255.139 69.4141C255.561 69.1914 255.988 69.0801 256.422 69.0801C257.02 69.0801 257.506 69.2383 257.881 69.5547V70.8203C257.705 70.7031 257.494 70.6094 257.248 70.5391C257.002 70.4688 256.756 70.4395 256.51 70.4512C256.076 70.4629 255.736 70.6035 255.49 70.873C255.256 71.1309 255.139 71.5879 255.139 72.2441V73.2109H257.705ZM261.027 68.9922C261.367 68.9922 261.648 69.1152 261.871 69.3613C262.105 69.5957 262.223 69.8711 262.223 70.1875C262.223 70.4922 262.105 70.7676 261.871 71.0137C261.648 71.2598 261.367 71.3828 261.027 71.3828C260.688 71.3828 260.4 71.2598 260.166 71.0137C259.943 70.7676 259.832 70.4922 259.832 70.1875C259.832 69.8711 259.943 69.5957 260.166 69.3613C260.4 69.1152 260.688 68.9922 261.027 68.9922ZM261.924 73.2109V82H260.482V74.5645H259.094V73.2109H261.924ZM269.008 73.0352C269.652 73.0352 270.209 73.1406 270.678 73.3516C271.146 73.5508 271.469 73.7324 271.645 73.8965V75.3555C271.316 75.1094 270.941 74.8984 270.52 74.7227C270.098 74.5352 269.594 74.4414 269.008 74.4414C268.387 74.4414 267.842 74.5938 267.373 74.8984C266.904 75.1914 266.541 75.584 266.283 76.0762C266.037 76.5566 265.914 77.084 265.914 77.6582C265.914 78.2207 266.037 78.748 266.283 79.2402C266.541 79.7207 266.904 80.1133 267.373 80.418C267.842 80.7109 268.387 80.8574 269.008 80.8574C269.594 80.8574 270.098 80.7695 270.52 80.5938C270.941 80.4062 271.316 80.1895 271.645 79.9434V81.4023C271.469 81.5781 271.146 81.7656 270.678 81.9648C270.209 82.1641 269.652 82.2637 269.008 82.2637C268.117 82.2637 267.326 82.0527 266.635 81.6309C265.943 81.209 265.398 80.6523 265 79.9609C264.613 79.2578 264.42 78.4902 264.42 77.6582C264.42 76.8262 264.613 76.0586 265 75.3555C265.398 74.6523 265.943 74.0898 266.635 73.668C267.326 73.2461 268.117 73.0352 269.008 73.0352ZM277.639 73.0352C278.143 73.0352 278.652 73.1582 279.168 73.4043C279.695 73.6387 280.146 73.9668 280.521 74.3887V73.2109H281.963V82H280.521V80.5059C280.217 80.9746 279.801 81.3848 279.273 81.7363C278.758 82.0879 278.166 82.2637 277.498 82.2637C276.748 82.2637 276.062 82.0762 275.441 81.7012C274.82 81.3145 274.322 80.7812 273.947 80.1016C273.584 79.4219 273.402 78.6367 273.402 77.7461C273.402 76.7734 273.584 75.9355 273.947 75.2324C274.322 74.5293 274.832 73.9902 275.477 73.6152C276.121 73.2285 276.842 73.0352 277.639 73.0352ZM277.902 74.4414C277.27 74.4414 276.73 74.5996 276.285 74.916C275.84 75.2324 275.494 75.6426 275.248 76.1465C275.014 76.6387 274.896 77.1719 274.896 77.7461C274.896 78.3086 275.014 78.8301 275.248 79.3105C275.482 79.7793 275.811 80.1543 276.232 80.4355C276.666 80.7168 277.164 80.8574 277.727 80.8574C278.266 80.8574 278.746 80.7168 279.168 80.4355C279.59 80.1543 279.924 79.7676 280.17 79.2754C280.416 78.7715 280.533 78.209 280.521 77.5879L280.504 75.9004C280.141 75.4434 279.748 75.0859 279.326 74.8281C278.916 74.5703 278.441 74.4414 277.902 74.4414ZM287.377 70.6797V73.2109H289.943V74.5645H287.377V79.7148C287.377 80.0781 287.471 80.3652 287.658 80.5762C287.846 80.7871 288.133 80.8926 288.52 80.8926C288.871 80.8926 289.164 80.8516 289.398 80.7695C289.633 80.6758 289.838 80.5762 290.014 80.4707V81.6484C289.779 81.8359 289.527 81.9824 289.258 82.0879C289 82.2051 288.648 82.2637 288.203 82.2637C287.453 82.2637 286.885 82.041 286.498 81.5957C286.123 81.1387 285.936 80.5352 285.936 79.7852V74.5645H284.248V74.1426C284.822 73.8848 285.303 73.4629 285.689 72.877C286.076 72.2793 286.416 71.5469 286.709 70.6797H287.377ZM296.184 73.0352C297.086 73.0352 297.836 73.2227 298.434 73.5977C299.031 73.9727 299.477 74.4824 299.77 75.127C300.074 75.7715 300.227 76.498 300.227 77.3066V78.168H293.477C293.547 78.6602 293.717 79.1113 293.986 79.5215C294.256 79.9316 294.607 80.2598 295.041 80.5059C295.475 80.7402 295.973 80.8574 296.535 80.8574C297.168 80.8574 297.76 80.6992 298.311 80.3828C298.861 80.0547 299.324 79.6973 299.699 79.3105L299.682 80.875C299.518 81.0742 299.271 81.2852 298.943 81.5078C298.627 81.7188 298.258 81.8945 297.836 82.0352C297.426 82.1875 296.992 82.2637 296.535 82.2637C295.645 82.2637 294.854 82.0527 294.162 81.6309C293.471 81.209 292.926 80.6523 292.527 79.9609C292.141 79.2578 291.947 78.4902 291.947 77.6582C291.947 76.8262 292.129 76.0586 292.492 75.3555C292.855 74.6523 293.354 74.0898 293.986 73.668C294.631 73.2461 295.363 73.0352 296.184 73.0352ZM296.184 74.4414C295.457 74.4414 294.859 74.6875 294.391 75.1797C293.922 75.6602 293.629 76.2461 293.512 76.9375H298.803C298.744 76.3633 298.58 75.8945 298.311 75.5312C298.053 75.168 297.736 74.8984 297.361 74.7227C296.986 74.5352 296.594 74.4414 296.184 74.4414ZM315.818 69.3438V82H314.377V80.5059C314.072 80.9746 313.656 81.3848 313.129 81.7363C312.613 82.0879 312.021 82.2637 311.354 82.2637C310.604 82.2637 309.918 82.0762 309.297 81.7012C308.676 81.3145 308.178 80.7812 307.803 80.1016C307.439 79.4219 307.258 78.6367 307.258 77.7461C307.258 76.7734 307.439 75.9355 307.803 75.2324C308.178 74.5293 308.688 73.9902 309.332 73.6152C309.977 73.2285 310.697 73.0352 311.494 73.0352C311.998 73.0352 312.508 73.1582 313.023 73.4043C313.551 73.6387 314.002 73.9668 314.377 74.3887V69.3438H315.818ZM311.758 74.4766C311.125 74.4766 310.586 74.6348 310.141 74.9512C309.695 75.2559 309.35 75.6543 309.104 76.1465C308.869 76.6387 308.752 77.1719 308.752 77.7461C308.752 78.3086 308.869 78.8301 309.104 79.3105C309.338 79.7793 309.666 80.1543 310.088 80.4355C310.521 80.7168 311.02 80.8574 311.582 80.8574C312.121 80.8574 312.602 80.7168 313.023 80.4355C313.445 80.1543 313.779 79.7676 314.025 79.2754C314.271 78.7715 314.389 78.209 314.377 77.5879L314.359 75.9004C313.996 75.4434 313.604 75.0918 313.182 74.8457C312.771 74.5996 312.297 74.4766 311.758 74.4766ZM320.213 68.9922C320.553 68.9922 320.834 69.1152 321.057 69.3613C321.291 69.5957 321.408 69.8711 321.408 70.1875C321.408 70.4922 321.291 70.7676 321.057 71.0137C320.834 71.2598 320.553 71.3828 320.213 71.3828C319.873 71.3828 319.586 71.2598 319.352 71.0137C319.129 70.7676 319.018 70.4922 319.018 70.1875C319.018 69.8711 319.129 69.5957 319.352 69.3613C319.586 69.1152 319.873 68.9922 320.213 68.9922ZM321.109 73.2109V82H319.668V74.5645H318.279V73.2109H321.109ZM325.662 73.2109V74.9688C326.002 74.3828 326.412 73.9141 326.893 73.5625C327.373 73.2109 327.865 73.0352 328.369 73.0352C328.709 73.0352 329.014 73.0938 329.283 73.2109V74.8809C328.908 74.6582 328.533 74.5469 328.158 74.5469C327.561 74.5469 327.074 74.7578 326.699 75.1797C326.336 75.6016 325.99 76.1055 325.662 76.6914V82H324.221V73.2109H325.662ZM334.75 73.0352C335.652 73.0352 336.402 73.2227 337 73.5977C337.598 73.9727 338.043 74.4824 338.336 75.127C338.641 75.7715 338.793 76.498 338.793 77.3066V78.168H332.043C332.113 78.6602 332.283 79.1113 332.553 79.5215C332.822 79.9316 333.174 80.2598 333.607 80.5059C334.041 80.7402 334.539 80.8574 335.102 80.8574C335.734 80.8574 336.326 80.6992 336.877 80.3828C337.428 80.0547 337.891 79.6973 338.266 79.3105L338.248 80.875C338.084 81.0742 337.838 81.2852 337.51 81.5078C337.193 81.7188 336.824 81.8945 336.402 82.0352C335.992 82.1875 335.559 82.2637 335.102 82.2637C334.211 82.2637 333.42 82.0527 332.729 81.6309C332.037 81.209 331.492 80.6523 331.094 79.9609C330.707 79.2578 330.514 78.4902 330.514 77.6582C330.514 76.8262 330.695 76.0586 331.059 75.3555C331.422 74.6523 331.92 74.0898 332.553 73.668C333.197 73.2461 333.93 73.0352 334.75 73.0352ZM334.75 74.4414C334.023 74.4414 333.426 74.6875 332.957 75.1797C332.488 75.6602 332.195 76.2461 332.078 76.9375H337.369C337.311 76.3633 337.146 75.8945 336.877 75.5312C336.619 75.168 336.303 74.8984 335.928 74.7227C335.553 74.5352 335.16 74.4414 334.75 74.4414ZM345.139 73.0352C345.783 73.0352 346.34 73.1406 346.809 73.3516C347.277 73.5508 347.6 73.7324 347.775 73.8965V75.3555C347.447 75.1094 347.072 74.8984 346.65 74.7227C346.229 74.5352 345.725 74.4414 345.139 74.4414C344.518 74.4414 343.973 74.5938 343.504 74.8984C343.035 75.1914 342.672 75.584 342.414 76.0762C342.168 76.5566 342.045 77.084 342.045 77.6582C342.045 78.2207 342.168 78.748 342.414 79.2402C342.672 79.7207 343.035 80.1133 343.504 80.418C343.973 80.7109 344.518 80.8574 345.139 80.8574C345.725 80.8574 346.229 80.7695 346.65 80.5938C347.072 80.4062 347.447 80.1895 347.775 79.9434V81.4023C347.6 81.5781 347.277 81.7656 346.809 81.9648C346.34 82.1641 345.783 82.2637 345.139 82.2637C344.248 82.2637 343.457 82.0527 342.766 81.6309C342.074 81.209 341.529 80.6523 341.131 79.9609C340.744 79.2578 340.551 78.4902 340.551 77.6582C340.551 76.8262 340.744 76.0586 341.131 75.3555C341.529 74.6523 342.074 74.0898 342.766 73.668C343.457 73.2461 344.248 73.0352 345.139 73.0352ZM352.574 70.6797V73.2109H355.141V74.5645H352.574V79.7148C352.574 80.0781 352.668 80.3652 352.855 80.5762C353.043 80.7871 353.33 80.8926 353.717 80.8926C354.068 80.8926 354.361 80.8516 354.596 80.7695C354.83 80.6758 355.035 80.5762 355.211 80.4707V81.6484C354.977 81.8359 354.725 81.9824 354.455 82.0879C354.197 82.2051 353.846 82.2637 353.4 82.2637C352.65 82.2637 352.082 82.041 351.695 81.5957C351.32 81.1387 351.133 80.5352 351.133 79.7852V74.5645H349.445V74.1426C350.02 73.8848 350.5 73.4629 350.887 72.877C351.273 72.2793 351.613 71.5469 351.906 70.6797H352.574ZM359.201 69.3438V82H357.76V69.3438H359.201ZM362.682 73.2109L365.758 79.6797L368.746 73.2109H370.469L364 86.2188H362.33L364.844 81.4727L360.959 73.2109H362.682ZM379.926 70.6797V73.2109H382.492V74.5645H379.926V79.7148C379.926 80.0781 380.02 80.3652 380.207 80.5762C380.395 80.7871 380.682 80.8926 381.068 80.8926C381.42 80.8926 381.713 80.8516 381.947 80.7695C382.182 80.6758 382.387 80.5762 382.562 80.4707V81.6484C382.328 81.8359 382.076 81.9824 381.807 82.0879C381.549 82.2051 381.197 82.2637 380.752 82.2637C380.002 82.2637 379.434 82.041 379.047 81.5957C378.672 81.1387 378.484 80.5352 378.484 79.7852V74.5645H376.797V74.1426C377.371 73.8848 377.852 73.4629 378.238 72.877C378.625 72.2793 378.965 71.5469 379.258 70.6797H379.926ZM389.084 73.0352C389.975 73.0352 390.766 73.2461 391.457 73.668C392.148 74.0898 392.688 74.6523 393.074 75.3555C393.473 76.0586 393.672 76.8262 393.672 77.6582C393.672 78.4902 393.473 79.2578 393.074 79.9609C392.688 80.6523 392.148 81.209 391.457 81.6309C390.766 82.0527 389.975 82.2637 389.084 82.2637C388.193 82.2637 387.402 82.0527 386.711 81.6309C386.02 81.209 385.475 80.6523 385.076 79.9609C384.689 79.2578 384.496 78.4902 384.496 77.6582C384.496 76.8262 384.689 76.0586 385.076 75.3555C385.475 74.6523 386.02 74.0898 386.711 73.668C387.402 73.2461 388.193 73.0352 389.084 73.0352ZM389.084 74.4414C388.463 74.4414 387.918 74.5938 387.449 74.8984C386.98 75.1914 386.617 75.584 386.359 76.0762C386.113 76.5566 385.99 77.084 385.99 77.6582C385.99 78.2207 386.113 78.748 386.359 79.2402C386.617 79.7207 386.98 80.1133 387.449 80.418C387.918 80.7109 388.463 80.8574 389.084 80.8574C389.717 80.8574 390.262 80.7109 390.719 80.418C391.188 80.1133 391.545 79.7207 391.791 79.2402C392.049 78.748 392.178 78.2207 392.178 77.6582C392.178 77.084 392.049 76.5566 391.791 76.0762C391.545 75.584 391.188 75.1914 390.719 74.8984C390.262 74.5938 389.717 74.4414 389.084 74.4414ZM402.76 73.2109V74.3359C403.041 74.0195 403.398 73.7266 403.832 73.457C404.277 73.1758 404.799 73.0352 405.396 73.0352C406.029 73.0352 406.621 73.1875 407.172 73.4922C407.723 73.7852 408.145 74.2305 408.438 74.8281C408.848 74.3359 409.293 73.9141 409.773 73.5625C410.254 73.2109 410.816 73.0352 411.461 73.0352C412.059 73.0352 412.615 73.1699 413.131 73.4395C413.658 73.6973 414.08 74.0957 414.396 74.6348C414.725 75.1621 414.889 75.8301 414.889 76.6387V82H413.447L413.43 76.7793C413.43 76.0176 413.23 75.4375 412.832 75.0391C412.445 74.6406 411.906 74.4414 411.215 74.4414C410.711 74.4414 410.271 74.5996 409.896 74.916C409.521 75.2324 409.164 75.6016 408.824 76.0234V82H407.383L407.365 76.7793C407.365 76.0176 407.166 75.4375 406.768 75.0391C406.381 74.6406 405.842 74.4414 405.15 74.4414C404.67 74.4414 404.23 74.582 403.832 74.8633C403.445 75.1445 403.088 75.4844 402.76 75.8828V82H401.318V73.2109H402.76ZM418.105 73.2109L421.182 79.6797L424.17 73.2109H425.893L419.424 86.2188H417.754L420.268 81.4727L416.383 73.2109H418.105ZM434.945 70.2227V80.5059H441.432V82H433.363V70.2227H434.945ZM445.51 68.9922C445.85 68.9922 446.131 69.1152 446.354 69.3613C446.588 69.5957 446.705 69.8711 446.705 70.1875C446.705 70.4922 446.588 70.7676 446.354 71.0137C446.131 71.2598 445.85 71.3828 445.51 71.3828C445.17 71.3828 444.883 71.2598 444.648 71.0137C444.426 70.7676 444.314 70.4922 444.314 70.1875C444.314 69.8711 444.426 69.5957 444.648 69.3613C444.883 69.1152 445.17 68.9922 445.51 68.9922ZM446.406 73.2109V82H444.965V74.5645H443.576V73.2109H446.406ZM450.959 73.2109V74.5996C451.146 74.3652 451.387 74.1309 451.68 73.8965C451.973 73.6504 452.301 73.4453 452.664 73.2812C453.039 73.1172 453.426 73.0352 453.824 73.0352C454.422 73.0352 454.967 73.1699 455.459 73.4395C455.951 73.6973 456.344 74.0957 456.637 74.6348C456.93 75.1621 457.076 75.8301 457.076 76.6387V82H455.635L455.617 76.7793C455.617 76.0176 455.447 75.4375 455.107 75.0391C454.779 74.6406 454.27 74.4414 453.578 74.4414C453.109 74.4414 452.641 74.6172 452.172 74.9688C451.715 75.3086 451.311 75.707 450.959 76.1641V82H449.518V73.2109H450.959ZM467.57 73.2109L463.492 77.043L467.799 82H465.971L462.49 77.9922L461.242 79.1523V82H459.801V69.3438H461.242V77.5L465.619 73.2109H467.57ZM472.475 73.0352C473.377 73.0352 474.127 73.2227 474.725 73.5977C475.322 73.9727 475.768 74.4824 476.061 75.127C476.365 75.7715 476.518 76.498 476.518 77.3066V78.168H469.768C469.838 78.6602 470.008 79.1113 470.277 79.5215C470.547 79.9316 470.898 80.2598 471.332 80.5059C471.766 80.7402 472.264 80.8574 472.826 80.8574C473.459 80.8574 474.051 80.6992 474.602 80.3828C475.152 80.0547 475.615 79.6973 475.99 79.3105L475.973 80.875C475.809 81.0742 475.562 81.2852 475.234 81.5078C474.918 81.7188 474.549 81.8945 474.127 82.0352C473.717 82.1875 473.283 82.2637 472.826 82.2637C471.936 82.2637 471.145 82.0527 470.453 81.6309C469.762 81.209 469.217 80.6523 468.818 79.9609C468.432 79.2578 468.238 78.4902 468.238 77.6582C468.238 76.8262 468.42 76.0586 468.783 75.3555C469.146 74.6523 469.645 74.0898 470.277 73.668C470.922 73.2461 471.654 73.0352 472.475 73.0352ZM472.475 74.4414C471.748 74.4414 471.15 74.6875 470.682 75.1797C470.213 75.6602 469.92 76.2461 469.803 76.9375H475.094C475.035 76.3633 474.871 75.8945 474.602 75.5312C474.344 75.168 474.027 74.8984 473.652 74.7227C473.277 74.5352 472.885 74.4414 472.475 74.4414ZM486.836 69.3438V82H485.395V80.5059C485.09 80.9746 484.674 81.3848 484.146 81.7363C483.631 82.0879 483.039 82.2637 482.371 82.2637C481.621 82.2637 480.936 82.0762 480.314 81.7012C479.693 81.3145 479.195 80.7812 478.82 80.1016C478.457 79.4219 478.275 78.6367 478.275 77.7461C478.275 76.7734 478.457 75.9355 478.82 75.2324C479.195 74.5293 479.705 73.9902 480.35 73.6152C480.994 73.2285 481.715 73.0352 482.512 73.0352C483.016 73.0352 483.525 73.1582 484.041 73.4043C484.568 73.6387 485.02 73.9668 485.395 74.3887V69.3438H486.836ZM482.775 74.4766C482.143 74.4766 481.604 74.6348 481.158 74.9512C480.713 75.2559 480.367 75.6543 480.121 76.1465C479.887 76.6387 479.77 77.1719 479.77 77.7461C479.77 78.3086 479.887 78.8301 480.121 79.3105C480.355 79.7793 480.684 80.1543 481.105 80.4355C481.539 80.7168 482.037 80.8574 482.6 80.8574C483.139 80.8574 483.619 80.7168 484.041 80.4355C484.463 80.1543 484.797 79.7676 485.043 79.2754C485.289 78.7715 485.406 78.209 485.395 77.5879L485.377 75.9004C485.014 75.4434 484.621 75.0918 484.199 74.8457C483.789 74.5996 483.314 74.4766 482.775 74.4766ZM495.818 80.5059V82H490.264V80.5059H492.25V71.7168H490.264V70.2227H495.818V71.7168H493.832V80.5059H495.818ZM500.688 73.2109V74.5996C500.875 74.3652 501.115 74.1309 501.408 73.8965C501.701 73.6504 502.029 73.4453 502.393 73.2812C502.768 73.1172 503.154 73.0352 503.553 73.0352C504.15 73.0352 504.695 73.1699 505.188 73.4395C505.68 73.6973 506.072 74.0957 506.365 74.6348C506.658 75.1621 506.805 75.8301 506.805 76.6387V82H505.363L505.346 76.7793C505.346 76.0176 505.176 75.4375 504.836 75.0391C504.508 74.6406 503.998 74.4414 503.307 74.4414C502.838 74.4414 502.369 74.6172 501.9 74.9688C501.443 75.3086 501.039 75.707 500.688 76.1641V82H499.246V73.2109H500.688ZM519.268 73.0352C520.029 73.0352 520.715 73.2227 521.324 73.5977C521.945 73.9609 522.438 74.4766 522.801 75.1445C523.176 75.8008 523.363 76.5742 523.363 77.4648C523.363 78.4258 523.176 79.2695 522.801 79.9961C522.438 80.7109 521.934 81.2676 521.289 81.666C520.656 82.0645 519.936 82.2637 519.127 82.2637C518.623 82.2637 518.107 82.1289 517.58 81.8594C517.064 81.5898 516.619 81.2441 516.244 80.8223V86.2188H514.803V73.2109H516.244V74.7051C516.549 74.2363 516.959 73.8438 517.475 73.5273C518.002 73.1992 518.6 73.0352 519.268 73.0352ZM519.039 74.4414C518.512 74.4414 518.031 74.5762 517.598 74.8457C517.176 75.1152 516.842 75.4902 516.596 75.9707C516.361 76.4395 516.244 76.9902 516.244 77.623L516.262 79.3105C516.637 79.7676 517.029 80.1426 517.439 80.4355C517.85 80.7168 518.324 80.8574 518.863 80.8574C519.496 80.8574 520.035 80.6934 520.48 80.3652C520.926 80.0371 521.266 79.6152 521.5 79.0996C521.746 78.5723 521.869 78.0273 521.869 77.4648C521.869 76.8906 521.752 76.3809 521.518 75.9355C521.283 75.4785 520.955 75.1152 520.533 74.8457C520.111 74.5762 519.613 74.4414 519.039 74.4414ZM527.178 73.2109V74.9688C527.518 74.3828 527.928 73.9141 528.408 73.5625C528.889 73.2109 529.381 73.0352 529.885 73.0352C530.225 73.0352 530.529 73.0938 530.799 73.2109V74.8809C530.424 74.6582 530.049 74.5469 529.674 74.5469C529.076 74.5469 528.59 74.7578 528.215 75.1797C527.852 75.6016 527.506 76.1055 527.178 76.6914V82H525.736V73.2109H527.178ZM536.617 73.0352C537.508 73.0352 538.299 73.2461 538.99 73.668C539.682 74.0898 540.221 74.6523 540.607 75.3555C541.006 76.0586 541.205 76.8262 541.205 77.6582C541.205 78.4902 541.006 79.2578 540.607 79.9609C540.221 80.6523 539.682 81.209 538.99 81.6309C538.299 82.0527 537.508 82.2637 536.617 82.2637C535.727 82.2637 534.936 82.0527 534.244 81.6309C533.553 81.209 533.008 80.6523 532.609 79.9609C532.223 79.2578 532.029 78.4902 532.029 77.6582C532.029 76.8262 532.223 76.0586 532.609 75.3555C533.008 74.6523 533.553 74.0898 534.244 73.668C534.936 73.2461 535.727 73.0352 536.617 73.0352ZM536.617 74.4414C535.996 74.4414 535.451 74.5938 534.982 74.8984C534.514 75.1914 534.15 75.584 533.893 76.0762C533.646 76.5566 533.523 77.084 533.523 77.6582C533.523 78.2207 533.646 78.748 533.893 79.2402C534.15 79.7207 534.514 80.1133 534.982 80.418C535.451 80.7109 535.996 80.8574 536.617 80.8574C537.25 80.8574 537.795 80.7109 538.252 80.418C538.721 80.1133 539.078 79.7207 539.324 79.2402C539.582 78.748 539.711 78.2207 539.711 77.6582C539.711 77.084 539.582 76.5566 539.324 76.0762C539.078 75.584 538.721 75.1914 538.252 74.8984C537.795 74.5938 537.25 74.4414 536.617 74.4414ZM548.131 73.2109V74.5645H545.564V82H544.123V74.5645H542.734V73.2109H544.123V72.0859C544.123 71.3945 544.258 70.832 544.527 70.3984C544.797 69.9531 545.143 69.625 545.564 69.4141C545.986 69.1914 546.414 69.0801 546.848 69.0801C547.445 69.0801 547.932 69.2383 548.307 69.5547V70.8203C548.131 70.7031 547.92 70.6094 547.674 70.5391C547.428 70.4688 547.182 70.4395 546.936 70.4512C546.502 70.4629 546.162 70.6035 545.916 70.873C545.682 71.1309 545.564 71.5879 545.564 72.2441V73.2109H548.131ZM551.453 68.9922C551.793 68.9922 552.074 69.1152 552.297 69.3613C552.531 69.5957 552.648 69.8711 552.648 70.1875C552.648 70.4922 552.531 70.7676 552.297 71.0137C552.074 71.2598 551.793 71.3828 551.453 71.3828C551.113 71.3828 550.826 71.2598 550.592 71.0137C550.369 70.7676 550.258 70.4922 550.258 70.1875C550.258 69.8711 550.369 69.5957 550.592 69.3613C550.826 69.1152 551.113 68.9922 551.453 68.9922ZM552.35 73.2109V82H550.908V74.5645H549.52V73.2109H552.35ZM556.902 69.3438V82H555.461V69.3438H556.902ZM563.512 73.0352C564.414 73.0352 565.164 73.2227 565.762 73.5977C566.359 73.9727 566.805 74.4824 567.098 75.127C567.402 75.7715 567.555 76.498 567.555 77.3066V78.168H560.805C560.875 78.6602 561.045 79.1113 561.314 79.5215C561.584 79.9316 561.936 80.2598 562.369 80.5059C562.803 80.7402 563.301 80.8574 563.863 80.8574C564.496 80.8574 565.088 80.6992 565.639 80.3828C566.189 80.0547 566.652 79.6973 567.027 79.3105L567.01 80.875C566.846 81.0742 566.6 81.2852 566.271 81.5078C565.955 81.7188 565.586 81.8945 565.164 82.0352C564.754 82.1875 564.32 82.2637 563.863 82.2637C562.973 82.2637 562.182 82.0527 561.49 81.6309C560.799 81.209 560.254 80.6523 559.855 79.9609C559.469 79.2578 559.275 78.4902 559.275 77.6582C559.275 76.8262 559.457 76.0586 559.82 75.3555C560.184 74.6523 560.682 74.0898 561.314 73.668C561.959 73.2461 562.691 73.0352 563.512 73.0352ZM563.512 74.4414C562.785 74.4414 562.188 74.6875 561.719 75.1797C561.25 75.6602 560.957 76.2461 560.84 76.9375H566.131C566.072 76.3633 565.908 75.8945 565.639 75.5312C565.381 75.168 565.064 74.8984 564.689 74.7227C564.314 74.5352 563.922 74.4414 563.512 74.4414ZM573.092 69.959C573.795 69.959 574.434 70.1055 575.008 70.3984C575.582 70.6914 576.033 71.0957 576.361 71.6113C576.701 72.127 576.871 72.7188 576.871 73.3867C576.871 73.8203 576.76 74.2129 576.537 74.5645C576.326 74.9043 576.057 75.2148 575.729 75.4961C575.412 75.7773 575.096 76.041 574.779 76.2871C574.463 76.5332 574.199 76.7793 573.988 77.0254C573.777 77.2715 573.678 77.5293 573.689 77.7988L573.707 78.168H572.002V77.4648C572.002 77.207 572.102 76.9609 572.301 76.7266C572.512 76.4805 572.77 76.2402 573.074 76.0059C573.379 75.7598 573.684 75.5137 573.988 75.2676C574.305 75.0098 574.562 74.7461 574.762 74.4766C574.973 74.207 575.078 73.9199 575.078 73.6152C575.078 73.041 574.891 72.5664 574.516 72.1914C574.152 71.8164 573.619 71.6289 572.916 71.6289C572.213 71.6289 571.627 71.7695 571.158 72.0508C570.701 72.3203 570.262 72.7246 569.84 73.2637V71.3477C570.156 70.9609 570.607 70.6328 571.193 70.3633C571.779 70.0938 572.412 69.959 573.092 69.959ZM572.934 79.8555C573.273 79.8555 573.561 79.9785 573.795 80.2246C574.041 80.459 574.164 80.7461 574.164 81.0859C574.164 81.4141 574.041 81.7012 573.795 81.9473C573.561 82.1934 573.273 82.3164 572.934 82.3164C572.594 82.3164 572.301 82.1934 572.055 81.9473C571.82 81.7012 571.703 81.4141 571.703 81.0859C571.703 80.7461 571.82 80.459 572.055 80.2246C572.301 79.9785 572.594 79.8555 572.934 79.8555Z" fill="#1F365D"/>
<path d="M799.668 74.6665V66.6665H802.335V74.6665H810.335V77.3332H802.335V85.3332H799.668V77.3332H791.668V74.6665H799.668Z" fill="#1F365D"/>
</g>
<defs>
<filter id="filter0_d_610_7063" x="0" y="0" width="884" height="160" filterUnits="userSpaceOnUse" color-interpolation-filters="sRGB">
<feFlood flood-opacity="0" result="BackgroundImageFix"/>
<feColorMatrix in="SourceAlpha" type="matrix" values="0 0 0 0 0 0 0 0 0 0 0 0 0 0 0 0 0 0 127 0" result="hardAlpha"/>
<feOffset dy="4"/>
<feGaussianBlur stdDeviation="17.5"/>
<feComposite in2="hardAlpha" operator="out"/>
<feColorMatrix type="matrix" values="0 0 0 0 0.920833 0 0 0 0 0.916997 0 0 0 0 0.916997 0 0 0 0.25 0"/>
<feBlend mode="normal" in2="BackgroundImageFix" result="effect1_dropShadow_610_7063"/>
<feBlend mode="normal" in="SourceGraphic" in2="effect1_dropShadow_610_7063" result="shape"/>
</filter>
</defs>
</svg>
