<svg width="240" height="48" viewBox="0 0 240 48" fill="none" xmlns="http://www.w3.org/2000/svg">
<rect x="0.5" y="0.5" width="47" height="47" rx="23.5" fill="white"/>
<path d="M30.3246 17.9251C30.713 17.9251 31.0278 17.6102 31.0278 17.222V12.7031C31.0278 12.3148 30.713 12 30.3246 12H25.0525C22.5884 12 20.5838 14.0046 20.5838 16.4687V21.0375H17.6719C17.2835 21.0375 16.9688 21.3523 16.9688 21.7407V26.2593C16.9688 26.6477 17.2835 26.9625 17.6719 26.9625H20.5838V35.2969C20.5838 35.6852 20.8986 36 21.2869 36H25.8058C26.1942 36 26.5089 35.6852 26.5089 35.2969V26.9625H29.4208C29.7561 26.9625 30.0447 26.7259 30.1104 26.3972L31.014 21.8785C31.0554 21.672 31.002 21.4578 30.8683 21.2948C30.7348 21.132 30.5352 21.0375 30.3246 21.0375H26.5089V17.9251H30.3246ZM25.8058 22.4438H29.467L28.8444 25.5562H25.8058C25.4174 25.5562 25.1027 25.871 25.1027 26.2593V34.5938H21.9901V26.2593C21.9901 25.871 21.6753 25.5562 21.2869 25.5562H18.375V22.4438H21.2869C21.6753 22.4438 21.9901 22.129 21.9901 21.7407V16.4687C21.9901 14.7801 23.3639 13.4062 25.0525 13.4062H29.6215V16.5189H25.8058C25.4174 16.5189 25.1027 16.8336 25.1027 17.222V21.7407C25.1027 22.129 25.4174 22.4438 25.8058 22.4438Z" fill="#1F365D"/>
<rect x="0.5" y="0.5" width="47" height="47" rx="23.5" stroke="#45B5E3"/>
<rect x="64.5" y="0.5" width="47" height="47" rx="23.5" fill="white"/>
<g clip-path="url(#clip0_261_1006)">
<path d="M88.2362 35.9999C88.1567 35.9999 88.0773 35.9999 87.9973 35.9996C86.116 36.0041 84.3778 35.9564 82.6874 35.8534C81.1376 35.7591 79.7229 35.2236 78.5961 34.3047C77.5088 33.4181 76.7663 32.2194 76.3893 30.7421C76.0612 29.4559 76.0438 28.1934 76.0271 26.9723C76.015 26.0961 76.0026 25.0579 76 24.0021C76.0026 22.9419 76.015 21.9037 76.0271 21.0276C76.0438 19.8066 76.0612 18.5441 76.3893 17.2578C76.7663 15.7805 77.5088 14.5817 78.5961 13.6951C79.7229 12.7763 81.1376 12.2407 82.6876 12.1464C84.378 12.0437 86.1166 11.9957 88.0018 12.0003C89.8836 11.9963 91.6213 12.0437 93.3117 12.1464C94.8615 12.2407 96.2762 12.7763 97.403 13.6951C98.4905 14.5817 99.2328 15.7805 99.6098 17.2578C99.9379 18.5439 99.9553 19.8066 99.972 21.0276C99.9841 21.9037 99.9967 22.9419 99.9991 23.9977C99.9967 25.0579 99.9841 26.0961 99.972 26.9723C99.965 27.4901 99.5373 27.9039 99.0219 27.897C98.504 27.8898 98.0902 27.4643 98.0972 26.9466C98.1091 26.0756 98.1217 25.0442 98.1241 23.9977C98.1217 22.9557 98.1091 21.9242 98.0972 21.0532C98.082 19.9416 98.0662 18.792 97.793 17.7214C97.5175 16.6415 96.9875 15.7758 96.2181 15.1482C95.3859 14.4695 94.3697 14.0892 93.1978 14.0179C91.5471 13.9176 89.8479 13.8713 88.0018 13.8751C86.1514 13.8707 84.452 13.9176 82.8013 14.0179C81.6294 14.0892 80.6133 14.4695 79.7809 15.1481C79.0115 15.7756 78.4816 16.6413 78.2061 17.7214C77.9329 18.792 77.9171 19.9416 77.9019 21.0532C77.89 21.9242 77.8776 22.9557 77.875 24.0021C77.8776 25.0442 77.89 26.0756 77.9019 26.9466C77.9171 28.0583 77.9329 29.2078 78.2061 30.2784C78.4816 31.3584 79.0115 32.2241 79.7809 32.8516C80.6133 33.5304 81.6294 33.9107 82.8013 33.9819C84.452 34.0823 86.1517 34.1291 87.9974 34.1246C89.8481 34.129 91.5471 34.0823 93.1978 33.9819C94.3697 33.9107 95.3857 33.5304 96.2181 32.8516C96.7724 32.3995 97.2054 31.8195 97.5052 31.1273C97.711 30.6523 98.2629 30.4339 98.738 30.6397C99.2132 30.8455 99.4315 31.3974 99.2258 31.8726C98.8056 32.8428 98.1924 33.6611 97.403 34.3047C96.2762 35.2237 94.8615 35.7591 93.3117 35.8534C91.6929 35.952 90.0299 35.9999 88.2362 35.9999ZM93.812 23.9999C93.812 20.769 91.1835 18.1406 87.9526 18.1406C84.7219 18.1406 82.0932 20.769 82.0932 23.9999C82.0932 27.2308 84.7219 29.8593 87.9526 29.8593C91.1835 29.8593 93.812 27.2308 93.812 23.9999ZM91.937 23.9999C91.937 26.1968 90.1497 27.9843 87.9526 27.9843C85.7557 27.9843 83.9682 26.1968 83.9682 23.9999C83.9682 21.803 85.7557 20.0156 87.9526 20.0156C90.1497 20.0156 91.937 21.803 91.937 23.9999ZM94.4682 16.2656C93.6917 16.2656 93.062 16.8951 93.062 17.6718C93.062 18.4485 93.6917 19.0781 94.4682 19.0781C95.2449 19.0781 95.8745 18.4485 95.8745 17.6718C95.8745 16.8951 95.2449 16.2656 94.4682 16.2656Z" fill="#1F365D"/>
</g>
<rect x="64.5" y="0.5" width="47" height="47" rx="23.5" stroke="#45B5E3"/>
<rect x="128.5" y="0.5" width="47" height="47" rx="23.5" fill="white"/>
<g clip-path="url(#clip1_261_1006)">
<path d="M146.69 19.655L146.712 19.665C146.775 19.6939 146.842 19.7077 146.907 19.7077C147.085 19.7077 147.255 19.6061 147.334 19.4341C147.441 19.1987 147.338 18.9205 147.103 18.8127L147.083 18.8038C146.848 18.6952 146.57 18.7979 146.461 19.033C146.353 19.268 146.455 19.5465 146.69 19.655Z" fill="#1F365D"/>
<path d="M163.89 16.5472C163.755 16.3878 163.532 16.3362 163.341 16.4208C163.056 16.5473 162.765 16.6587 162.471 16.7546C162.853 16.2708 163.149 15.7189 163.343 15.1219C163.403 14.9364 163.342 14.7331 163.19 14.6113C163.038 14.4895 162.826 14.4748 162.658 14.5741C161.839 15.0592 160.959 15.4085 160.039 15.6141C159.077 14.6899 157.779 14.1646 156.436 14.1646C153.57 14.1646 151.238 16.4963 151.238 19.3626C151.238 19.5507 151.249 19.74 151.269 19.9294C150.532 19.8592 149.803 19.7268 149.093 19.5341C148.844 19.4662 148.586 19.6137 148.518 19.8636C148.45 20.1134 148.598 20.3709 148.848 20.4388C149.808 20.6998 150.803 20.8577 151.804 20.9081C151.951 20.9155 152.092 20.8541 152.186 20.7421C152.281 20.6301 152.317 20.4805 152.285 20.3376C152.213 20.0135 152.176 19.6854 152.176 19.3626C152.176 17.0133 154.087 15.102 156.436 15.102C157.61 15.102 158.743 15.5918 159.543 16.4456C159.653 16.5632 159.816 16.6161 159.974 16.5852C160.618 16.4602 161.244 16.2722 161.848 16.0236C161.51 16.4935 161.077 16.8933 160.574 17.1948C160.384 17.3084 160.299 17.5391 160.371 17.7484C160.442 17.9576 160.65 18.0886 160.87 18.0625C161.303 18.0112 161.731 17.931 162.154 17.8227C161.77 18.2247 161.348 18.5911 160.892 18.919C160.766 19.0094 160.693 19.1559 160.697 19.3106L160.711 19.9177C160.708 26.2991 155.851 32.8979 147.724 32.8979C145.867 32.8979 144.047 32.503 142.373 31.745C144.343 31.5961 146.192 30.8813 147.76 29.6552C147.917 29.5331 147.979 29.326 147.916 29.1379C147.854 28.9498 147.68 28.8214 147.481 28.8173C145.912 28.7846 144.509 27.8994 143.791 26.5493C143.843 26.5507 143.894 26.5514 143.946 26.5514C144.411 26.5514 144.87 26.4922 145.311 26.3755C145.521 26.3197 145.666 26.1263 145.659 25.9085C145.653 25.6908 145.497 25.5062 145.284 25.463C143.535 25.1086 142.21 23.6941 141.925 21.9744C142.441 22.1633 142.977 22.2656 143.525 22.2796C143.734 22.2846 143.921 22.1516 143.984 21.9524C144.047 21.7533 143.971 21.5366 143.797 21.4208C142.61 20.6308 141.901 19.3064 141.901 17.8781C141.901 17.3498 141.998 16.83 142.185 16.3456C142.949 17.1894 143.812 17.9359 144.757 18.5706C144.972 18.7149 145.263 18.6576 145.407 18.4426C145.552 18.2277 145.494 17.9365 145.28 17.7922C144.21 17.0742 143.254 16.2027 142.437 15.2019C142.34 15.083 142.191 15.0193 142.038 15.0308C141.885 15.0427 141.747 15.1286 141.67 15.261C141.208 16.0483 140.964 16.9533 140.964 17.8781C140.964 19.0209 141.336 20.1092 142 20.995C141.874 20.9398 141.749 20.878 141.625 20.8098C141.48 20.7297 141.303 20.7322 141.16 20.8165C141.017 20.9008 140.93 21.0543 140.93 21.2202V21.2778C140.93 23.012 141.795 24.5875 143.148 25.5409C143.145 25.5403 143.142 25.5398 143.139 25.5393C142.977 25.5087 142.81 25.5657 142.701 25.6897C142.591 25.8138 142.555 25.9862 142.606 26.1436C143.156 27.8509 144.535 29.1261 146.218 29.5776C144.826 30.4046 143.249 30.8368 141.595 30.8368C141.236 30.8368 140.885 30.8171 140.521 30.7767C140.304 30.7526 140.1 30.8808 140.027 31.0861C139.954 31.2914 140.032 31.5197 140.216 31.6372C142.46 33.0753 145.056 33.8354 147.724 33.8354C149.87 33.8354 151.878 33.4091 153.693 32.5682C155.358 31.797 156.829 30.6948 158.065 29.2923C160.343 26.709 161.649 23.2901 161.649 19.9121C161.649 19.9084 161.649 19.9047 161.649 19.9011L161.64 19.532C162.533 18.856 163.3 18.0419 163.921 17.1093C164.037 16.9358 164.024 16.7067 163.89 16.5472Z" fill="#1F365D"/>
<path d="M157.656 25.5478C157.434 25.4146 157.146 25.4866 157.013 25.7086L157.012 25.71C156.879 25.932 156.951 26.2192 157.173 26.3524C157.249 26.3976 157.332 26.4191 157.413 26.4191C157.573 26.4191 157.729 26.3376 157.817 26.191C157.95 25.969 157.878 25.681 157.656 25.5478Z" fill="#1F365D"/>
<path d="M156.744 26.9586C156.545 26.794 156.249 26.8224 156.084 27.0222C155.264 28.0177 154.294 28.8391 153.201 29.4637C152.976 29.5921 152.898 29.8785 153.027 30.1032C153.113 30.2546 153.271 30.3395 153.434 30.3395C153.513 30.3395 153.593 30.3196 153.666 30.2777C154.858 29.5966 155.915 28.7019 156.808 27.6185C156.973 27.4187 156.944 27.1233 156.744 26.9586Z" fill="#1F365D"/>
</g>
<rect x="128.5" y="0.5" width="47" height="47" rx="23.5" stroke="#45B5E3"/>
<rect x="192.5" y="0.5" width="47" height="47" rx="23.5" fill="white"/>
<g clip-path="url(#clip2_261_1006)">
<path d="M209.843 19.4133H205.217C204.748 19.4133 204.367 19.7945 204.367 20.2631V35.1247C204.367 35.5932 204.748 35.9744 205.217 35.9744H209.843C210.312 35.9744 210.693 35.5933 210.693 35.1246V20.2631C210.693 19.7946 210.312 19.4133 209.843 19.4133ZM209.737 35.0183H205.323V20.3695H209.737V35.0183Z" fill="#1F365D"/>
<path d="M210.025 13.0595C209.357 12.3927 208.472 12.0254 207.531 12.0254C205.584 12.0254 204 13.6078 204 15.5528C204 17.4985 205.584 19.0815 207.531 19.0815C209.476 19.0815 211.059 17.4985 211.059 15.5528C211.059 14.6119 210.692 13.7264 210.025 13.0595ZM207.531 18.1253C206.111 18.1253 204.956 16.9712 204.956 15.5528C204.956 14.135 206.111 12.9816 207.531 12.9816C208.216 12.9816 208.862 13.2494 209.349 13.7358C209.835 14.222 210.103 14.8674 210.103 15.5528C210.103 16.9713 208.949 18.1253 207.531 18.1253Z" fill="#1F365D"/>
<path d="M226.933 21.623C225.924 19.9116 224.133 19.0439 221.611 19.0439C219.986 19.0439 218.805 19.5985 218.019 20.1706C217.973 19.7454 217.612 19.4133 217.175 19.4133H212.744C212.276 19.4133 211.895 19.7945 211.895 20.263V35.1246C211.895 35.5932 212.276 35.9744 212.744 35.9744H217.36C217.829 35.9744 218.21 35.5932 218.21 35.1246V27.7717C218.21 25.2791 218.886 24.8067 220.132 24.8067C221.351 24.8067 221.685 25.4714 221.685 27.8992V35.1249C221.685 35.5934 222.066 35.9746 222.535 35.9746H227.152C227.621 35.9746 228.002 35.5934 228.002 35.1249V26.9729C228.002 25.3258 227.88 23.2293 226.933 21.623ZM227.046 35.0184H222.641V27.8991C222.641 26.9307 222.614 25.922 222.293 25.1678C221.92 24.2937 221.194 23.8505 220.132 23.8505C217.596 23.8505 217.254 25.8327 217.254 27.7717V35.0183H212.851V20.3695H217.068V21.2283C217.068 21.4254 217.189 21.6023 217.373 21.6738C217.557 21.7454 217.765 21.6968 217.898 21.5516C218.43 20.9722 219.62 20.0001 221.611 20.0001C226.387 20.0001 227.046 23.3514 227.046 26.9729V35.0184H227.046Z" fill="#1F365D"/>
<path d="M206.294 29.0679C206.03 29.0679 205.816 29.2819 205.816 29.5459V33.9922C205.816 34.2562 206.03 34.4703 206.294 34.4703C206.559 34.4703 206.773 34.2562 206.773 33.9922V29.5459C206.773 29.2819 206.559 29.0679 206.294 29.0679Z" fill="#1F365D"/>
<path d="M206.294 27.0598C206.03 27.0598 205.816 27.2738 205.816 27.5379V27.9682C205.816 28.2322 206.03 28.4462 206.294 28.4462C206.559 28.4462 206.773 28.2322 206.773 27.9682V27.5379C206.773 27.2738 206.559 27.0598 206.294 27.0598Z" fill="#1F365D"/>
</g>
<rect x="192.5" y="0.5" width="47" height="47" rx="23.5" stroke="#45B5E3"/>
<defs>
<clipPath id="clip0_261_1006">
<rect width="24" height="24" fill="white" transform="translate(76 12)"/>
</clipPath>
<clipPath id="clip1_261_1006">
<rect width="24" height="24" fill="white" transform="translate(140 12)"/>
</clipPath>
<clipPath id="clip2_261_1006">
<rect width="24" height="24" fill="white" transform="translate(204 12)"/>
</clipPath>
</defs>
</svg>
