<svg width="152" height="24" viewBox="0 0 152 24" fill="none" xmlns="http://www.w3.org/2000/svg">
<path d="M140 15.968L144.247 18.345L143.298 13.572L146.871 10.267L142.038 9.694L140 5.275V15.968ZM140 18.26L132.947 22.208L134.522 14.28L128.587 8.792L136.614 7.84L140 0.5L143.386 7.84L151.413 8.792L145.478 14.28L147.053 22.208L140 18.26Z" fill="#F6A523"/>
<path d="M11.9999 18.26L4.94691 22.208L6.52191 14.28L0.586914 8.792L8.61391 7.84L11.9999 0.5L15.3859 7.84L23.4129 8.792L17.4779 14.28L19.0529 22.208L11.9999 18.26Z" fill="#F6A523"/>
<path d="M43.9999 18.26L36.9469 22.208L38.5219 14.28L32.5869 8.792L40.6139 7.84L43.9999 0.5L47.3859 7.84L55.4129 8.792L49.4779 14.28L51.0529 22.208L43.9999 18.26Z" fill="#F6A523"/>
<path d="M75.9999 18.26L68.9469 22.208L70.5219 14.28L64.5869 8.792L72.6139 7.84L75.9999 0.5L79.3859 7.84L87.4129 8.792L81.4779 14.28L83.0529 22.208L75.9999 18.26Z" fill="#F6A523"/>
<path d="M108 18.26L100.947 22.208L102.522 14.28L96.5869 8.792L104.614 7.84L108 0.5L111.386 7.84L119.413 8.792L113.478 14.28L115.053 22.208L108 18.26Z" fill="#F6A523"/>
</svg>
