<svg width="884" height="160" viewBox="0 0 884 160" fill="none" xmlns="http://www.w3.org/2000/svg">
<g filter="url(#filter0_d_610_6822)">
<rect x="35" y="31" width="814" height="90" rx="4" fill="white"/>
<path d="M73.4688 70.2227L78.9707 82H77.0723L75.8418 79.1875H70.3223L69.0742 82H67.1758L72.6777 70.2227H73.4688ZM73.0996 72.8945L70.9727 77.6934H75.1914L73.0996 72.8945ZM82.082 73.2109V74.9688C82.4219 74.3828 82.832 73.9141 83.3125 73.5625C83.793 73.2109 84.2852 73.0352 84.7891 73.0352C85.1289 73.0352 85.4336 73.0938 85.7031 73.2109V74.8809C85.3281 74.6582 84.9531 74.5469 84.5781 74.5469C83.9805 74.5469 83.4941 74.7578 83.1191 75.1797C82.7559 75.6016 82.4102 76.1055 82.082 76.6914V82H80.6406V73.2109H82.082ZM91.1699 73.0352C92.0723 73.0352 92.8223 73.2227 93.4199 73.5977C94.0176 73.9727 94.4629 74.4824 94.7559 75.127C95.0605 75.7715 95.2129 76.498 95.2129 77.3066V78.168H88.4629C88.5332 78.6602 88.7031 79.1113 88.9727 79.5215C89.2422 79.9316 89.5938 80.2598 90.0273 80.5059C90.4609 80.7402 90.959 80.8574 91.5215 80.8574C92.1543 80.8574 92.7461 80.6992 93.2969 80.3828C93.8477 80.0547 94.3105 79.6973 94.6855 79.3105L94.668 80.875C94.5039 81.0742 94.2578 81.2852 93.9297 81.5078C93.6133 81.7188 93.2441 81.8945 92.8223 82.0352C92.4121 82.1875 91.9785 82.2637 91.5215 82.2637C90.6309 82.2637 89.8398 82.0527 89.1484 81.6309C88.457 81.209 87.9121 80.6523 87.5137 79.9609C87.127 79.2578 86.9336 78.4902 86.9336 77.6582C86.9336 76.8262 87.1152 76.0586 87.4785 75.3555C87.8418 74.6523 88.3398 74.0898 88.9727 73.668C89.6172 73.2461 90.3496 73.0352 91.1699 73.0352ZM91.1699 74.4414C90.4434 74.4414 89.8457 74.6875 89.377 75.1797C88.9082 75.6602 88.6152 76.2461 88.498 76.9375H93.7891C93.7305 76.3633 93.5664 75.8945 93.2969 75.5312C93.0391 75.168 92.7227 74.8984 92.3477 74.7227C91.9727 74.5352 91.5801 74.4414 91.1699 74.4414ZM105.285 70.6797V73.2109H107.852V74.5645H105.285V79.7148C105.285 80.0781 105.379 80.3652 105.566 80.5762C105.754 80.7871 106.041 80.8926 106.428 80.8926C106.779 80.8926 107.072 80.8516 107.307 80.7695C107.541 80.6758 107.746 80.5762 107.922 80.4707V81.6484C107.688 81.8359 107.436 81.9824 107.166 82.0879C106.908 82.2051 106.557 82.2637 106.111 82.2637C105.361 82.2637 104.793 82.041 104.406 81.5957C104.031 81.1387 103.844 80.5352 103.844 79.7852V74.5645H102.156V74.1426C102.73 73.8848 103.211 73.4629 103.598 72.877C103.984 72.2793 104.324 71.5469 104.617 70.6797H105.285ZM114.777 73.0352C115.375 73.0352 115.92 73.1699 116.412 73.4395C116.904 73.6973 117.297 74.0957 117.59 74.6348C117.883 75.1621 118.029 75.8301 118.029 76.6387V82H116.588L116.57 76.7793C116.57 76.0176 116.4 75.4375 116.061 75.0391C115.732 74.6406 115.223 74.4414 114.531 74.4414C114.062 74.4414 113.594 74.6172 113.125 74.9688C112.668 75.3086 112.264 75.707 111.912 76.1641V82H110.471V69.3438H111.912V74.5996C112.1 74.3652 112.34 74.1309 112.633 73.8965C112.926 73.6504 113.254 73.4453 113.617 73.2812C113.992 73.1172 114.379 73.0352 114.777 73.0352ZM124.375 73.0352C125.277 73.0352 126.027 73.2227 126.625 73.5977C127.223 73.9727 127.668 74.4824 127.961 75.127C128.266 75.7715 128.418 76.498 128.418 77.3066V78.168H121.668C121.738 78.6602 121.908 79.1113 122.178 79.5215C122.447 79.9316 122.799 80.2598 123.232 80.5059C123.666 80.7402 124.164 80.8574 124.727 80.8574C125.359 80.8574 125.951 80.6992 126.502 80.3828C127.053 80.0547 127.516 79.6973 127.891 79.3105L127.873 80.875C127.709 81.0742 127.463 81.2852 127.135 81.5078C126.818 81.7188 126.449 81.8945 126.027 82.0352C125.617 82.1875 125.184 82.2637 124.727 82.2637C123.836 82.2637 123.045 82.0527 122.354 81.6309C121.662 81.209 121.117 80.6523 120.719 79.9609C120.332 79.2578 120.139 78.4902 120.139 77.6582C120.139 76.8262 120.32 76.0586 120.684 75.3555C121.047 74.6523 121.545 74.0898 122.178 73.668C122.822 73.2461 123.555 73.0352 124.375 73.0352ZM124.375 74.4414C123.648 74.4414 123.051 74.6875 122.582 75.1797C122.113 75.6602 121.82 76.2461 121.703 76.9375H126.994C126.936 76.3633 126.771 75.8945 126.502 75.5312C126.244 75.168 125.928 74.8984 125.553 74.7227C125.178 74.5352 124.785 74.4414 124.375 74.4414ZM140.037 73.0352C140.682 73.0352 141.238 73.1406 141.707 73.3516C142.176 73.5508 142.498 73.7324 142.674 73.8965V75.3555C142.346 75.1094 141.971 74.8984 141.549 74.7227C141.127 74.5352 140.623 74.4414 140.037 74.4414C139.416 74.4414 138.871 74.5938 138.402 74.8984C137.934 75.1914 137.57 75.584 137.312 76.0762C137.066 76.5566 136.943 77.084 136.943 77.6582C136.943 78.2207 137.066 78.748 137.312 79.2402C137.57 79.7207 137.934 80.1133 138.402 80.418C138.871 80.7109 139.416 80.8574 140.037 80.8574C140.623 80.8574 141.127 80.7695 141.549 80.5938C141.971 80.4062 142.346 80.1895 142.674 79.9434V81.4023C142.498 81.5781 142.176 81.7656 141.707 81.9648C141.238 82.1641 140.682 82.2637 140.037 82.2637C139.146 82.2637 138.355 82.0527 137.664 81.6309C136.973 81.209 136.428 80.6523 136.029 79.9609C135.643 79.2578 135.449 78.4902 135.449 77.6582C135.449 76.8262 135.643 76.0586 136.029 75.3555C136.428 74.6523 136.973 74.0898 137.664 73.668C138.355 73.2461 139.146 73.0352 140.037 73.0352ZM149.02 73.0352C149.91 73.0352 150.701 73.2461 151.393 73.668C152.084 74.0898 152.623 74.6523 153.01 75.3555C153.408 76.0586 153.607 76.8262 153.607 77.6582C153.607 78.4902 153.408 79.2578 153.01 79.9609C152.623 80.6523 152.084 81.209 151.393 81.6309C150.701 82.0527 149.91 82.2637 149.02 82.2637C148.129 82.2637 147.338 82.0527 146.646 81.6309C145.955 81.209 145.41 80.6523 145.012 79.9609C144.625 79.2578 144.432 78.4902 144.432 77.6582C144.432 76.8262 144.625 76.0586 145.012 75.3555C145.41 74.6523 145.955 74.0898 146.646 73.668C147.338 73.2461 148.129 73.0352 149.02 73.0352ZM149.02 74.4414C148.398 74.4414 147.854 74.5938 147.385 74.8984C146.916 75.1914 146.553 75.584 146.295 76.0762C146.049 76.5566 145.926 77.084 145.926 77.6582C145.926 78.2207 146.049 78.748 146.295 79.2402C146.553 79.7207 146.916 80.1133 147.385 80.418C147.854 80.7109 148.398 80.8574 149.02 80.8574C149.652 80.8574 150.197 80.7109 150.654 80.418C151.123 80.1133 151.48 79.7207 151.727 79.2402C151.984 78.748 152.113 78.2207 152.113 77.6582C152.113 77.084 151.984 76.5566 151.727 76.0762C151.48 75.584 151.123 75.1914 150.654 74.8984C150.197 74.5938 149.652 74.4414 149.02 74.4414ZM163.17 73.2109V78.4141C163.17 79.1875 163.006 79.8555 162.678 80.418C162.35 80.9805 161.904 81.4141 161.342 81.7188C160.779 82.0234 160.146 82.1758 159.443 82.1758C158.74 82.1758 158.107 82.0234 157.545 81.7188C156.982 81.4141 156.537 80.9805 156.209 80.418C155.881 79.8555 155.717 79.1875 155.717 78.4141V73.2109H157.211V78.4141C157.211 79.1758 157.434 79.7617 157.879 80.1719C158.336 80.5703 158.857 80.7695 159.443 80.7695C160.029 80.7695 160.545 80.5703 160.99 80.1719C161.447 79.7617 161.676 79.1758 161.676 78.4141V73.2109H163.17ZM167.336 73.2109V74.9688C167.676 74.3828 168.086 73.9141 168.566 73.5625C169.047 73.2109 169.539 73.0352 170.043 73.0352C170.383 73.0352 170.688 73.0938 170.957 73.2109V74.8809C170.582 74.6582 170.207 74.5469 169.832 74.5469C169.234 74.5469 168.748 74.7578 168.373 75.1797C168.01 75.6016 167.664 76.1055 167.336 76.6914V82H165.895V73.2109H167.336ZM175.422 73.0352C175.938 73.0352 176.418 73.1113 176.863 73.2637C177.309 73.4043 177.631 73.5508 177.83 73.7031V75.25C177.584 75.0625 177.25 74.8809 176.828 74.7051C176.406 74.5293 175.973 74.4414 175.527 74.4414C174.977 74.4414 174.561 74.5703 174.279 74.8281C174.01 75.0859 173.875 75.3555 173.875 75.6367C173.875 75.8594 173.951 76.0879 174.104 76.3223C174.268 76.5449 174.549 76.7266 174.947 76.8672L176.424 77.3945C176.998 77.5938 177.426 77.8809 177.707 78.2559C177.988 78.6309 178.129 79.0703 178.129 79.5742C178.129 80.0664 177.988 80.5176 177.707 80.9277C177.438 81.3379 177.057 81.666 176.564 81.9121C176.084 82.1465 175.527 82.2637 174.895 82.2637C174.555 82.2637 174.197 82.2168 173.822 82.123C173.459 82.041 173.131 81.9414 172.838 81.8242C172.545 81.6953 172.328 81.584 172.188 81.4902V79.9434C172.352 80.0605 172.58 80.1953 172.873 80.3477C173.178 80.4883 173.5 80.6113 173.84 80.7168C174.18 80.8105 174.496 80.8574 174.789 80.8574C175.34 80.8574 175.773 80.7344 176.09 80.4883C176.418 80.2422 176.582 79.9375 176.582 79.5742C176.582 79.293 176.471 79.0703 176.248 78.9062C176.037 78.7422 175.727 78.584 175.316 78.4316L174.016 77.957C173.336 77.6992 172.885 77.377 172.662 76.9902C172.439 76.5918 172.328 76.1406 172.328 75.6367C172.328 74.8867 172.609 74.2656 173.172 73.7734C173.734 73.2812 174.484 73.0352 175.422 73.0352ZM183.947 73.0352C184.85 73.0352 185.6 73.2227 186.197 73.5977C186.795 73.9727 187.24 74.4824 187.533 75.127C187.838 75.7715 187.99 76.498 187.99 77.3066V78.168H181.24C181.311 78.6602 181.48 79.1113 181.75 79.5215C182.02 79.9316 182.371 80.2598 182.805 80.5059C183.238 80.7402 183.736 80.8574 184.299 80.8574C184.932 80.8574 185.523 80.6992 186.074 80.3828C186.625 80.0547 187.088 79.6973 187.463 79.3105L187.445 80.875C187.281 81.0742 187.035 81.2852 186.707 81.5078C186.391 81.7188 186.021 81.8945 185.6 82.0352C185.189 82.1875 184.756 82.2637 184.299 82.2637C183.408 82.2637 182.617 82.0527 181.926 81.6309C181.234 81.209 180.689 80.6523 180.291 79.9609C179.904 79.2578 179.711 78.4902 179.711 77.6582C179.711 76.8262 179.893 76.0586 180.256 75.3555C180.619 74.6523 181.117 74.0898 181.75 73.668C182.395 73.2461 183.127 73.0352 183.947 73.0352ZM183.947 74.4414C183.221 74.4414 182.623 74.6875 182.154 75.1797C181.686 75.6602 181.393 76.2461 181.275 76.9375H186.566C186.508 76.3633 186.344 75.8945 186.074 75.5312C185.816 75.168 185.5 74.8984 185.125 74.7227C184.75 74.5352 184.357 74.4414 183.947 74.4414ZM192.982 73.0352C193.498 73.0352 193.979 73.1113 194.424 73.2637C194.869 73.4043 195.191 73.5508 195.391 73.7031V75.25C195.145 75.0625 194.811 74.8809 194.389 74.7051C193.967 74.5293 193.533 74.4414 193.088 74.4414C192.537 74.4414 192.121 74.5703 191.84 74.8281C191.57 75.0859 191.436 75.3555 191.436 75.6367C191.436 75.8594 191.512 76.0879 191.664 76.3223C191.828 76.5449 192.109 76.7266 192.508 76.8672L193.984 77.3945C194.559 77.5938 194.986 77.8809 195.268 78.2559C195.549 78.6309 195.689 79.0703 195.689 79.5742C195.689 80.0664 195.549 80.5176 195.268 80.9277C194.998 81.3379 194.617 81.666 194.125 81.9121C193.645 82.1465 193.088 82.2637 192.455 82.2637C192.115 82.2637 191.758 82.2168 191.383 82.123C191.02 82.041 190.691 81.9414 190.398 81.8242C190.105 81.6953 189.889 81.584 189.748 81.4902V79.9434C189.912 80.0605 190.141 80.1953 190.434 80.3477C190.738 80.4883 191.061 80.6113 191.4 80.7168C191.74 80.8105 192.057 80.8574 192.35 80.8574C192.9 80.8574 193.334 80.7344 193.65 80.4883C193.979 80.2422 194.143 79.9375 194.143 79.5742C194.143 79.293 194.031 79.0703 193.809 78.9062C193.598 78.7422 193.287 78.584 192.877 78.4316L191.576 77.957C190.896 77.6992 190.445 77.377 190.223 76.9902C190 76.5918 189.889 76.1406 189.889 75.6367C189.889 74.8867 190.17 74.2656 190.732 73.7734C191.295 73.2812 192.045 73.0352 192.982 73.0352ZM205.779 73.0352C206.295 73.0352 206.775 73.1113 207.221 73.2637C207.666 73.4043 207.988 73.5508 208.188 73.7031V75.25C207.941 75.0625 207.607 74.8809 207.186 74.7051C206.764 74.5293 206.33 74.4414 205.885 74.4414C205.334 74.4414 204.918 74.5703 204.637 74.8281C204.367 75.0859 204.232 75.3555 204.232 75.6367C204.232 75.8594 204.309 76.0879 204.461 76.3223C204.625 76.5449 204.906 76.7266 205.305 76.8672L206.781 77.3945C207.355 77.5938 207.783 77.8809 208.064 78.2559C208.346 78.6309 208.486 79.0703 208.486 79.5742C208.486 80.0664 208.346 80.5176 208.064 80.9277C207.795 81.3379 207.414 81.666 206.922 81.9121C206.441 82.1465 205.885 82.2637 205.252 82.2637C204.912 82.2637 204.555 82.2168 204.18 82.123C203.816 82.041 203.488 81.9414 203.195 81.8242C202.902 81.6953 202.686 81.584 202.545 81.4902V79.9434C202.709 80.0605 202.938 80.1953 203.23 80.3477C203.535 80.4883 203.857 80.6113 204.197 80.7168C204.537 80.8105 204.854 80.8574 205.146 80.8574C205.697 80.8574 206.131 80.7344 206.447 80.4883C206.775 80.2422 206.939 79.9375 206.939 79.5742C206.939 79.293 206.828 79.0703 206.605 78.9062C206.395 78.7422 206.084 78.584 205.674 78.4316L204.373 77.957C203.693 77.6992 203.242 77.377 203.02 76.9902C202.797 76.5918 202.686 76.1406 202.686 75.6367C202.686 74.8867 202.967 74.2656 203.529 73.7734C204.092 73.2812 204.842 73.0352 205.779 73.0352ZM217.873 73.2109V78.4141C217.873 79.1875 217.709 79.8555 217.381 80.418C217.053 80.9805 216.607 81.4141 216.045 81.7188C215.482 82.0234 214.85 82.1758 214.146 82.1758C213.443 82.1758 212.811 82.0234 212.248 81.7188C211.686 81.4141 211.24 80.9805 210.912 80.418C210.584 79.8555 210.42 79.1875 210.42 78.4141V73.2109H211.914V78.4141C211.914 79.1758 212.137 79.7617 212.582 80.1719C213.039 80.5703 213.561 80.7695 214.146 80.7695C214.732 80.7695 215.248 80.5703 215.693 80.1719C216.15 79.7617 216.379 79.1758 216.379 78.4141V73.2109H217.873ZM222.004 68.9922C222.344 68.9922 222.625 69.1152 222.848 69.3613C223.082 69.5957 223.199 69.8711 223.199 70.1875C223.199 70.4922 223.082 70.7676 222.848 71.0137C222.625 71.2598 222.344 71.3828 222.004 71.3828C221.664 71.3828 221.377 71.2598 221.143 71.0137C220.92 70.7676 220.809 70.4922 220.809 70.1875C220.809 69.8711 220.92 69.5957 221.143 69.3613C221.377 69.1152 221.664 68.9922 222.004 68.9922ZM222.9 73.2109V82H221.459V74.5645H220.07V73.2109H222.9ZM228.438 70.6797V73.2109H231.004V74.5645H228.438V79.7148C228.438 80.0781 228.531 80.3652 228.719 80.5762C228.906 80.7871 229.193 80.8926 229.58 80.8926C229.932 80.8926 230.225 80.8516 230.459 80.7695C230.693 80.6758 230.898 80.5762 231.074 80.4707V81.6484C230.84 81.8359 230.588 81.9824 230.318 82.0879C230.061 82.2051 229.709 82.2637 229.264 82.2637C228.514 82.2637 227.945 82.041 227.559 81.5957C227.184 81.1387 226.996 80.5352 226.996 79.7852V74.5645H225.309V74.1426C225.883 73.8848 226.363 73.4629 226.75 72.877C227.137 72.2793 227.477 71.5469 227.77 70.6797H228.438ZM237.244 73.0352C237.748 73.0352 238.258 73.1582 238.773 73.4043C239.301 73.6387 239.752 73.9668 240.127 74.3887V73.2109H241.568V82H240.127V80.5059C239.822 80.9746 239.406 81.3848 238.879 81.7363C238.363 82.0879 237.771 82.2637 237.104 82.2637C236.354 82.2637 235.668 82.0762 235.047 81.7012C234.426 81.3145 233.928 80.7812 233.553 80.1016C233.189 79.4219 233.008 78.6367 233.008 77.7461C233.008 76.7734 233.189 75.9355 233.553 75.2324C233.928 74.5293 234.438 73.9902 235.082 73.6152C235.727 73.2285 236.447 73.0352 237.244 73.0352ZM237.508 74.4414C236.875 74.4414 236.336 74.5996 235.891 74.916C235.445 75.2324 235.1 75.6426 234.854 76.1465C234.619 76.6387 234.502 77.1719 234.502 77.7461C234.502 78.3086 234.619 78.8301 234.854 79.3105C235.088 79.7793 235.416 80.1543 235.838 80.4355C236.271 80.7168 236.77 80.8574 237.332 80.8574C237.871 80.8574 238.352 80.7168 238.773 80.4355C239.195 80.1543 239.529 79.7676 239.775 79.2754C240.021 78.7715 240.139 78.209 240.127 77.5879L240.109 75.9004C239.746 75.4434 239.354 75.0859 238.932 74.8281C238.521 74.5703 238.047 74.4414 237.508 74.4414ZM248.881 73.0352C249.689 73.0352 250.41 73.2285 251.043 73.6152C251.688 73.9902 252.191 74.5293 252.555 75.2324C252.93 75.9355 253.117 76.7734 253.117 77.7461C253.117 78.6367 252.93 79.4219 252.555 80.1016C252.191 80.7812 251.699 81.3145 251.078 81.7012C250.469 82.0762 249.783 82.2637 249.021 82.2637C248.354 82.2637 247.756 82.0879 247.229 81.7363C246.713 81.3848 246.303 80.9746 245.998 80.5059V82H244.557V69.3438H245.998V74.3887C246.373 73.9668 246.818 73.6387 247.334 73.4043C247.861 73.1582 248.377 73.0352 248.881 73.0352ZM248.617 74.459C248.078 74.459 247.604 74.5879 247.193 74.8457C246.783 75.0918 246.391 75.4434 246.016 75.9004L245.998 77.5879C245.998 78.209 246.115 78.7656 246.35 79.2578C246.596 79.75 246.93 80.1367 247.352 80.418C247.785 80.6992 248.266 80.8398 248.793 80.8398C249.367 80.8398 249.865 80.6992 250.287 80.418C250.709 80.1367 251.037 79.7617 251.271 79.293C251.506 78.8242 251.623 78.3086 251.623 77.7461C251.623 77.1719 251.5 76.6387 251.254 76.1465C251.02 75.6426 250.68 75.2383 250.234 74.9336C249.789 74.6172 249.25 74.459 248.617 74.459ZM256.932 69.3438V82H255.49V69.3438H256.932ZM263.541 73.0352C264.443 73.0352 265.193 73.2227 265.791 73.5977C266.389 73.9727 266.834 74.4824 267.127 75.127C267.432 75.7715 267.584 76.498 267.584 77.3066V78.168H260.834C260.904 78.6602 261.074 79.1113 261.344 79.5215C261.613 79.9316 261.965 80.2598 262.398 80.5059C262.832 80.7402 263.33 80.8574 263.893 80.8574C264.525 80.8574 265.117 80.6992 265.668 80.3828C266.219 80.0547 266.682 79.6973 267.057 79.3105L267.039 80.875C266.875 81.0742 266.629 81.2852 266.301 81.5078C265.984 81.7188 265.615 81.8945 265.193 82.0352C264.783 82.1875 264.35 82.2637 263.893 82.2637C263.002 82.2637 262.211 82.0527 261.52 81.6309C260.828 81.209 260.283 80.6523 259.885 79.9609C259.498 79.2578 259.305 78.4902 259.305 77.6582C259.305 76.8262 259.486 76.0586 259.85 75.3555C260.213 74.6523 260.711 74.0898 261.344 73.668C261.988 73.2461 262.721 73.0352 263.541 73.0352ZM263.541 74.4414C262.814 74.4414 262.217 74.6875 261.748 75.1797C261.279 75.6602 260.986 76.2461 260.869 76.9375H266.16C266.102 76.3633 265.938 75.8945 265.668 75.5312C265.41 75.168 265.094 74.8984 264.719 74.7227C264.344 74.5352 263.951 74.4414 263.541 74.4414ZM279.783 73.2109V74.5645H277.217V82H275.775V74.5645H274.387V73.2109H275.775V72.0859C275.775 71.3945 275.91 70.832 276.18 70.3984C276.449 69.9531 276.795 69.625 277.217 69.4141C277.639 69.1914 278.066 69.0801 278.5 69.0801C279.098 69.0801 279.584 69.2383 279.959 69.5547V70.8203C279.783 70.7031 279.572 70.6094 279.326 70.5391C279.08 70.4688 278.834 70.4395 278.588 70.4512C278.154 70.4629 277.814 70.6035 277.568 70.873C277.334 71.1309 277.217 71.5879 277.217 72.2441V73.2109H279.783ZM285.672 73.0352C286.562 73.0352 287.354 73.2461 288.045 73.668C288.736 74.0898 289.275 74.6523 289.662 75.3555C290.061 76.0586 290.26 76.8262 290.26 77.6582C290.26 78.4902 290.061 79.2578 289.662 79.9609C289.275 80.6523 288.736 81.209 288.045 81.6309C287.354 82.0527 286.562 82.2637 285.672 82.2637C284.781 82.2637 283.99 82.0527 283.299 81.6309C282.607 81.209 282.062 80.6523 281.664 79.9609C281.277 79.2578 281.084 78.4902 281.084 77.6582C281.084 76.8262 281.277 76.0586 281.664 75.3555C282.062 74.6523 282.607 74.0898 283.299 73.668C283.99 73.2461 284.781 73.0352 285.672 73.0352ZM285.672 74.4414C285.051 74.4414 284.506 74.5938 284.037 74.8984C283.568 75.1914 283.205 75.584 282.947 76.0762C282.701 76.5566 282.578 77.084 282.578 77.6582C282.578 78.2207 282.701 78.748 282.947 79.2402C283.205 79.7207 283.568 80.1133 284.037 80.418C284.506 80.7109 285.051 80.8574 285.672 80.8574C286.305 80.8574 286.85 80.7109 287.307 80.418C287.775 80.1133 288.133 79.7207 288.379 79.2402C288.637 78.748 288.766 78.2207 288.766 77.6582C288.766 77.084 288.637 76.5566 288.379 76.0762C288.133 75.584 287.775 75.1914 287.307 74.8984C286.85 74.5938 286.305 74.4414 285.672 74.4414ZM294.074 73.2109V74.9688C294.414 74.3828 294.824 73.9141 295.305 73.5625C295.785 73.2109 296.277 73.0352 296.781 73.0352C297.121 73.0352 297.426 73.0938 297.695 73.2109V74.8809C297.32 74.6582 296.945 74.5469 296.57 74.5469C295.973 74.5469 295.486 74.7578 295.111 75.1797C294.748 75.6016 294.402 76.1055 294.074 76.6914V82H292.633V73.2109H294.074ZM307.434 73.0352C307.949 73.0352 308.43 73.1113 308.875 73.2637C309.32 73.4043 309.643 73.5508 309.842 73.7031V75.25C309.596 75.0625 309.262 74.8809 308.84 74.7051C308.418 74.5293 307.984 74.4414 307.539 74.4414C306.988 74.4414 306.572 74.5703 306.291 74.8281C306.021 75.0859 305.887 75.3555 305.887 75.6367C305.887 75.8594 305.963 76.0879 306.115 76.3223C306.279 76.5449 306.561 76.7266 306.959 76.8672L308.436 77.3945C309.01 77.5938 309.438 77.8809 309.719 78.2559C310 78.6309 310.141 79.0703 310.141 79.5742C310.141 80.0664 310 80.5176 309.719 80.9277C309.449 81.3379 309.068 81.666 308.576 81.9121C308.096 82.1465 307.539 82.2637 306.906 82.2637C306.566 82.2637 306.209 82.2168 305.834 82.123C305.471 82.041 305.143 81.9414 304.85 81.8242C304.557 81.6953 304.34 81.584 304.199 81.4902V79.9434C304.363 80.0605 304.592 80.1953 304.885 80.3477C305.189 80.4883 305.512 80.6113 305.852 80.7168C306.191 80.8105 306.508 80.8574 306.801 80.8574C307.352 80.8574 307.785 80.7344 308.102 80.4883C308.43 80.2422 308.594 79.9375 308.594 79.5742C308.594 79.293 308.482 79.0703 308.26 78.9062C308.049 78.7422 307.738 78.584 307.328 78.4316L306.027 77.957C305.348 77.6992 304.896 77.377 304.674 76.9902C304.451 76.5918 304.34 76.1406 304.34 75.6367C304.34 74.8867 304.621 74.2656 305.184 73.7734C305.746 73.2812 306.496 73.0352 307.434 73.0352ZM316.311 73.0352C317.201 73.0352 317.992 73.2461 318.684 73.668C319.375 74.0898 319.914 74.6523 320.301 75.3555C320.699 76.0586 320.898 76.8262 320.898 77.6582C320.898 78.4902 320.699 79.2578 320.301 79.9609C319.914 80.6523 319.375 81.209 318.684 81.6309C317.992 82.0527 317.201 82.2637 316.311 82.2637C315.42 82.2637 314.629 82.0527 313.938 81.6309C313.246 81.209 312.701 80.6523 312.303 79.9609C311.916 79.2578 311.723 78.4902 311.723 77.6582C311.723 76.8262 311.916 76.0586 312.303 75.3555C312.701 74.6523 313.246 74.0898 313.938 73.668C314.629 73.2461 315.42 73.0352 316.311 73.0352ZM316.311 74.4414C315.689 74.4414 315.145 74.5938 314.676 74.8984C314.207 75.1914 313.844 75.584 313.586 76.0762C313.34 76.5566 313.217 77.084 313.217 77.6582C313.217 78.2207 313.34 78.748 313.586 79.2402C313.844 79.7207 314.207 80.1133 314.676 80.418C315.145 80.7109 315.689 80.8574 316.311 80.8574C316.943 80.8574 317.488 80.7109 317.945 80.418C318.414 80.1133 318.771 79.7207 319.018 79.2402C319.275 78.748 319.404 78.2207 319.404 77.6582C319.404 77.084 319.275 76.5566 319.018 76.0762C318.771 75.584 318.414 75.1914 317.945 74.8984C317.488 74.5938 316.943 74.4414 316.311 74.4414ZM324.713 73.2109V74.3359C324.994 74.0195 325.352 73.7266 325.785 73.457C326.23 73.1758 326.752 73.0352 327.35 73.0352C327.982 73.0352 328.574 73.1875 329.125 73.4922C329.676 73.7852 330.098 74.2305 330.391 74.8281C330.801 74.3359 331.246 73.9141 331.727 73.5625C332.207 73.2109 332.77 73.0352 333.414 73.0352C334.012 73.0352 334.568 73.1699 335.084 73.4395C335.611 73.6973 336.033 74.0957 336.35 74.6348C336.678 75.1621 336.842 75.8301 336.842 76.6387V82H335.4L335.383 76.7793C335.383 76.0176 335.184 75.4375 334.785 75.0391C334.398 74.6406 333.859 74.4414 333.168 74.4414C332.664 74.4414 332.225 74.5996 331.85 74.916C331.475 75.2324 331.117 75.6016 330.777 76.0234V82H329.336L329.318 76.7793C329.318 76.0176 329.119 75.4375 328.721 75.0391C328.334 74.6406 327.795 74.4414 327.104 74.4414C326.623 74.4414 326.184 74.582 325.785 74.8633C325.398 75.1445 325.041 75.4844 324.713 75.8828V82H323.271V73.2109H324.713ZM343.188 73.0352C344.09 73.0352 344.84 73.2227 345.438 73.5977C346.035 73.9727 346.48 74.4824 346.773 75.127C347.078 75.7715 347.23 76.498 347.23 77.3066V78.168H340.48C340.551 78.6602 340.721 79.1113 340.99 79.5215C341.26 79.9316 341.611 80.2598 342.045 80.5059C342.479 80.7402 342.977 80.8574 343.539 80.8574C344.172 80.8574 344.764 80.6992 345.314 80.3828C345.865 80.0547 346.328 79.6973 346.703 79.3105L346.686 80.875C346.521 81.0742 346.275 81.2852 345.947 81.5078C345.631 81.7188 345.262 81.8945 344.84 82.0352C344.43 82.1875 343.996 82.2637 343.539 82.2637C342.648 82.2637 341.857 82.0527 341.166 81.6309C340.475 81.209 339.93 80.6523 339.531 79.9609C339.145 79.2578 338.951 78.4902 338.951 77.6582C338.951 76.8262 339.133 76.0586 339.496 75.3555C339.859 74.6523 340.357 74.0898 340.99 73.668C341.635 73.2461 342.367 73.0352 343.188 73.0352ZM343.188 74.4414C342.461 74.4414 341.863 74.6875 341.395 75.1797C340.926 75.6602 340.633 76.2461 340.516 76.9375H345.807C345.748 76.3633 345.584 75.8945 345.314 75.5312C345.057 75.168 344.74 74.8984 344.365 74.7227C343.99 74.5352 343.598 74.4414 343.188 74.4414ZM353.576 73.0352C354.467 73.0352 355.258 73.2461 355.949 73.668C356.641 74.0898 357.18 74.6523 357.566 75.3555C357.965 76.0586 358.164 76.8262 358.164 77.6582C358.164 78.4902 357.965 79.2578 357.566 79.9609C357.18 80.6523 356.641 81.209 355.949 81.6309C355.258 82.0527 354.467 82.2637 353.576 82.2637C352.686 82.2637 351.895 82.0527 351.203 81.6309C350.512 81.209 349.967 80.6523 349.568 79.9609C349.182 79.2578 348.988 78.4902 348.988 77.6582C348.988 76.8262 349.182 76.0586 349.568 75.3555C349.967 74.6523 350.512 74.0898 351.203 73.668C351.895 73.2461 352.686 73.0352 353.576 73.0352ZM353.576 74.4414C352.955 74.4414 352.41 74.5938 351.941 74.8984C351.473 75.1914 351.109 75.584 350.852 76.0762C350.605 76.5566 350.482 77.084 350.482 77.6582C350.482 78.2207 350.605 78.748 350.852 79.2402C351.109 79.7207 351.473 80.1133 351.941 80.418C352.41 80.7109 352.955 80.8574 353.576 80.8574C354.209 80.8574 354.754 80.7109 355.211 80.418C355.68 80.1133 356.037 79.7207 356.283 79.2402C356.541 78.748 356.67 78.2207 356.67 77.6582C356.67 77.084 356.541 76.5566 356.283 76.0762C356.037 75.584 355.68 75.1914 355.211 74.8984C354.754 74.5938 354.209 74.4414 353.576 74.4414ZM361.979 73.2109V74.5996C362.166 74.3652 362.406 74.1309 362.699 73.8965C362.992 73.6504 363.32 73.4453 363.684 73.2812C364.059 73.1172 364.445 73.0352 364.844 73.0352C365.441 73.0352 365.986 73.1699 366.479 73.4395C366.971 73.6973 367.363 74.0957 367.656 74.6348C367.949 75.1621 368.096 75.8301 368.096 76.6387V82H366.654L366.637 76.7793C366.637 76.0176 366.467 75.4375 366.127 75.0391C365.799 74.6406 365.289 74.4414 364.598 74.4414C364.129 74.4414 363.66 74.6172 363.191 74.9688C362.734 75.3086 362.33 75.707 361.979 76.1641V82H360.537V73.2109H361.979ZM374.441 73.0352C375.344 73.0352 376.094 73.2227 376.691 73.5977C377.289 73.9727 377.734 74.4824 378.027 75.127C378.332 75.7715 378.484 76.498 378.484 77.3066V78.168H371.734C371.805 78.6602 371.975 79.1113 372.244 79.5215C372.514 79.9316 372.865 80.2598 373.299 80.5059C373.732 80.7402 374.23 80.8574 374.793 80.8574C375.426 80.8574 376.018 80.6992 376.568 80.3828C377.119 80.0547 377.582 79.6973 377.957 79.3105L377.939 80.875C377.775 81.0742 377.529 81.2852 377.201 81.5078C376.885 81.7188 376.516 81.8945 376.094 82.0352C375.684 82.1875 375.25 82.2637 374.793 82.2637C373.902 82.2637 373.111 82.0527 372.42 81.6309C371.729 81.209 371.184 80.6523 370.785 79.9609C370.398 79.2578 370.205 78.4902 370.205 77.6582C370.205 76.8262 370.387 76.0586 370.75 75.3555C371.113 74.6523 371.611 74.0898 372.244 73.668C372.889 73.2461 373.621 73.0352 374.441 73.0352ZM374.441 74.4414C373.715 74.4414 373.117 74.6875 372.648 75.1797C372.18 75.6602 371.887 76.2461 371.77 76.9375H377.061C377.002 76.3633 376.838 75.8945 376.568 75.5312C376.311 75.168 375.994 74.8984 375.619 74.7227C375.244 74.5352 374.852 74.4414 374.441 74.4414ZM388.75 73.0352C389.266 73.0352 389.746 73.1113 390.191 73.2637C390.637 73.4043 390.959 73.5508 391.158 73.7031V75.25C390.912 75.0625 390.578 74.8809 390.156 74.7051C389.734 74.5293 389.301 74.4414 388.855 74.4414C388.305 74.4414 387.889 74.5703 387.607 74.8281C387.338 75.0859 387.203 75.3555 387.203 75.6367C387.203 75.8594 387.279 76.0879 387.432 76.3223C387.596 76.5449 387.877 76.7266 388.275 76.8672L389.752 77.3945C390.326 77.5938 390.754 77.8809 391.035 78.2559C391.316 78.6309 391.457 79.0703 391.457 79.5742C391.457 80.0664 391.316 80.5176 391.035 80.9277C390.766 81.3379 390.385 81.666 389.893 81.9121C389.412 82.1465 388.855 82.2637 388.223 82.2637C387.883 82.2637 387.525 82.2168 387.15 82.123C386.787 82.041 386.459 81.9414 386.166 81.8242C385.873 81.6953 385.656 81.584 385.516 81.4902V79.9434C385.68 80.0605 385.908 80.1953 386.201 80.3477C386.506 80.4883 386.828 80.6113 387.168 80.7168C387.508 80.8105 387.824 80.8574 388.117 80.8574C388.668 80.8574 389.102 80.7344 389.418 80.4883C389.746 80.2422 389.91 79.9375 389.91 79.5742C389.91 79.293 389.799 79.0703 389.576 78.9062C389.365 78.7422 389.055 78.584 388.645 78.4316L387.344 77.957C386.664 77.6992 386.213 77.377 385.99 76.9902C385.768 76.5918 385.656 76.1406 385.656 75.6367C385.656 74.8867 385.938 74.2656 386.5 73.7734C387.062 73.2812 387.812 73.0352 388.75 73.0352ZM396.08 70.6797V73.2109H398.646V74.5645H396.08V79.7148C396.08 80.0781 396.174 80.3652 396.361 80.5762C396.549 80.7871 396.836 80.8926 397.223 80.8926C397.574 80.8926 397.867 80.8516 398.102 80.7695C398.336 80.6758 398.541 80.5762 398.717 80.4707V81.6484C398.482 81.8359 398.23 81.9824 397.961 82.0879C397.703 82.2051 397.352 82.2637 396.906 82.2637C396.156 82.2637 395.588 82.041 395.201 81.5957C394.826 81.1387 394.639 80.5352 394.639 79.7852V74.5645H392.951V74.1426C393.525 73.8848 394.006 73.4629 394.393 72.877C394.779 72.2793 395.119 71.5469 395.412 70.6797H396.08ZM404.887 73.0352C405.391 73.0352 405.9 73.1582 406.416 73.4043C406.943 73.6387 407.395 73.9668 407.77 74.3887V73.2109H409.211V82H407.77V80.5059C407.465 80.9746 407.049 81.3848 406.521 81.7363C406.006 82.0879 405.414 82.2637 404.746 82.2637C403.996 82.2637 403.311 82.0762 402.689 81.7012C402.068 81.3145 401.57 80.7812 401.195 80.1016C400.832 79.4219 400.65 78.6367 400.65 77.7461C400.65 76.7734 400.832 75.9355 401.195 75.2324C401.57 74.5293 402.08 73.9902 402.725 73.6152C403.369 73.2285 404.09 73.0352 404.887 73.0352ZM405.15 74.4414C404.518 74.4414 403.979 74.5996 403.533 74.916C403.088 75.2324 402.742 75.6426 402.496 76.1465C402.262 76.6387 402.145 77.1719 402.145 77.7461C402.145 78.3086 402.262 78.8301 402.496 79.3105C402.73 79.7793 403.059 80.1543 403.48 80.4355C403.914 80.7168 404.412 80.8574 404.975 80.8574C405.514 80.8574 405.994 80.7168 406.416 80.4355C406.838 80.1543 407.172 79.7676 407.418 79.2754C407.664 78.7715 407.781 78.209 407.77 77.5879L407.752 75.9004C407.389 75.4434 406.996 75.0859 406.574 74.8281C406.164 74.5703 405.689 74.4414 405.15 74.4414ZM413.641 73.2109V74.9688C413.98 74.3828 414.391 73.9141 414.871 73.5625C415.352 73.2109 415.844 73.0352 416.348 73.0352C416.688 73.0352 416.992 73.0938 417.262 73.2109V74.8809C416.887 74.6582 416.512 74.5469 416.137 74.5469C415.539 74.5469 415.053 74.7578 414.678 75.1797C414.314 75.6016 413.969 76.1055 413.641 76.6914V82H412.199V73.2109H413.641ZM421.533 70.6797V73.2109H424.1V74.5645H421.533V79.7148C421.533 80.0781 421.627 80.3652 421.814 80.5762C422.002 80.7871 422.289 80.8926 422.676 80.8926C423.027 80.8926 423.32 80.8516 423.555 80.7695C423.789 80.6758 423.994 80.5762 424.17 80.4707V81.6484C423.936 81.8359 423.684 81.9824 423.414 82.0879C423.156 82.2051 422.805 82.2637 422.359 82.2637C421.609 82.2637 421.041 82.041 420.654 81.5957C420.279 81.1387 420.092 80.5352 420.092 79.7852V74.5645H418.404V74.1426C418.979 73.8848 419.459 73.4629 419.846 72.877C420.232 72.2793 420.572 71.5469 420.865 70.6797H421.533ZM428.125 68.9922C428.465 68.9922 428.746 69.1152 428.969 69.3613C429.203 69.5957 429.32 69.8711 429.32 70.1875C429.32 70.4922 429.203 70.7676 428.969 71.0137C428.746 71.2598 428.465 71.3828 428.125 71.3828C427.785 71.3828 427.498 71.2598 427.264 71.0137C427.041 70.7676 426.93 70.4922 426.93 70.1875C426.93 69.8711 427.041 69.5957 427.264 69.3613C427.498 69.1152 427.785 68.9922 428.125 68.9922ZM429.021 73.2109V82H427.58V74.5645H426.191V73.2109H429.021ZM433.574 73.2109V74.5996C433.762 74.3652 434.002 74.1309 434.295 73.8965C434.588 73.6504 434.916 73.4453 435.279 73.2812C435.654 73.1172 436.041 73.0352 436.439 73.0352C437.037 73.0352 437.582 73.1699 438.074 73.4395C438.566 73.6973 438.959 74.0957 439.252 74.6348C439.545 75.1621 439.691 75.8301 439.691 76.6387V82H438.25L438.232 76.7793C438.232 76.0176 438.062 75.4375 437.723 75.0391C437.395 74.6406 436.885 74.4414 436.193 74.4414C435.725 74.4414 435.256 74.6172 434.787 74.9688C434.33 75.3086 433.926 75.707 433.574 76.1641V82H432.133V73.2109H433.574ZM446.037 73.0352C446.541 73.0352 447.051 73.1582 447.566 73.4043C448.094 73.6387 448.545 73.9668 448.92 74.3887V73.2109H450.361V81.8242C450.361 82.8672 450.15 83.7344 449.729 84.4258C449.307 85.1172 448.744 85.6328 448.041 85.9727C447.338 86.3125 446.57 86.4824 445.738 86.4824C445.199 86.4824 444.736 86.418 444.35 86.2891C443.975 86.1719 443.652 86.0195 443.383 85.832C443.113 85.6562 442.867 85.4863 442.645 85.3223V83.7754C442.82 83.9043 443.049 84.0684 443.33 84.2676C443.623 84.4785 443.969 84.666 444.367 84.8301C444.777 84.9941 445.234 85.0762 445.738 85.0762C446.312 85.0762 446.84 84.9707 447.32 84.7598C447.801 84.5488 448.188 84.2383 448.48 83.8281C448.773 83.418 448.92 82.9258 448.92 82.3516V80.5059C448.615 80.9746 448.199 81.3848 447.672 81.7363C447.156 82.0879 446.564 82.2637 445.896 82.2637C445.146 82.2637 444.461 82.0762 443.84 81.7012C443.219 81.3145 442.721 80.7812 442.346 80.1016C441.982 79.4219 441.801 78.6367 441.801 77.7461C441.801 76.7734 441.982 75.9355 442.346 75.2324C442.721 74.5293 443.23 73.9902 443.875 73.6152C444.52 73.2285 445.24 73.0352 446.037 73.0352ZM446.301 74.459C445.668 74.459 445.129 74.6172 444.684 74.9336C444.238 75.2383 443.893 75.6426 443.646 76.1465C443.412 76.6387 443.295 77.1719 443.295 77.7461C443.295 78.3086 443.412 78.8242 443.646 79.293C443.881 79.7617 444.209 80.1367 444.631 80.418C445.064 80.6992 445.562 80.8398 446.125 80.8398C446.664 80.8398 447.145 80.6992 447.566 80.418C447.988 80.1367 448.322 79.75 448.568 79.2578C448.814 78.7656 448.932 78.209 448.92 77.5879L448.902 75.9004C448.539 75.4434 448.146 75.0918 447.725 74.8457C447.314 74.5879 446.84 74.459 446.301 74.459ZM462.596 73.0352C463.486 73.0352 464.277 73.2461 464.969 73.668C465.66 74.0898 466.199 74.6523 466.586 75.3555C466.984 76.0586 467.184 76.8262 467.184 77.6582C467.184 78.4902 466.984 79.2578 466.586 79.9609C466.199 80.6523 465.66 81.209 464.969 81.6309C464.277 82.0527 463.486 82.2637 462.596 82.2637C461.705 82.2637 460.914 82.0527 460.223 81.6309C459.531 81.209 458.986 80.6523 458.588 79.9609C458.201 79.2578 458.008 78.4902 458.008 77.6582C458.008 76.8262 458.201 76.0586 458.588 75.3555C458.986 74.6523 459.531 74.0898 460.223 73.668C460.914 73.2461 461.705 73.0352 462.596 73.0352ZM462.596 74.4414C461.975 74.4414 461.43 74.5938 460.961 74.8984C460.492 75.1914 460.129 75.584 459.871 76.0762C459.625 76.5566 459.502 77.084 459.502 77.6582C459.502 78.2207 459.625 78.748 459.871 79.2402C460.129 79.7207 460.492 80.1133 460.961 80.418C461.43 80.7109 461.975 80.8574 462.596 80.8574C463.229 80.8574 463.773 80.7109 464.23 80.418C464.699 80.1133 465.057 79.7207 465.303 79.2402C465.561 78.748 465.689 78.2207 465.689 77.6582C465.689 77.084 465.561 76.5566 465.303 76.0762C465.057 75.584 464.699 75.1914 464.23 74.8984C463.773 74.5938 463.229 74.4414 462.596 74.4414ZM476.746 73.2109V78.4141C476.746 79.1875 476.582 79.8555 476.254 80.418C475.926 80.9805 475.48 81.4141 474.918 81.7188C474.355 82.0234 473.723 82.1758 473.02 82.1758C472.316 82.1758 471.684 82.0234 471.121 81.7188C470.559 81.4141 470.113 80.9805 469.785 80.418C469.457 79.8555 469.293 79.1875 469.293 78.4141V73.2109H470.787V78.4141C470.787 79.1758 471.01 79.7617 471.455 80.1719C471.912 80.5703 472.434 80.7695 473.02 80.7695C473.605 80.7695 474.121 80.5703 474.566 80.1719C475.023 79.7617 475.252 79.1758 475.252 78.4141V73.2109H476.746ZM481.896 70.6797V73.2109H484.463V74.5645H481.896V79.7148C481.896 80.0781 481.99 80.3652 482.178 80.5762C482.365 80.7871 482.652 80.8926 483.039 80.8926C483.391 80.8926 483.684 80.8516 483.918 80.7695C484.152 80.6758 484.357 80.5762 484.533 80.4707V81.6484C484.299 81.8359 484.047 81.9824 483.777 82.0879C483.52 82.2051 483.168 82.2637 482.723 82.2637C481.973 82.2637 481.404 82.041 481.018 81.5957C480.643 81.1387 480.455 80.5352 480.455 79.7852V74.5645H478.768V74.1426C479.342 73.8848 479.822 73.4629 480.209 72.877C480.596 72.2793 480.936 71.5469 481.229 70.6797H481.896ZM493.762 68.9922C494.102 68.9922 494.383 69.1152 494.605 69.3613C494.84 69.5957 494.957 69.8711 494.957 70.1875C494.957 70.4922 494.84 70.7676 494.605 71.0137C494.383 71.2598 494.102 71.3828 493.762 71.3828C493.422 71.3828 493.135 71.2598 492.9 71.0137C492.678 70.7676 492.566 70.4922 492.566 70.1875C492.566 69.8711 492.678 69.5957 492.9 69.3613C493.135 69.1152 493.422 68.9922 493.762 68.9922ZM494.658 73.2109V82H493.217V74.5645H491.828V73.2109H494.658ZM499.211 73.2109V74.5996C499.398 74.3652 499.639 74.1309 499.932 73.8965C500.225 73.6504 500.553 73.4453 500.916 73.2812C501.291 73.1172 501.678 73.0352 502.076 73.0352C502.674 73.0352 503.219 73.1699 503.711 73.4395C504.203 73.6973 504.596 74.0957 504.889 74.6348C505.182 75.1621 505.328 75.8301 505.328 76.6387V82H503.887L503.869 76.7793C503.869 76.0176 503.699 75.4375 503.359 75.0391C503.031 74.6406 502.521 74.4414 501.83 74.4414C501.361 74.4414 500.893 74.6172 500.424 74.9688C499.967 75.3086 499.562 75.707 499.211 76.1641V82H497.77V73.2109H499.211ZM515.752 70.6797V73.2109H518.318V74.5645H515.752V79.7148C515.752 80.0781 515.846 80.3652 516.033 80.5762C516.221 80.7871 516.508 80.8926 516.895 80.8926C517.246 80.8926 517.539 80.8516 517.773 80.7695C518.008 80.6758 518.213 80.5762 518.389 80.4707V81.6484C518.154 81.8359 517.902 81.9824 517.633 82.0879C517.375 82.2051 517.023 82.2637 516.578 82.2637C515.828 82.2637 515.26 82.041 514.873 81.5957C514.498 81.1387 514.311 80.5352 514.311 79.7852V74.5645H512.623V74.1426C513.197 73.8848 513.678 73.4629 514.064 72.877C514.451 72.2793 514.791 71.5469 515.084 70.6797H515.752ZM525.244 73.0352C525.842 73.0352 526.387 73.1699 526.879 73.4395C527.371 73.6973 527.764 74.0957 528.057 74.6348C528.35 75.1621 528.496 75.8301 528.496 76.6387V82H527.055L527.037 76.7793C527.037 76.0176 526.867 75.4375 526.527 75.0391C526.199 74.6406 525.689 74.4414 524.998 74.4414C524.529 74.4414 524.061 74.6172 523.592 74.9688C523.135 75.3086 522.73 75.707 522.379 76.1641V82H520.938V69.3438H522.379V74.5996C522.566 74.3652 522.807 74.1309 523.1 73.8965C523.393 73.6504 523.721 73.4453 524.084 73.2812C524.459 73.1172 524.846 73.0352 525.244 73.0352ZM534.842 73.0352C535.744 73.0352 536.494 73.2227 537.092 73.5977C537.689 73.9727 538.135 74.4824 538.428 75.127C538.732 75.7715 538.885 76.498 538.885 77.3066V78.168H532.135C532.205 78.6602 532.375 79.1113 532.645 79.5215C532.914 79.9316 533.266 80.2598 533.699 80.5059C534.133 80.7402 534.631 80.8574 535.193 80.8574C535.826 80.8574 536.418 80.6992 536.969 80.3828C537.52 80.0547 537.982 79.6973 538.357 79.3105L538.34 80.875C538.176 81.0742 537.93 81.2852 537.602 81.5078C537.285 81.7188 536.916 81.8945 536.494 82.0352C536.084 82.1875 535.65 82.2637 535.193 82.2637C534.303 82.2637 533.512 82.0527 532.82 81.6309C532.129 81.209 531.584 80.6523 531.186 79.9609C530.799 79.2578 530.605 78.4902 530.605 77.6582C530.605 76.8262 530.787 76.0586 531.15 75.3555C531.514 74.6523 532.012 74.0898 532.645 73.668C533.289 73.2461 534.021 73.0352 534.842 73.0352ZM534.842 74.4414C534.115 74.4414 533.518 74.6875 533.049 75.1797C532.58 75.6602 532.287 76.2461 532.17 76.9375H537.461C537.402 76.3633 537.238 75.8945 536.969 75.5312C536.711 75.168 536.395 74.8984 536.02 74.7227C535.645 74.5352 535.252 74.4414 534.842 74.4414ZM551.664 70.2227C552.344 70.2227 552.994 70.3809 553.615 70.6973C554.236 71.002 554.746 71.4473 555.145 72.0332C555.555 72.6074 555.76 73.2988 555.76 74.1074C555.76 74.7988 555.566 75.4375 555.18 76.0234C554.793 76.6094 554.266 77.084 553.598 77.4473C552.941 77.7988 552.209 77.9746 551.4 77.9746C550.803 77.9746 550.252 77.916 549.748 77.7988C549.256 77.6699 548.857 77.5352 548.553 77.3945V82H546.971V70.2227H551.664ZM548.553 71.7168V75.9531C548.869 76.082 549.279 76.2051 549.783 76.3223C550.299 76.4277 550.82 76.4805 551.348 76.4805C552.238 76.4805 552.924 76.252 553.404 75.7949C553.896 75.3262 554.143 74.7637 554.143 74.1074C554.143 73.6035 554.002 73.1758 553.721 72.8242C553.451 72.4727 553.094 72.2031 552.648 72.0156C552.203 71.8164 551.729 71.7168 551.225 71.7168H548.553ZM563.09 70.2227C563.77 70.2227 564.42 70.3516 565.041 70.6094C565.662 70.8555 566.172 71.2422 566.57 71.7695C566.98 72.2852 567.186 72.9473 567.186 73.7559C567.186 74.4824 566.975 75.0977 566.553 75.6016C566.143 76.1055 565.615 76.4863 564.971 76.7441C564.338 76.9902 563.682 77.1133 563.002 77.1133C562.791 77.1133 562.51 77.1016 562.158 77.0781L567.643 82H565.217L560.154 77.0781V82H558.572V70.2227H563.09ZM560.154 71.7168V75.4961C560.541 75.6016 560.963 75.6836 561.42 75.7422C561.877 75.8008 562.328 75.8301 562.773 75.8301C563.664 75.8301 564.35 75.6426 564.83 75.2676C565.322 74.8926 565.568 74.3887 565.568 73.7559C565.568 73.0996 565.299 72.5957 564.76 72.2441C564.232 71.8926 563.588 71.7168 562.826 71.7168H560.154ZM575.992 68.9922C576.332 68.9922 576.613 69.1152 576.836 69.3613C577.07 69.5957 577.188 69.8711 577.188 70.1875C577.188 70.4922 577.07 70.7676 576.836 71.0137C576.613 71.2598 576.332 71.3828 575.992 71.3828C575.652 71.3828 575.365 71.2598 575.131 71.0137C574.908 70.7676 574.797 70.4922 574.797 70.1875C574.797 69.8711 574.908 69.5957 575.131 69.3613C575.365 69.1152 575.652 68.9922 575.992 68.9922ZM576.889 73.2109V82H575.447V74.5645H574.059V73.2109H576.889ZM581.441 73.2109V74.5996C581.629 74.3652 581.869 74.1309 582.162 73.8965C582.455 73.6504 582.783 73.4453 583.146 73.2812C583.521 73.1172 583.908 73.0352 584.307 73.0352C584.904 73.0352 585.449 73.1699 585.941 73.4395C586.434 73.6973 586.826 74.0957 587.119 74.6348C587.412 75.1621 587.559 75.8301 587.559 76.6387V82H586.117L586.1 76.7793C586.1 76.0176 585.93 75.4375 585.59 75.0391C585.262 74.6406 584.752 74.4414 584.061 74.4414C583.592 74.4414 583.123 74.6172 582.654 74.9688C582.197 75.3086 581.793 75.707 581.441 76.1641V82H580V73.2109H581.441ZM598.229 69.3438V82H596.787V80.5059C596.482 80.9746 596.066 81.3848 595.539 81.7363C595.023 82.0879 594.432 82.2637 593.764 82.2637C593.014 82.2637 592.328 82.0762 591.707 81.7012C591.086 81.3145 590.588 80.7812 590.213 80.1016C589.85 79.4219 589.668 78.6367 589.668 77.7461C589.668 76.7734 589.85 75.9355 590.213 75.2324C590.588 74.5293 591.098 73.9902 591.742 73.6152C592.387 73.2285 593.107 73.0352 593.904 73.0352C594.408 73.0352 594.918 73.1582 595.434 73.4043C595.961 73.6387 596.412 73.9668 596.787 74.3887V69.3438H598.229ZM594.168 74.4766C593.535 74.4766 592.996 74.6348 592.551 74.9512C592.105 75.2559 591.76 75.6543 591.514 76.1465C591.279 76.6387 591.162 77.1719 591.162 77.7461C591.162 78.3086 591.279 78.8301 591.514 79.3105C591.748 79.7793 592.076 80.1543 592.498 80.4355C592.932 80.7168 593.43 80.8574 593.992 80.8574C594.531 80.8574 595.012 80.7168 595.434 80.4355C595.855 80.1543 596.189 79.7676 596.436 79.2754C596.682 78.7715 596.799 78.209 596.787 77.5879L596.77 75.9004C596.406 75.4434 596.014 75.0918 595.592 74.8457C595.182 74.5996 594.707 74.4766 594.168 74.4766ZM608.406 73.2109V78.4141C608.406 79.1875 608.242 79.8555 607.914 80.418C607.586 80.9805 607.141 81.4141 606.578 81.7188C606.016 82.0234 605.383 82.1758 604.68 82.1758C603.977 82.1758 603.344 82.0234 602.781 81.7188C602.219 81.4141 601.773 80.9805 601.445 80.418C601.117 79.8555 600.953 79.1875 600.953 78.4141V73.2109H602.447V78.4141C602.447 79.1758 602.67 79.7617 603.115 80.1719C603.572 80.5703 604.094 80.7695 604.68 80.7695C605.266 80.7695 605.781 80.5703 606.227 80.1719C606.684 79.7617 606.912 79.1758 606.912 78.4141V73.2109H608.406ZM613.75 73.0352C614.266 73.0352 614.746 73.1113 615.191 73.2637C615.637 73.4043 615.959 73.5508 616.158 73.7031V75.25C615.912 75.0625 615.578 74.8809 615.156 74.7051C614.734 74.5293 614.301 74.4414 613.855 74.4414C613.305 74.4414 612.889 74.5703 612.607 74.8281C612.338 75.0859 612.203 75.3555 612.203 75.6367C612.203 75.8594 612.279 76.0879 612.432 76.3223C612.596 76.5449 612.877 76.7266 613.275 76.8672L614.752 77.3945C615.326 77.5938 615.754 77.8809 616.035 78.2559C616.316 78.6309 616.457 79.0703 616.457 79.5742C616.457 80.0664 616.316 80.5176 616.035 80.9277C615.766 81.3379 615.385 81.666 614.893 81.9121C614.412 82.1465 613.855 82.2637 613.223 82.2637C612.883 82.2637 612.525 82.2168 612.15 82.123C611.787 82.041 611.459 81.9414 611.166 81.8242C610.873 81.6953 610.656 81.584 610.516 81.4902V79.9434C610.68 80.0605 610.908 80.1953 611.201 80.3477C611.506 80.4883 611.828 80.6113 612.168 80.7168C612.508 80.8105 612.824 80.8574 613.117 80.8574C613.668 80.8574 614.102 80.7344 614.418 80.4883C614.746 80.2422 614.91 79.9375 614.91 79.5742C614.91 79.293 614.799 79.0703 614.576 78.9062C614.365 78.7422 614.055 78.584 613.645 78.4316L612.344 77.957C611.664 77.6992 611.213 77.377 610.99 76.9902C610.768 76.5918 610.656 76.1406 610.656 75.6367C610.656 74.8867 610.938 74.2656 611.5 73.7734C612.062 73.2812 612.812 73.0352 613.75 73.0352ZM621.08 70.6797V73.2109H623.646V74.5645H621.08V79.7148C621.08 80.0781 621.174 80.3652 621.361 80.5762C621.549 80.7871 621.836 80.8926 622.223 80.8926C622.574 80.8926 622.867 80.8516 623.102 80.7695C623.336 80.6758 623.541 80.5762 623.717 80.4707V81.6484C623.482 81.8359 623.23 81.9824 622.961 82.0879C622.703 82.2051 622.352 82.2637 621.906 82.2637C621.156 82.2637 620.588 82.041 620.201 81.5957C619.826 81.1387 619.639 80.5352 619.639 79.7852V74.5645H617.951V74.1426C618.525 73.8848 619.006 73.4629 619.393 72.877C619.779 72.2793 620.119 71.5469 620.412 70.6797H621.08ZM627.707 73.2109V74.9688C628.047 74.3828 628.457 73.9141 628.938 73.5625C629.418 73.2109 629.91 73.0352 630.414 73.0352C630.754 73.0352 631.059 73.0938 631.328 73.2109V74.8809C630.953 74.6582 630.578 74.5469 630.203 74.5469C629.605 74.5469 629.119 74.7578 628.744 75.1797C628.381 75.6016 628.035 76.1055 627.707 76.6914V82H626.266V73.2109H627.707ZM633.666 73.2109L636.742 79.6797L639.73 73.2109H641.453L634.984 86.2188H633.314L635.828 81.4727L631.943 73.2109H633.666ZM646.375 69.959C647.078 69.959 647.717 70.1055 648.291 70.3984C648.865 70.6914 649.316 71.0957 649.645 71.6113C649.984 72.127 650.154 72.7188 650.154 73.3867C650.154 73.8203 650.043 74.2129 649.82 74.5645C649.609 74.9043 649.34 75.2148 649.012 75.4961C648.695 75.7773 648.379 76.041 648.062 76.2871C647.746 76.5332 647.482 76.7793 647.271 77.0254C647.061 77.2715 646.961 77.5293 646.973 77.7988L646.99 78.168H645.285V77.4648C645.285 77.207 645.385 76.9609 645.584 76.7266C645.795 76.4805 646.053 76.2402 646.357 76.0059C646.662 75.7598 646.967 75.5137 647.271 75.2676C647.588 75.0098 647.846 74.7461 648.045 74.4766C648.256 74.207 648.361 73.9199 648.361 73.6152C648.361 73.041 648.174 72.5664 647.799 72.1914C647.436 71.8164 646.902 71.6289 646.199 71.6289C645.496 71.6289 644.91 71.7695 644.441 72.0508C643.984 72.3203 643.545 72.7246 643.123 73.2637V71.3477C643.439 70.9609 643.891 70.6328 644.477 70.3633C645.062 70.0938 645.695 69.959 646.375 69.959ZM646.217 79.8555C646.557 79.8555 646.844 79.9785 647.078 80.2246C647.324 80.459 647.447 80.7461 647.447 81.0859C647.447 81.4141 647.324 81.7012 647.078 81.9473C646.844 82.1934 646.557 82.3164 646.217 82.3164C645.877 82.3164 645.584 82.1934 645.338 81.9473C645.104 81.7012 644.986 81.4141 644.986 81.0859C644.986 80.7461 645.104 80.459 645.338 80.2246C645.584 79.9785 645.877 79.8555 646.217 79.8555Z" fill="#1F365D"/>
<path d="M799.668 74.6667V66.6667H802.335V74.6667H810.335V77.3334H802.335V85.3334H799.668V77.3334H791.668V74.6667H799.668Z" fill="#1F365D"/>
</g>
<defs>
<filter id="filter0_d_610_6822" x="0" y="0" width="884" height="160" filterUnits="userSpaceOnUse" color-interpolation-filters="sRGB">
<feFlood flood-opacity="0" result="BackgroundImageFix"/>
<feColorMatrix in="SourceAlpha" type="matrix" values="0 0 0 0 0 0 0 0 0 0 0 0 0 0 0 0 0 0 127 0" result="hardAlpha"/>
<feOffset dy="4"/>
<feGaussianBlur stdDeviation="17.5"/>
<feComposite in2="hardAlpha" operator="out"/>
<feColorMatrix type="matrix" values="0 0 0 0 0.920833 0 0 0 0 0.916997 0 0 0 0 0.916997 0 0 0 0.25 0"/>
<feBlend mode="normal" in2="BackgroundImageFix" result="effect1_dropShadow_610_6822"/>
<feBlend mode="normal" in="SourceGraphic" in2="effect1_dropShadow_610_6822" result="shape"/>
</filter>
</defs>
</svg>
