<svg width="38" height="38" viewBox="0 0 38 38" fill="none" xmlns="http://www.w3.org/2000/svg">
<path d="M34.5023 2.375H17.8074C15.8754 2.375 14.3096 3.94113 14.3096 5.87285V14.0963C15.1921 14.535 16.1456 15.0093 17.0357 15.4517L18.3974 12.7271C19.2219 11.0795 21.2319 10.41 22.8789 11.2331C24.5294 12.0591 25.1983 14.0636 24.372 15.7144L21.9445 20.5705C22.0089 21.2132 21.9518 21.8612 21.7706 22.4883H23.3732L19.1463 34.1116C18.8955 34.8011 19.3802 35.6056 20.1929 35.6056C20.6472 35.6056 21.0745 35.3252 21.2386 34.8724L25.7422 22.4883H26.5223L31.0717 34.8761C31.2372 35.3267 31.6634 35.6056 32.1174 35.6056C32.8767 35.6056 33.4334 34.8472 33.1617 34.1087L28.8941 22.4883H34.5023C36.434 22.4883 38.0001 20.9221 38.0001 18.9904V5.87285C38.0001 3.94113 36.434 2.375 34.5023 2.375V2.375ZM32.1169 17.7189H27.1219C26.5072 17.7189 26.0086 17.2202 26.0086 16.6056C26.0086 15.9904 26.5072 15.4923 27.1219 15.4923H32.1169C32.7321 15.4923 33.2301 15.9904 33.2301 16.6056C33.2301 17.2202 32.7321 17.7189 32.1169 17.7189ZM32.1169 13.5449H27.1219C26.5072 13.5449 26.0086 13.0468 26.0086 12.4316C26.0086 11.817 26.5072 11.3184 27.1219 11.3184H32.1169C32.7321 11.3184 33.2301 11.817 33.2301 12.4316C33.2301 13.0468 32.7321 13.5449 32.1169 13.5449ZM32.1169 9.37157H20.1929C19.5777 9.37157 19.0796 8.87291 19.0796 8.25829C19.0796 7.64366 19.5777 7.145 20.1929 7.145H32.1169C32.7321 7.145 33.2301 7.64366 33.2301 8.25829C33.2301 8.87291 32.7321 9.37157 32.1169 9.37157Z" fill="#45B5E3"/>
<path d="M19.588 22.0108C19.7892 21.4214 19.7877 20.8056 19.6178 20.2437L22.3807 14.7185C22.6556 14.1685 22.4329 13.4997 21.8829 13.2249C21.3333 12.9497 20.6644 13.1727 20.3893 13.7226L18.0328 18.435C16.6244 17.7336 14.4845 16.6696 12.7607 15.8124C11.1569 15.0148 10.0123 14.2996 8.0594 14.2996H7.07571C8.59633 14.2996 9.95343 13.5997 10.8417 12.5044C11.5196 11.6709 11.9249 10.6086 11.9249 9.451C11.9249 6.77246 9.75397 4.60156 7.07513 4.60156C4.39746 4.60156 2.22656 6.77246 2.22656 9.451C2.22656 10.7374 2.72754 11.9063 3.54482 12.7737C4.42848 13.7134 5.68353 14.2996 7.07484 14.2999C5.20952 14.2999 3.38594 15.0557 2.07407 16.371C0.736679 17.7049 0 19.4821 0 21.3753V24.9526C0 26.4926 0.999924 27.803 2.38486 28.2692V34.492C2.38486 35.1069 2.88322 35.6053 3.49814 35.6053H10.6527C11.2676 35.6053 11.766 35.1069 11.766 34.492V21.9835C12.8216 22.5112 14.2083 23.2044 15.3302 23.7657C16.1168 24.1588 17.0358 24.1942 17.8554 23.8607C18.6727 23.5244 19.3027 22.855 19.5836 22.0238C19.5851 22.0195 19.5865 22.0151 19.588 22.0108Z" fill="#45B5E3"/>
</svg>
