<svg width="48" height="48" viewBox="0 0 48 48" fill="none" xmlns="http://www.w3.org/2000/svg">
<path d="M26.2848 18.4851C26.5717 18.4851 26.8483 18.5312 27.1147 18.608L32.0837 12.5171C32.4013 12.1278 32.9904 12.056 33.3747 12.3839C33.7486 12.6964 33.7998 13.2548 33.4874 13.6338L28.5747 19.6582C28.9076 20.1192 29.1074 20.6879 29.1074 21.3026C29.1074 22.445 28.421 23.4337 27.4425 23.8742H46.7194C47.4263 23.8742 48.0001 23.3005 48.0001 22.5935V6.38005C48.0001 5.67311 47.4263 5.09937 46.7194 5.09937H22.2327C21.5258 5.09937 20.952 5.67311 20.952 6.38005V17.0251L22.1098 18.4902H26.2848V18.4851Z" fill="#45B5E3"/>
<path d="M10.3122 11.4874C13.2093 11.4874 15.5579 9.13888 15.5579 6.24177C15.5579 3.34466 13.2093 0.996094 10.3122 0.996094C7.4151 0.996094 5.06653 3.34466 5.06653 6.24177C5.06653 9.13888 7.4151 11.4874 10.3122 11.4874Z" fill="#45B5E3"/>
<path d="M15.6909 45.7227C15.6909 46.4297 15.1172 47.0034 14.4102 47.0034H12.2587C11.5518 47.0034 10.978 46.4297 10.978 45.7227V34.9854C10.978 34.6064 10.6707 34.299 10.2916 34.299C9.91249 34.299 9.60512 34.6064 9.60512 34.9854V45.6715C9.60512 46.4041 9.00576 47.0034 8.27321 47.0034H6.16777C5.46083 47.0034 4.88709 46.4297 4.88709 45.7227L4.87684 19.8017C4.87684 19.4533 4.59509 19.1665 4.24162 19.1665C3.89328 19.1665 3.6064 19.4482 3.6064 19.8017V29.7705C3.6064 30.4774 3.03266 31.0512 2.32572 31.0512H1.28068C0.573746 31.0512 0 30.4774 0 29.7705V16.1031C0 14.4791 1.31654 13.1677 2.93533 13.1677H14.5998C15.8497 13.1677 17.0331 13.7415 17.8117 14.7199L20.9468 18.6747L21.6076 19.5097C21.6076 19.5097 24.5788 19.5097 26.2898 19.5148C26.9967 19.5148 27.5705 20.0885 27.5705 20.7955V21.8149C27.5705 22.5218 26.9967 23.0956 26.2898 23.0956H20.7471C20.1989 23.0956 19.6815 22.8446 19.3434 22.4142L17.0075 19.4123C16.8896 19.2586 16.7001 19.1664 16.5054 19.1664H16.3466C15.9983 19.1664 15.7115 19.4481 15.7115 19.8016L15.6909 45.7227Z" fill="#45B5E3"/>
</svg>
