<svg width="38" height="38" viewBox="0 0 38 38" fill="none" xmlns="http://www.w3.org/2000/svg">
<path d="M18.9999 4.75C14.128 4.75 10.1785 8.69949 10.1785 13.5714C10.1785 18.4434 14.128 22.3929 18.9999 22.3929C23.8718 22.3929 27.8213 18.4434 27.8213 13.5714C27.8213 11.2318 26.8919 8.98808 25.2376 7.33374C23.5832 5.6794 21.3395 4.75 18.9999 4.75ZM15.227 19.6175C15.0198 19.5962 14.8339 19.481 14.7226 19.3048C14.6114 19.1287 14.5872 18.9113 14.657 18.715C15.6979 16.2501 17.4183 14.132 19.6174 12.6079C19.9195 12.3905 20.3403 12.4571 20.5606 12.7571C20.6672 12.9028 20.7113 13.0849 20.6833 13.2632C20.6553 13.4414 20.5574 13.6012 20.4113 13.7071C18.7175 14.9203 17.3247 16.5058 16.3399 18.3418C17.1655 18.3346 17.985 18.1995 18.7692 17.9414C22.1145 16.8286 23.7228 12.635 22.8406 9.22857C21.9583 9.7781 20.9758 10.1471 19.9499 10.3143C18.4638 10.5654 17.2356 10.8368 16.2313 11.8546C15.3689 12.6936 14.8966 13.8548 14.9285 15.0575C14.9289 15.4194 14.6453 15.718 14.2838 15.7361C13.9091 15.7361 13.6053 15.4323 13.6053 15.0575C13.5554 13.4766 14.1679 11.9466 15.2949 10.8368C16.6045 9.54071 18.0838 9.20143 19.7463 8.92321C20.8725 8.7149 21.9317 8.23768 22.8338 7.53214C23.0031 7.4109 23.2188 7.37412 23.4187 7.43238C23.6187 7.49064 23.7808 7.63749 23.8585 7.83071C25.8603 12.9268 22.7795 20.4386 15.227 19.6175Z" fill="#45B5E3"/>
<path d="M15.4578 26.7835C14.4128 26.5121 12.8046 27.2246 11.5357 26.4917C11.4678 26.451 11.7732 25.6639 8.14282 36.2428L10.3889 34.6414C10.7404 34.3854 11.1933 34.3133 11.607 34.4476C12.0206 34.5819 12.3448 34.9063 12.4789 35.32L13.2796 38.0003L16.8489 27.6114C16.4279 27.2693 15.9593 26.9905 15.4578 26.7835Z" fill="#45B5E3"/>
<path d="M31.8113 12.0107C30.8477 10.6536 30.7052 10.2057 30.8613 8.44821C31.0174 6.69071 30.9224 6.56857 29.3413 5.84249C27.7602 5.11642 27.4481 4.79071 26.7288 3.22321C26.0095 1.65571 25.8195 1.55392 24.1163 1.70999C22.4131 1.86607 21.9313 1.70999 20.5538 0.759994C19.1763 -0.190006 18.8777 -0.251077 17.446 0.759994C16.0142 1.77107 15.607 1.85928 13.8835 1.70999C12.1599 1.56071 11.997 1.64892 11.271 3.22321C10.5449 4.79749 10.2124 5.12321 8.65846 5.84249C7.10453 6.56178 6.98239 6.74499 7.13846 8.44821C7.29453 10.1514 7.13846 10.6468 6.18846 12.0107C5.23846 13.3746 5.17739 13.6868 6.18846 15.1186C7.19953 16.5504 7.29453 16.9236 7.13846 18.6811C6.98239 20.4386 7.07739 20.5607 8.65846 21.2936C10.2395 22.0264 10.5449 22.3386 11.271 23.9061C11.997 25.4736 12.2142 25.5821 13.8835 25.4261C14.5215 25.3298 15.1714 25.3458 15.8038 25.4736C17.0456 25.7857 18.0906 27.1429 18.9999 27.1429C19.9092 27.1429 20.927 25.8264 22.196 25.4871C23.4649 25.1479 25.0324 25.7586 25.7856 25.3311C26.5388 24.9036 26.7831 23.2343 27.7195 22.2979C28.656 21.3614 30.3117 21.1239 30.7527 20.3639C31.1938 19.6039 30.5695 18.0568 30.9156 16.7743C31.2617 15.4918 32.5713 14.4739 32.5713 13.5714C32.4685 12.9905 32.2053 12.4499 31.8113 12.0107ZM18.9999 23.75C13.3784 23.75 8.82132 19.1929 8.82132 13.5714C8.82132 7.94995 13.3784 3.39285 18.9999 3.39285C24.6214 3.39285 29.1785 7.94995 29.1785 13.5714C29.1785 16.2709 28.1061 18.8599 26.1972 20.7688C24.2884 22.6776 21.6994 23.75 18.9999 23.75Z" fill="#45B5E3"/>
<path d="M26.4643 26.4642C25.209 27.1903 23.5465 26.4642 22.5422 26.7628C22.0504 26.9653 21.5926 27.2422 21.1851 27.5839L24.7204 38L25.5143 35.3535C25.6405 34.934 25.9614 34.6011 26.3761 34.4597C26.7908 34.3184 27.2482 34.3859 27.6043 34.641L29.8572 36.2357C26.2268 25.6703 26.5322 26.4642 26.4643 26.4642Z" fill="#45B5E3"/>
</svg>
