<svg width="38" height="38" viewBox="0 0 38 38" fill="none" xmlns="http://www.w3.org/2000/svg">
<path d="M34.2095 8.62207H26.0254V5.32424C26.0254 3.75398 24.7479 2.47656 23.1776 2.47656H14.8218C13.2515 2.47656 11.974 3.75398 11.974 5.32424V8.62207H3.78985C1.70499 8.62207 0.00878065 10.3183 0.00878065 12.4031C0.00878065 14.2969 -0.185165 15.9977 1.24994 17.9103C2.06191 18.9924 3.17772 19.7643 4.47669 20.1425L17.0906 23.8151C18.3394 24.1786 19.6596 24.1788 20.9086 23.8151L33.5226 20.1425C34.8215 19.7643 35.9373 18.9924 36.7493 17.9103C38.1909 15.9891 37.9905 14.2708 37.9905 12.4031C37.9905 10.3183 36.2944 8.62207 34.2095 8.62207ZM14.3861 5.32424C14.3861 5.08401 14.5815 4.88863 14.8218 4.88863H23.1776C23.4179 4.88863 23.6133 5.08409 23.6133 5.32424V8.62207H14.3861V5.32424Z" fill="#45B5E3"/>
<path d="M34.1969 22.4588C20.5912 26.4201 20.7674 26.5003 18.9996 26.5003C17.2445 26.5003 17.6609 26.4938 3.80245 22.4588C2.34126 22.0333 1.04719 21.2491 0.00878906 20.168V31.7426C0.00878906 33.8275 1.70493 35.5236 3.78986 35.5236H34.2095C36.2943 35.5236 37.9905 33.8275 37.9905 31.7426V20.168C36.9521 21.249 35.658 22.0333 34.1969 22.4588Z" fill="#45B5E3"/>
</svg>
