<svg width="24" height="24" viewBox="0 0 24 24" fill="none" xmlns="http://www.w3.org/2000/svg">
<path d="M22.5001 0H1.50023C0.671817 0 0.000244141 0.671573 0.000244141 1.49999V18.4999C0.000244141 19.3283 0.671817 19.9999 1.50023 19.9999H13.5001V18.9999H1.50023C1.22409 18.9999 1.00022 18.776 1.00022 18.4999V1.49999C1.00022 1.22385 1.22409 0.999977 1.50023 0.999977H22.5001C22.7762 0.999977 23.0001 1.22385 23.0001 1.49999V18.4999C23.0001 18.776 22.7762 18.9999 22.5001 18.9999H21.5001V19.9999H22.5001C23.3285 19.9999 24.0001 19.3283 24.0001 18.4999V1.49999C24.0001 0.671573 23.3285 0 22.5001 0Z" fill="#C8C8C8"/>
<path d="M20.9999 5.00001C19.8953 5.00001 18.9999 4.10457 18.9999 3.00001C18.9999 2.72387 18.776 2.5 18.4999 2.5H5.50002C5.22388 2.5 5.00001 2.72387 5.00001 3.00001C5.00001 4.10457 4.10457 5.00001 3.00001 5.00001C2.72387 5.00001 2.5 5.22388 2.5 5.50002V14.5C2.5 14.7761 2.72387 15 3.00001 15C4.10457 15 5.00001 15.8954 5.00001 17C5.00001 17.2761 5.22388 17.5 5.50002 17.5H12V16.4999H5.9585C5.74344 15.2419 4.75804 14.2565 3.50002 14.0414V5.9585C4.75804 5.74344 5.74344 4.75804 5.9585 3.50002H18.0414C18.2565 4.75804 19.2419 5.74344 20.4999 5.9585V9.99999H21.4999V5.50002C21.4999 5.22384 21.276 5.00001 20.9999 5.00001Z" fill="#C8C8C8"/>
<path d="M17.5 10.5C15.0147 10.5 13 12.5147 13 15C13 17.4852 15.0147 19.4999 17.5 19.4999C19.984 19.4969 21.9969 17.484 21.9999 15C21.9999 12.5147 19.9852 10.5 17.5 10.5ZM17.5 18.5C15.567 18.5 14 16.933 14 15C14 13.067 15.5669 11.5 17.5 11.5C19.432 11.5022 20.9977 13.0679 21 15C20.9999 16.9329 19.4329 18.5 17.5 18.5Z" fill="#C8C8C8"/>
<path d="M19.4999 18V22.4595L17.8124 21.1095C17.6298 20.9632 17.3701 20.9632 17.1875 21.1095L15.5 22.4595V18H14.5V23.5C14.5 23.6136 14.5386 23.7239 14.6097 23.8127C14.7823 24.0282 15.0969 24.0631 15.3125 23.8905L17.5 22.1405L19.6875 23.8905C19.7762 23.9614 19.8864 24 20 24C20.2761 24 20.5 23.7761 20.5 23.5V18H19.4999Z" fill="#C8C8C8"/>
<path d="M16.9999 5H7.00001C6.72387 5 6.5 5.22387 6.5 5.50001V7.49996C6.5 7.7761 6.72387 7.99997 7.00001 7.99997H16.9999C17.2761 7.99997 17.4999 7.7761 17.4999 7.49996V5.49996C17.4999 5.22383 17.2761 5 16.9999 5ZM16.4999 6.99995H7.49998V5.99997H16.4999V6.99995Z" fill="#C8C8C8"/>
<path d="M6.99998 9.5H6V10.5H6.99998V9.5Z" fill="#C8C8C8"/>
<path d="M8.99998 9.5H8V10.5H8.99998V9.5Z" fill="#C8C8C8"/>
<path d="M12 11.5H6V12.5H12V11.5Z" fill="#C8C8C8"/>
<path d="M17.5 12.5C16.1193 12.5 15 13.6193 15 15C15 16.3807 16.1193 17.4999 17.5 17.4999C18.88 17.4983 19.9983 16.38 19.9999 15C19.9999 13.6193 18.8807 12.5 17.5 12.5ZM17.5 16.5C16.6716 16.5 16 15.8284 16 15C16 14.1716 16.6716 13.5 17.5 13.5C18.3284 13.5 19 14.1716 19 15C19 15.8284 18.3284 16.5 17.5 16.5Z" fill="#C8C8C8"/>
<path d="M3.50022 16.5H2.50024V17.5H3.50022V16.5Z" fill="#C8C8C8"/>
<path d="M21.5 2.5H20.5V3.49998H21.5V2.5Z" fill="#C8C8C8"/>
<path d="M3.50022 2.5H2.50024V3.49998H3.50022V2.5Z" fill="#C8C8C8"/>
</svg>
