<svg width="24" height="24" viewBox="0 0 24 24" fill="none" xmlns="http://www.w3.org/2000/svg">
<path d="M22.4999 0H1.50011C0.671695 0 0.00012207 0.671573 0.00012207 1.49999V18.4999C0.00012207 19.3283 0.671695 19.9999 1.50011 19.9999H13.5V18.9999H1.50011C1.22397 18.9999 1.0001 18.776 1.0001 18.4999V1.49999C1.0001 1.22385 1.22397 0.999977 1.50011 0.999977H22.4999C22.7761 0.999977 23 1.22385 23 1.49999V18.4999C23 18.776 22.7761 18.9999 22.4999 18.9999H21.5V19.9999H22.4999C23.3284 19.9999 23.9999 19.3283 23.9999 18.4999V1.49999C23.9999 0.671573 23.3284 0 22.4999 0Z" fill="#C8C8C8"/>
<path d="M21 5.00001C19.8954 5.00001 19 4.10457 19 3.00001C19 2.72387 18.7761 2.5 18.5 2.5H5.50015C5.22401 2.5 5.00013 2.72387 5.00013 3.00001C5.00013 4.10457 4.10469 5.00001 3.00013 5.00001C2.724 5.00001 2.50012 5.22388 2.50012 5.50002V14.5C2.50012 14.7761 2.724 15 3.00013 15C4.10469 15 5.00013 15.8954 5.00013 17C5.00013 17.2761 5.22401 17.5 5.50015 17.5H12.0001V16.4999H5.95863C5.74357 15.2419 4.75817 14.2565 3.50015 14.0414V5.9585C4.75817 5.74344 5.74357 4.75804 5.95863 3.50002H18.0415C18.2566 4.75804 19.242 5.74344 20.5 5.9585V9.99999H21.5V5.50002C21.5 5.22384 21.2761 5.00001 21 5.00001Z" fill="#C8C8C8"/>
<path d="M17.5001 10.5C15.0148 10.5 13.0001 12.5147 13.0001 15C13.0001 17.4852 15.0148 19.4999 17.5001 19.4999C19.9841 19.4969 21.997 17.484 22.0001 15C22.0001 12.5147 19.9853 10.5 17.5001 10.5ZM17.5001 18.5C15.5671 18.5 14.0001 16.933 14.0001 15C14.0001 13.067 15.5671 11.5 17.5001 11.5C19.4322 11.5022 20.9979 13.0679 21.0001 15C21 16.9329 19.4331 18.5 17.5001 18.5Z" fill="#C8C8C8"/>
<path d="M19.5001 18V22.4595L17.8126 21.1095C17.6299 20.9632 17.3703 20.9632 17.1876 21.1095L15.5001 22.4595V18H14.5001V23.5C14.5001 23.6136 14.5387 23.7239 14.6098 23.8127C14.7824 24.0282 15.0971 24.0631 15.3126 23.8905L17.5001 22.1405L19.6876 23.8905C19.7763 23.9614 19.8865 24 20.0001 24C20.2762 24 20.5001 23.7761 20.5001 23.5V18H19.5001Z" fill="#C8C8C8"/>
<path d="M17 5H7.00013C6.72399 5 6.50012 5.22387 6.50012 5.50001V7.49996C6.50012 7.7761 6.72399 7.99997 7.00013 7.99997H17C17.2762 7.99997 17.5001 7.7761 17.5001 7.49996V5.49996C17.5001 5.22383 17.2762 5 17 5ZM16.5 6.99995H7.5001V5.99997H16.5V6.99995Z" fill="#C8C8C8"/>
<path d="M7.0001 9.5H6.00012V10.5H7.0001V9.5Z" fill="#C8C8C8"/>
<path d="M9.0001 9.5H8.00012V10.5H9.0001V9.5Z" fill="#C8C8C8"/>
<path d="M12.0001 11.5H6.00012V12.5H12.0001V11.5Z" fill="#C8C8C8"/>
<path d="M17.5001 12.5C16.1194 12.5 15.0001 13.6193 15.0001 15C15.0001 16.3807 16.1194 17.4999 17.5001 17.4999C18.8801 17.4983 19.9984 16.38 20.0001 15C20.0001 13.6193 18.8808 12.5 17.5001 12.5ZM17.5001 16.5C16.6717 16.5 16.0001 15.8284 16.0001 15C16.0001 14.1716 16.6717 13.5 17.5001 13.5C18.3285 13.5 19.0001 14.1716 19.0001 15C19.0001 15.8284 18.3285 16.5 17.5001 16.5Z" fill="#C8C8C8"/>
<path d="M3.5001 16.5H2.50012V17.5H3.5001V16.5Z" fill="#C8C8C8"/>
<path d="M21.5 2.5H20.5V3.49998H21.5V2.5Z" fill="#C8C8C8"/>
<path d="M3.5001 2.5H2.50012V3.49998H3.5001V2.5Z" fill="#C8C8C8"/>
</svg>
