<svg width="705" height="713" viewBox="0 0 705 713" fill="none" xmlns="http://www.w3.org/2000/svg">
<rect width="705" height="713" fill="white"/>
<g clip-path="url(#clip0_746_11304)">
<path d="M673.512 30.8041L682.766 21.5237C683.368 20.9201 683.368 19.9441 682.766 19.3404C682.164 18.7368 681.19 18.7368 680.589 19.3404L671.335 28.6208L662.082 19.3404C661.48 18.7368 660.507 18.7368 659.905 19.3404C659.303 19.9441 659.303 20.9201 659.905 21.5237L669.158 30.8041L659.905 40.0844C659.303 40.688 659.303 41.6641 659.905 42.2677C660.205 42.5688 660.599 42.7201 660.993 42.7201C661.387 42.7201 661.782 42.5688 662.082 42.2677L671.335 32.9874L680.589 42.2677C680.889 42.5688 681.283 42.7201 681.677 42.7201C682.071 42.7201 682.465 42.5688 682.766 42.2677C683.368 41.6641 683.368 40.688 682.766 40.0844L673.512 30.8041Z" fill="#838383"/>
</g>
<defs>
<clipPath id="clip0_746_11304">
<rect width="23.764" height="23.8329" fill="white" transform="translate(659.453 18.8682)"/>
</clipPath>
</defs>
</svg>
