<svg width="36" height="36" viewBox="0 0 36 36" fill="none" xmlns="http://www.w3.org/2000/svg">
<path d="M30.375 23.0625H27V24.1875H25.3125V25.3125H32.0625V24.1875H30.375V23.0625Z" fill="#45B5E3"/>
<path d="M29.8121 10.6875C29.9882 10.6875 30.3651 10.1121 30.6345 9H28.9897C29.2592 10.1121 29.6361 10.6875 29.8121 10.6875Z" fill="#45B5E3"/>
<path d="M27.6572 7.875C27.6156 7.50544 27.5869 7.12856 27.5734 6.75H25.3516C25.4011 7.14263 25.4995 7.52006 25.6441 7.875H27.6572Z" fill="#45B5E3"/>
<path d="M30.8358 7.875C30.8791 7.52962 30.9112 7.15669 30.9264 6.75H28.6978C28.7129 7.15669 28.7456 7.52962 28.7883 7.875H30.8358Z" fill="#45B5E3"/>
<path d="M30.8357 4.5H28.7888C28.7455 4.84538 28.7134 5.21831 28.6982 5.625H30.9269C30.9117 5.21831 30.8791 4.84538 30.8357 4.5Z" fill="#45B5E3"/>
<path d="M27.6572 4.5H25.6441C25.5001 4.85494 25.4011 5.23237 25.3516 5.625H27.5734C27.5869 5.24644 27.6156 4.86956 27.6572 4.5Z" fill="#45B5E3"/>
<path d="M26.3052 9C26.812 9.63056 27.4853 10.1194 28.2576 10.4051C28.0821 9.99619 27.9426 9.51694 27.8346 9H26.3052Z" fill="#45B5E3"/>
<path d="M29.8121 1.6875C29.6361 1.6875 29.2592 2.26294 28.9897 3.375H30.6345C30.3651 2.26294 29.9882 1.6875 29.8121 1.6875Z" fill="#45B5E3"/>
<path d="M28.2576 1.96973C27.4853 2.25548 26.812 2.74429 26.3052 3.37485H27.8346C27.9432 2.85791 28.0821 2.37866 28.2576 1.96973Z" fill="#45B5E3"/>
<path d="M32.0516 5.625H34.2735C34.224 5.23237 34.1255 4.85494 33.981 4.5H31.9678C32.0094 4.86956 32.0381 5.24644 32.0516 5.625Z" fill="#45B5E3"/>
<path d="M31.9678 7.875H33.981C34.125 7.52006 34.224 7.14263 34.2735 6.75H32.0516C32.0381 7.12856 32.0094 7.50544 31.9678 7.875Z" fill="#45B5E3"/>
<path d="M33.3196 9H31.7902C31.6822 9.51694 31.5427 9.99619 31.3672 10.4051C32.1395 10.1194 32.8128 9.63056 33.3196 9Z" fill="#45B5E3"/>
<path d="M33.3196 3.37485C32.8128 2.74429 32.1395 2.25548 31.3672 1.96973C31.5427 2.37866 31.6822 2.85791 31.7902 3.37485H33.3196Z" fill="#45B5E3"/>
<path d="M33.75 14.0625H23.625C23.3151 14.0625 23.0625 14.3151 23.0625 14.625V19.6875H34.3125V14.625C34.3125 14.3151 34.0599 14.0625 33.75 14.0625Z" fill="#45B5E3"/>
<path d="M23.0625 21.375C23.0625 21.6849 23.3151 21.9375 23.625 21.9375H33.75C34.0599 21.9375 34.3125 21.6849 34.3125 21.375V20.8125H23.0625V21.375Z" fill="#45B5E3"/>
<path d="M2.25 12.9375H7.875C8.18494 12.9375 8.4375 12.6849 8.4375 12.375V11.8125H1.6875V12.375C1.6875 12.6849 1.94006 12.9375 2.25 12.9375Z" fill="#45B5E3"/>
<path d="M1.6875 3.9375H8.4375V10.6875H1.6875V3.9375Z" fill="#45B5E3"/>
<path d="M8.4375 2.25C8.4375 1.94006 8.18494 1.6875 7.875 1.6875H2.25C1.94006 1.6875 1.6875 1.94006 1.6875 2.25V2.8125H8.4375V2.25Z" fill="#45B5E3"/>
<path d="M6.75 16.3125C3.95888 16.3125 1.6875 18.5839 1.6875 21.375C1.6875 24.1661 3.95888 26.4375 6.75 26.4375C9.54112 26.4375 11.8125 24.1661 11.8125 21.375C11.8125 18.5839 9.54112 16.3125 6.75 16.3125ZM6.75 25.3125C5.81962 25.3125 5.0625 24.5554 5.0625 23.625C5.0625 22.6946 5.81962 21.9375 6.75 21.9375C7.68038 21.9375 8.4375 22.6946 8.4375 23.625C8.4375 24.5554 7.68038 25.3125 6.75 25.3125ZM8.739 21.636C7.64269 20.5397 5.85787 20.5397 4.76156 21.636L3.96563 20.8406C5.50069 19.3056 7.99875 19.3056 9.53381 20.8406L8.739 21.636ZM10.3298 20.0453C8.35538 18.0714 5.14406 18.0714 3.16969 20.0453L2.37431 19.2499C4.78688 16.8373 8.71256 16.8373 11.1251 19.2499L10.3298 20.0453Z" fill="#45B5E3"/>
<path d="M6.75 24.1875C7.06066 24.1875 7.3125 23.9357 7.3125 23.625C7.3125 23.3143 7.06066 23.0625 6.75 23.0625C6.43934 23.0625 6.1875 23.3143 6.1875 23.625C6.1875 23.9357 6.43934 24.1875 6.75 24.1875Z" fill="#45B5E3"/>
<path d="M28.1248 28.125C28.1248 28.4349 27.8722 28.6875 27.5623 28.6875H24.7217C24.7369 28.8737 24.7498 29.0599 24.7498 29.25C24.7498 29.4401 24.7369 29.6263 24.7217 29.8125H27.5623C28.4927 29.8125 29.2498 29.0554 29.2498 28.125V26.4375H28.1248V28.125Z" fill="#45B5E3"/>
<path d="M7.875 28.6873C7.56506 28.6873 7.3125 28.4347 7.3125 28.1248V27.5342C7.12687 27.5511 6.94012 27.5623 6.75 27.5623C6.55988 27.5623 6.37313 27.5505 6.1875 27.5342V28.1248C6.1875 29.0552 6.94462 29.8123 7.875 29.8123H11.2781C11.2629 29.6261 11.25 29.4399 11.25 29.2498C11.25 29.0597 11.2629 28.8735 11.2781 28.6873H7.875Z" fill="#45B5E3"/>
<path d="M15.75 19.125H16.875V20.25H15.75V19.125Z" fill="#45B5E3"/>
<path d="M15.75 16.875H16.875V18H15.75V16.875Z" fill="#45B5E3"/>
<path d="M15.75 8.4375V15.75H16.875V8.4375C16.875 7.50712 16.1179 6.75 15.1875 6.75H9.5625V7.875H15.1875C15.4974 7.875 15.75 8.12756 15.75 8.4375Z" fill="#45B5E3"/>
<path d="M19.125 19.125H20.25V20.25H19.125V19.125Z" fill="#45B5E3"/>
<path d="M19.125 16.875H20.25V18H19.125V16.875Z" fill="#45B5E3"/>
<path d="M20.25 7.3125C20.25 7.00256 20.5026 6.75 20.8125 6.75H24.2156C24.1976 6.56494 24.1875 6.37762 24.1875 6.1875C24.1875 5.99738 24.1976 5.81006 24.2156 5.625H20.8125C19.8821 5.625 19.125 6.38212 19.125 7.3125V15.75H20.25V7.3125Z" fill="#45B5E3"/>
<path d="M19.125 23.7381V22.5C19.125 21.8784 18.6216 21.375 18 21.375C17.3784 21.375 16.875 21.8784 16.875 22.5V23.7381C14.3077 24.2595 12.375 26.5286 12.375 29.25C12.375 32.3567 14.8933 34.875 18 34.875C21.1067 34.875 23.625 32.3567 23.625 29.25C23.625 26.5286 21.6923 24.2595 19.125 23.7381ZM18 32.625C16.1359 32.625 14.625 31.1141 14.625 29.25C14.625 27.7813 15.5649 26.5348 16.875 26.0713V28.125C16.875 28.7466 17.3784 29.25 18 29.25C18.6216 29.25 19.125 28.7466 19.125 28.125V26.0713C20.4351 26.5354 21.375 27.7813 21.375 29.25C21.375 31.1141 19.8641 32.625 18 32.625Z" fill="#45B5E3"/>
</svg>
