<svg width="48" height="48" viewBox="0 0 48 48" fill="none" xmlns="http://www.w3.org/2000/svg">
<path d="M18.2889 20.0277C19.5154 20.0277 20.5129 19.0298 20.5129 17.8033C20.5129 16.5769 19.5154 15.5793 18.2889 15.5793C17.0625 15.5793 16.0649 16.5769 16.0649 17.8033C16.0649 19.0298 17.0625 20.0277 18.2889 20.0277Z" fill="#45B5E3"/>
<path d="M29.711 27.9724C28.485 27.9724 27.487 28.9703 27.487 30.1968C27.487 31.4232 28.485 32.4208 29.711 32.4208C30.9375 32.4208 31.935 31.4232 31.935 30.1968C31.935 28.9703 30.9375 27.9724 29.711 27.9724Z" fill="#45B5E3"/>
<path d="M45.2864 27.3721L48 24L45.2864 20.6279L46.8329 16.5817L43.2041 14.2156L43.4172 9.89026L39.2377 8.76233L38.1097 4.58276L33.7844 4.7959L31.4183 1.16711L27.3717 2.71362L24 0L20.6283 2.71362L16.5817 1.16711L14.2156 4.7959L9.89026 4.58276L8.76233 8.76233L4.58276 9.89026L4.7959 14.2152L1.16711 16.5817L2.71362 20.6279L0 24L2.71362 27.3721L1.16711 31.4183L4.7959 33.7844L4.58276 38.1097L8.76233 39.2377L9.89026 43.4172L14.2156 43.2041L16.582 46.8329L20.6283 45.2864L24 48L27.3717 45.2864L31.4183 46.8329L33.7844 43.2041L38.1097 43.4172L39.2377 39.2377L43.4172 38.1097L43.2041 33.7848L46.8329 31.4183L45.2864 27.3721ZM18.2889 12.7463C21.0773 12.7463 23.3459 15.015 23.3459 17.8033C23.3459 20.592 21.0776 22.8607 18.2889 22.8607C15.5006 22.8607 13.2316 20.592 13.2316 17.8033C13.2316 15.015 15.5006 12.7463 18.2889 12.7463ZM15.0157 35.0361L13.0126 33.033L32.6796 13.366L34.6827 15.3691L15.0157 35.0361ZM29.7111 35.2537C26.9227 35.2537 24.6541 32.985 24.6541 30.1967C24.6541 27.408 26.9227 25.1393 29.7111 25.1393C32.4998 25.1393 34.7684 27.408 34.7684 30.1967C34.7684 32.985 32.4998 35.2537 29.7111 35.2537Z" fill="#45B5E3"/>
</svg>
