<svg width="195" height="220" viewBox="0 0 195 220" fill="none" xmlns="http://www.w3.org/2000/svg">
<path d="M0.591135 39.7885C14.6517 22.7828 33.5211 10.4207 54.7271 4.32161C75.9332 -1.77745 98.487 -1.32896 119.434 5.6083C140.381 12.5456 158.744 25.6481 172.117 43.1993C185.49 60.7506 193.251 81.932 194.381 103.969C195.511 126.005 189.959 147.87 178.452 166.697C166.944 185.525 150.018 200.437 129.891 209.481C109.764 218.526 87.3745 221.279 65.6557 217.382C43.9369 213.485 23.9018 203.118 8.17498 187.64L8.76733 187.038C24.3729 202.397 44.2536 212.684 65.8049 216.551C87.3562 220.418 109.573 217.686 129.545 208.711C149.517 199.737 166.312 184.939 177.731 166.257C189.15 147.575 194.659 125.879 193.538 104.012C192.416 82.1452 184.716 61.1271 171.445 43.7112C158.175 26.2952 139.954 13.2937 119.168 6.40996C98.383 -0.47382 76.0031 -0.918846 54.9605 5.13318C33.918 11.1852 15.1942 23.452 1.24196 40.3266L0.591135 39.7885Z" fill="#1F365D"/>
</svg>
