<svg width="262" height="263" viewBox="0 0 262 263" fill="none" xmlns="http://www.w3.org/2000/svg">
<path d="M262 131.578C262 163.603 250.269 194.518 229.024 218.482C207.78 242.445 178.493 257.796 146.699 261.634C114.905 265.472 82.8066 257.53 56.47 239.311C30.1334 221.091 11.383 193.855 3.76272 162.75C-3.85762 131.645 0.179938 98.8261 15.1123 70.4958C30.0447 42.1655 54.8374 20.2864 84.8049 8.9934C114.772 -2.2996 147.839 -2.22414 177.754 9.20554C207.67 20.6352 232.362 42.6273 247.165 71.0255L246.27 71.4923C231.581 43.3131 207.079 21.4906 177.394 10.1491C147.709 -1.19247 114.898 -1.26736 85.1611 9.93857C55.4247 21.1445 30.8231 42.8549 16.0059 70.9668C1.18861 99.0787 -2.81782 131.644 4.74376 162.509C12.3053 193.374 30.9111 220.401 57.0446 238.48C83.1782 256.559 115.029 264.44 146.578 260.631C178.127 256.823 207.188 241.59 228.269 217.812C249.35 194.033 260.99 163.356 260.99 131.578H262Z" fill="#1F365D"/>
</svg>
