<svg width="262" height="263" viewBox="0 0 262 263" fill="none" xmlns="http://www.w3.org/2000/svg">
<path d="M262 131.579C262 163.604 250.269 194.519 229.024 218.483C207.78 242.446 178.493 257.797 146.699 261.635C114.905 265.473 82.8066 257.531 56.47 239.312C30.1334 221.092 11.383 193.856 3.76272 162.751C-3.85762 131.646 0.179938 98.8271 15.1123 70.4968C30.0447 42.1665 54.8374 20.2874 84.8049 8.99438C114.772 -2.29863 147.839 -2.22316 177.754 9.20652C207.67 20.6362 232.362 42.6283 247.165 71.0264L246.27 71.4933C231.581 43.3141 207.079 21.4916 177.394 10.1501C147.709 -1.1915 114.898 -1.26638 85.1611 9.93955C55.4247 21.1455 30.8231 42.8559 16.0059 70.9678C1.18861 99.0796 -2.81782 131.645 4.74376 162.51C12.3053 193.375 30.9111 220.402 57.0446 238.481C83.1782 256.56 115.029 264.44 146.578 260.632C178.127 256.824 207.188 241.591 228.269 217.813C249.35 194.034 260.99 163.357 260.99 131.579H262Z" fill="#1F365D"/>
</svg>
