<svg width="89" height="91" viewBox="0 0 89 91" fill="none" xmlns="http://www.w3.org/2000/svg">
<path d="M13.2276 13.69C20.632 6.10509 30.4331 1.47207 40.8715 0.622643C51.3099 -0.226791 61.7021 2.76299 70.1826 9.05529C78.6631 15.3476 84.6764 24.5303 87.1433 34.9552C89.6101 45.38 88.3688 56.3642 83.6422 65.9359C78.9157 75.5077 71.0134 83.0403 61.3539 87.1814C51.6944 91.3226 40.9102 91.8011 30.9373 88.5312C20.9644 85.2613 12.4558 78.457 6.93888 69.3398C1.42198 60.2226 -0.741928 49.3895 0.835594 38.7852L1.17116 38.8376C-0.394196 49.3602 1.75303 60.1097 7.22739 69.1566C12.7018 78.2035 21.1447 84.9553 31.0408 88.2C40.9368 91.4448 51.6378 90.9699 61.2228 86.8607C70.8079 82.7514 78.6492 75.277 83.3394 65.779C88.0295 56.281 89.2612 45.3815 86.8134 35.0371C84.3656 24.6926 78.3986 15.5807 69.9835 9.33691C61.5684 3.09312 51.2563 0.126396 40.8984 0.969276C30.5404 1.81216 20.8149 6.40945 13.4677 13.9359L13.2276 13.69Z" fill="#1F365D"/>
</svg>
