<svg width="89" height="91" viewBox="0 0 89 91" fill="none" xmlns="http://www.w3.org/2000/svg">
<path d="M13.2278 13.69C20.6322 6.10509 30.4332 1.47207 40.8717 0.622643C51.3101 -0.226791 61.7023 2.76299 70.1828 9.05529C78.6633 15.3476 84.6766 24.5303 87.1434 34.9552C89.6103 45.38 88.369 56.3642 83.6424 65.9359C78.9159 75.5077 71.0136 83.0403 61.3541 87.1814C51.6945 91.3226 40.9104 91.8011 30.9375 88.5312C20.9646 85.2613 12.456 78.457 6.93906 69.3398C1.42216 60.2226 -0.741745 49.3895 0.835777 38.7852L1.17134 38.8376C-0.394012 49.3602 1.75321 60.1097 7.22758 69.1566C12.7019 78.2035 21.1449 84.9553 31.041 88.2C40.937 91.4448 51.638 90.9699 61.223 86.8607C70.808 82.7514 78.6494 75.277 83.3395 65.779C88.0296 56.281 89.2614 45.3815 86.8136 35.0371C84.3658 24.6926 78.3987 15.5807 69.9837 9.33691C61.5686 3.09312 51.2565 0.126396 40.8986 0.969276C30.5406 1.81216 20.8151 6.40945 13.4678 13.9359L13.2278 13.69Z" fill="#1F365D"/>
</svg>
