<svg width="23" height="23" viewBox="0 0 23 23" fill="none" xmlns="http://www.w3.org/2000/svg">
<path d="M5.55891 9.15875H18.3819L18.8419 7.31875H7.39891V5.47875H20.0213C20.1611 5.47875 20.2992 5.51064 20.4248 5.57198C20.5505 5.63332 20.6605 5.72251 20.7466 5.83275C20.8326 5.943 20.8924 6.07141 20.9213 6.20823C20.9503 6.34504 20.9477 6.48666 20.9137 6.62231L18.6137 15.8223C18.5639 16.0213 18.449 16.1978 18.2873 16.324C18.1256 16.4502 17.9264 16.5187 17.7213 16.5187H4.63891C4.39491 16.5187 4.1609 16.4218 3.98837 16.2493C3.81583 16.0768 3.71891 15.8427 3.71891 15.5987V4.55875H1.87891V2.71875H4.63891C4.88291 2.71875 5.11691 2.81568 5.28944 2.98821C5.46198 3.16075 5.55891 3.39475 5.55891 3.63875V9.15875ZM5.55891 22.0387C5.07091 22.0387 4.6029 21.8449 4.25783 21.4998C3.91276 21.1548 3.71891 20.6867 3.71891 20.1987C3.71891 19.7108 3.91276 19.2427 4.25783 18.8977C4.6029 18.5526 5.07091 18.3587 5.55891 18.3587C6.0469 18.3587 6.51492 18.5526 6.85998 18.8977C7.20505 19.2427 7.39891 19.7108 7.39891 20.1987C7.39891 20.6867 7.20505 21.1548 6.85998 21.4998C6.51492 21.8449 6.0469 22.0387 5.55891 22.0387ZM16.5989 22.0387C16.1109 22.0387 15.6429 21.8449 15.2978 21.4998C14.9528 21.1548 14.7589 20.6867 14.7589 20.1987C14.7589 19.7108 14.9528 19.2427 15.2978 18.8977C15.6429 18.5526 16.1109 18.3587 16.5989 18.3587C17.0869 18.3587 17.5549 18.5526 17.9 18.8977C18.245 19.2427 18.4389 19.7108 18.4389 20.1987C18.4389 20.6867 18.245 21.1548 17.9 21.4998C17.5549 21.8449 17.0869 22.0387 16.5989 22.0387Z" fill="#45B5E3"/>
</svg>
