<svg width="26" height="26" viewBox="0 0 26 26" fill="none" xmlns="http://www.w3.org/2000/svg">
<rect x="0.5" y="0.5" width="25" height="25" rx="12.5" fill="white"/>
<g clip-path="url(#clip0_429_4632)">
<path d="M9.6653 10.5156H7.1595C6.90572 10.5156 6.69922 10.7221 6.69922 10.9759V19.0259C6.69922 19.2797 6.9057 19.4862 7.1595 19.4862H9.6653C9.91911 19.4862 10.1256 19.2797 10.1256 19.0259V10.9759C10.1256 10.7221 9.91911 10.5156 9.6653 10.5156ZM9.60769 18.9683H7.21716V11.0335H9.60769V18.9683Z" fill="#1F365D"/>
<path d="M9.7633 7.07381C9.40197 6.71263 8.92224 6.51367 8.41247 6.51367C7.35792 6.51367 6.5 7.37081 6.5 8.42434C6.5 9.47828 7.35792 10.3357 8.41247 10.3357C9.46629 10.3357 10.3236 9.47828 10.3236 8.42437C10.3237 7.9147 10.1247 7.43507 9.7633 7.07381ZM8.41247 9.81778C7.64354 9.81778 7.01792 9.19266 7.01792 8.42434C7.01792 7.65638 7.64352 7.03162 8.41247 7.03162C8.78394 7.03162 9.13364 7.1767 9.39712 7.44013C9.6606 7.70353 9.80568 8.05308 9.80568 8.42434C9.80571 9.19269 9.18072 9.81778 8.41247 9.81778Z" fill="#1F365D"/>
<path d="M18.9193 11.7129C18.3726 10.7859 17.4027 10.3159 16.0364 10.3159C15.1562 10.3159 14.5166 10.6163 14.0911 10.9262C14.066 10.6959 13.8703 10.516 13.6335 10.516H11.2337C10.9799 10.516 10.7734 10.7224 10.7734 10.9763V19.0263C10.7734 19.2801 10.9799 19.4866 11.2337 19.4866H13.734C13.9878 19.4866 14.1943 19.2801 14.1943 19.0263V15.0434C14.1943 13.6933 14.5602 13.4374 15.2355 13.4374C15.8957 13.4374 16.0765 13.7975 16.0765 15.1125V19.0264C16.0765 19.2802 16.2829 19.4867 16.5368 19.4867H19.038C19.2918 19.4867 19.4983 19.2802 19.4983 19.0264V14.6108C19.4983 13.7186 19.4325 12.583 18.9193 11.7129ZM18.9803 18.9687H16.5944V15.1125C16.5944 14.5879 16.5798 14.0415 16.4058 13.633C16.2042 13.1595 15.8104 12.9194 15.2355 12.9194C13.8616 12.9194 13.6764 13.9931 13.6764 15.0434V18.9687H11.2914V11.0339H13.5758V11.4991C13.5758 11.6059 13.6413 11.7017 13.7408 11.7404C13.8403 11.7792 13.9534 11.7529 14.0256 11.6742C14.3137 11.3604 14.958 10.8339 16.0364 10.8339C18.6237 10.8339 18.9804 12.6491 18.9804 14.6108V18.9687H18.9803Z" fill="#1F365D"/>
<path d="M7.74333 15.7451C7.60031 15.7451 7.48438 15.8611 7.48438 16.0041V18.4125C7.48438 18.5555 7.60031 18.6714 7.74333 18.6714C7.88636 18.6714 8.00229 18.5555 8.00229 18.4125V16.0041C8.00229 15.8611 7.88636 15.7451 7.74333 15.7451Z" fill="#1F365D"/>
<path d="M7.74333 14.6572C7.60031 14.6572 7.48438 14.7732 7.48438 14.9162V15.1492C7.48438 15.2923 7.60031 15.4082 7.74333 15.4082C7.88636 15.4082 8.00229 15.2923 8.00229 15.1492V14.9162C8.00229 14.7732 7.88636 14.6572 7.74333 14.6572Z" fill="#1F365D"/>
</g>
<rect x="0.5" y="0.5" width="25" height="25" rx="12.5" stroke="#45B5E3"/>
<defs>
<clipPath id="clip0_429_4632">
<rect width="13" height="13" fill="white" transform="translate(6.5 6.5)"/>
</clipPath>
</defs>
</svg>
