<svg width="26" height="26" viewBox="0 0 26 26" fill="none" xmlns="http://www.w3.org/2000/svg">
<rect x="0.5" y="0.5" width="25" height="25" rx="12.5" fill="white"/>
<g clip-path="url(#clip0_429_4236)">
<path d="M9.6653 10.5156H7.1595C6.90572 10.5156 6.69922 10.7221 6.69922 10.9759V19.0259C6.69922 19.2797 6.9057 19.4862 7.1595 19.4862H9.6653C9.91911 19.4862 10.1256 19.2797 10.1256 19.0259V10.9759C10.1256 10.7221 9.91911 10.5156 9.6653 10.5156ZM9.60769 18.9683H7.21716V11.0335H9.60769V18.9683Z" fill="#1F365D"/>
<path d="M9.7633 7.07357C9.40197 6.71239 8.92224 6.51343 8.41247 6.51343C7.35792 6.51343 6.5 7.37057 6.5 8.4241C6.5 9.47804 7.35792 10.3355 8.41247 10.3355C9.46629 10.3355 10.3236 9.47804 10.3236 8.42412C10.3237 7.91446 10.1247 7.43483 9.7633 7.07357ZM8.41247 9.81754C7.64354 9.81754 7.01792 9.19242 7.01792 8.4241C7.01792 7.65613 7.64352 7.03137 8.41247 7.03137C8.78394 7.03137 9.13364 7.17645 9.39712 7.43988C9.6606 7.70328 9.80568 8.05284 9.80568 8.4241C9.80571 9.19245 9.18072 9.81754 8.41247 9.81754Z" fill="#1F365D"/>
<path d="M18.9193 11.7126C18.3726 10.7857 17.4027 10.3157 16.0364 10.3157C15.1562 10.3157 14.5166 10.616 14.0911 10.9259C14.066 10.6956 13.8703 10.5157 13.6335 10.5157H11.2337C10.9799 10.5157 10.7734 10.7222 10.7734 10.976V19.026C10.7734 19.2798 10.9799 19.4863 11.2337 19.4863H13.734C13.9878 19.4863 14.1943 19.2799 14.1943 19.026V15.0432C14.1943 13.6931 14.5602 13.4371 15.2355 13.4371C15.8957 13.4371 16.0765 13.7972 16.0765 15.1123V19.0262C16.0765 19.28 16.2829 19.4865 16.5368 19.4865H19.038C19.2918 19.4865 19.4983 19.28 19.4983 19.0262V14.6105C19.4983 13.7184 19.4325 12.5828 18.9193 11.7126ZM18.9803 18.9685H16.5944V15.1122C16.5944 14.5876 16.5798 14.0413 16.4058 13.6328C16.2042 13.1593 15.8104 12.9192 15.2355 12.9192C13.8616 12.9192 13.6764 13.9929 13.6764 15.0432V18.9684H11.2914V11.0337H13.5758V11.4989C13.5758 11.6056 13.6413 11.7014 13.7408 11.7402C13.8403 11.779 13.9534 11.7527 14.0256 11.674C14.3137 11.3602 14.958 10.8336 16.0364 10.8336C18.6237 10.8336 18.9804 12.6489 18.9804 14.6105V18.9685H18.9803Z" fill="#1F365D"/>
<path d="M7.74333 15.7451C7.60031 15.7451 7.48438 15.8611 7.48438 16.0041V18.4125C7.48438 18.5555 7.60031 18.6714 7.74333 18.6714C7.88636 18.6714 8.00229 18.5555 8.00229 18.4125V16.0041C8.00229 15.8611 7.88636 15.7451 7.74333 15.7451Z" fill="#1F365D"/>
<path d="M7.74333 14.6572C7.60031 14.6572 7.48438 14.7732 7.48438 14.9162V15.1492C7.48438 15.2923 7.60031 15.4082 7.74333 15.4082C7.88636 15.4082 8.00229 15.2923 8.00229 15.1492V14.9162C8.00229 14.7732 7.88636 14.6572 7.74333 14.6572Z" fill="#1F365D"/>
</g>
<rect x="0.5" y="0.5" width="25" height="25" rx="12.5" stroke="#45B5E3"/>
<defs>
<clipPath id="clip0_429_4236">
<rect width="13" height="13" fill="white" transform="translate(6.5 6.5)"/>
</clipPath>
</defs>
</svg>
