<svg width="73" height="73" viewBox="0 0 73 73" fill="none" xmlns="http://www.w3.org/2000/svg">
<path d="M51.9248 27.6071L54.36 27.0416C55.0059 26.8916 55.6849 27.0043 56.2476 27.3549C56.8103 27.7056 57.2108 28.2654 57.3607 28.9112L63.0159 53.2632C63.1659 53.9091 63.0532 54.5881 62.7026 55.1508C62.3519 55.7135 61.7921 56.1139 61.1463 56.2639L22.1831 65.3123C21.5372 65.4622 20.8583 65.3495 20.2955 64.9989C19.7328 64.6483 19.3324 64.0884 19.1824 63.4426L13.5272 39.0906C13.3772 38.4448 13.4899 37.7658 13.8406 37.203C14.1912 36.6403 14.751 36.2399 15.3969 36.0899L17.8321 35.5244L17.2665 33.0892C16.7467 30.8506 16.6728 28.5316 17.0492 26.2645C17.4256 23.9974 18.2448 21.8266 19.4601 19.8761C20.6754 17.9256 22.263 16.2336 24.1322 14.8966C26.0015 13.5597 28.1157 12.604 30.3543 12.0841C32.5928 11.5643 34.9119 11.4904 37.179 11.8668C39.4461 12.2432 41.6169 13.0624 43.5673 14.2777C45.5178 15.493 47.2099 17.0806 48.5468 18.9499C49.8838 20.8191 50.8394 22.9333 51.3593 25.1719L51.9248 27.6071ZM47.0544 28.7381L46.4889 26.3029C45.739 23.0737 43.7369 20.2746 40.9232 18.5214C38.1095 16.7682 34.7146 16.2046 31.4853 16.9545C28.256 17.7045 25.4569 19.7065 23.7038 22.5202C21.9506 25.3339 21.387 28.7289 22.1369 31.9581L22.7025 34.3933L47.0544 28.7381ZM34.7053 41.872L36.9674 51.6128L41.8378 50.4818L39.5757 40.741L34.7053 41.872Z" fill="#45B5E3"/>
</svg>
