<svg width="22" height="22" viewBox="0 0 22 22" fill="none" xmlns="http://www.w3.org/2000/svg">
<path d="M3.66732 7.3335H18.334V19.2502C18.334 19.4933 18.2374 19.7264 18.0655 19.8983C17.8936 20.0703 17.6604 20.1668 17.4173 20.1668H4.58398C4.34087 20.1668 4.10771 20.0703 3.9358 19.8983C3.7639 19.7264 3.66732 19.4933 3.66732 19.2502V7.3335ZM5.50065 9.16683V18.3335H16.5007V9.16683H5.50065ZM8.25065 11.0002H10.084V16.5002H8.25065V11.0002ZM11.9173 11.0002H13.7507V16.5002H11.9173V11.0002ZM6.41732 4.5835V2.75016C6.41732 2.50705 6.5139 2.27389 6.6858 2.10198C6.85771 1.93007 7.09087 1.8335 7.33398 1.8335H14.6673C14.9104 1.8335 15.1436 1.93007 15.3155 2.10198C15.4874 2.27389 15.584 2.50705 15.584 2.75016V4.5835H20.1673V6.41683H1.83398V4.5835H6.41732ZM8.25065 3.66683V4.5835H13.7507V3.66683H8.25065Z" fill="#BEBEBE"/>
</svg>
