<svg width="20" height="20" viewBox="0 0 20 20" fill="none" xmlns="http://www.w3.org/2000/svg">
<path d="M15.7458 17.3854H4.25861C4.041 17.3854 3.8323 17.299 3.67842 17.1451C3.52455 16.9912 3.4381 16.7825 3.4381 16.5649V9.18027H0.976562L9.45 1.4773C9.60106 1.33984 9.79796 1.26367 10.0022 1.26367C10.2064 1.26367 10.4033 1.33984 10.5544 1.4773L19.0278 9.18027H16.5663V16.5649C16.5663 16.7825 16.4799 16.9912 16.326 17.1451C16.1721 17.299 15.9634 17.3854 15.7458 17.3854ZM5.07913 15.7444H14.9253V7.66807L10.0022 3.19299L5.07913 7.66807V15.7444ZM10.0022 12.4623C9.45817 12.4623 8.93642 12.2462 8.55173 11.8615C8.16704 11.4768 7.95092 10.9551 7.95092 10.411C7.95092 9.86701 8.16704 9.34526 8.55173 8.96057C8.93642 8.57588 9.45817 8.35976 10.0022 8.35976C10.5462 8.35976 11.068 8.57588 11.4527 8.96057C11.8374 9.34526 12.0535 9.86701 12.0535 10.411C12.0535 10.9551 11.8374 11.4768 11.4527 11.8615C11.068 12.2462 10.5462 12.4623 10.0022 12.4623Z" fill="#45B5E3"/>
</svg>
