<svg width="22" height="22" viewBox="0 0 22 22" fill="none" xmlns="http://www.w3.org/2000/svg">
<path d="M18.3327 20.167H16.4993V18.3337C16.4993 17.6043 16.2096 16.9048 15.6939 16.3891C15.1782 15.8734 14.4787 15.5837 13.7493 15.5837H8.24935C7.52 15.5837 6.82053 15.8734 6.30481 16.3891C5.78908 16.9048 5.49935 17.6043 5.49935 18.3337V20.167H3.66602V18.3337C3.66602 17.1181 4.1489 15.9523 5.00844 15.0928C5.86798 14.2332 7.03377 13.7503 8.24935 13.7503H13.7493C14.9649 13.7503 16.1307 14.2332 16.9903 15.0928C17.8498 15.9523 18.3327 17.1181 18.3327 18.3337V20.167ZM10.9993 11.917C10.2771 11.917 9.56188 11.7747 8.89459 11.4983C8.2273 11.2219 7.62098 10.8168 7.11026 10.3061C6.59954 9.79536 6.19441 9.18904 5.91801 8.52175C5.64161 7.85446 5.49935 7.13926 5.49935 6.41699C5.49935 5.69472 5.64161 4.97952 5.91801 4.31223C6.19441 3.64494 6.59954 3.03863 7.11026 2.5279C7.62098 2.01718 8.2273 1.61206 8.89459 1.33565C9.56188 1.05925 10.2771 0.916992 10.9993 0.916992C12.458 0.916992 13.857 1.49645 14.8884 2.5279C15.9199 3.55936 16.4993 4.9583 16.4993 6.41699C16.4993 7.87568 15.9199 9.27463 14.8884 10.3061C13.857 11.3375 12.458 11.917 10.9993 11.917ZM10.9993 10.0837C11.9718 10.0837 12.9044 9.69735 13.5921 9.00972C14.2797 8.32208 14.666 7.38945 14.666 6.41699C14.666 5.44453 14.2797 4.5119 13.5921 3.82427C12.9044 3.13663 11.9718 2.75033 10.9993 2.75033C10.0269 2.75033 9.09426 3.13663 8.40662 3.82427C7.71899 4.5119 7.33268 5.44453 7.33268 6.41699C7.33268 7.38945 7.71899 8.32208 8.40662 9.00972C9.09426 9.69735 10.0269 10.0837 10.9993 10.0837Z" fill="#BEBEBE"/>
</svg>
