<svg width="26" height="26" viewBox="0 0 26 26" fill="none" xmlns="http://www.w3.org/2000/svg">
<path d="M22.7493 3.25C23.0367 3.25 23.3122 3.36414 23.5154 3.5673C23.7185 3.77047 23.8327 4.04602 23.8327 4.33333V11.9167H21.666V5.41667H4.33268V20.5833H10.8327V22.75H3.24935C2.96203 22.75 2.68648 22.6359 2.48332 22.4327C2.28015 22.2295 2.16602 21.954 2.16602 21.6667V4.33333C2.16602 4.04602 2.28015 3.77047 2.48332 3.5673C2.68648 3.36414 2.96203 3.25 3.24935 3.25H22.7493ZM22.7493 14.0833C23.0367 14.0833 23.3122 14.1975 23.5154 14.4006C23.7185 14.6038 23.8327 14.8793 23.8327 15.1667V21.6667C23.8327 21.954 23.7185 22.2295 23.5154 22.4327C23.3122 22.6359 23.0367 22.75 22.7493 22.75H14.0827C13.7954 22.75 13.5198 22.6359 13.3167 22.4327C13.1135 22.2295 12.9993 21.954 12.9993 21.6667V15.1667C12.9993 14.8793 13.1135 14.6038 13.3167 14.4006C13.5198 14.1975 13.7954 14.0833 14.0827 14.0833H22.7493ZM7.26527 6.81742L9.70277 9.25492L11.916 7.04167V13H5.95768L8.17093 10.7867L5.73343 8.34925L7.26527 6.81742Z" fill="#E0E0E0"/>
</svg>
