<svg width="22" height="22" viewBox="0 0 22 22" fill="none" xmlns="http://www.w3.org/2000/svg">
<path d="M5.5 7.33268V6.41602C5.5 4.95733 6.07946 3.55838 7.11091 2.52693C8.14236 1.49548 9.54131 0.916016 11 0.916016C12.4587 0.916016 13.8576 1.49548 14.8891 2.52693C15.9205 3.55838 16.5 4.95733 16.5 6.41602V7.33268H18.3333C18.5764 7.33268 18.8096 7.42926 18.9815 7.60117C19.1534 7.77308 19.25 8.00623 19.25 8.24935V19.2494C19.25 19.4925 19.1534 19.7256 18.9815 19.8975C18.8096 20.0694 18.5764 20.166 18.3333 20.166H3.66667C3.42355 20.166 3.19039 20.0694 3.01849 19.8975C2.84658 19.7256 2.75 19.4925 2.75 19.2494V8.24935C2.75 8.00623 2.84658 7.77308 3.01849 7.60117C3.19039 7.42926 3.42355 7.33268 3.66667 7.33268H5.5ZM17.4167 9.16602H4.58333V18.3327H17.4167V9.16602ZM10.0833 14.4204C9.73382 14.2186 9.46066 13.9071 9.30622 13.5342C9.15178 13.1614 9.12468 12.748 9.22914 12.3581C9.33359 11.9683 9.56376 11.6238 9.88394 11.3782C10.2041 11.1325 10.5964 10.9993 11 10.9993C11.4036 10.9993 11.7959 11.1325 12.1161 11.3782C12.4362 11.6238 12.6664 11.9683 12.7709 12.3581C12.8753 12.748 12.8482 13.1614 12.6938 13.5342C12.5393 13.9071 12.2662 14.2186 11.9167 14.4204V16.4994H10.0833V14.4204ZM7.33333 7.33268H14.6667V6.41602C14.6667 5.44356 14.2804 4.51092 13.5927 3.82329C12.9051 3.13566 11.9725 2.74935 11 2.74935C10.0275 2.74935 9.09491 3.13566 8.40728 3.82329C7.71964 4.51092 7.33333 5.44356 7.33333 6.41602V7.33268Z" fill="#BEBEBE"/>
</svg>
