<svg width="52" height="52" viewBox="0 0 52 52" fill="none" xmlns="http://www.w3.org/2000/svg">
<rect width="52" height="52" rx="26" fill="white" fill-opacity="0.15"/>
<g clip-path="url(#clip0_160_1660)">
<path d="M19.843 21.4136H15.2169C14.7484 21.4136 14.3672 21.7948 14.3672 22.2633V37.1249C14.3672 37.5935 14.7484 37.9747 15.2169 37.9747H19.843C20.3116 37.9747 20.6928 37.5935 20.6928 37.1249V22.2633C20.6928 21.7948 20.3116 21.4136 19.843 21.4136ZM19.7367 37.0185H15.3234V22.3697H19.7367V37.0185Z" fill="white"/>
<path d="M20.0246 15.0595C19.3575 14.3927 18.4718 14.0254 17.5307 14.0254C15.5839 14.0254 14 15.6078 14 17.5528C14 19.4985 15.5839 21.0815 17.5307 21.0815C19.4762 21.0815 21.059 19.4985 21.059 17.5528C21.059 16.6119 20.6917 15.7264 20.0246 15.0595ZM17.5307 20.1253C16.1112 20.1253 14.9562 18.9712 14.9562 17.5528C14.9562 16.135 16.1111 14.9816 17.5307 14.9816C18.2165 14.9816 18.8621 15.2494 19.3485 15.7358C19.835 16.222 20.1028 16.8674 20.1028 17.5528C20.1028 18.9713 18.949 20.1253 17.5307 20.1253Z" fill="white"/>
<path d="M36.9331 23.623C35.9238 21.9116 34.1332 21.0439 31.6108 21.0439C29.9858 21.0439 28.805 21.5985 28.0194 22.1706C27.9731 21.7454 27.6119 21.4133 27.1746 21.4133H22.7443C22.2758 21.4133 21.8945 21.7945 21.8945 22.263V37.1246C21.8945 37.5931 22.2757 37.9744 22.7443 37.9744H27.3602C27.8288 37.9744 28.21 37.5932 28.21 37.1246V29.7717C28.21 27.2791 28.8855 26.8067 30.1322 26.8067C31.351 26.8067 31.6848 27.4714 31.6848 29.8992V37.1249C31.6848 37.5934 32.0659 37.9746 32.5345 37.9746H37.1522C37.6207 37.9746 38.0019 37.5934 38.0019 37.1249V28.9729C38.0019 27.3258 37.8804 25.2293 36.9331 23.623ZM37.0458 37.0184H32.641V29.8991C32.641 28.9307 32.614 27.922 32.2928 27.1678C31.9205 26.2937 31.1935 25.8505 30.1323 25.8505C27.5958 25.8505 27.2539 27.8327 27.2539 29.7717V37.0183H22.8507V22.3695H27.0682V23.2283C27.0682 23.4254 27.1891 23.6023 27.3728 23.6738C27.5565 23.7454 27.7652 23.6968 27.8985 23.5516C28.4304 22.9722 29.6199 22.0001 31.6108 22.0001C36.3873 22.0001 37.0458 25.3514 37.0458 28.9729V37.0184H37.0458Z" fill="white"/>
<path d="M16.2945 31.0676C16.0304 31.0676 15.8164 31.2817 15.8164 31.5457V35.9919C15.8164 36.256 16.0304 36.47 16.2945 36.47C16.5585 36.47 16.7726 36.256 16.7726 35.9919V31.5457C16.7726 31.2817 16.5585 31.0676 16.2945 31.0676Z" fill="white"/>
<path d="M16.2945 29.0598C16.0304 29.0598 15.8164 29.2738 15.8164 29.5379V29.9682C15.8164 30.2322 16.0304 30.4462 16.2945 30.4462C16.5585 30.4462 16.7726 30.2322 16.7726 29.9682V29.5379C16.7726 29.2738 16.5585 29.0598 16.2945 29.0598Z" fill="white"/>
</g>
<defs>
<clipPath id="clip0_160_1660">
<rect width="24" height="24" fill="white" transform="translate(14 14)"/>
</clipPath>
</defs>
</svg>
