<svg width="23" height="23" viewBox="0 0 23 23" fill="none" xmlns="http://www.w3.org/2000/svg">
<path d="M5.56013 9.15875H18.3831L18.8431 7.31875H7.40013V5.47875H20.0225C20.1624 5.47875 20.3004 5.51064 20.4261 5.57198C20.5517 5.63332 20.6618 5.72251 20.7478 5.83275C20.8338 5.943 20.8936 6.07141 20.9226 6.20823C20.9515 6.34504 20.9489 6.48666 20.9149 6.62231L18.6149 15.8223C18.5651 16.0213 18.4502 16.1978 18.2885 16.324C18.1268 16.4502 17.9276 16.5187 17.7225 16.5187H4.64013C4.39613 16.5187 4.16212 16.4218 3.98959 16.2493C3.81706 16.0768 3.72013 15.8427 3.72013 15.5987V4.55875H1.88013V2.71875H4.64013C4.88413 2.71875 5.11813 2.81568 5.29066 2.98821C5.4632 3.16075 5.56013 3.39475 5.56013 3.63875V9.15875ZM5.56013 22.0387C5.07213 22.0387 4.60412 21.8449 4.25905 21.4998C3.91398 21.1548 3.72013 20.6867 3.72013 20.1987C3.72013 19.7108 3.91398 19.2427 4.25905 18.8977C4.60412 18.5526 5.07213 18.3587 5.56013 18.3587C6.04813 18.3587 6.51614 18.5526 6.8612 18.8977C7.20627 19.2427 7.40013 19.7108 7.40013 20.1987C7.40013 20.6867 7.20627 21.1548 6.8612 21.4998C6.51614 21.8449 6.04813 22.0387 5.56013 22.0387ZM16.6001 22.0387C16.1121 22.0387 15.6441 21.8449 15.2991 21.4998C14.954 21.1548 14.7601 20.6867 14.7601 20.1987C14.7601 19.7108 14.954 19.2427 15.2991 18.8977C15.6441 18.5526 16.1121 18.3587 16.6001 18.3587C17.0881 18.3587 17.5561 18.5526 17.9012 18.8977C18.2463 19.2427 18.4401 19.7108 18.4401 20.1987C18.4401 20.6867 18.2463 21.1548 17.9012 21.4998C17.5561 21.8449 17.0881 22.0387 16.6001 22.0387Z" fill="white"/>
</svg>
