<svg width="26" height="26" viewBox="0 0 26 26" fill="none" xmlns="http://www.w3.org/2000/svg">
<path d="M9.6304 17.334H5.41732C5.13 17.334 4.85445 17.2199 4.65129 17.0167C4.44812 16.8135 4.33398 16.538 4.33398 16.2507V9.75067C4.33398 9.46336 4.44812 9.18781 4.65129 8.98464C4.85445 8.78148 5.13 8.66734 5.41732 8.66734H9.6304L15.3656 3.97434C15.4449 3.90928 15.5411 3.86811 15.643 3.8556C15.7448 3.84309 15.8481 3.85978 15.9409 3.9037C16.0336 3.94763 16.112 4.017 16.1668 4.10373C16.2216 4.19045 16.2507 4.29098 16.2507 4.39359V21.6078C16.2507 21.7104 16.2216 21.8109 16.1668 21.8976C16.112 21.9843 16.0336 22.0537 15.9409 22.0976C15.8481 22.1416 15.7448 22.1583 15.643 22.1457C15.5411 22.1332 15.4449 22.0921 15.3656 22.027L9.63148 17.334H9.6304ZM20.4356 17.9743L18.8951 16.4338C19.421 16.0293 19.8469 15.5094 20.1397 14.9141C20.4326 14.3188 20.5846 13.6641 20.584 13.0007C20.584 11.4515 19.7715 10.0919 18.5473 9.32601L20.1062 7.76709C20.9268 8.37071 21.5938 9.15901 22.0532 10.0682C22.5126 10.9774 22.7515 11.982 22.7507 13.0007C22.7507 14.9962 21.8515 16.7815 20.4356 17.9743Z" fill="#E0E0E0"/>
</svg>
