<svg width="22" height="22" viewBox="0 0 22 22" fill="none" xmlns="http://www.w3.org/2000/svg">
<path d="M3.66732 7.33301H18.334V19.2497C18.334 19.4928 18.2374 19.7259 18.0655 19.8979C17.8936 20.0698 17.6604 20.1663 17.4173 20.1663H4.58398C4.34087 20.1663 4.10771 20.0698 3.9358 19.8979C3.7639 19.7259 3.66732 19.4928 3.66732 19.2497V7.33301ZM5.50065 9.16634V18.333H16.5007V9.16634H5.50065ZM8.25065 10.9997H10.084V16.4997H8.25065V10.9997ZM11.9173 10.9997H13.7507V16.4997H11.9173V10.9997ZM6.41732 4.58301V2.74967C6.41732 2.50656 6.5139 2.2734 6.6858 2.10149C6.85771 1.92958 7.09087 1.83301 7.33398 1.83301H14.6673C14.9104 1.83301 15.1436 1.92958 15.3155 2.10149C15.4874 2.2734 15.584 2.50656 15.584 2.74967V4.58301H20.1673V6.41634H1.83398V4.58301H6.41732ZM8.25065 3.66634V4.58301H13.7507V3.66634H8.25065Z" fill="#45B5E3"/>
</svg>
