<svg width="28" height="28" viewBox="0 0 28 28" fill="none" xmlns="http://www.w3.org/2000/svg">
<path d="M15.3076 19.8603L10.4087 17.1887C9.76915 17.8724 8.93871 18.348 8.02531 18.5535C7.11191 18.7591 6.1578 18.6852 5.28697 18.3414C4.41613 17.9976 3.66884 17.3998 3.14222 16.6257C2.6156 15.8516 2.33398 14.937 2.33398 14.0007C2.33398 13.0645 2.6156 12.1499 3.14222 11.3758C3.66884 10.6017 4.41613 10.0039 5.28697 9.66011C6.1578 9.3163 7.11191 9.24238 8.02531 9.44795C8.93871 9.65352 9.76915 10.1291 10.4087 10.8128L15.3087 8.14116C15.0305 7.03991 15.1635 5.87501 15.6828 4.86481C16.2021 3.85461 17.0719 3.06847 18.1293 2.65374C19.1868 2.23901 20.3591 2.22418 21.4267 2.61201C22.4943 2.99985 23.3838 3.76372 23.9284 4.76046C24.4731 5.7572 24.6355 6.91836 24.3853 8.02629C24.135 9.13422 23.4893 10.1129 22.5692 10.7788C21.649 11.4447 20.5176 11.7521 19.3869 11.6435C18.2563 11.5348 17.2041 11.0176 16.4276 10.1887L11.5276 12.8603C11.7156 13.6086 11.7156 14.3917 11.5276 15.14L16.4264 17.8117C17.2029 16.9827 18.2551 16.4655 19.3858 16.3568C20.5164 16.2482 21.6478 16.5556 22.568 17.2215C23.4882 17.8874 24.1339 18.8661 24.3841 19.974C24.6343 21.082 24.4719 22.2431 23.9272 23.2398C23.3826 24.2366 22.4931 25.0005 21.4255 25.3883C20.358 25.7761 19.1856 25.7613 18.1282 25.3466C17.0707 24.9318 16.2009 24.1457 15.6816 23.1355C15.1624 22.1253 15.0294 20.9604 15.3076 19.8592V19.8603ZM7.00089 16.3335C7.61973 16.3335 8.21322 16.0877 8.65081 15.6501C9.08839 15.2125 9.33422 14.619 9.33422 14.0002C9.33422 13.3813 9.08839 12.7878 8.65081 12.3502C8.21322 11.9127 7.61973 11.6668 7.00089 11.6668C6.38205 11.6668 5.78856 11.9127 5.35098 12.3502C4.91339 12.7878 4.66756 13.3813 4.66756 14.0002C4.66756 14.619 4.91339 15.2125 5.35098 15.6501C5.78856 16.0877 6.38205 16.3335 7.00089 16.3335ZM19.8342 9.33349C20.4531 9.33349 21.0466 9.08766 21.4841 8.65007C21.9217 8.21249 22.1676 7.61899 22.1676 7.00016C22.1676 6.38132 21.9217 5.78782 21.4841 5.35024C21.0466 4.91266 20.4531 4.66682 19.8342 4.66682C19.2154 4.66682 18.6219 4.91266 18.1843 5.35024C17.7467 5.78782 17.5009 6.38132 17.5009 7.00016C17.5009 7.61899 17.7467 8.21249 18.1843 8.65007C18.6219 9.08766 19.2154 9.33349 19.8342 9.33349ZM19.8342 23.3335C20.4531 23.3335 21.0466 23.0877 21.4841 22.6501C21.9217 22.2125 22.1676 21.619 22.1676 21.0002C22.1676 20.3813 21.9217 19.7878 21.4841 19.3502C21.0466 18.9127 20.4531 18.6668 19.8342 18.6668C19.2154 18.6668 18.6219 18.9127 18.1843 19.3502C17.7467 19.7878 17.5009 20.3813 17.5009 21.0002C17.5009 21.619 17.7467 22.2125 18.1843 22.6501C18.6219 23.0877 19.2154 23.3335 19.8342 23.3335Z" fill="#DBDBDB"/>
</svg>
