<svg width="23" height="23" viewBox="0 0 23 23" fill="none" xmlns="http://www.w3.org/2000/svg">
<path d="M5.55988 9.16021H18.3828L18.8428 7.32021H7.39988V5.48021H20.0223C20.1621 5.48022 20.3001 5.5121 20.4258 5.57344C20.5515 5.63479 20.6615 5.72397 20.7476 5.83422C20.8336 5.94447 20.8934 6.07288 20.9223 6.20969C20.9513 6.34651 20.9487 6.48812 20.9147 6.62377L18.6147 15.8238C18.5648 16.0227 18.45 16.1993 18.2883 16.3255C18.1266 16.4517 17.9274 16.5202 17.7223 16.5202H4.63988C4.39588 16.5202 4.16188 16.4233 3.98934 16.2508C3.81681 16.0782 3.71988 15.8442 3.71988 15.6002V4.56021H1.87988V2.72021H4.63988C4.88388 2.72021 5.11789 2.81714 5.29042 2.98968C5.46295 3.16221 5.55988 3.39622 5.55988 3.64021V9.16021ZM5.55988 22.0402C5.07188 22.0402 4.60387 21.8464 4.25881 21.5013C3.91374 21.1562 3.71988 20.6882 3.71988 20.2002C3.71988 19.7122 3.91374 19.2442 4.25881 18.8991C4.60387 18.5541 5.07188 18.3602 5.55988 18.3602C6.04788 18.3602 6.51589 18.5541 6.86096 18.8991C7.20603 19.2442 7.39988 19.7122 7.39988 20.2002C7.39988 20.6882 7.20603 21.1562 6.86096 21.5013C6.51589 21.8464 6.04788 22.0402 5.55988 22.0402ZM16.5999 22.0402C16.1119 22.0402 15.6439 21.8464 15.2988 21.5013C14.9537 21.1562 14.7599 20.6882 14.7599 20.2002C14.7599 19.7122 14.9537 19.2442 15.2988 18.8991C15.6439 18.5541 16.1119 18.3602 16.5999 18.3602C17.0879 18.3602 17.5559 18.5541 17.901 18.8991C18.246 19.2442 18.4399 19.7122 18.4399 20.2002C18.4399 20.6882 18.246 21.1562 17.901 21.5013C17.5559 21.8464 17.0879 22.0402 16.5999 22.0402Z" fill="white"/>
</svg>
