<svg width="23" height="23" viewBox="0 0 23 23" fill="none" xmlns="http://www.w3.org/2000/svg">
<path d="M5.56 9.16021H18.383L18.843 7.32021H7.4V5.48021H20.0224C20.1622 5.48022 20.3003 5.5121 20.4259 5.57344C20.5516 5.63479 20.6616 5.72397 20.7477 5.83422C20.8337 5.94447 20.8935 6.07288 20.9224 6.20969C20.9514 6.34651 20.9488 6.48812 20.9148 6.62377L18.6148 15.8238C18.565 16.0227 18.4501 16.1993 18.2884 16.3255C18.1267 16.4517 17.9275 16.5202 17.7224 16.5202H4.64C4.39601 16.5202 4.162 16.4233 3.98947 16.2508C3.81693 16.0782 3.72 15.8442 3.72 15.6002V4.56021H1.88V2.72021H4.64C4.884 2.72021 5.11801 2.81714 5.29054 2.98968C5.46308 3.16221 5.56 3.39622 5.56 3.64021V9.16021ZM5.56 22.0402C5.07201 22.0402 4.604 21.8464 4.25893 21.5013C3.91386 21.1562 3.72 20.6882 3.72 20.2002C3.72 19.7122 3.91386 19.2442 4.25893 18.8991C4.604 18.5541 5.07201 18.3602 5.56 18.3602C6.048 18.3602 6.51601 18.5541 6.86108 18.8991C7.20615 19.2442 7.4 19.7122 7.4 20.2002C7.4 20.6882 7.20615 21.1562 6.86108 21.5013C6.51601 21.8464 6.048 22.0402 5.56 22.0402ZM16.6 22.0402C16.112 22.0402 15.644 21.8464 15.2989 21.5013C14.9539 21.1562 14.76 20.6882 14.76 20.2002C14.76 19.7122 14.9539 19.2442 15.2989 18.8991C15.644 18.5541 16.112 18.3602 16.6 18.3602C17.088 18.3602 17.556 18.5541 17.9011 18.8991C18.2461 19.2442 18.44 19.7122 18.44 20.2002C18.44 20.6882 18.2461 21.1562 17.9011 21.5013C17.556 21.8464 17.088 22.0402 16.6 22.0402Z" fill="white"/>
</svg>
