<svg width="22" height="22" viewBox="0 0 22 22" fill="none" xmlns="http://www.w3.org/2000/svg">
<path d="M5.5 7.33317V6.4165C5.5 4.95781 6.07946 3.55887 7.11091 2.52742C8.14236 1.49597 9.54131 0.916504 11 0.916504C12.4587 0.916504 13.8576 1.49597 14.8891 2.52742C15.9205 3.55887 16.5 4.95781 16.5 6.4165V7.33317H18.3333C18.5764 7.33317 18.8096 7.42975 18.9815 7.60166C19.1534 7.77357 19.25 8.00672 19.25 8.24984V19.2498C19.25 19.493 19.1534 19.7261 18.9815 19.898C18.8096 20.0699 18.5764 20.1665 18.3333 20.1665H3.66667C3.42355 20.1665 3.19039 20.0699 3.01849 19.898C2.84658 19.7261 2.75 19.493 2.75 19.2498V8.24984C2.75 8.00672 2.84658 7.77357 3.01849 7.60166C3.19039 7.42975 3.42355 7.33317 3.66667 7.33317H5.5ZM17.4167 9.1665H4.58333V18.3332H17.4167V9.1665ZM10.0833 14.4208C9.73382 14.219 9.46066 13.9076 9.30622 13.5347C9.15178 13.1619 9.12468 12.7485 9.22914 12.3586C9.33359 11.9688 9.56376 11.6243 9.88394 11.3786C10.2041 11.133 10.5964 10.9998 11 10.9998C11.4036 10.9998 11.7959 11.133 12.1161 11.3786C12.4362 11.6243 12.6664 11.9688 12.7709 12.3586C12.8753 12.7485 12.8482 13.1619 12.6938 13.5347C12.5393 13.9076 12.2662 14.219 11.9167 14.4208V16.4998H10.0833V14.4208ZM7.33333 7.33317H14.6667V6.4165C14.6667 5.44404 14.2804 4.51141 13.5927 3.82378C12.9051 3.13615 11.9725 2.74984 11 2.74984C10.0275 2.74984 9.09491 3.13615 8.40728 3.82378C7.71964 4.51141 7.33333 5.44404 7.33333 6.4165V7.33317Z" fill="#BEBEBE"/>
</svg>
