<svg width="23" height="23" viewBox="0 0 23 23" fill="none" xmlns="http://www.w3.org/2000/svg">
<path d="M5.55994 9.15973H18.3829L18.8429 7.31973H7.39994V5.47973H20.0223C20.1622 5.47973 20.3002 5.51161 20.4259 5.57296C20.5515 5.6343 20.6616 5.72348 20.7476 5.83373C20.8336 5.94398 20.8934 6.07239 20.9224 6.2092C20.9513 6.34602 20.9487 6.48763 20.9147 6.62329L18.6147 15.8233C18.5649 16.0222 18.45 16.1988 18.2883 16.325C18.1266 16.4512 17.9274 16.5197 17.7223 16.5197H4.63994C4.39594 16.5197 4.16194 16.4228 3.98941 16.2503C3.81687 16.0777 3.71994 15.8437 3.71994 15.5997V4.55973H1.87994V2.71973H4.63994C4.88394 2.71973 5.11795 2.81665 5.29048 2.98919C5.46302 3.16172 5.55994 3.39573 5.55994 3.63973V9.15973ZM5.55994 22.0397C5.07195 22.0397 4.60393 21.8459 4.25887 21.5008C3.9138 21.1557 3.71994 20.6877 3.71994 20.1997C3.71994 19.7117 3.9138 19.2437 4.25887 18.8986C4.60393 18.5536 5.07195 18.3597 5.55994 18.3597C6.04794 18.3597 6.51595 18.5536 6.86102 18.8986C7.20609 19.2437 7.39994 19.7117 7.39994 20.1997C7.39994 20.6877 7.20609 21.1557 6.86102 21.5008C6.51595 21.8459 6.04794 22.0397 5.55994 22.0397ZM16.5999 22.0397C16.1119 22.0397 15.6439 21.8459 15.2989 21.5008C14.9538 21.1557 14.7599 20.6877 14.7599 20.1997C14.7599 19.7117 14.9538 19.2437 15.2989 18.8986C15.6439 18.5536 16.1119 18.3597 16.5999 18.3597C17.0879 18.3597 17.556 18.5536 17.901 18.8986C18.2461 19.2437 18.4399 19.7117 18.4399 20.1997C18.4399 20.6877 18.2461 21.1557 17.901 21.5008C17.556 21.8459 17.0879 22.0397 16.5999 22.0397Z" fill="#45B5E3"/>
</svg>
