<svg width="248" height="44" viewBox="0 0 248 44" fill="none" xmlns="http://www.w3.org/2000/svg">
<rect x="68" width="44" height="44" rx="22" fill="white" fill-opacity="0.15"/>
<g clip-path="url(#clip0_2420_7163)">
<path d="M90.2362 33.9999C90.1567 33.9999 90.0773 33.9999 89.9973 33.9996C88.116 34.0041 86.3778 33.9564 84.6874 33.8534C83.1376 33.7591 81.7229 33.2236 80.5961 32.3047C79.5088 31.4181 78.7663 30.2194 78.3893 28.7421C78.0612 27.4559 78.0438 26.1934 78.0271 24.9723C78.015 24.0961 78.0026 23.0579 78 22.0021C78.0026 20.9419 78.015 19.9037 78.0271 19.0276C78.0438 17.8066 78.0612 16.5441 78.3893 15.2578C78.7663 13.7805 79.5088 12.5817 80.5961 11.6951C81.7229 10.7763 83.1376 10.2407 84.6876 10.1464C86.378 10.0437 88.1166 9.99572 90.0018 10.0003C91.8836 9.99627 93.6213 10.0437 95.3117 10.1464C96.8615 10.2407 98.2762 10.7763 99.403 11.6951C100.49 12.5817 101.233 13.7805 101.61 15.2578C101.938 16.5439 101.955 17.8066 101.972 19.0276C101.984 19.9037 101.997 20.9419 101.999 21.9977C101.997 23.0579 101.984 24.0961 101.972 24.9723C101.965 25.4901 101.537 25.9039 101.022 25.897C100.504 25.8898 100.09 25.4643 100.097 24.9466C100.109 24.0756 100.122 23.0442 100.124 21.9977C100.122 20.9557 100.109 19.9242 100.097 19.0532C100.082 17.9416 100.066 16.792 99.793 15.7214C99.5175 14.6415 98.9875 13.7758 98.2181 13.1482C97.3859 12.4695 96.3697 12.0892 95.1978 12.0179C93.5471 11.9176 91.8479 11.8713 90.0018 11.8751C88.1514 11.8707 86.452 11.9176 84.8013 12.0179C83.6294 12.0892 82.6133 12.4695 81.7809 13.1481C81.0115 13.7756 80.4816 14.6413 80.2061 15.7214C79.9329 16.792 79.9171 17.9416 79.9019 19.0532C79.89 19.9242 79.8776 20.9557 79.875 22.0021C79.8776 23.0442 79.89 24.0756 79.9019 24.9466C79.9171 26.0583 79.9329 27.2078 80.2061 28.2784C80.4816 29.3584 81.0115 30.2241 81.7809 30.8516C82.6133 31.5304 83.6294 31.9107 84.8013 31.9819C86.452 32.0823 88.1517 32.1291 89.9974 32.1246C91.8481 32.129 93.5471 32.0823 95.1978 31.9819C96.3697 31.9107 97.3857 31.5304 98.2181 30.8516C98.7724 30.3995 99.2054 29.8195 99.5052 29.1273C99.711 28.6523 100.263 28.4339 100.738 28.6397C101.213 28.8455 101.431 29.3974 101.226 29.8726C100.806 30.8428 100.192 31.6611 99.403 32.3047C98.2762 33.2237 96.8615 33.7591 95.3117 33.8534C93.6929 33.952 92.0299 33.9999 90.2362 33.9999ZM95.812 21.9999C95.812 18.769 93.1835 16.1406 89.9526 16.1406C86.7219 16.1406 84.0932 18.769 84.0932 21.9999C84.0932 25.2308 86.7219 27.8593 89.9526 27.8593C93.1835 27.8593 95.812 25.2308 95.812 21.9999ZM93.937 21.9999C93.937 24.1968 92.1497 25.9843 89.9526 25.9843C87.7557 25.9843 85.9682 24.1968 85.9682 21.9999C85.9682 19.803 87.7557 18.0156 89.9526 18.0156C92.1497 18.0156 93.937 19.803 93.937 21.9999ZM96.4682 14.2656C95.6917 14.2656 95.062 14.8951 95.062 15.6718C95.062 16.4485 95.6917 17.0781 96.4682 17.0781C97.2449 17.0781 97.8745 16.4485 97.8745 15.6718C97.8745 14.8951 97.2449 14.2656 96.4682 14.2656Z" fill="white"/>
</g>
<rect width="44" height="44" rx="22" fill="white" fill-opacity="0.15"/>
<g clip-path="url(#clip1_2420_7163)">
<path d="M25.263 15.2163H27.4499C27.9184 15.2163 28.2997 14.8352 28.2997 14.3666V10.8525C28.2997 10.384 27.9185 10.0028 27.4499 10.0028H24.4469C24.4181 10.0015 24.3681 10 24.298 10C23.7314 10 21.761 10.1118 20.1977 11.5499C18.4914 13.1199 18.6547 14.9979 18.7265 15.4609V17.7503H16.5529C16.0844 17.7503 15.7031 18.1315 15.7031 18.6V22.3795C15.7031 22.8481 16.0843 23.2293 16.5529 23.2293H18.6007V33.1503C18.6007 33.6188 18.9819 34 19.4505 34H23.7334C24.2019 34 24.5831 33.6188 24.5831 33.1503V23.2783H27.0089C27.4408 23.2783 27.8037 22.9548 27.853 22.5257L28.2941 18.6973C28.3218 18.4568 28.2453 18.2152 28.0842 18.0345C27.9231 17.8539 27.692 17.7503 27.45 17.7503H24.5833V15.8286C24.5832 15.4315 24.6915 15.2163 25.263 15.2163ZM24.1052 18.7065H27.3305L26.914 22.3222H24.105C23.841 22.3222 23.627 22.5362 23.627 22.8002V33.0438H19.5569V22.7512C19.5569 22.4872 19.3428 22.2731 19.0788 22.2731H16.6592V18.7064H19.2046C19.4686 18.7064 19.6827 18.4924 19.6827 18.2283V15.422C19.6827 15.3946 19.6803 15.3672 19.6756 15.3401C19.6253 15.0507 19.4451 13.5418 20.8452 12.2536C22.1537 11.0498 23.8189 10.9562 24.298 10.9562C24.3652 10.9562 24.4052 10.958 24.4125 10.9584C24.4204 10.9587 24.4283 10.9589 24.4361 10.9589H27.3436V14.2602H25.263C24.2386 14.2602 23.6271 14.8465 23.6271 15.8286V18.2284C23.6271 18.4925 23.8412 18.7065 24.1052 18.7065Z" fill="white"/>
<path d="M20.5171 26.1113C20.2531 26.1113 20.0391 26.3254 20.0391 26.5894V26.8285C20.0391 27.0925 20.2531 27.3065 20.5171 27.3065C20.7811 27.3065 20.9952 27.0925 20.9952 26.8285V26.5894C20.9952 26.3254 20.7811 26.1113 20.5171 26.1113Z" fill="white"/>
<path d="M20.5171 27.8804C20.2531 27.8804 20.0391 28.0944 20.0391 28.3584V31.9919C20.0391 32.256 20.2531 32.47 20.5171 32.47C20.7811 32.47 20.9952 32.256 20.9952 31.9919V28.3584C20.9952 28.0944 20.7811 27.8804 20.5171 27.8804Z" fill="white"/>
</g>
<rect x="136" width="44" height="44" rx="22" fill="white" fill-opacity="0.15"/>
<g clip-path="url(#clip2_2420_7163)">
<path d="M152.69 17.6547L152.712 17.6647C152.775 17.6937 152.842 17.7074 152.907 17.7074C153.085 17.7074 153.255 17.6059 153.334 17.4338C153.441 17.1985 153.338 16.9203 153.103 16.8124L153.083 16.8035C152.848 16.695 152.57 16.7976 152.461 17.0327C152.353 17.2677 152.455 17.5463 152.69 17.6547Z" fill="white"/>
<path d="M169.89 14.5472C169.755 14.3878 169.532 14.3362 169.341 14.4208C169.056 14.5473 168.765 14.6587 168.471 14.7546C168.853 14.2708 169.149 13.7189 169.343 13.1219C169.403 12.9364 169.342 12.7331 169.19 12.6113C169.038 12.4895 168.826 12.4748 168.658 12.5741C167.839 13.0592 166.959 13.4085 166.039 13.6141C165.077 12.6899 163.779 12.1646 162.436 12.1646C159.57 12.1646 157.238 14.4963 157.238 17.3626C157.238 17.5507 157.249 17.74 157.269 17.9294C156.532 17.8592 155.803 17.7268 155.093 17.5341C154.844 17.4662 154.586 17.6137 154.518 17.8636C154.45 18.1134 154.598 18.3709 154.848 18.4388C155.808 18.6998 156.803 18.8577 157.804 18.9081C157.951 18.9155 158.092 18.8541 158.186 18.7421C158.281 18.6301 158.317 18.4805 158.285 18.3376C158.213 18.0135 158.176 17.6854 158.176 17.3626C158.176 15.0133 160.087 13.102 162.436 13.102C163.61 13.102 164.743 13.5918 165.543 14.4456C165.653 14.5632 165.816 14.6161 165.974 14.5852C166.618 14.4602 167.244 14.2722 167.848 14.0236C167.51 14.4935 167.077 14.8933 166.574 15.1948C166.384 15.3084 166.299 15.5391 166.371 15.7484C166.442 15.9576 166.65 16.0886 166.87 16.0625C167.303 16.0112 167.731 15.931 168.154 15.8227C167.77 16.2247 167.348 16.5911 166.892 16.919C166.766 17.0094 166.693 17.1559 166.697 17.3106L166.711 17.9177C166.708 24.2991 161.851 30.8979 153.724 30.8979C151.867 30.8979 150.047 30.503 148.373 29.745C150.343 29.5961 152.192 28.8813 153.76 27.6552C153.917 27.5331 153.979 27.326 153.916 27.1379C153.854 26.9498 153.68 26.8214 153.481 26.8173C151.912 26.7846 150.509 25.8994 149.791 24.5493C149.843 24.5507 149.894 24.5514 149.946 24.5514C150.411 24.5514 150.87 24.4922 151.311 24.3755C151.521 24.3197 151.666 24.1263 151.659 23.9085C151.653 23.6908 151.497 23.5062 151.284 23.463C149.535 23.1086 148.21 21.6941 147.925 19.9744C148.441 20.1633 148.977 20.2656 149.525 20.2796C149.734 20.2846 149.921 20.1516 149.984 19.9524C150.047 19.7533 149.971 19.5366 149.797 19.4208C148.61 18.6308 147.901 17.3064 147.901 15.8781C147.901 15.3498 147.998 14.83 148.185 14.3456C148.949 15.1894 149.812 15.9359 150.757 16.5706C150.972 16.7149 151.263 16.6576 151.407 16.4426C151.552 16.2277 151.494 15.9365 151.28 15.7922C150.21 15.0742 149.254 14.2027 148.437 13.2019C148.34 13.083 148.191 13.0193 148.038 13.0308C147.885 13.0427 147.747 13.1286 147.67 13.261C147.208 14.0483 146.964 14.9533 146.964 15.8781C146.964 17.0209 147.336 18.1092 148 18.995C147.874 18.9398 147.749 18.878 147.625 18.8098C147.48 18.7297 147.303 18.7322 147.16 18.8165C147.017 18.9008 146.93 19.0543 146.93 19.2202V19.2778C146.93 21.012 147.795 22.5875 149.148 23.5409C149.145 23.5403 149.142 23.5398 149.139 23.5393C148.977 23.5087 148.81 23.5657 148.701 23.6897C148.591 23.8138 148.555 23.9862 148.606 24.1436C149.156 25.8509 150.535 27.1261 152.218 27.5776C150.826 28.4046 149.249 28.8368 147.595 28.8368C147.236 28.8368 146.885 28.8171 146.521 28.7767C146.304 28.7526 146.1 28.8808 146.027 29.0861C145.954 29.2914 146.032 29.5197 146.216 29.6372C148.46 31.0753 151.056 31.8354 153.724 31.8354C155.87 31.8354 157.878 31.4091 159.693 30.5682C161.358 29.797 162.829 28.6948 164.065 27.2923C166.343 24.709 167.649 21.2901 167.649 17.9121C167.649 17.9084 167.649 17.9047 167.649 17.9011L167.64 17.532C168.533 16.856 169.3 16.0419 169.921 15.1093C170.037 14.9358 170.024 14.7067 169.89 14.5472Z" fill="white"/>
<path d="M163.656 23.5478C163.434 23.4146 163.146 23.4866 163.013 23.7086L163.012 23.71C162.879 23.932 162.951 24.2192 163.173 24.3524C163.249 24.3976 163.332 24.4191 163.413 24.4191C163.573 24.4191 163.729 24.3376 163.817 24.191C163.95 23.969 163.878 23.681 163.656 23.5478Z" fill="white"/>
<path d="M162.744 24.9586C162.545 24.794 162.249 24.8224 162.084 25.0222C161.264 26.0177 160.294 26.8391 159.201 27.4637C158.976 27.5921 158.898 27.8785 159.027 28.1032C159.113 28.2546 159.271 28.3395 159.434 28.3395C159.513 28.3395 159.593 28.3196 159.666 28.2777C160.858 27.5966 161.915 26.7019 162.808 25.6185C162.973 25.4187 162.944 25.1233 162.744 24.9586Z" fill="white"/>
</g>
<rect x="204" width="44" height="44" rx="22" fill="white" fill-opacity="0.15"/>
<g clip-path="url(#clip3_2420_7163)">
<path d="M219.843 17.4136H215.217C214.748 17.4136 214.367 17.7948 214.367 18.2633V33.1249C214.367 33.5935 214.748 33.9747 215.217 33.9747H219.843C220.312 33.9747 220.693 33.5935 220.693 33.1249V18.2633C220.693 17.7948 220.312 17.4136 219.843 17.4136ZM219.737 33.0185H215.323V18.3697H219.737V33.0185Z" fill="white"/>
<path d="M220.025 11.0595C219.357 10.3927 218.472 10.0254 217.531 10.0254C215.584 10.0254 214 11.6078 214 13.5528C214 15.4985 215.584 17.0815 217.531 17.0815C219.476 17.0815 221.059 15.4985 221.059 13.5528C221.059 12.6119 220.692 11.7264 220.025 11.0595ZM217.531 16.1253C216.111 16.1253 214.956 14.9712 214.956 13.5528C214.956 12.135 216.111 10.9816 217.531 10.9816C218.216 10.9816 218.862 11.2494 219.349 11.7358C219.835 12.222 220.103 12.8674 220.103 13.5528C220.103 14.9713 218.949 16.1253 217.531 16.1253Z" fill="white"/>
<path d="M236.933 19.623C235.924 17.9116 234.133 17.0439 231.611 17.0439C229.986 17.0439 228.805 17.5985 228.019 18.1706C227.973 17.7454 227.612 17.4133 227.175 17.4133H222.744C222.276 17.4133 221.895 17.7945 221.895 18.263V33.1246C221.895 33.5932 222.276 33.9744 222.744 33.9744H227.36C227.829 33.9744 228.21 33.5932 228.21 33.1246V25.7717C228.21 23.2791 228.886 22.8067 230.132 22.8067C231.351 22.8067 231.685 23.4714 231.685 25.8992V33.1249C231.685 33.5934 232.066 33.9746 232.535 33.9746H237.152C237.621 33.9746 238.002 33.5934 238.002 33.1249V24.9729C238.002 23.3258 237.88 21.2293 236.933 19.623ZM237.046 33.0184H232.641V25.8991C232.641 24.9307 232.614 23.922 232.293 23.1678C231.92 22.2937 231.194 21.8505 230.132 21.8505C227.596 21.8505 227.254 23.8327 227.254 25.7717V33.0183H222.851V18.3695H227.068V19.2283C227.068 19.4254 227.189 19.6023 227.373 19.6738C227.557 19.7454 227.765 19.6968 227.898 19.5516C228.43 18.9722 229.62 18.0001 231.611 18.0001C236.387 18.0001 237.046 21.3514 237.046 24.9729V33.0184H237.046Z" fill="white"/>
<path d="M216.294 27.0679C216.03 27.0679 215.816 27.2819 215.816 27.5459V31.9922C215.816 32.2562 216.03 32.4703 216.294 32.4703C216.559 32.4703 216.773 32.2562 216.773 31.9922V27.5459C216.773 27.2819 216.559 27.0679 216.294 27.0679Z" fill="white"/>
<path d="M216.294 25.0596C216.03 25.0596 215.816 25.2736 215.816 25.5376V25.9679C215.816 26.232 216.03 26.446 216.294 26.446C216.559 26.446 216.773 26.232 216.773 25.9679V25.5376C216.773 25.2736 216.559 25.0596 216.294 25.0596Z" fill="white"/>
</g>
<defs>
<clipPath id="clip0_2420_7163">
<rect width="24" height="24" fill="white" transform="translate(78 10)"/>
</clipPath>
<clipPath id="clip1_2420_7163">
<rect width="24" height="24" fill="white" transform="translate(10 10)"/>
</clipPath>
<clipPath id="clip2_2420_7163">
<rect width="24" height="24" fill="white" transform="translate(146 10)"/>
</clipPath>
<clipPath id="clip3_2420_7163">
<rect width="24" height="24" fill="white" transform="translate(214 10)"/>
</clipPath>
</defs>
</svg>
