<svg width="2354" height="2556" viewBox="0 0 2354 2556" fill="none" xmlns="http://www.w3.org/2000/svg">
<path d="M858.012 371.576L858.467 403.999C861.76 638.749 1115.66 783.922 1319.64 667.686L1348.95 650.981C1540.68 541.727 1779.12 679.227 1780.6 899.893L1781.12 977.064C1782.19 1136.72 1939.7 1248.17 2090.61 1196.05V1196.05" stroke="white" stroke-opacity="0.08" stroke-width="0.653416"/>
<path d="M847.251 390.216L847.705 422.639C850.998 657.389 1104.89 802.561 1308.87 686.325L1338.19 669.621C1529.91 560.367 1768.36 697.867 1769.84 918.533L1770.36 995.703C1771.43 1155.36 1928.93 1266.81 2079.85 1214.69V1214.69" stroke="white" stroke-opacity="0.08" stroke-width="0.653416"/>
<path d="M836.49 408.856L836.945 441.279C840.238 676.029 1094.13 821.201 1298.11 704.965L1327.43 688.261C1519.15 579.007 1757.6 716.507 1759.08 937.173L1759.59 1014.34C1760.66 1174 1918.17 1285.45 2069.09 1233.33V1233.33" stroke="white" stroke-opacity="0.08" stroke-width="0.653416"/>
<path d="M825.728 427.494L826.183 459.917C829.475 694.667 1083.37 839.839 1287.35 723.603L1316.66 706.899C1508.39 597.645 1746.84 735.145 1748.32 955.811L1748.83 1032.98C1749.9 1192.64 1907.41 1304.09 2058.33 1251.97V1251.97" stroke="white" stroke-opacity="0.08" stroke-width="0.653416"/>
<path d="M814.967 446.135L815.422 478.558C818.715 713.308 1072.61 858.48 1276.59 742.244L1305.9 725.539C1497.63 616.285 1736.08 753.785 1737.56 974.451L1738.07 1051.62C1739.14 1211.28 1896.65 1322.73 2047.57 1270.61V1270.61" stroke="white" stroke-opacity="0.08" stroke-width="0.653416"/>
<path d="M804.204 464.774L804.659 497.197C807.952 731.947 1061.85 877.12 1265.83 760.884L1295.14 744.179C1486.87 634.925 1725.31 772.425 1726.79 993.091L1727.31 1070.26C1728.38 1229.92 1885.89 1341.37 2036.8 1289.25V1289.25" stroke="white" stroke-opacity="0.08" stroke-width="0.653416"/>
<path d="M793.445 483.413L793.899 515.836C797.192 750.586 1051.09 895.759 1255.07 779.523L1284.38 762.818C1476.11 653.564 1714.55 791.064 1716.03 1011.73L1716.55 1088.9C1717.62 1248.56 1875.13 1360.01 2026.05 1307.89V1307.89" stroke="white" stroke-opacity="0.08" stroke-width="0.653416"/>
<path d="M782.683 502.052L783.138 534.476C786.431 769.225 1040.33 914.398 1244.31 798.162L1273.62 781.457C1465.35 672.203 1703.79 809.703 1705.27 1030.37L1705.79 1107.54C1706.86 1267.2 1864.37 1378.65 2015.28 1326.53V1326.53" stroke="white" stroke-opacity="0.08" stroke-width="0.653416"/>
<path d="M771.921 520.691L772.375 553.114C775.668 787.864 1029.56 933.036 1233.54 816.8L1262.86 800.096C1454.58 690.842 1693.03 828.342 1694.51 1049.01L1695.03 1126.18C1696.09 1285.84 1853.6 1397.29 2004.52 1345.16V1345.16" stroke="white" stroke-opacity="0.08" stroke-width="0.653416"/>
<path d="M761.16 539.33L761.615 571.753C764.908 806.503 1018.8 951.675 1222.78 835.44L1252.1 818.735C1443.82 709.481 1682.27 846.981 1683.75 1067.65L1684.27 1144.82C1685.33 1304.48 1842.84 1415.92 1993.76 1363.8V1363.8" stroke="white" stroke-opacity="0.08" stroke-width="0.653416"/>
<path d="M750.397 557.97L750.852 590.393C754.145 825.143 1008.04 970.315 1212.02 854.079L1241.33 837.375C1433.06 728.121 1671.51 865.621 1672.99 1086.29L1673.5 1163.46C1674.57 1323.12 1832.08 1434.56 1983 1382.44V1382.44" stroke="white" stroke-opacity="0.08" stroke-width="0.653416"/>
<path d="M739.637 576.609L740.092 609.032C743.385 843.782 997.28 988.954 1201.26 872.718L1230.57 856.014C1422.3 746.76 1660.75 884.26 1662.22 1104.93L1662.74 1182.1C1663.81 1341.76 1821.32 1453.2 1972.24 1401.08V1401.08" stroke="white" stroke-opacity="0.08" stroke-width="0.653416"/>
<path d="M728.876 595.248L729.331 627.671C732.624 862.421 986.519 1007.59 1190.5 891.357L1219.81 874.653C1411.54 765.399 1649.99 902.899 1651.46 1123.56L1651.98 1200.74C1653.05 1360.4 1810.56 1471.84 1961.48 1419.72V1419.72" stroke="white" stroke-opacity="0.08" stroke-width="0.653416"/>
<path d="M718.114 613.889L718.569 646.312C721.862 881.062 975.757 1026.23 1179.74 909.998L1209.05 893.294C1400.78 784.04 1639.22 921.54 1640.7 1142.21L1641.22 1219.38C1642.29 1379.04 1799.8 1490.48 1950.72 1438.36V1438.36" stroke="white" stroke-opacity="0.08" stroke-width="0.653416"/>
<path d="M707.353 632.528L707.808 664.951C711.101 899.701 964.997 1044.87 1168.98 928.637L1198.29 911.932C1390.02 802.678 1628.46 940.178 1629.94 1160.84L1630.46 1238.02C1631.53 1397.68 1789.04 1509.12 1939.95 1457V1457" stroke="white" stroke-opacity="0.08" stroke-width="0.653416"/>
<path d="M696.846 650.727L697.301 683.15C700.594 917.9 954.489 1063.07 1158.47 946.836L1187.78 930.131C1379.51 820.877 1617.96 958.377 1619.43 1179.04L1619.95 1256.21C1621.02 1415.87 1778.53 1527.32 1929.45 1475.2V1475.2" stroke="white" stroke-opacity="0.08" stroke-width="0.653416"/>
<path d="M686.34 668.925L686.794 701.348C690.087 936.098 943.983 1081.27 1147.96 965.034L1177.28 948.33C1369 839.076 1607.45 976.576 1608.93 1197.24L1609.44 1274.41C1610.51 1434.07 1768.02 1545.52 1918.94 1493.4V1493.4" stroke="white" stroke-opacity="0.08" stroke-width="0.653416"/>
<path d="M675.832 687.122L676.287 719.545C679.58 954.295 933.476 1099.47 1137.46 983.231L1166.77 966.527C1358.5 857.273 1596.94 994.773 1598.42 1215.44L1598.94 1292.61C1600.01 1452.27 1757.52 1563.72 1908.43 1511.59V1511.59" stroke="white" stroke-opacity="0.08" stroke-width="0.653416"/>
<path d="M665.326 705.32L665.781 737.744C669.074 972.494 922.969 1117.67 1126.95 1001.43L1156.26 984.725C1347.99 875.471 1586.44 1012.97 1587.91 1233.64L1588.43 1310.81C1589.5 1470.47 1747.01 1581.91 1897.93 1529.79V1529.79" stroke="white" stroke-opacity="0.08" stroke-width="0.653416"/>
<path d="M654.819 723.519L655.274 755.942C658.567 990.692 912.463 1135.86 1116.44 1019.63L1145.76 1002.92C1337.48 893.67 1575.93 1031.17 1577.41 1251.84L1577.92 1329.01C1578.99 1488.67 1736.5 1600.11 1887.42 1547.99V1547.99" stroke="white" stroke-opacity="0.08" stroke-width="0.653416"/>
<path d="M644.312 741.718L644.767 774.141C648.06 1008.89 901.956 1154.06 1105.93 1037.83L1135.25 1021.12C1326.98 911.869 1565.42 1049.37 1566.9 1270.03L1567.42 1347.21C1568.49 1506.87 1726 1618.31 1876.91 1566.19V1566.19" stroke="white" stroke-opacity="0.08" stroke-width="0.653416"/>
<path d="M633.806 759.914L634.26 792.338C637.553 1027.09 891.449 1172.26 1095.43 1056.02L1124.74 1039.32C1316.47 930.065 1554.92 1067.57 1556.39 1288.23L1556.91 1365.4C1557.98 1525.06 1715.49 1636.51 1866.41 1584.39V1584.39" stroke="white" stroke-opacity="0.08" stroke-width="0.653416"/>
<path d="M623.299 778.113L623.754 810.536C627.047 1045.29 880.943 1190.46 1084.92 1074.22L1114.24 1057.52C1305.96 948.264 1544.41 1085.76 1545.89 1306.43L1546.4 1383.6C1547.47 1543.26 1704.98 1654.71 1855.9 1602.59V1602.59" stroke="white" stroke-opacity="0.08" stroke-width="0.653416"/>
<path d="M612.793 796.312L613.247 828.735C616.54 1063.48 870.436 1208.66 1074.42 1092.42L1103.73 1075.72C1295.46 966.462 1533.9 1103.96 1535.38 1324.63L1535.9 1401.8C1536.97 1561.46 1694.48 1672.91 1845.39 1620.78V1620.78" stroke="white" stroke-opacity="0.08" stroke-width="0.653416"/>
<path d="M602.285 814.51L602.74 846.933C606.033 1081.68 859.929 1226.86 1063.91 1110.62L1093.22 1093.91C1284.95 984.661 1523.39 1122.16 1524.87 1342.83L1525.39 1420C1526.46 1579.66 1683.97 1691.1 1834.89 1638.98V1638.98" stroke="white" stroke-opacity="0.08" stroke-width="0.653416"/>
<path d="M591.779 832.707L592.234 865.13C595.526 1099.88 849.422 1245.05 1053.4 1128.82L1082.72 1112.11C1274.44 1002.86 1512.89 1140.36 1514.37 1361.02L1514.88 1438.19C1515.95 1597.86 1673.46 1709.3 1824.38 1657.18V1657.18" stroke="white" stroke-opacity="0.08" stroke-width="0.653416"/>
<path d="M581.272 850.906L581.727 883.329C585.02 1118.08 838.916 1263.25 1042.89 1147.02L1072.21 1130.31C1263.94 1021.06 1502.38 1158.56 1503.86 1379.22L1504.38 1456.39C1505.45 1616.05 1662.96 1727.5 1813.87 1675.38V1675.38" stroke="white" stroke-opacity="0.08" stroke-width="0.653416"/>
<path d="M570.765 869.104L571.22 901.528C574.513 1136.28 828.409 1281.45 1032.39 1165.21L1061.7 1148.51C1253.43 1039.26 1491.87 1176.76 1493.35 1397.42L1493.87 1474.59C1494.94 1634.25 1652.45 1745.7 1803.37 1693.58V1693.58" stroke="white" stroke-opacity="0.08" stroke-width="0.653416"/>
<path d="M560.259 887.303L560.714 919.726C564.006 1154.48 817.902 1299.65 1021.88 1183.41L1051.2 1166.71C1242.92 1057.45 1481.37 1194.95 1482.85 1415.62L1483.36 1492.79C1484.43 1652.45 1641.94 1763.9 1792.86 1711.78V1711.78" stroke="white" stroke-opacity="0.08" stroke-width="0.653416"/>
<path d="M536.012 887.576L536.467 919.999C539.76 1154.75 793.656 1299.92 997.635 1183.69L1026.95 1166.98C1218.68 1057.73 1457.12 1195.23 1458.6 1415.89L1459.12 1493.06C1460.19 1652.72 1617.7 1764.17 1768.61 1712.05V1712.05" stroke="white" stroke-opacity="0.08" stroke-width="0.653416"/>
<path d="M525.251 906.216L525.705 938.639C528.998 1173.39 782.894 1318.56 986.873 1202.33L1016.19 1185.62C1207.91 1076.37 1446.36 1213.87 1447.84 1434.53L1448.36 1511.7C1449.43 1671.36 1606.93 1782.81 1757.85 1730.69V1730.69" stroke="white" stroke-opacity="0.08" stroke-width="0.653416"/>
<path d="M514.49 924.856L514.945 957.279C518.238 1192.03 772.133 1337.2 976.113 1220.97L1005.43 1204.26C1197.15 1095.01 1435.6 1232.51 1437.08 1453.17L1437.59 1530.34C1438.66 1690 1596.17 1801.45 1747.09 1749.33V1749.33" stroke="white" stroke-opacity="0.08" stroke-width="0.653416"/>
<path d="M503.728 943.494L504.183 975.917C507.475 1210.67 761.371 1355.84 965.351 1239.6L994.665 1222.9C1186.39 1113.64 1424.84 1251.15 1426.32 1471.81L1426.83 1548.98C1427.9 1708.64 1585.41 1820.09 1736.33 1767.97V1767.97" stroke="white" stroke-opacity="0.08" stroke-width="0.653416"/>
<path d="M492.967 962.135L493.422 994.558C496.715 1229.31 750.611 1374.48 954.59 1258.24L983.905 1241.54C1175.63 1132.29 1414.08 1269.79 1415.56 1490.45L1416.07 1567.62C1417.14 1727.28 1574.65 1838.73 1725.57 1786.61V1786.61" stroke="white" stroke-opacity="0.08" stroke-width="0.653416"/>
<path d="M482.204 980.774L482.659 1013.2C485.952 1247.95 739.847 1393.12 943.827 1276.88L973.141 1260.18C1164.87 1150.92 1403.31 1288.43 1404.79 1509.09L1405.31 1586.26C1406.38 1745.92 1563.89 1857.37 1714.8 1805.25V1805.25" stroke="white" stroke-opacity="0.08" stroke-width="0.653416"/>
<path d="M471.445 999.413L471.899 1031.84C475.192 1266.59 729.088 1411.76 933.067 1295.52L962.382 1278.82C1154.11 1169.56 1392.55 1307.06 1394.03 1527.73L1394.55 1604.9C1395.62 1764.56 1553.13 1876.01 1704.05 1823.89V1823.89" stroke="white" stroke-opacity="0.08" stroke-width="0.653416"/>
<path d="M460.683 1018.05L461.138 1050.48C464.431 1285.23 718.327 1430.4 922.306 1314.16L951.621 1297.46C1143.35 1188.2 1381.79 1325.7 1383.27 1546.37L1383.79 1623.54C1384.86 1783.2 1542.37 1894.65 1693.28 1842.53V1842.53" stroke="white" stroke-opacity="0.08" stroke-width="0.653416"/>
<path d="M449.921 1036.69L450.375 1069.11C453.668 1303.86 707.564 1449.04 911.543 1332.8L940.858 1316.1C1132.58 1206.84 1371.03 1344.34 1372.51 1565.01L1373.03 1642.18C1374.09 1801.84 1531.6 1913.29 1682.52 1861.16V1861.16" stroke="white" stroke-opacity="0.08" stroke-width="0.653416"/>
<path d="M439.16 1055.33L439.615 1087.75C442.908 1322.5 696.804 1467.68 900.783 1351.44L930.098 1334.73C1121.82 1225.48 1360.27 1362.98 1361.75 1583.65L1362.27 1660.82C1363.33 1820.48 1520.84 1931.92 1671.76 1879.8V1879.8" stroke="white" stroke-opacity="0.08" stroke-width="0.653416"/>
<path d="M428.397 1073.97L428.852 1106.39C432.145 1341.14 686.041 1486.32 890.02 1370.08L919.334 1353.37C1111.06 1244.12 1349.51 1381.62 1350.98 1602.29L1351.5 1679.46C1352.57 1839.12 1510.08 1950.56 1661 1898.44V1898.44" stroke="white" stroke-opacity="0.08" stroke-width="0.653416"/>
<path d="M417.637 1092.61L418.092 1125.03C421.385 1359.78 675.28 1504.95 879.26 1388.72L908.574 1372.01C1100.3 1262.76 1338.75 1400.26 1340.22 1620.93L1340.74 1698.1C1341.81 1857.76 1499.32 1969.2 1650.24 1917.08V1917.08" stroke="white" stroke-opacity="0.08" stroke-width="0.653416"/>
<path d="M406.876 1111.25L407.33 1143.67C410.623 1378.42 664.519 1523.59 868.498 1407.36L897.813 1390.65C1089.54 1281.4 1327.99 1418.9 1329.46 1639.56L1329.98 1716.74C1331.05 1876.4 1488.56 1987.84 1639.48 1935.72V1935.72" stroke="white" stroke-opacity="0.08" stroke-width="0.653416"/>
<path d="M396.114 1129.89L396.569 1162.31C399.862 1397.06 653.757 1542.23 857.737 1426L887.051 1409.29C1078.78 1300.04 1317.22 1437.54 1318.7 1658.21L1319.22 1735.38C1320.29 1895.04 1477.8 2006.48 1628.72 1954.36V1954.36" stroke="white" stroke-opacity="0.08" stroke-width="0.653416"/>
<path d="M385.353 1148.53L385.808 1180.95C389.101 1415.7 642.997 1560.87 846.976 1444.64L876.29 1427.93C1068.02 1318.68 1306.46 1456.18 1307.94 1676.84L1308.46 1754.02C1309.53 1913.68 1467.04 2025.12 1617.95 1973V1973" stroke="white" stroke-opacity="0.08" stroke-width="0.653416"/>
<path d="M374.846 1166.73L375.301 1199.15C378.594 1433.9 632.489 1579.07 836.469 1462.84L865.783 1446.13C1057.51 1336.88 1295.96 1474.38 1297.43 1695.04L1297.95 1772.21C1299.02 1931.87 1456.53 2043.32 1607.45 1991.2V1991.2" stroke="white" stroke-opacity="0.08" stroke-width="0.653416"/>
<path d="M364.34 1184.92L364.794 1217.35C368.087 1452.1 621.983 1597.27 825.962 1481.03L855.277 1464.33C1047 1355.08 1285.45 1492.58 1286.93 1713.24L1287.44 1790.41C1288.51 1950.07 1446.02 2061.52 1596.94 2009.4V2009.4" stroke="white" stroke-opacity="0.08" stroke-width="0.653416"/>
<path d="M353.832 1203.12L354.287 1235.55C357.58 1470.29 611.476 1615.47 815.455 1499.23L844.769 1482.53C1036.5 1373.27 1274.94 1510.77 1276.42 1731.44L1276.94 1808.61C1278.01 1968.27 1435.52 2079.72 1586.43 2027.59V2027.59" stroke="white" stroke-opacity="0.08" stroke-width="0.653416"/>
<path d="M343.326 1221.32L343.781 1253.74C347.074 1488.49 600.969 1633.67 804.949 1517.43L834.263 1500.73C1025.99 1391.47 1264.44 1528.97 1265.91 1749.64L1266.43 1826.81C1267.5 1986.47 1425.01 2097.91 1575.93 2045.79V2045.79" stroke="white" stroke-opacity="0.08" stroke-width="0.653416"/>
<path d="M332.819 1239.52L333.274 1271.94C336.567 1506.69 590.463 1651.86 794.442 1535.63L823.756 1518.92C1015.48 1409.67 1253.93 1547.17 1255.41 1767.84L1255.92 1845.01C1256.99 2004.67 1414.5 2116.11 1565.42 2063.99V2063.99" stroke="white" stroke-opacity="0.08" stroke-width="0.653416"/>
<path d="M322.312 1257.72L322.767 1290.14C326.06 1524.89 579.956 1670.06 783.935 1553.83L813.249 1537.12C1004.98 1427.87 1243.42 1565.37 1244.9 1786.03L1245.42 1863.21C1246.49 2022.87 1404 2134.31 1554.91 2082.19V2082.19" stroke="white" stroke-opacity="0.08" stroke-width="0.653416"/>
<path d="M311.805 1275.91L312.26 1308.34C315.553 1543.09 569.449 1688.26 773.428 1572.02L802.743 1555.32C994.47 1446.07 1232.91 1583.57 1234.39 1804.23L1234.91 1881.4C1235.98 2041.06 1393.49 2152.51 1544.41 2100.39V2100.39" stroke="white" stroke-opacity="0.08" stroke-width="0.653416"/>
<path d="M301.299 1294.11L301.754 1326.54C305.047 1561.29 558.943 1706.46 762.922 1590.22L792.236 1573.52C983.963 1464.26 1222.41 1601.76 1223.89 1822.43L1224.4 1899.6C1225.47 2059.26 1382.98 2170.71 1533.9 2118.59V2118.59" stroke="white" stroke-opacity="0.08" stroke-width="0.653416"/>
<path d="M290.793 1312.31L291.247 1344.73C294.54 1579.48 548.436 1724.66 752.415 1608.42L781.73 1591.72C973.457 1482.46 1211.9 1619.96 1213.38 1840.63L1213.9 1917.8C1214.97 2077.46 1372.48 2188.91 1523.39 2136.78V2136.78" stroke="white" stroke-opacity="0.08" stroke-width="0.653416"/>
<path d="M280.285 1330.51L280.74 1362.93C284.033 1597.68 537.929 1742.86 741.908 1626.62L771.223 1609.92C962.95 1500.66 1201.39 1638.16 1202.87 1858.83L1203.39 1936C1204.46 2095.66 1361.97 2207.1 1512.89 2154.98V2154.98" stroke="white" stroke-opacity="0.08" stroke-width="0.653416"/>
<path d="M269.779 1348.71L270.233 1381.13C273.526 1615.88 527.422 1761.05 731.401 1644.82L760.716 1628.11C952.443 1518.86 1190.89 1656.36 1192.37 1877.02L1192.88 1954.19C1193.95 2113.86 1351.46 2225.3 1502.38 2173.18V2173.18" stroke="white" stroke-opacity="0.08" stroke-width="0.653416"/>
<path d="M259.272 1366.91L259.727 1399.33C263.02 1634.08 516.916 1779.25 720.895 1663.02L750.209 1646.31C941.936 1537.06 1180.38 1674.56 1181.86 1895.22L1182.38 1972.39C1183.45 2132.05 1340.96 2243.5 1491.87 2191.38V2191.38" stroke="white" stroke-opacity="0.08" stroke-width="0.653416"/>
<path d="M248.765 1385.1L249.22 1417.53C252.513 1652.28 506.409 1797.45 710.388 1681.21L739.703 1664.51C931.43 1555.26 1169.87 1692.76 1171.35 1913.42L1171.87 1990.59C1172.94 2150.25 1330.45 2261.7 1481.37 2209.58V2209.58" stroke="white" stroke-opacity="0.08" stroke-width="0.653416"/>
<path d="M238.258 1403.3L238.713 1435.73C242.006 1670.48 495.902 1815.65 699.881 1699.41L729.196 1682.71C920.923 1573.45 1159.37 1710.95 1160.85 1931.62L1161.36 2008.79C1162.43 2168.45 1319.94 2279.9 1470.86 2227.78V2227.78" stroke="white" stroke-opacity="0.08" stroke-width="0.653416"/>
</svg>
