<svg width="884" height="160" viewBox="0 0 884 160" fill="none" xmlns="http://www.w3.org/2000/svg">
<g filter="url(#filter0_d_610_7503)">
<rect x="35" y="31" width="814" height="90" rx="4" fill="white"/>
<path d="M79.8848 70.2227V82H78.3027V73.4746L74.6641 77.3594H74.2422L70.5156 73.4746V82H68.9336V70.2227H69.4258L74.4531 75.6191L79.3926 70.2227H79.8848ZM83.8047 73.2109L86.8809 79.6797L89.8691 73.2109H91.5918L85.123 86.2188H83.4531L85.9668 81.4727L82.082 73.2109H83.8047ZM103.088 73.0352C103.85 73.0352 104.535 73.2227 105.145 73.5977C105.766 73.9609 106.258 74.4766 106.621 75.1445C106.996 75.8008 107.184 76.5742 107.184 77.4648C107.184 78.4258 106.996 79.2695 106.621 79.9961C106.258 80.7109 105.754 81.2676 105.109 81.666C104.477 82.0645 103.756 82.2637 102.947 82.2637C102.443 82.2637 101.928 82.1289 101.4 81.8594C100.885 81.5898 100.439 81.2441 100.064 80.8223V86.2188H98.623V73.2109H100.064V74.7051C100.369 74.2363 100.779 73.8438 101.295 73.5273C101.822 73.1992 102.42 73.0352 103.088 73.0352ZM102.859 74.4414C102.332 74.4414 101.852 74.5762 101.418 74.8457C100.996 75.1152 100.662 75.4902 100.416 75.9707C100.182 76.4395 100.064 76.9902 100.064 77.623L100.082 79.3105C100.457 79.7676 100.85 80.1426 101.26 80.4355C101.67 80.7168 102.145 80.8574 102.684 80.8574C103.316 80.8574 103.855 80.6934 104.301 80.3652C104.746 80.0371 105.086 79.6152 105.32 79.0996C105.566 78.5723 105.689 78.0273 105.689 77.4648C105.689 76.8906 105.572 76.3809 105.338 75.9355C105.104 75.4785 104.775 75.1152 104.354 74.8457C103.932 74.5762 103.434 74.4414 102.859 74.4414ZM113.178 73.0352C113.682 73.0352 114.191 73.1582 114.707 73.4043C115.234 73.6387 115.686 73.9668 116.061 74.3887V73.2109H117.502V82H116.061V80.5059C115.756 80.9746 115.34 81.3848 114.812 81.7363C114.297 82.0879 113.705 82.2637 113.037 82.2637C112.287 82.2637 111.602 82.0762 110.98 81.7012C110.359 81.3145 109.861 80.7812 109.486 80.1016C109.123 79.4219 108.941 78.6367 108.941 77.7461C108.941 76.7734 109.123 75.9355 109.486 75.2324C109.861 74.5293 110.371 73.9902 111.016 73.6152C111.66 73.2285 112.381 73.0352 113.178 73.0352ZM113.441 74.4414C112.809 74.4414 112.27 74.5996 111.824 74.916C111.379 75.2324 111.033 75.6426 110.787 76.1465C110.553 76.6387 110.436 77.1719 110.436 77.7461C110.436 78.3086 110.553 78.8301 110.787 79.3105C111.021 79.7793 111.35 80.1543 111.771 80.4355C112.205 80.7168 112.703 80.8574 113.266 80.8574C113.805 80.8574 114.285 80.7168 114.707 80.4355C115.129 80.1543 115.463 79.7676 115.709 79.2754C115.955 78.7715 116.072 78.209 116.061 77.5879L116.043 75.9004C115.68 75.4434 115.287 75.0859 114.865 74.8281C114.455 74.5703 113.98 74.4414 113.441 74.4414ZM120.982 73.2109L124.059 79.6797L127.047 73.2109H128.77L122.301 86.2188H120.631L123.145 81.4727L119.26 73.2109H120.982ZM131.969 73.2109V74.3359C132.25 74.0195 132.607 73.7266 133.041 73.457C133.486 73.1758 134.008 73.0352 134.605 73.0352C135.238 73.0352 135.83 73.1875 136.381 73.4922C136.932 73.7852 137.354 74.2305 137.646 74.8281C138.057 74.3359 138.502 73.9141 138.982 73.5625C139.463 73.2109 140.025 73.0352 140.67 73.0352C141.268 73.0352 141.824 73.1699 142.34 73.4395C142.867 73.6973 143.289 74.0957 143.605 74.6348C143.934 75.1621 144.098 75.8301 144.098 76.6387V82H142.656L142.639 76.7793C142.639 76.0176 142.439 75.4375 142.041 75.0391C141.654 74.6406 141.115 74.4414 140.424 74.4414C139.92 74.4414 139.48 74.5996 139.105 74.916C138.73 75.2324 138.373 75.6016 138.033 76.0234V82H136.592L136.574 76.7793C136.574 76.0176 136.375 75.4375 135.977 75.0391C135.59 74.6406 135.051 74.4414 134.359 74.4414C133.879 74.4414 133.439 74.582 133.041 74.8633C132.654 75.1445 132.297 75.4844 131.969 75.8828V82H130.527V73.2109H131.969ZM150.443 73.0352C151.346 73.0352 152.096 73.2227 152.693 73.5977C153.291 73.9727 153.736 74.4824 154.029 75.127C154.334 75.7715 154.486 76.498 154.486 77.3066V78.168H147.736C147.807 78.6602 147.977 79.1113 148.246 79.5215C148.516 79.9316 148.867 80.2598 149.301 80.5059C149.734 80.7402 150.232 80.8574 150.795 80.8574C151.428 80.8574 152.02 80.6992 152.57 80.3828C153.121 80.0547 153.584 79.6973 153.959 79.3105L153.941 80.875C153.777 81.0742 153.531 81.2852 153.203 81.5078C152.887 81.7188 152.518 81.8945 152.096 82.0352C151.686 82.1875 151.252 82.2637 150.795 82.2637C149.904 82.2637 149.113 82.0527 148.422 81.6309C147.73 81.209 147.186 80.6523 146.787 79.9609C146.4 79.2578 146.207 78.4902 146.207 77.6582C146.207 76.8262 146.389 76.0586 146.752 75.3555C147.115 74.6523 147.613 74.0898 148.246 73.668C148.891 73.2461 149.623 73.0352 150.443 73.0352ZM150.443 74.4414C149.717 74.4414 149.119 74.6875 148.65 75.1797C148.182 75.6602 147.889 76.2461 147.771 76.9375H153.062C153.004 76.3633 152.84 75.8945 152.57 75.5312C152.312 75.168 151.996 74.8984 151.621 74.7227C151.246 74.5352 150.854 74.4414 150.443 74.4414ZM158.301 73.2109V74.5996C158.488 74.3652 158.729 74.1309 159.021 73.8965C159.314 73.6504 159.643 73.4453 160.006 73.2812C160.381 73.1172 160.768 73.0352 161.166 73.0352C161.764 73.0352 162.309 73.1699 162.801 73.4395C163.293 73.6973 163.686 74.0957 163.979 74.6348C164.271 75.1621 164.418 75.8301 164.418 76.6387V82H162.977L162.959 76.7793C162.959 76.0176 162.789 75.4375 162.449 75.0391C162.121 74.6406 161.611 74.4414 160.92 74.4414C160.451 74.4414 159.982 74.6172 159.514 74.9688C159.057 75.3086 158.652 75.707 158.301 76.1641V82H156.859V73.2109H158.301ZM169.568 70.6797V73.2109H172.135V74.5645H169.568V79.7148C169.568 80.0781 169.662 80.3652 169.85 80.5762C170.037 80.7871 170.324 80.8926 170.711 80.8926C171.062 80.8926 171.355 80.8516 171.59 80.7695C171.824 80.6758 172.029 80.5762 172.205 80.4707V81.6484C171.971 81.8359 171.719 81.9824 171.449 82.0879C171.191 82.2051 170.84 82.2637 170.395 82.2637C169.645 82.2637 169.076 82.041 168.689 81.5957C168.314 81.1387 168.127 80.5352 168.127 79.7852V74.5645H166.439V74.1426C167.014 73.8848 167.494 73.4629 167.881 72.877C168.268 72.2793 168.607 71.5469 168.9 70.6797H169.568ZM177.373 73.0352C177.889 73.0352 178.369 73.1113 178.814 73.2637C179.26 73.4043 179.582 73.5508 179.781 73.7031V75.25C179.535 75.0625 179.201 74.8809 178.779 74.7051C178.357 74.5293 177.924 74.4414 177.479 74.4414C176.928 74.4414 176.512 74.5703 176.23 74.8281C175.961 75.0859 175.826 75.3555 175.826 75.6367C175.826 75.8594 175.902 76.0879 176.055 76.3223C176.219 76.5449 176.5 76.7266 176.898 76.8672L178.375 77.3945C178.949 77.5938 179.377 77.8809 179.658 78.2559C179.939 78.6309 180.08 79.0703 180.08 79.5742C180.08 80.0664 179.939 80.5176 179.658 80.9277C179.389 81.3379 179.008 81.666 178.516 81.9121C178.035 82.1465 177.479 82.2637 176.846 82.2637C176.506 82.2637 176.148 82.2168 175.773 82.123C175.41 82.041 175.082 81.9414 174.789 81.8242C174.496 81.6953 174.279 81.584 174.139 81.4902V79.9434C174.303 80.0605 174.531 80.1953 174.824 80.3477C175.129 80.4883 175.451 80.6113 175.791 80.7168C176.131 80.8105 176.447 80.8574 176.74 80.8574C177.291 80.8574 177.725 80.7344 178.041 80.4883C178.369 80.2422 178.533 79.9375 178.533 79.5742C178.533 79.293 178.422 79.0703 178.199 78.9062C177.988 78.7422 177.678 78.584 177.268 78.4316L175.967 77.957C175.287 77.6992 174.836 77.377 174.613 76.9902C174.391 76.5918 174.279 76.1406 174.279 75.6367C174.279 74.8867 174.561 74.2656 175.123 73.7734C175.686 73.2812 176.436 73.0352 177.373 73.0352ZM195.496 69.3438V82H194.055V80.5059C193.75 80.9746 193.334 81.3848 192.807 81.7363C192.291 82.0879 191.699 82.2637 191.031 82.2637C190.281 82.2637 189.596 82.0762 188.975 81.7012C188.354 81.3145 187.855 80.7812 187.48 80.1016C187.117 79.4219 186.936 78.6367 186.936 77.7461C186.936 76.7734 187.117 75.9355 187.48 75.2324C187.855 74.5293 188.365 73.9902 189.01 73.6152C189.654 73.2285 190.375 73.0352 191.172 73.0352C191.676 73.0352 192.186 73.1582 192.701 73.4043C193.229 73.6387 193.68 73.9668 194.055 74.3887V69.3438H195.496ZM191.436 74.4766C190.803 74.4766 190.264 74.6348 189.818 74.9512C189.373 75.2559 189.027 75.6543 188.781 76.1465C188.547 76.6387 188.43 77.1719 188.43 77.7461C188.43 78.3086 188.547 78.8301 188.781 79.3105C189.016 79.7793 189.344 80.1543 189.766 80.4355C190.199 80.7168 190.697 80.8574 191.26 80.8574C191.799 80.8574 192.279 80.7168 192.701 80.4355C193.123 80.1543 193.457 79.7676 193.703 79.2754C193.949 78.7715 194.066 78.209 194.055 77.5879L194.037 75.9004C193.674 75.4434 193.281 75.0918 192.859 74.8457C192.449 74.5996 191.975 74.4766 191.436 74.4766ZM199.891 68.9922C200.23 68.9922 200.512 69.1152 200.734 69.3613C200.969 69.5957 201.086 69.8711 201.086 70.1875C201.086 70.4922 200.969 70.7676 200.734 71.0137C200.512 71.2598 200.23 71.3828 199.891 71.3828C199.551 71.3828 199.264 71.2598 199.029 71.0137C198.807 70.7676 198.695 70.4922 198.695 70.1875C198.695 69.8711 198.807 69.5957 199.029 69.3613C199.264 69.1152 199.551 68.9922 199.891 68.9922ZM200.787 73.2109V82H199.346V74.5645H197.957V73.2109H200.787ZM211.844 69.3438V82H210.402V80.5059C210.098 80.9746 209.682 81.3848 209.154 81.7363C208.639 82.0879 208.047 82.2637 207.379 82.2637C206.629 82.2637 205.943 82.0762 205.322 81.7012C204.701 81.3145 204.203 80.7812 203.828 80.1016C203.465 79.4219 203.283 78.6367 203.283 77.7461C203.283 76.7734 203.465 75.9355 203.828 75.2324C204.203 74.5293 204.713 73.9902 205.357 73.6152C206.002 73.2285 206.723 73.0352 207.52 73.0352C208.023 73.0352 208.533 73.1582 209.049 73.4043C209.576 73.6387 210.027 73.9668 210.402 74.3887V69.3438H211.844ZM207.783 74.4766C207.15 74.4766 206.611 74.6348 206.166 74.9512C205.721 75.2559 205.375 75.6543 205.129 76.1465C204.895 76.6387 204.777 77.1719 204.777 77.7461C204.777 78.3086 204.895 78.8301 205.129 79.3105C205.363 79.7793 205.691 80.1543 206.113 80.4355C206.547 80.7168 207.045 80.8574 207.607 80.8574C208.146 80.8574 208.627 80.7168 209.049 80.4355C209.471 80.1543 209.805 79.7676 210.051 79.2754C210.297 78.7715 210.414 78.209 210.402 77.5879L210.385 75.9004C210.021 75.4434 209.629 75.0918 209.207 74.8457C208.797 74.5996 208.322 74.4766 207.783 74.4766ZM216.273 73.2109V74.5996C216.461 74.3652 216.701 74.1309 216.994 73.8965C217.287 73.6504 217.615 73.4453 217.979 73.2812C218.354 73.1172 218.74 73.0352 219.139 73.0352C219.736 73.0352 220.281 73.1699 220.773 73.4395C221.266 73.6973 221.658 74.0957 221.951 74.6348C222.244 75.1621 222.391 75.8301 222.391 76.6387V82H220.949L220.932 76.7793C220.932 76.0176 220.762 75.4375 220.422 75.0391C220.094 74.6406 219.584 74.4414 218.893 74.4414C218.424 74.4414 217.955 74.6172 217.486 74.9688C217.029 75.3086 216.625 75.707 216.273 76.1641V82H214.832V73.2109H216.273ZM225.555 69.9062L226.996 70.3984L225.062 74.916L223.973 74.6348L225.555 69.9062ZM231.268 70.6797V73.2109H233.834V74.5645H231.268V79.7148C231.268 80.0781 231.361 80.3652 231.549 80.5762C231.736 80.7871 232.023 80.8926 232.41 80.8926C232.762 80.8926 233.055 80.8516 233.289 80.7695C233.523 80.6758 233.729 80.5762 233.904 80.4707V81.6484C233.67 81.8359 233.418 81.9824 233.148 82.0879C232.891 82.2051 232.539 82.2637 232.094 82.2637C231.344 82.2637 230.775 82.041 230.389 81.5957C230.014 81.1387 229.826 80.5352 229.826 79.7852V74.5645H228.139V74.1426C228.713 73.8848 229.193 73.4629 229.58 72.877C229.967 72.2793 230.307 71.5469 230.6 70.6797H231.268ZM245.348 73.0352C245.852 73.0352 246.361 73.1582 246.877 73.4043C247.404 73.6387 247.855 73.9668 248.23 74.3887V73.2109H249.672V81.8242C249.672 82.8672 249.461 83.7344 249.039 84.4258C248.617 85.1172 248.055 85.6328 247.352 85.9727C246.648 86.3125 245.881 86.4824 245.049 86.4824C244.51 86.4824 244.047 86.418 243.66 86.2891C243.285 86.1719 242.963 86.0195 242.693 85.832C242.424 85.6562 242.178 85.4863 241.955 85.3223V83.7754C242.131 83.9043 242.359 84.0684 242.641 84.2676C242.934 84.4785 243.279 84.666 243.678 84.8301C244.088 84.9941 244.545 85.0762 245.049 85.0762C245.623 85.0762 246.15 84.9707 246.631 84.7598C247.111 84.5488 247.498 84.2383 247.791 83.8281C248.084 83.418 248.23 82.9258 248.23 82.3516V80.5059C247.926 80.9746 247.51 81.3848 246.982 81.7363C246.467 82.0879 245.875 82.2637 245.207 82.2637C244.457 82.2637 243.771 82.0762 243.15 81.7012C242.529 81.3145 242.031 80.7812 241.656 80.1016C241.293 79.4219 241.111 78.6367 241.111 77.7461C241.111 76.7734 241.293 75.9355 241.656 75.2324C242.031 74.5293 242.541 73.9902 243.186 73.6152C243.83 73.2285 244.551 73.0352 245.348 73.0352ZM245.611 74.459C244.979 74.459 244.439 74.6172 243.994 74.9336C243.549 75.2383 243.203 75.6426 242.957 76.1465C242.723 76.6387 242.605 77.1719 242.605 77.7461C242.605 78.3086 242.723 78.8242 242.957 79.293C243.191 79.7617 243.52 80.1367 243.941 80.418C244.375 80.6992 244.873 80.8398 245.436 80.8398C245.975 80.8398 246.455 80.6992 246.877 80.418C247.299 80.1367 247.633 79.75 247.879 79.2578C248.125 78.7656 248.242 78.209 248.23 77.5879L248.213 75.9004C247.85 75.4434 247.457 75.0918 247.035 74.8457C246.625 74.5879 246.15 74.459 245.611 74.459ZM256.633 73.0352C257.523 73.0352 258.314 73.2461 259.006 73.668C259.697 74.0898 260.236 74.6523 260.623 75.3555C261.021 76.0586 261.221 76.8262 261.221 77.6582C261.221 78.4902 261.021 79.2578 260.623 79.9609C260.236 80.6523 259.697 81.209 259.006 81.6309C258.314 82.0527 257.523 82.2637 256.633 82.2637C255.742 82.2637 254.951 82.0527 254.26 81.6309C253.568 81.209 253.023 80.6523 252.625 79.9609C252.238 79.2578 252.045 78.4902 252.045 77.6582C252.045 76.8262 252.238 76.0586 252.625 75.3555C253.023 74.6523 253.568 74.0898 254.26 73.668C254.951 73.2461 255.742 73.0352 256.633 73.0352ZM256.633 74.4414C256.012 74.4414 255.467 74.5938 254.998 74.8984C254.529 75.1914 254.166 75.584 253.908 76.0762C253.662 76.5566 253.539 77.084 253.539 77.6582C253.539 78.2207 253.662 78.748 253.908 79.2402C254.166 79.7207 254.529 80.1133 254.998 80.418C255.467 80.7109 256.012 80.8574 256.633 80.8574C257.266 80.8574 257.811 80.7109 258.268 80.418C258.736 80.1133 259.094 79.7207 259.34 79.2402C259.598 78.748 259.727 78.2207 259.727 77.6582C259.727 77.084 259.598 76.5566 259.34 76.0762C259.094 75.584 258.736 75.1914 258.268 74.8984C257.811 74.5938 257.266 74.4414 256.633 74.4414ZM271.293 70.6797V73.2109H273.859V74.5645H271.293V79.7148C271.293 80.0781 271.387 80.3652 271.574 80.5762C271.762 80.7871 272.049 80.8926 272.436 80.8926C272.787 80.8926 273.08 80.8516 273.314 80.7695C273.549 80.6758 273.754 80.5762 273.93 80.4707V81.6484C273.695 81.8359 273.443 81.9824 273.174 82.0879C272.916 82.2051 272.564 82.2637 272.119 82.2637C271.369 82.2637 270.801 82.041 270.414 81.5957C270.039 81.1387 269.852 80.5352 269.852 79.7852V74.5645H268.164V74.1426C268.738 73.8848 269.219 73.4629 269.605 72.877C269.992 72.2793 270.332 71.5469 270.625 70.6797H271.293ZM280.785 73.0352C281.383 73.0352 281.928 73.1699 282.42 73.4395C282.912 73.6973 283.305 74.0957 283.598 74.6348C283.891 75.1621 284.037 75.8301 284.037 76.6387V82H282.596L282.578 76.7793C282.578 76.0176 282.408 75.4375 282.068 75.0391C281.74 74.6406 281.23 74.4414 280.539 74.4414C280.07 74.4414 279.602 74.6172 279.133 74.9688C278.676 75.3086 278.271 75.707 277.92 76.1641V82H276.479V69.3438H277.92V74.5996C278.107 74.3652 278.348 74.1309 278.641 73.8965C278.934 73.6504 279.262 73.4453 279.625 73.2812C280 73.1172 280.387 73.0352 280.785 73.0352ZM288.203 73.2109V74.9688C288.543 74.3828 288.953 73.9141 289.434 73.5625C289.914 73.2109 290.406 73.0352 290.91 73.0352C291.25 73.0352 291.555 73.0938 291.824 73.2109V74.8809C291.449 74.6582 291.074 74.5469 290.699 74.5469C290.102 74.5469 289.615 74.7578 289.24 75.1797C288.877 75.6016 288.531 76.1055 288.203 76.6914V82H286.762V73.2109H288.203ZM297.643 73.0352C298.533 73.0352 299.324 73.2461 300.016 73.668C300.707 74.0898 301.246 74.6523 301.633 75.3555C302.031 76.0586 302.23 76.8262 302.23 77.6582C302.23 78.4902 302.031 79.2578 301.633 79.9609C301.246 80.6523 300.707 81.209 300.016 81.6309C299.324 82.0527 298.533 82.2637 297.643 82.2637C296.752 82.2637 295.961 82.0527 295.27 81.6309C294.578 81.209 294.033 80.6523 293.635 79.9609C293.248 79.2578 293.055 78.4902 293.055 77.6582C293.055 76.8262 293.248 76.0586 293.635 75.3555C294.033 74.6523 294.578 74.0898 295.27 73.668C295.961 73.2461 296.752 73.0352 297.643 73.0352ZM297.643 74.4414C297.021 74.4414 296.477 74.5938 296.008 74.8984C295.539 75.1914 295.176 75.584 294.918 76.0762C294.672 76.5566 294.549 77.084 294.549 77.6582C294.549 78.2207 294.672 78.748 294.918 79.2402C295.176 79.7207 295.539 80.1133 296.008 80.418C296.477 80.7109 297.021 80.8574 297.643 80.8574C298.275 80.8574 298.82 80.7109 299.277 80.418C299.746 80.1133 300.104 79.7207 300.35 79.2402C300.607 78.748 300.736 78.2207 300.736 77.6582C300.736 77.084 300.607 76.5566 300.35 76.0762C300.104 75.584 299.746 75.1914 299.277 74.8984C298.82 74.5938 298.275 74.4414 297.643 74.4414ZM311.793 73.2109V78.4141C311.793 79.1875 311.629 79.8555 311.301 80.418C310.973 80.9805 310.527 81.4141 309.965 81.7188C309.402 82.0234 308.77 82.1758 308.066 82.1758C307.363 82.1758 306.73 82.0234 306.168 81.7188C305.605 81.4141 305.16 80.9805 304.832 80.418C304.504 79.8555 304.34 79.1875 304.34 78.4141V73.2109H305.834V78.4141C305.834 79.1758 306.057 79.7617 306.502 80.1719C306.959 80.5703 307.48 80.7695 308.066 80.7695C308.652 80.7695 309.168 80.5703 309.613 80.1719C310.07 79.7617 310.299 79.1758 310.299 78.4141V73.2109H311.793ZM318.139 73.0352C318.643 73.0352 319.152 73.1582 319.668 73.4043C320.195 73.6387 320.646 73.9668 321.021 74.3887V73.2109H322.463V81.8242C322.463 82.8672 322.252 83.7344 321.83 84.4258C321.408 85.1172 320.846 85.6328 320.143 85.9727C319.439 86.3125 318.672 86.4824 317.84 86.4824C317.301 86.4824 316.838 86.418 316.451 86.2891C316.076 86.1719 315.754 86.0195 315.484 85.832C315.215 85.6562 314.969 85.4863 314.746 85.3223V83.7754C314.922 83.9043 315.15 84.0684 315.432 84.2676C315.725 84.4785 316.07 84.666 316.469 84.8301C316.879 84.9941 317.336 85.0762 317.84 85.0762C318.414 85.0762 318.941 84.9707 319.422 84.7598C319.902 84.5488 320.289 84.2383 320.582 83.8281C320.875 83.418 321.021 82.9258 321.021 82.3516V80.5059C320.717 80.9746 320.301 81.3848 319.773 81.7363C319.258 82.0879 318.666 82.2637 317.998 82.2637C317.248 82.2637 316.562 82.0762 315.941 81.7012C315.32 81.3145 314.822 80.7812 314.447 80.1016C314.084 79.4219 313.902 78.6367 313.902 77.7461C313.902 76.7734 314.084 75.9355 314.447 75.2324C314.822 74.5293 315.332 73.9902 315.977 73.6152C316.621 73.2285 317.342 73.0352 318.139 73.0352ZM318.402 74.459C317.77 74.459 317.23 74.6172 316.785 74.9336C316.34 75.2383 315.994 75.6426 315.748 76.1465C315.514 76.6387 315.396 77.1719 315.396 77.7461C315.396 78.3086 315.514 78.8242 315.748 79.293C315.982 79.7617 316.311 80.1367 316.732 80.418C317.166 80.6992 317.664 80.8398 318.227 80.8398C318.766 80.8398 319.246 80.6992 319.668 80.418C320.09 80.1367 320.424 79.75 320.67 79.2578C320.916 78.7656 321.033 78.209 321.021 77.5879L321.004 75.9004C320.641 75.4434 320.248 75.0918 319.826 74.8457C319.416 74.5879 318.941 74.459 318.402 74.459ZM329.758 73.0352C330.355 73.0352 330.9 73.1699 331.393 73.4395C331.885 73.6973 332.277 74.0957 332.57 74.6348C332.863 75.1621 333.01 75.8301 333.01 76.6387V82H331.568L331.551 76.7793C331.551 76.0176 331.381 75.4375 331.041 75.0391C330.713 74.6406 330.203 74.4414 329.512 74.4414C329.043 74.4414 328.574 74.6172 328.105 74.9688C327.648 75.3086 327.244 75.707 326.893 76.1641V82H325.451V69.3438H326.893V74.5996C327.08 74.3652 327.32 74.1309 327.613 73.8965C327.906 73.6504 328.234 73.4453 328.598 73.2812C328.973 73.1172 329.359 73.0352 329.758 73.0352ZM336.35 79.9258L337.791 80.418L336.209 85.1113L335.119 84.8301L336.35 79.9258ZM357.496 73.2109L354.42 82H353.523L351.115 75.7949L348.707 82H347.811L344.734 73.2109H346.457L348.408 79.3809L350.711 73.2109H351.52L353.822 79.3809L355.773 73.2109H357.496ZM363.561 73.0352C364.158 73.0352 364.703 73.1699 365.195 73.4395C365.688 73.6973 366.08 74.0957 366.373 74.6348C366.666 75.1621 366.812 75.8301 366.812 76.6387V82H365.371L365.354 76.7793C365.354 76.0176 365.184 75.4375 364.844 75.0391C364.516 74.6406 364.006 74.4414 363.314 74.4414C362.846 74.4414 362.377 74.6172 361.908 74.9688C361.451 75.3086 361.047 75.707 360.695 76.1641V82H359.254V69.3438H360.695V74.5996C360.883 74.3652 361.123 74.1309 361.416 73.8965C361.709 73.6504 362.037 73.4453 362.4 73.2812C362.775 73.1172 363.162 73.0352 363.561 73.0352ZM373.158 73.0352C373.662 73.0352 374.172 73.1582 374.688 73.4043C375.215 73.6387 375.666 73.9668 376.041 74.3887V73.2109H377.482V82H376.041V80.5059C375.736 80.9746 375.32 81.3848 374.793 81.7363C374.277 82.0879 373.686 82.2637 373.018 82.2637C372.268 82.2637 371.582 82.0762 370.961 81.7012C370.34 81.3145 369.842 80.7812 369.467 80.1016C369.104 79.4219 368.922 78.6367 368.922 77.7461C368.922 76.7734 369.104 75.9355 369.467 75.2324C369.842 74.5293 370.352 73.9902 370.996 73.6152C371.641 73.2285 372.361 73.0352 373.158 73.0352ZM373.422 74.4414C372.789 74.4414 372.25 74.5996 371.805 74.916C371.359 75.2324 371.014 75.6426 370.768 76.1465C370.533 76.6387 370.416 77.1719 370.416 77.7461C370.416 78.3086 370.533 78.8301 370.768 79.3105C371.002 79.7793 371.33 80.1543 371.752 80.4355C372.186 80.7168 372.684 80.8574 373.246 80.8574C373.785 80.8574 374.266 80.7168 374.688 80.4355C375.109 80.1543 375.443 79.7676 375.689 79.2754C375.936 78.7715 376.053 78.209 376.041 77.5879L376.023 75.9004C375.66 75.4434 375.268 75.0859 374.846 74.8281C374.436 74.5703 373.961 74.4414 373.422 74.4414ZM382.896 70.6797V73.2109H385.463V74.5645H382.896V79.7148C382.896 80.0781 382.99 80.3652 383.178 80.5762C383.365 80.7871 383.652 80.8926 384.039 80.8926C384.391 80.8926 384.684 80.8516 384.918 80.7695C385.152 80.6758 385.357 80.5762 385.533 80.4707V81.6484C385.299 81.8359 385.047 81.9824 384.777 82.0879C384.52 82.2051 384.168 82.2637 383.723 82.2637C382.973 82.2637 382.404 82.041 382.018 81.5957C381.643 81.1387 381.455 80.5352 381.455 79.7852V74.5645H379.768V74.1426C380.342 73.8848 380.822 73.4629 381.209 72.877C381.596 72.2793 381.936 71.5469 382.229 70.6797H382.896ZM401.301 69.3438V82H399.859V80.5059C399.555 80.9746 399.139 81.3848 398.611 81.7363C398.096 82.0879 397.504 82.2637 396.836 82.2637C396.086 82.2637 395.4 82.0762 394.779 81.7012C394.158 81.3145 393.66 80.7812 393.285 80.1016C392.922 79.4219 392.74 78.6367 392.74 77.7461C392.74 76.7734 392.922 75.9355 393.285 75.2324C393.66 74.5293 394.17 73.9902 394.814 73.6152C395.459 73.2285 396.18 73.0352 396.977 73.0352C397.48 73.0352 397.99 73.1582 398.506 73.4043C399.033 73.6387 399.484 73.9668 399.859 74.3887V69.3438H401.301ZM397.24 74.4766C396.607 74.4766 396.068 74.6348 395.623 74.9512C395.178 75.2559 394.832 75.6543 394.586 76.1465C394.352 76.6387 394.234 77.1719 394.234 77.7461C394.234 78.3086 394.352 78.8301 394.586 79.3105C394.82 79.7793 395.148 80.1543 395.57 80.4355C396.004 80.7168 396.502 80.8574 397.064 80.8574C397.604 80.8574 398.084 80.7168 398.506 80.4355C398.928 80.1543 399.262 79.7676 399.508 79.2754C399.754 78.7715 399.871 78.209 399.859 77.5879L399.842 75.9004C399.479 75.4434 399.086 75.0918 398.664 74.8457C398.254 74.5996 397.779 74.4766 397.24 74.4766ZM408.262 73.0352C409.152 73.0352 409.943 73.2461 410.635 73.668C411.326 74.0898 411.865 74.6523 412.252 75.3555C412.65 76.0586 412.85 76.8262 412.85 77.6582C412.85 78.4902 412.65 79.2578 412.252 79.9609C411.865 80.6523 411.326 81.209 410.635 81.6309C409.943 82.0527 409.152 82.2637 408.262 82.2637C407.371 82.2637 406.58 82.0527 405.889 81.6309C405.197 81.209 404.652 80.6523 404.254 79.9609C403.867 79.2578 403.674 78.4902 403.674 77.6582C403.674 76.8262 403.867 76.0586 404.254 75.3555C404.652 74.6523 405.197 74.0898 405.889 73.668C406.58 73.2461 407.371 73.0352 408.262 73.0352ZM408.262 74.4414C407.641 74.4414 407.096 74.5938 406.627 74.8984C406.158 75.1914 405.795 75.584 405.537 76.0762C405.291 76.5566 405.168 77.084 405.168 77.6582C405.168 78.2207 405.291 78.748 405.537 79.2402C405.795 79.7207 406.158 80.1133 406.627 80.418C407.096 80.7109 407.641 80.8574 408.262 80.8574C408.895 80.8574 409.439 80.7109 409.896 80.418C410.365 80.1133 410.723 79.7207 410.969 79.2402C411.227 78.748 411.355 78.2207 411.355 77.6582C411.355 77.084 411.227 76.5566 410.969 76.0762C410.723 75.584 410.365 75.1914 409.896 74.8984C409.439 74.5938 408.895 74.4414 408.262 74.4414ZM426.49 80.5059V82H420.936V80.5059H422.922V71.7168H420.936V70.2227H426.49V71.7168H424.504V80.5059H426.49ZM443.137 69.3438V82H441.695V80.5059C441.391 80.9746 440.975 81.3848 440.447 81.7363C439.932 82.0879 439.34 82.2637 438.672 82.2637C437.922 82.2637 437.236 82.0762 436.615 81.7012C435.994 81.3145 435.496 80.7812 435.121 80.1016C434.758 79.4219 434.576 78.6367 434.576 77.7461C434.576 76.7734 434.758 75.9355 435.121 75.2324C435.496 74.5293 436.006 73.9902 436.65 73.6152C437.295 73.2285 438.016 73.0352 438.812 73.0352C439.316 73.0352 439.826 73.1582 440.342 73.4043C440.869 73.6387 441.32 73.9668 441.695 74.3887V69.3438H443.137ZM439.076 74.4766C438.443 74.4766 437.904 74.6348 437.459 74.9512C437.014 75.2559 436.668 75.6543 436.422 76.1465C436.188 76.6387 436.07 77.1719 436.07 77.7461C436.07 78.3086 436.188 78.8301 436.422 79.3105C436.656 79.7793 436.984 80.1543 437.406 80.4355C437.84 80.7168 438.338 80.8574 438.9 80.8574C439.439 80.8574 439.92 80.7168 440.342 80.4355C440.764 80.1543 441.098 79.7676 441.344 79.2754C441.59 78.7715 441.707 78.209 441.695 77.5879L441.678 75.9004C441.314 75.4434 440.922 75.0918 440.5 74.8457C440.09 74.5996 439.615 74.4766 439.076 74.4766ZM450.098 73.0352C450.988 73.0352 451.779 73.2461 452.471 73.668C453.162 74.0898 453.701 74.6523 454.088 75.3555C454.486 76.0586 454.686 76.8262 454.686 77.6582C454.686 78.4902 454.486 79.2578 454.088 79.9609C453.701 80.6523 453.162 81.209 452.471 81.6309C451.779 82.0527 450.988 82.2637 450.098 82.2637C449.207 82.2637 448.416 82.0527 447.725 81.6309C447.033 81.209 446.488 80.6523 446.09 79.9609C445.703 79.2578 445.51 78.4902 445.51 77.6582C445.51 76.8262 445.703 76.0586 446.09 75.3555C446.488 74.6523 447.033 74.0898 447.725 73.668C448.416 73.2461 449.207 73.0352 450.098 73.0352ZM450.098 74.4414C449.477 74.4414 448.932 74.5938 448.463 74.8984C447.994 75.1914 447.631 75.584 447.373 76.0762C447.127 76.5566 447.004 77.084 447.004 77.6582C447.004 78.2207 447.127 78.748 447.373 79.2402C447.631 79.7207 447.994 80.1133 448.463 80.418C448.932 80.7109 449.477 80.8574 450.098 80.8574C450.73 80.8574 451.275 80.7109 451.732 80.418C452.201 80.1133 452.559 79.7207 452.805 79.2402C453.062 78.748 453.191 78.2207 453.191 77.6582C453.191 77.084 453.062 76.5566 452.805 76.0762C452.559 75.584 452.201 75.1914 451.732 74.8984C451.275 74.5938 450.73 74.4414 450.098 74.4414ZM460.223 69.959C460.926 69.959 461.564 70.1055 462.139 70.3984C462.713 70.6914 463.164 71.0957 463.492 71.6113C463.832 72.127 464.002 72.7188 464.002 73.3867C464.002 73.8203 463.891 74.2129 463.668 74.5645C463.457 74.9043 463.188 75.2148 462.859 75.4961C462.543 75.7773 462.227 76.041 461.91 76.2871C461.594 76.5332 461.33 76.7793 461.119 77.0254C460.908 77.2715 460.809 77.5293 460.82 77.7988L460.838 78.168H459.133V77.4648C459.133 77.207 459.232 76.9609 459.432 76.7266C459.643 76.4805 459.9 76.2402 460.205 76.0059C460.51 75.7598 460.814 75.5137 461.119 75.2676C461.436 75.0098 461.693 74.7461 461.893 74.4766C462.104 74.207 462.209 73.9199 462.209 73.6152C462.209 73.041 462.021 72.5664 461.646 72.1914C461.283 71.8164 460.75 71.6289 460.047 71.6289C459.344 71.6289 458.758 71.7695 458.289 72.0508C457.832 72.3203 457.393 72.7246 456.971 73.2637V71.3477C457.287 70.9609 457.738 70.6328 458.324 70.3633C458.91 70.0938 459.543 69.959 460.223 69.959ZM460.064 79.8555C460.404 79.8555 460.691 79.9785 460.926 80.2246C461.172 80.459 461.295 80.7461 461.295 81.0859C461.295 81.4141 461.172 81.7012 460.926 81.9473C460.691 82.1934 460.404 82.3164 460.064 82.3164C459.725 82.3164 459.432 82.1934 459.186 81.9473C458.951 81.7012 458.834 81.4141 458.834 81.0859C458.834 80.7461 458.951 80.459 459.186 80.2246C459.432 79.9785 459.725 79.8555 460.064 79.8555Z" fill="#1F365D"/>
<path d="M799.668 74.667V66.667H802.335V74.667H810.335V77.3337H802.335V85.3337H799.668V77.3337H791.668V74.667H799.668Z" fill="#1F365D"/>
</g>
<defs>
<filter id="filter0_d_610_7503" x="0" y="0" width="884" height="160" filterUnits="userSpaceOnUse" color-interpolation-filters="sRGB">
<feFlood flood-opacity="0" result="BackgroundImageFix"/>
<feColorMatrix in="SourceAlpha" type="matrix" values="0 0 0 0 0 0 0 0 0 0 0 0 0 0 0 0 0 0 127 0" result="hardAlpha"/>
<feOffset dy="4"/>
<feGaussianBlur stdDeviation="17.5"/>
<feComposite in2="hardAlpha" operator="out"/>
<feColorMatrix type="matrix" values="0 0 0 0 0.920833 0 0 0 0 0.916997 0 0 0 0 0.916997 0 0 0 0.25 0"/>
<feBlend mode="normal" in2="BackgroundImageFix" result="effect1_dropShadow_610_7503"/>
<feBlend mode="normal" in="SourceGraphic" in2="effect1_dropShadow_610_7503" result="shape"/>
</filter>
</defs>
</svg>
