<svg width="45" height="50" viewBox="0 0 45 50" fill="none" xmlns="http://www.w3.org/2000/svg">
<path d="M42.5 50H8.75C6.42936 50 4.20376 49.0781 2.56282 47.4372C0.921873 45.7962 0 43.5706 0 41.25V7.5C0 5.51088 0.790177 3.60322 2.1967 2.1967C3.60322 0.790177 5.51088 0 7.5 0H42.5C43.163 0 43.7989 0.263392 44.2678 0.732233C44.7366 1.20107 45 1.83696 45 2.5V47.5C45 48.163 44.7366 48.7989 44.2678 49.2678C43.7989 49.7366 43.163 50 42.5 50ZM40 45V37.5H8.75C7.75544 37.5 6.80161 37.8951 6.09835 38.5984C5.39509 39.3016 5 40.2554 5 41.25C5 42.2446 5.39509 43.1984 6.09835 43.9016C6.80161 44.6049 7.75544 45 8.75 45H40Z" fill="#45B5E3"/>
<path d="M19.9168 24.8046L29.4918 15.2285L30.9657 16.7014L19.9168 27.7504L13.2876 21.1212L14.7605 19.6483L19.9168 24.8046Z" fill="white"/>
</svg>
