<svg width="116" height="56" viewBox="0 0 116 56" fill="none" xmlns="http://www.w3.org/2000/svg">
<g clip-path="url(#clip0_863_12871)">
<path d="M10.9565 26.7815H8.19547L9.57599 24.3906C9.90834 23.8062 9.70382 23.0629 9.11936 22.7306C8.54037 22.4014 7.80435 22.5987 7.46744 23.1732L6.08691 25.5641L4.70639 23.1732C4.3664 22.5932 3.62044 22.3986 3.04043 22.7387C2.4659 23.0755 2.26868 23.8116 2.59784 24.3906L3.97836 26.7815H1.21743C0.545087 26.7815 0 27.3266 0 27.999C0 28.6713 0.545087 29.2164 1.21743 29.2164H3.97847L2.59795 31.6073C2.26184 32.1896 2.46122 32.9341 3.04351 33.2703C3.22829 33.378 3.43841 33.4342 3.65217 33.4334C4.08792 33.4343 4.49092 33.2021 4.7089 32.8248L6.08703 30.4338L7.46755 32.8248C7.68542 33.2022 8.08842 33.4343 8.52428 33.4334C8.73805 33.4342 8.94828 33.378 9.13294 33.2703C9.71523 32.9341 9.91462 32.1896 9.5785 31.6073L8.19547 29.2163H10.9565C11.6289 29.2163 12.1739 28.6712 12.1739 27.9989C12.1739 27.3266 11.6289 26.7815 10.9565 26.7815Z" fill="#2196F3"/>
<path d="M25.5658 26.7816H22.8047L24.1853 24.3907C24.5176 23.8062 24.3132 23.063 23.7287 22.7306C23.1497 22.4014 22.4136 22.5986 22.0768 23.1732L20.6963 25.5641L19.3158 23.1732C18.9758 22.5932 18.2299 22.3986 17.6499 22.7386C17.0753 23.0754 16.8781 23.8116 17.2073 24.3905L18.5878 26.7815H15.8268C15.1545 26.7815 14.6094 27.3265 14.6094 27.9989C14.6094 28.6712 15.1545 29.2163 15.8268 29.2163H18.5878L17.2073 31.6072C16.8712 32.1895 17.0706 32.934 17.6529 33.2702C17.8377 33.3779 18.0478 33.4341 18.2615 33.4333C18.6973 33.4342 19.1003 33.202 19.3183 32.8247L20.6964 30.4338L22.0769 32.8247C22.2948 33.2021 22.6978 33.4342 23.1337 33.4333C23.3474 33.4341 23.5576 33.3779 23.7423 33.2702C24.3246 32.934 24.524 32.1895 24.1879 31.6072L22.805 29.2163H25.5658C26.2381 29.2163 26.7832 28.6712 26.7832 27.9989C26.7832 27.3267 26.2381 26.7816 25.5658 26.7816Z" fill="#2196F3"/>
<path d="M40.1732 26.7816H37.4122L38.7927 24.3907C39.125 23.8062 38.9206 23.063 38.3362 22.7306C37.7572 22.4014 37.021 22.5986 36.6842 23.1732L35.3037 25.5641L33.9232 23.1732C33.5832 22.5932 32.8374 22.3986 32.2573 22.7386C31.6827 23.0754 31.4855 23.8116 31.8147 24.3905L33.1953 26.7815H30.4342C29.7619 26.7815 29.2168 27.3265 29.2168 27.9989C29.2168 28.6712 29.7619 29.2163 30.4342 29.2163H33.1953L31.8147 31.6072C31.4786 32.1895 31.678 32.934 32.2603 33.2702C32.4451 33.3779 32.6552 33.4341 32.869 33.4333C33.3047 33.4342 33.7077 33.202 33.9257 32.8247L35.3038 30.4338L36.6843 32.8247C36.9022 33.2021 37.3052 33.4342 37.7411 33.4333C37.9548 33.4341 38.1651 33.3779 38.3497 33.2702C38.932 32.934 39.1314 32.1895 38.7953 31.6072L37.4148 29.2163H40.1732C40.8455 29.2163 41.3906 28.6712 41.3906 27.9989C41.3906 27.3267 40.8455 26.7816 40.1732 26.7816Z" fill="#2196F3"/>
<path d="M54.7827 26.7813H52.0217L53.4022 24.3904C53.7345 23.8059 53.5299 23.0627 52.9455 22.7305C52.3665 22.4015 51.6306 22.5986 51.2937 23.1731L49.9132 25.564L48.5327 23.1731C48.1925 22.5931 47.4467 22.3986 46.8667 22.7387C46.2923 23.0756 46.0951 23.8115 46.4241 24.3905L47.8046 26.7814H45.0436C44.3713 26.7814 43.8262 27.3265 43.8262 27.9988C43.8262 28.6712 44.3713 29.2163 45.0436 29.2163H47.8046L46.4241 31.6072C46.088 32.1895 46.2874 32.9339 46.8697 33.2702C47.0544 33.3778 47.2646 33.4341 47.4783 33.4333C47.9141 33.4342 48.3171 33.2019 48.535 32.8246L49.9132 30.4337L51.2937 32.8246C51.5116 33.202 51.9145 33.4342 52.3504 33.4333C52.5642 33.4341 52.7744 33.3778 52.9591 33.2702C53.5414 32.9339 53.7407 32.1895 53.4046 31.6072L52.0241 29.2163H54.7827C55.4551 29.2163 56.0002 28.6712 56.0002 27.9988C56.0002 27.3264 55.4551 26.7813 54.7827 26.7813Z" fill="#2196F3"/>
<path d="M10.9565 29.214H1.21743C0.545087 29.214 0 28.6691 0 27.9967C0 27.3244 0.545087 26.7793 1.21743 26.7793H10.9565C11.6289 26.7793 12.1739 27.3244 12.1739 27.9967C12.1739 28.6691 11.6289 29.214 10.9565 29.214Z" fill="#1F365D"/>
<path d="M3.65286 33.4306C2.98052 33.4306 2.43543 32.8855 2.43555 32.2131C2.43555 31.9995 2.49181 31.7895 2.59864 31.6045L7.46812 23.168C7.82877 22.6005 8.58123 22.433 9.14857 22.7937C9.68248 23.1332 9.86748 23.8249 9.57417 24.3854L4.70457 32.8219C4.48761 33.1977 4.0869 33.4297 3.65286 33.4306Z" fill="#1F365D"/>
<path d="M8.52177 33.4305C8.08682 33.4305 7.68496 33.1985 7.46755 32.8218L2.59794 24.3854C2.28625 23.7896 2.51656 23.054 3.11233 22.7423C3.67282 22.4491 4.36457 22.634 4.70399 23.1679L9.5736 31.6044C9.90982 32.1867 9.71032 32.9312 9.12803 33.2674C8.94302 33.3742 8.73302 33.4305 8.51937 33.4305H8.52177Z" fill="#1F365D"/>
<path d="M25.5659 29.2122H15.8268C15.1545 29.2122 14.6094 28.6671 14.6094 27.9948C14.6094 27.3224 15.1545 26.7773 15.8268 26.7773H25.5659C26.2382 26.7773 26.7833 27.3224 26.7833 27.9948C26.7833 28.6672 26.2382 29.2122 25.5659 29.2122Z" fill="#1F365D"/>
<path d="M18.2603 33.4306C17.5879 33.4306 17.0429 32.8855 17.043 32.2131C17.043 31.9995 17.0992 31.7895 17.2061 31.6045L22.0755 23.168C22.4362 22.6005 23.1887 22.433 23.756 22.7937C24.2899 23.1332 24.4748 23.8248 24.1816 24.3854L19.312 32.8219C19.095 33.1977 18.6943 33.4297 18.2603 33.4306Z" fill="#1F365D"/>
<path d="M23.1312 33.4305C22.6962 33.4305 22.2943 33.1985 22.0769 32.8218L17.2073 24.3854C16.8956 23.7896 17.1259 23.054 17.7217 22.7423C18.2822 22.4491 18.9739 22.634 19.3134 23.1679L24.183 31.6044C24.5192 32.1867 24.3197 32.9312 23.7374 33.2674C23.5524 33.3742 23.3424 33.4305 23.1288 33.4305H23.1312Z" fill="#1F365D"/>
<path d="M40.1733 29.2122H30.4342C29.7619 29.2122 29.2168 28.6671 29.2168 27.9948C29.2168 27.3224 29.7619 26.7773 30.4342 26.7773H40.1733C40.8456 26.7773 41.3907 27.3224 41.3907 27.9948C41.3907 28.6672 40.8456 29.2122 40.1733 29.2122Z" fill="#1F365D"/>
<path d="M32.8697 33.4296C32.1973 33.4296 31.6522 32.8845 31.6523 32.2122C31.6523 31.9985 31.7086 31.7885 31.8154 31.6035L36.6849 23.167C37.0456 22.5996 37.798 22.432 38.3654 22.7927C38.8993 23.1321 39.0843 23.8238 38.791 24.3843L33.9214 32.8208C33.7044 33.1968 33.3037 33.4287 32.8697 33.4296Z" fill="#1F365D"/>
<path d="M37.7386 33.4305C37.3036 33.4305 36.9018 33.1985 36.6844 32.8218L31.8147 24.3854C31.503 23.7896 31.7334 23.054 32.3291 22.7423C32.8896 22.4491 33.5814 22.634 33.9208 23.1679L38.7904 31.6044C39.1266 32.1867 38.9271 32.9312 38.3448 33.2674C38.1598 33.3742 37.9498 33.4305 37.7362 33.4305H37.7386Z" fill="#1F365D"/>
<path d="M54.7827 29.2122H45.0436C44.3713 29.2122 43.8262 28.6671 43.8262 27.9948C43.8262 27.3224 44.3713 26.7773 45.0436 26.7773H54.7827C55.455 26.7773 56.0001 27.3224 56.0001 27.9948C56.0001 28.6672 55.455 29.2122 54.7827 29.2122Z" fill="#1F365D"/>
<path d="M47.479 33.4306C46.8067 33.4306 46.2616 32.8855 46.2617 32.2131C46.2617 31.9995 46.318 31.7895 46.4248 31.6045L51.2943 23.168C51.655 22.6005 52.4074 22.433 52.9748 22.7937C53.5087 23.1332 53.6936 23.8248 53.4004 24.3854L48.5308 32.8219C48.3138 33.1977 47.9131 33.4297 47.479 33.4306Z" fill="#1F365D"/>
<path d="M52.3479 33.4305C51.913 33.4305 51.5111 33.1985 51.2937 32.8218L46.4241 24.3854C46.1124 23.7896 46.3427 23.054 46.9385 22.7423C47.499 22.4491 48.1907 22.634 48.5302 23.1679L53.3998 31.6044C53.736 32.1867 53.5365 32.9312 52.9542 33.2674C52.7692 33.3742 52.5592 33.4305 52.3455 33.4305H52.3479Z" fill="#1F365D"/>
</g>
<g clip-path="url(#clip1_863_12871)">
<path d="M70.9565 26.7815H68.1955L69.576 24.3906C69.9083 23.8062 69.7038 23.0629 69.1194 22.7306C68.5404 22.4014 67.8043 22.5987 67.4674 23.1732L66.0869 25.5641L64.7064 23.1732C64.3664 22.5932 63.6204 22.3986 63.0404 22.7387C62.4659 23.0755 62.2687 23.8116 62.5978 24.3906L63.9784 26.7815H61.2174C60.5451 26.7815 60 27.3266 60 27.999C60 28.6713 60.5451 29.2164 61.2174 29.2164H63.9785L62.5979 31.6073C62.2618 32.1896 62.4612 32.9341 63.0435 33.2703C63.2283 33.378 63.4384 33.4342 63.6522 33.4334C64.0879 33.4343 64.4909 33.2021 64.7089 32.8248L66.087 30.4338L67.4675 32.8248C67.6854 33.2022 68.0884 33.4343 68.5243 33.4334C68.738 33.4342 68.9483 33.378 69.1329 33.2703C69.7152 32.9341 69.9146 32.1896 69.5785 31.6073L68.1955 29.2163H70.9565C71.6289 29.2163 72.1739 28.6712 72.1739 27.9989C72.1739 27.3266 71.6289 26.7815 70.9565 26.7815Z" fill="#2196F3"/>
<path d="M85.5658 26.7816H82.8047L84.1853 24.3907C84.5176 23.8062 84.3132 23.063 83.7287 22.7306C83.1497 22.4014 82.4136 22.5986 82.0768 23.1732L80.6963 25.5641L79.3158 23.1732C78.9758 22.5932 78.2299 22.3986 77.6499 22.7386C77.0753 23.0754 76.8781 23.8116 77.2073 24.3905L78.5878 26.7815H75.8268C75.1545 26.7815 74.6094 27.3265 74.6094 27.9989C74.6094 28.6712 75.1545 29.2163 75.8268 29.2163H78.5878L77.2073 31.6072C76.8712 32.1895 77.0706 32.934 77.6529 33.2702C77.8377 33.3779 78.0478 33.4341 78.2615 33.4333C78.6973 33.4342 79.1003 33.202 79.3183 32.8247L80.6964 30.4338L82.0769 32.8247C82.2948 33.2021 82.6978 33.4342 83.1337 33.4333C83.3474 33.4341 83.5576 33.3779 83.7423 33.2702C84.3246 32.934 84.524 32.1895 84.1879 31.6072L82.805 29.2163H85.5658C86.2381 29.2163 86.7832 28.6712 86.7832 27.9989C86.7832 27.3267 86.2381 26.7816 85.5658 26.7816Z" fill="#2196F3"/>
<path d="M100.173 26.7816H97.4122L98.7927 24.3907C99.125 23.8062 98.9206 23.063 98.3362 22.7306C97.7572 22.4014 97.021 22.5986 96.6842 23.1732L95.3037 25.5641L93.9232 23.1732C93.5832 22.5932 92.8374 22.3986 92.2573 22.7386C91.6827 23.0754 91.4855 23.8116 91.8147 24.3905L93.1953 26.7815H90.4342C89.7619 26.7815 89.2168 27.3265 89.2168 27.9989C89.2168 28.6712 89.7619 29.2163 90.4342 29.2163H93.1953L91.8147 31.6072C91.4786 32.1895 91.678 32.934 92.2603 33.2702C92.4451 33.3779 92.6552 33.4341 92.869 33.4333C93.3047 33.4342 93.7077 33.202 93.9257 32.8247L95.3038 30.4338L96.6843 32.8247C96.9022 33.2021 97.3052 33.4342 97.7411 33.4333C97.9548 33.4341 98.1651 33.3779 98.3497 33.2702C98.932 32.934 99.1314 32.1895 98.7953 31.6072L97.4148 29.2163H100.173C100.846 29.2163 101.391 28.6712 101.391 27.9989C101.391 27.3267 100.846 26.7816 100.173 26.7816Z" fill="#2196F3"/>
<path d="M114.783 26.7813H112.022L113.402 24.3904C113.734 23.8059 113.53 23.0627 112.945 22.7305C112.366 22.4015 111.631 22.5986 111.294 23.1731L109.913 25.564L108.533 23.1731C108.193 22.5931 107.447 22.3986 106.867 22.7387C106.292 23.0756 106.095 23.8115 106.424 24.3905L107.805 26.7814H105.044C104.371 26.7814 103.826 27.3265 103.826 27.9988C103.826 28.6712 104.371 29.2163 105.044 29.2163H107.805L106.424 31.6072C106.088 32.1895 106.287 32.9339 106.87 33.2702C107.054 33.3778 107.265 33.4341 107.478 33.4333C107.914 33.4342 108.317 33.2019 108.535 32.8246L109.913 30.4337L111.294 32.8246C111.512 33.202 111.915 33.4342 112.35 33.4333C112.564 33.4341 112.774 33.3778 112.959 33.2702C113.541 32.9339 113.741 32.1895 113.405 31.6072L112.024 29.2163H114.783C115.455 29.2163 116 28.6712 116 27.9988C116 27.3264 115.455 26.7813 114.783 26.7813Z" fill="#2196F3"/>
<path d="M70.9565 29.214H61.2174C60.5451 29.214 60 28.6691 60 27.9967C60 27.3244 60.5451 26.7793 61.2174 26.7793H70.9565C71.6289 26.7793 72.1739 27.3244 72.1739 27.9967C72.1739 28.6691 71.6289 29.214 70.9565 29.214Z" fill="#1F365D"/>
<path d="M63.6529 33.4306C62.9805 33.4306 62.4354 32.8855 62.4355 32.2131C62.4355 31.9995 62.4918 31.7895 62.5986 31.6045L67.4681 23.168C67.8288 22.6005 68.5812 22.433 69.1486 22.7937C69.6825 23.1332 69.8675 23.8249 69.5742 24.3854L64.7046 32.8219C64.4876 33.1977 64.0869 33.4297 63.6529 33.4306Z" fill="#1F365D"/>
<path d="M68.5218 33.4305C68.0868 33.4305 67.685 33.1985 67.4675 32.8218L62.5979 24.3854C62.2862 23.7896 62.5166 23.054 63.1123 22.7423C63.6728 22.4491 64.3646 22.634 64.704 23.1679L69.5736 31.6044C69.9098 32.1867 69.7103 32.9312 69.128 33.2674C68.943 33.3742 68.733 33.4305 68.5194 33.4305H68.5218Z" fill="#1F365D"/>
<path d="M85.5659 29.2122H75.8268C75.1545 29.2122 74.6094 28.6671 74.6094 27.9948C74.6094 27.3224 75.1545 26.7773 75.8268 26.7773H85.5659C86.2382 26.7773 86.7833 27.3224 86.7833 27.9948C86.7833 28.6672 86.2382 29.2122 85.5659 29.2122Z" fill="#1F365D"/>
<path d="M78.2603 33.4306C77.5879 33.4306 77.0429 32.8855 77.043 32.2131C77.043 31.9995 77.0992 31.7895 77.2061 31.6045L82.0755 23.168C82.4362 22.6005 83.1887 22.433 83.756 22.7937C84.2899 23.1332 84.4748 23.8248 84.1816 24.3854L79.312 32.8219C79.095 33.1977 78.6943 33.4297 78.2603 33.4306Z" fill="#1F365D"/>
<path d="M83.1312 33.4305C82.6962 33.4305 82.2943 33.1985 82.0769 32.8218L77.2073 24.3854C76.8956 23.7896 77.1259 23.054 77.7217 22.7423C78.2822 22.4491 78.9739 22.634 79.3134 23.1679L84.183 31.6044C84.5192 32.1867 84.3197 32.9312 83.7374 33.2674C83.5524 33.3742 83.3424 33.4305 83.1288 33.4305H83.1312Z" fill="#1F365D"/>
<path d="M100.173 29.2122H90.4342C89.7619 29.2122 89.2168 28.6671 89.2168 27.9948C89.2168 27.3224 89.7619 26.7773 90.4342 26.7773H100.173C100.846 26.7773 101.391 27.3224 101.391 27.9948C101.391 28.6672 100.846 29.2122 100.173 29.2122Z" fill="#1F365D"/>
<path d="M92.8697 33.4296C92.1973 33.4296 91.6522 32.8845 91.6523 32.2122C91.6523 31.9985 91.7086 31.7885 91.8154 31.6035L96.6849 23.167C97.0456 22.5996 97.798 22.432 98.3654 22.7927C98.8993 23.1321 99.0843 23.8238 98.791 24.3843L93.9214 32.8208C93.7044 33.1968 93.3037 33.4287 92.8697 33.4296Z" fill="#1F365D"/>
<path d="M97.7386 33.4305C97.3036 33.4305 96.9018 33.1985 96.6844 32.8218L91.8147 24.3854C91.503 23.7896 91.7334 23.054 92.3291 22.7423C92.8896 22.4491 93.5814 22.634 93.9208 23.1679L98.7904 31.6044C99.1266 32.1867 98.9271 32.9312 98.3448 33.2674C98.1598 33.3742 97.9498 33.4305 97.7362 33.4305H97.7386Z" fill="#1F365D"/>
<path d="M114.783 29.2122H105.044C104.371 29.2122 103.826 28.6671 103.826 27.9948C103.826 27.3224 104.371 26.7773 105.044 26.7773H114.783C115.455 26.7773 116 27.3224 116 27.9948C116 28.6672 115.455 29.2122 114.783 29.2122Z" fill="#1F365D"/>
<path d="M107.479 33.4306C106.807 33.4306 106.262 32.8855 106.262 32.2131C106.262 31.9995 106.318 31.7895 106.425 31.6045L111.294 23.168C111.655 22.6005 112.407 22.433 112.975 22.7937C113.509 23.1332 113.694 23.8248 113.4 24.3854L108.531 32.8219C108.314 33.1977 107.913 33.4297 107.479 33.4306Z" fill="#1F365D"/>
<path d="M112.348 33.4305C111.913 33.4305 111.511 33.1985 111.294 32.8218L106.424 24.3854C106.112 23.7896 106.343 23.054 106.938 22.7423C107.499 22.4491 108.191 22.634 108.53 23.1679L113.4 31.6044C113.736 32.1867 113.536 32.9312 112.954 33.2674C112.769 33.3742 112.559 33.4305 112.346 33.4305H112.348Z" fill="#1F365D"/>
</g>
<defs>
<clipPath id="clip0_863_12871">
<rect width="56" height="56" fill="white"/>
</clipPath>
<clipPath id="clip1_863_12871">
<rect width="56" height="56" fill="white" transform="translate(60)"/>
</clipPath>
</defs>
</svg>
