<svg width="884" height="160" viewBox="0 0 884 160" fill="none" xmlns="http://www.w3.org/2000/svg">
<g filter="url(#filter0_d_610_7049)">
<rect x="35" y="31" width="814" height="90" rx="4" fill="white"/>
<path d="M70.5156 70.2227V75.1797H77.2305V70.2227H78.8125V82H77.2305V76.6738H70.5156V82H68.9336V70.2227H70.5156ZM86.2129 73.0352C87.1035 73.0352 87.8945 73.2461 88.5859 73.668C89.2773 74.0898 89.8164 74.6523 90.2031 75.3555C90.6016 76.0586 90.8008 76.8262 90.8008 77.6582C90.8008 78.4902 90.6016 79.2578 90.2031 79.9609C89.8164 80.6523 89.2773 81.209 88.5859 81.6309C87.8945 82.0527 87.1035 82.2637 86.2129 82.2637C85.3223 82.2637 84.5312 82.0527 83.8398 81.6309C83.1484 81.209 82.6035 80.6523 82.2051 79.9609C81.8184 79.2578 81.625 78.4902 81.625 77.6582C81.625 76.8262 81.8184 76.0586 82.2051 75.3555C82.6035 74.6523 83.1484 74.0898 83.8398 73.668C84.5312 73.2461 85.3223 73.0352 86.2129 73.0352ZM86.2129 74.4414C85.5918 74.4414 85.0469 74.5938 84.5781 74.8984C84.1094 75.1914 83.7461 75.584 83.4883 76.0762C83.2422 76.5566 83.1191 77.084 83.1191 77.6582C83.1191 78.2207 83.2422 78.748 83.4883 79.2402C83.7461 79.7207 84.1094 80.1133 84.5781 80.418C85.0469 80.7109 85.5918 80.8574 86.2129 80.8574C86.8457 80.8574 87.3906 80.7109 87.8477 80.418C88.3164 80.1133 88.6738 79.7207 88.9199 79.2402C89.1777 78.748 89.3066 78.2207 89.3066 77.6582C89.3066 77.084 89.1777 76.5566 88.9199 76.0762C88.6738 75.584 88.3164 75.1914 87.8477 74.8984C87.3906 74.5938 86.8457 74.4414 86.2129 74.4414ZM104.705 73.2109L101.629 82H100.732L98.3242 75.7949L95.916 82H95.0195L91.9434 73.2109H93.666L95.6172 79.3809L97.9199 73.2109H98.7285L101.031 79.3809L102.982 73.2109H104.705ZM114.355 73.0352C114.871 73.0352 115.352 73.1113 115.797 73.2637C116.242 73.4043 116.564 73.5508 116.764 73.7031V75.25C116.518 75.0625 116.184 74.8809 115.762 74.7051C115.34 74.5293 114.906 74.4414 114.461 74.4414C113.91 74.4414 113.494 74.5703 113.213 74.8281C112.943 75.0859 112.809 75.3555 112.809 75.6367C112.809 75.8594 112.885 76.0879 113.037 76.3223C113.201 76.5449 113.482 76.7266 113.881 76.8672L115.357 77.3945C115.932 77.5938 116.359 77.8809 116.641 78.2559C116.922 78.6309 117.062 79.0703 117.062 79.5742C117.062 80.0664 116.922 80.5176 116.641 80.9277C116.371 81.3379 115.99 81.666 115.498 81.9121C115.018 82.1465 114.461 82.2637 113.828 82.2637C113.488 82.2637 113.131 82.2168 112.756 82.123C112.393 82.041 112.064 81.9414 111.771 81.8242C111.479 81.6953 111.262 81.584 111.121 81.4902V79.9434C111.285 80.0605 111.514 80.1953 111.807 80.3477C112.111 80.4883 112.434 80.6113 112.773 80.7168C113.113 80.8105 113.43 80.8574 113.723 80.8574C114.273 80.8574 114.707 80.7344 115.023 80.4883C115.352 80.2422 115.516 79.9375 115.516 79.5742C115.516 79.293 115.404 79.0703 115.182 78.9062C114.971 78.7422 114.66 78.584 114.25 78.4316L112.949 77.957C112.27 77.6992 111.818 77.377 111.596 76.9902C111.373 76.5918 111.262 76.1406 111.262 75.6367C111.262 74.8867 111.543 74.2656 112.105 73.7734C112.668 73.2812 113.418 73.0352 114.355 73.0352ZM123.232 73.0352C124.123 73.0352 124.914 73.2461 125.605 73.668C126.297 74.0898 126.836 74.6523 127.223 75.3555C127.621 76.0586 127.82 76.8262 127.82 77.6582C127.82 78.4902 127.621 79.2578 127.223 79.9609C126.836 80.6523 126.297 81.209 125.605 81.6309C124.914 82.0527 124.123 82.2637 123.232 82.2637C122.342 82.2637 121.551 82.0527 120.859 81.6309C120.168 81.209 119.623 80.6523 119.225 79.9609C118.838 79.2578 118.645 78.4902 118.645 77.6582C118.645 76.8262 118.838 76.0586 119.225 75.3555C119.623 74.6523 120.168 74.0898 120.859 73.668C121.551 73.2461 122.342 73.0352 123.232 73.0352ZM123.232 74.4414C122.611 74.4414 122.066 74.5938 121.598 74.8984C121.129 75.1914 120.766 75.584 120.508 76.0762C120.262 76.5566 120.139 77.084 120.139 77.6582C120.139 78.2207 120.262 78.748 120.508 79.2402C120.766 79.7207 121.129 80.1133 121.598 80.418C122.066 80.7109 122.611 80.8574 123.232 80.8574C123.865 80.8574 124.41 80.7109 124.867 80.418C125.336 80.1133 125.693 79.7207 125.939 79.2402C126.197 78.748 126.326 78.2207 126.326 77.6582C126.326 77.084 126.197 76.5566 125.939 76.0762C125.693 75.584 125.336 75.1914 124.867 74.8984C124.41 74.5938 123.865 74.4414 123.232 74.4414ZM134.166 73.0352C135.057 73.0352 135.848 73.2461 136.539 73.668C137.23 74.0898 137.77 74.6523 138.156 75.3555C138.555 76.0586 138.754 76.8262 138.754 77.6582C138.754 78.4902 138.555 79.2578 138.156 79.9609C137.77 80.6523 137.23 81.209 136.539 81.6309C135.848 82.0527 135.057 82.2637 134.166 82.2637C133.275 82.2637 132.484 82.0527 131.793 81.6309C131.102 81.209 130.557 80.6523 130.158 79.9609C129.771 79.2578 129.578 78.4902 129.578 77.6582C129.578 76.8262 129.771 76.0586 130.158 75.3555C130.557 74.6523 131.102 74.0898 131.793 73.668C132.484 73.2461 133.275 73.0352 134.166 73.0352ZM134.166 74.4414C133.545 74.4414 133 74.5938 132.531 74.8984C132.062 75.1914 131.699 75.584 131.441 76.0762C131.195 76.5566 131.072 77.084 131.072 77.6582C131.072 78.2207 131.195 78.748 131.441 79.2402C131.699 79.7207 132.062 80.1133 132.531 80.418C133 80.7109 133.545 80.8574 134.166 80.8574C134.799 80.8574 135.344 80.7109 135.801 80.418C136.27 80.1133 136.627 79.7207 136.873 79.2402C137.131 78.748 137.26 78.2207 137.26 77.6582C137.26 77.084 137.131 76.5566 136.873 76.0762C136.627 75.584 136.27 75.1914 135.801 74.8984C135.344 74.5938 134.799 74.4414 134.166 74.4414ZM142.568 73.2109V74.5996C142.756 74.3652 142.996 74.1309 143.289 73.8965C143.582 73.6504 143.91 73.4453 144.273 73.2812C144.648 73.1172 145.035 73.0352 145.434 73.0352C146.031 73.0352 146.576 73.1699 147.068 73.4395C147.561 73.6973 147.953 74.0957 148.246 74.6348C148.539 75.1621 148.686 75.8301 148.686 76.6387V82H147.244L147.227 76.7793C147.227 76.0176 147.057 75.4375 146.717 75.0391C146.389 74.6406 145.879 74.4414 145.188 74.4414C144.719 74.4414 144.25 74.6172 143.781 74.9688C143.324 75.3086 142.92 75.707 142.568 76.1641V82H141.127V73.2109H142.568ZM158.09 68.9922C158.43 68.9922 158.711 69.1152 158.934 69.3613C159.168 69.5957 159.285 69.8711 159.285 70.1875C159.285 70.4922 159.168 70.7676 158.934 71.0137C158.711 71.2598 158.43 71.3828 158.09 71.3828C157.75 71.3828 157.463 71.2598 157.229 71.0137C157.006 70.7676 156.895 70.4922 156.895 70.1875C156.895 69.8711 157.006 69.5957 157.229 69.3613C157.463 69.1152 157.75 68.9922 158.09 68.9922ZM158.986 73.2109V82H157.545V74.5645H156.156V73.2109H158.986ZM164.717 73.0352C165.232 73.0352 165.713 73.1113 166.158 73.2637C166.604 73.4043 166.926 73.5508 167.125 73.7031V75.25C166.879 75.0625 166.545 74.8809 166.123 74.7051C165.701 74.5293 165.268 74.4414 164.822 74.4414C164.271 74.4414 163.855 74.5703 163.574 74.8281C163.305 75.0859 163.17 75.3555 163.17 75.6367C163.17 75.8594 163.246 76.0879 163.398 76.3223C163.562 76.5449 163.844 76.7266 164.242 76.8672L165.719 77.3945C166.293 77.5938 166.721 77.8809 167.002 78.2559C167.283 78.6309 167.424 79.0703 167.424 79.5742C167.424 80.0664 167.283 80.5176 167.002 80.9277C166.732 81.3379 166.352 81.666 165.859 81.9121C165.379 82.1465 164.822 82.2637 164.189 82.2637C163.85 82.2637 163.492 82.2168 163.117 82.123C162.754 82.041 162.426 81.9414 162.133 81.8242C161.84 81.6953 161.623 81.584 161.482 81.4902V79.9434C161.646 80.0605 161.875 80.1953 162.168 80.3477C162.473 80.4883 162.795 80.6113 163.135 80.7168C163.475 80.8105 163.791 80.8574 164.084 80.8574C164.635 80.8574 165.068 80.7344 165.385 80.4883C165.713 80.2422 165.877 79.9375 165.877 79.5742C165.877 79.293 165.766 79.0703 165.543 78.9062C165.332 78.7422 165.021 78.584 164.611 78.4316L163.311 77.957C162.631 77.6992 162.18 77.377 161.957 76.9902C161.734 76.5918 161.623 76.1406 161.623 75.6367C161.623 74.8867 161.904 74.2656 162.467 73.7734C163.029 73.2812 163.779 73.0352 164.717 73.0352ZM177.32 70.6797V73.2109H179.887V74.5645H177.32V79.7148C177.32 80.0781 177.414 80.3652 177.602 80.5762C177.789 80.7871 178.076 80.8926 178.463 80.8926C178.814 80.8926 179.107 80.8516 179.342 80.7695C179.576 80.6758 179.781 80.5762 179.957 80.4707V81.6484C179.723 81.8359 179.471 81.9824 179.201 82.0879C178.943 82.2051 178.592 82.2637 178.146 82.2637C177.396 82.2637 176.828 82.041 176.441 81.5957C176.066 81.1387 175.879 80.5352 175.879 79.7852V74.5645H174.191V74.1426C174.766 73.8848 175.246 73.4629 175.633 72.877C176.02 72.2793 176.359 71.5469 176.652 70.6797H177.32ZM186.812 73.0352C187.41 73.0352 187.955 73.1699 188.447 73.4395C188.939 73.6973 189.332 74.0957 189.625 74.6348C189.918 75.1621 190.064 75.8301 190.064 76.6387V82H188.623L188.605 76.7793C188.605 76.0176 188.436 75.4375 188.096 75.0391C187.768 74.6406 187.258 74.4414 186.566 74.4414C186.098 74.4414 185.629 74.6172 185.16 74.9688C184.703 75.3086 184.299 75.707 183.947 76.1641V82H182.506V69.3438H183.947V74.5996C184.135 74.3652 184.375 74.1309 184.668 73.8965C184.961 73.6504 185.289 73.4453 185.652 73.2812C186.027 73.1172 186.414 73.0352 186.812 73.0352ZM196.41 73.0352C197.312 73.0352 198.062 73.2227 198.66 73.5977C199.258 73.9727 199.703 74.4824 199.996 75.127C200.301 75.7715 200.453 76.498 200.453 77.3066V78.168H193.703C193.773 78.6602 193.943 79.1113 194.213 79.5215C194.482 79.9316 194.834 80.2598 195.268 80.5059C195.701 80.7402 196.199 80.8574 196.762 80.8574C197.395 80.8574 197.986 80.6992 198.537 80.3828C199.088 80.0547 199.551 79.6973 199.926 79.3105L199.908 80.875C199.744 81.0742 199.498 81.2852 199.17 81.5078C198.854 81.7188 198.484 81.8945 198.062 82.0352C197.652 82.1875 197.219 82.2637 196.762 82.2637C195.871 82.2637 195.08 82.0527 194.389 81.6309C193.697 81.209 193.152 80.6523 192.754 79.9609C192.367 79.2578 192.174 78.4902 192.174 77.6582C192.174 76.8262 192.355 76.0586 192.719 75.3555C193.082 74.6523 193.58 74.0898 194.213 73.668C194.857 73.2461 195.59 73.0352 196.41 73.0352ZM196.41 74.4414C195.684 74.4414 195.086 74.6875 194.617 75.1797C194.148 75.6602 193.855 76.2461 193.738 76.9375H199.029C198.971 76.3633 198.807 75.8945 198.537 75.5312C198.279 75.168 197.963 74.8984 197.588 74.7227C197.213 74.5352 196.82 74.4414 196.41 74.4414ZM212.072 73.0352C212.717 73.0352 213.273 73.1406 213.742 73.3516C214.211 73.5508 214.533 73.7324 214.709 73.8965V75.3555C214.381 75.1094 214.006 74.8984 213.584 74.7227C213.162 74.5352 212.658 74.4414 212.072 74.4414C211.451 74.4414 210.906 74.5938 210.438 74.8984C209.969 75.1914 209.605 75.584 209.348 76.0762C209.102 76.5566 208.979 77.084 208.979 77.6582C208.979 78.2207 209.102 78.748 209.348 79.2402C209.605 79.7207 209.969 80.1133 210.438 80.418C210.906 80.7109 211.451 80.8574 212.072 80.8574C212.658 80.8574 213.162 80.7695 213.584 80.5938C214.006 80.4062 214.381 80.1895 214.709 79.9434V81.4023C214.533 81.5781 214.211 81.7656 213.742 81.9648C213.273 82.1641 212.717 82.2637 212.072 82.2637C211.182 82.2637 210.391 82.0527 209.699 81.6309C209.008 81.209 208.463 80.6523 208.064 79.9609C207.678 79.2578 207.484 78.4902 207.484 77.6582C207.484 76.8262 207.678 76.0586 208.064 75.3555C208.463 74.6523 209.008 74.0898 209.699 73.668C210.391 73.2461 211.182 73.0352 212.072 73.0352ZM220.703 73.0352C221.605 73.0352 222.355 73.2227 222.953 73.5977C223.551 73.9727 223.996 74.4824 224.289 75.127C224.594 75.7715 224.746 76.498 224.746 77.3066V78.168H217.996C218.066 78.6602 218.236 79.1113 218.506 79.5215C218.775 79.9316 219.127 80.2598 219.561 80.5059C219.994 80.7402 220.492 80.8574 221.055 80.8574C221.688 80.8574 222.279 80.6992 222.83 80.3828C223.381 80.0547 223.844 79.6973 224.219 79.3105L224.201 80.875C224.037 81.0742 223.791 81.2852 223.463 81.5078C223.146 81.7188 222.777 81.8945 222.355 82.0352C221.945 82.1875 221.512 82.2637 221.055 82.2637C220.164 82.2637 219.373 82.0527 218.682 81.6309C217.99 81.209 217.445 80.6523 217.047 79.9609C216.66 79.2578 216.467 78.4902 216.467 77.6582C216.467 76.8262 216.648 76.0586 217.012 75.3555C217.375 74.6523 217.873 74.0898 218.506 73.668C219.15 73.2461 219.883 73.0352 220.703 73.0352ZM220.703 74.4414C219.977 74.4414 219.379 74.6875 218.91 75.1797C218.441 75.6602 218.148 76.2461 218.031 76.9375H223.322C223.264 76.3633 223.1 75.8945 222.83 75.5312C222.572 75.168 222.256 74.8984 221.881 74.7227C221.506 74.5352 221.113 74.4414 220.703 74.4414ZM228.561 73.2109V74.9688C228.9 74.3828 229.311 73.9141 229.791 73.5625C230.271 73.2109 230.764 73.0352 231.268 73.0352C231.607 73.0352 231.912 73.0938 232.182 73.2109V74.8809C231.807 74.6582 231.432 74.5469 231.057 74.5469C230.459 74.5469 229.973 74.7578 229.598 75.1797C229.234 75.6016 228.889 76.1055 228.561 76.6914V82H227.119V73.2109H228.561ZM236.453 70.6797V73.2109H239.02V74.5645H236.453V79.7148C236.453 80.0781 236.547 80.3652 236.734 80.5762C236.922 80.7871 237.209 80.8926 237.596 80.8926C237.947 80.8926 238.24 80.8516 238.475 80.7695C238.709 80.6758 238.914 80.5762 239.09 80.4707V81.6484C238.855 81.8359 238.604 81.9824 238.334 82.0879C238.076 82.2051 237.725 82.2637 237.279 82.2637C236.529 82.2637 235.961 82.041 235.574 81.5957C235.199 81.1387 235.012 80.5352 235.012 79.7852V74.5645H233.324V74.1426C233.898 73.8848 234.379 73.4629 234.766 72.877C235.152 72.2793 235.492 71.5469 235.785 70.6797H236.453ZM243.045 68.9922C243.385 68.9922 243.666 69.1152 243.889 69.3613C244.123 69.5957 244.24 69.8711 244.24 70.1875C244.24 70.4922 244.123 70.7676 243.889 71.0137C243.666 71.2598 243.385 71.3828 243.045 71.3828C242.705 71.3828 242.418 71.2598 242.184 71.0137C241.961 70.7676 241.85 70.4922 241.85 70.1875C241.85 69.8711 241.961 69.5957 242.184 69.3613C242.418 69.1152 242.705 68.9922 243.045 68.9922ZM243.941 73.2109V82H242.5V74.5645H241.111V73.2109H243.941ZM251.605 73.2109V74.5645H249.039V82H247.598V74.5645H246.209V73.2109H247.598V72.0859C247.598 71.3945 247.732 70.832 248.002 70.3984C248.271 69.9531 248.617 69.625 249.039 69.4141C249.461 69.1914 249.889 69.0801 250.322 69.0801C250.92 69.0801 251.406 69.2383 251.781 69.5547V70.8203C251.605 70.7031 251.395 70.6094 251.148 70.5391C250.902 70.4688 250.656 70.4395 250.41 70.4512C249.977 70.4629 249.637 70.6035 249.391 70.873C249.156 71.1309 249.039 71.5879 249.039 72.2441V73.2109H251.605ZM254.928 68.9922C255.268 68.9922 255.549 69.1152 255.771 69.3613C256.006 69.5957 256.123 69.8711 256.123 70.1875C256.123 70.4922 256.006 70.7676 255.771 71.0137C255.549 71.2598 255.268 71.3828 254.928 71.3828C254.588 71.3828 254.301 71.2598 254.066 71.0137C253.844 70.7676 253.732 70.4922 253.732 70.1875C253.732 69.8711 253.844 69.5957 254.066 69.3613C254.301 69.1152 254.588 68.9922 254.928 68.9922ZM255.824 73.2109V82H254.383V74.5645H252.994V73.2109H255.824ZM262.908 73.0352C263.553 73.0352 264.109 73.1406 264.578 73.3516C265.047 73.5508 265.369 73.7324 265.545 73.8965V75.3555C265.217 75.1094 264.842 74.8984 264.42 74.7227C263.998 74.5352 263.494 74.4414 262.908 74.4414C262.287 74.4414 261.742 74.5938 261.273 74.8984C260.805 75.1914 260.441 75.584 260.184 76.0762C259.938 76.5566 259.814 77.084 259.814 77.6582C259.814 78.2207 259.938 78.748 260.184 79.2402C260.441 79.7207 260.805 80.1133 261.273 80.418C261.742 80.7109 262.287 80.8574 262.908 80.8574C263.494 80.8574 263.998 80.7695 264.42 80.5938C264.842 80.4062 265.217 80.1895 265.545 79.9434V81.4023C265.369 81.5781 265.047 81.7656 264.578 81.9648C264.109 82.1641 263.553 82.2637 262.908 82.2637C262.018 82.2637 261.227 82.0527 260.535 81.6309C259.844 81.209 259.299 80.6523 258.9 79.9609C258.514 79.2578 258.32 78.4902 258.32 77.6582C258.32 76.8262 258.514 76.0586 258.9 75.3555C259.299 74.6523 259.844 74.0898 260.535 73.668C261.227 73.2461 262.018 73.0352 262.908 73.0352ZM271.539 73.0352C272.043 73.0352 272.553 73.1582 273.068 73.4043C273.596 73.6387 274.047 73.9668 274.422 74.3887V73.2109H275.863V82H274.422V80.5059C274.117 80.9746 273.701 81.3848 273.174 81.7363C272.658 82.0879 272.066 82.2637 271.398 82.2637C270.648 82.2637 269.963 82.0762 269.342 81.7012C268.721 81.3145 268.223 80.7812 267.848 80.1016C267.484 79.4219 267.303 78.6367 267.303 77.7461C267.303 76.7734 267.484 75.9355 267.848 75.2324C268.223 74.5293 268.732 73.9902 269.377 73.6152C270.021 73.2285 270.742 73.0352 271.539 73.0352ZM271.803 74.4414C271.17 74.4414 270.631 74.5996 270.186 74.916C269.74 75.2324 269.395 75.6426 269.148 76.1465C268.914 76.6387 268.797 77.1719 268.797 77.7461C268.797 78.3086 268.914 78.8301 269.148 79.3105C269.383 79.7793 269.711 80.1543 270.133 80.4355C270.566 80.7168 271.064 80.8574 271.627 80.8574C272.166 80.8574 272.646 80.7168 273.068 80.4355C273.49 80.1543 273.824 79.7676 274.07 79.2754C274.316 78.7715 274.434 78.209 274.422 77.5879L274.404 75.9004C274.041 75.4434 273.648 75.0859 273.227 74.8281C272.816 74.5703 272.342 74.4414 271.803 74.4414ZM281.277 70.6797V73.2109H283.844V74.5645H281.277V79.7148C281.277 80.0781 281.371 80.3652 281.559 80.5762C281.746 80.7871 282.033 80.8926 282.42 80.8926C282.771 80.8926 283.064 80.8516 283.299 80.7695C283.533 80.6758 283.738 80.5762 283.914 80.4707V81.6484C283.68 81.8359 283.428 81.9824 283.158 82.0879C282.9 82.2051 282.549 82.2637 282.104 82.2637C281.354 82.2637 280.785 82.041 280.398 81.5957C280.023 81.1387 279.836 80.5352 279.836 79.7852V74.5645H278.148V74.1426C278.723 73.8848 279.203 73.4629 279.59 72.877C279.977 72.2793 280.316 71.5469 280.609 70.6797H281.277ZM290.084 73.0352C290.986 73.0352 291.736 73.2227 292.334 73.5977C292.932 73.9727 293.377 74.4824 293.67 75.127C293.975 75.7715 294.127 76.498 294.127 77.3066V78.168H287.377C287.447 78.6602 287.617 79.1113 287.887 79.5215C288.156 79.9316 288.508 80.2598 288.941 80.5059C289.375 80.7402 289.873 80.8574 290.436 80.8574C291.068 80.8574 291.66 80.6992 292.211 80.3828C292.762 80.0547 293.225 79.6973 293.6 79.3105L293.582 80.875C293.418 81.0742 293.172 81.2852 292.844 81.5078C292.527 81.7188 292.158 81.8945 291.736 82.0352C291.326 82.1875 290.893 82.2637 290.436 82.2637C289.545 82.2637 288.754 82.0527 288.062 81.6309C287.371 81.209 286.826 80.6523 286.428 79.9609C286.041 79.2578 285.848 78.4902 285.848 77.6582C285.848 76.8262 286.029 76.0586 286.393 75.3555C286.756 74.6523 287.254 74.0898 287.887 73.668C288.531 73.2461 289.264 73.0352 290.084 73.0352ZM290.084 74.4414C289.357 74.4414 288.76 74.6875 288.291 75.1797C287.822 75.6602 287.529 76.2461 287.412 76.9375H292.703C292.645 76.3633 292.48 75.8945 292.211 75.5312C291.953 75.168 291.637 74.8984 291.262 74.7227C290.887 74.5352 290.494 74.4414 290.084 74.4414ZM303.215 73.2109V74.9688C303.555 74.3828 303.965 73.9141 304.445 73.5625C304.926 73.2109 305.418 73.0352 305.922 73.0352C306.262 73.0352 306.566 73.0938 306.836 73.2109V74.8809C306.461 74.6582 306.086 74.5469 305.711 74.5469C305.113 74.5469 304.627 74.7578 304.252 75.1797C303.889 75.6016 303.543 76.1055 303.215 76.6914V82H301.773V73.2109H303.215ZM312.303 73.0352C313.205 73.0352 313.955 73.2227 314.553 73.5977C315.15 73.9727 315.596 74.4824 315.889 75.127C316.193 75.7715 316.346 76.498 316.346 77.3066V78.168H309.596C309.666 78.6602 309.836 79.1113 310.105 79.5215C310.375 79.9316 310.727 80.2598 311.16 80.5059C311.594 80.7402 312.092 80.8574 312.654 80.8574C313.287 80.8574 313.879 80.6992 314.43 80.3828C314.98 80.0547 315.443 79.6973 315.818 79.3105L315.801 80.875C315.637 81.0742 315.391 81.2852 315.062 81.5078C314.746 81.7188 314.377 81.8945 313.955 82.0352C313.545 82.1875 313.111 82.2637 312.654 82.2637C311.764 82.2637 310.973 82.0527 310.281 81.6309C309.59 81.209 309.045 80.6523 308.646 79.9609C308.26 79.2578 308.066 78.4902 308.066 77.6582C308.066 76.8262 308.248 76.0586 308.611 75.3555C308.975 74.6523 309.473 74.0898 310.105 73.668C310.75 73.2461 311.482 73.0352 312.303 73.0352ZM312.303 74.4414C311.576 74.4414 310.979 74.6875 310.51 75.1797C310.041 75.6602 309.748 76.2461 309.631 76.9375H314.922C314.863 76.3633 314.699 75.8945 314.43 75.5312C314.172 75.168 313.855 74.8984 313.48 74.7227C313.105 74.5352 312.713 74.4414 312.303 74.4414ZM322.34 73.0352C322.844 73.0352 323.354 73.1582 323.869 73.4043C324.396 73.6387 324.848 73.9668 325.223 74.3887V73.2109H326.664V82H325.223V80.5059C324.918 80.9746 324.502 81.3848 323.975 81.7363C323.459 82.0879 322.867 82.2637 322.199 82.2637C321.449 82.2637 320.764 82.0762 320.143 81.7012C319.521 81.3145 319.023 80.7812 318.648 80.1016C318.285 79.4219 318.104 78.6367 318.104 77.7461C318.104 76.7734 318.285 75.9355 318.648 75.2324C319.023 74.5293 319.533 73.9902 320.178 73.6152C320.822 73.2285 321.543 73.0352 322.34 73.0352ZM322.604 74.4414C321.971 74.4414 321.432 74.5996 320.986 74.916C320.541 75.2324 320.195 75.6426 319.949 76.1465C319.715 76.6387 319.598 77.1719 319.598 77.7461C319.598 78.3086 319.715 78.8301 319.949 79.3105C320.184 79.7793 320.512 80.1543 320.934 80.4355C321.367 80.7168 321.865 80.8574 322.428 80.8574C322.967 80.8574 323.447 80.7168 323.869 80.4355C324.291 80.1543 324.625 79.7676 324.871 79.2754C325.117 78.7715 325.234 78.209 325.223 77.5879L325.205 75.9004C324.842 75.4434 324.449 75.0859 324.027 74.8281C323.617 74.5703 323.143 74.4414 322.604 74.4414ZM337.598 69.3438V82H336.156V80.5059C335.852 80.9746 335.436 81.3848 334.908 81.7363C334.393 82.0879 333.801 82.2637 333.133 82.2637C332.383 82.2637 331.697 82.0762 331.076 81.7012C330.455 81.3145 329.957 80.7812 329.582 80.1016C329.219 79.4219 329.037 78.6367 329.037 77.7461C329.037 76.7734 329.219 75.9355 329.582 75.2324C329.957 74.5293 330.467 73.9902 331.111 73.6152C331.756 73.2285 332.477 73.0352 333.273 73.0352C333.777 73.0352 334.287 73.1582 334.803 73.4043C335.33 73.6387 335.781 73.9668 336.156 74.3887V69.3438H337.598ZM333.537 74.4766C332.904 74.4766 332.365 74.6348 331.92 74.9512C331.475 75.2559 331.129 75.6543 330.883 76.1465C330.648 76.6387 330.531 77.1719 330.531 77.7461C330.531 78.3086 330.648 78.8301 330.883 79.3105C331.117 79.7793 331.445 80.1543 331.867 80.4355C332.301 80.7168 332.799 80.8574 333.361 80.8574C333.9 80.8574 334.381 80.7168 334.803 80.4355C335.225 80.1543 335.559 79.7676 335.805 79.2754C336.051 78.7715 336.168 78.209 336.156 77.5879L336.139 75.9004C335.775 75.4434 335.383 75.0918 334.961 74.8457C334.551 74.5996 334.076 74.4766 333.537 74.4766ZM341.078 73.2109L344.154 79.6797L347.143 73.2109H348.865L342.396 86.2188H340.727L343.24 81.4727L339.355 73.2109H341.078ZM359.518 73.0352C360.021 73.0352 360.531 73.1582 361.047 73.4043C361.574 73.6387 362.025 73.9668 362.4 74.3887V73.2109H363.842V82H362.4V80.5059C362.096 80.9746 361.68 81.3848 361.152 81.7363C360.637 82.0879 360.045 82.2637 359.377 82.2637C358.627 82.2637 357.941 82.0762 357.32 81.7012C356.699 81.3145 356.201 80.7812 355.826 80.1016C355.463 79.4219 355.281 78.6367 355.281 77.7461C355.281 76.7734 355.463 75.9355 355.826 75.2324C356.201 74.5293 356.711 73.9902 357.355 73.6152C358 73.2285 358.721 73.0352 359.518 73.0352ZM359.781 74.4414C359.148 74.4414 358.609 74.5996 358.164 74.916C357.719 75.2324 357.373 75.6426 357.127 76.1465C356.893 76.6387 356.775 77.1719 356.775 77.7461C356.775 78.3086 356.893 78.8301 357.127 79.3105C357.361 79.7793 357.689 80.1543 358.111 80.4355C358.545 80.7168 359.043 80.8574 359.605 80.8574C360.145 80.8574 360.625 80.7168 361.047 80.4355C361.469 80.1543 361.803 79.7676 362.049 79.2754C362.295 78.7715 362.412 78.209 362.4 77.5879L362.383 75.9004C362.02 75.4434 361.627 75.0859 361.205 74.8281C360.795 74.5703 360.32 74.4414 359.781 74.4414ZM371.383 73.2109V74.5645H368.816V82H367.375V74.5645H365.986V73.2109H367.375V72.0859C367.375 71.3945 367.51 70.832 367.779 70.3984C368.049 69.9531 368.395 69.625 368.816 69.4141C369.238 69.1914 369.666 69.0801 370.1 69.0801C370.697 69.0801 371.184 69.2383 371.559 69.5547V70.8203C371.383 70.7031 371.172 70.6094 370.926 70.5391C370.68 70.4688 370.434 70.4395 370.188 70.4512C369.754 70.4629 369.414 70.6035 369.168 70.873C368.934 71.1309 368.816 71.5879 368.816 72.2441V73.2109H371.383ZM375.725 70.6797V73.2109H378.291V74.5645H375.725V79.7148C375.725 80.0781 375.818 80.3652 376.006 80.5762C376.193 80.7871 376.48 80.8926 376.867 80.8926C377.219 80.8926 377.512 80.8516 377.746 80.7695C377.98 80.6758 378.186 80.5762 378.361 80.4707V81.6484C378.127 81.8359 377.875 81.9824 377.605 82.0879C377.348 82.2051 376.996 82.2637 376.551 82.2637C375.801 82.2637 375.232 82.041 374.846 81.5957C374.471 81.1387 374.283 80.5352 374.283 79.7852V74.5645H372.596V74.1426C373.17 73.8848 373.65 73.4629 374.037 72.877C374.424 72.2793 374.764 71.5469 375.057 70.6797H375.725ZM384.531 73.0352C385.434 73.0352 386.184 73.2227 386.781 73.5977C387.379 73.9727 387.824 74.4824 388.117 75.127C388.422 75.7715 388.574 76.498 388.574 77.3066V78.168H381.824C381.895 78.6602 382.064 79.1113 382.334 79.5215C382.604 79.9316 382.955 80.2598 383.389 80.5059C383.822 80.7402 384.32 80.8574 384.883 80.8574C385.516 80.8574 386.107 80.6992 386.658 80.3828C387.209 80.0547 387.672 79.6973 388.047 79.3105L388.029 80.875C387.865 81.0742 387.619 81.2852 387.291 81.5078C386.975 81.7188 386.605 81.8945 386.184 82.0352C385.773 82.1875 385.34 82.2637 384.883 82.2637C383.992 82.2637 383.201 82.0527 382.51 81.6309C381.818 81.209 381.273 80.6523 380.875 79.9609C380.488 79.2578 380.295 78.4902 380.295 77.6582C380.295 76.8262 380.477 76.0586 380.84 75.3555C381.203 74.6523 381.701 74.0898 382.334 73.668C382.979 73.2461 383.711 73.0352 384.531 73.0352ZM384.531 74.4414C383.805 74.4414 383.207 74.6875 382.738 75.1797C382.27 75.6602 381.977 76.2461 381.859 76.9375H387.15C387.092 76.3633 386.928 75.8945 386.658 75.5312C386.4 75.168 386.084 74.8984 385.709 74.7227C385.334 74.5352 384.941 74.4414 384.531 74.4414ZM392.389 73.2109V74.9688C392.729 74.3828 393.139 73.9141 393.619 73.5625C394.1 73.2109 394.592 73.0352 395.096 73.0352C395.436 73.0352 395.74 73.0938 396.01 73.2109V74.8809C395.635 74.6582 395.26 74.5469 394.885 74.5469C394.287 74.5469 393.801 74.7578 393.426 75.1797C393.062 75.6016 392.717 76.1055 392.389 76.6914V82H390.947V73.2109H392.389ZM407.102 73.0352C407.746 73.0352 408.303 73.1406 408.771 73.3516C409.24 73.5508 409.562 73.7324 409.738 73.8965V75.3555C409.41 75.1094 409.035 74.8984 408.613 74.7227C408.191 74.5352 407.688 74.4414 407.102 74.4414C406.48 74.4414 405.936 74.5938 405.467 74.8984C404.998 75.1914 404.635 75.584 404.377 76.0762C404.131 76.5566 404.008 77.084 404.008 77.6582C404.008 78.2207 404.131 78.748 404.377 79.2402C404.635 79.7207 404.998 80.1133 405.467 80.418C405.936 80.7109 406.48 80.8574 407.102 80.8574C407.688 80.8574 408.191 80.7695 408.613 80.5938C409.035 80.4062 409.41 80.1895 409.738 79.9434V81.4023C409.562 81.5781 409.24 81.7656 408.771 81.9648C408.303 82.1641 407.746 82.2637 407.102 82.2637C406.211 82.2637 405.42 82.0527 404.729 81.6309C404.037 81.209 403.492 80.6523 403.094 79.9609C402.707 79.2578 402.514 78.4902 402.514 77.6582C402.514 76.8262 402.707 76.0586 403.094 75.3555C403.492 74.6523 404.037 74.0898 404.729 73.668C405.42 73.2461 406.211 73.0352 407.102 73.0352ZM416.084 73.0352C416.975 73.0352 417.766 73.2461 418.457 73.668C419.148 74.0898 419.688 74.6523 420.074 75.3555C420.473 76.0586 420.672 76.8262 420.672 77.6582C420.672 78.4902 420.473 79.2578 420.074 79.9609C419.688 80.6523 419.148 81.209 418.457 81.6309C417.766 82.0527 416.975 82.2637 416.084 82.2637C415.193 82.2637 414.402 82.0527 413.711 81.6309C413.02 81.209 412.475 80.6523 412.076 79.9609C411.689 79.2578 411.496 78.4902 411.496 77.6582C411.496 76.8262 411.689 76.0586 412.076 75.3555C412.475 74.6523 413.02 74.0898 413.711 73.668C414.402 73.2461 415.193 73.0352 416.084 73.0352ZM416.084 74.4414C415.463 74.4414 414.918 74.5938 414.449 74.8984C413.98 75.1914 413.617 75.584 413.359 76.0762C413.113 76.5566 412.99 77.084 412.99 77.6582C412.99 78.2207 413.113 78.748 413.359 79.2402C413.617 79.7207 413.98 80.1133 414.449 80.418C414.918 80.7109 415.463 80.8574 416.084 80.8574C416.717 80.8574 417.262 80.7109 417.719 80.418C418.188 80.1133 418.545 79.7207 418.791 79.2402C419.049 78.748 419.178 78.2207 419.178 77.6582C419.178 77.084 419.049 76.5566 418.791 76.0762C418.545 75.584 418.188 75.1914 417.719 74.8984C417.262 74.5938 416.717 74.4414 416.084 74.4414ZM424.486 73.2109V74.3359C424.768 74.0195 425.125 73.7266 425.559 73.457C426.004 73.1758 426.525 73.0352 427.123 73.0352C427.756 73.0352 428.348 73.1875 428.898 73.4922C429.449 73.7852 429.871 74.2305 430.164 74.8281C430.574 74.3359 431.02 73.9141 431.5 73.5625C431.98 73.2109 432.543 73.0352 433.188 73.0352C433.785 73.0352 434.342 73.1699 434.857 73.4395C435.385 73.6973 435.807 74.0957 436.123 74.6348C436.451 75.1621 436.615 75.8301 436.615 76.6387V82H435.174L435.156 76.7793C435.156 76.0176 434.957 75.4375 434.559 75.0391C434.172 74.6406 433.633 74.4414 432.941 74.4414C432.438 74.4414 431.998 74.5996 431.623 74.916C431.248 75.2324 430.891 75.6016 430.551 76.0234V82H429.109L429.092 76.7793C429.092 76.0176 428.893 75.4375 428.494 75.0391C428.107 74.6406 427.568 74.4414 426.877 74.4414C426.396 74.4414 425.957 74.582 425.559 74.8633C425.172 75.1445 424.814 75.4844 424.486 75.8828V82H423.045V73.2109H424.486ZM443.805 73.0352C444.566 73.0352 445.252 73.2227 445.861 73.5977C446.482 73.9609 446.975 74.4766 447.338 75.1445C447.713 75.8008 447.9 76.5742 447.9 77.4648C447.9 78.4258 447.713 79.2695 447.338 79.9961C446.975 80.7109 446.471 81.2676 445.826 81.666C445.193 82.0645 444.473 82.2637 443.664 82.2637C443.16 82.2637 442.645 82.1289 442.117 81.8594C441.602 81.5898 441.156 81.2441 440.781 80.8223V86.2188H439.34V73.2109H440.781V74.7051C441.086 74.2363 441.496 73.8438 442.012 73.5273C442.539 73.1992 443.137 73.0352 443.805 73.0352ZM443.576 74.4414C443.049 74.4414 442.568 74.5762 442.135 74.8457C441.713 75.1152 441.379 75.4902 441.133 75.9707C440.898 76.4395 440.781 76.9902 440.781 77.623L440.799 79.3105C441.174 79.7676 441.566 80.1426 441.977 80.4355C442.387 80.7168 442.861 80.8574 443.4 80.8574C444.033 80.8574 444.572 80.6934 445.018 80.3652C445.463 80.0371 445.803 79.6152 446.037 79.0996C446.283 78.5723 446.406 78.0273 446.406 77.4648C446.406 76.8906 446.289 76.3809 446.055 75.9355C445.82 75.4785 445.492 75.1152 445.07 74.8457C444.648 74.5762 444.15 74.4414 443.576 74.4414ZM451.715 69.3438V82H450.273V69.3438H451.715ZM458.324 73.0352C459.227 73.0352 459.977 73.2227 460.574 73.5977C461.172 73.9727 461.617 74.4824 461.91 75.127C462.215 75.7715 462.367 76.498 462.367 77.3066V78.168H455.617C455.688 78.6602 455.857 79.1113 456.127 79.5215C456.396 79.9316 456.748 80.2598 457.182 80.5059C457.615 80.7402 458.113 80.8574 458.676 80.8574C459.309 80.8574 459.9 80.6992 460.451 80.3828C461.002 80.0547 461.465 79.6973 461.84 79.3105L461.822 80.875C461.658 81.0742 461.412 81.2852 461.084 81.5078C460.768 81.7188 460.398 81.8945 459.977 82.0352C459.566 82.1875 459.133 82.2637 458.676 82.2637C457.785 82.2637 456.994 82.0527 456.303 81.6309C455.611 81.209 455.066 80.6523 454.668 79.9609C454.281 79.2578 454.088 78.4902 454.088 77.6582C454.088 76.8262 454.27 76.0586 454.633 75.3555C454.996 74.6523 455.494 74.0898 456.127 73.668C456.771 73.2461 457.504 73.0352 458.324 73.0352ZM458.324 74.4414C457.598 74.4414 457 74.6875 456.531 75.1797C456.062 75.6602 455.77 76.2461 455.652 76.9375H460.943C460.885 76.3633 460.721 75.8945 460.451 75.5312C460.193 75.168 459.877 74.8984 459.502 74.7227C459.127 74.5352 458.734 74.4414 458.324 74.4414ZM467.166 70.6797V73.2109H469.732V74.5645H467.166V79.7148C467.166 80.0781 467.26 80.3652 467.447 80.5762C467.635 80.7871 467.922 80.8926 468.309 80.8926C468.66 80.8926 468.953 80.8516 469.188 80.7695C469.422 80.6758 469.627 80.5762 469.803 80.4707V81.6484C469.568 81.8359 469.316 81.9824 469.047 82.0879C468.789 82.2051 468.438 82.2637 467.992 82.2637C467.242 82.2637 466.674 82.041 466.287 81.5957C465.912 81.1387 465.725 80.5352 465.725 79.7852V74.5645H464.037V74.1426C464.611 73.8848 465.092 73.4629 465.479 72.877C465.865 72.2793 466.205 71.5469 466.498 70.6797H467.166ZM473.758 68.9922C474.098 68.9922 474.379 69.1152 474.602 69.3613C474.836 69.5957 474.953 69.8711 474.953 70.1875C474.953 70.4922 474.836 70.7676 474.602 71.0137C474.379 71.2598 474.098 71.3828 473.758 71.3828C473.418 71.3828 473.131 71.2598 472.896 71.0137C472.674 70.7676 472.562 70.4922 472.562 70.1875C472.562 69.8711 472.674 69.5957 472.896 69.3613C473.131 69.1152 473.418 68.9922 473.758 68.9922ZM474.654 73.2109V82H473.213V74.5645H471.824V73.2109H474.654ZM479.207 73.2109V74.5996C479.395 74.3652 479.635 74.1309 479.928 73.8965C480.221 73.6504 480.549 73.4453 480.912 73.2812C481.287 73.1172 481.674 73.0352 482.072 73.0352C482.67 73.0352 483.215 73.1699 483.707 73.4395C484.199 73.6973 484.592 74.0957 484.885 74.6348C485.178 75.1621 485.324 75.8301 485.324 76.6387V82H483.883L483.865 76.7793C483.865 76.0176 483.695 75.4375 483.355 75.0391C483.027 74.6406 482.518 74.4414 481.826 74.4414C481.357 74.4414 480.889 74.6172 480.42 74.9688C479.963 75.3086 479.559 75.707 479.207 76.1641V82H477.766V73.2109H479.207ZM491.67 73.0352C492.174 73.0352 492.684 73.1582 493.199 73.4043C493.727 73.6387 494.178 73.9668 494.553 74.3887V73.2109H495.994V81.8242C495.994 82.8672 495.783 83.7344 495.361 84.4258C494.939 85.1172 494.377 85.6328 493.674 85.9727C492.971 86.3125 492.203 86.4824 491.371 86.4824C490.832 86.4824 490.369 86.418 489.982 86.2891C489.607 86.1719 489.285 86.0195 489.016 85.832C488.746 85.6562 488.5 85.4863 488.277 85.3223V83.7754C488.453 83.9043 488.682 84.0684 488.963 84.2676C489.256 84.4785 489.602 84.666 490 84.8301C490.41 84.9941 490.867 85.0762 491.371 85.0762C491.945 85.0762 492.473 84.9707 492.953 84.7598C493.434 84.5488 493.82 84.2383 494.113 83.8281C494.406 83.418 494.553 82.9258 494.553 82.3516V80.5059C494.248 80.9746 493.832 81.3848 493.305 81.7363C492.789 82.0879 492.197 82.2637 491.529 82.2637C490.779 82.2637 490.094 82.0762 489.473 81.7012C488.852 81.3145 488.354 80.7812 487.979 80.1016C487.615 79.4219 487.434 78.6367 487.434 77.7461C487.434 76.7734 487.615 75.9355 487.979 75.2324C488.354 74.5293 488.863 73.9902 489.508 73.6152C490.152 73.2285 490.873 73.0352 491.67 73.0352ZM491.934 74.459C491.301 74.459 490.762 74.6172 490.316 74.9336C489.871 75.2383 489.525 75.6426 489.279 76.1465C489.045 76.6387 488.928 77.1719 488.928 77.7461C488.928 78.3086 489.045 78.8242 489.279 79.293C489.514 79.7617 489.842 80.1367 490.264 80.418C490.697 80.6992 491.195 80.8398 491.758 80.8398C492.297 80.8398 492.777 80.6992 493.199 80.418C493.621 80.1367 493.955 79.75 494.201 79.2578C494.447 78.7656 494.564 78.209 494.553 77.5879L494.535 75.9004C494.172 75.4434 493.779 75.0918 493.357 74.8457C492.947 74.5879 492.473 74.459 491.934 74.459ZM506.682 70.6797V73.2109H509.248V74.5645H506.682V79.7148C506.682 80.0781 506.775 80.3652 506.963 80.5762C507.15 80.7871 507.438 80.8926 507.824 80.8926C508.176 80.8926 508.469 80.8516 508.703 80.7695C508.938 80.6758 509.143 80.5762 509.318 80.4707V81.6484C509.084 81.8359 508.832 81.9824 508.562 82.0879C508.305 82.2051 507.953 82.2637 507.508 82.2637C506.758 82.2637 506.189 82.041 505.803 81.5957C505.428 81.1387 505.24 80.5352 505.24 79.7852V74.5645H503.553V74.1426C504.127 73.8848 504.607 73.4629 504.994 72.877C505.381 72.2793 505.721 71.5469 506.014 70.6797H506.682ZM516.174 73.0352C516.771 73.0352 517.316 73.1699 517.809 73.4395C518.301 73.6973 518.693 74.0957 518.986 74.6348C519.279 75.1621 519.426 75.8301 519.426 76.6387V82H517.984L517.967 76.7793C517.967 76.0176 517.797 75.4375 517.457 75.0391C517.129 74.6406 516.619 74.4414 515.928 74.4414C515.459 74.4414 514.99 74.6172 514.521 74.9688C514.064 75.3086 513.66 75.707 513.309 76.1641V82H511.867V69.3438H513.309V74.5996C513.496 74.3652 513.736 74.1309 514.029 73.8965C514.322 73.6504 514.65 73.4453 515.014 73.2812C515.389 73.1172 515.775 73.0352 516.174 73.0352ZM525.771 73.0352C526.674 73.0352 527.424 73.2227 528.021 73.5977C528.619 73.9727 529.064 74.4824 529.357 75.127C529.662 75.7715 529.814 76.498 529.814 77.3066V78.168H523.064C523.135 78.6602 523.305 79.1113 523.574 79.5215C523.844 79.9316 524.195 80.2598 524.629 80.5059C525.062 80.7402 525.561 80.8574 526.123 80.8574C526.756 80.8574 527.348 80.6992 527.898 80.3828C528.449 80.0547 528.912 79.6973 529.287 79.3105L529.27 80.875C529.105 81.0742 528.859 81.2852 528.531 81.5078C528.215 81.7188 527.846 81.8945 527.424 82.0352C527.014 82.1875 526.58 82.2637 526.123 82.2637C525.232 82.2637 524.441 82.0527 523.75 81.6309C523.059 81.209 522.514 80.6523 522.115 79.9609C521.729 79.2578 521.535 78.4902 521.535 77.6582C521.535 76.8262 521.717 76.0586 522.08 75.3555C522.443 74.6523 522.941 74.0898 523.574 73.668C524.219 73.2461 524.951 73.0352 525.771 73.0352ZM525.771 74.4414C525.045 74.4414 524.447 74.6875 523.979 75.1797C523.51 75.6602 523.217 76.2461 523.1 76.9375H528.391C528.332 76.3633 528.168 75.8945 527.898 75.5312C527.641 75.168 527.324 74.8984 526.949 74.7227C526.574 74.5352 526.182 74.4414 525.771 74.4414ZM541.434 73.0352C542.078 73.0352 542.635 73.1406 543.104 73.3516C543.572 73.5508 543.895 73.7324 544.07 73.8965V75.3555C543.742 75.1094 543.367 74.8984 542.945 74.7227C542.523 74.5352 542.02 74.4414 541.434 74.4414C540.812 74.4414 540.268 74.5938 539.799 74.8984C539.33 75.1914 538.967 75.584 538.709 76.0762C538.463 76.5566 538.34 77.084 538.34 77.6582C538.34 78.2207 538.463 78.748 538.709 79.2402C538.967 79.7207 539.33 80.1133 539.799 80.418C540.268 80.7109 540.812 80.8574 541.434 80.8574C542.02 80.8574 542.523 80.7695 542.945 80.5938C543.367 80.4062 543.742 80.1895 544.07 79.9434V81.4023C543.895 81.5781 543.572 81.7656 543.104 81.9648C542.635 82.1641 542.078 82.2637 541.434 82.2637C540.543 82.2637 539.752 82.0527 539.061 81.6309C538.369 81.209 537.824 80.6523 537.426 79.9609C537.039 79.2578 536.846 78.4902 536.846 77.6582C536.846 76.8262 537.039 76.0586 537.426 75.3555C537.824 74.6523 538.369 74.0898 539.061 73.668C539.752 73.2461 540.543 73.0352 541.434 73.0352ZM550.416 73.0352C551.307 73.0352 552.098 73.2461 552.789 73.668C553.48 74.0898 554.02 74.6523 554.406 75.3555C554.805 76.0586 555.004 76.8262 555.004 77.6582C555.004 78.4902 554.805 79.2578 554.406 79.9609C554.02 80.6523 553.48 81.209 552.789 81.6309C552.098 82.0527 551.307 82.2637 550.416 82.2637C549.525 82.2637 548.734 82.0527 548.043 81.6309C547.352 81.209 546.807 80.6523 546.408 79.9609C546.021 79.2578 545.828 78.4902 545.828 77.6582C545.828 76.8262 546.021 76.0586 546.408 75.3555C546.807 74.6523 547.352 74.0898 548.043 73.668C548.734 73.2461 549.525 73.0352 550.416 73.0352ZM550.416 74.4414C549.795 74.4414 549.25 74.5938 548.781 74.8984C548.312 75.1914 547.949 75.584 547.691 76.0762C547.445 76.5566 547.322 77.084 547.322 77.6582C547.322 78.2207 547.445 78.748 547.691 79.2402C547.949 79.7207 548.312 80.1133 548.781 80.418C549.25 80.7109 549.795 80.8574 550.416 80.8574C551.049 80.8574 551.594 80.7109 552.051 80.418C552.52 80.1133 552.877 79.7207 553.123 79.2402C553.381 78.748 553.51 78.2207 553.51 77.6582C553.51 77.084 553.381 76.5566 553.123 76.0762C552.877 75.584 552.52 75.1914 552.051 74.8984C551.594 74.5938 551.049 74.4414 550.416 74.4414ZM564.566 73.2109V78.4141C564.566 79.1875 564.402 79.8555 564.074 80.418C563.746 80.9805 563.301 81.4141 562.738 81.7188C562.176 82.0234 561.543 82.1758 560.84 82.1758C560.137 82.1758 559.504 82.0234 558.941 81.7188C558.379 81.4141 557.934 80.9805 557.605 80.418C557.277 79.8555 557.113 79.1875 557.113 78.4141V73.2109H558.607V78.4141C558.607 79.1758 558.83 79.7617 559.275 80.1719C559.732 80.5703 560.254 80.7695 560.84 80.7695C561.426 80.7695 561.941 80.5703 562.387 80.1719C562.844 79.7617 563.072 79.1758 563.072 78.4141V73.2109H564.566ZM568.732 73.2109V74.9688C569.072 74.3828 569.482 73.9141 569.963 73.5625C570.443 73.2109 570.936 73.0352 571.439 73.0352C571.779 73.0352 572.084 73.0938 572.354 73.2109V74.8809C571.979 74.6582 571.604 74.5469 571.229 74.5469C570.631 74.5469 570.145 74.7578 569.77 75.1797C569.406 75.6016 569.061 76.1055 568.732 76.6914V82H567.291V73.2109H568.732ZM576.818 73.0352C577.334 73.0352 577.814 73.1113 578.26 73.2637C578.705 73.4043 579.027 73.5508 579.227 73.7031V75.25C578.98 75.0625 578.646 74.8809 578.225 74.7051C577.803 74.5293 577.369 74.4414 576.924 74.4414C576.373 74.4414 575.957 74.5703 575.676 74.8281C575.406 75.0859 575.271 75.3555 575.271 75.6367C575.271 75.8594 575.348 76.0879 575.5 76.3223C575.664 76.5449 575.945 76.7266 576.344 76.8672L577.82 77.3945C578.395 77.5938 578.822 77.8809 579.104 78.2559C579.385 78.6309 579.525 79.0703 579.525 79.5742C579.525 80.0664 579.385 80.5176 579.104 80.9277C578.834 81.3379 578.453 81.666 577.961 81.9121C577.48 82.1465 576.924 82.2637 576.291 82.2637C575.951 82.2637 575.594 82.2168 575.219 82.123C574.855 82.041 574.527 81.9414 574.234 81.8242C573.941 81.6953 573.725 81.584 573.584 81.4902V79.9434C573.748 80.0605 573.977 80.1953 574.27 80.3477C574.574 80.4883 574.896 80.6113 575.236 80.7168C575.576 80.8105 575.893 80.8574 576.186 80.8574C576.736 80.8574 577.17 80.7344 577.486 80.4883C577.814 80.2422 577.979 79.9375 577.979 79.5742C577.979 79.293 577.867 79.0703 577.645 78.9062C577.434 78.7422 577.123 78.584 576.713 78.4316L575.412 77.957C574.732 77.6992 574.281 77.377 574.059 76.9902C573.836 76.5918 573.725 76.1406 573.725 75.6367C573.725 74.8867 574.006 74.2656 574.568 73.7734C575.131 73.2812 575.881 73.0352 576.818 73.0352ZM585.344 73.0352C586.246 73.0352 586.996 73.2227 587.594 73.5977C588.191 73.9727 588.637 74.4824 588.93 75.127C589.234 75.7715 589.387 76.498 589.387 77.3066V78.168H582.637C582.707 78.6602 582.877 79.1113 583.146 79.5215C583.416 79.9316 583.768 80.2598 584.201 80.5059C584.635 80.7402 585.133 80.8574 585.695 80.8574C586.328 80.8574 586.92 80.6992 587.471 80.3828C588.021 80.0547 588.484 79.6973 588.859 79.3105L588.842 80.875C588.678 81.0742 588.432 81.2852 588.104 81.5078C587.787 81.7188 587.418 81.8945 586.996 82.0352C586.586 82.1875 586.152 82.2637 585.695 82.2637C584.805 82.2637 584.014 82.0527 583.322 81.6309C582.631 81.209 582.086 80.6523 581.688 79.9609C581.301 79.2578 581.107 78.4902 581.107 77.6582C581.107 76.8262 581.289 76.0586 581.652 75.3555C582.016 74.6523 582.514 74.0898 583.146 73.668C583.791 73.2461 584.523 73.0352 585.344 73.0352ZM585.344 74.4414C584.617 74.4414 584.02 74.6875 583.551 75.1797C583.082 75.6602 582.789 76.2461 582.672 76.9375H587.963C587.904 76.3633 587.74 75.8945 587.471 75.5312C587.213 75.168 586.896 74.8984 586.521 74.7227C586.146 74.5352 585.754 74.4414 585.344 74.4414ZM594.924 69.959C595.627 69.959 596.266 70.1055 596.84 70.3984C597.414 70.6914 597.865 71.0957 598.193 71.6113C598.533 72.127 598.703 72.7188 598.703 73.3867C598.703 73.8203 598.592 74.2129 598.369 74.5645C598.158 74.9043 597.889 75.2148 597.561 75.4961C597.244 75.7773 596.928 76.041 596.611 76.2871C596.295 76.5332 596.031 76.7793 595.82 77.0254C595.609 77.2715 595.51 77.5293 595.521 77.7988L595.539 78.168H593.834V77.4648C593.834 77.207 593.934 76.9609 594.133 76.7266C594.344 76.4805 594.602 76.2402 594.906 76.0059C595.211 75.7598 595.516 75.5137 595.82 75.2676C596.137 75.0098 596.395 74.7461 596.594 74.4766C596.805 74.207 596.91 73.9199 596.91 73.6152C596.91 73.041 596.723 72.5664 596.348 72.1914C595.984 71.8164 595.451 71.6289 594.748 71.6289C594.045 71.6289 593.459 71.7695 592.99 72.0508C592.533 72.3203 592.094 72.7246 591.672 73.2637V71.3477C591.988 70.9609 592.439 70.6328 593.025 70.3633C593.611 70.0938 594.244 69.959 594.924 69.959ZM594.766 79.8555C595.105 79.8555 595.393 79.9785 595.627 80.2246C595.873 80.459 595.996 80.7461 595.996 81.0859C595.996 81.4141 595.873 81.7012 595.627 81.9473C595.393 82.1934 595.105 82.3164 594.766 82.3164C594.426 82.3164 594.133 82.1934 593.887 81.9473C593.652 81.7012 593.535 81.4141 593.535 81.0859C593.535 80.7461 593.652 80.459 593.887 80.2246C594.133 79.9785 594.426 79.8555 594.766 79.8555Z" fill="#1F365D"/>
<path d="M799.668 74.6665V66.6665H802.335V74.6665H810.335V77.3332H802.335V85.3332H799.668V77.3332H791.668V74.6665H799.668Z" fill="#1F365D"/>
</g>
<defs>
<filter id="filter0_d_610_7049" x="0" y="0" width="884" height="160" filterUnits="userSpaceOnUse" color-interpolation-filters="sRGB">
<feFlood flood-opacity="0" result="BackgroundImageFix"/>
<feColorMatrix in="SourceAlpha" type="matrix" values="0 0 0 0 0 0 0 0 0 0 0 0 0 0 0 0 0 0 127 0" result="hardAlpha"/>
<feOffset dy="4"/>
<feGaussianBlur stdDeviation="17.5"/>
<feComposite in2="hardAlpha" operator="out"/>
<feColorMatrix type="matrix" values="0 0 0 0 0.920833 0 0 0 0 0.916997 0 0 0 0 0.916997 0 0 0 0.25 0"/>
<feBlend mode="normal" in2="BackgroundImageFix" result="effect1_dropShadow_610_7049"/>
<feBlend mode="normal" in="SourceGraphic" in2="effect1_dropShadow_610_7049" result="shape"/>
</filter>
</defs>
</svg>
