<svg width="2354" height="2556" viewBox="0 0 2354 2556" fill="none" xmlns="http://www.w3.org/2000/svg">
<path d="M858.013 371.576L858.468 403.999C861.761 638.749 1115.66 783.922 1319.64 667.686L1348.95 650.981C1540.68 541.727 1779.12 679.227 1780.6 899.893L1781.12 977.064C1782.19 1136.72 1939.7 1248.17 2090.61 1196.05V1196.05" stroke="white" stroke-opacity="0.08" stroke-width="0.653416"/>
<path d="M847.252 390.216L847.706 422.639C850.999 657.389 1104.9 802.561 1308.87 686.325L1338.19 669.621C1529.92 560.367 1768.36 697.867 1769.84 918.533L1770.36 995.703C1771.43 1155.36 1928.94 1266.81 2079.85 1214.69V1214.69" stroke="white" stroke-opacity="0.08" stroke-width="0.653416"/>
<path d="M836.49 408.856L836.945 441.279C840.238 676.029 1094.13 821.201 1298.11 704.965L1327.43 688.261C1519.15 579.007 1757.6 716.507 1759.08 937.173L1759.59 1014.34C1760.66 1174 1918.17 1285.45 2069.09 1233.33V1233.33" stroke="white" stroke-opacity="0.08" stroke-width="0.653416"/>
<path d="M825.728 427.494L826.183 459.917C829.476 694.667 1083.37 839.839 1287.35 723.603L1316.67 706.899C1508.39 597.645 1746.84 735.145 1748.32 955.811L1748.83 1032.98C1749.9 1192.64 1907.41 1304.09 2058.33 1251.97V1251.97" stroke="white" stroke-opacity="0.08" stroke-width="0.653416"/>
<path d="M814.966 446.135L815.421 478.558C818.714 713.308 1072.61 858.48 1276.59 742.244L1305.9 725.539C1497.63 616.285 1736.08 753.785 1737.55 974.451L1738.07 1051.62C1739.14 1211.28 1896.65 1322.73 2047.57 1270.61V1270.61" stroke="white" stroke-opacity="0.08" stroke-width="0.653416"/>
<path d="M804.205 464.774L804.66 497.197C807.952 731.947 1061.85 877.12 1265.83 760.884L1295.14 744.179C1486.87 634.925 1725.31 772.425 1726.79 993.091L1727.31 1070.26C1728.38 1229.92 1885.89 1341.37 2036.81 1289.25V1289.25" stroke="white" stroke-opacity="0.08" stroke-width="0.653416"/>
<path d="M793.443 483.413L793.898 515.836C797.191 750.586 1051.09 895.759 1255.07 779.523L1284.38 762.818C1476.11 653.564 1714.55 791.064 1716.03 1011.73L1716.55 1088.9C1717.62 1248.56 1875.13 1360.01 2026.04 1307.89V1307.89" stroke="white" stroke-opacity="0.08" stroke-width="0.653416"/>
<path d="M782.681 502.052L783.136 534.476C786.429 769.225 1040.32 914.398 1244.3 798.162L1273.62 781.457C1465.35 672.203 1703.79 809.703 1705.27 1030.37L1705.79 1107.54C1706.86 1267.2 1864.37 1378.65 2015.28 1326.53V1326.53" stroke="white" stroke-opacity="0.08" stroke-width="0.653416"/>
<path d="M771.92 520.691L772.374 553.114C775.667 787.864 1029.56 933.036 1233.54 816.8L1262.86 800.096C1454.58 690.842 1693.03 828.342 1694.51 1049.01L1695.02 1126.18C1696.09 1285.84 1853.6 1397.29 2004.52 1345.16V1345.16" stroke="white" stroke-opacity="0.08" stroke-width="0.653416"/>
<path d="M761.162 539.33L761.617 571.753C764.91 806.503 1018.81 951.675 1222.78 835.44L1252.1 818.735C1443.83 709.481 1682.27 846.981 1683.75 1067.65L1684.27 1144.82C1685.34 1304.48 1842.85 1415.92 1993.76 1363.8V1363.8" stroke="white" stroke-opacity="0.08" stroke-width="0.653416"/>
<path d="M750.396 557.97L750.851 590.393C754.144 825.143 1008.04 970.315 1212.02 854.079L1241.33 837.375C1433.06 728.121 1671.51 865.621 1672.98 1086.29L1673.5 1163.46C1674.57 1323.12 1832.08 1434.56 1983 1382.44V1382.44" stroke="white" stroke-opacity="0.08" stroke-width="0.653416"/>
<path d="M739.638 576.609L740.093 609.032C743.386 843.782 997.282 988.954 1201.26 872.718L1230.58 856.014C1422.3 746.76 1660.75 884.26 1662.23 1104.93L1662.74 1182.1C1663.81 1341.76 1821.32 1453.2 1972.24 1401.08V1401.08" stroke="white" stroke-opacity="0.08" stroke-width="0.653416"/>
<path d="M728.877 595.248L729.331 627.671C732.624 862.421 986.52 1007.59 1190.5 891.357L1219.81 874.653C1411.54 765.399 1649.99 902.899 1651.46 1123.56L1651.98 1200.74C1653.05 1360.4 1810.56 1471.84 1961.48 1419.72V1419.72" stroke="white" stroke-opacity="0.08" stroke-width="0.653416"/>
<path d="M718.115 613.889L718.57 646.312C721.863 881.062 975.758 1026.23 1179.74 909.998L1209.05 893.294C1400.78 784.04 1639.22 921.54 1640.7 1142.21L1641.22 1219.38C1642.29 1379.04 1799.8 1490.48 1950.72 1438.36V1438.36" stroke="white" stroke-opacity="0.08" stroke-width="0.653416"/>
<path d="M707.353 632.528L707.808 664.951C711.101 899.701 964.997 1044.87 1168.98 928.637L1198.29 911.932C1390.02 802.678 1628.46 940.178 1629.94 1160.84L1630.46 1238.02C1631.53 1397.68 1789.04 1509.12 1939.95 1457V1457" stroke="white" stroke-opacity="0.08" stroke-width="0.653416"/>
<path d="M696.845 650.727L697.3 683.15C700.593 917.9 954.489 1063.07 1158.47 946.836L1187.78 930.131C1379.51 820.877 1617.95 958.377 1619.43 1179.04L1619.95 1256.21C1621.02 1415.87 1778.53 1527.32 1929.45 1475.2V1475.2" stroke="white" stroke-opacity="0.08" stroke-width="0.653416"/>
<path d="M686.341 668.925L686.796 701.348C690.089 936.098 943.985 1081.27 1147.96 965.034L1177.28 948.33C1369.01 839.076 1607.45 976.576 1608.93 1197.24L1609.45 1274.41C1610.52 1434.07 1768.03 1545.52 1918.94 1493.4V1493.4" stroke="white" stroke-opacity="0.08" stroke-width="0.653416"/>
<path d="M675.834 687.122L676.288 719.545C679.581 954.295 933.477 1099.47 1137.46 983.231L1166.77 966.527C1358.5 857.273 1596.94 994.773 1598.42 1215.44L1598.94 1292.61C1600.01 1452.27 1757.52 1563.72 1908.43 1511.59V1511.59" stroke="white" stroke-opacity="0.08" stroke-width="0.653416"/>
<path d="M665.326 705.32L665.781 737.744C669.074 972.494 922.969 1117.67 1126.95 1001.43L1156.26 984.725C1347.99 875.471 1586.44 1012.97 1587.91 1233.64L1588.43 1310.81C1589.5 1470.47 1747.01 1581.91 1897.93 1529.79V1529.79" stroke="white" stroke-opacity="0.08" stroke-width="0.653416"/>
<path d="M654.818 723.519L655.273 755.942C658.566 990.692 912.462 1135.86 1116.44 1019.63L1145.76 1002.92C1337.48 893.67 1575.93 1031.17 1577.41 1251.84L1577.92 1329.01C1578.99 1488.67 1736.5 1600.11 1887.42 1547.99V1547.99" stroke="white" stroke-opacity="0.08" stroke-width="0.653416"/>
<path d="M644.31 741.718L644.765 774.141C648.058 1008.89 901.954 1154.06 1105.93 1037.83L1135.25 1021.12C1326.97 911.869 1565.42 1049.37 1566.9 1270.03L1567.42 1347.21C1568.48 1506.87 1725.99 1618.31 1876.91 1566.19V1566.19" stroke="white" stroke-opacity="0.08" stroke-width="0.653416"/>
<path d="M633.806 759.914L634.261 792.338C637.554 1027.09 891.45 1172.26 1095.43 1056.02L1124.74 1039.32C1316.47 930.065 1554.92 1067.57 1556.39 1288.23L1556.91 1365.4C1557.98 1525.06 1715.49 1636.51 1866.41 1584.39V1584.39" stroke="white" stroke-opacity="0.08" stroke-width="0.653416"/>
<path d="M623.299 778.113L623.753 810.536C627.046 1045.29 880.942 1190.46 1084.92 1074.22L1114.24 1057.52C1305.96 948.264 1544.41 1085.76 1545.89 1306.43L1546.4 1383.6C1547.47 1543.26 1704.98 1654.71 1855.9 1602.59V1602.59" stroke="white" stroke-opacity="0.08" stroke-width="0.653416"/>
<path d="M612.791 796.312L613.246 828.735C616.538 1063.48 870.434 1208.66 1074.41 1092.42L1103.73 1075.72C1295.46 966.462 1533.9 1103.96 1535.38 1324.63L1535.9 1401.8C1536.97 1561.46 1694.47 1672.91 1845.39 1620.78V1620.78" stroke="white" stroke-opacity="0.08" stroke-width="0.653416"/>
<path d="M602.287 814.51L602.742 846.933C606.035 1081.68 859.93 1226.86 1063.91 1110.62L1093.22 1093.91C1284.95 984.661 1523.4 1122.16 1524.87 1342.83L1525.39 1420C1526.46 1579.66 1683.97 1691.1 1834.89 1638.98V1638.98" stroke="white" stroke-opacity="0.08" stroke-width="0.653416"/>
<path d="M591.779 832.707L592.234 865.13C595.527 1099.88 849.422 1245.05 1053.4 1128.82L1082.72 1112.11C1274.44 1002.86 1512.89 1140.36 1514.37 1361.02L1514.88 1438.19C1515.95 1597.86 1673.46 1709.3 1824.38 1657.18V1657.18" stroke="white" stroke-opacity="0.08" stroke-width="0.653416"/>
<path d="M581.271 850.906L581.726 883.329C585.019 1118.08 838.915 1263.25 1042.89 1147.02L1072.21 1130.31C1263.94 1021.06 1502.38 1158.56 1503.86 1379.22L1504.38 1456.39C1505.45 1616.05 1662.96 1727.5 1813.87 1675.38V1675.38" stroke="white" stroke-opacity="0.08" stroke-width="0.653416"/>
<path d="M570.763 869.104L571.218 901.528C574.511 1136.28 828.407 1281.45 1032.39 1165.21L1061.7 1148.51C1253.43 1039.26 1491.87 1176.76 1493.35 1397.42L1493.87 1474.59C1494.94 1634.25 1652.45 1745.7 1803.36 1693.58V1693.58" stroke="white" stroke-opacity="0.08" stroke-width="0.653416"/>
<path d="M560.259 887.303L560.714 919.726C564.007 1154.48 817.903 1299.65 1021.88 1183.41L1051.2 1166.71C1242.92 1057.45 1481.37 1194.95 1482.85 1415.62L1483.36 1492.79C1484.43 1652.45 1641.94 1763.9 1792.86 1711.78V1711.78" stroke="white" stroke-opacity="0.08" stroke-width="0.653416"/>
<path d="M536.013 887.576L536.468 919.999C539.761 1154.75 793.657 1299.92 997.636 1183.69L1026.95 1166.98C1218.68 1057.73 1457.12 1195.23 1458.6 1415.89L1459.12 1493.06C1460.19 1652.72 1617.7 1764.17 1768.61 1712.05V1712.05" stroke="white" stroke-opacity="0.08" stroke-width="0.653416"/>
<path d="M525.252 906.216L525.706 938.639C528.999 1173.39 782.895 1318.56 986.874 1202.33L1016.19 1185.62C1207.92 1076.37 1446.36 1213.87 1447.84 1434.53L1448.36 1511.7C1449.43 1671.36 1606.94 1782.81 1757.85 1730.69V1730.69" stroke="white" stroke-opacity="0.08" stroke-width="0.653416"/>
<path d="M514.49 924.856L514.945 957.279C518.238 1192.03 772.133 1337.2 976.113 1220.97L1005.43 1204.26C1197.15 1095.01 1435.6 1232.51 1437.08 1453.17L1437.59 1530.34C1438.66 1690 1596.17 1801.45 1747.09 1749.33V1749.33" stroke="white" stroke-opacity="0.08" stroke-width="0.653416"/>
<path d="M503.728 943.494L504.183 975.917C507.476 1210.67 761.372 1355.84 965.351 1239.6L994.665 1222.9C1186.39 1113.64 1424.84 1251.15 1426.32 1471.81L1426.83 1548.98C1427.9 1708.64 1585.41 1820.09 1736.33 1767.97V1767.97" stroke="white" stroke-opacity="0.08" stroke-width="0.653416"/>
<path d="M492.966 962.135L493.421 994.558C496.714 1229.31 750.61 1374.48 954.589 1258.24L983.904 1241.54C1175.63 1132.29 1414.08 1269.79 1415.55 1490.45L1416.07 1567.62C1417.14 1727.28 1574.65 1838.73 1725.57 1786.61V1786.61" stroke="white" stroke-opacity="0.08" stroke-width="0.653416"/>
<path d="M482.205 980.774L482.66 1013.2C485.952 1247.95 739.848 1393.12 943.828 1276.88L973.142 1260.18C1164.87 1150.92 1403.31 1288.43 1404.79 1509.09L1405.31 1586.26C1406.38 1745.92 1563.89 1857.37 1714.81 1805.25V1805.25" stroke="white" stroke-opacity="0.08" stroke-width="0.653416"/>
<path d="M471.443 999.413L471.898 1031.84C475.191 1266.59 729.087 1411.76 933.066 1295.52L962.38 1278.82C1154.11 1169.56 1392.55 1307.06 1394.03 1527.73L1394.55 1604.9C1395.62 1764.56 1553.13 1876.01 1704.04 1823.89V1823.89" stroke="white" stroke-opacity="0.08" stroke-width="0.653416"/>
<path d="M460.681 1018.05L461.136 1050.48C464.429 1285.23 718.325 1430.4 922.304 1314.16L951.619 1297.46C1143.35 1188.2 1381.79 1325.7 1383.27 1546.37L1383.79 1623.54C1384.86 1783.2 1542.37 1894.65 1693.28 1842.53V1842.53" stroke="white" stroke-opacity="0.08" stroke-width="0.653416"/>
<path d="M449.92 1036.69L450.374 1069.11C453.667 1303.86 707.563 1449.04 911.542 1332.8L940.857 1316.1C1132.58 1206.84 1371.03 1344.34 1372.51 1565.01L1373.02 1642.18C1374.09 1801.84 1531.6 1913.29 1682.52 1861.16V1861.16" stroke="white" stroke-opacity="0.08" stroke-width="0.653416"/>
<path d="M439.162 1055.33L439.617 1087.75C442.91 1322.5 696.805 1467.68 900.785 1351.44L930.099 1334.73C1121.83 1225.48 1360.27 1362.98 1361.75 1583.65L1362.27 1660.82C1363.34 1820.48 1520.85 1931.92 1671.76 1879.8V1879.8" stroke="white" stroke-opacity="0.08" stroke-width="0.653416"/>
<path d="M428.396 1073.97L428.851 1106.39C432.144 1341.14 686.04 1486.32 890.019 1370.08L919.333 1353.37C1111.06 1244.12 1349.51 1381.62 1350.98 1602.29L1351.5 1679.46C1352.57 1839.12 1510.08 1950.56 1661 1898.44V1898.44" stroke="white" stroke-opacity="0.08" stroke-width="0.653416"/>
<path d="M417.638 1092.61L418.093 1125.03C421.386 1359.78 675.282 1504.95 879.261 1388.72L908.576 1372.01C1100.3 1262.76 1338.75 1400.26 1340.23 1620.93L1340.74 1698.1C1341.81 1857.76 1499.32 1969.2 1650.24 1917.08V1917.08" stroke="white" stroke-opacity="0.08" stroke-width="0.653416"/>
<path d="M406.877 1111.25L407.331 1143.67C410.624 1378.42 664.52 1523.59 868.499 1407.36L897.814 1390.65C1089.54 1281.4 1327.99 1418.9 1329.46 1639.56L1329.98 1716.74C1331.05 1876.4 1488.56 1987.84 1639.48 1935.72V1935.72" stroke="white" stroke-opacity="0.08" stroke-width="0.653416"/>
<path d="M396.115 1129.89L396.57 1162.31C399.863 1397.06 653.758 1542.23 857.738 1426L887.052 1409.29C1078.78 1300.04 1317.22 1437.54 1318.7 1658.21L1319.22 1735.38C1320.29 1895.04 1477.8 2006.48 1628.72 1954.36V1954.36" stroke="white" stroke-opacity="0.08" stroke-width="0.653416"/>
<path d="M385.353 1148.53L385.808 1180.95C389.101 1415.7 642.997 1560.87 846.976 1444.64L876.29 1427.93C1068.02 1318.68 1306.46 1456.18 1307.94 1676.84L1308.46 1754.02C1309.53 1913.68 1467.04 2025.12 1617.95 1973V1973" stroke="white" stroke-opacity="0.08" stroke-width="0.653416"/>
<path d="M374.845 1166.73L375.3 1199.15C378.593 1433.9 632.489 1579.07 836.468 1462.84L865.783 1446.13C1057.51 1336.88 1295.95 1474.38 1297.43 1695.04L1297.95 1772.21C1299.02 1931.87 1456.53 2043.32 1607.45 1991.2V1991.2" stroke="white" stroke-opacity="0.08" stroke-width="0.653416"/>
<path d="M364.341 1184.92L364.796 1217.35C368.089 1452.1 621.985 1597.27 825.964 1481.03L855.279 1464.33C1047.01 1355.08 1285.45 1492.58 1286.93 1713.24L1287.45 1790.41C1288.52 1950.07 1446.03 2061.52 1596.94 2009.4V2009.4" stroke="white" stroke-opacity="0.08" stroke-width="0.653416"/>
<path d="M353.834 1203.12L354.288 1235.55C357.581 1470.29 611.477 1615.47 815.456 1499.23L844.771 1482.53C1036.5 1373.27 1274.94 1510.77 1276.42 1731.44L1276.94 1808.61C1278.01 1968.27 1435.52 2079.72 1586.43 2027.59V2027.59" stroke="white" stroke-opacity="0.08" stroke-width="0.653416"/>
<path d="M343.326 1221.32L343.781 1253.74C347.074 1488.49 600.969 1633.67 804.949 1517.43L834.263 1500.73C1025.99 1391.47 1264.44 1528.97 1265.91 1749.64L1266.43 1826.81C1267.5 1986.47 1425.01 2097.91 1575.93 2045.79V2045.79" stroke="white" stroke-opacity="0.08" stroke-width="0.653416"/>
<path d="M332.818 1239.52L333.273 1271.94C336.566 1506.69 590.462 1651.86 794.441 1535.63L823.755 1518.92C1015.48 1409.67 1253.93 1547.17 1255.41 1767.84L1255.92 1845.01C1256.99 2004.67 1414.5 2116.11 1565.42 2063.99V2063.99" stroke="white" stroke-opacity="0.08" stroke-width="0.653416"/>
<path d="M322.31 1257.72L322.765 1290.14C326.058 1524.89 579.954 1670.06 783.933 1553.83L813.248 1537.12C1004.97 1427.87 1243.42 1565.37 1244.9 1786.03L1245.42 1863.21C1246.48 2022.87 1403.99 2134.31 1554.91 2082.19V2082.19" stroke="white" stroke-opacity="0.08" stroke-width="0.653416"/>
<path d="M311.806 1275.91L312.261 1308.34C315.554 1543.09 569.45 1688.26 773.429 1572.02L802.744 1555.32C994.471 1446.07 1232.92 1583.57 1234.39 1804.23L1234.91 1881.4C1235.98 2041.06 1393.49 2152.51 1544.41 2100.39V2100.39" stroke="white" stroke-opacity="0.08" stroke-width="0.653416"/>
<path d="M301.299 1294.11L301.753 1326.54C305.046 1561.29 558.942 1706.46 762.921 1590.22L792.236 1573.52C983.963 1464.26 1222.41 1601.76 1223.89 1822.43L1224.4 1899.6C1225.47 2059.26 1382.98 2170.71 1533.9 2118.59V2118.59" stroke="white" stroke-opacity="0.08" stroke-width="0.653416"/>
<path d="M290.791 1312.31L291.246 1344.73C294.538 1579.48 548.434 1724.66 752.413 1608.42L781.728 1591.72C973.455 1482.46 1211.9 1619.96 1213.38 1840.63L1213.9 1917.8C1214.97 2077.46 1372.47 2188.91 1523.39 2136.78V2136.78" stroke="white" stroke-opacity="0.08" stroke-width="0.653416"/>
<path d="M280.287 1330.51L280.742 1362.93C284.035 1597.68 537.93 1742.86 741.91 1626.62L771.224 1609.92C962.951 1500.66 1201.4 1638.16 1202.87 1858.83L1203.39 1936C1204.46 2095.66 1361.97 2207.1 1512.89 2154.98V2154.98" stroke="white" stroke-opacity="0.08" stroke-width="0.653416"/>
<path d="M269.779 1348.71L270.234 1381.13C273.527 1615.88 527.422 1761.05 731.402 1644.82L760.716 1628.11C952.443 1518.86 1190.89 1656.36 1192.37 1877.02L1192.88 1954.19C1193.95 2113.86 1351.46 2225.3 1502.38 2173.18V2173.18" stroke="white" stroke-opacity="0.08" stroke-width="0.653416"/>
<path d="M259.271 1366.91L259.726 1399.33C263.019 1634.08 516.915 1779.25 720.894 1663.02L750.208 1646.31C941.935 1537.06 1180.38 1674.56 1181.86 1895.22L1182.38 1972.39C1183.45 2132.05 1340.96 2243.5 1491.87 2191.38V2191.38" stroke="white" stroke-opacity="0.08" stroke-width="0.653416"/>
<path d="M248.763 1385.1L249.218 1417.53C252.511 1652.28 506.407 1797.45 710.386 1681.21L739.701 1664.51C931.428 1555.26 1169.87 1692.76 1171.35 1913.42L1171.87 1990.59C1172.94 2150.25 1330.45 2261.7 1481.36 2209.58V2209.58" stroke="white" stroke-opacity="0.08" stroke-width="0.653416"/>
<path d="M238.259 1403.3L238.714 1435.73C242.007 1670.48 495.903 1815.65 699.882 1699.41L729.197 1682.71C920.924 1573.45 1159.37 1710.95 1160.85 1931.62L1161.36 2008.79C1162.43 2168.45 1319.94 2279.9 1470.86 2227.78V2227.78" stroke="white" stroke-opacity="0.08" stroke-width="0.653416"/>
</svg>
