<svg width="22" height="22" viewBox="0 0 22 22" fill="none" xmlns="http://www.w3.org/2000/svg">
<path d="M19.6478 2.36698C19.1893 1.89638 18.5107 1.72106 17.8779 1.90561L3.12269 6.19639C2.45509 6.38187 1.98189 6.91429 1.85443 7.59067C1.72421 8.27904 2.17906 9.15288 2.7733 9.51829L7.38694 12.3539C7.86013 12.6446 8.47088 12.5717 8.86246 12.1767L14.1455 6.86077C14.4115 6.58395 14.8517 6.58395 15.1176 6.86077C15.3835 7.12837 15.3835 7.56206 15.1176 7.83889L9.82536 13.1558C9.43286 13.5498 9.3595 14.1634 9.64837 14.6396L12.4674 19.2994C12.7975 19.8531 13.3661 20.1668 13.9896 20.1668C14.063 20.1668 14.1455 20.1668 14.2189 20.1576C14.9342 20.0653 15.5028 19.5763 15.7137 18.8842L20.088 4.14789C20.2806 3.52042 20.1063 2.83758 19.6478 2.36698Z" fill="white"/>
</svg>
