<svg width="1440" height="330" viewBox="0 0 1440 330" fill="none" xmlns="http://www.w3.org/2000/svg">
<mask id="mask0_2270_29727" style="mask-type:alpha" maskUnits="userSpaceOnUse" x="0" y="0" width="1440" height="330">
<rect width="1440" height="330" fill="#F5FCFF"/>
</mask>
<g mask="url(#mask0_2270_29727)">
<path d="M286.063 -323.638L286.668 -295.685C291.347 -79.5668 594.028 32.1912 884.37 -74.9976L923.171 -89.3221C1195.86 -189.992 1479.71 -83.9898 1481.81 119.297L1482.38 174.227C1483.94 324.617 1672.38 415.934 1883.63 368.667V368.667" stroke="#1F365D" stroke-opacity="0.15" stroke-width="0.653416"/>
<path d="M272.114 -307.987L272.72 -280.034C277.399 -63.915 580.08 47.8431 870.422 -59.3457L909.223 -73.6702C1181.91 -174.341 1465.76 -68.3379 1467.87 134.949L1468.43 189.879C1469.99 340.269 1658.43 431.586 1869.68 384.319V384.319" stroke="#1F365D" stroke-opacity="0.15" stroke-width="0.653416"/>
<path d="M258.168 -292.335L258.773 -264.382C263.452 -48.2631 566.133 63.495 856.475 -43.6939L895.276 -58.0184C1167.96 -158.689 1451.82 -52.6861 1453.92 150.601L1454.49 205.531C1456.04 355.921 1644.48 447.238 1855.73 399.971V399.971" stroke="#1F365D" stroke-opacity="0.15" stroke-width="0.653416"/>
<path d="M244.218 -276.684L244.824 -248.731C249.503 -32.6127 552.184 79.1454 842.526 -28.0435L881.327 -42.368C1154.01 -143.038 1437.87 -37.0357 1439.97 166.251L1440.54 221.181C1442.09 371.571 1630.53 462.888 1841.78 415.621V415.621" stroke="#1F365D" stroke-opacity="0.15" stroke-width="0.653416"/>
<path d="M230.273 -261.032L230.878 -233.079C235.557 -16.9604 538.238 94.7977 828.58 -12.3911L867.381 -26.7156C1140.07 -127.386 1423.92 -21.3833 1426.02 181.904L1426.59 236.833C1428.15 387.224 1616.59 478.541 1827.84 431.274V431.274" stroke="#1F365D" stroke-opacity="0.15" stroke-width="0.653416"/>
<path d="M216.322 -245.38L216.927 -217.427C221.606 -1.30853 524.287 110.45 814.629 3.26073L853.43 -11.0638C1126.11 -111.734 1409.97 -5.73149 1412.07 197.555L1412.64 252.485C1414.2 402.876 1602.64 494.192 1813.89 446.925V446.925" stroke="#1F365D" stroke-opacity="0.15" stroke-width="0.653416"/>
<path d="M202.377 -229.73L202.982 -201.777C207.661 14.3419 510.342 126.1 800.684 18.9111L839.485 4.58662C1112.17 -96.0838 1396.03 9.9189 1398.13 213.206L1398.7 268.136C1400.25 418.526 1588.69 509.843 1799.94 462.576V462.576" stroke="#1F365D" stroke-opacity="0.15" stroke-width="0.653416"/>
<path d="M188.429 -214.078L189.035 -186.125C193.714 29.9937 496.395 141.752 786.737 34.563L825.537 20.2385C1098.22 -80.4319 1382.08 25.5708 1384.18 228.858L1384.75 283.787C1386.3 434.178 1574.74 525.495 1785.99 478.228V478.228" stroke="#1F365D" stroke-opacity="0.15" stroke-width="0.653416"/>
<path d="M174.48 -198.428L175.085 -170.475C179.764 45.6436 482.445 157.402 772.787 50.2129L811.588 35.8884C1084.27 -64.782 1368.13 41.2207 1370.23 244.508L1370.8 299.437C1372.35 449.828 1560.79 541.145 1772.04 493.878V493.878" stroke="#1F365D" stroke-opacity="0.15" stroke-width="0.653416"/>
<path d="M160.533 -182.776L161.139 -154.823C165.818 61.2955 468.499 173.054 758.841 65.8647L797.641 51.5402C1070.33 -49.1302 1354.18 56.8725 1356.28 260.159L1356.85 315.089C1358.41 465.48 1546.85 556.796 1758.1 509.529V509.529" stroke="#1F365D" stroke-opacity="0.15" stroke-width="0.653416"/>
<path d="M146.584 -167.125L147.189 -139.172C151.868 76.9468 454.549 188.705 744.891 81.5161L783.692 67.1916C1056.38 -33.4788 1340.23 72.5239 1342.33 275.811L1342.9 330.741C1344.46 481.131 1532.9 572.448 1744.15 525.181V525.181" stroke="#1F365D" stroke-opacity="0.15" stroke-width="0.653416"/>
<path d="M132.637 -151.474L133.243 -123.521C137.922 92.5977 440.603 204.356 730.945 97.167L769.745 82.8425C1042.43 -17.8279 1326.29 88.1748 1328.39 291.462L1328.96 346.391C1330.51 496.782 1518.95 588.099 1730.2 540.832V540.832" stroke="#1F365D" stroke-opacity="0.15" stroke-width="0.653416"/>
<path d="M118.69 -135.822L119.295 -107.87C123.975 108.249 426.656 220.007 716.997 112.818L755.798 98.4938C1028.48 -2.17655 1312.34 103.826 1314.44 307.113L1315.01 362.043C1316.56 512.433 1505.01 603.75 1716.25 556.483V556.483" stroke="#1F365D" stroke-opacity="0.15" stroke-width="0.653416"/>
<path d="M104.741 -120.17L105.347 -92.2167C110.026 123.902 412.707 235.66 703.049 128.471L741.849 114.147C1014.53 13.4763 1298.39 119.479 1300.49 322.766L1301.06 377.696C1302.62 528.086 1491.06 619.403 1702.31 572.136V572.136" stroke="#1F365D" stroke-opacity="0.15" stroke-width="0.653416"/>
<path d="M90.7947 -104.519L91.3999 -76.5663C96.0792 139.552 398.76 251.31 689.102 144.122L727.903 129.797C1000.59 29.1267 1284.44 135.129 1286.55 338.416L1287.11 393.346C1288.67 543.736 1477.11 635.053 1688.36 587.786V587.786" stroke="#1F365D" stroke-opacity="0.15" stroke-width="0.653416"/>
<path d="M77.1755 -89.237L77.7808 -61.2841C82.46 154.835 385.141 266.593 675.483 159.404L714.284 145.079C986.969 44.4089 1270.82 150.412 1272.93 353.699L1273.49 408.628C1275.05 559.019 1463.49 650.336 1674.74 603.069V603.069" stroke="#1F365D" stroke-opacity="0.15" stroke-width="0.653416"/>
<path d="M63.5593 -73.9563L64.1645 -46.0033C68.8438 170.115 371.525 281.873 661.867 174.685L700.667 160.36C973.353 59.6897 1257.21 165.692 1259.31 368.979L1259.88 423.909C1261.43 574.299 1449.87 665.616 1661.12 618.349V618.349" stroke="#1F365D" stroke-opacity="0.15" stroke-width="0.653416"/>
<path d="M49.9407 -58.676L50.5459 -30.7231C55.2252 185.396 357.906 297.154 648.248 189.965L687.049 175.64C959.734 74.9699 1243.59 180.973 1245.69 384.26L1246.26 439.189C1247.81 589.58 1436.26 680.897 1647.5 633.63V633.63" stroke="#1F365D" stroke-opacity="0.15" stroke-width="0.653416"/>
<path d="M36.323 -43.3952L36.9282 -15.4423C41.6075 200.676 344.289 312.434 634.63 205.246L673.431 190.921C946.116 90.2507 1229.97 196.253 1232.07 399.54L1232.64 454.47C1234.2 604.86 1422.64 696.177 1633.89 648.91V648.91" stroke="#1F365D" stroke-opacity="0.15" stroke-width="0.653416"/>
<path d="M22.7058 -28.1135L23.311 -0.16056C27.9903 215.958 330.671 327.716 621.013 220.527L659.814 206.203C932.499 105.532 1216.35 211.535 1218.46 414.822L1219.02 469.752C1220.58 620.142 1409.02 711.459 1620.27 664.192V664.192" stroke="#1F365D" stroke-opacity="0.15" stroke-width="0.653416"/>
<path d="M9.08764 -12.8322L9.69286 15.1207C14.3721 231.239 317.053 342.997 607.395 235.809L646.196 221.484C918.881 120.814 1202.74 226.816 1204.84 430.103L1205.41 485.033C1206.96 635.423 1395.4 726.74 1606.65 679.473V679.473" stroke="#1F365D" stroke-opacity="0.15" stroke-width="0.653416"/>
<path d="M-4.53004 2.44706L-3.92482 30.4C0.754458 246.519 303.435 358.277 593.777 251.088L632.578 236.763C905.263 136.093 1189.12 242.096 1191.22 445.383L1191.79 500.312C1193.34 650.703 1381.78 742.02 1593.03 694.753V694.753" stroke="#1F365D" stroke-opacity="0.15" stroke-width="0.653416"/>
<path d="M-18.1472 17.7288L-17.542 45.6817C-12.8627 261.8 289.818 373.558 580.16 266.37L618.961 252.045C891.646 151.375 1175.5 257.377 1177.6 460.664L1178.17 515.594C1179.73 665.984 1368.17 757.301 1579.42 710.034V710.034" stroke="#1F365D" stroke-opacity="0.15" stroke-width="0.653416"/>
<path d="M-31.7644 33.0096L-31.1592 60.9625C-26.4799 277.081 276.201 388.839 566.543 281.65L605.344 267.326C878.029 166.655 1161.88 272.658 1163.99 475.945L1164.55 530.875C1166.11 681.265 1354.55 772.582 1565.8 725.315V725.315" stroke="#1F365D" stroke-opacity="0.15" stroke-width="0.653416"/>
<path d="M-45.3831 48.2908L-44.7778 76.2437C-40.0986 292.362 262.582 404.12 552.924 296.932L591.725 282.607C864.41 181.937 1148.27 287.939 1150.37 491.226L1150.94 546.156C1152.49 696.546 1340.93 787.863 1552.18 740.596V740.596" stroke="#1F365D" stroke-opacity="0.15" stroke-width="0.653416"/>
<path d="M-59.0003 63.5706L-58.395 91.5235C-53.7158 307.642 248.965 419.4 539.307 312.211L578.108 297.887C850.793 197.217 1134.65 303.219 1136.75 506.506L1137.32 561.436C1138.87 711.826 1327.31 803.143 1538.56 755.876V755.876" stroke="#1F365D" stroke-opacity="0.15" stroke-width="0.653416"/>
<path d="M-72.6184 78.8523L-72.0132 106.805C-67.3339 322.924 235.347 434.682 525.689 327.493L564.49 313.169C837.175 212.498 1121.03 318.501 1123.13 521.788L1123.7 576.718C1125.26 727.108 1313.7 818.425 1524.95 771.158V771.158" stroke="#1F365D" stroke-opacity="0.15" stroke-width="0.653416"/>
<path d="M-86.2351 94.1336L-85.6299 122.087C-80.9506 338.205 221.73 449.963 512.072 342.774L550.873 328.45C823.558 227.78 1107.41 333.782 1109.52 537.069L1110.08 591.999C1111.64 742.389 1300.08 833.706 1511.33 786.439V786.439" stroke="#1F365D" stroke-opacity="0.15" stroke-width="0.653416"/>
<path d="M-99.8533 109.414L-99.2481 137.367C-94.5688 353.486 208.112 465.244 498.454 358.055L537.255 343.731C809.94 243.06 1093.8 349.063 1095.9 552.35L1096.47 607.28C1098.02 757.67 1286.46 848.987 1497.71 801.72V801.72" stroke="#1F365D" stroke-opacity="0.15" stroke-width="0.653416"/>
<path d="M-131.279 109.644L-130.673 137.597C-125.994 353.716 176.687 465.474 467.029 358.285L505.829 343.961C778.515 243.29 1062.37 349.293 1064.47 552.58L1065.04 607.51C1066.6 757.9 1255.04 849.217 1466.29 801.95V801.95" stroke="#1F365D" stroke-opacity="0.15" stroke-width="0.653416"/>
<path d="M-145.227 125.296L-144.622 153.249C-139.942 369.367 162.739 481.125 453.081 373.937L491.881 359.612C764.567 258.942 1048.42 364.944 1050.52 568.231L1051.09 623.161C1052.65 773.551 1241.09 864.868 1452.34 817.601V817.601" stroke="#1F365D" stroke-opacity="0.15" stroke-width="0.653416"/>
<path d="M-159.174 140.948L-158.568 168.9C-153.889 385.019 148.792 496.777 439.134 389.588L477.934 375.264C750.62 274.593 1034.48 380.596 1036.58 583.883L1037.15 638.813C1038.7 789.203 1227.14 880.52 1438.39 833.253V833.253" stroke="#1F365D" stroke-opacity="0.15" stroke-width="0.653416"/>
<path d="M-173.122 156.598L-172.517 184.551C-167.838 400.669 134.843 512.428 425.185 405.239L463.986 390.914C736.671 290.244 1020.53 396.247 1022.63 599.533L1023.2 654.463C1024.75 804.854 1213.19 896.171 1424.44 848.903V848.903" stroke="#1F365D" stroke-opacity="0.15" stroke-width="0.653416"/>
<path d="M-187.069 172.251L-186.463 200.204C-181.784 416.322 120.897 528.08 411.239 420.892L450.039 406.567C722.725 305.897 1006.58 411.899 1008.68 615.186L1009.25 670.116C1010.81 820.506 1199.25 911.823 1410.5 864.556V864.556" stroke="#1F365D" stroke-opacity="0.15" stroke-width="0.653416"/>
<path d="M-201.019 187.902L-200.414 215.855C-195.735 431.974 106.946 543.732 397.288 436.543L436.089 422.218C708.774 321.548 992.63 427.551 994.732 630.838L995.3 685.767C996.855 836.158 1185.3 927.475 1396.54 880.208V880.208" stroke="#1F365D" stroke-opacity="0.15" stroke-width="0.653416"/>
<path d="M-214.964 203.553L-214.359 231.506C-209.68 447.625 93.0014 559.383 383.343 452.194L422.144 437.869C694.829 337.199 978.685 443.202 980.787 646.489L981.355 701.418C982.91 851.809 1171.35 943.126 1382.6 895.859V895.859" stroke="#1F365D" stroke-opacity="0.15" stroke-width="0.653416"/>
<path d="M-228.912 219.204L-228.307 247.157C-223.628 463.276 79.0532 575.034 369.395 467.845L408.196 453.521C680.881 352.85 964.737 458.853 966.839 662.14L967.407 717.07C968.962 867.46 1157.4 958.777 1368.65 911.51V911.51" stroke="#1F365D" stroke-opacity="0.15" stroke-width="0.653416"/>
<path d="M-242.861 234.855L-242.256 262.808C-237.577 478.926 65.1044 590.684 355.446 483.496L394.247 469.171C666.932 368.501 950.788 474.503 952.89 677.79L953.458 732.72C955.013 883.11 1143.45 974.427 1354.7 927.16V927.16" stroke="#1F365D" stroke-opacity="0.15" stroke-width="0.653416"/>
<path d="M-256.808 250.506L-256.203 278.459C-251.523 494.578 51.1577 606.336 341.499 499.147L380.3 484.822C652.986 384.152 936.841 490.155 938.943 693.442L939.511 748.371C941.066 898.762 1129.51 990.079 1340.76 942.812V942.812" stroke="#1F365D" stroke-opacity="0.15" stroke-width="0.653416"/>
<path d="M-270.758 266.158L-270.153 294.111C-265.474 510.23 37.2075 621.988 327.549 514.799L366.35 500.474C639.035 399.804 922.891 505.807 924.993 709.094L925.561 764.023C927.116 914.414 1115.56 1005.73 1326.81 958.464V958.464" stroke="#1F365D" stroke-opacity="0.15" stroke-width="0.653416"/>
<path d="M-284.704 281.808L-284.099 309.761C-279.42 525.88 23.2612 637.638 313.603 530.449L352.404 516.125C625.089 415.454 908.945 521.457 911.047 724.744L911.615 779.674C913.17 930.064 1101.61 1021.38 1312.86 974.114V974.114" stroke="#1F365D" stroke-opacity="0.15" stroke-width="0.653416"/>
<path d="M-298.652 297.46L-298.046 325.413C-293.367 541.532 9.3139 653.29 299.656 546.101L338.456 531.777C611.142 431.106 894.997 537.109 897.099 740.396L897.667 795.326C899.223 945.716 1087.66 1037.03 1298.91 989.766V989.766" stroke="#1F365D" stroke-opacity="0.15" stroke-width="0.653416"/>
<path d="M-312.6 313.113L-311.995 341.066C-307.315 557.184 -4.63434 668.942 285.707 561.753L324.508 547.429C597.194 446.759 881.049 552.761 883.151 756.048L883.719 810.978C885.274 961.368 1073.72 1052.69 1284.96 1005.42V1005.42" stroke="#1F365D" stroke-opacity="0.15" stroke-width="0.653416"/>
<path d="M-326.547 328.763L-325.941 356.716C-321.262 572.835 -18.5811 684.593 271.761 577.404L310.561 563.08C583.247 462.409 867.102 568.412 869.204 771.699L869.772 826.629C871.328 977.019 1059.77 1068.34 1271.02 1021.07V1021.07" stroke="#1F365D" stroke-opacity="0.15" stroke-width="0.653416"/>
<path d="M-340.165 344.045L-339.56 371.998C-334.881 588.117 -32.1998 699.875 258.142 592.686L296.943 578.362C569.628 477.691 853.484 583.694 855.586 786.981L856.154 841.91C857.709 992.301 1046.15 1083.62 1257.4 1036.35V1036.35" stroke="#1F365D" stroke-opacity="0.15" stroke-width="0.653416"/>
<path d="M-353.782 359.326L-353.177 387.279C-348.498 603.398 -45.817 715.156 244.525 607.967L283.326 593.642C556.011 492.972 839.866 598.975 841.969 802.262L842.537 857.191C844.092 1007.58 1032.53 1098.9 1243.78 1051.63V1051.63" stroke="#1F365D" stroke-opacity="0.15" stroke-width="0.653416"/>
<path d="M-367.401 374.606L-366.795 402.559C-362.116 618.678 -59.4351 730.436 230.907 623.247L269.707 608.923C542.393 508.252 826.248 614.255 828.35 817.542L828.918 872.472C830.474 1022.86 1018.91 1114.18 1230.16 1066.91V1066.91" stroke="#1F365D" stroke-opacity="0.15" stroke-width="0.653416"/>
<path d="M-381.018 389.887L-380.413 417.841C-375.733 633.959 -73.0524 745.717 217.289 638.528L256.09 624.204C528.776 523.533 812.631 629.536 814.733 832.823L815.301 887.753C816.856 1038.14 1005.3 1129.46 1216.55 1082.19V1082.19" stroke="#1F365D" stroke-opacity="0.15" stroke-width="0.653416"/>
<path d="M-394.636 405.169L-394.03 433.122C-389.351 649.241 -86.67 760.999 203.672 653.81L242.473 639.486C515.158 538.815 799.013 644.818 801.116 848.105L801.684 903.034C803.239 1053.42 991.679 1144.74 1202.93 1097.47V1097.47" stroke="#1F365D" stroke-opacity="0.15" stroke-width="0.653416"/>
<path d="M-408.253 420.45L-407.648 448.403C-402.969 664.522 -100.288 776.28 190.054 669.091L228.855 654.766C501.54 554.096 785.396 660.099 787.498 863.386L788.066 918.315C789.621 1068.71 978.062 1160.02 1189.31 1112.76V1112.76" stroke="#1F365D" stroke-opacity="0.15" stroke-width="0.653416"/>
<path d="M-421.871 435.729L-421.266 463.682C-416.587 679.801 -113.906 791.559 176.436 684.37L215.237 670.046C487.922 569.375 771.778 675.378 773.88 878.665L774.448 933.595C776.003 1083.98 964.444 1175.3 1175.69 1128.03V1128.03" stroke="#1F365D" stroke-opacity="0.15" stroke-width="0.653416"/>
<path d="M-435.489 451.011L-434.883 478.964C-430.204 695.083 -127.523 806.841 162.819 699.652L201.619 685.327C474.305 584.657 758.16 690.66 760.263 893.947L760.831 948.876C762.386 1099.27 950.826 1190.58 1162.08 1143.32V1143.32" stroke="#1F365D" stroke-opacity="0.15" stroke-width="0.653416"/>
<path d="M-449.106 466.292L-448.501 494.245C-443.822 710.364 -141.141 822.122 149.201 714.933L188.002 700.609C460.687 599.938 744.543 705.941 746.645 909.228L747.213 964.158C748.768 1114.55 937.209 1205.86 1148.46 1158.6V1158.6" stroke="#1F365D" stroke-opacity="0.15" stroke-width="0.653416"/>
<path d="M-462.724 481.573L-462.119 509.526C-457.44 725.645 -154.759 837.403 135.583 730.214L174.384 715.889C447.069 615.219 730.925 721.222 733.027 924.509L733.595 979.438C735.15 1129.83 923.591 1221.15 1134.84 1173.88V1173.88" stroke="#1F365D" stroke-opacity="0.15" stroke-width="0.653416"/>
</g>
</svg>
