<svg width="50" height="46" viewBox="0 0 50 46" fill="none" xmlns="http://www.w3.org/2000/svg">
<path fill-rule="evenodd" clip-rule="evenodd" d="M37.3485 0.5C40.701 0.5 43.926 1.825 46.2985 4.2025C48.6735 6.575 50.001 9.775 50.001 13.125V32.875C50.001 39.85 44.326 45.5 37.3485 45.5H12.651C5.67348 45.5 0.000976562 39.85 0.000976562 32.875V13.125C0.000976562 6.15 5.64848 0.5 12.651 0.5H37.3485ZM41.3259 16.8499L41.5259 16.6499C42.1234 15.9249 42.1234 14.8749 41.4984 14.1499C41.1509 13.7774 40.6734 13.5499 40.1759 13.4999C39.6509 13.4724 39.1509 13.6499 38.7734 13.9999L27.5009 22.9999C26.0509 24.2024 23.9734 24.2024 22.5009 22.9999L11.2509 13.9999C10.4734 13.4249 9.39837 13.4999 8.75087 14.1749C8.07587 14.8499 8.00087 15.9249 8.57337 16.6749L8.90087 16.9999L20.2759 25.8749C21.6759 26.9749 23.3734 27.5749 25.1509 27.5749C26.9234 27.5749 28.6509 26.9749 30.0484 25.8749L41.3259 16.8499Z" fill="#45B5E3"/>
</svg>
