<svg width="38" height="38" viewBox="0 0 38 38" fill="none" xmlns="http://www.w3.org/2000/svg">
<path d="M30.3953 19.2898C30.1791 19.0015 29.7702 18.9432 29.482 19.1593C29.3435 19.2632 29.2519 19.4178 29.2275 19.5892L28.8655 22.127C28.8567 22.1596 28.8453 22.1914 28.8315 22.2222C29.4969 21.3388 30.0339 20.3655 30.4266 19.3316L30.3953 19.2898Z" fill="#45B5E3"/>
<path d="M28.2192 22.687C28.1884 22.687 28.1577 22.6851 28.1272 22.6811L24.2521 22.1273C23.8954 22.0761 23.6477 21.7456 23.6989 21.3889C23.6989 21.3889 23.6989 21.3889 23.6989 21.3888L24.0609 18.851C24.1114 18.4943 23.8632 18.1642 23.5064 18.1137C23.3357 18.0895 23.1624 18.1339 23.0243 18.2371L20.9732 19.7748C20.685 19.991 20.2761 19.9326 20.0599 19.6443L17.7113 16.5129C17.4952 16.2246 17.5535 15.8158 17.8418 15.5996L19.8922 14.0619C20.1805 13.8457 20.2389 13.4369 20.0227 13.1486C19.9188 13.0101 19.7642 12.9185 19.5928 12.8942L17.055 12.5314C16.6984 12.4807 16.4503 12.1504 16.5011 11.7937C16.5011 11.7934 16.5012 11.7932 16.5012 11.7929L17.055 7.91847C17.1058 7.56178 17.4361 7.31371 17.7928 7.36451C17.793 7.36451 17.7933 7.3646 17.7935 7.3646L20.3313 7.72732C20.5923 7.76516 20.8503 7.64104 20.9837 7.41352C21.1222 7.18739 21.1066 6.89921 20.9445 6.68938L19.4082 4.63961C19.192 4.35134 19.2504 3.94246 19.5386 3.72628L19.9085 3.44902C19.3093 3.42007 18.7087 3.43613 18.1119 3.4973C11.6684 4.23302 7.04136 10.053 7.77708 16.4965C8.17789 20.0067 10.1378 23.1499 13.1134 25.0545C14.1997 25.7281 14.867 26.9097 14.8826 28.1879V30.8241C14.8826 31.905 15.7588 32.7813 16.8398 32.7813H22.0588C23.1397 32.7813 24.0159 31.905 24.0159 30.8241V28.242C24.0325 26.9338 24.7134 25.724 25.823 25.031C26.8515 24.3638 27.7699 23.5407 28.5454 22.5911C28.447 22.6514 28.3345 22.6845 28.2192 22.687ZM20.1016 30.8241H18.7969V28.867H20.1016V30.8241ZM18.7969 27.5622C18.7965 25.8374 17.7329 24.2912 16.1221 23.6741C11.4243 21.8371 9.10508 16.5397 10.942 11.8419C11.6533 10.0228 12.929 8.47967 14.5819 7.43897L15.274 8.54279C11.6146 10.8454 10.5148 15.6786 12.8174 19.338C13.7096 20.7558 15.033 21.8501 16.5932 22.46C18.7075 23.2687 20.1033 25.2985 20.1016 27.5622H18.7969Z" fill="#45B5E3"/>
<path d="M16.8398 36.043V36.6953C16.8398 37.416 17.424 38.0001 18.1446 38.0001H20.7541C21.4748 38.0001 22.0589 37.416 22.0589 36.6953V36.043H16.8398Z" fill="#45B5E3"/>
<path d="M12.7609 25.6046C12.3744 25.354 12.0021 25.082 11.646 24.7898C10.6611 26.7069 8.30866 27.4627 6.39148 26.478C5.08656 25.8076 4.26783 24.4621 4.27215 22.9951C4.27516 21.0227 5.74408 19.3601 7.70105 19.1141C7.46163 18.394 7.28867 17.6535 7.18437 16.9019L7.0702 17.4446C6.92195 18.1498 6.23002 18.6012 5.52488 18.453C5.35599 18.4175 5.19583 18.3488 5.0537 18.251L3.69675 17.3194L2.50812 18.5054L3.44232 19.8637C3.8512 20.457 3.70164 21.2695 3.1083 21.6784C2.966 21.7764 2.80568 21.8453 2.63663 21.8808L1.01025 22.2233V23.7734L2.63663 24.1159C3.34177 24.2644 3.79306 24.9564 3.64456 25.6615C3.60892 25.8308 3.53993 25.9913 3.44167 26.1337L2.50812 27.4847L3.69675 28.6708L5.05239 27.7366C5.64573 27.3277 6.45827 27.4772 6.86715 28.0706C6.96517 28.2129 7.03399 28.3732 7.06955 28.5422L7.41139 30.1712H8.9621L9.30394 28.5449C9.45236 27.8397 10.1443 27.3884 10.8494 27.5368C11.0185 27.5723 11.1788 27.6411 11.3211 27.7392L12.6761 28.6708L14.0754 27.2714C13.8408 26.5819 13.3768 25.9935 12.7609 25.6046Z" fill="#45B5E3"/>
<path d="M22.0589 33.4336H16.8398V34.7383H22.0589V33.4336Z" fill="#45B5E3"/>
<path d="M35.7382 11.2469C34.6683 11.0939 33.9249 10.1024 34.0779 9.03242C34.1513 8.51859 34.4259 8.05499 34.8412 7.74364L36.3697 6.59676L34.804 4.50915L33.2755 5.65538C32.4109 6.30417 31.1842 6.12917 30.5354 5.26468C30.2243 4.8501 30.0904 4.32893 30.163 3.81567L30.4331 1.92377L27.8503 1.55518L27.5803 3.44708C27.4272 4.51706 26.4357 5.26044 25.3658 5.10746C24.8519 5.03399 24.3883 4.75942 24.077 4.3441L22.9301 2.81296L20.8425 4.37867L21.9887 5.9072C22.6373 6.77184 22.4623 7.99856 21.5976 8.64727C21.1821 8.95894 20.6599 9.09268 20.1457 9.01904L18.2539 8.74896L17.8833 11.3324L19.7752 11.6025C20.8452 11.7555 21.5886 12.747 21.4356 13.817C21.3621 14.3308 21.0875 14.7944 20.6722 15.1057L19.1443 16.2526L20.7101 18.3402L22.2386 17.194C23.1032 16.5454 24.3299 16.7205 24.9786 17.5851C25.2903 18.0006 25.4241 18.5229 25.3504 19.037L25.0803 20.9289L27.669 21.2994L27.9391 19.4075C28.0921 18.3375 29.0836 17.5942 30.1536 17.7471C30.6674 17.8206 31.131 18.0952 31.4423 18.5105L32.5892 20.0384L34.6768 18.4727L33.5267 16.9415C32.8783 16.0767 33.0537 14.85 33.9185 14.2016C34.3331 13.8908 34.854 13.757 35.367 13.8297L37.2589 14.0998L37.6275 11.517L35.7382 11.2469ZM27.7577 15.3393C25.5959 15.3393 23.8434 13.5868 23.8434 11.425C23.8434 9.2632 25.5959 7.51074 27.7577 7.51074C29.9195 7.51074 31.672 9.2632 31.672 11.425C31.6694 13.5858 29.9185 15.3368 27.7577 15.3393Z" fill="#45B5E3"/>
<path d="M36.4114 24.3003H31.8447V25.6051H36.4114V24.3003Z" fill="#45B5E3"/>
<path d="M31.6096 27.7124L30.7744 28.7148L34.689 31.9762L35.5241 30.9737L31.6096 27.7124Z" fill="#45B5E3"/>
<path d="M29.2349 29.519H27.9302V34.0857H29.2349V29.519Z" fill="#45B5E3"/>
<path d="M5.59025 9.96695L0.371582 11.2715L0.687828 12.5366L5.9065 11.2321L5.59025 9.96695Z" fill="#45B5E3"/>
<path d="M2.21351 3.54627L1.45557 4.60742L6.02186 7.86897L6.77981 6.80783L2.21351 3.54627Z" fill="#45B5E3"/>
<path d="M8.30946 -0.000434328L7.04541 0.322754L8.37969 5.54138L9.64374 5.21819L8.30946 -0.000434328Z" fill="#45B5E3"/>
</svg>
