<svg width="38" height="38" viewBox="0 0 38 38" fill="none" xmlns="http://www.w3.org/2000/svg">
<path d="M31.6869 8.05475C30.538 3.88625 26.7196 0.93457 22.3332 0.93457C19.8044 0.93457 17.4009 1.91515 15.6009 3.65402C14.4932 3.02665 13.2468 2.69897 11.9447 2.69897C8.1553 2.69897 4.99522 5.57888 4.56163 9.26459C1.88634 10.3938 0 13.0273 0 16.1204C0 21.4991 5.56225 25.0963 10.4551 22.9076C12.4871 25.2302 15.4528 26.5918 18.5664 26.5918C21.4195 26.5918 24.1374 25.4595 26.155 23.4572C31.6017 26.1295 38 22.1416 38 16.0627C38 12.2563 35.3773 8.94144 31.6869 8.05475Z" fill="#45B5E3"/>
<path d="M26.2734 25.9326C24.0226 25.9326 22.1914 27.7638 22.1914 30.0146C22.1914 32.2655 24.0226 34.0967 26.2734 34.0967C28.5243 34.0967 30.3555 32.2655 30.3555 30.0146C30.3555 27.7638 28.5243 25.9326 26.2734 25.9326Z" fill="#45B5E3"/>
<path d="M34.6602 30.3857C32.8186 30.3857 31.3203 31.884 31.3203 33.7256C31.3203 35.5672 32.8186 37.0654 34.6602 37.0654C36.5017 37.0654 38 35.5672 38 33.7256C38 31.884 36.5017 30.3857 34.6602 30.3857Z" fill="#45B5E3"/>
</svg>
