<svg width="44" height="50" viewBox="0 0 44 50" fill="none" xmlns="http://www.w3.org/2000/svg">
<path fill-rule="evenodd" clip-rule="evenodd" d="M12.5652 16.7777H32.578C38.4716 16.7777 43.25 21.4516 43.25 27.2165V39.5612C43.25 45.326 38.4716 50 32.578 50H11.4195C5.52839 50 0.75 45.326 0.75 39.5612V27.2165C0.75 22.4754 4.00164 18.517 8.42693 17.2448L8.15003 17.2771V13.4678C8.20084 6.04065 14.3764 0 21.9467 0C27.8657 0 33.0962 3.6552 35.0269 9.06968C35.2301 9.61634 35.1793 10.2127 34.9253 10.7345C34.6712 11.2563 34.2165 11.6539 33.6551 11.8303C32.512 12.2254 31.2418 11.6315 30.8099 10.4885C29.5143 6.80847 25.9604 4.34847 21.9975 4.34847C16.8126 4.34847 12.6236 8.4261 12.5956 13.4181V16.7727L12.5652 16.7777ZM21.9872 38.3212C23.232 38.3212 24.2227 37.3521 24.2227 36.1346V30.6182C24.2227 29.4255 23.232 28.4564 21.9872 28.4564C20.7679 28.4564 19.7771 29.4255 19.7771 30.6182V36.1346C19.7771 37.3521 20.7679 38.3212 21.9872 38.3212Z" fill="#45B5E3"/>
</svg>
