<svg width="38" height="38" viewBox="0 0 38 38" fill="none" xmlns="http://www.w3.org/2000/svg">
<path d="M19.0001 4.75C14.1282 4.75 10.1787 8.69949 10.1787 13.5714C10.1787 18.4434 14.1282 22.3929 19.0001 22.3929C23.8721 22.3929 27.8216 18.4434 27.8216 13.5714C27.8216 11.2318 26.8922 8.98808 25.2378 7.33374C23.5835 5.6794 21.3397 4.75 19.0001 4.75ZM15.2273 19.6175C15.0201 19.5962 14.8341 19.481 14.7229 19.3048C14.6116 19.1287 14.5875 18.9113 14.6573 18.715C15.6981 16.2501 17.4185 14.132 19.6176 12.6079C19.9198 12.3905 20.3406 12.4571 20.5609 12.7571C20.6674 12.9028 20.7116 13.0849 20.6835 13.2632C20.6555 13.4414 20.5577 13.6012 20.4116 13.7071C18.7178 14.9203 17.3249 16.5058 16.3401 18.3418C17.1657 18.3346 17.9852 18.1995 18.7694 17.9414C22.1148 16.8286 23.723 12.635 22.8409 9.22857C21.9586 9.7781 20.976 10.1471 19.9501 10.3143C18.4641 10.5654 17.2359 10.8368 16.2316 11.8546C15.3692 12.6936 14.8968 13.8548 14.9287 15.0575C14.9292 15.4194 14.6455 15.718 14.2841 15.7361C13.9093 15.7361 13.6055 15.4323 13.6055 15.0575C13.5557 13.4766 14.1681 11.9466 15.2951 10.8368C16.6048 9.54071 18.0841 9.20143 19.7466 8.92321C20.8727 8.7149 21.9319 8.23768 22.8341 7.53214C23.0034 7.4109 23.219 7.37412 23.419 7.43238C23.6189 7.49064 23.781 7.63749 23.8587 7.83071C25.8605 12.9268 22.7798 20.4386 15.2273 19.6175Z" fill="#45B5E3"/>
<path d="M15.4576 26.7825C14.4126 26.5111 12.8044 27.2236 11.5354 26.4908C11.4676 26.45 11.7729 25.6629 8.14258 36.2418L10.3887 34.6404C10.7402 34.3844 11.1931 34.3123 11.6067 34.4466C12.0204 34.5809 12.3446 34.9053 12.4787 35.319L13.2794 37.9993L16.8487 27.6104C16.4276 27.2684 15.959 26.9895 15.4576 26.7825Z" fill="#45B5E3"/>
<path d="M31.8116 12.0097C30.848 10.6526 30.7055 10.2047 30.8616 8.44723C31.0176 6.68973 30.9226 6.56759 29.3416 5.84152C27.7605 5.11545 27.4483 4.78973 26.7291 3.22223C26.0098 1.65473 25.8198 1.55295 24.1166 1.70902C22.4133 1.86509 21.9316 1.70902 20.5541 0.759018C19.1766 -0.190982 18.878 -0.252054 17.4462 0.759018C16.0144 1.77009 15.6073 1.8583 13.8837 1.70902C12.1601 1.55973 11.9973 1.64795 11.2712 3.22223C10.5451 4.79652 10.2126 5.12223 8.65871 5.84152C7.10478 6.5608 6.98263 6.74402 7.13871 8.44723C7.29478 10.1504 7.13871 10.6458 6.18871 12.0097C5.23871 13.3737 5.17763 13.6858 6.18871 15.1176C7.19978 16.5494 7.29478 16.9226 7.13871 18.6801C6.98263 20.4376 7.07763 20.5597 8.65871 21.2926C10.2398 22.0254 10.5451 22.3376 11.2712 23.9051C11.9973 25.4726 12.2144 25.5812 13.8837 25.4251C14.5217 25.3288 15.1716 25.3449 15.8041 25.4726C17.0458 25.7847 18.0908 27.1419 19.0001 27.1419C19.9094 27.1419 20.9273 25.8254 22.1962 25.4862C23.4651 25.1469 25.0326 25.7576 25.7858 25.3301C26.5391 24.9026 26.7833 23.2333 27.7198 22.2969C28.6562 21.3604 30.3119 21.1229 30.753 20.3629C31.1941 19.6029 30.5698 18.0558 30.9158 16.7733C31.2619 15.4908 32.5716 14.4729 32.5716 13.5704C32.4688 12.9895 32.2055 12.4489 31.8116 12.0097ZM19.0001 23.749C13.3787 23.749 8.82156 19.1919 8.82156 13.5704C8.82156 7.94898 13.3787 3.39187 19.0001 3.39187C24.6216 3.39187 29.1787 7.94898 29.1787 13.5704C29.1787 16.27 28.1063 18.8589 26.1975 20.7678C24.2886 22.6766 21.6997 23.749 19.0001 23.749Z" fill="#45B5E3"/>
<path d="M26.4648 26.4628C25.2095 27.1888 23.547 26.4628 22.5427 26.7613C22.0509 26.9638 21.5931 27.2407 21.1855 27.5824L24.7209 37.9985L25.5148 35.3521C25.641 34.9325 25.9619 34.5996 26.3766 34.4583C26.7913 34.3169 27.2487 34.3844 27.6048 34.6396L29.8577 36.2342C26.2273 25.6688 26.5327 26.4628 26.4648 26.4628Z" fill="#45B5E3"/>
</svg>
