<svg width="18" height="19" viewBox="0 0 18 19" fill="none" xmlns="http://www.w3.org/2000/svg">
<path d="M4.00001 6.34017H15.615L16.0317 4.6735H5.66668V3.00684H17.1C17.2267 3.00684 17.3517 3.03572 17.4655 3.09128C17.5794 3.14685 17.679 3.22763 17.757 3.32749C17.8349 3.42735 17.889 3.54367 17.9153 3.66759C17.9415 3.79152 17.9391 3.91979 17.9083 4.04267L15.825 12.376C15.7799 12.5562 15.6758 12.7162 15.5294 12.8305C15.3829 12.9448 15.2025 13.0068 15.0167 13.0068H3.16668C2.94567 13.0068 2.7337 12.919 2.57742 12.7628C2.42114 12.6065 2.33335 12.3945 2.33335 12.1735V2.1735H0.666679V0.506836H3.16668C3.38769 0.506836 3.59965 0.594633 3.75593 0.750914C3.91221 0.907194 4.00001 1.11916 4.00001 1.34017V6.34017ZM4.00001 18.0068C3.55799 18.0068 3.13406 17.8312 2.8215 17.5187C2.50894 17.2061 2.33335 16.7822 2.33335 16.3402C2.33335 15.8981 2.50894 15.4742 2.8215 15.1617C3.13406 14.8491 3.55799 14.6735 4.00001 14.6735C4.44204 14.6735 4.86596 14.8491 5.17852 15.1617C5.49108 15.4742 5.66668 15.8981 5.66668 16.3402C5.66668 16.7822 5.49108 17.2061 5.17852 17.5187C4.86596 17.8312 4.44204 18.0068 4.00001 18.0068ZM14 18.0068C13.558 18.0068 13.1341 17.8312 12.8215 17.5187C12.5089 17.2061 12.3333 16.7822 12.3333 16.3402C12.3333 15.8981 12.5089 15.4742 12.8215 15.1617C13.1341 14.8491 13.558 14.6735 14 14.6735C14.442 14.6735 14.866 14.8491 15.1785 15.1617C15.4911 15.4742 15.6667 15.8981 15.6667 16.3402C15.6667 16.7822 15.4911 17.2061 15.1785 17.5187C14.866 17.8312 14.442 18.0068 14 18.0068Z" fill="white"/>
</svg>
