<svg width="24" height="24" viewBox="0 0 24 24" fill="none" xmlns="http://www.w3.org/2000/svg">
<path d="M22.5 0H1.50014C0.671725 0 0.000152588 0.671573 0.000152588 1.49999V18.4999C0.000152588 19.3283 0.671725 19.9999 1.50014 19.9999H13.5V18.9999H1.50014C1.224 18.9999 1.00013 18.776 1.00013 18.4999V1.49999C1.00013 1.22385 1.224 0.999977 1.50014 0.999977H22.5C22.7761 0.999977 23 1.22385 23 1.49999V18.4999C23 18.776 22.7761 18.9999 22.5 18.9999H21.5V19.9999H22.5C23.3284 19.9999 24 19.3283 24 18.4999V1.49999C24 0.671573 23.3284 0 22.5 0Z" fill="#C8C8C8"/>
<path d="M21 5.00001C19.8954 5.00001 19 4.10457 19 3.00001C19 2.72387 18.7761 2.5 18.5 2.5H5.50011C5.22398 2.5 5.0001 2.72387 5.0001 3.00001C5.0001 4.10457 4.10466 5.00001 3.0001 5.00001C2.72396 5.00001 2.50009 5.22388 2.50009 5.50002V14.5C2.50009 14.7761 2.72396 15 3.0001 15C4.10466 15 5.0001 15.8954 5.0001 17C5.0001 17.2761 5.22398 17.5 5.50011 17.5H12.0001V16.4999H5.9586C5.74353 15.2419 4.75814 14.2565 3.50011 14.0414V5.9585C4.75814 5.74344 5.74353 4.75804 5.9586 3.50002H18.0415C18.2566 4.75804 19.242 5.74344 20.5 5.9585V9.99999H21.5V5.50002C21.5 5.22384 21.2761 5.00001 21 5.00001Z" fill="#C8C8C8"/>
<path d="M17.5001 10.5C15.0148 10.5 13.0001 12.5147 13.0001 15C13.0001 17.4852 15.0148 19.4999 17.5001 19.4999C19.9841 19.4969 21.997 17.484 22 15C22 12.5147 19.9853 10.5 17.5001 10.5ZM17.5001 18.5C15.5671 18.5 14.0001 16.933 14.0001 15C14.0001 13.067 15.567 11.5 17.5001 11.5C19.4321 11.5022 20.9978 13.0679 21 15C21 16.9329 19.433 18.5 17.5001 18.5Z" fill="#C8C8C8"/>
<path d="M19.5 18V22.4595L17.8125 21.1095C17.6298 20.9632 17.3702 20.9632 17.1875 21.1095L15.5 22.4595V18H14.5001V23.5C14.5 23.6136 14.5387 23.7239 14.6097 23.8127C14.7823 24.0282 15.097 24.0631 15.3125 23.8905L17.5 22.1405L19.6875 23.8905C19.7762 23.9614 19.8865 24 20 24C20.2762 24 20.5001 23.7761 20.5001 23.5V18H19.5Z" fill="#C8C8C8"/>
<path d="M17 5H7.00013C6.72399 5 6.50012 5.22387 6.50012 5.50001V7.49996C6.50012 7.7761 6.72399 7.99997 7.00013 7.99997H17C17.2762 7.99997 17.5001 7.7761 17.5001 7.49996V5.49996C17.5001 5.22383 17.2762 5 17 5ZM16.5 6.99995H7.5001V5.99997H16.5V6.99995Z" fill="#C8C8C8"/>
<path d="M7.00007 9.5H6.00009V10.5H7.00007V9.5Z" fill="#C8C8C8"/>
<path d="M9.00007 9.5H8.00009V10.5H9.00007V9.5Z" fill="#C8C8C8"/>
<path d="M12.0001 11.5H6.00009V12.5H12.0001V11.5Z" fill="#C8C8C8"/>
<path d="M17.5001 12.5C16.1194 12.5 15.0001 13.6193 15.0001 15C15.0001 16.3807 16.1194 17.4999 17.5001 17.4999C18.8801 17.4983 19.9984 16.38 20 15C20 13.6193 18.8807 12.5 17.5001 12.5ZM17.5001 16.5C16.6716 16.5 16.0001 15.8284 16.0001 15C16.0001 14.1716 16.6716 13.5 17.5001 13.5C18.3285 13.5 19 14.1716 19 15C19 15.8284 18.3285 16.5 17.5001 16.5Z" fill="#C8C8C8"/>
<path d="M3.50013 16.5H2.50015V17.5H3.50013V16.5Z" fill="#C8C8C8"/>
<path d="M21.5 2.5H20.5V3.49998H21.5V2.5Z" fill="#C8C8C8"/>
<path d="M3.50013 2.5H2.50015V3.49998H3.50013V2.5Z" fill="#C8C8C8"/>
</svg>
