<svg width="160" height="172" viewBox="0 0 160 172" fill="none" xmlns="http://www.w3.org/2000/svg">
<path d="M71.3577 171.352C57.1648 168.99 43.8 162.982 32.5295 153.897C21.2589 144.812 12.4559 132.952 6.95445 119.439C1.45299 105.925 -0.564713 91.2078 1.09251 76.6798C2.74973 62.1518 8.02698 48.2946 16.4243 36.4212C24.8216 24.5479 36.0608 15.0514 49.0772 8.83165C62.0936 2.61189 76.4559 -0.125214 90.8036 0.879684C105.151 1.88458 119.009 6.59819 131.064 14.5739C143.119 22.5496 152.972 33.5234 159.689 46.4554L159.113 46.7647C152.448 33.9324 142.671 23.0433 130.709 15.1291C118.747 7.21486 104.996 2.5376 90.7589 1.54045C76.5218 0.543304 62.2702 3.25929 49.3542 9.43109C36.4382 15.6029 25.2856 25.0261 16.953 36.808C8.62047 48.5898 3.38391 62.3401 1.73947 76.7561C0.0950317 91.1721 2.09717 105.776 7.5562 119.185C13.0152 132.594 21.7504 144.363 32.934 153.378C44.1177 162.393 57.3794 168.355 71.4629 170.699L71.3577 171.352Z" fill="#1F365D"/>
</svg>
