<svg width="160" height="172" viewBox="0 0 160 172" fill="none" xmlns="http://www.w3.org/2000/svg">
<path d="M71.3577 171.353C57.1648 168.991 43.8 162.983 32.5295 153.898C21.2589 144.813 12.4559 132.952 6.95445 119.439C1.45299 105.926 -0.564713 91.2082 1.09251 76.6803C2.74973 62.1523 8.02698 48.2951 16.4243 36.4217C24.8216 24.5483 36.0608 15.0519 49.0772 8.83214C62.0936 2.61238 76.4559 -0.124725 90.8036 0.880173C105.151 1.88507 119.009 6.59868 131.064 14.5744C143.119 22.5501 152.972 33.5238 159.689 46.4559L159.113 46.7652C152.448 33.9329 142.671 23.0438 130.709 15.1296C118.747 7.21535 104.996 2.53809 90.7589 1.54094C76.5218 0.543793 62.2702 3.25978 49.3542 9.43158C36.4382 15.6034 25.2856 25.0266 16.953 36.8085C8.62047 48.5903 3.38391 62.3406 1.73947 76.7566C0.0950317 91.1726 2.09717 105.777 7.5562 119.186C13.0152 132.594 21.7504 144.364 32.934 153.379C44.1177 162.394 57.3794 168.355 71.4629 170.699L71.3577 171.353Z" fill="#1F365D"/>
</svg>
