<svg width="89" height="91" viewBox="0 0 89 91" fill="none" xmlns="http://www.w3.org/2000/svg">
<path d="M13.2281 13.6881C20.6325 6.10313 30.4336 1.47012 40.872 0.620689C51.3104 -0.228745 61.7026 2.76104 70.1831 9.05334C78.6636 15.3456 84.6769 24.5284 87.1438 34.9532C89.6106 45.378 88.3693 56.3622 83.6427 65.934C78.9162 75.5058 71.0139 83.0383 61.3544 87.1795C51.6949 91.3206 40.9107 91.7992 30.9378 88.5293C20.9649 85.2593 12.4563 78.4551 6.93937 69.3379C1.42247 60.2206 -0.74144 49.3876 0.836082 38.7833L1.17165 38.8357C-0.393707 49.3582 1.75352 60.1077 7.22788 69.1547C12.7022 78.2016 21.1452 84.9534 31.0413 88.1981C40.9373 91.4428 51.6383 90.9679 61.2233 86.8587C70.8084 82.7495 78.6497 75.275 83.3398 65.777C88.03 56.279 89.2617 45.3796 86.8139 35.0351C84.3661 24.6907 78.3991 15.5787 69.984 9.33495C61.5689 3.09117 51.2568 0.124443 40.8989 0.967323C30.5409 1.8102 20.8154 6.4075 13.4682 13.9339L13.2281 13.6881Z" fill="#1F365D"/>
</svg>
