<svg width="89" height="91" viewBox="0 0 89 91" fill="none" xmlns="http://www.w3.org/2000/svg">
<path d="M13.2281 13.69C20.6325 6.10509 30.4336 1.47207 40.872 0.622643C51.3104 -0.226791 61.7026 2.76299 70.1831 9.05529C78.6636 15.3476 84.6769 24.5303 87.1438 34.9552C89.6106 45.38 88.3693 56.3642 83.6427 65.9359C78.9162 75.5077 71.0139 83.0403 61.3544 87.1814C51.6949 91.3226 40.9107 91.8011 30.9378 88.5312C20.9649 85.2613 12.4563 78.457 6.93937 69.3398C1.42247 60.2226 -0.74144 49.3895 0.836082 38.7852L1.17165 38.8376C-0.393707 49.3602 1.75352 60.1097 7.22788 69.1566C12.7022 78.2035 21.1452 84.9553 31.0413 88.2C40.9373 91.4448 51.6383 90.9699 61.2233 86.8607C70.8084 82.7514 78.6497 75.277 83.3398 65.779C88.03 56.281 89.2617 45.3815 86.8139 35.0371C84.3661 24.6926 78.3991 15.5807 69.984 9.33691C61.5689 3.09312 51.2568 0.126396 40.8989 0.969276C30.5409 1.81216 20.8154 6.40945 13.4682 13.9359L13.2281 13.69Z" fill="#1F365D"/>
</svg>
