<svg width="26" height="26" viewBox="0 0 26 26" fill="none" xmlns="http://www.w3.org/2000/svg">
<path d="M12.9993 14.445L3.00777 21.1064C2.9262 21.1607 2.83143 21.1918 2.73356 21.1965C2.6357 21.2012 2.53839 21.1792 2.45202 21.133C2.36564 21.0867 2.29342 21.0179 2.24306 20.9339C2.19269 20.8499 2.16607 20.7537 2.16602 20.6557V5.34607C2.16607 5.2481 2.19269 5.15197 2.24306 5.06792C2.29342 4.98388 2.36564 4.91507 2.45202 4.86882C2.53839 4.82258 2.6357 4.80062 2.73356 4.80531C2.83143 4.80999 2.9262 4.84113 3.00777 4.89541L12.9993 11.5568V5.34607C12.9994 5.2481 13.026 5.15197 13.0764 5.06792C13.1268 4.98388 13.199 4.91507 13.2853 4.86882C13.3717 4.82258 13.469 4.80062 13.5669 4.80531C13.6648 4.80999 13.7595 4.84113 13.8411 4.89541L25.3233 12.5502C25.3975 12.5997 25.4584 12.6667 25.5004 12.7453C25.5425 12.824 25.5645 12.9117 25.5645 13.0009C25.5645 13.0901 25.5425 13.1779 25.5004 13.2565C25.4584 13.3351 25.3975 13.4021 25.3233 13.4516L13.8411 21.1064C13.7595 21.1607 13.6648 21.1918 13.5669 21.1965C13.469 21.2012 13.3717 21.1792 13.2853 21.133C13.199 21.0867 13.1268 21.0179 13.0764 20.9339C13.026 20.8499 12.9994 20.7537 12.9993 20.6557V14.445Z" fill="#E0E0E0"/>
</svg>
