<svg width="26" height="26" viewBox="0 0 26 26" fill="none" xmlns="http://www.w3.org/2000/svg">
<path d="M13.0007 11.5568L22.9923 4.89541C23.0739 4.84113 23.1686 4.80999 23.2665 4.80531C23.3644 4.80062 23.4617 4.82258 23.548 4.86882C23.6344 4.91507 23.7066 4.98388 23.757 5.06792C23.8074 5.15197 23.834 5.2481 23.834 5.34607V20.6557C23.834 20.7537 23.8074 20.8499 23.757 20.9339C23.7066 21.0179 23.6344 21.0867 23.548 21.133C23.4617 21.1792 23.3644 21.2012 23.2665 21.1965C23.1686 21.1918 23.0739 21.1607 22.9923 21.1064L13.0007 14.445V20.6557C13.0007 20.7537 12.974 20.8499 12.9237 20.9339C12.8733 21.0179 12.8011 21.0867 12.7147 21.133C12.6283 21.1792 12.531 21.2012 12.4332 21.1965C12.3353 21.1918 12.2405 21.1607 12.159 21.1064L0.67671 13.4516C0.602525 13.4021 0.541698 13.3351 0.499628 13.2565C0.457558 13.1779 0.435547 13.0901 0.435547 13.0009C0.435547 12.9117 0.457558 12.824 0.499628 12.7453C0.541698 12.6667 0.602525 12.5997 0.67671 12.5502L12.159 4.89541C12.2405 4.84113 12.3353 4.80999 12.4332 4.80531C12.531 4.80062 12.6283 4.82258 12.7147 4.86882C12.8011 4.91507 12.8733 4.98388 12.9237 5.06792C12.974 5.15197 13.0007 5.2481 13.0007 5.34607V11.5568Z" fill="#E0E0E0"/>
</svg>
