<svg width="20" height="20" viewBox="0 0 20 20" fill="none" xmlns="http://www.w3.org/2000/svg">
<path d="M9.99909 2.50065C9.33605 2.50065 8.70016 2.76404 8.23132 3.23288C7.76248 3.70172 7.49909 4.33761 7.49909 5.00065V8.33398C7.49909 8.99702 7.76248 9.63291 8.23132 10.1018C8.70016 10.5706 9.33605 10.834 9.99909 10.834C10.6621 10.834 11.298 10.5706 11.7669 10.1018C12.2357 9.63291 12.4991 8.99702 12.4991 8.33398V5.00065C12.4991 4.33761 12.2357 3.70172 11.7669 3.23288C11.298 2.76404 10.6621 2.50065 9.99909 2.50065ZM9.99909 0.833984C10.5463 0.833984 11.0881 0.941758 11.5936 1.15115C12.0991 1.36055 12.5585 1.66746 12.9454 2.05437C13.3323 2.44128 13.6392 2.90061 13.8486 3.40614C14.058 3.91166 14.1658 4.45348 14.1658 5.00065V8.33398C14.1658 9.43905 13.7268 10.4989 12.9454 11.2803C12.164 12.0617 11.1042 12.5006 9.99909 12.5007C8.89402 12.5006 7.83421 12.0617 7.05281 11.2803C6.27141 10.4989 5.83242 9.43905 5.83242 8.33398V5.00065C5.83242 3.89558 6.27141 2.83577 7.05281 2.05437C7.83421 1.27297 8.89402 0.833984 9.99909 0.833984ZM2.54492 9.16732H4.22409C4.426 10.5546 5.12065 11.8229 6.18095 12.74C7.24125 13.6572 8.59632 14.1619 9.99826 14.1619C11.4002 14.1619 12.7553 13.6572 13.8156 12.74C14.8759 11.8229 15.5705 10.5546 15.7724 9.16732H17.4524C17.2629 10.8579 16.5046 12.4339 15.3018 13.6369C14.0989 14.8399 12.523 15.5985 10.8324 15.7881V19.1673H9.16576V15.7881C7.47504 15.5986 5.89891 14.8402 4.6959 13.6372C3.49289 12.4342 2.73443 10.858 2.54492 9.16732Z" fill="white"/>
</svg>
