<svg width="24" height="24" viewBox="0 0 24 24" fill="none" xmlns="http://www.w3.org/2000/svg">
<path d="M17.8826 19.2966C16.1239 20.4121 14.0834 21.0029 12.0006 20.9996C6.60864 20.9996 2.12264 17.1196 1.18164 11.9996C1.61167 9.6703 2.78327 7.54247 4.52164 5.93358L1.39264 2.80758L2.80764 1.39258L22.6066 21.1926L21.1916 22.6066L17.8816 19.2966H17.8826ZM5.93564 7.34958C4.57665 8.58517 3.62996 10.2084 3.22364 11.9996C3.53593 13.366 4.1629 14.6407 5.05464 15.7222C5.94638 16.8036 7.07827 17.662 8.36019 18.2289C9.64212 18.7958 11.0387 19.0556 12.4387 18.9877C13.8388 18.9198 15.2036 18.5259 16.4246 17.8376L14.3966 15.8096C13.5333 16.3534 12.5108 16.5877 11.4969 16.474C10.4829 16.3604 9.53768 15.9055 8.81621 15.184C8.09474 14.4625 7.63987 13.5173 7.5262 12.5033C7.41254 11.4894 7.64682 10.4669 8.19064 9.60358L5.93564 7.34958ZM12.9146 14.3276L9.67264 11.0856C9.49471 11.5385 9.45283 12.0335 9.55215 12.5099C9.65146 12.9863 9.88766 13.4234 10.2318 13.7675C10.5759 14.1116 11.0129 14.3478 11.4893 14.4471C11.9657 14.5464 12.4607 14.5045 12.9136 14.3266L12.9146 14.3276ZM20.8076 16.5916L19.3766 15.1616C20.0451 14.2089 20.521 13.1348 20.7776 11.9996C20.5059 10.8093 19.9949 9.68672 19.2758 8.70007C18.5567 7.71342 17.6444 6.88331 16.5945 6.26018C15.5446 5.63706 14.3789 5.23395 13.1684 5.07534C11.9578 4.91674 10.7276 5.00596 9.55264 5.33758L7.97464 3.75958C9.22164 3.26958 10.5806 2.99958 12.0006 2.99958C17.3926 2.99958 21.8786 6.87958 22.8196 11.9996C22.5132 13.6653 21.8245 15.2372 20.8076 16.5916ZM11.7236 7.50758C12.3602 7.46824 12.9978 7.56464 13.5942 7.7904C14.1906 8.01615 14.7323 8.36609 15.1832 8.81703C15.6341 9.26797 15.9841 9.8096 16.2098 10.406C16.4356 11.0025 16.532 11.6401 16.4926 12.2766L11.7226 7.50758H11.7236Z" fill="white"/>
</svg>
