<svg width="28" height="28" viewBox="0 0 28 28" fill="none" xmlns="http://www.w3.org/2000/svg">
<path d="M15.3066 19.8603L10.4077 17.1887C9.76817 17.8724 8.93773 18.348 8.02433 18.5535C7.11094 18.7591 6.15682 18.6852 5.28599 18.3414C4.41516 17.9976 3.66787 17.3998 3.14124 16.6257C2.61462 15.8516 2.33301 14.937 2.33301 14.0007C2.33301 13.0645 2.61462 12.1499 3.14124 11.3758C3.66787 10.6017 4.41516 10.0039 5.28599 9.66011C6.15682 9.3163 7.11094 9.24238 8.02433 9.44795C8.93773 9.65352 9.76817 10.1291 10.4077 10.8128L15.3077 8.14116C15.0296 7.03991 15.1626 5.87501 15.6818 4.86481C16.2011 3.85461 17.0709 3.06847 18.1284 2.65374C19.1858 2.23901 20.3582 2.22418 21.4257 2.61201C22.4933 2.99985 23.3828 3.76372 23.9274 4.76046C24.4721 5.7572 24.6345 6.91836 24.3843 8.02629C24.1341 9.13422 23.4884 10.1129 22.5682 10.7788C21.648 11.4447 20.5166 11.7521 19.3859 11.6435C18.2553 11.5348 17.2031 11.0176 16.4266 10.1887L11.5266 12.8603C11.7146 13.6086 11.7146 14.3917 11.5266 15.14L16.4254 17.8117C17.2019 16.9827 18.2541 16.4655 19.3848 16.3568C20.5154 16.2482 21.6469 16.5556 22.567 17.2215C23.4872 17.8874 24.1329 18.8661 24.3831 19.974C24.6334 21.082 24.4709 22.2431 23.9263 23.2398C23.3816 24.2366 22.4921 25.0005 21.4246 25.3883C20.357 25.7761 19.1846 25.7613 18.1272 25.3466C17.0698 24.9318 16.1999 24.1457 15.6807 23.1355C15.1614 22.1253 15.0284 20.9604 15.3066 19.8592V19.8603ZM6.99991 16.3335C7.61875 16.3335 8.21224 16.0877 8.64983 15.6501C9.08741 15.2125 9.33325 14.619 9.33325 14.0002C9.33325 13.3813 9.08741 12.7878 8.64983 12.3502C8.21224 11.9127 7.61875 11.6668 6.99991 11.6668C6.38108 11.6668 5.78758 11.9127 5.35 12.3502C4.91241 12.7878 4.66658 13.3813 4.66658 14.0002C4.66658 14.619 4.91241 15.2125 5.35 15.6501C5.78758 16.0877 6.38108 16.3335 6.99991 16.3335ZM19.8332 9.33349C20.4521 9.33349 21.0456 9.08766 21.4832 8.65007C21.9207 8.21249 22.1666 7.61899 22.1666 7.00016C22.1666 6.38132 21.9207 5.78782 21.4832 5.35024C21.0456 4.91266 20.4521 4.66682 19.8332 4.66682C19.2144 4.66682 18.6209 4.91266 18.1833 5.35024C17.7457 5.78782 17.4999 6.38132 17.4999 7.00016C17.4999 7.61899 17.7457 8.21249 18.1833 8.65007C18.6209 9.08766 19.2144 9.33349 19.8332 9.33349ZM19.8332 23.3335C20.4521 23.3335 21.0456 23.0877 21.4832 22.6501C21.9207 22.2125 22.1666 21.619 22.1666 21.0002C22.1666 20.3813 21.9207 19.7878 21.4832 19.3502C21.0456 18.9127 20.4521 18.6668 19.8332 18.6668C19.2144 18.6668 18.6209 18.9127 18.1833 19.3502C17.7457 19.7878 17.4999 20.3813 17.4999 21.0002C17.4999 21.619 17.7457 22.2125 18.1833 22.6501C18.6209 23.0877 19.2144 23.3335 19.8332 23.3335Z" fill="#DBDBDB"/>
</svg>
