<svg width="22" height="22" viewBox="0 0 22 22" fill="none" xmlns="http://www.w3.org/2000/svg">
<path d="M3.66732 7.33398H18.334V19.2507C18.334 19.4938 18.2374 19.7269 18.0655 19.8988C17.8936 20.0707 17.6604 20.1673 17.4173 20.1673H4.58398C4.34087 20.1673 4.10771 20.0707 3.9358 19.8988C3.7639 19.7269 3.66732 19.4938 3.66732 19.2507V7.33398ZM5.50065 9.16732V18.334H16.5007V9.16732H5.50065ZM8.25065 11.0007H10.084V16.5007H8.25065V11.0007ZM11.9173 11.0007H13.7507V16.5007H11.9173V11.0007ZM6.41732 4.58398V2.75065C6.41732 2.50754 6.5139 2.27438 6.6858 2.10247C6.85771 1.93056 7.09087 1.83398 7.33398 1.83398H14.6673C14.9104 1.83398 15.1436 1.93056 15.3155 2.10247C15.4874 2.27438 15.584 2.50754 15.584 2.75065V4.58398H20.1673V6.41732H1.83398V4.58398H6.41732ZM8.25065 3.66732V4.58398H13.7507V3.66732H8.25065Z" fill="#45B5E3"/>
</svg>
