<svg width="26" height="26" viewBox="0 0 26 26" fill="none" xmlns="http://www.w3.org/2000/svg">
<rect x="0.5" y="0.5" width="25" height="25" rx="12.5" fill="white"/>
<g clip-path="url(#clip0_746_10699)">
<path d="M9.6653 10.5156H7.1595C6.90572 10.5156 6.69922 10.7221 6.69922 10.9759V19.0259C6.69922 19.2797 6.9057 19.4862 7.1595 19.4862H9.6653C9.91911 19.4862 10.1256 19.2797 10.1256 19.0259V10.9759C10.1256 10.7221 9.91911 10.5156 9.6653 10.5156ZM9.60769 18.9683H7.21716V11.0335H9.60769V18.9683Z" fill="#1F365D"/>
<path d="M9.7633 7.07381C9.40197 6.71263 8.92224 6.51367 8.41247 6.51367C7.35792 6.51367 6.5 7.37081 6.5 8.42434C6.5 9.47828 7.35792 10.3357 8.41247 10.3357C9.46629 10.3357 10.3236 9.47828 10.3236 8.42437C10.3237 7.9147 10.1247 7.43507 9.7633 7.07381ZM8.41247 9.81778C7.64354 9.81778 7.01792 9.19266 7.01792 8.42434C7.01792 7.65638 7.64352 7.03162 8.41247 7.03162C8.78394 7.03162 9.13364 7.1767 9.39712 7.44013C9.6606 7.70353 9.80568 8.05308 9.80568 8.42434C9.80571 9.19269 9.18072 9.81778 8.41247 9.81778Z" fill="#1F365D"/>
<path d="M18.9193 11.7134C18.3726 10.7864 17.4027 10.3164 16.0364 10.3164C15.1562 10.3164 14.5166 10.6168 14.0911 10.9267C14.066 10.6964 13.8703 10.5165 13.6335 10.5165H11.2337C10.9799 10.5165 10.7734 10.7229 10.7734 10.9767V19.0268C10.7734 19.2806 10.9799 19.4871 11.2337 19.4871H13.734C13.9878 19.4871 14.1943 19.2806 14.1943 19.0268V15.0439C14.1943 13.6938 14.5602 13.4379 15.2355 13.4379C15.8957 13.4379 16.0765 13.7979 16.0765 15.113V19.0269C16.0765 19.2807 16.2829 19.4872 16.5368 19.4872H19.038C19.2918 19.4872 19.4983 19.2807 19.4983 19.0269V14.6113C19.4983 13.7191 19.4325 12.5835 18.9193 11.7134ZM18.9803 18.9692H16.5944V15.113C16.5944 14.5884 16.5798 14.042 16.4058 13.6335C16.2042 13.16 15.8104 12.9199 15.2355 12.9199C13.8616 12.9199 13.6764 13.9936 13.6764 15.0439V18.9692H11.2914V11.0344H13.5758V11.4996C13.5758 11.6064 13.6413 11.7022 13.7408 11.7409C13.8403 11.7797 13.9534 11.7534 14.0256 11.6747C14.3137 11.3609 14.958 10.8343 16.0364 10.8343C18.6237 10.8343 18.9804 12.6496 18.9804 14.6113V18.9692H18.9803Z" fill="#1F365D"/>
<path d="M7.74333 15.7461C7.60031 15.7461 7.48438 15.862 7.48438 16.0051V18.4134C7.48438 18.5565 7.60031 18.6724 7.74333 18.6724C7.88636 18.6724 8.00229 18.5565 8.00229 18.4134V16.0051C8.00229 15.862 7.88636 15.7461 7.74333 15.7461Z" fill="#1F365D"/>
<path d="M7.74333 14.6582C7.60031 14.6582 7.48438 14.7741 7.48438 14.9172V15.1502C7.48438 15.2932 7.60031 15.4092 7.74333 15.4092C7.88636 15.4092 8.00229 15.2932 8.00229 15.1502V14.9172C8.00229 14.7741 7.88636 14.6582 7.74333 14.6582Z" fill="#1F365D"/>
</g>
<rect x="0.5" y="0.5" width="25" height="25" rx="12.5" stroke="#45B5E3"/>
<defs>
<clipPath id="clip0_746_10699">
<rect width="13" height="13" fill="white" transform="translate(6.5 6.5)"/>
</clipPath>
</defs>
</svg>
