<svg width="22" height="22" viewBox="0 0 22 22" fill="none" xmlns="http://www.w3.org/2000/svg">
<path d="M18.3346 20.167H16.5013V18.3337C16.5013 17.6043 16.2116 16.9048 15.6958 16.3891C15.1801 15.8734 14.4806 15.5837 13.7513 15.5837H8.2513C7.52196 15.5837 6.82248 15.8734 6.30676 16.3891C5.79103 16.9048 5.5013 17.6043 5.5013 18.3337V20.167H3.66797V18.3337C3.66797 17.1181 4.15085 15.9523 5.0104 15.0928C5.86994 14.2332 7.03573 13.7503 8.2513 13.7503H13.7513C14.9669 13.7503 16.1327 14.2332 16.9922 15.0928C17.8517 15.9523 18.3346 17.1181 18.3346 18.3337V20.167ZM11.0013 11.917C10.279 11.917 9.56383 11.7747 8.89654 11.4983C8.22925 11.2219 7.62294 10.8168 7.11221 10.3061C6.60149 9.79536 6.19637 9.18904 5.91996 8.52175C5.64356 7.85446 5.5013 7.13926 5.5013 6.41699C5.5013 5.69472 5.64356 4.97952 5.91996 4.31223C6.19637 3.64494 6.60149 3.03863 7.11221 2.5279C7.62294 2.01718 8.22925 1.61206 8.89654 1.33565C9.56383 1.05925 10.279 0.916992 11.0013 0.916992C12.46 0.916992 13.8589 1.49645 14.8904 2.5279C15.9218 3.55936 16.5013 4.9583 16.5013 6.41699C16.5013 7.87568 15.9218 9.27463 14.8904 10.3061C13.8589 11.3375 12.46 11.917 11.0013 11.917ZM11.0013 10.0837C11.9738 10.0837 12.9064 9.69735 13.594 9.00972C14.2817 8.32208 14.668 7.38945 14.668 6.41699C14.668 5.44453 14.2817 4.5119 13.594 3.82427C12.9064 3.13663 11.9738 2.75033 11.0013 2.75033C10.0288 2.75033 9.09621 3.13663 8.40858 3.82427C7.72094 4.5119 7.33464 5.44453 7.33464 6.41699C7.33464 7.38945 7.72094 8.32208 8.40858 9.00972C9.09621 9.69735 10.0288 10.0837 11.0013 10.0837Z" fill="#BEBEBE"/>
</svg>
