<svg width="28" height="28" viewBox="0 0 28 28" fill="none" xmlns="http://www.w3.org/2000/svg">
<path d="M3.5 21.583V5.83301C3.5 4.90475 3.86875 4.01451 4.52513 3.35813C5.1815 2.70176 6.07174 2.33301 7 2.33301H23.3333C23.6428 2.33301 23.9395 2.45592 24.1583 2.67472C24.3771 2.89351 24.5 3.19026 24.5 3.49967V24.4997C24.5 24.8091 24.3771 25.1058 24.1583 25.3246C23.9395 25.5434 23.6428 25.6663 23.3333 25.6663H7.58333C6.50037 25.6663 5.46175 25.2361 4.69598 24.4704C3.93021 23.7046 3.5 22.666 3.5 21.583ZM22.1667 23.333V19.833H7.58333C7.1192 19.833 6.67408 20.0174 6.3459 20.3456C6.01771 20.6738 5.83333 21.1189 5.83333 21.583C5.83333 22.0471 6.01771 22.4923 6.3459 22.8204C6.67408 23.1486 7.1192 23.333 7.58333 23.333H22.1667ZM5.83333 17.8928C6.38014 17.6332 6.97801 17.4989 7.58333 17.4997H22.1667V4.66634H7C6.69058 4.66634 6.39383 4.78926 6.17504 5.00805C5.95625 5.22684 5.83333 5.52359 5.83333 5.83301V17.8928Z" fill="#26AB5B"/>
</svg>
