<svg width="22" height="22" viewBox="0 0 22 22" fill="none" xmlns="http://www.w3.org/2000/svg">
<path d="M5.5 7.33366V6.41699C5.5 4.9583 6.07946 3.55936 7.11091 2.5279C8.14236 1.49645 9.54131 0.916992 11 0.916992C12.4587 0.916992 13.8576 1.49645 14.8891 2.5279C15.9205 3.55936 16.5 4.9583 16.5 6.41699V7.33366H18.3333C18.5764 7.33366 18.8096 7.43024 18.9815 7.60215C19.1534 7.77405 19.25 8.00721 19.25 8.25033V19.2503C19.25 19.4934 19.1534 19.7266 18.9815 19.8985C18.8096 20.0704 18.5764 20.167 18.3333 20.167H3.66667C3.42355 20.167 3.19039 20.0704 3.01849 19.8985C2.84658 19.7266 2.75 19.4934 2.75 19.2503V8.25033C2.75 8.00721 2.84658 7.77405 3.01849 7.60215C3.19039 7.43024 3.42355 7.33366 3.66667 7.33366H5.5ZM17.4167 9.16699H4.58333V18.3337H17.4167V9.16699ZM10.0833 14.4213C9.73382 14.2195 9.46066 13.9081 9.30622 13.5352C9.15178 13.1623 9.12468 12.7489 9.22914 12.3591C9.33359 11.9693 9.56376 11.6248 9.88394 11.3791C10.2041 11.1334 10.5964 11.0003 11 11.0003C11.4036 11.0003 11.7959 11.1334 12.1161 11.3791C12.4362 11.6248 12.6664 11.9693 12.7709 12.3591C12.8753 12.7489 12.8482 13.1623 12.6938 13.5352C12.5393 13.9081 12.2662 14.2195 11.9167 14.4213V16.5003H10.0833V14.4213ZM7.33333 7.33366H14.6667V6.41699C14.6667 5.44453 14.2804 4.5119 13.5927 3.82427C12.9051 3.13663 11.9725 2.75033 11 2.75033C10.0275 2.75033 9.09491 3.13663 8.40728 3.82427C7.71964 4.5119 7.33333 5.44453 7.33333 6.41699V7.33366Z" fill="#BEBEBE"/>
</svg>
