<svg width="60" height="60" viewBox="0 0 60 60" fill="none" xmlns="http://www.w3.org/2000/svg">
<path d="M50 55H16.25C13.9294 55 11.7038 54.0781 10.0628 52.4372C8.42187 50.7962 7.5 48.5706 7.5 46.25V12.5C7.5 10.5109 8.29018 8.60322 9.6967 7.1967C11.1032 5.79018 13.0109 5 15 5H50C50.663 5 51.2989 5.26339 51.7678 5.73223C52.2366 6.20107 52.5 6.83696 52.5 7.5V52.5C52.5 53.163 52.2366 53.7989 51.7678 54.2678C51.2989 54.7366 50.663 55 50 55ZM47.5 50V42.5H16.25C15.2554 42.5 14.3016 42.8951 13.5983 43.5984C12.8951 44.3016 12.5 45.2554 12.5 46.25C12.5 47.2446 12.8951 48.1984 13.5983 48.9016C14.3016 49.6049 15.2554 50 16.25 50H47.5Z" fill="#45B5E3"/>
<path d="M27.4168 29.8026L36.9918 20.2266L38.4657 21.6995L27.4168 32.7484L20.7876 26.1193L22.2605 24.6464L27.4168 29.8026Z" fill="white"/>
</svg>
