<svg width="30" height="30" viewBox="0 0 30 30" fill="none" xmlns="http://www.w3.org/2000/svg">
<path d="M21.25 7.5H27.5V10H25V26.25C25 26.5815 24.8683 26.8995 24.6339 27.1339C24.3995 27.3683 24.0815 27.5 23.75 27.5H6.25C5.91848 27.5 5.60054 27.3683 5.36612 27.1339C5.1317 26.8995 5 26.5815 5 26.25V10H2.5V7.5H8.75V3.75C8.75 3.41848 8.8817 3.10054 9.11612 2.86612C9.35054 2.6317 9.66848 2.5 10 2.5H20C20.3315 2.5 20.6495 2.6317 20.8839 2.86612C21.1183 3.10054 21.25 3.41848 21.25 3.75V7.5ZM22.5 10H7.5V25H22.5V10ZM11.25 13.75H13.75V21.25H11.25V13.75ZM16.25 13.75H18.75V21.25H16.25V13.75ZM11.25 5V7.5H18.75V5H11.25Z" fill="#BEBEBE"/>
</svg>
