<svg width="26" height="26" viewBox="0 0 26 26" fill="none" xmlns="http://www.w3.org/2000/svg">
<path d="M20.99 13.4516L9.50777 21.1064C9.4262 21.1607 9.33143 21.1918 9.23356 21.1965C9.1357 21.2012 9.03839 21.1792 8.95201 21.133C8.86564 21.0867 8.79342 21.0179 8.74306 20.9339C8.69269 20.8498 8.66607 20.7537 8.66602 20.6557V5.34607C8.66607 5.2481 8.69269 5.15197 8.74306 5.06792C8.79342 4.98388 8.86564 4.91507 8.95201 4.86882C9.03839 4.82258 9.1357 4.80062 9.23356 4.80531C9.33143 4.80999 9.4262 4.84113 9.50777 4.89541L20.99 12.5502C21.0642 12.5997 21.125 12.6667 21.1671 12.7453C21.2092 12.824 21.2312 12.9117 21.2312 13.0009C21.2312 13.0901 21.2092 13.1779 21.1671 13.2565C21.125 13.3351 21.0642 13.4021 20.99 13.4516Z" fill="white"/>
</svg>
