<svg width="23" height="23" viewBox="0 0 23 23" fill="none" xmlns="http://www.w3.org/2000/svg">
<path d="M5.55891 9.15973H18.3819L18.8419 7.31973H7.39891V5.47973H20.0213C20.1611 5.47973 20.2992 5.51161 20.4248 5.57296C20.5505 5.6343 20.6605 5.72348 20.7466 5.83373C20.8326 5.94398 20.8924 6.07239 20.9213 6.2092C20.9503 6.34602 20.9477 6.48763 20.9137 6.62329L18.6137 15.8233C18.5639 16.0222 18.449 16.1988 18.2873 16.325C18.1256 16.4512 17.9264 16.5197 17.7213 16.5197H4.63891C4.39491 16.5197 4.1609 16.4228 3.98837 16.2503C3.81583 16.0777 3.71891 15.8437 3.71891 15.5997V4.55973H1.87891V2.71973H4.63891C4.88291 2.71973 5.11691 2.81665 5.28944 2.98919C5.46198 3.16172 5.55891 3.39573 5.55891 3.63973V9.15973ZM5.55891 22.0397C5.07091 22.0397 4.6029 21.8459 4.25783 21.5008C3.91276 21.1557 3.71891 20.6877 3.71891 20.1997C3.71891 19.7117 3.91276 19.2437 4.25783 18.8986C4.6029 18.5536 5.07091 18.3597 5.55891 18.3597C6.0469 18.3597 6.51492 18.5536 6.85998 18.8986C7.20505 19.2437 7.39891 19.7117 7.39891 20.1997C7.39891 20.6877 7.20505 21.1557 6.85998 21.5008C6.51492 21.8459 6.0469 22.0397 5.55891 22.0397ZM16.5989 22.0397C16.1109 22.0397 15.6429 21.8459 15.2978 21.5008C14.9528 21.1557 14.7589 20.6877 14.7589 20.1997C14.7589 19.7117 14.9528 19.2437 15.2978 18.8986C15.6429 18.5536 16.1109 18.3597 16.5989 18.3597C17.0869 18.3597 17.5549 18.5536 17.9 18.8986C18.245 19.2437 18.4389 19.7117 18.4389 20.1997C18.4389 20.6877 18.245 21.1557 17.9 21.5008C17.5549 21.8459 17.0869 22.0397 16.5989 22.0397Z" fill="white"/>
</svg>
