<svg width="71" height="71" viewBox="0 0 71 71" fill="none" xmlns="http://www.w3.org/2000/svg">
<path d="M6.9319 20.9967C6.8024 20.353 6.9313 19.6842 7.29078 19.1348C7.65025 18.5854 8.21144 18.1994 8.8531 18.0603L52.9453 8.86892C54.2865 8.58935 55.6001 9.45192 55.8797 10.7931L64.0497 49.9856C64.1792 50.6293 64.0503 51.298 63.6908 51.8475C63.3314 52.3969 62.7702 52.7828 62.1285 52.9219L18.0363 62.1133C17.3921 62.247 16.7211 62.1193 16.1709 61.7586C15.6207 61.3978 15.2362 60.8333 15.1019 60.1892L6.9319 20.9967ZM31.9196 18.3594L39.0621 52.6229L58.6412 48.5414L51.4987 14.278L31.9196 18.3594ZM35.3873 22.744L50.0716 19.6829L51.092 24.5777L36.4077 27.6388L35.3873 22.744ZM36.9178 30.0862L51.6022 27.0251L52.6225 31.9199L37.9382 34.9809L36.9178 30.0862Z" fill="#45B5E3"/>
</svg>
