<svg width="29" height="28" viewBox="0 0 29 28" fill="none" xmlns="http://www.w3.org/2000/svg">
<path d="M15.8076 19.8598L10.9087 17.1882C10.2692 17.8719 9.43871 18.3475 8.52531 18.553C7.61191 18.7586 6.6578 18.6847 5.78697 18.3409C4.91613 17.9971 4.16884 17.3993 3.64222 16.6252C3.1156 15.8511 2.83398 14.9365 2.83398 14.0002C2.83398 13.064 3.1156 12.1494 3.64222 11.3753C4.16884 10.6012 4.91613 10.0034 5.78697 9.65962C6.6578 9.31581 7.61191 9.24189 8.52531 9.44747C9.43871 9.65304 10.2692 10.1286 10.9087 10.8123L15.8087 8.14067C15.5305 7.03942 15.6635 5.87452 16.1828 4.86432C16.7021 3.85412 17.5719 3.06798 18.6293 2.65325C19.6868 2.23853 20.8591 2.22369 21.9267 2.61152C22.9943 2.99936 23.8838 3.76324 24.4284 4.75997C24.9731 5.75671 25.1355 6.91787 24.8853 8.0258C24.635 9.13374 23.9893 10.1124 23.0692 10.7783C22.149 11.4442 21.0176 11.7516 19.8869 11.643C18.7563 11.5344 17.7041 11.0171 16.9276 10.1882L12.0276 12.8598C12.2156 13.6081 12.2156 14.3912 12.0276 15.1395L16.9264 17.8112C17.7029 16.9822 18.7551 16.465 19.8858 16.3563C21.0164 16.2477 22.1478 16.5552 23.068 17.2211C23.9882 17.887 24.6339 18.8656 24.8841 19.9735C25.1343 21.0815 24.9719 22.2426 24.4272 23.2394C23.8826 24.2361 22.9931 25 21.9255 25.3878C20.858 25.7756 19.6856 25.7608 18.6282 25.3461C17.5707 24.9314 16.7009 24.1452 16.1816 23.135C15.6624 22.1248 15.5294 20.9599 15.8076 19.8587V19.8598ZM7.50089 16.333C8.11973 16.333 8.71322 16.0872 9.15081 15.6496C9.58839 15.212 9.83422 14.6185 9.83422 13.9997C9.83422 13.3808 9.58839 12.7873 9.15081 12.3498C8.71322 11.9122 8.11973 11.6663 7.50089 11.6663C6.88205 11.6663 6.28856 11.9122 5.85098 12.3498C5.41339 12.7873 5.16756 13.3808 5.16756 13.9997C5.16756 14.6185 5.41339 15.212 5.85098 15.6496C6.28856 16.0872 6.88205 16.333 7.50089 16.333ZM20.3342 9.333C20.9531 9.333 21.5466 9.08717 21.9841 8.64958C22.4217 8.212 22.6676 7.61851 22.6676 6.99967C22.6676 6.38083 22.4217 5.78734 21.9841 5.34975C21.5466 4.91217 20.9531 4.66633 20.3342 4.66633C19.7154 4.66633 19.1219 4.91217 18.6843 5.34975C18.2467 5.78734 18.0009 6.38083 18.0009 6.99967C18.0009 7.61851 18.2467 8.212 18.6843 8.64958C19.1219 9.08717 19.7154 9.333 20.3342 9.333ZM20.3342 23.333C20.9531 23.333 21.5466 23.0872 21.9841 22.6496C22.4217 22.212 22.6676 21.6185 22.6676 20.9997C22.6676 20.3808 22.4217 19.7873 21.9841 19.3498C21.5466 18.9122 20.9531 18.6663 20.3342 18.6663C19.7154 18.6663 19.1219 18.9122 18.6843 19.3498C18.2467 19.7873 18.0009 20.3808 18.0009 20.9997C18.0009 21.6185 18.2467 22.212 18.6843 22.6496C19.1219 23.0872 19.7154 23.333 20.3342 23.333Z" fill="white"/>
</svg>
