<svg width="30" height="30" viewBox="0 0 30 30" fill="none" xmlns="http://www.w3.org/2000/svg">
<path d="M21.25 7.5H27.5V10H25V26.25C25 26.5815 24.8683 26.8995 24.6339 27.1339C24.3994 27.3683 24.0815 27.5 23.75 27.5H6.24997C5.91845 27.5 5.60051 27.3683 5.36609 27.1339C5.13167 26.8995 4.99997 26.5815 4.99997 26.25V10H2.49997V7.5H8.74997V3.75C8.74997 3.41848 8.88167 3.10054 9.11609 2.86612C9.35051 2.6317 9.66845 2.5 9.99997 2.5H20C20.3315 2.5 20.6494 2.6317 20.8839 2.86612C21.1183 3.10054 21.25 3.41848 21.25 3.75V7.5ZM22.5 10H7.49997V25H22.5V10ZM11.25 13.75H13.75V21.25H11.25V13.75ZM16.25 13.75H18.75V21.25H16.25V13.75ZM11.25 5V7.5H18.75V5H11.25Z" fill="#F23E2C"/>
</svg>
