<svg width="20" height="20" viewBox="0 0 20 20" fill="none" xmlns="http://www.w3.org/2000/svg">
<path d="M13.6868 14.8656C12.8077 15.3631 11.8367 15.6767 10.8327 15.7873V19.1664H9.16599V15.7873C7.47527 15.5977 5.89914 14.8393 4.69614 13.6363C3.49313 12.4333 2.73467 10.8571 2.54516 9.16643H4.22432C4.35424 10.0659 4.69248 10.9227 5.21209 11.6683C5.73169 12.414 6.4183 13.028 7.21717 13.4613C8.01605 13.8947 8.90511 14.1354 9.8135 14.1644C10.7219 14.1933 11.6245 14.0097 12.4493 13.6281L11.1568 12.3364C10.5361 12.5159 9.88224 12.5486 9.24676 12.4319C8.61128 12.3152 8.01165 12.0523 7.49524 11.664C6.97883 11.2757 6.5598 10.7727 6.27125 10.1946C5.98271 9.61648 5.83255 8.9792 5.83266 8.33309V7.01143L1.16016 2.33976L2.33932 1.16059L18.8385 17.6606L17.6593 18.8389L13.6868 14.8656ZM7.52682 8.70559L9.62682 10.8056C9.09838 10.7258 8.60939 10.4788 8.23149 10.1009C7.85359 9.72303 7.60664 9.23403 7.52682 8.70559ZM16.1452 12.6331L14.9427 11.4314C15.3668 10.7564 15.656 9.98976 15.7735 9.16643H17.4535C17.3159 10.4136 16.8659 11.606 16.1452 12.6331ZM13.7202 10.2089L12.4302 8.91893C12.4752 8.73059 12.4993 8.53559 12.4993 8.33309V4.99976C12.4999 4.41202 12.2934 3.84285 11.9161 3.39223C11.5387 2.94161 11.0147 2.63835 10.436 2.5357C9.85725 2.43304 9.26087 2.53757 8.75156 2.83092C8.24226 3.12426 7.85259 3.58767 7.65099 4.13976L6.40432 2.89226C6.86691 2.10277 7.57652 1.48751 8.42359 1.14147C9.27067 0.795433 10.2081 0.737854 11.0912 0.977627C11.9742 1.2174 12.7538 1.74119 13.3095 2.46813C13.8652 3.19507 14.1662 4.08473 14.166 4.99976V8.33309C14.167 8.98463 14.0145 9.62725 13.721 10.2089H13.7202Z" fill="white"/>
</svg>
