<svg width="22" height="22" viewBox="0 0 22 22" fill="none" xmlns="http://www.w3.org/2000/svg">
<path d="M18.3327 20.1665H16.4993V18.3332C16.4993 17.6038 16.2096 16.9044 15.6939 16.3886C15.1782 15.8729 14.4787 15.5832 13.7493 15.5832H8.24935C7.52 15.5832 6.82053 15.8729 6.30481 16.3886C5.78908 16.9044 5.49935 17.6038 5.49935 18.3332V20.1665H3.66602V18.3332C3.66602 17.1176 4.1489 15.9518 5.00844 15.0923C5.86798 14.2327 7.03377 13.7498 8.24935 13.7498H13.7493C14.9649 13.7498 16.1307 14.2327 16.9903 15.0923C17.8498 15.9518 18.3327 17.1176 18.3327 18.3332V20.1665ZM10.9993 11.9165C10.2771 11.9165 9.56188 11.7742 8.89459 11.4978C8.2273 11.2214 7.62098 10.8163 7.11026 10.3056C6.59954 9.79487 6.19441 9.18855 5.91801 8.52126C5.64161 7.85397 5.49935 7.13877 5.49935 6.4165C5.49935 5.69423 5.64161 4.97904 5.91801 4.31175C6.19441 3.64445 6.59954 3.03814 7.11026 2.52742C7.62098 2.01669 8.2273 1.61157 8.89459 1.33517C9.56188 1.05877 10.2771 0.916504 10.9993 0.916504C12.458 0.916504 13.857 1.49597 14.8884 2.52742C15.9199 3.55887 16.4993 4.95781 16.4993 6.4165C16.4993 7.8752 15.9199 9.27414 14.8884 10.3056C13.857 11.337 12.458 11.9165 10.9993 11.9165ZM10.9993 10.0832C11.9718 10.0832 12.9044 9.69686 13.5921 9.00923C14.2797 8.3216 14.666 7.38897 14.666 6.4165C14.666 5.44404 14.2797 4.51141 13.5921 3.82378C12.9044 3.13615 11.9718 2.74984 10.9993 2.74984C10.0269 2.74984 9.09426 3.13615 8.40662 3.82378C7.71899 4.51141 7.33268 5.44404 7.33268 6.4165C7.33268 7.38897 7.71899 8.3216 8.40662 9.00923C9.09426 9.69686 10.0269 10.0832 10.9993 10.0832Z" fill="#45B5E3"/>
</svg>
