<svg width="20" height="20" viewBox="0 0 20 20" fill="none" xmlns="http://www.w3.org/2000/svg">
<path d="M15.7438 17.3854H4.25666C4.03905 17.3854 3.83035 17.299 3.67647 17.1451C3.52259 16.9912 3.43615 16.7825 3.43615 16.5649V9.18027H0.974609L9.44804 1.4773C9.59911 1.33984 9.79601 1.26367 10.0002 1.26367C10.2045 1.26367 10.4014 1.33984 10.5525 1.4773L19.0259 9.18027H16.5644V16.5649C16.5644 16.7825 16.4779 16.9912 16.324 17.1451C16.1702 17.299 15.9615 17.3854 15.7438 17.3854ZM5.07717 15.7444H14.9233V7.66807L10.0002 3.19299L5.07717 7.66807V15.7444ZM10.0002 12.4623C9.45622 12.4623 8.93446 12.2462 8.54977 11.8615C8.16508 11.4768 7.94897 10.9551 7.94897 10.411C7.94897 9.86701 8.16508 9.34526 8.54977 8.96057C8.93446 8.57588 9.45622 8.35976 10.0002 8.35976C10.5443 8.35976 11.066 8.57588 11.4507 8.96057C11.8354 9.34526 12.0515 9.86701 12.0515 10.411C12.0515 10.9551 11.8354 11.4768 11.4507 11.8615C11.066 12.2462 10.5443 12.4623 10.0002 12.4623Z" fill="#45B5E3"/>
</svg>
