<svg width="22" height="22" viewBox="0 0 22 22" fill="none" xmlns="http://www.w3.org/2000/svg">
<path d="M3.66536 7.33301H18.332V19.2497C18.332 19.4928 18.2355 19.7259 18.0635 19.8979C17.8916 20.0698 17.6585 20.1663 17.4154 20.1663H4.58203C4.33892 20.1663 4.10576 20.0698 3.93385 19.8979C3.76194 19.7259 3.66536 19.4928 3.66536 19.2497V7.33301ZM5.4987 9.16634V18.333H16.4987V9.16634H5.4987ZM8.2487 10.9997H10.082V16.4997H8.2487V10.9997ZM11.9154 10.9997H13.7487V16.4997H11.9154V10.9997ZM6.41536 4.58301V2.74967C6.41536 2.50656 6.51194 2.2734 6.68385 2.10149C6.85576 1.92958 7.08892 1.83301 7.33203 1.83301H14.6654C14.9085 1.83301 15.1416 1.92958 15.3135 2.10149C15.4855 2.2734 15.582 2.50656 15.582 2.74967V4.58301H20.1654V6.41634H1.83203V4.58301H6.41536ZM8.2487 3.66634V4.58301H13.7487V3.66634H8.2487Z" fill="#BEBEBE"/>
</svg>
