<svg width="368" height="52" viewBox="0 0 368 52" fill="none" xmlns="http://www.w3.org/2000/svg">
<rect width="80" height="52" rx="26" fill="white" fill-opacity="0.2"/>
<path d="M47.3788 18.9126C47.8318 18.9126 48.1991 18.5452 48.1991 18.0923V12.8203C48.1991 12.3672 47.8318 12 47.3788 12H41.2279C38.3532 12 36.0144 14.3387 36.0144 17.2135V22.5438H32.6172C32.1641 22.5438 31.7969 22.911 31.7969 23.3641V28.6359C31.7969 29.089 32.1641 29.4562 32.6172 29.4562H36.0144V39.1797C36.0144 39.6328 36.3817 40 36.8347 40H42.1068C42.5598 40 42.9271 39.6328 42.9271 39.1797V29.4562H46.3243C46.7155 29.4562 47.0521 29.1802 47.1288 28.7968L48.183 23.525C48.2313 23.284 48.1689 23.0341 48.013 22.8439C47.8573 22.654 47.6244 22.5438 47.3788 22.5438H42.9271V18.9126H47.3788ZM42.1068 24.1844H46.3781L45.6518 27.8156H42.1068C41.6537 27.8156 41.2864 28.1828 41.2864 28.6359V38.3594H37.6551V28.6359C37.6551 28.1828 37.2878 27.8156 36.8347 27.8156H33.4375V24.1844H36.8347C37.2878 24.1844 37.6551 23.8172 37.6551 23.3641V17.2135C37.6551 15.2434 39.2579 13.6406 41.2279 13.6406H46.5584V17.272H42.1068C41.6537 17.272 41.2864 17.6392 41.2864 18.0923V23.3641C41.2864 23.8172 41.6537 24.1844 42.1068 24.1844Z" fill="white"/>
<rect x="96" width="80" height="52" rx="26" fill="white" fill-opacity="0.2"/>
<g clip-path="url(#clip0_237_1322)">
<path d="M136.276 39.9999C136.183 39.9999 136.09 39.9999 135.997 39.9995C133.802 40.0048 131.774 39.9491 129.802 39.829C127.994 39.719 126.343 39.0942 125.029 38.0222C123.76 36.9878 122.894 35.5892 122.454 33.8657C122.071 32.3652 122.051 30.8923 122.032 29.4677C122.018 28.4455 122.003 27.2342 122 26.0025C122.003 24.7656 122.018 23.5544 122.032 22.5322C122.051 21.1077 122.071 19.6348 122.454 18.1341C122.894 16.4106 123.76 15.012 125.029 13.9776C126.343 12.9057 127.994 12.2808 129.802 12.1708C131.774 12.051 133.803 11.995 136.002 12.0003C138.198 11.9956 140.225 12.051 142.197 12.1708C144.005 12.2808 145.656 12.9057 146.97 13.9776C148.239 15.012 149.105 16.4106 149.545 18.1341C149.928 19.6346 149.948 21.1077 149.967 22.5322C149.981 23.5544 149.996 24.7656 149.999 25.9974C149.996 27.2342 149.981 28.4455 149.967 29.4677C149.959 30.0718 149.46 30.5546 148.859 30.5465C148.255 30.5381 147.772 30.0417 147.78 29.4378C147.794 28.4216 147.809 27.2182 147.811 25.9974C147.809 24.7816 147.794 23.5783 147.78 22.5621C147.762 21.2652 147.744 19.9241 147.425 18.675C147.104 17.4151 146.485 16.405 145.588 15.673C144.617 14.8811 143.431 14.4374 142.064 14.3543C140.138 14.2372 138.156 14.1831 136.002 14.1876C133.843 14.1825 131.861 14.2372 129.935 14.3543C128.568 14.4374 127.382 14.8811 126.411 15.6727C125.513 16.4048 124.895 17.4148 124.574 18.675C124.255 19.9241 124.237 21.2652 124.219 22.5621C124.205 23.5783 124.19 24.7816 124.188 26.0025C124.19 27.2182 124.205 28.4216 124.219 29.4378C124.237 30.7347 124.255 32.0758 124.574 33.3248C124.895 34.5848 125.513 35.5948 126.411 36.3269C127.382 37.1188 128.568 37.5625 129.935 37.6456C131.861 37.7626 133.844 37.8173 135.997 37.812C138.156 37.8171 140.138 37.7626 142.064 37.6456C143.431 37.5625 144.617 37.1188 145.588 36.3269C146.234 35.7995 146.74 35.1227 147.089 34.3152C147.329 33.7611 147.973 33.5062 148.528 33.7463C149.082 33.9864 149.337 34.6303 149.097 35.1846C148.607 36.3166 147.891 37.2713 146.97 38.0222C145.656 39.0944 144.005 39.719 142.197 39.829C140.308 39.944 138.368 39.9999 136.276 39.9999ZM142.781 25.9999C142.781 22.2305 139.714 19.164 135.945 19.164C132.176 19.164 129.109 22.2305 129.109 25.9999C129.109 29.7693 132.176 32.8359 135.945 32.8359C139.714 32.8359 142.781 29.7693 142.781 25.9999ZM140.593 25.9999C140.593 28.563 138.508 30.6484 135.945 30.6484C133.382 30.6484 131.296 28.563 131.296 25.9999C131.296 23.4369 133.382 21.3515 135.945 21.3515C138.508 21.3515 140.593 23.4369 140.593 25.9999ZM143.546 16.9765C142.64 16.9765 141.906 17.7109 141.906 18.6171C141.906 19.5233 142.64 20.2577 143.546 20.2577C144.452 20.2577 145.187 19.5233 145.187 18.6171C145.187 17.7109 144.452 16.9765 143.546 16.9765Z" fill="white"/>
</g>
<rect x="192" width="80" height="52" rx="26" fill="white" fill-opacity="0.2"/>
<g clip-path="url(#clip1_237_1322)">
<path d="M225.804 20.9308L225.829 20.9424C225.903 20.9762 225.981 20.9922 226.057 20.9922C226.264 20.9922 226.462 20.8738 226.555 20.673C226.68 20.3985 226.56 20.0739 226.285 19.9481L226.263 19.9377C225.988 19.8111 225.663 19.9308 225.537 20.2051C225.41 20.4793 225.53 20.8042 225.804 20.9308Z" fill="white"/>
<path d="M245.871 17.3052C245.715 17.1192 245.454 17.059 245.231 17.1577C244.898 17.3053 244.56 17.4352 244.216 17.5471C244.661 16.9827 245.008 16.3388 245.233 15.6423C245.304 15.4259 245.232 15.1887 245.055 15.0466C244.877 14.9045 244.63 14.8873 244.434 15.0032C243.479 15.5692 242.453 15.9766 241.378 16.2165C240.257 15.1383 238.742 14.5254 237.176 14.5254C233.832 14.5254 231.112 17.2458 231.112 20.5897C231.112 20.8092 231.124 21.0301 231.147 21.2511C230.288 21.1692 229.436 21.0147 228.609 20.7898C228.317 20.7106 228.017 20.8827 227.938 21.1742C227.859 21.4657 228.031 21.7662 228.322 21.8454C229.443 22.1498 230.603 22.334 231.772 22.3929C231.943 22.4015 232.107 22.3298 232.217 22.1992C232.327 22.0685 232.37 21.894 232.333 21.7272C232.248 21.3492 232.205 20.9664 232.205 20.5897C232.205 17.8489 234.435 15.6191 237.176 15.6191C238.546 15.6191 239.866 16.1905 240.8 17.1866C240.928 17.3239 241.118 17.3855 241.303 17.3495C242.054 17.2036 242.785 16.9843 243.49 16.6942C243.095 17.2425 242.59 17.7089 242.003 18.0607C241.781 18.1932 241.683 18.4624 241.766 18.7065C241.849 18.9506 242.092 19.1034 242.348 19.073C242.853 19.0131 243.353 18.9196 243.846 18.7932C243.398 19.2622 242.906 19.6897 242.374 20.0723C242.228 20.1777 242.142 20.3487 242.147 20.5291L242.163 21.2374C242.16 28.6824 236.493 36.3809 227.011 36.3809C224.844 36.3809 222.721 35.9202 220.769 35.036C223.067 34.8622 225.225 34.0282 227.054 32.5978C227.236 32.4554 227.309 32.2138 227.236 31.9943C227.163 31.7749 226.96 31.6251 226.728 31.6203C224.898 31.5821 223.26 30.5493 222.423 28.9743C222.483 28.9759 222.543 28.9768 222.603 28.9768C223.146 28.9768 223.682 28.9077 224.196 28.7715C224.442 28.7064 224.61 28.4807 224.603 28.2267C224.595 27.9727 224.414 27.7573 224.165 27.7069C222.125 27.2934 220.579 25.6432 220.245 23.6369C220.848 23.8572 221.473 23.9766 222.112 23.993C222.356 23.9988 222.574 23.8436 222.648 23.6113C222.721 23.379 222.632 23.1261 222.429 22.9911C221.045 22.0693 220.218 20.5242 220.218 18.8578C220.218 18.2416 220.331 17.6351 220.549 17.07C221.44 18.0544 222.447 18.9253 223.55 19.6657C223.801 19.8341 224.14 19.7672 224.309 19.5165C224.477 19.2657 224.41 18.926 224.16 18.7576C222.912 17.92 221.796 16.9033 220.844 15.7357C220.73 15.5969 220.556 15.5226 220.378 15.5361C220.199 15.5498 220.039 15.6501 219.948 15.8046C219.409 16.7231 219.125 17.7789 219.125 18.8579C219.125 20.1912 219.558 21.4608 220.334 22.4943C220.186 22.4298 220.04 22.3578 219.896 22.2782C219.727 22.1847 219.52 22.1876 219.354 22.286C219.187 22.3844 219.085 22.5634 219.085 22.7569V22.8242C219.085 24.8475 220.094 26.6855 221.673 27.7977C221.669 27.7971 221.666 27.7965 221.663 27.7959C221.473 27.7602 221.279 27.8268 221.151 27.9714C221.023 28.1161 220.981 28.3173 221.041 28.501C221.682 30.4929 223.291 31.9806 225.254 32.5073C223.63 33.4721 221.79 33.9764 219.861 33.9764C219.442 33.9764 219.032 33.9534 218.607 33.9062C218.355 33.8782 218.116 34.0277 218.031 34.2672C217.947 34.5067 218.038 34.7731 218.252 34.9102C220.87 36.5879 223.899 37.4747 227.011 37.4747C229.515 37.4747 231.858 36.9774 233.975 35.9963C235.917 35.0966 237.634 33.8107 239.076 32.1744C241.733 29.1606 243.257 25.1718 243.257 21.2308C243.257 21.2266 243.257 21.2222 243.257 21.218L243.247 20.7874C244.288 19.9988 245.183 19.049 245.908 17.9609C246.043 17.7585 246.028 17.4913 245.871 17.3052Z" fill="white"/>
<path d="M238.601 27.8058C238.342 27.6504 238.006 27.7344 237.85 27.9934L237.849 27.995C237.694 28.254 237.778 28.5891 238.037 28.7445C238.125 28.7972 238.222 28.8223 238.318 28.8223C238.504 28.8223 238.686 28.7272 238.788 28.5561C238.944 28.2971 238.86 27.9612 238.601 27.8058Z" fill="white"/>
<path d="M237.533 29.4515C237.3 29.2595 236.956 29.2926 236.764 29.5257C235.806 30.6872 234.674 31.6455 233.4 32.3741C233.137 32.524 233.046 32.858 233.196 33.1203C233.297 33.2969 233.482 33.3959 233.671 33.3959C233.763 33.3959 233.857 33.3727 233.942 33.3238C235.332 32.5292 236.566 31.4854 237.608 30.2214C237.8 29.9883 237.766 29.6437 237.533 29.4515Z" fill="white"/>
</g>
<rect x="288" width="80" height="52" rx="26" fill="white" fill-opacity="0.2"/>
<g clip-path="url(#clip2_237_1322)">
<path d="M320.816 20.6489H315.419C314.873 20.6489 314.428 21.0936 314.428 21.6403V38.9788C314.428 39.5254 314.872 39.9702 315.419 39.9702H320.816C321.363 39.9702 321.808 39.5255 321.808 38.9788V21.6403C321.808 21.0937 321.363 20.6489 320.816 20.6489ZM320.692 38.8547H315.543V21.7644H320.692V38.8547Z" fill="white"/>
<path d="M321.029 13.236C320.25 12.4581 319.217 12.0295 318.119 12.0295C315.848 12.0295 314 13.8757 314 16.1448C314 18.4149 315.848 20.2617 318.119 20.2617C320.389 20.2617 322.235 18.4149 322.235 16.1449C322.236 15.0471 321.807 14.0141 321.029 13.236ZM318.119 19.1461C316.463 19.1461 315.116 17.7997 315.116 16.1448C315.116 14.4908 316.463 13.1451 318.119 13.1451C318.919 13.1451 319.672 13.4576 320.24 14.025C320.807 14.5923 321.12 15.3452 321.12 16.1448C321.12 17.7997 319.774 19.1461 318.119 19.1461Z" fill="white"/>
<path d="M340.753 23.2269C339.576 21.2303 337.486 20.218 334.544 20.218C332.648 20.218 331.27 20.865 330.354 21.5324C330.3 21.0364 329.878 20.6489 329.368 20.6489H324.199C323.653 20.6489 323.208 21.0936 323.208 21.6403V38.9788C323.208 39.5254 323.653 39.9702 324.199 39.9702H329.585C330.131 39.9702 330.576 39.5255 330.576 38.9788V30.4004C330.576 27.4924 331.364 26.9412 332.819 26.9412C334.241 26.9412 334.63 27.7167 334.63 30.5491V38.9791C334.63 39.5257 335.075 39.9705 335.621 39.9705H341.009C341.555 39.9705 342 39.5257 342 38.9791V29.4685C342 27.5469 341.858 25.101 340.753 23.2269ZM340.884 38.8548H335.746V30.5491C335.746 29.4192 335.714 28.2424 335.339 27.3625C334.905 26.3427 334.057 25.8256 332.819 25.8256C329.86 25.8256 329.461 28.1382 329.461 30.4004V38.8547H324.324V21.7645H329.244V22.7665C329.244 22.9964 329.385 23.2027 329.599 23.2862C329.814 23.3697 330.057 23.3131 330.213 23.1436C330.833 22.4677 332.221 21.3336 334.544 21.3336C340.116 21.3336 340.884 25.2434 340.884 29.4685V38.8548H340.884Z" fill="white"/>
<path d="M316.677 31.9124C316.369 31.9124 316.119 32.1621 316.119 32.4701V37.6574C316.119 37.9654 316.369 38.2151 316.677 38.2151C316.985 38.2151 317.235 37.9654 317.235 37.6574V32.4701C317.235 32.1621 316.985 31.9124 316.677 31.9124Z" fill="white"/>
<path d="M316.677 29.5698C316.369 29.5698 316.119 29.8195 316.119 30.1276V30.6296C316.119 30.9376 316.369 31.1873 316.677 31.1873C316.985 31.1873 317.235 30.9376 317.235 30.6296V30.1276C317.235 29.8195 316.985 29.5698 316.677 29.5698Z" fill="white"/>
</g>
<defs>
<clipPath id="clip0_237_1322">
<rect width="28" height="28" fill="white" transform="translate(122 12)"/>
</clipPath>
<clipPath id="clip1_237_1322">
<rect width="28" height="28" fill="white" transform="translate(218 12)"/>
</clipPath>
<clipPath id="clip2_237_1322">
<rect width="28" height="28" fill="white" transform="translate(314 12)"/>
</clipPath>
</defs>
</svg>
