<svg width="884" height="160" viewBox="0 0 884 160" fill="none" xmlns="http://www.w3.org/2000/svg">
<g filter="url(#filter0_d_610_6829)">
<rect x="35" y="31" width="814" height="90" rx="4" fill="white"/>
<path d="M74.4883 80.5059V82H68.9336V80.5059H70.9199V71.7168H68.9336V70.2227H74.4883V71.7168H72.502V80.5059H74.4883ZM84.6309 73.2109V74.3359C84.9121 74.0195 85.2695 73.7266 85.7031 73.457C86.1484 73.1758 86.6699 73.0352 87.2676 73.0352C87.9004 73.0352 88.4922 73.1875 89.043 73.4922C89.5938 73.7852 90.0156 74.2305 90.3086 74.8281C90.7188 74.3359 91.1641 73.9141 91.6445 73.5625C92.125 73.2109 92.6875 73.0352 93.332 73.0352C93.9297 73.0352 94.4863 73.1699 95.002 73.4395C95.5293 73.6973 95.9512 74.0957 96.2676 74.6348C96.5957 75.1621 96.7598 75.8301 96.7598 76.6387V82H95.3184L95.3008 76.7793C95.3008 76.0176 95.1016 75.4375 94.7031 75.0391C94.3164 74.6406 93.7773 74.4414 93.0859 74.4414C92.582 74.4414 92.1426 74.5996 91.7676 74.916C91.3926 75.2324 91.0352 75.6016 90.6953 76.0234V82H89.2539L89.2363 76.7793C89.2363 76.0176 89.0371 75.4375 88.6387 75.0391C88.252 74.6406 87.7129 74.4414 87.0215 74.4414C86.541 74.4414 86.1016 74.582 85.7031 74.8633C85.3164 75.1445 84.959 75.4844 84.6309 75.8828V82H83.1895V73.2109H84.6309ZM100.891 68.9922C101.23 68.9922 101.512 69.1152 101.734 69.3613C101.969 69.5957 102.086 69.8711 102.086 70.1875C102.086 70.4922 101.969 70.7676 101.734 71.0137C101.512 71.2598 101.23 71.3828 100.891 71.3828C100.551 71.3828 100.264 71.2598 100.029 71.0137C99.8066 70.7676 99.6953 70.4922 99.6953 70.1875C99.6953 69.8711 99.8066 69.5957 100.029 69.3613C100.264 69.1152 100.551 68.9922 100.891 68.9922ZM101.787 73.2109V82H100.346V74.5645H98.957V73.2109H101.787ZM107.518 73.0352C108.033 73.0352 108.514 73.1113 108.959 73.2637C109.404 73.4043 109.727 73.5508 109.926 73.7031V75.25C109.68 75.0625 109.346 74.8809 108.924 74.7051C108.502 74.5293 108.068 74.4414 107.623 74.4414C107.072 74.4414 106.656 74.5703 106.375 74.8281C106.105 75.0859 105.971 75.3555 105.971 75.6367C105.971 75.8594 106.047 76.0879 106.199 76.3223C106.363 76.5449 106.645 76.7266 107.043 76.8672L108.52 77.3945C109.094 77.5938 109.521 77.8809 109.803 78.2559C110.084 78.6309 110.225 79.0703 110.225 79.5742C110.225 80.0664 110.084 80.5176 109.803 80.9277C109.533 81.3379 109.152 81.666 108.66 81.9121C108.18 82.1465 107.623 82.2637 106.99 82.2637C106.65 82.2637 106.293 82.2168 105.918 82.123C105.555 82.041 105.227 81.9414 104.934 81.8242C104.641 81.6953 104.424 81.584 104.283 81.4902V79.9434C104.447 80.0605 104.676 80.1953 104.969 80.3477C105.273 80.4883 105.596 80.6113 105.936 80.7168C106.275 80.8105 106.592 80.8574 106.885 80.8574C107.436 80.8574 107.869 80.7344 108.186 80.4883C108.514 80.2422 108.678 79.9375 108.678 79.5742C108.678 79.293 108.566 79.0703 108.344 78.9062C108.133 78.7422 107.822 78.584 107.412 78.4316L106.111 77.957C105.432 77.6992 104.98 77.377 104.758 76.9902C104.535 76.5918 104.424 76.1406 104.424 75.6367C104.424 74.8867 104.705 74.2656 105.268 73.7734C105.83 73.2812 106.58 73.0352 107.518 73.0352ZM115.041 73.0352C115.557 73.0352 116.037 73.1113 116.482 73.2637C116.928 73.4043 117.25 73.5508 117.449 73.7031V75.25C117.203 75.0625 116.869 74.8809 116.447 74.7051C116.025 74.5293 115.592 74.4414 115.146 74.4414C114.596 74.4414 114.18 74.5703 113.898 74.8281C113.629 75.0859 113.494 75.3555 113.494 75.6367C113.494 75.8594 113.57 76.0879 113.723 76.3223C113.887 76.5449 114.168 76.7266 114.566 76.8672L116.043 77.3945C116.617 77.5938 117.045 77.8809 117.326 78.2559C117.607 78.6309 117.748 79.0703 117.748 79.5742C117.748 80.0664 117.607 80.5176 117.326 80.9277C117.057 81.3379 116.676 81.666 116.184 81.9121C115.703 82.1465 115.146 82.2637 114.514 82.2637C114.174 82.2637 113.816 82.2168 113.441 82.123C113.078 82.041 112.75 81.9414 112.457 81.8242C112.164 81.6953 111.947 81.584 111.807 81.4902V79.9434C111.971 80.0605 112.199 80.1953 112.492 80.3477C112.797 80.4883 113.119 80.6113 113.459 80.7168C113.799 80.8105 114.115 80.8574 114.408 80.8574C114.959 80.8574 115.393 80.7344 115.709 80.4883C116.037 80.2422 116.201 79.9375 116.201 79.5742C116.201 79.293 116.09 79.0703 115.867 78.9062C115.656 78.7422 115.346 78.584 114.936 78.4316L113.635 77.957C112.955 77.6992 112.504 77.377 112.281 76.9902C112.059 76.5918 111.947 76.1406 111.947 75.6367C111.947 74.8867 112.229 74.2656 112.791 73.7734C113.354 73.2812 114.104 73.0352 115.041 73.0352ZM123.566 73.0352C124.469 73.0352 125.219 73.2227 125.816 73.5977C126.414 73.9727 126.859 74.4824 127.152 75.127C127.457 75.7715 127.609 76.498 127.609 77.3066V78.168H120.859C120.93 78.6602 121.1 79.1113 121.369 79.5215C121.639 79.9316 121.99 80.2598 122.424 80.5059C122.857 80.7402 123.355 80.8574 123.918 80.8574C124.551 80.8574 125.143 80.6992 125.693 80.3828C126.244 80.0547 126.707 79.6973 127.082 79.3105L127.064 80.875C126.9 81.0742 126.654 81.2852 126.326 81.5078C126.01 81.7188 125.641 81.8945 125.219 82.0352C124.809 82.1875 124.375 82.2637 123.918 82.2637C123.027 82.2637 122.236 82.0527 121.545 81.6309C120.854 81.209 120.309 80.6523 119.91 79.9609C119.523 79.2578 119.33 78.4902 119.33 77.6582C119.33 76.8262 119.512 76.0586 119.875 75.3555C120.238 74.6523 120.736 74.0898 121.369 73.668C122.014 73.2461 122.746 73.0352 123.566 73.0352ZM123.566 74.4414C122.84 74.4414 122.242 74.6875 121.773 75.1797C121.305 75.6602 121.012 76.2461 120.895 76.9375H126.186C126.127 76.3633 125.963 75.8945 125.693 75.5312C125.436 75.168 125.119 74.8984 124.744 74.7227C124.369 74.5352 123.977 74.4414 123.566 74.4414ZM137.928 69.3438V82H136.486V80.5059C136.182 80.9746 135.766 81.3848 135.238 81.7363C134.723 82.0879 134.131 82.2637 133.463 82.2637C132.713 82.2637 132.027 82.0762 131.406 81.7012C130.785 81.3145 130.287 80.7812 129.912 80.1016C129.549 79.4219 129.367 78.6367 129.367 77.7461C129.367 76.7734 129.549 75.9355 129.912 75.2324C130.287 74.5293 130.797 73.9902 131.441 73.6152C132.086 73.2285 132.807 73.0352 133.604 73.0352C134.107 73.0352 134.617 73.1582 135.133 73.4043C135.66 73.6387 136.111 73.9668 136.486 74.3887V69.3438H137.928ZM133.867 74.4766C133.234 74.4766 132.695 74.6348 132.25 74.9512C131.805 75.2559 131.459 75.6543 131.213 76.1465C130.979 76.6387 130.861 77.1719 130.861 77.7461C130.861 78.3086 130.979 78.8301 131.213 79.3105C131.447 79.7793 131.775 80.1543 132.197 80.4355C132.631 80.7168 133.129 80.8574 133.691 80.8574C134.23 80.8574 134.711 80.7168 135.133 80.4355C135.555 80.1543 135.889 79.7676 136.135 79.2754C136.381 78.7715 136.498 78.209 136.486 77.5879L136.469 75.9004C136.105 75.4434 135.713 75.0918 135.291 74.8457C134.881 74.5996 134.406 74.4766 133.867 74.4766ZM149.811 73.0352C150.314 73.0352 150.824 73.1582 151.34 73.4043C151.867 73.6387 152.318 73.9668 152.693 74.3887V73.2109H154.135V82H152.693V80.5059C152.389 80.9746 151.973 81.3848 151.445 81.7363C150.93 82.0879 150.338 82.2637 149.67 82.2637C148.92 82.2637 148.234 82.0762 147.613 81.7012C146.992 81.3145 146.494 80.7812 146.119 80.1016C145.756 79.4219 145.574 78.6367 145.574 77.7461C145.574 76.7734 145.756 75.9355 146.119 75.2324C146.494 74.5293 147.004 73.9902 147.648 73.6152C148.293 73.2285 149.014 73.0352 149.811 73.0352ZM150.074 74.4414C149.441 74.4414 148.902 74.5996 148.457 74.916C148.012 75.2324 147.666 75.6426 147.42 76.1465C147.186 76.6387 147.068 77.1719 147.068 77.7461C147.068 78.3086 147.186 78.8301 147.42 79.3105C147.654 79.7793 147.982 80.1543 148.404 80.4355C148.838 80.7168 149.336 80.8574 149.898 80.8574C150.438 80.8574 150.918 80.7168 151.34 80.4355C151.762 80.1543 152.096 79.7676 152.342 79.2754C152.588 78.7715 152.705 78.209 152.693 77.5879L152.676 75.9004C152.312 75.4434 151.92 75.0859 151.498 74.8281C151.088 74.5703 150.613 74.4414 150.074 74.4414ZM165.016 73.0352C165.531 73.0352 166.012 73.1113 166.457 73.2637C166.902 73.4043 167.225 73.5508 167.424 73.7031V75.25C167.178 75.0625 166.844 74.8809 166.422 74.7051C166 74.5293 165.566 74.4414 165.121 74.4414C164.57 74.4414 164.154 74.5703 163.873 74.8281C163.604 75.0859 163.469 75.3555 163.469 75.6367C163.469 75.8594 163.545 76.0879 163.697 76.3223C163.861 76.5449 164.143 76.7266 164.541 76.8672L166.018 77.3945C166.592 77.5938 167.02 77.8809 167.301 78.2559C167.582 78.6309 167.723 79.0703 167.723 79.5742C167.723 80.0664 167.582 80.5176 167.301 80.9277C167.031 81.3379 166.65 81.666 166.158 81.9121C165.678 82.1465 165.121 82.2637 164.488 82.2637C164.148 82.2637 163.791 82.2168 163.416 82.123C163.053 82.041 162.725 81.9414 162.432 81.8242C162.139 81.6953 161.922 81.584 161.781 81.4902V79.9434C161.945 80.0605 162.174 80.1953 162.467 80.3477C162.771 80.4883 163.094 80.6113 163.434 80.7168C163.773 80.8105 164.09 80.8574 164.383 80.8574C164.934 80.8574 165.367 80.7344 165.684 80.4883C166.012 80.2422 166.176 79.9375 166.176 79.5742C166.176 79.293 166.064 79.0703 165.842 78.9062C165.631 78.7422 165.32 78.584 164.91 78.4316L163.609 77.957C162.93 77.6992 162.479 77.377 162.256 76.9902C162.033 76.5918 161.922 76.1406 161.922 75.6367C161.922 74.8867 162.203 74.2656 162.766 73.7734C163.328 73.2812 164.078 73.0352 165.016 73.0352ZM173.893 73.0352C174.537 73.0352 175.094 73.1406 175.562 73.3516C176.031 73.5508 176.354 73.7324 176.529 73.8965V75.3555C176.201 75.1094 175.826 74.8984 175.404 74.7227C174.982 74.5352 174.479 74.4414 173.893 74.4414C173.271 74.4414 172.727 74.5938 172.258 74.8984C171.789 75.1914 171.426 75.584 171.168 76.0762C170.922 76.5566 170.799 77.084 170.799 77.6582C170.799 78.2207 170.922 78.748 171.168 79.2402C171.426 79.7207 171.789 80.1133 172.258 80.418C172.727 80.7109 173.271 80.8574 173.893 80.8574C174.479 80.8574 174.982 80.7695 175.404 80.5938C175.826 80.4062 176.201 80.1895 176.529 79.9434V81.4023C176.354 81.5781 176.031 81.7656 175.562 81.9648C175.094 82.1641 174.537 82.2637 173.893 82.2637C173.002 82.2637 172.211 82.0527 171.52 81.6309C170.828 81.209 170.283 80.6523 169.885 79.9609C169.498 79.2578 169.305 78.4902 169.305 77.6582C169.305 76.8262 169.498 76.0586 169.885 75.3555C170.283 74.6523 170.828 74.0898 171.52 73.668C172.211 73.2461 173.002 73.0352 173.893 73.0352ZM183.209 73.0352C183.807 73.0352 184.352 73.1699 184.844 73.4395C185.336 73.6973 185.729 74.0957 186.021 74.6348C186.314 75.1621 186.461 75.8301 186.461 76.6387V82H185.02L185.002 76.7793C185.002 76.0176 184.832 75.4375 184.492 75.0391C184.164 74.6406 183.654 74.4414 182.963 74.4414C182.494 74.4414 182.025 74.6172 181.557 74.9688C181.1 75.3086 180.695 75.707 180.344 76.1641V82H178.902V69.3438H180.344V74.5996C180.531 74.3652 180.771 74.1309 181.064 73.8965C181.357 73.6504 181.686 73.4453 182.049 73.2812C182.424 73.1172 182.811 73.0352 183.209 73.0352ZM192.807 73.0352C193.709 73.0352 194.459 73.2227 195.057 73.5977C195.654 73.9727 196.1 74.4824 196.393 75.127C196.697 75.7715 196.85 76.498 196.85 77.3066V78.168H190.1C190.17 78.6602 190.34 79.1113 190.609 79.5215C190.879 79.9316 191.23 80.2598 191.664 80.5059C192.098 80.7402 192.596 80.8574 193.158 80.8574C193.791 80.8574 194.383 80.6992 194.934 80.3828C195.484 80.0547 195.947 79.6973 196.322 79.3105L196.305 80.875C196.141 81.0742 195.895 81.2852 195.566 81.5078C195.25 81.7188 194.881 81.8945 194.459 82.0352C194.049 82.1875 193.615 82.2637 193.158 82.2637C192.268 82.2637 191.477 82.0527 190.785 81.6309C190.094 81.209 189.549 80.6523 189.15 79.9609C188.764 79.2578 188.57 78.4902 188.57 77.6582C188.57 76.8262 188.752 76.0586 189.115 75.3555C189.479 74.6523 189.977 74.0898 190.609 73.668C191.254 73.2461 191.986 73.0352 192.807 73.0352ZM192.807 74.4414C192.08 74.4414 191.482 74.6875 191.014 75.1797C190.545 75.6602 190.252 76.2461 190.135 76.9375H195.426C195.367 76.3633 195.203 75.8945 194.934 75.5312C194.676 75.168 194.359 74.8984 193.984 74.7227C193.609 74.5352 193.217 74.4414 192.807 74.4414ZM207.168 69.3438V82H205.727V80.5059C205.422 80.9746 205.006 81.3848 204.479 81.7363C203.963 82.0879 203.371 82.2637 202.703 82.2637C201.953 82.2637 201.268 82.0762 200.646 81.7012C200.025 81.3145 199.527 80.7812 199.152 80.1016C198.789 79.4219 198.607 78.6367 198.607 77.7461C198.607 76.7734 198.789 75.9355 199.152 75.2324C199.527 74.5293 200.037 73.9902 200.682 73.6152C201.326 73.2285 202.047 73.0352 202.844 73.0352C203.348 73.0352 203.857 73.1582 204.373 73.4043C204.9 73.6387 205.352 73.9668 205.727 74.3887V69.3438H207.168ZM203.107 74.4766C202.475 74.4766 201.936 74.6348 201.49 74.9512C201.045 75.2559 200.699 75.6543 200.453 76.1465C200.219 76.6387 200.102 77.1719 200.102 77.7461C200.102 78.3086 200.219 78.8301 200.453 79.3105C200.688 79.7793 201.016 80.1543 201.438 80.4355C201.871 80.7168 202.369 80.8574 202.932 80.8574C203.471 80.8574 203.951 80.7168 204.373 80.4355C204.795 80.1543 205.129 79.7676 205.375 79.2754C205.621 78.7715 205.738 78.209 205.727 77.5879L205.709 75.9004C205.346 75.4434 204.953 75.0918 204.531 74.8457C204.121 74.5996 203.646 74.4766 203.107 74.4766ZM217.346 73.2109V78.4141C217.346 79.1875 217.182 79.8555 216.854 80.418C216.525 80.9805 216.08 81.4141 215.518 81.7188C214.955 82.0234 214.322 82.1758 213.619 82.1758C212.916 82.1758 212.283 82.0234 211.721 81.7188C211.158 81.4141 210.713 80.9805 210.385 80.418C210.057 79.8555 209.893 79.1875 209.893 78.4141V73.2109H211.387V78.4141C211.387 79.1758 211.609 79.7617 212.055 80.1719C212.512 80.5703 213.033 80.7695 213.619 80.7695C214.205 80.7695 214.721 80.5703 215.166 80.1719C215.623 79.7617 215.852 79.1758 215.852 78.4141V73.2109H217.346ZM221.512 69.3438V82H220.07V69.3438H221.512ZM228.121 73.0352C229.023 73.0352 229.773 73.2227 230.371 73.5977C230.969 73.9727 231.414 74.4824 231.707 75.127C232.012 75.7715 232.164 76.498 232.164 77.3066V78.168H225.414C225.484 78.6602 225.654 79.1113 225.924 79.5215C226.193 79.9316 226.545 80.2598 226.979 80.5059C227.412 80.7402 227.91 80.8574 228.473 80.8574C229.105 80.8574 229.697 80.6992 230.248 80.3828C230.799 80.0547 231.262 79.6973 231.637 79.3105L231.619 80.875C231.455 81.0742 231.209 81.2852 230.881 81.5078C230.564 81.7188 230.195 81.8945 229.773 82.0352C229.363 82.1875 228.93 82.2637 228.473 82.2637C227.582 82.2637 226.791 82.0527 226.1 81.6309C225.408 81.209 224.863 80.6523 224.465 79.9609C224.078 79.2578 223.885 78.4902 223.885 77.6582C223.885 76.8262 224.066 76.0586 224.43 75.3555C224.793 74.6523 225.291 74.0898 225.924 73.668C226.568 73.2461 227.301 73.0352 228.121 73.0352ZM228.121 74.4414C227.395 74.4414 226.797 74.6875 226.328 75.1797C225.859 75.6602 225.566 76.2461 225.449 76.9375H230.74C230.682 76.3633 230.518 75.8945 230.248 75.5312C229.99 75.168 229.674 74.8984 229.299 74.7227C228.924 74.5352 228.531 74.4414 228.121 74.4414ZM242.482 69.3438V82H241.041V80.5059C240.736 80.9746 240.32 81.3848 239.793 81.7363C239.277 82.0879 238.686 82.2637 238.018 82.2637C237.268 82.2637 236.582 82.0762 235.961 81.7012C235.34 81.3145 234.842 80.7812 234.467 80.1016C234.104 79.4219 233.922 78.6367 233.922 77.7461C233.922 76.7734 234.104 75.9355 234.467 75.2324C234.842 74.5293 235.352 73.9902 235.996 73.6152C236.641 73.2285 237.361 73.0352 238.158 73.0352C238.662 73.0352 239.172 73.1582 239.688 73.4043C240.215 73.6387 240.666 73.9668 241.041 74.3887V69.3438H242.482ZM238.422 74.4766C237.789 74.4766 237.25 74.6348 236.805 74.9512C236.359 75.2559 236.014 75.6543 235.768 76.1465C235.533 76.6387 235.416 77.1719 235.416 77.7461C235.416 78.3086 235.533 78.8301 235.768 79.3105C236.002 79.7793 236.33 80.1543 236.752 80.4355C237.186 80.7168 237.684 80.8574 238.246 80.8574C238.785 80.8574 239.266 80.7168 239.688 80.4355C240.109 80.1543 240.443 79.7676 240.689 79.2754C240.936 78.7715 241.053 78.209 241.041 77.5879L241.023 75.9004C240.66 75.4434 240.268 75.0918 239.846 74.8457C239.436 74.5996 238.961 74.4766 238.422 74.4766ZM254.717 73.0352C255.361 73.0352 255.918 73.1406 256.387 73.3516C256.855 73.5508 257.178 73.7324 257.354 73.8965V75.3555C257.025 75.1094 256.65 74.8984 256.229 74.7227C255.807 74.5352 255.303 74.4414 254.717 74.4414C254.096 74.4414 253.551 74.5938 253.082 74.8984C252.613 75.1914 252.25 75.584 251.992 76.0762C251.746 76.5566 251.623 77.084 251.623 77.6582C251.623 78.2207 251.746 78.748 251.992 79.2402C252.25 79.7207 252.613 80.1133 253.082 80.418C253.551 80.7109 254.096 80.8574 254.717 80.8574C255.303 80.8574 255.807 80.7695 256.229 80.5938C256.65 80.4062 257.025 80.1895 257.354 79.9434V81.4023C257.178 81.5781 256.855 81.7656 256.387 81.9648C255.918 82.1641 255.361 82.2637 254.717 82.2637C253.826 82.2637 253.035 82.0527 252.344 81.6309C251.652 81.209 251.107 80.6523 250.709 79.9609C250.322 79.2578 250.129 78.4902 250.129 77.6582C250.129 76.8262 250.322 76.0586 250.709 75.3555C251.107 74.6523 251.652 74.0898 252.344 73.668C253.035 73.2461 253.826 73.0352 254.717 73.0352ZM261.168 69.3438V82H259.727V69.3438H261.168ZM267.777 73.0352C268.281 73.0352 268.791 73.1582 269.307 73.4043C269.834 73.6387 270.285 73.9668 270.66 74.3887V73.2109H272.102V82H270.66V80.5059C270.355 80.9746 269.939 81.3848 269.412 81.7363C268.896 82.0879 268.305 82.2637 267.637 82.2637C266.887 82.2637 266.201 82.0762 265.58 81.7012C264.959 81.3145 264.461 80.7812 264.086 80.1016C263.723 79.4219 263.541 78.6367 263.541 77.7461C263.541 76.7734 263.723 75.9355 264.086 75.2324C264.461 74.5293 264.971 73.9902 265.615 73.6152C266.26 73.2285 266.98 73.0352 267.777 73.0352ZM268.041 74.4414C267.408 74.4414 266.869 74.5996 266.424 74.916C265.979 75.2324 265.633 75.6426 265.387 76.1465C265.152 76.6387 265.035 77.1719 265.035 77.7461C265.035 78.3086 265.152 78.8301 265.387 79.3105C265.621 79.7793 265.949 80.1543 266.371 80.4355C266.805 80.7168 267.303 80.8574 267.865 80.8574C268.404 80.8574 268.885 80.7168 269.307 80.4355C269.729 80.1543 270.062 79.7676 270.309 79.2754C270.555 78.7715 270.672 78.209 270.66 77.5879L270.643 75.9004C270.279 75.4434 269.887 75.0859 269.465 74.8281C269.055 74.5703 268.58 74.4414 268.041 74.4414ZM277.709 73.0352C278.225 73.0352 278.705 73.1113 279.15 73.2637C279.596 73.4043 279.918 73.5508 280.117 73.7031V75.25C279.871 75.0625 279.537 74.8809 279.115 74.7051C278.693 74.5293 278.26 74.4414 277.814 74.4414C277.264 74.4414 276.848 74.5703 276.566 74.8281C276.297 75.0859 276.162 75.3555 276.162 75.6367C276.162 75.8594 276.238 76.0879 276.391 76.3223C276.555 76.5449 276.836 76.7266 277.234 76.8672L278.711 77.3945C279.285 77.5938 279.713 77.8809 279.994 78.2559C280.275 78.6309 280.416 79.0703 280.416 79.5742C280.416 80.0664 280.275 80.5176 279.994 80.9277C279.725 81.3379 279.344 81.666 278.852 81.9121C278.371 82.1465 277.814 82.2637 277.182 82.2637C276.842 82.2637 276.484 82.2168 276.109 82.123C275.746 82.041 275.418 81.9414 275.125 81.8242C274.832 81.6953 274.615 81.584 274.475 81.4902V79.9434C274.639 80.0605 274.867 80.1953 275.16 80.3477C275.465 80.4883 275.787 80.6113 276.127 80.7168C276.467 80.8105 276.783 80.8574 277.076 80.8574C277.627 80.8574 278.061 80.7344 278.377 80.4883C278.705 80.2422 278.869 79.9375 278.869 79.5742C278.869 79.293 278.758 79.0703 278.535 78.9062C278.324 78.7422 278.014 78.584 277.604 78.4316L276.303 77.957C275.623 77.6992 275.172 77.377 274.949 76.9902C274.727 76.5918 274.615 76.1406 274.615 75.6367C274.615 74.8867 274.896 74.2656 275.459 73.7734C276.021 73.2812 276.771 73.0352 277.709 73.0352ZM285.232 73.0352C285.748 73.0352 286.229 73.1113 286.674 73.2637C287.119 73.4043 287.441 73.5508 287.641 73.7031V75.25C287.395 75.0625 287.061 74.8809 286.639 74.7051C286.217 74.5293 285.783 74.4414 285.338 74.4414C284.787 74.4414 284.371 74.5703 284.09 74.8281C283.82 75.0859 283.686 75.3555 283.686 75.6367C283.686 75.8594 283.762 76.0879 283.914 76.3223C284.078 76.5449 284.359 76.7266 284.758 76.8672L286.234 77.3945C286.809 77.5938 287.236 77.8809 287.518 78.2559C287.799 78.6309 287.939 79.0703 287.939 79.5742C287.939 80.0664 287.799 80.5176 287.518 80.9277C287.248 81.3379 286.867 81.666 286.375 81.9121C285.895 82.1465 285.338 82.2637 284.705 82.2637C284.365 82.2637 284.008 82.2168 283.633 82.123C283.27 82.041 282.941 81.9414 282.648 81.8242C282.355 81.6953 282.139 81.584 281.998 81.4902V79.9434C282.162 80.0605 282.391 80.1953 282.684 80.3477C282.988 80.4883 283.311 80.6113 283.65 80.7168C283.99 80.8105 284.307 80.8574 284.6 80.8574C285.15 80.8574 285.584 80.7344 285.9 80.4883C286.229 80.2422 286.393 79.9375 286.393 79.5742C286.393 79.293 286.281 79.0703 286.059 78.9062C285.848 78.7422 285.537 78.584 285.127 78.4316L283.826 77.957C283.146 77.6992 282.695 77.377 282.473 76.9902C282.25 76.5918 282.139 76.1406 282.139 75.6367C282.139 74.8867 282.42 74.2656 282.982 73.7734C283.545 73.2812 284.295 73.0352 285.232 73.0352ZM290.752 79.9258L292.193 80.418L290.611 85.1113L289.521 84.8301L290.752 79.9258ZM304.674 73.0352C305.271 73.0352 305.816 73.1699 306.309 73.4395C306.801 73.6973 307.193 74.0957 307.486 74.6348C307.779 75.1621 307.926 75.8301 307.926 76.6387V82H306.484L306.467 76.7793C306.467 76.0176 306.297 75.4375 305.957 75.0391C305.629 74.6406 305.119 74.4414 304.428 74.4414C303.959 74.4414 303.49 74.6172 303.021 74.9688C302.564 75.3086 302.16 75.707 301.809 76.1641V82H300.367V69.3438H301.809V74.5996C301.996 74.3652 302.236 74.1309 302.529 73.8965C302.822 73.6504 303.15 73.4453 303.514 73.2812C303.889 73.1172 304.275 73.0352 304.674 73.0352ZM314.623 73.0352C315.514 73.0352 316.305 73.2461 316.996 73.668C317.688 74.0898 318.227 74.6523 318.613 75.3555C319.012 76.0586 319.211 76.8262 319.211 77.6582C319.211 78.4902 319.012 79.2578 318.613 79.9609C318.227 80.6523 317.688 81.209 316.996 81.6309C316.305 82.0527 315.514 82.2637 314.623 82.2637C313.732 82.2637 312.941 82.0527 312.25 81.6309C311.559 81.209 311.014 80.6523 310.615 79.9609C310.229 79.2578 310.035 78.4902 310.035 77.6582C310.035 76.8262 310.229 76.0586 310.615 75.3555C311.014 74.6523 311.559 74.0898 312.25 73.668C312.941 73.2461 313.732 73.0352 314.623 73.0352ZM314.623 74.4414C314.002 74.4414 313.457 74.5938 312.988 74.8984C312.52 75.1914 312.156 75.584 311.898 76.0762C311.652 76.5566 311.529 77.084 311.529 77.6582C311.529 78.2207 311.652 78.748 311.898 79.2402C312.156 79.7207 312.52 80.1133 312.988 80.418C313.457 80.7109 314.002 80.8574 314.623 80.8574C315.256 80.8574 315.801 80.7109 316.258 80.418C316.727 80.1133 317.084 79.7207 317.33 79.2402C317.588 78.748 317.717 78.2207 317.717 77.6582C317.717 77.084 317.588 76.5566 317.33 76.0762C317.084 75.584 316.727 75.1914 316.258 74.8984C315.801 74.5938 315.256 74.4414 314.623 74.4414ZM333.115 73.2109L330.039 82H329.143L326.734 75.7949L324.326 82H323.43L320.354 73.2109H322.076L324.027 79.3809L326.33 73.2109H327.139L329.441 79.3809L331.393 73.2109H333.115ZM348.092 69.3438V82H346.65V80.5059C346.346 80.9746 345.93 81.3848 345.402 81.7363C344.887 82.0879 344.295 82.2637 343.627 82.2637C342.877 82.2637 342.191 82.0762 341.57 81.7012C340.949 81.3145 340.451 80.7812 340.076 80.1016C339.713 79.4219 339.531 78.6367 339.531 77.7461C339.531 76.7734 339.713 75.9355 340.076 75.2324C340.451 74.5293 340.961 73.9902 341.605 73.6152C342.25 73.2285 342.971 73.0352 343.768 73.0352C344.271 73.0352 344.781 73.1582 345.297 73.4043C345.824 73.6387 346.275 73.9668 346.65 74.3887V69.3438H348.092ZM344.031 74.4766C343.398 74.4766 342.859 74.6348 342.414 74.9512C341.969 75.2559 341.623 75.6543 341.377 76.1465C341.143 76.6387 341.025 77.1719 341.025 77.7461C341.025 78.3086 341.143 78.8301 341.377 79.3105C341.611 79.7793 341.939 80.1543 342.361 80.4355C342.795 80.7168 343.293 80.8574 343.855 80.8574C344.395 80.8574 344.875 80.7168 345.297 80.4355C345.719 80.1543 346.053 79.7676 346.299 79.2754C346.545 78.7715 346.662 78.209 346.65 77.5879L346.633 75.9004C346.27 75.4434 345.877 75.0918 345.455 74.8457C345.045 74.5996 344.57 74.4766 344.031 74.4766ZM355.053 73.0352C355.943 73.0352 356.734 73.2461 357.426 73.668C358.117 74.0898 358.656 74.6523 359.043 75.3555C359.441 76.0586 359.641 76.8262 359.641 77.6582C359.641 78.4902 359.441 79.2578 359.043 79.9609C358.656 80.6523 358.117 81.209 357.426 81.6309C356.734 82.0527 355.943 82.2637 355.053 82.2637C354.162 82.2637 353.371 82.0527 352.68 81.6309C351.988 81.209 351.443 80.6523 351.045 79.9609C350.658 79.2578 350.465 78.4902 350.465 77.6582C350.465 76.8262 350.658 76.0586 351.045 75.3555C351.443 74.6523 351.988 74.0898 352.68 73.668C353.371 73.2461 354.162 73.0352 355.053 73.0352ZM355.053 74.4414C354.432 74.4414 353.887 74.5938 353.418 74.8984C352.949 75.1914 352.586 75.584 352.328 76.0762C352.082 76.5566 351.959 77.084 351.959 77.6582C351.959 78.2207 352.082 78.748 352.328 79.2402C352.586 79.7207 352.949 80.1133 353.418 80.418C353.887 80.7109 354.432 80.8574 355.053 80.8574C355.686 80.8574 356.23 80.7109 356.688 80.418C357.156 80.1133 357.514 79.7207 357.76 79.2402C358.018 78.748 358.146 78.2207 358.146 77.6582C358.146 77.084 358.018 76.5566 357.76 76.0762C357.514 75.584 357.156 75.1914 356.688 74.8984C356.23 74.5938 355.686 74.4414 355.053 74.4414ZM373.281 80.5059V82H367.727V80.5059H369.713V71.7168H367.727V70.2227H373.281V71.7168H371.295V80.5059H373.281ZM384.408 70.6797V73.2109H386.975V74.5645H384.408V79.7148C384.408 80.0781 384.502 80.3652 384.689 80.5762C384.877 80.7871 385.164 80.8926 385.551 80.8926C385.902 80.8926 386.195 80.8516 386.43 80.7695C386.664 80.6758 386.869 80.5762 387.045 80.4707V81.6484C386.811 81.8359 386.559 81.9824 386.289 82.0879C386.031 82.2051 385.68 82.2637 385.234 82.2637C384.484 82.2637 383.916 82.041 383.529 81.5957C383.154 81.1387 382.967 80.5352 382.967 79.7852V74.5645H381.279V74.1426C381.854 73.8848 382.334 73.4629 382.721 72.877C383.107 72.2793 383.447 71.5469 383.74 70.6797H384.408ZM393.215 73.0352C393.719 73.0352 394.229 73.1582 394.744 73.4043C395.271 73.6387 395.723 73.9668 396.098 74.3887V73.2109H397.539V82H396.098V80.5059C395.793 80.9746 395.377 81.3848 394.85 81.7363C394.334 82.0879 393.742 82.2637 393.074 82.2637C392.324 82.2637 391.639 82.0762 391.018 81.7012C390.396 81.3145 389.898 80.7812 389.523 80.1016C389.16 79.4219 388.979 78.6367 388.979 77.7461C388.979 76.7734 389.16 75.9355 389.523 75.2324C389.898 74.5293 390.408 73.9902 391.053 73.6152C391.697 73.2285 392.418 73.0352 393.215 73.0352ZM393.479 74.4414C392.846 74.4414 392.307 74.5996 391.861 74.916C391.416 75.2324 391.07 75.6426 390.824 76.1465C390.59 76.6387 390.473 77.1719 390.473 77.7461C390.473 78.3086 390.59 78.8301 390.824 79.3105C391.059 79.7793 391.387 80.1543 391.809 80.4355C392.242 80.7168 392.74 80.8574 393.303 80.8574C393.842 80.8574 394.322 80.7168 394.744 80.4355C395.166 80.1543 395.5 79.7676 395.746 79.2754C395.992 78.7715 396.109 78.209 396.098 77.5879L396.08 75.9004C395.717 75.4434 395.324 75.0859 394.902 74.8281C394.492 74.5703 394.018 74.4414 393.479 74.4414ZM408.297 73.2109L404.219 77.043L408.525 82H406.697L403.217 77.9922L401.969 79.1523V82H400.527V69.3438H401.969V77.5L406.346 73.2109H408.297ZM413.201 73.0352C414.104 73.0352 414.854 73.2227 415.451 73.5977C416.049 73.9727 416.494 74.4824 416.787 75.127C417.092 75.7715 417.244 76.498 417.244 77.3066V78.168H410.494C410.564 78.6602 410.734 79.1113 411.004 79.5215C411.273 79.9316 411.625 80.2598 412.059 80.5059C412.492 80.7402 412.99 80.8574 413.553 80.8574C414.186 80.8574 414.777 80.6992 415.328 80.3828C415.879 80.0547 416.342 79.6973 416.717 79.3105L416.699 80.875C416.535 81.0742 416.289 81.2852 415.961 81.5078C415.645 81.7188 415.275 81.8945 414.854 82.0352C414.443 82.1875 414.01 82.2637 413.553 82.2637C412.662 82.2637 411.871 82.0527 411.18 81.6309C410.488 81.209 409.943 80.6523 409.545 79.9609C409.158 79.2578 408.965 78.4902 408.965 77.6582C408.965 76.8262 409.146 76.0586 409.51 75.3555C409.873 74.6523 410.371 74.0898 411.004 73.668C411.648 73.2461 412.381 73.0352 413.201 73.0352ZM413.201 74.4414C412.475 74.4414 411.877 74.6875 411.408 75.1797C410.939 75.6602 410.646 76.2461 410.529 76.9375H415.82C415.762 76.3633 415.598 75.8945 415.328 75.5312C415.07 75.168 414.754 74.8984 414.379 74.7227C414.004 74.5352 413.611 74.4414 413.201 74.4414ZM427.316 70.6797V73.2109H429.883V74.5645H427.316V79.7148C427.316 80.0781 427.41 80.3652 427.598 80.5762C427.785 80.7871 428.072 80.8926 428.459 80.8926C428.811 80.8926 429.104 80.8516 429.338 80.7695C429.572 80.6758 429.777 80.5762 429.953 80.4707V81.6484C429.719 81.8359 429.467 81.9824 429.197 82.0879C428.939 82.2051 428.588 82.2637 428.143 82.2637C427.393 82.2637 426.824 82.041 426.438 81.5957C426.062 81.1387 425.875 80.5352 425.875 79.7852V74.5645H424.188V74.1426C424.762 73.8848 425.242 73.4629 425.629 72.877C426.016 72.2793 426.355 71.5469 426.648 70.6797H427.316ZM436.809 73.0352C437.406 73.0352 437.951 73.1699 438.443 73.4395C438.936 73.6973 439.328 74.0957 439.621 74.6348C439.914 75.1621 440.061 75.8301 440.061 76.6387V82H438.619L438.602 76.7793C438.602 76.0176 438.432 75.4375 438.092 75.0391C437.764 74.6406 437.254 74.4414 436.562 74.4414C436.094 74.4414 435.625 74.6172 435.156 74.9688C434.699 75.3086 434.295 75.707 433.943 76.1641V82H432.502V69.3438H433.943V74.5996C434.131 74.3652 434.371 74.1309 434.664 73.8965C434.957 73.6504 435.285 73.4453 435.648 73.2812C436.023 73.1172 436.41 73.0352 436.809 73.0352ZM446.406 73.0352C447.309 73.0352 448.059 73.2227 448.656 73.5977C449.254 73.9727 449.699 74.4824 449.992 75.127C450.297 75.7715 450.449 76.498 450.449 77.3066V78.168H443.699C443.77 78.6602 443.939 79.1113 444.209 79.5215C444.479 79.9316 444.83 80.2598 445.264 80.5059C445.697 80.7402 446.195 80.8574 446.758 80.8574C447.391 80.8574 447.982 80.6992 448.533 80.3828C449.084 80.0547 449.547 79.6973 449.922 79.3105L449.904 80.875C449.74 81.0742 449.494 81.2852 449.166 81.5078C448.85 81.7188 448.48 81.8945 448.059 82.0352C447.648 82.1875 447.215 82.2637 446.758 82.2637C445.867 82.2637 445.076 82.0527 444.385 81.6309C443.693 81.209 443.148 80.6523 442.75 79.9609C442.363 79.2578 442.17 78.4902 442.17 77.6582C442.17 76.8262 442.352 76.0586 442.715 75.3555C443.078 74.6523 443.576 74.0898 444.209 73.668C444.854 73.2461 445.586 73.0352 446.406 73.0352ZM446.406 74.4414C445.68 74.4414 445.082 74.6875 444.613 75.1797C444.145 75.6602 443.852 76.2461 443.734 76.9375H449.025C448.967 76.3633 448.803 75.8945 448.533 75.5312C448.275 75.168 447.959 74.8984 447.584 74.7227C447.209 74.5352 446.816 74.4414 446.406 74.4414ZM462.068 73.0352C462.713 73.0352 463.27 73.1406 463.738 73.3516C464.207 73.5508 464.529 73.7324 464.705 73.8965V75.3555C464.377 75.1094 464.002 74.8984 463.58 74.7227C463.158 74.5352 462.654 74.4414 462.068 74.4414C461.447 74.4414 460.902 74.5938 460.434 74.8984C459.965 75.1914 459.602 75.584 459.344 76.0762C459.098 76.5566 458.975 77.084 458.975 77.6582C458.975 78.2207 459.098 78.748 459.344 79.2402C459.602 79.7207 459.965 80.1133 460.434 80.418C460.902 80.7109 461.447 80.8574 462.068 80.8574C462.654 80.8574 463.158 80.7695 463.58 80.5938C464.002 80.4062 464.377 80.1895 464.705 79.9434V81.4023C464.529 81.5781 464.207 81.7656 463.738 81.9648C463.27 82.1641 462.713 82.2637 462.068 82.2637C461.178 82.2637 460.387 82.0527 459.695 81.6309C459.004 81.209 458.459 80.6523 458.061 79.9609C457.674 79.2578 457.48 78.4902 457.48 77.6582C457.48 76.8262 457.674 76.0586 458.061 75.3555C458.459 74.6523 459.004 74.0898 459.695 73.668C460.387 73.2461 461.178 73.0352 462.068 73.0352ZM468.52 69.3438V82H467.078V69.3438H468.52ZM475.129 73.0352C475.633 73.0352 476.143 73.1582 476.658 73.4043C477.186 73.6387 477.637 73.9668 478.012 74.3887V73.2109H479.453V82H478.012V80.5059C477.707 80.9746 477.291 81.3848 476.764 81.7363C476.248 82.0879 475.656 82.2637 474.988 82.2637C474.238 82.2637 473.553 82.0762 472.932 81.7012C472.311 81.3145 471.812 80.7812 471.438 80.1016C471.074 79.4219 470.893 78.6367 470.893 77.7461C470.893 76.7734 471.074 75.9355 471.438 75.2324C471.812 74.5293 472.322 73.9902 472.967 73.6152C473.611 73.2285 474.332 73.0352 475.129 73.0352ZM475.393 74.4414C474.76 74.4414 474.221 74.5996 473.775 74.916C473.33 75.2324 472.984 75.6426 472.738 76.1465C472.504 76.6387 472.387 77.1719 472.387 77.7461C472.387 78.3086 472.504 78.8301 472.738 79.3105C472.973 79.7793 473.301 80.1543 473.723 80.4355C474.156 80.7168 474.654 80.8574 475.217 80.8574C475.756 80.8574 476.236 80.7168 476.658 80.4355C477.08 80.1543 477.414 79.7676 477.66 79.2754C477.906 78.7715 478.023 78.209 478.012 77.5879L477.994 75.9004C477.631 75.4434 477.238 75.0859 476.816 74.8281C476.406 74.5703 475.932 74.4414 475.393 74.4414ZM485.061 73.0352C485.576 73.0352 486.057 73.1113 486.502 73.2637C486.947 73.4043 487.27 73.5508 487.469 73.7031V75.25C487.223 75.0625 486.889 74.8809 486.467 74.7051C486.045 74.5293 485.611 74.4414 485.166 74.4414C484.615 74.4414 484.199 74.5703 483.918 74.8281C483.648 75.0859 483.514 75.3555 483.514 75.6367C483.514 75.8594 483.59 76.0879 483.742 76.3223C483.906 76.5449 484.188 76.7266 484.586 76.8672L486.062 77.3945C486.637 77.5938 487.064 77.8809 487.346 78.2559C487.627 78.6309 487.768 79.0703 487.768 79.5742C487.768 80.0664 487.627 80.5176 487.346 80.9277C487.076 81.3379 486.695 81.666 486.203 81.9121C485.723 82.1465 485.166 82.2637 484.533 82.2637C484.193 82.2637 483.836 82.2168 483.461 82.123C483.098 82.041 482.77 81.9414 482.477 81.8242C482.184 81.6953 481.967 81.584 481.826 81.4902V79.9434C481.99 80.0605 482.219 80.1953 482.512 80.3477C482.816 80.4883 483.139 80.6113 483.479 80.7168C483.818 80.8105 484.135 80.8574 484.428 80.8574C484.979 80.8574 485.412 80.7344 485.729 80.4883C486.057 80.2422 486.221 79.9375 486.221 79.5742C486.221 79.293 486.109 79.0703 485.887 78.9062C485.676 78.7422 485.365 78.584 484.955 78.4316L483.654 77.957C482.975 77.6992 482.523 77.377 482.301 76.9902C482.078 76.5918 481.967 76.1406 481.967 75.6367C481.967 74.8867 482.248 74.2656 482.811 73.7734C483.373 73.2812 484.123 73.0352 485.061 73.0352ZM492.584 73.0352C493.1 73.0352 493.58 73.1113 494.025 73.2637C494.471 73.4043 494.793 73.5508 494.992 73.7031V75.25C494.746 75.0625 494.412 74.8809 493.99 74.7051C493.568 74.5293 493.135 74.4414 492.689 74.4414C492.139 74.4414 491.723 74.5703 491.441 74.8281C491.172 75.0859 491.037 75.3555 491.037 75.6367C491.037 75.8594 491.113 76.0879 491.266 76.3223C491.43 76.5449 491.711 76.7266 492.109 76.8672L493.586 77.3945C494.16 77.5938 494.588 77.8809 494.869 78.2559C495.15 78.6309 495.291 79.0703 495.291 79.5742C495.291 80.0664 495.15 80.5176 494.869 80.9277C494.6 81.3379 494.219 81.666 493.727 81.9121C493.246 82.1465 492.689 82.2637 492.057 82.2637C491.717 82.2637 491.359 82.2168 490.984 82.123C490.621 82.041 490.293 81.9414 490 81.8242C489.707 81.6953 489.49 81.584 489.35 81.4902V79.9434C489.514 80.0605 489.742 80.1953 490.035 80.3477C490.34 80.4883 490.662 80.6113 491.002 80.7168C491.342 80.8105 491.658 80.8574 491.951 80.8574C492.502 80.8574 492.936 80.7344 493.252 80.4883C493.58 80.2422 493.744 79.9375 493.744 79.5742C493.744 79.293 493.633 79.0703 493.41 78.9062C493.199 78.7422 492.889 78.584 492.479 78.4316L491.178 77.957C490.498 77.6992 490.047 77.377 489.824 76.9902C489.602 76.5918 489.49 76.1406 489.49 75.6367C489.49 74.8867 489.771 74.2656 490.334 73.7734C490.896 73.2812 491.646 73.0352 492.584 73.0352ZM506.383 73.0352C506.887 73.0352 507.396 73.1582 507.912 73.4043C508.439 73.6387 508.891 73.9668 509.266 74.3887V73.2109H510.707V82H509.266V80.5059C508.961 80.9746 508.545 81.3848 508.018 81.7363C507.502 82.0879 506.91 82.2637 506.242 82.2637C505.492 82.2637 504.807 82.0762 504.186 81.7012C503.564 81.3145 503.066 80.7812 502.691 80.1016C502.328 79.4219 502.146 78.6367 502.146 77.7461C502.146 76.7734 502.328 75.9355 502.691 75.2324C503.066 74.5293 503.576 73.9902 504.221 73.6152C504.865 73.2285 505.586 73.0352 506.383 73.0352ZM506.646 74.4414C506.014 74.4414 505.475 74.5996 505.029 74.916C504.584 75.2324 504.238 75.6426 503.992 76.1465C503.758 76.6387 503.641 77.1719 503.641 77.7461C503.641 78.3086 503.758 78.8301 503.992 79.3105C504.227 79.7793 504.555 80.1543 504.977 80.4355C505.41 80.7168 505.908 80.8574 506.471 80.8574C507.01 80.8574 507.49 80.7168 507.912 80.4355C508.334 80.1543 508.668 79.7676 508.914 79.2754C509.16 78.7715 509.277 78.209 509.266 77.5879L509.248 75.9004C508.885 75.4434 508.492 75.0859 508.07 74.8281C507.66 74.5703 507.186 74.4414 506.646 74.4414ZM517.316 73.0352C517.82 73.0352 518.33 73.1582 518.846 73.4043C519.373 73.6387 519.824 73.9668 520.199 74.3887V73.2109H521.641V81.8242C521.641 82.8672 521.43 83.7344 521.008 84.4258C520.586 85.1172 520.023 85.6328 519.32 85.9727C518.617 86.3125 517.85 86.4824 517.018 86.4824C516.479 86.4824 516.016 86.418 515.629 86.2891C515.254 86.1719 514.932 86.0195 514.662 85.832C514.393 85.6562 514.146 85.4863 513.924 85.3223V83.7754C514.1 83.9043 514.328 84.0684 514.609 84.2676C514.902 84.4785 515.248 84.666 515.646 84.8301C516.057 84.9941 516.514 85.0762 517.018 85.0762C517.592 85.0762 518.119 84.9707 518.6 84.7598C519.08 84.5488 519.467 84.2383 519.76 83.8281C520.053 83.418 520.199 82.9258 520.199 82.3516V80.5059C519.895 80.9746 519.479 81.3848 518.951 81.7363C518.436 82.0879 517.844 82.2637 517.176 82.2637C516.426 82.2637 515.74 82.0762 515.119 81.7012C514.498 81.3145 514 80.7812 513.625 80.1016C513.262 79.4219 513.08 78.6367 513.08 77.7461C513.08 76.7734 513.262 75.9355 513.625 75.2324C514 74.5293 514.51 73.9902 515.154 73.6152C515.799 73.2285 516.52 73.0352 517.316 73.0352ZM517.58 74.459C516.947 74.459 516.408 74.6172 515.963 74.9336C515.518 75.2383 515.172 75.6426 514.926 76.1465C514.691 76.6387 514.574 77.1719 514.574 77.7461C514.574 78.3086 514.691 78.8242 514.926 79.293C515.16 79.7617 515.488 80.1367 515.91 80.418C516.344 80.6992 516.842 80.8398 517.404 80.8398C517.943 80.8398 518.424 80.6992 518.846 80.418C519.268 80.1367 519.602 79.75 519.848 79.2578C520.094 78.7656 520.211 78.209 520.199 77.5879L520.182 75.9004C519.818 75.4434 519.426 75.0918 519.004 74.8457C518.594 74.5879 518.119 74.459 517.58 74.459ZM528.25 73.0352C528.754 73.0352 529.264 73.1582 529.779 73.4043C530.307 73.6387 530.758 73.9668 531.133 74.3887V73.2109H532.574V82H531.133V80.5059C530.828 80.9746 530.412 81.3848 529.885 81.7363C529.369 82.0879 528.777 82.2637 528.109 82.2637C527.359 82.2637 526.674 82.0762 526.053 81.7012C525.432 81.3145 524.934 80.7812 524.559 80.1016C524.195 79.4219 524.014 78.6367 524.014 77.7461C524.014 76.7734 524.195 75.9355 524.559 75.2324C524.934 74.5293 525.443 73.9902 526.088 73.6152C526.732 73.2285 527.453 73.0352 528.25 73.0352ZM528.514 74.4414C527.881 74.4414 527.342 74.5996 526.896 74.916C526.451 75.2324 526.105 75.6426 525.859 76.1465C525.625 76.6387 525.508 77.1719 525.508 77.7461C525.508 78.3086 525.625 78.8301 525.859 79.3105C526.094 79.7793 526.422 80.1543 526.844 80.4355C527.277 80.7168 527.775 80.8574 528.338 80.8574C528.877 80.8574 529.357 80.7168 529.779 80.4355C530.201 80.1543 530.535 79.7676 530.781 79.2754C531.027 78.7715 531.145 78.209 531.133 77.5879L531.115 75.9004C530.752 75.4434 530.359 75.0859 529.938 74.8281C529.527 74.5703 529.053 74.4414 528.514 74.4414ZM536.969 68.9922C537.309 68.9922 537.59 69.1152 537.812 69.3613C538.047 69.5957 538.164 69.8711 538.164 70.1875C538.164 70.4922 538.047 70.7676 537.812 71.0137C537.59 71.2598 537.309 71.3828 536.969 71.3828C536.629 71.3828 536.342 71.2598 536.107 71.0137C535.885 70.7676 535.773 70.4922 535.773 70.1875C535.773 69.8711 535.885 69.5957 536.107 69.3613C536.342 69.1152 536.629 68.9922 536.969 68.9922ZM537.865 73.2109V82H536.424V74.5645H535.035V73.2109H537.865ZM542.418 73.2109V74.5996C542.605 74.3652 542.846 74.1309 543.139 73.8965C543.432 73.6504 543.76 73.4453 544.123 73.2812C544.498 73.1172 544.885 73.0352 545.283 73.0352C545.881 73.0352 546.426 73.1699 546.918 73.4395C547.41 73.6973 547.803 74.0957 548.096 74.6348C548.389 75.1621 548.535 75.8301 548.535 76.6387V82H547.094L547.076 76.7793C547.076 76.0176 546.906 75.4375 546.566 75.0391C546.238 74.6406 545.729 74.4414 545.037 74.4414C544.568 74.4414 544.1 74.6172 543.631 74.9688C543.174 75.3086 542.77 75.707 542.418 76.1641V82H540.977V73.2109H542.418ZM554.424 69.959C555.127 69.959 555.766 70.1055 556.34 70.3984C556.914 70.6914 557.365 71.0957 557.693 71.6113C558.033 72.127 558.203 72.7188 558.203 73.3867C558.203 73.8203 558.092 74.2129 557.869 74.5645C557.658 74.9043 557.389 75.2148 557.061 75.4961C556.744 75.7773 556.428 76.041 556.111 76.2871C555.795 76.5332 555.531 76.7793 555.32 77.0254C555.109 77.2715 555.01 77.5293 555.021 77.7988L555.039 78.168H553.334V77.4648C553.334 77.207 553.434 76.9609 553.633 76.7266C553.844 76.4805 554.102 76.2402 554.406 76.0059C554.711 75.7598 555.016 75.5137 555.32 75.2676C555.637 75.0098 555.895 74.7461 556.094 74.4766C556.305 74.207 556.41 73.9199 556.41 73.6152C556.41 73.041 556.223 72.5664 555.848 72.1914C555.484 71.8164 554.951 71.6289 554.248 71.6289C553.545 71.6289 552.959 71.7695 552.49 72.0508C552.033 72.3203 551.594 72.7246 551.172 73.2637V71.3477C551.488 70.9609 551.939 70.6328 552.525 70.3633C553.111 70.0938 553.744 69.959 554.424 69.959ZM554.266 79.8555C554.605 79.8555 554.893 79.9785 555.127 80.2246C555.373 80.459 555.496 80.7461 555.496 81.0859C555.496 81.4141 555.373 81.7012 555.127 81.9473C554.893 82.1934 554.605 82.3164 554.266 82.3164C553.926 82.3164 553.633 82.1934 553.387 81.9473C553.152 81.7012 553.035 81.4141 553.035 81.0859C553.035 80.7461 553.152 80.459 553.387 80.2246C553.633 79.9785 553.926 79.8555 554.266 79.8555Z" fill="#1F365D"/>
<path d="M799.668 74.6667V66.6667H802.335V74.6667H810.335V77.3334H802.335V85.3334H799.668V77.3334H791.668V74.6667H799.668Z" fill="#1F365D"/>
</g>
<defs>
<filter id="filter0_d_610_6829" x="0" y="0" width="884" height="160" filterUnits="userSpaceOnUse" color-interpolation-filters="sRGB">
<feFlood flood-opacity="0" result="BackgroundImageFix"/>
<feColorMatrix in="SourceAlpha" type="matrix" values="0 0 0 0 0 0 0 0 0 0 0 0 0 0 0 0 0 0 127 0" result="hardAlpha"/>
<feOffset dy="4"/>
<feGaussianBlur stdDeviation="17.5"/>
<feComposite in2="hardAlpha" operator="out"/>
<feColorMatrix type="matrix" values="0 0 0 0 0.920833 0 0 0 0 0.916997 0 0 0 0 0.916997 0 0 0 0.25 0"/>
<feBlend mode="normal" in2="BackgroundImageFix" result="effect1_dropShadow_610_6829"/>
<feBlend mode="normal" in="SourceGraphic" in2="effect1_dropShadow_610_6829" result="shape"/>
</filter>
</defs>
</svg>
