<svg width="884" height="160" viewBox="0 0 884 160" fill="none" xmlns="http://www.w3.org/2000/svg">
<g filter="url(#filter0_d_610_7283)">
<rect x="35" y="31" width="814" height="90" rx="4" fill="white"/>
<path d="M70.5156 70.2227V75.1797H77.2305V70.2227H78.8125V82H77.2305V76.6738H70.5156V82H68.9336V70.2227H70.5156ZM86.2129 73.0352C87.1035 73.0352 87.8945 73.2461 88.5859 73.668C89.2773 74.0898 89.8164 74.6523 90.2031 75.3555C90.6016 76.0586 90.8008 76.8262 90.8008 77.6582C90.8008 78.4902 90.6016 79.2578 90.2031 79.9609C89.8164 80.6523 89.2773 81.209 88.5859 81.6309C87.8945 82.0527 87.1035 82.2637 86.2129 82.2637C85.3223 82.2637 84.5312 82.0527 83.8398 81.6309C83.1484 81.209 82.6035 80.6523 82.2051 79.9609C81.8184 79.2578 81.625 78.4902 81.625 77.6582C81.625 76.8262 81.8184 76.0586 82.2051 75.3555C82.6035 74.6523 83.1484 74.0898 83.8398 73.668C84.5312 73.2461 85.3223 73.0352 86.2129 73.0352ZM86.2129 74.4414C85.5918 74.4414 85.0469 74.5938 84.5781 74.8984C84.1094 75.1914 83.7461 75.584 83.4883 76.0762C83.2422 76.5566 83.1191 77.084 83.1191 77.6582C83.1191 78.2207 83.2422 78.748 83.4883 79.2402C83.7461 79.7207 84.1094 80.1133 84.5781 80.418C85.0469 80.7109 85.5918 80.8574 86.2129 80.8574C86.8457 80.8574 87.3906 80.7109 87.8477 80.418C88.3164 80.1133 88.6738 79.7207 88.9199 79.2402C89.1777 78.748 89.3066 78.2207 89.3066 77.6582C89.3066 77.084 89.1777 76.5566 88.9199 76.0762C88.6738 75.584 88.3164 75.1914 87.8477 74.8984C87.3906 74.5938 86.8457 74.4414 86.2129 74.4414ZM104.705 73.2109L101.629 82H100.732L98.3242 75.7949L95.916 82H95.0195L91.9434 73.2109H93.666L95.6172 79.3809L97.9199 73.2109H98.7285L101.031 79.3809L102.982 73.2109H104.705ZM115.709 73.0352C116.354 73.0352 116.91 73.1406 117.379 73.3516C117.848 73.5508 118.17 73.7324 118.346 73.8965V75.3555C118.018 75.1094 117.643 74.8984 117.221 74.7227C116.799 74.5352 116.295 74.4414 115.709 74.4414C115.088 74.4414 114.543 74.5938 114.074 74.8984C113.605 75.1914 113.242 75.584 112.984 76.0762C112.738 76.5566 112.615 77.084 112.615 77.6582C112.615 78.2207 112.738 78.748 112.984 79.2402C113.242 79.7207 113.605 80.1133 114.074 80.418C114.543 80.7109 115.088 80.8574 115.709 80.8574C116.295 80.8574 116.799 80.7695 117.221 80.5938C117.643 80.4062 118.018 80.1895 118.346 79.9434V81.4023C118.17 81.5781 117.848 81.7656 117.379 81.9648C116.91 82.1641 116.354 82.2637 115.709 82.2637C114.818 82.2637 114.027 82.0527 113.336 81.6309C112.645 81.209 112.1 80.6523 111.701 79.9609C111.314 79.2578 111.121 78.4902 111.121 77.6582C111.121 76.8262 111.314 76.0586 111.701 75.3555C112.1 74.6523 112.645 74.0898 113.336 73.668C114.027 73.2461 114.818 73.0352 115.709 73.0352ZM124.34 73.0352C124.844 73.0352 125.354 73.1582 125.869 73.4043C126.396 73.6387 126.848 73.9668 127.223 74.3887V73.2109H128.664V82H127.223V80.5059C126.918 80.9746 126.502 81.3848 125.975 81.7363C125.459 82.0879 124.867 82.2637 124.199 82.2637C123.449 82.2637 122.764 82.0762 122.143 81.7012C121.521 81.3145 121.023 80.7812 120.648 80.1016C120.285 79.4219 120.104 78.6367 120.104 77.7461C120.104 76.7734 120.285 75.9355 120.648 75.2324C121.023 74.5293 121.533 73.9902 122.178 73.6152C122.822 73.2285 123.543 73.0352 124.34 73.0352ZM124.604 74.4414C123.971 74.4414 123.432 74.5996 122.986 74.916C122.541 75.2324 122.195 75.6426 121.949 76.1465C121.715 76.6387 121.598 77.1719 121.598 77.7461C121.598 78.3086 121.715 78.8301 121.949 79.3105C122.184 79.7793 122.512 80.1543 122.934 80.4355C123.367 80.7168 123.865 80.8574 124.428 80.8574C124.967 80.8574 125.447 80.7168 125.869 80.4355C126.291 80.1543 126.625 79.7676 126.871 79.2754C127.117 78.7715 127.234 78.209 127.223 77.5879L127.205 75.9004C126.842 75.4434 126.449 75.0859 126.027 74.8281C125.617 74.5703 125.143 74.4414 124.604 74.4414ZM133.094 73.2109V74.5996C133.281 74.3652 133.521 74.1309 133.814 73.8965C134.107 73.6504 134.436 73.4453 134.799 73.2812C135.174 73.1172 135.561 73.0352 135.959 73.0352C136.557 73.0352 137.102 73.1699 137.594 73.4395C138.086 73.6973 138.479 74.0957 138.771 74.6348C139.064 75.1621 139.211 75.8301 139.211 76.6387V82H137.77L137.752 76.7793C137.752 76.0176 137.582 75.4375 137.242 75.0391C136.914 74.6406 136.404 74.4414 135.713 74.4414C135.244 74.4414 134.775 74.6172 134.307 74.9688C133.85 75.3086 133.445 75.707 133.094 76.1641V82H131.652V73.2109H133.094ZM153.203 80.5059V82H147.648V80.5059H149.635V71.7168H147.648V70.2227H153.203V71.7168H151.217V80.5059H153.203ZM163.346 73.2109V74.9688C163.686 74.3828 164.096 73.9141 164.576 73.5625C165.057 73.2109 165.549 73.0352 166.053 73.0352C166.393 73.0352 166.697 73.0938 166.967 73.2109V74.8809C166.592 74.6582 166.217 74.5469 165.842 74.5469C165.244 74.5469 164.758 74.7578 164.383 75.1797C164.02 75.6016 163.674 76.1055 163.346 76.6914V82H161.904V73.2109H163.346ZM172.434 73.0352C173.336 73.0352 174.086 73.2227 174.684 73.5977C175.281 73.9727 175.727 74.4824 176.02 75.127C176.324 75.7715 176.477 76.498 176.477 77.3066V78.168H169.727C169.797 78.6602 169.967 79.1113 170.236 79.5215C170.506 79.9316 170.857 80.2598 171.291 80.5059C171.725 80.7402 172.223 80.8574 172.785 80.8574C173.418 80.8574 174.01 80.6992 174.561 80.3828C175.111 80.0547 175.574 79.6973 175.949 79.3105L175.932 80.875C175.768 81.0742 175.521 81.2852 175.193 81.5078C174.877 81.7188 174.508 81.8945 174.086 82.0352C173.676 82.1875 173.242 82.2637 172.785 82.2637C171.895 82.2637 171.104 82.0527 170.412 81.6309C169.721 81.209 169.176 80.6523 168.777 79.9609C168.391 79.2578 168.197 78.4902 168.197 77.6582C168.197 76.8262 168.379 76.0586 168.742 75.3555C169.105 74.6523 169.604 74.0898 170.236 73.668C170.881 73.2461 171.613 73.0352 172.434 73.0352ZM172.434 74.4414C171.707 74.4414 171.109 74.6875 170.641 75.1797C170.172 75.6602 169.879 76.2461 169.762 76.9375H175.053C174.994 76.3633 174.83 75.8945 174.561 75.5312C174.303 75.168 173.986 74.8984 173.611 74.7227C173.236 74.5352 172.844 74.4414 172.434 74.4414ZM182.822 73.0352C183.467 73.0352 184.023 73.1406 184.492 73.3516C184.961 73.5508 185.283 73.7324 185.459 73.8965V75.3555C185.131 75.1094 184.756 74.8984 184.334 74.7227C183.912 74.5352 183.408 74.4414 182.822 74.4414C182.201 74.4414 181.656 74.5938 181.188 74.8984C180.719 75.1914 180.355 75.584 180.098 76.0762C179.852 76.5566 179.729 77.084 179.729 77.6582C179.729 78.2207 179.852 78.748 180.098 79.2402C180.355 79.7207 180.719 80.1133 181.188 80.418C181.656 80.7109 182.201 80.8574 182.822 80.8574C183.408 80.8574 183.912 80.7695 184.334 80.5938C184.756 80.4062 185.131 80.1895 185.459 79.9434V81.4023C185.283 81.5781 184.961 81.7656 184.492 81.9648C184.023 82.1641 183.467 82.2637 182.822 82.2637C181.932 82.2637 181.141 82.0527 180.449 81.6309C179.758 81.209 179.213 80.6523 178.814 79.9609C178.428 79.2578 178.234 78.4902 178.234 77.6582C178.234 76.8262 178.428 76.0586 178.814 75.3555C179.213 74.6523 179.758 74.0898 180.449 73.668C181.141 73.2461 181.932 73.0352 182.822 73.0352ZM191.805 73.0352C192.695 73.0352 193.486 73.2461 194.178 73.668C194.869 74.0898 195.408 74.6523 195.795 75.3555C196.193 76.0586 196.393 76.8262 196.393 77.6582C196.393 78.4902 196.193 79.2578 195.795 79.9609C195.408 80.6523 194.869 81.209 194.178 81.6309C193.486 82.0527 192.695 82.2637 191.805 82.2637C190.914 82.2637 190.123 82.0527 189.432 81.6309C188.74 81.209 188.195 80.6523 187.797 79.9609C187.41 79.2578 187.217 78.4902 187.217 77.6582C187.217 76.8262 187.41 76.0586 187.797 75.3555C188.195 74.6523 188.74 74.0898 189.432 73.668C190.123 73.2461 190.914 73.0352 191.805 73.0352ZM191.805 74.4414C191.184 74.4414 190.639 74.5938 190.17 74.8984C189.701 75.1914 189.338 75.584 189.08 76.0762C188.834 76.5566 188.711 77.084 188.711 77.6582C188.711 78.2207 188.834 78.748 189.08 79.2402C189.338 79.7207 189.701 80.1133 190.17 80.418C190.639 80.7109 191.184 80.8574 191.805 80.8574C192.438 80.8574 192.982 80.7109 193.439 80.418C193.908 80.1133 194.266 79.7207 194.512 79.2402C194.77 78.748 194.898 78.2207 194.898 77.6582C194.898 77.084 194.77 76.5566 194.512 76.0762C194.266 75.584 193.908 75.1914 193.439 74.8984C192.982 74.5938 192.438 74.4414 191.805 74.4414ZM206.166 73.2109L202.035 82H201.139L197.184 73.2109H198.906L201.561 79.6797L204.443 73.2109H206.166ZM211.369 73.0352C212.271 73.0352 213.021 73.2227 213.619 73.5977C214.217 73.9727 214.662 74.4824 214.955 75.127C215.26 75.7715 215.412 76.498 215.412 77.3066V78.168H208.662C208.732 78.6602 208.902 79.1113 209.172 79.5215C209.441 79.9316 209.793 80.2598 210.227 80.5059C210.66 80.7402 211.158 80.8574 211.721 80.8574C212.354 80.8574 212.945 80.6992 213.496 80.3828C214.047 80.0547 214.51 79.6973 214.885 79.3105L214.867 80.875C214.703 81.0742 214.457 81.2852 214.129 81.5078C213.812 81.7188 213.443 81.8945 213.021 82.0352C212.611 82.1875 212.178 82.2637 211.721 82.2637C210.83 82.2637 210.039 82.0527 209.348 81.6309C208.656 81.209 208.111 80.6523 207.713 79.9609C207.326 79.2578 207.133 78.4902 207.133 77.6582C207.133 76.8262 207.314 76.0586 207.678 75.3555C208.041 74.6523 208.539 74.0898 209.172 73.668C209.816 73.2461 210.549 73.0352 211.369 73.0352ZM211.369 74.4414C210.643 74.4414 210.045 74.6875 209.576 75.1797C209.107 75.6602 208.814 76.2461 208.697 76.9375H213.988C213.93 76.3633 213.766 75.8945 213.496 75.5312C213.238 75.168 212.922 74.8984 212.547 74.7227C212.172 74.5352 211.779 74.4414 211.369 74.4414ZM219.227 73.2109V74.9688C219.566 74.3828 219.977 73.9141 220.457 73.5625C220.938 73.2109 221.43 73.0352 221.934 73.0352C222.273 73.0352 222.578 73.0938 222.848 73.2109V74.8809C222.473 74.6582 222.098 74.5469 221.723 74.5469C221.125 74.5469 220.639 74.7578 220.264 75.1797C219.9 75.6016 219.555 76.1055 219.227 76.6914V82H217.785V73.2109H219.227ZM231.408 73.2109V74.3359C231.689 74.0195 232.047 73.7266 232.48 73.457C232.926 73.1758 233.447 73.0352 234.045 73.0352C234.678 73.0352 235.27 73.1875 235.82 73.4922C236.371 73.7852 236.793 74.2305 237.086 74.8281C237.496 74.3359 237.941 73.9141 238.422 73.5625C238.902 73.2109 239.465 73.0352 240.109 73.0352C240.707 73.0352 241.264 73.1699 241.779 73.4395C242.307 73.6973 242.729 74.0957 243.045 74.6348C243.373 75.1621 243.537 75.8301 243.537 76.6387V82H242.096L242.078 76.7793C242.078 76.0176 241.879 75.4375 241.48 75.0391C241.094 74.6406 240.555 74.4414 239.863 74.4414C239.359 74.4414 238.92 74.5996 238.545 74.916C238.17 75.2324 237.812 75.6016 237.473 76.0234V82H236.031L236.014 76.7793C236.014 76.0176 235.814 75.4375 235.416 75.0391C235.029 74.6406 234.49 74.4414 233.799 74.4414C233.318 74.4414 232.879 74.582 232.48 74.8633C232.094 75.1445 231.736 75.4844 231.408 75.8828V82H229.967V73.2109H231.408ZM246.754 73.2109L249.83 79.6797L252.818 73.2109H254.541L248.072 86.2188H246.402L248.916 81.4727L245.031 73.2109H246.754ZM265.193 73.0352C265.697 73.0352 266.207 73.1582 266.723 73.4043C267.25 73.6387 267.701 73.9668 268.076 74.3887V73.2109H269.518V82H268.076V80.5059C267.771 80.9746 267.355 81.3848 266.828 81.7363C266.312 82.0879 265.721 82.2637 265.053 82.2637C264.303 82.2637 263.617 82.0762 262.996 81.7012C262.375 81.3145 261.877 80.7812 261.502 80.1016C261.139 79.4219 260.957 78.6367 260.957 77.7461C260.957 76.7734 261.139 75.9355 261.502 75.2324C261.877 74.5293 262.387 73.9902 263.031 73.6152C263.676 73.2285 264.396 73.0352 265.193 73.0352ZM265.457 74.4414C264.824 74.4414 264.285 74.5996 263.84 74.916C263.395 75.2324 263.049 75.6426 262.803 76.1465C262.568 76.6387 262.451 77.1719 262.451 77.7461C262.451 78.3086 262.568 78.8301 262.803 79.3105C263.037 79.7793 263.365 80.1543 263.787 80.4355C264.221 80.7168 264.719 80.8574 265.281 80.8574C265.82 80.8574 266.301 80.7168 266.723 80.4355C267.145 80.1543 267.479 79.7676 267.725 79.2754C267.971 78.7715 268.088 78.209 268.076 77.5879L268.059 75.9004C267.695 75.4434 267.303 75.0859 266.881 74.8281C266.471 74.5703 265.996 74.4414 265.457 74.4414ZM276.479 73.0352C277.123 73.0352 277.68 73.1406 278.148 73.3516C278.617 73.5508 278.939 73.7324 279.115 73.8965V75.3555C278.787 75.1094 278.412 74.8984 277.99 74.7227C277.568 74.5352 277.064 74.4414 276.479 74.4414C275.857 74.4414 275.312 74.5938 274.844 74.8984C274.375 75.1914 274.012 75.584 273.754 76.0762C273.508 76.5566 273.385 77.084 273.385 77.6582C273.385 78.2207 273.508 78.748 273.754 79.2402C274.012 79.7207 274.375 80.1133 274.844 80.418C275.312 80.7109 275.857 80.8574 276.479 80.8574C277.064 80.8574 277.568 80.7695 277.99 80.5938C278.412 80.4062 278.787 80.1895 279.115 79.9434V81.4023C278.939 81.5781 278.617 81.7656 278.148 81.9648C277.68 82.1641 277.123 82.2637 276.479 82.2637C275.588 82.2637 274.797 82.0527 274.105 81.6309C273.414 81.209 272.869 80.6523 272.471 79.9609C272.084 79.2578 271.891 78.4902 271.891 77.6582C271.891 76.8262 272.084 76.0586 272.471 75.3555C272.869 74.6523 273.414 74.0898 274.105 73.668C274.797 73.2461 275.588 73.0352 276.479 73.0352ZM285.461 73.0352C286.105 73.0352 286.662 73.1406 287.131 73.3516C287.6 73.5508 287.922 73.7324 288.098 73.8965V75.3555C287.77 75.1094 287.395 74.8984 286.973 74.7227C286.551 74.5352 286.047 74.4414 285.461 74.4414C284.84 74.4414 284.295 74.5938 283.826 74.8984C283.357 75.1914 282.994 75.584 282.736 76.0762C282.49 76.5566 282.367 77.084 282.367 77.6582C282.367 78.2207 282.49 78.748 282.736 79.2402C282.994 79.7207 283.357 80.1133 283.826 80.418C284.295 80.7109 284.84 80.8574 285.461 80.8574C286.047 80.8574 286.551 80.7695 286.973 80.5938C287.395 80.4062 287.77 80.1895 288.098 79.9434V81.4023C287.922 81.5781 287.6 81.7656 287.131 81.9648C286.662 82.1641 286.105 82.2637 285.461 82.2637C284.57 82.2637 283.779 82.0527 283.088 81.6309C282.396 81.209 281.852 80.6523 281.453 79.9609C281.066 79.2578 280.873 78.4902 280.873 77.6582C280.873 76.8262 281.066 76.0586 281.453 75.3555C281.852 74.6523 282.396 74.0898 283.088 73.668C283.779 73.2461 284.57 73.0352 285.461 73.0352ZM294.443 73.0352C295.334 73.0352 296.125 73.2461 296.816 73.668C297.508 74.0898 298.047 74.6523 298.434 75.3555C298.832 76.0586 299.031 76.8262 299.031 77.6582C299.031 78.4902 298.832 79.2578 298.434 79.9609C298.047 80.6523 297.508 81.209 296.816 81.6309C296.125 82.0527 295.334 82.2637 294.443 82.2637C293.553 82.2637 292.762 82.0527 292.07 81.6309C291.379 81.209 290.834 80.6523 290.436 79.9609C290.049 79.2578 289.855 78.4902 289.855 77.6582C289.855 76.8262 290.049 76.0586 290.436 75.3555C290.834 74.6523 291.379 74.0898 292.07 73.668C292.762 73.2461 293.553 73.0352 294.443 73.0352ZM294.443 74.4414C293.822 74.4414 293.277 74.5938 292.809 74.8984C292.34 75.1914 291.977 75.584 291.719 76.0762C291.473 76.5566 291.35 77.084 291.35 77.6582C291.35 78.2207 291.473 78.748 291.719 79.2402C291.977 79.7207 292.34 80.1133 292.809 80.418C293.277 80.7109 293.822 80.8574 294.443 80.8574C295.076 80.8574 295.621 80.7109 296.078 80.418C296.547 80.1133 296.904 79.7207 297.15 79.2402C297.408 78.748 297.537 78.2207 297.537 77.6582C297.537 77.084 297.408 76.5566 297.15 76.0762C296.904 75.584 296.547 75.1914 296.078 74.8984C295.621 74.5938 295.076 74.4414 294.443 74.4414ZM308.594 73.2109V78.4141C308.594 79.1875 308.43 79.8555 308.102 80.418C307.773 80.9805 307.328 81.4141 306.766 81.7188C306.203 82.0234 305.57 82.1758 304.867 82.1758C304.164 82.1758 303.531 82.0234 302.969 81.7188C302.406 81.4141 301.961 80.9805 301.633 80.418C301.305 79.8555 301.141 79.1875 301.141 78.4141V73.2109H302.635V78.4141C302.635 79.1758 302.857 79.7617 303.303 80.1719C303.76 80.5703 304.281 80.7695 304.867 80.7695C305.453 80.7695 305.969 80.5703 306.414 80.1719C306.871 79.7617 307.1 79.1758 307.1 78.4141V73.2109H308.594ZM312.76 73.2109V74.5996C312.947 74.3652 313.188 74.1309 313.48 73.8965C313.773 73.6504 314.102 73.4453 314.465 73.2812C314.84 73.1172 315.227 73.0352 315.625 73.0352C316.223 73.0352 316.768 73.1699 317.26 73.4395C317.752 73.6973 318.145 74.0957 318.438 74.6348C318.73 75.1621 318.877 75.8301 318.877 76.6387V82H317.436L317.418 76.7793C317.418 76.0176 317.248 75.4375 316.908 75.0391C316.58 74.6406 316.07 74.4414 315.379 74.4414C314.91 74.4414 314.441 74.6172 313.973 74.9688C313.516 75.3086 313.111 75.707 312.76 76.1641V82H311.318V73.2109H312.76ZM324.027 70.6797V73.2109H326.594V74.5645H324.027V79.7148C324.027 80.0781 324.121 80.3652 324.309 80.5762C324.496 80.7871 324.783 80.8926 325.17 80.8926C325.521 80.8926 325.814 80.8516 326.049 80.7695C326.283 80.6758 326.488 80.5762 326.664 80.4707V81.6484C326.43 81.8359 326.178 81.9824 325.908 82.0879C325.65 82.2051 325.299 82.2637 324.854 82.2637C324.104 82.2637 323.535 82.041 323.148 81.5957C322.773 81.1387 322.586 80.5352 322.586 79.7852V74.5645H320.898V74.1426C321.473 73.8848 321.953 73.4629 322.34 72.877C322.727 72.2793 323.066 71.5469 323.359 70.6797H324.027ZM332.377 69.959C333.08 69.959 333.719 70.1055 334.293 70.3984C334.867 70.6914 335.318 71.0957 335.646 71.6113C335.986 72.127 336.156 72.7188 336.156 73.3867C336.156 73.8203 336.045 74.2129 335.822 74.5645C335.611 74.9043 335.342 75.2148 335.014 75.4961C334.697 75.7773 334.381 76.041 334.064 76.2871C333.748 76.5332 333.484 76.7793 333.273 77.0254C333.062 77.2715 332.963 77.5293 332.975 77.7988L332.992 78.168H331.287V77.4648C331.287 77.207 331.387 76.9609 331.586 76.7266C331.797 76.4805 332.055 76.2402 332.359 76.0059C332.664 75.7598 332.969 75.5137 333.273 75.2676C333.59 75.0098 333.848 74.7461 334.047 74.4766C334.258 74.207 334.363 73.9199 334.363 73.6152C334.363 73.041 334.176 72.5664 333.801 72.1914C333.438 71.8164 332.904 71.6289 332.201 71.6289C331.498 71.6289 330.912 71.7695 330.443 72.0508C329.986 72.3203 329.547 72.7246 329.125 73.2637V71.3477C329.441 70.9609 329.893 70.6328 330.479 70.3633C331.064 70.0938 331.697 69.959 332.377 69.959ZM332.219 79.8555C332.559 79.8555 332.846 79.9785 333.08 80.2246C333.326 80.459 333.449 80.7461 333.449 81.0859C333.449 81.4141 333.326 81.7012 333.08 81.9473C332.846 82.1934 332.559 82.3164 332.219 82.3164C331.879 82.3164 331.586 82.1934 331.34 81.9473C331.105 81.7012 330.988 81.4141 330.988 81.0859C330.988 80.7461 331.105 80.459 331.34 80.2246C331.586 79.9785 331.879 79.8555 332.219 79.8555Z" fill="#1F365D"/>
<path d="M799.668 74.6665V66.6665H802.335V74.6665H810.335V77.3332H802.335V85.3332H799.668V77.3332H791.668V74.6665H799.668Z" fill="#1F365D"/>
</g>
<defs>
<filter id="filter0_d_610_7283" x="0" y="0" width="884" height="160" filterUnits="userSpaceOnUse" color-interpolation-filters="sRGB">
<feFlood flood-opacity="0" result="BackgroundImageFix"/>
<feColorMatrix in="SourceAlpha" type="matrix" values="0 0 0 0 0 0 0 0 0 0 0 0 0 0 0 0 0 0 127 0" result="hardAlpha"/>
<feOffset dy="4"/>
<feGaussianBlur stdDeviation="17.5"/>
<feComposite in2="hardAlpha" operator="out"/>
<feColorMatrix type="matrix" values="0 0 0 0 0.920833 0 0 0 0 0.916997 0 0 0 0 0.916997 0 0 0 0.25 0"/>
<feBlend mode="normal" in2="BackgroundImageFix" result="effect1_dropShadow_610_7283"/>
<feBlend mode="normal" in="SourceGraphic" in2="effect1_dropShadow_610_7283" result="shape"/>
</filter>
</defs>
</svg>
