<svg width="41" height="48" viewBox="0 0 41 48" fill="none" xmlns="http://www.w3.org/2000/svg">
<path d="M20.1562 15.9375C24.5573 15.9375 28.125 12.3698 28.125 7.96875C28.125 3.56773 24.5573 0 20.1562 0C15.7552 0 12.1875 3.56773 12.1875 7.96875C12.1875 12.3698 15.7552 15.9375 20.1562 15.9375Z" fill="#45B5E3"/>
<path d="M26.0118 17.0171C24.3245 18.1127 22.3135 18.7501 20.1562 18.7501C17.999 18.7501 15.9879 18.1127 14.3007 17.0171C12.4355 17.7299 10.7062 18.7815 9.20258 20.1311L20.1562 24.2387L31.1099 20.1311C29.6062 18.7815 27.8769 17.7298 26.0118 17.0171Z" fill="#45B5E3"/>
<path d="M37.0312 29.0625H36.0938C35.3171 29.0625 34.6875 29.6921 34.6875 30.4688V34.2188C34.6875 34.9954 35.3171 35.625 36.0938 35.625H37.0312C38.8434 35.625 40.3125 34.1559 40.3125 32.3438C40.3125 30.5316 38.8434 29.0625 37.0312 29.0625Z" fill="#45B5E3"/>
<path d="M4.35525 21.9632C3.97613 22.226 3.75 22.6578 3.75 23.119V26.2498H4.21875C6.54497 26.2498 8.4375 28.1423 8.4375 30.4685V34.2185C8.4375 36.5447 6.54497 38.4373 4.21875 38.4373H3.75V41.4002C3.75 41.9865 4.11366 42.5112 4.66247 42.717L18.75 47.9998V26.7148L5.65003 21.8023C5.21812 21.6402 4.73428 21.7003 4.35525 21.9632Z" fill="#45B5E3"/>
<path d="M31.875 34.2185V30.4685C31.875 28.1423 33.7675 26.2498 36.0938 26.2498H36.5625V23.119C36.5625 22.6578 36.3364 22.226 35.9573 21.9632C35.5781 21.7003 35.0942 21.6402 34.6625 21.8023L21.5625 26.7148V47.9998L35.65 42.717C36.1988 42.5112 36.5625 41.9865 36.5625 41.4002V38.4373H36.0938C33.7675 38.4373 31.875 36.5447 31.875 34.2185Z" fill="#45B5E3"/>
<path d="M5.625 34.2188V30.4688C5.625 29.6921 4.99538 29.0625 4.21875 29.0625H3.28125C1.46906 29.0625 0 30.5316 0 32.3438C0 34.1559 1.46906 35.625 3.28125 35.625H4.21875C4.99538 35.625 5.625 34.9954 5.625 34.2188Z" fill="#45B5E3"/>
</svg>
