<svg width="884" height="160" viewBox="0 0 884 160" fill="none" xmlns="http://www.w3.org/2000/svg">
<g filter="url(#filter0_d_610_7276)">
<rect x="35" y="31" width="814" height="90" rx="4" fill="white"/>
<path d="M70.5156 70.2227V75.1797H77.2305V70.2227H78.8125V82H77.2305V76.6738H70.5156V82H68.9336V70.2227H70.5156ZM86.2129 73.0352C87.1035 73.0352 87.8945 73.2461 88.5859 73.668C89.2773 74.0898 89.8164 74.6523 90.2031 75.3555C90.6016 76.0586 90.8008 76.8262 90.8008 77.6582C90.8008 78.4902 90.6016 79.2578 90.2031 79.9609C89.8164 80.6523 89.2773 81.209 88.5859 81.6309C87.8945 82.0527 87.1035 82.2637 86.2129 82.2637C85.3223 82.2637 84.5312 82.0527 83.8398 81.6309C83.1484 81.209 82.6035 80.6523 82.2051 79.9609C81.8184 79.2578 81.625 78.4902 81.625 77.6582C81.625 76.8262 81.8184 76.0586 82.2051 75.3555C82.6035 74.6523 83.1484 74.0898 83.8398 73.668C84.5312 73.2461 85.3223 73.0352 86.2129 73.0352ZM86.2129 74.4414C85.5918 74.4414 85.0469 74.5938 84.5781 74.8984C84.1094 75.1914 83.7461 75.584 83.4883 76.0762C83.2422 76.5566 83.1191 77.084 83.1191 77.6582C83.1191 78.2207 83.2422 78.748 83.4883 79.2402C83.7461 79.7207 84.1094 80.1133 84.5781 80.418C85.0469 80.7109 85.5918 80.8574 86.2129 80.8574C86.8457 80.8574 87.3906 80.7109 87.8477 80.418C88.3164 80.1133 88.6738 79.7207 88.9199 79.2402C89.1777 78.748 89.3066 78.2207 89.3066 77.6582C89.3066 77.084 89.1777 76.5566 88.9199 76.0762C88.6738 75.584 88.3164 75.1914 87.8477 74.8984C87.3906 74.5938 86.8457 74.4414 86.2129 74.4414ZM104.705 73.2109L101.629 82H100.732L98.3242 75.7949L95.916 82H95.0195L91.9434 73.2109H93.666L95.6172 79.3809L97.9199 73.2109H98.7285L101.031 79.3809L102.982 73.2109H104.705ZM115.709 73.0352C116.354 73.0352 116.91 73.1406 117.379 73.3516C117.848 73.5508 118.17 73.7324 118.346 73.8965V75.3555C118.018 75.1094 117.643 74.8984 117.221 74.7227C116.799 74.5352 116.295 74.4414 115.709 74.4414C115.088 74.4414 114.543 74.5938 114.074 74.8984C113.605 75.1914 113.242 75.584 112.984 76.0762C112.738 76.5566 112.615 77.084 112.615 77.6582C112.615 78.2207 112.738 78.748 112.984 79.2402C113.242 79.7207 113.605 80.1133 114.074 80.418C114.543 80.7109 115.088 80.8574 115.709 80.8574C116.295 80.8574 116.799 80.7695 117.221 80.5938C117.643 80.4062 118.018 80.1895 118.346 79.9434V81.4023C118.17 81.5781 117.848 81.7656 117.379 81.9648C116.91 82.1641 116.354 82.2637 115.709 82.2637C114.818 82.2637 114.027 82.0527 113.336 81.6309C112.645 81.209 112.1 80.6523 111.701 79.9609C111.314 79.2578 111.121 78.4902 111.121 77.6582C111.121 76.8262 111.314 76.0586 111.701 75.3555C112.1 74.6523 112.645 74.0898 113.336 73.668C114.027 73.2461 114.818 73.0352 115.709 73.0352ZM124.34 73.0352C124.844 73.0352 125.354 73.1582 125.869 73.4043C126.396 73.6387 126.848 73.9668 127.223 74.3887V73.2109H128.664V82H127.223V80.5059C126.918 80.9746 126.502 81.3848 125.975 81.7363C125.459 82.0879 124.867 82.2637 124.199 82.2637C123.449 82.2637 122.764 82.0762 122.143 81.7012C121.521 81.3145 121.023 80.7812 120.648 80.1016C120.285 79.4219 120.104 78.6367 120.104 77.7461C120.104 76.7734 120.285 75.9355 120.648 75.2324C121.023 74.5293 121.533 73.9902 122.178 73.6152C122.822 73.2285 123.543 73.0352 124.34 73.0352ZM124.604 74.4414C123.971 74.4414 123.432 74.5996 122.986 74.916C122.541 75.2324 122.195 75.6426 121.949 76.1465C121.715 76.6387 121.598 77.1719 121.598 77.7461C121.598 78.3086 121.715 78.8301 121.949 79.3105C122.184 79.7793 122.512 80.1543 122.934 80.4355C123.367 80.7168 123.865 80.8574 124.428 80.8574C124.967 80.8574 125.447 80.7168 125.869 80.4355C126.291 80.1543 126.625 79.7676 126.871 79.2754C127.117 78.7715 127.234 78.209 127.223 77.5879L127.205 75.9004C126.842 75.4434 126.449 75.0859 126.027 74.8281C125.617 74.5703 125.143 74.4414 124.604 74.4414ZM133.094 73.2109V74.5996C133.281 74.3652 133.521 74.1309 133.814 73.8965C134.107 73.6504 134.436 73.4453 134.799 73.2812C135.174 73.1172 135.561 73.0352 135.959 73.0352C136.557 73.0352 137.102 73.1699 137.594 73.4395C138.086 73.6973 138.479 74.0957 138.771 74.6348C139.064 75.1621 139.211 75.8301 139.211 76.6387V82H137.77L137.752 76.7793C137.752 76.0176 137.582 75.4375 137.242 75.0391C136.914 74.6406 136.404 74.4414 135.713 74.4414C135.244 74.4414 134.775 74.6172 134.307 74.9688C133.85 75.3086 133.445 75.707 133.094 76.1641V82H131.652V73.2109H133.094ZM153.203 80.5059V82H147.648V80.5059H149.635V71.7168H147.648V70.2227H153.203V71.7168H151.217V80.5059H153.203ZM169.85 69.3438V82H168.408V80.5059C168.104 80.9746 167.688 81.3848 167.16 81.7363C166.645 82.0879 166.053 82.2637 165.385 82.2637C164.635 82.2637 163.949 82.0762 163.328 81.7012C162.707 81.3145 162.209 80.7812 161.834 80.1016C161.471 79.4219 161.289 78.6367 161.289 77.7461C161.289 76.7734 161.471 75.9355 161.834 75.2324C162.209 74.5293 162.719 73.9902 163.363 73.6152C164.008 73.2285 164.729 73.0352 165.525 73.0352C166.029 73.0352 166.539 73.1582 167.055 73.4043C167.582 73.6387 168.033 73.9668 168.408 74.3887V69.3438H169.85ZM165.789 74.4766C165.156 74.4766 164.617 74.6348 164.172 74.9512C163.727 75.2559 163.381 75.6543 163.135 76.1465C162.9 76.6387 162.783 77.1719 162.783 77.7461C162.783 78.3086 162.9 78.8301 163.135 79.3105C163.369 79.7793 163.697 80.1543 164.119 80.4355C164.553 80.7168 165.051 80.8574 165.613 80.8574C166.152 80.8574 166.633 80.7168 167.055 80.4355C167.477 80.1543 167.811 79.7676 168.057 79.2754C168.303 78.7715 168.42 78.209 168.408 77.5879L168.391 75.9004C168.027 75.4434 167.635 75.0918 167.213 74.8457C166.803 74.5996 166.328 74.4766 165.789 74.4766ZM176.459 73.0352C177.361 73.0352 178.111 73.2227 178.709 73.5977C179.307 73.9727 179.752 74.4824 180.045 75.127C180.35 75.7715 180.502 76.498 180.502 77.3066V78.168H173.752C173.822 78.6602 173.992 79.1113 174.262 79.5215C174.531 79.9316 174.883 80.2598 175.316 80.5059C175.75 80.7402 176.248 80.8574 176.811 80.8574C177.443 80.8574 178.035 80.6992 178.586 80.3828C179.137 80.0547 179.6 79.6973 179.975 79.3105L179.957 80.875C179.793 81.0742 179.547 81.2852 179.219 81.5078C178.902 81.7188 178.533 81.8945 178.111 82.0352C177.701 82.1875 177.268 82.2637 176.811 82.2637C175.92 82.2637 175.129 82.0527 174.438 81.6309C173.746 81.209 173.201 80.6523 172.803 79.9609C172.416 79.2578 172.223 78.4902 172.223 77.6582C172.223 76.8262 172.404 76.0586 172.768 75.3555C173.131 74.6523 173.629 74.0898 174.262 73.668C174.906 73.2461 175.639 73.0352 176.459 73.0352ZM176.459 74.4414C175.732 74.4414 175.135 74.6875 174.666 75.1797C174.197 75.6602 173.904 76.2461 173.787 76.9375H179.078C179.02 76.3633 178.855 75.8945 178.586 75.5312C178.328 75.168 178.012 74.8984 177.637 74.7227C177.262 74.5352 176.869 74.4414 176.459 74.4414ZM184.316 69.3438V82H182.875V69.3438H184.316ZM190.926 73.0352C191.828 73.0352 192.578 73.2227 193.176 73.5977C193.773 73.9727 194.219 74.4824 194.512 75.127C194.816 75.7715 194.969 76.498 194.969 77.3066V78.168H188.219C188.289 78.6602 188.459 79.1113 188.729 79.5215C188.998 79.9316 189.35 80.2598 189.783 80.5059C190.217 80.7402 190.715 80.8574 191.277 80.8574C191.91 80.8574 192.502 80.6992 193.053 80.3828C193.604 80.0547 194.066 79.6973 194.441 79.3105L194.424 80.875C194.26 81.0742 194.014 81.2852 193.686 81.5078C193.369 81.7188 193 81.8945 192.578 82.0352C192.168 82.1875 191.734 82.2637 191.277 82.2637C190.387 82.2637 189.596 82.0527 188.904 81.6309C188.213 81.209 187.668 80.6523 187.27 79.9609C186.883 79.2578 186.689 78.4902 186.689 77.6582C186.689 76.8262 186.871 76.0586 187.234 75.3555C187.598 74.6523 188.096 74.0898 188.729 73.668C189.373 73.2461 190.105 73.0352 190.926 73.0352ZM190.926 74.4414C190.199 74.4414 189.602 74.6875 189.133 75.1797C188.664 75.6602 188.371 76.2461 188.254 76.9375H193.545C193.486 76.3633 193.322 75.8945 193.053 75.5312C192.795 75.168 192.479 74.8984 192.104 74.7227C191.729 74.5352 191.336 74.4414 190.926 74.4414ZM199.768 70.6797V73.2109H202.334V74.5645H199.768V79.7148C199.768 80.0781 199.861 80.3652 200.049 80.5762C200.236 80.7871 200.523 80.8926 200.91 80.8926C201.262 80.8926 201.555 80.8516 201.789 80.7695C202.023 80.6758 202.229 80.5762 202.404 80.4707V81.6484C202.17 81.8359 201.918 81.9824 201.648 82.0879C201.391 82.2051 201.039 82.2637 200.594 82.2637C199.844 82.2637 199.275 82.041 198.889 81.5957C198.514 81.1387 198.326 80.5352 198.326 79.7852V74.5645H196.639V74.1426C197.213 73.8848 197.693 73.4629 198.08 72.877C198.467 72.2793 198.807 71.5469 199.1 70.6797H199.768ZM208.574 73.0352C209.477 73.0352 210.227 73.2227 210.824 73.5977C211.422 73.9727 211.867 74.4824 212.16 75.127C212.465 75.7715 212.617 76.498 212.617 77.3066V78.168H205.867C205.938 78.6602 206.107 79.1113 206.377 79.5215C206.646 79.9316 206.998 80.2598 207.432 80.5059C207.865 80.7402 208.363 80.8574 208.926 80.8574C209.559 80.8574 210.15 80.6992 210.701 80.3828C211.252 80.0547 211.715 79.6973 212.09 79.3105L212.072 80.875C211.908 81.0742 211.662 81.2852 211.334 81.5078C211.018 81.7188 210.648 81.8945 210.227 82.0352C209.816 82.1875 209.383 82.2637 208.926 82.2637C208.035 82.2637 207.244 82.0527 206.553 81.6309C205.861 81.209 205.316 80.6523 204.918 79.9609C204.531 79.2578 204.338 78.4902 204.338 77.6582C204.338 76.8262 204.52 76.0586 204.883 75.3555C205.246 74.6523 205.744 74.0898 206.377 73.668C207.021 73.2461 207.754 73.0352 208.574 73.0352ZM208.574 74.4414C207.848 74.4414 207.25 74.6875 206.781 75.1797C206.312 75.6602 206.02 76.2461 205.902 76.9375H211.193C211.135 76.3633 210.971 75.8945 210.701 75.5312C210.443 75.168 210.127 74.8984 209.752 74.7227C209.377 74.5352 208.984 74.4414 208.574 74.4414ZM221.705 73.2109V74.3359C221.986 74.0195 222.344 73.7266 222.777 73.457C223.223 73.1758 223.744 73.0352 224.342 73.0352C224.975 73.0352 225.566 73.1875 226.117 73.4922C226.668 73.7852 227.09 74.2305 227.383 74.8281C227.793 74.3359 228.238 73.9141 228.719 73.5625C229.199 73.2109 229.762 73.0352 230.406 73.0352C231.004 73.0352 231.561 73.1699 232.076 73.4395C232.604 73.6973 233.025 74.0957 233.342 74.6348C233.67 75.1621 233.834 75.8301 233.834 76.6387V82H232.393L232.375 76.7793C232.375 76.0176 232.176 75.4375 231.777 75.0391C231.391 74.6406 230.852 74.4414 230.16 74.4414C229.656 74.4414 229.217 74.5996 228.842 74.916C228.467 75.2324 228.109 75.6016 227.77 76.0234V82H226.328L226.311 76.7793C226.311 76.0176 226.111 75.4375 225.713 75.0391C225.326 74.6406 224.787 74.4414 224.096 74.4414C223.615 74.4414 223.176 74.582 222.777 74.8633C222.391 75.1445 222.033 75.4844 221.705 75.8828V82H220.264V73.2109H221.705ZM237.051 73.2109L240.127 79.6797L243.115 73.2109H244.838L238.369 86.2188H236.699L239.213 81.4727L235.328 73.2109H237.051ZM255.49 73.0352C255.994 73.0352 256.504 73.1582 257.02 73.4043C257.547 73.6387 257.998 73.9668 258.373 74.3887V73.2109H259.814V82H258.373V80.5059C258.068 80.9746 257.652 81.3848 257.125 81.7363C256.609 82.0879 256.018 82.2637 255.35 82.2637C254.6 82.2637 253.914 82.0762 253.293 81.7012C252.672 81.3145 252.174 80.7812 251.799 80.1016C251.436 79.4219 251.254 78.6367 251.254 77.7461C251.254 76.7734 251.436 75.9355 251.799 75.2324C252.174 74.5293 252.684 73.9902 253.328 73.6152C253.973 73.2285 254.693 73.0352 255.49 73.0352ZM255.754 74.4414C255.121 74.4414 254.582 74.5996 254.137 74.916C253.691 75.2324 253.346 75.6426 253.1 76.1465C252.865 76.6387 252.748 77.1719 252.748 77.7461C252.748 78.3086 252.865 78.8301 253.1 79.3105C253.334 79.7793 253.662 80.1543 254.084 80.4355C254.518 80.7168 255.016 80.8574 255.578 80.8574C256.117 80.8574 256.598 80.7168 257.02 80.4355C257.441 80.1543 257.775 79.7676 258.021 79.2754C258.268 78.7715 258.385 78.209 258.373 77.5879L258.355 75.9004C257.992 75.4434 257.6 75.0859 257.178 74.8281C256.768 74.5703 256.293 74.4414 255.754 74.4414ZM266.775 73.0352C267.42 73.0352 267.977 73.1406 268.445 73.3516C268.914 73.5508 269.236 73.7324 269.412 73.8965V75.3555C269.084 75.1094 268.709 74.8984 268.287 74.7227C267.865 74.5352 267.361 74.4414 266.775 74.4414C266.154 74.4414 265.609 74.5938 265.141 74.8984C264.672 75.1914 264.309 75.584 264.051 76.0762C263.805 76.5566 263.682 77.084 263.682 77.6582C263.682 78.2207 263.805 78.748 264.051 79.2402C264.309 79.7207 264.672 80.1133 265.141 80.418C265.609 80.7109 266.154 80.8574 266.775 80.8574C267.361 80.8574 267.865 80.7695 268.287 80.5938C268.709 80.4062 269.084 80.1895 269.412 79.9434V81.4023C269.236 81.5781 268.914 81.7656 268.445 81.9648C267.977 82.1641 267.42 82.2637 266.775 82.2637C265.885 82.2637 265.094 82.0527 264.402 81.6309C263.711 81.209 263.166 80.6523 262.768 79.9609C262.381 79.2578 262.188 78.4902 262.188 77.6582C262.188 76.8262 262.381 76.0586 262.768 75.3555C263.166 74.6523 263.711 74.0898 264.402 73.668C265.094 73.2461 265.885 73.0352 266.775 73.0352ZM275.758 73.0352C276.402 73.0352 276.959 73.1406 277.428 73.3516C277.896 73.5508 278.219 73.7324 278.395 73.8965V75.3555C278.066 75.1094 277.691 74.8984 277.27 74.7227C276.848 74.5352 276.344 74.4414 275.758 74.4414C275.137 74.4414 274.592 74.5938 274.123 74.8984C273.654 75.1914 273.291 75.584 273.033 76.0762C272.787 76.5566 272.664 77.084 272.664 77.6582C272.664 78.2207 272.787 78.748 273.033 79.2402C273.291 79.7207 273.654 80.1133 274.123 80.418C274.592 80.7109 275.137 80.8574 275.758 80.8574C276.344 80.8574 276.848 80.7695 277.27 80.5938C277.691 80.4062 278.066 80.1895 278.395 79.9434V81.4023C278.219 81.5781 277.896 81.7656 277.428 81.9648C276.959 82.1641 276.402 82.2637 275.758 82.2637C274.867 82.2637 274.076 82.0527 273.385 81.6309C272.693 81.209 272.148 80.6523 271.75 79.9609C271.363 79.2578 271.17 78.4902 271.17 77.6582C271.17 76.8262 271.363 76.0586 271.75 75.3555C272.148 74.6523 272.693 74.0898 273.385 73.668C274.076 73.2461 274.867 73.0352 275.758 73.0352ZM284.74 73.0352C285.631 73.0352 286.422 73.2461 287.113 73.668C287.805 74.0898 288.344 74.6523 288.73 75.3555C289.129 76.0586 289.328 76.8262 289.328 77.6582C289.328 78.4902 289.129 79.2578 288.73 79.9609C288.344 80.6523 287.805 81.209 287.113 81.6309C286.422 82.0527 285.631 82.2637 284.74 82.2637C283.85 82.2637 283.059 82.0527 282.367 81.6309C281.676 81.209 281.131 80.6523 280.732 79.9609C280.346 79.2578 280.152 78.4902 280.152 77.6582C280.152 76.8262 280.346 76.0586 280.732 75.3555C281.131 74.6523 281.676 74.0898 282.367 73.668C283.059 73.2461 283.85 73.0352 284.74 73.0352ZM284.74 74.4414C284.119 74.4414 283.574 74.5938 283.105 74.8984C282.637 75.1914 282.273 75.584 282.016 76.0762C281.77 76.5566 281.646 77.084 281.646 77.6582C281.646 78.2207 281.77 78.748 282.016 79.2402C282.273 79.7207 282.637 80.1133 283.105 80.418C283.574 80.7109 284.119 80.8574 284.74 80.8574C285.373 80.8574 285.918 80.7109 286.375 80.418C286.844 80.1133 287.201 79.7207 287.447 79.2402C287.705 78.748 287.834 78.2207 287.834 77.6582C287.834 77.084 287.705 76.5566 287.447 76.0762C287.201 75.584 286.844 75.1914 286.375 74.8984C285.918 74.5938 285.373 74.4414 284.74 74.4414ZM298.891 73.2109V78.4141C298.891 79.1875 298.727 79.8555 298.398 80.418C298.07 80.9805 297.625 81.4141 297.062 81.7188C296.5 82.0234 295.867 82.1758 295.164 82.1758C294.461 82.1758 293.828 82.0234 293.266 81.7188C292.703 81.4141 292.258 80.9805 291.93 80.418C291.602 79.8555 291.438 79.1875 291.438 78.4141V73.2109H292.932V78.4141C292.932 79.1758 293.154 79.7617 293.6 80.1719C294.057 80.5703 294.578 80.7695 295.164 80.7695C295.75 80.7695 296.266 80.5703 296.711 80.1719C297.168 79.7617 297.396 79.1758 297.396 78.4141V73.2109H298.891ZM303.057 73.2109V74.5996C303.244 74.3652 303.484 74.1309 303.777 73.8965C304.07 73.6504 304.398 73.4453 304.762 73.2812C305.137 73.1172 305.523 73.0352 305.922 73.0352C306.52 73.0352 307.064 73.1699 307.557 73.4395C308.049 73.6973 308.441 74.0957 308.734 74.6348C309.027 75.1621 309.174 75.8301 309.174 76.6387V82H307.732L307.715 76.7793C307.715 76.0176 307.545 75.4375 307.205 75.0391C306.877 74.6406 306.367 74.4414 305.676 74.4414C305.207 74.4414 304.738 74.6172 304.27 74.9688C303.812 75.3086 303.408 75.707 303.057 76.1641V82H301.615V73.2109H303.057ZM314.324 70.6797V73.2109H316.891V74.5645H314.324V79.7148C314.324 80.0781 314.418 80.3652 314.605 80.5762C314.793 80.7871 315.08 80.8926 315.467 80.8926C315.818 80.8926 316.111 80.8516 316.346 80.7695C316.58 80.6758 316.785 80.5762 316.961 80.4707V81.6484C316.727 81.8359 316.475 81.9824 316.205 82.0879C315.947 82.2051 315.596 82.2637 315.15 82.2637C314.4 82.2637 313.832 82.041 313.445 81.5957C313.07 81.1387 312.883 80.5352 312.883 79.7852V74.5645H311.195V74.1426C311.77 73.8848 312.25 73.4629 312.637 72.877C313.023 72.2793 313.363 71.5469 313.656 70.6797H314.324ZM322.674 69.959C323.377 69.959 324.016 70.1055 324.59 70.3984C325.164 70.6914 325.615 71.0957 325.943 71.6113C326.283 72.127 326.453 72.7188 326.453 73.3867C326.453 73.8203 326.342 74.2129 326.119 74.5645C325.908 74.9043 325.639 75.2148 325.311 75.4961C324.994 75.7773 324.678 76.041 324.361 76.2871C324.045 76.5332 323.781 76.7793 323.57 77.0254C323.359 77.2715 323.26 77.5293 323.271 77.7988L323.289 78.168H321.584V77.4648C321.584 77.207 321.684 76.9609 321.883 76.7266C322.094 76.4805 322.352 76.2402 322.656 76.0059C322.961 75.7598 323.266 75.5137 323.57 75.2676C323.887 75.0098 324.145 74.7461 324.344 74.4766C324.555 74.207 324.66 73.9199 324.66 73.6152C324.66 73.041 324.473 72.5664 324.098 72.1914C323.734 71.8164 323.201 71.6289 322.498 71.6289C321.795 71.6289 321.209 71.7695 320.74 72.0508C320.283 72.3203 319.844 72.7246 319.422 73.2637V71.3477C319.738 70.9609 320.189 70.6328 320.775 70.3633C321.361 70.0938 321.994 69.959 322.674 69.959ZM322.516 79.8555C322.855 79.8555 323.143 79.9785 323.377 80.2246C323.623 80.459 323.746 80.7461 323.746 81.0859C323.746 81.4141 323.623 81.7012 323.377 81.9473C323.143 82.1934 322.855 82.3164 322.516 82.3164C322.176 82.3164 321.883 82.1934 321.637 81.9473C321.402 81.7012 321.285 81.4141 321.285 81.0859C321.285 80.7461 321.402 80.459 321.637 80.2246C321.883 79.9785 322.176 79.8555 322.516 79.8555Z" fill="#1F365D"/>
<path d="M799.668 74.6665V66.6665H802.335V74.6665H810.335V77.3332H802.335V85.3332H799.668V77.3332H791.668V74.6665H799.668Z" fill="#1F365D"/>
</g>
<defs>
<filter id="filter0_d_610_7276" x="0" y="0" width="884" height="160" filterUnits="userSpaceOnUse" color-interpolation-filters="sRGB">
<feFlood flood-opacity="0" result="BackgroundImageFix"/>
<feColorMatrix in="SourceAlpha" type="matrix" values="0 0 0 0 0 0 0 0 0 0 0 0 0 0 0 0 0 0 127 0" result="hardAlpha"/>
<feOffset dy="4"/>
<feGaussianBlur stdDeviation="17.5"/>
<feComposite in2="hardAlpha" operator="out"/>
<feColorMatrix type="matrix" values="0 0 0 0 0.920833 0 0 0 0 0.916997 0 0 0 0 0.916997 0 0 0 0.25 0"/>
<feBlend mode="normal" in2="BackgroundImageFix" result="effect1_dropShadow_610_7276"/>
<feBlend mode="normal" in="SourceGraphic" in2="effect1_dropShadow_610_7276" result="shape"/>
</filter>
</defs>
</svg>
