<svg width="884" height="160" viewBox="0 0 884 160" fill="none" xmlns="http://www.w3.org/2000/svg">
<g filter="url(#filter0_d_610_7070)">
<rect x="35" y="31" width="814" height="90" rx="4" fill="white"/>
<path d="M83.418 70.2227L79.2871 82H78.3906L75.2266 73.0879L72.0273 82H71.1309L67.1758 70.2227H68.8984L71.6582 78.9766L74.7695 70.2227L75.7891 70.2402L78.8125 78.9766L81.6953 70.2227H83.418ZM89.3945 73.0352C89.9922 73.0352 90.5371 73.1699 91.0293 73.4395C91.5215 73.6973 91.9141 74.0957 92.207 74.6348C92.5 75.1621 92.6465 75.8301 92.6465 76.6387V82H91.2051L91.1875 76.7793C91.1875 76.0176 91.0176 75.4375 90.6777 75.0391C90.3496 74.6406 89.8398 74.4414 89.1484 74.4414C88.6797 74.4414 88.2109 74.6172 87.7422 74.9688C87.2852 75.3086 86.8809 75.707 86.5293 76.1641V82H85.0879V69.3438H86.5293V74.5996C86.7168 74.3652 86.957 74.1309 87.25 73.8965C87.543 73.6504 87.8711 73.4453 88.2344 73.2812C88.6094 73.1172 88.9961 73.0352 89.3945 73.0352ZM98.9922 73.0352C99.4961 73.0352 100.006 73.1582 100.521 73.4043C101.049 73.6387 101.5 73.9668 101.875 74.3887V73.2109H103.316V82H101.875V80.5059C101.57 80.9746 101.154 81.3848 100.627 81.7363C100.111 82.0879 99.5195 82.2637 98.8516 82.2637C98.1016 82.2637 97.416 82.0762 96.7949 81.7012C96.1738 81.3145 95.6758 80.7812 95.3008 80.1016C94.9375 79.4219 94.7559 78.6367 94.7559 77.7461C94.7559 76.7734 94.9375 75.9355 95.3008 75.2324C95.6758 74.5293 96.1855 73.9902 96.8301 73.6152C97.4746 73.2285 98.1953 73.0352 98.9922 73.0352ZM99.2559 74.4414C98.623 74.4414 98.084 74.5996 97.6387 74.916C97.1934 75.2324 96.8477 75.6426 96.6016 76.1465C96.3672 76.6387 96.25 77.1719 96.25 77.7461C96.25 78.3086 96.3672 78.8301 96.6016 79.3105C96.8359 79.7793 97.1641 80.1543 97.5859 80.4355C98.0195 80.7168 98.5176 80.8574 99.0801 80.8574C99.6191 80.8574 100.1 80.7168 100.521 80.4355C100.943 80.1543 101.277 79.7676 101.523 79.2754C101.77 78.7715 101.887 78.209 101.875 77.5879L101.857 75.9004C101.494 75.4434 101.102 75.0859 100.68 74.8281C100.27 74.5703 99.7949 74.4414 99.2559 74.4414ZM108.73 70.6797V73.2109H111.297V74.5645H108.73V79.7148C108.73 80.0781 108.824 80.3652 109.012 80.5762C109.199 80.7871 109.486 80.8926 109.873 80.8926C110.225 80.8926 110.518 80.8516 110.752 80.7695C110.986 80.6758 111.191 80.5762 111.367 80.4707V81.6484C111.133 81.8359 110.881 81.9824 110.611 82.0879C110.354 82.2051 110.002 82.2637 109.557 82.2637C108.807 82.2637 108.238 82.041 107.852 81.5957C107.477 81.1387 107.289 80.5352 107.289 79.7852V74.5645H105.602V74.1426C106.176 73.8848 106.656 73.4629 107.043 72.877C107.43 72.2793 107.77 71.5469 108.062 70.6797H108.73ZM120.596 68.9922C120.936 68.9922 121.217 69.1152 121.439 69.3613C121.674 69.5957 121.791 69.8711 121.791 70.1875C121.791 70.4922 121.674 70.7676 121.439 71.0137C121.217 71.2598 120.936 71.3828 120.596 71.3828C120.256 71.3828 119.969 71.2598 119.734 71.0137C119.512 70.7676 119.4 70.4922 119.4 70.1875C119.4 69.8711 119.512 69.5957 119.734 69.3613C119.969 69.1152 120.256 68.9922 120.596 68.9922ZM121.492 73.2109V82H120.051V74.5645H118.662V73.2109H121.492ZM127.223 73.0352C127.738 73.0352 128.219 73.1113 128.664 73.2637C129.109 73.4043 129.432 73.5508 129.631 73.7031V75.25C129.385 75.0625 129.051 74.8809 128.629 74.7051C128.207 74.5293 127.773 74.4414 127.328 74.4414C126.777 74.4414 126.361 74.5703 126.08 74.8281C125.811 75.0859 125.676 75.3555 125.676 75.6367C125.676 75.8594 125.752 76.0879 125.904 76.3223C126.068 76.5449 126.35 76.7266 126.748 76.8672L128.225 77.3945C128.799 77.5938 129.227 77.8809 129.508 78.2559C129.789 78.6309 129.93 79.0703 129.93 79.5742C129.93 80.0664 129.789 80.5176 129.508 80.9277C129.238 81.3379 128.857 81.666 128.365 81.9121C127.885 82.1465 127.328 82.2637 126.695 82.2637C126.355 82.2637 125.998 82.2168 125.623 82.123C125.26 82.041 124.932 81.9414 124.639 81.8242C124.346 81.6953 124.129 81.584 123.988 81.4902V79.9434C124.152 80.0605 124.381 80.1953 124.674 80.3477C124.979 80.4883 125.301 80.6113 125.641 80.7168C125.98 80.8105 126.297 80.8574 126.59 80.8574C127.141 80.8574 127.574 80.7344 127.891 80.4883C128.219 80.2422 128.383 79.9375 128.383 79.5742C128.383 79.293 128.271 79.0703 128.049 78.9062C127.838 78.7422 127.527 78.584 127.117 78.4316L125.816 77.957C125.137 77.6992 124.686 77.377 124.463 76.9902C124.24 76.5918 124.129 76.1406 124.129 75.6367C124.129 74.8867 124.41 74.2656 124.973 73.7734C125.535 73.2812 126.285 73.0352 127.223 73.0352ZM139.422 70.2227V80.5059H145.908V82H137.84V70.2227H139.422ZM151.867 70.0469C152.559 70.0469 153.127 70.1465 153.572 70.3457C154.029 70.5449 154.428 70.7559 154.768 70.9785V72.6133C154.439 72.3672 154.041 72.1387 153.572 71.9277C153.104 71.7051 152.594 71.5938 152.043 71.5938C151.691 71.5938 151.322 71.6582 150.936 71.7871C150.561 71.9043 150.244 72.0977 149.986 72.3672C149.729 72.6367 149.6 72.9824 149.6 73.4043C149.6 73.873 149.77 74.2305 150.109 74.4766C150.449 74.7227 150.859 74.957 151.34 75.1797L152.957 75.918C153.766 76.2812 154.375 76.6855 154.785 77.1309C155.195 77.5762 155.4 78.168 155.4 78.9062C155.4 79.5508 155.213 80.1191 154.838 80.6113C154.463 81.0918 153.971 81.4727 153.361 81.7539C152.752 82.0352 152.084 82.1758 151.357 82.1758C150.678 82.1758 150.051 82.0586 149.477 81.8242C148.902 81.5898 148.404 81.3262 147.982 81.0332V79.3984C148.439 79.7148 148.961 80.002 149.547 80.2598C150.145 80.5059 150.818 80.6289 151.568 80.6289C152.154 80.6289 152.67 80.4824 153.115 80.1895C153.561 79.8965 153.783 79.4922 153.783 78.9766C153.783 78.6836 153.689 78.4316 153.502 78.2207C153.326 78.0098 153.109 77.8281 152.852 77.6758C152.594 77.5234 152.342 77.3945 152.096 77.2891L150.145 76.4102C149.301 76.0352 148.727 75.5957 148.422 75.0918C148.117 74.5879 147.965 74.0078 147.965 73.3516C147.965 72.7305 148.141 72.1738 148.492 71.6816C148.855 71.1777 149.336 70.7793 149.934 70.4863C150.531 70.1934 151.176 70.0469 151.867 70.0469ZM162.906 70.2227C163.586 70.2227 164.236 70.3809 164.857 70.6973C165.479 71.002 165.988 71.4473 166.387 72.0332C166.797 72.6074 167.002 73.2988 167.002 74.1074C167.002 74.7988 166.809 75.4375 166.422 76.0234C166.035 76.6094 165.508 77.084 164.84 77.4473C164.184 77.7988 163.451 77.9746 162.643 77.9746C162.045 77.9746 161.494 77.916 160.99 77.7988C160.498 77.6699 160.1 77.5352 159.795 77.3945V82H158.213V70.2227H162.906ZM159.795 71.7168V75.9531C160.111 76.082 160.521 76.2051 161.025 76.3223C161.541 76.4277 162.062 76.4805 162.59 76.4805C163.48 76.4805 164.166 76.252 164.646 75.7949C165.139 75.3262 165.385 74.7637 165.385 74.1074C165.385 73.6035 165.244 73.1758 164.963 72.8242C164.693 72.4727 164.336 72.2031 163.891 72.0156C163.445 71.8164 162.971 71.7168 162.467 71.7168H159.795ZM174.332 70.2227C175.012 70.2227 175.662 70.3516 176.283 70.6094C176.904 70.8555 177.414 71.2422 177.812 71.7695C178.223 72.2852 178.428 72.9473 178.428 73.7559C178.428 74.4824 178.217 75.0977 177.795 75.6016C177.385 76.1055 176.857 76.4863 176.213 76.7441C175.58 76.9902 174.924 77.1133 174.244 77.1133C174.033 77.1133 173.752 77.1016 173.4 77.0781L178.885 82H176.459L171.396 77.0781V82H169.814V70.2227H174.332ZM171.396 71.7168V75.4961C171.783 75.6016 172.205 75.6836 172.662 75.7422C173.119 75.8008 173.57 75.8301 174.016 75.8301C174.906 75.8301 175.592 75.6426 176.072 75.2676C176.564 74.8926 176.811 74.3887 176.811 73.7559C176.811 73.0996 176.541 72.5957 176.002 72.2441C175.475 71.8926 174.83 71.7168 174.068 71.7168H171.396ZM196.094 70.2227V82H195.496L187.85 73.5801V82H186.268V70.2227H186.865L194.512 78.748V70.2227H196.094ZM200.928 68.9922C201.268 68.9922 201.549 69.1152 201.771 69.3613C202.006 69.5957 202.123 69.8711 202.123 70.1875C202.123 70.4922 202.006 70.7676 201.771 71.0137C201.549 71.2598 201.268 71.3828 200.928 71.3828C200.588 71.3828 200.301 71.2598 200.066 71.0137C199.844 70.7676 199.732 70.4922 199.732 70.1875C199.732 69.8711 199.844 69.5957 200.066 69.3613C200.301 69.1152 200.588 68.9922 200.928 68.9922ZM201.824 73.2109V82H200.383V74.5645H198.994V73.2109H201.824ZM208.557 73.0352C209.061 73.0352 209.57 73.1582 210.086 73.4043C210.613 73.6387 211.064 73.9668 211.439 74.3887V73.2109H212.881V81.8242C212.881 82.8672 212.67 83.7344 212.248 84.4258C211.826 85.1172 211.264 85.6328 210.561 85.9727C209.857 86.3125 209.09 86.4824 208.258 86.4824C207.719 86.4824 207.256 86.418 206.869 86.2891C206.494 86.1719 206.172 86.0195 205.902 85.832C205.633 85.6562 205.387 85.4863 205.164 85.3223V83.7754C205.34 83.9043 205.568 84.0684 205.85 84.2676C206.143 84.4785 206.488 84.666 206.887 84.8301C207.297 84.9941 207.754 85.0762 208.258 85.0762C208.832 85.0762 209.359 84.9707 209.84 84.7598C210.32 84.5488 210.707 84.2383 211 83.8281C211.293 83.418 211.439 82.9258 211.439 82.3516V80.5059C211.135 80.9746 210.719 81.3848 210.191 81.7363C209.676 82.0879 209.084 82.2637 208.416 82.2637C207.666 82.2637 206.98 82.0762 206.359 81.7012C205.738 81.3145 205.24 80.7812 204.865 80.1016C204.502 79.4219 204.32 78.6367 204.32 77.7461C204.32 76.7734 204.502 75.9355 204.865 75.2324C205.24 74.5293 205.75 73.9902 206.395 73.6152C207.039 73.2285 207.76 73.0352 208.557 73.0352ZM208.82 74.459C208.188 74.459 207.648 74.6172 207.203 74.9336C206.758 75.2383 206.412 75.6426 206.166 76.1465C205.932 76.6387 205.814 77.1719 205.814 77.7461C205.814 78.3086 205.932 78.8242 206.166 79.293C206.4 79.7617 206.729 80.1367 207.15 80.418C207.584 80.6992 208.082 80.8398 208.645 80.8398C209.184 80.8398 209.664 80.6992 210.086 80.418C210.508 80.1367 210.842 79.75 211.088 79.2578C211.334 78.7656 211.451 78.209 211.439 77.5879L211.422 75.9004C211.059 75.4434 210.666 75.0918 210.244 74.8457C209.834 74.5879 209.359 74.459 208.82 74.459ZM219.49 73.0352C220.393 73.0352 221.143 73.2227 221.74 73.5977C222.338 73.9727 222.783 74.4824 223.076 75.127C223.381 75.7715 223.533 76.498 223.533 77.3066V78.168H216.783C216.854 78.6602 217.023 79.1113 217.293 79.5215C217.562 79.9316 217.914 80.2598 218.348 80.5059C218.781 80.7402 219.279 80.8574 219.842 80.8574C220.475 80.8574 221.066 80.6992 221.617 80.3828C222.168 80.0547 222.631 79.6973 223.006 79.3105L222.988 80.875C222.824 81.0742 222.578 81.2852 222.25 81.5078C221.934 81.7188 221.564 81.8945 221.143 82.0352C220.732 82.1875 220.299 82.2637 219.842 82.2637C218.951 82.2637 218.16 82.0527 217.469 81.6309C216.777 81.209 216.232 80.6523 215.834 79.9609C215.447 79.2578 215.254 78.4902 215.254 77.6582C215.254 76.8262 215.436 76.0586 215.799 75.3555C216.162 74.6523 216.66 74.0898 217.293 73.668C217.938 73.2461 218.67 73.0352 219.49 73.0352ZM219.49 74.4414C218.764 74.4414 218.166 74.6875 217.697 75.1797C217.229 75.6602 216.936 76.2461 216.818 76.9375H222.109C222.051 76.3633 221.887 75.8945 221.617 75.5312C221.359 75.168 221.043 74.8984 220.668 74.7227C220.293 74.5352 219.9 74.4414 219.49 74.4414ZM227.348 73.2109V74.9688C227.688 74.3828 228.098 73.9141 228.578 73.5625C229.059 73.2109 229.551 73.0352 230.055 73.0352C230.395 73.0352 230.699 73.0938 230.969 73.2109V74.8809C230.594 74.6582 230.219 74.5469 229.844 74.5469C229.246 74.5469 228.76 74.7578 228.385 75.1797C228.021 75.6016 227.676 76.1055 227.348 76.6914V82H225.906V73.2109H227.348ZM234.221 68.9922C234.561 68.9922 234.842 69.1152 235.064 69.3613C235.299 69.5957 235.416 69.8711 235.416 70.1875C235.416 70.4922 235.299 70.7676 235.064 71.0137C234.842 71.2598 234.561 71.3828 234.221 71.3828C233.881 71.3828 233.594 71.2598 233.359 71.0137C233.137 70.7676 233.025 70.4922 233.025 70.1875C233.025 69.8711 233.137 69.5957 233.359 69.3613C233.594 69.1152 233.881 68.9922 234.221 68.9922ZM235.117 73.2109V82H233.676V74.5645H232.287V73.2109H235.117ZM241.85 73.0352C242.354 73.0352 242.863 73.1582 243.379 73.4043C243.906 73.6387 244.357 73.9668 244.732 74.3887V73.2109H246.174V82H244.732V80.5059C244.428 80.9746 244.012 81.3848 243.484 81.7363C242.969 82.0879 242.377 82.2637 241.709 82.2637C240.959 82.2637 240.273 82.0762 239.652 81.7012C239.031 81.3145 238.533 80.7812 238.158 80.1016C237.795 79.4219 237.613 78.6367 237.613 77.7461C237.613 76.7734 237.795 75.9355 238.158 75.2324C238.533 74.5293 239.043 73.9902 239.688 73.6152C240.332 73.2285 241.053 73.0352 241.85 73.0352ZM242.113 74.4414C241.48 74.4414 240.941 74.5996 240.496 74.916C240.051 75.2324 239.705 75.6426 239.459 76.1465C239.225 76.6387 239.107 77.1719 239.107 77.7461C239.107 78.3086 239.225 78.8301 239.459 79.3105C239.693 79.7793 240.021 80.1543 240.443 80.4355C240.877 80.7168 241.375 80.8574 241.938 80.8574C242.477 80.8574 242.957 80.7168 243.379 80.4355C243.801 80.1543 244.135 79.7676 244.381 79.2754C244.627 78.7715 244.744 78.209 244.732 77.5879L244.715 75.9004C244.352 75.4434 243.959 75.0859 243.537 74.8281C243.127 74.5703 242.652 74.4414 242.113 74.4414Z" fill="#1F365D"/>
<path d="M799.668 74.6665V66.6665H802.335V74.6665H810.335V77.3332H802.335V85.3332H799.668V77.3332H791.668V74.6665H799.668Z" fill="#1F365D"/>
</g>
<defs>
<filter id="filter0_d_610_7070" x="0" y="0" width="884" height="160" filterUnits="userSpaceOnUse" color-interpolation-filters="sRGB">
<feFlood flood-opacity="0" result="BackgroundImageFix"/>
<feColorMatrix in="SourceAlpha" type="matrix" values="0 0 0 0 0 0 0 0 0 0 0 0 0 0 0 0 0 0 127 0" result="hardAlpha"/>
<feOffset dy="4"/>
<feGaussianBlur stdDeviation="17.5"/>
<feComposite in2="hardAlpha" operator="out"/>
<feColorMatrix type="matrix" values="0 0 0 0 0.920833 0 0 0 0 0.916997 0 0 0 0 0.916997 0 0 0 0.25 0"/>
<feBlend mode="normal" in2="BackgroundImageFix" result="effect1_dropShadow_610_7070"/>
<feBlend mode="normal" in="SourceGraphic" in2="effect1_dropShadow_610_7070" result="shape"/>
</filter>
</defs>
</svg>
