<svg width="884" height="160" viewBox="0 0 884 160" fill="none" xmlns="http://www.w3.org/2000/svg">
<g filter="url(#filter0_d_610_7042)">
<rect x="35" y="31" width="814" height="90" rx="4" fill="white"/>
<path d="M83.418 62.2227L79.2871 74H78.3906L75.2266 65.0879L72.0273 74H71.1309L67.1758 62.2227H68.8984L71.6582 70.9766L74.7695 62.2227L75.7891 62.2402L78.8125 70.9766L81.6953 62.2227H83.418ZM86.4941 60.9922C86.834 60.9922 87.1152 61.1152 87.3379 61.3613C87.5723 61.5957 87.6895 61.8711 87.6895 62.1875C87.6895 62.4922 87.5723 62.7676 87.3379 63.0137C87.1152 63.2598 86.834 63.3828 86.4941 63.3828C86.1543 63.3828 85.8672 63.2598 85.6328 63.0137C85.4102 62.7676 85.2988 62.4922 85.2988 62.1875C85.2988 61.8711 85.4102 61.5957 85.6328 61.3613C85.8672 61.1152 86.1543 60.9922 86.4941 60.9922ZM87.3906 65.2109V74H85.9492V66.5645H84.5605V65.2109H87.3906ZM91.9434 61.3438V74H90.502V61.3438H91.9434ZM96.373 61.3438V74H94.9316V61.3438H96.373ZM106.656 62.2227V72.5059H113.143V74H105.074V62.2227H106.656ZM119.102 62.0469C119.793 62.0469 120.361 62.1465 120.807 62.3457C121.264 62.5449 121.662 62.7559 122.002 62.9785V64.6133C121.674 64.3672 121.275 64.1387 120.807 63.9277C120.338 63.7051 119.828 63.5938 119.277 63.5938C118.926 63.5938 118.557 63.6582 118.17 63.7871C117.795 63.9043 117.479 64.0977 117.221 64.3672C116.963 64.6367 116.834 64.9824 116.834 65.4043C116.834 65.873 117.004 66.2305 117.344 66.4766C117.684 66.7227 118.094 66.957 118.574 67.1797L120.191 67.918C121 68.2812 121.609 68.6855 122.02 69.1309C122.43 69.5762 122.635 70.168 122.635 70.9062C122.635 71.5508 122.447 72.1191 122.072 72.6113C121.697 73.0918 121.205 73.4727 120.596 73.7539C119.986 74.0352 119.318 74.1758 118.592 74.1758C117.912 74.1758 117.285 74.0586 116.711 73.8242C116.137 73.5898 115.639 73.3262 115.217 73.0332V71.3984C115.674 71.7148 116.195 72.002 116.781 72.2598C117.379 72.5059 118.053 72.6289 118.803 72.6289C119.389 72.6289 119.904 72.4824 120.35 72.1895C120.795 71.8965 121.018 71.4922 121.018 70.9766C121.018 70.6836 120.924 70.4316 120.736 70.2207C120.561 70.0098 120.344 69.8281 120.086 69.6758C119.828 69.5234 119.576 69.3945 119.33 69.2891L117.379 68.4102C116.535 68.0352 115.961 67.5957 115.656 67.0918C115.352 66.5879 115.199 66.0078 115.199 65.3516C115.199 64.7305 115.375 64.1738 115.727 63.6816C116.09 63.1777 116.57 62.7793 117.168 62.4863C117.766 62.1934 118.41 62.0469 119.102 62.0469ZM130.141 62.2227C130.82 62.2227 131.471 62.3809 132.092 62.6973C132.713 63.002 133.223 63.4473 133.621 64.0332C134.031 64.6074 134.236 65.2988 134.236 66.1074C134.236 66.7988 134.043 67.4375 133.656 68.0234C133.27 68.6094 132.742 69.084 132.074 69.4473C131.418 69.7988 130.686 69.9746 129.877 69.9746C129.279 69.9746 128.729 69.916 128.225 69.7988C127.732 69.6699 127.334 69.5352 127.029 69.3945V74H125.447V62.2227H130.141ZM127.029 63.7168V67.9531C127.346 68.082 127.756 68.2051 128.26 68.3223C128.775 68.4277 129.297 68.4805 129.824 68.4805C130.715 68.4805 131.4 68.252 131.881 67.7949C132.373 67.3262 132.619 66.7637 132.619 66.1074C132.619 65.6035 132.479 65.1758 132.197 64.8242C131.928 64.4727 131.57 64.2031 131.125 64.0156C130.68 63.8164 130.205 63.7168 129.701 63.7168H127.029ZM141.566 62.2227C142.246 62.2227 142.896 62.3516 143.518 62.6094C144.139 62.8555 144.648 63.2422 145.047 63.7695C145.457 64.2852 145.662 64.9473 145.662 65.7559C145.662 66.4824 145.451 67.0977 145.029 67.6016C144.619 68.1055 144.092 68.4863 143.447 68.7441C142.814 68.9902 142.158 69.1133 141.479 69.1133C141.268 69.1133 140.986 69.1016 140.635 69.0781L146.119 74H143.693L138.631 69.0781V74H137.049V62.2227H141.566ZM138.631 63.7168V67.4961C139.018 67.6016 139.439 67.6836 139.896 67.7422C140.354 67.8008 140.805 67.8301 141.25 67.8301C142.141 67.8301 142.826 67.6426 143.307 67.2676C143.799 66.8926 144.045 66.3887 144.045 65.7559C144.045 65.0996 143.775 64.5957 143.236 64.2441C142.709 63.8926 142.064 63.7168 141.303 63.7168H138.631ZM157.035 65.0352C157.68 65.0352 158.236 65.1406 158.705 65.3516C159.174 65.5508 159.496 65.7324 159.672 65.8965V67.3555C159.344 67.1094 158.969 66.8984 158.547 66.7227C158.125 66.5352 157.621 66.4414 157.035 66.4414C156.414 66.4414 155.869 66.5938 155.4 66.8984C154.932 67.1914 154.568 67.584 154.311 68.0762C154.064 68.5566 153.941 69.084 153.941 69.6582C153.941 70.2207 154.064 70.748 154.311 71.2402C154.568 71.7207 154.932 72.1133 155.4 72.418C155.869 72.7109 156.414 72.8574 157.035 72.8574C157.621 72.8574 158.125 72.7695 158.547 72.5938C158.969 72.4062 159.344 72.1895 159.672 71.9434V73.4023C159.496 73.5781 159.174 73.7656 158.705 73.9648C158.236 74.1641 157.68 74.2637 157.035 74.2637C156.145 74.2637 155.354 74.0527 154.662 73.6309C153.971 73.209 153.426 72.6523 153.027 71.9609C152.641 71.2578 152.447 70.4902 152.447 69.6582C152.447 68.8262 152.641 68.0586 153.027 67.3555C153.426 66.6523 153.971 66.0898 154.662 65.668C155.354 65.2461 156.145 65.0352 157.035 65.0352ZM166.018 65.0352C166.908 65.0352 167.699 65.2461 168.391 65.668C169.082 66.0898 169.621 66.6523 170.008 67.3555C170.406 68.0586 170.605 68.8262 170.605 69.6582C170.605 70.4902 170.406 71.2578 170.008 71.9609C169.621 72.6523 169.082 73.209 168.391 73.6309C167.699 74.0527 166.908 74.2637 166.018 74.2637C165.127 74.2637 164.336 74.0527 163.645 73.6309C162.953 73.209 162.408 72.6523 162.01 71.9609C161.623 71.2578 161.43 70.4902 161.43 69.6582C161.43 68.8262 161.623 68.0586 162.01 67.3555C162.408 66.6523 162.953 66.0898 163.645 65.668C164.336 65.2461 165.127 65.0352 166.018 65.0352ZM166.018 66.4414C165.396 66.4414 164.852 66.5938 164.383 66.8984C163.914 67.1914 163.551 67.584 163.293 68.0762C163.047 68.5566 162.924 69.084 162.924 69.6582C162.924 70.2207 163.047 70.748 163.293 71.2402C163.551 71.7207 163.914 72.1133 164.383 72.418C164.852 72.7109 165.396 72.8574 166.018 72.8574C166.65 72.8574 167.195 72.7109 167.652 72.418C168.121 72.1133 168.479 71.7207 168.725 71.2402C168.982 70.748 169.111 70.2207 169.111 69.6582C169.111 69.084 168.982 68.5566 168.725 68.0762C168.479 67.584 168.121 67.1914 167.652 66.8984C167.195 66.5938 166.65 66.4414 166.018 66.4414ZM180.168 65.2109V70.4141C180.168 71.1875 180.004 71.8555 179.676 72.418C179.348 72.9805 178.902 73.4141 178.34 73.7188C177.777 74.0234 177.145 74.1758 176.441 74.1758C175.738 74.1758 175.105 74.0234 174.543 73.7188C173.98 73.4141 173.535 72.9805 173.207 72.418C172.879 71.8555 172.715 71.1875 172.715 70.4141V65.2109H174.209V70.4141C174.209 71.1758 174.432 71.7617 174.877 72.1719C175.334 72.5703 175.855 72.7695 176.441 72.7695C177.027 72.7695 177.543 72.5703 177.988 72.1719C178.445 71.7617 178.674 71.1758 178.674 70.4141V65.2109H180.168ZM184.334 65.2109V66.9688C184.674 66.3828 185.084 65.9141 185.564 65.5625C186.045 65.2109 186.537 65.0352 187.041 65.0352C187.381 65.0352 187.686 65.0938 187.955 65.2109V66.8809C187.58 66.6582 187.205 66.5469 186.83 66.5469C186.232 66.5469 185.746 66.7578 185.371 67.1797C185.008 67.6016 184.662 68.1055 184.334 68.6914V74H182.893V65.2109H184.334ZM192.42 65.0352C192.936 65.0352 193.416 65.1113 193.861 65.2637C194.307 65.4043 194.629 65.5508 194.828 65.7031V67.25C194.582 67.0625 194.248 66.8809 193.826 66.7051C193.404 66.5293 192.971 66.4414 192.525 66.4414C191.975 66.4414 191.559 66.5703 191.277 66.8281C191.008 67.0859 190.873 67.3555 190.873 67.6367C190.873 67.8594 190.949 68.0879 191.102 68.3223C191.266 68.5449 191.547 68.7266 191.945 68.8672L193.422 69.3945C193.996 69.5938 194.424 69.8809 194.705 70.2559C194.986 70.6309 195.127 71.0703 195.127 71.5742C195.127 72.0664 194.986 72.5176 194.705 72.9277C194.436 73.3379 194.055 73.666 193.562 73.9121C193.082 74.1465 192.525 74.2637 191.893 74.2637C191.553 74.2637 191.195 74.2168 190.82 74.123C190.457 74.041 190.129 73.9414 189.836 73.8242C189.543 73.6953 189.326 73.584 189.186 73.4902V71.9434C189.35 72.0605 189.578 72.1953 189.871 72.3477C190.176 72.4883 190.498 72.6113 190.838 72.7168C191.178 72.8105 191.494 72.8574 191.787 72.8574C192.338 72.8574 192.771 72.7344 193.088 72.4883C193.416 72.2422 193.58 71.9375 193.58 71.5742C193.58 71.293 193.469 71.0703 193.246 70.9062C193.035 70.7422 192.725 70.584 192.314 70.4316L191.014 69.957C190.334 69.6992 189.883 69.377 189.66 68.9902C189.438 68.5918 189.326 68.1406 189.326 67.6367C189.326 66.8867 189.607 66.2656 190.17 65.7734C190.732 65.2812 191.482 65.0352 192.42 65.0352ZM200.945 65.0352C201.848 65.0352 202.598 65.2227 203.195 65.5977C203.793 65.9727 204.238 66.4824 204.531 67.127C204.836 67.7715 204.988 68.498 204.988 69.3066V70.168H198.238C198.309 70.6602 198.479 71.1113 198.748 71.5215C199.018 71.9316 199.369 72.2598 199.803 72.5059C200.236 72.7402 200.734 72.8574 201.297 72.8574C201.93 72.8574 202.521 72.6992 203.072 72.3828C203.623 72.0547 204.086 71.6973 204.461 71.3105L204.443 72.875C204.279 73.0742 204.033 73.2852 203.705 73.5078C203.389 73.7188 203.02 73.8945 202.598 74.0352C202.188 74.1875 201.754 74.2637 201.297 74.2637C200.406 74.2637 199.615 74.0527 198.924 73.6309C198.232 73.209 197.688 72.6523 197.289 71.9609C196.902 71.2578 196.709 70.4902 196.709 69.6582C196.709 68.8262 196.891 68.0586 197.254 67.3555C197.617 66.6523 198.115 66.0898 198.748 65.668C199.393 65.2461 200.125 65.0352 200.945 65.0352ZM200.945 66.4414C200.219 66.4414 199.621 66.6875 199.152 67.1797C198.684 67.6602 198.391 68.2461 198.273 68.9375H203.564C203.506 68.3633 203.342 67.8945 203.072 67.5312C202.814 67.168 202.498 66.8984 202.123 66.7227C201.748 66.5352 201.355 66.4414 200.945 66.4414ZM209.98 65.0352C210.496 65.0352 210.977 65.1113 211.422 65.2637C211.867 65.4043 212.189 65.5508 212.389 65.7031V67.25C212.143 67.0625 211.809 66.8809 211.387 66.7051C210.965 66.5293 210.531 66.4414 210.086 66.4414C209.535 66.4414 209.119 66.5703 208.838 66.8281C208.568 67.0859 208.434 67.3555 208.434 67.6367C208.434 67.8594 208.51 68.0879 208.662 68.3223C208.826 68.5449 209.107 68.7266 209.506 68.8672L210.982 69.3945C211.557 69.5938 211.984 69.8809 212.266 70.2559C212.547 70.6309 212.688 71.0703 212.688 71.5742C212.688 72.0664 212.547 72.5176 212.266 72.9277C211.996 73.3379 211.615 73.666 211.123 73.9121C210.643 74.1465 210.086 74.2637 209.453 74.2637C209.113 74.2637 208.756 74.2168 208.381 74.123C208.018 74.041 207.689 73.9414 207.396 73.8242C207.104 73.6953 206.887 73.584 206.746 73.4902V71.9434C206.91 72.0605 207.139 72.1953 207.432 72.3477C207.736 72.4883 208.059 72.6113 208.398 72.7168C208.738 72.8105 209.055 72.8574 209.348 72.8574C209.898 72.8574 210.332 72.7344 210.648 72.4883C210.977 72.2422 211.141 71.9375 211.141 71.5742C211.141 71.293 211.029 71.0703 210.807 70.9062C210.596 70.7422 210.285 70.584 209.875 70.4316L208.574 69.957C207.895 69.6992 207.443 69.377 207.221 68.9902C206.998 68.5918 206.887 68.1406 206.887 67.6367C206.887 66.8867 207.168 66.2656 207.73 65.7734C208.293 65.2812 209.043 65.0352 209.98 65.0352ZM223.779 65.0352C224.283 65.0352 224.793 65.1582 225.309 65.4043C225.836 65.6387 226.287 65.9668 226.662 66.3887V65.2109H228.104V74H226.662V72.5059C226.357 72.9746 225.941 73.3848 225.414 73.7363C224.898 74.0879 224.307 74.2637 223.639 74.2637C222.889 74.2637 222.203 74.0762 221.582 73.7012C220.961 73.3145 220.463 72.7812 220.088 72.1016C219.725 71.4219 219.543 70.6367 219.543 69.7461C219.543 68.7734 219.725 67.9355 220.088 67.2324C220.463 66.5293 220.973 65.9902 221.617 65.6152C222.262 65.2285 222.982 65.0352 223.779 65.0352ZM224.043 66.4414C223.41 66.4414 222.871 66.5996 222.426 66.916C221.98 67.2324 221.635 67.6426 221.389 68.1465C221.154 68.6387 221.037 69.1719 221.037 69.7461C221.037 70.3086 221.154 70.8301 221.389 71.3105C221.623 71.7793 221.951 72.1543 222.373 72.4355C222.807 72.7168 223.305 72.8574 223.867 72.8574C224.406 72.8574 224.887 72.7168 225.309 72.4355C225.73 72.1543 226.064 71.7676 226.311 71.2754C226.557 70.7715 226.674 70.209 226.662 69.5879L226.645 67.9004C226.281 67.4434 225.889 67.0859 225.467 66.8281C225.057 66.5703 224.582 66.4414 224.043 66.4414ZM232.533 65.2109V66.5996C232.721 66.3652 232.961 66.1309 233.254 65.8965C233.547 65.6504 233.875 65.4453 234.238 65.2812C234.613 65.1172 235 65.0352 235.398 65.0352C235.996 65.0352 236.541 65.1699 237.033 65.4395C237.525 65.6973 237.918 66.0957 238.211 66.6348C238.504 67.1621 238.65 67.8301 238.65 68.6387V74H237.209L237.191 68.7793C237.191 68.0176 237.021 67.4375 236.682 67.0391C236.354 66.6406 235.844 66.4414 235.152 66.4414C234.684 66.4414 234.215 66.6172 233.746 66.9688C233.289 67.3086 232.885 67.707 232.533 68.1641V74H231.092V65.2109H232.533ZM249.32 61.3438V74H247.879V72.5059C247.574 72.9746 247.158 73.3848 246.631 73.7363C246.115 74.0879 245.523 74.2637 244.855 74.2637C244.105 74.2637 243.42 74.0762 242.799 73.7012C242.178 73.3145 241.68 72.7812 241.305 72.1016C240.941 71.4219 240.76 70.6367 240.76 69.7461C240.76 68.7734 240.941 67.9355 241.305 67.2324C241.68 66.5293 242.189 65.9902 242.834 65.6152C243.479 65.2285 244.199 65.0352 244.996 65.0352C245.5 65.0352 246.01 65.1582 246.525 65.4043C247.053 65.6387 247.504 65.9668 247.879 66.3887V61.3438H249.32ZM245.26 66.4766C244.627 66.4766 244.088 66.6348 243.643 66.9512C243.197 67.2559 242.852 67.6543 242.605 68.1465C242.371 68.6387 242.254 69.1719 242.254 69.7461C242.254 70.3086 242.371 70.8301 242.605 71.3105C242.84 71.7793 243.168 72.1543 243.59 72.4355C244.023 72.7168 244.521 72.8574 245.084 72.8574C245.623 72.8574 246.104 72.7168 246.525 72.4355C246.947 72.1543 247.281 71.7676 247.527 71.2754C247.773 70.7715 247.891 70.209 247.879 69.5879L247.861 67.9004C247.498 67.4434 247.105 67.0918 246.684 66.8457C246.273 66.5996 245.799 66.4766 245.26 66.4766ZM261.555 65.0352C262.199 65.0352 262.756 65.1406 263.225 65.3516C263.693 65.5508 264.016 65.7324 264.191 65.8965V67.3555C263.863 67.1094 263.488 66.8984 263.066 66.7227C262.645 66.5352 262.141 66.4414 261.555 66.4414C260.934 66.4414 260.389 66.5938 259.92 66.8984C259.451 67.1914 259.088 67.584 258.83 68.0762C258.584 68.5566 258.461 69.084 258.461 69.6582C258.461 70.2207 258.584 70.748 258.83 71.2402C259.088 71.7207 259.451 72.1133 259.92 72.418C260.389 72.7109 260.934 72.8574 261.555 72.8574C262.141 72.8574 262.645 72.7695 263.066 72.5938C263.488 72.4062 263.863 72.1895 264.191 71.9434V73.4023C264.016 73.5781 263.693 73.7656 263.225 73.9648C262.756 74.1641 262.199 74.2637 261.555 74.2637C260.664 74.2637 259.873 74.0527 259.182 73.6309C258.49 73.209 257.945 72.6523 257.547 71.9609C257.16 71.2578 256.967 70.4902 256.967 69.6582C256.967 68.8262 257.16 68.0586 257.547 67.3555C257.945 66.6523 258.49 66.0898 259.182 65.668C259.873 65.2461 260.664 65.0352 261.555 65.0352ZM270.186 65.0352C271.088 65.0352 271.838 65.2227 272.436 65.5977C273.033 65.9727 273.479 66.4824 273.771 67.127C274.076 67.7715 274.229 68.498 274.229 69.3066V70.168H267.479C267.549 70.6602 267.719 71.1113 267.988 71.5215C268.258 71.9316 268.609 72.2598 269.043 72.5059C269.477 72.7402 269.975 72.8574 270.537 72.8574C271.17 72.8574 271.762 72.6992 272.312 72.3828C272.863 72.0547 273.326 71.6973 273.701 71.3105L273.684 72.875C273.52 73.0742 273.273 73.2852 272.945 73.5078C272.629 73.7188 272.26 73.8945 271.838 74.0352C271.428 74.1875 270.994 74.2637 270.537 74.2637C269.646 74.2637 268.855 74.0527 268.164 73.6309C267.473 73.209 266.928 72.6523 266.529 71.9609C266.143 71.2578 265.949 70.4902 265.949 69.6582C265.949 68.8262 266.131 68.0586 266.494 67.3555C266.857 66.6523 267.355 66.0898 267.988 65.668C268.633 65.2461 269.365 65.0352 270.186 65.0352ZM270.186 66.4414C269.459 66.4414 268.861 66.6875 268.393 67.1797C267.924 67.6602 267.631 68.2461 267.514 68.9375H272.805C272.746 68.3633 272.582 67.8945 272.312 67.5312C272.055 67.168 271.738 66.8984 271.363 66.7227C270.988 66.5352 270.596 66.4414 270.186 66.4414ZM278.043 65.2109V66.9688C278.383 66.3828 278.793 65.9141 279.273 65.5625C279.754 65.2109 280.246 65.0352 280.75 65.0352C281.09 65.0352 281.395 65.0938 281.664 65.2109V66.8809C281.289 66.6582 280.914 66.5469 280.539 66.5469C279.941 66.5469 279.455 66.7578 279.08 67.1797C278.717 67.6016 278.371 68.1055 278.043 68.6914V74H276.602V65.2109H278.043ZM285.936 62.6797V65.2109H288.502V66.5645H285.936V71.7148C285.936 72.0781 286.029 72.3652 286.217 72.5762C286.404 72.7871 286.691 72.8926 287.078 72.8926C287.43 72.8926 287.723 72.8516 287.957 72.7695C288.191 72.6758 288.396 72.5762 288.572 72.4707V73.6484C288.338 73.8359 288.086 73.9824 287.816 74.0879C287.559 74.2051 287.207 74.2637 286.762 74.2637C286.012 74.2637 285.443 74.041 285.057 73.5957C284.682 73.1387 284.494 72.5352 284.494 71.7852V66.5645H282.807V66.1426C283.381 65.8848 283.861 65.4629 284.248 64.877C284.635 64.2793 284.975 63.5469 285.268 62.6797H285.936ZM292.527 60.9922C292.867 60.9922 293.148 61.1152 293.371 61.3613C293.605 61.5957 293.723 61.8711 293.723 62.1875C293.723 62.4922 293.605 62.7676 293.371 63.0137C293.148 63.2598 292.867 63.3828 292.527 63.3828C292.188 63.3828 291.9 63.2598 291.666 63.0137C291.443 62.7676 291.332 62.4922 291.332 62.1875C291.332 61.8711 291.443 61.5957 291.666 61.3613C291.9 61.1152 292.188 60.9922 292.527 60.9922ZM293.424 65.2109V74H291.982V66.5645H290.594V65.2109H293.424ZM301.088 65.2109V66.5645H298.521V74H297.08V66.5645H295.691V65.2109H297.08V64.0859C297.08 63.3945 297.215 62.832 297.484 62.3984C297.754 61.9531 298.1 61.625 298.521 61.4141C298.943 61.1914 299.371 61.0801 299.805 61.0801C300.402 61.0801 300.889 61.2383 301.264 61.5547V62.8203C301.088 62.7031 300.877 62.6094 300.631 62.5391C300.385 62.4688 300.139 62.4395 299.893 62.4512C299.459 62.4629 299.119 62.6035 298.873 62.873C298.639 63.1309 298.521 63.5879 298.521 64.2441V65.2109H301.088ZM304.41 60.9922C304.75 60.9922 305.031 61.1152 305.254 61.3613C305.488 61.5957 305.605 61.8711 305.605 62.1875C305.605 62.4922 305.488 62.7676 305.254 63.0137C305.031 63.2598 304.75 63.3828 304.41 63.3828C304.07 63.3828 303.783 63.2598 303.549 63.0137C303.326 62.7676 303.215 62.4922 303.215 62.1875C303.215 61.8711 303.326 61.5957 303.549 61.3613C303.783 61.1152 304.07 60.9922 304.41 60.9922ZM305.307 65.2109V74H303.865V66.5645H302.477V65.2109H305.307ZM312.391 65.0352C313.035 65.0352 313.592 65.1406 314.061 65.3516C314.529 65.5508 314.852 65.7324 315.027 65.8965V67.3555C314.699 67.1094 314.324 66.8984 313.902 66.7227C313.48 66.5352 312.977 66.4414 312.391 66.4414C311.77 66.4414 311.225 66.5938 310.756 66.8984C310.287 67.1914 309.924 67.584 309.666 68.0762C309.42 68.5566 309.297 69.084 309.297 69.6582C309.297 70.2207 309.42 70.748 309.666 71.2402C309.924 71.7207 310.287 72.1133 310.756 72.418C311.225 72.7109 311.77 72.8574 312.391 72.8574C312.977 72.8574 313.48 72.7695 313.902 72.5938C314.324 72.4062 314.699 72.1895 315.027 71.9434V73.4023C314.852 73.5781 314.529 73.7656 314.061 73.9648C313.592 74.1641 313.035 74.2637 312.391 74.2637C311.5 74.2637 310.709 74.0527 310.018 73.6309C309.326 73.209 308.781 72.6523 308.383 71.9609C307.996 71.2578 307.803 70.4902 307.803 69.6582C307.803 68.8262 307.996 68.0586 308.383 67.3555C308.781 66.6523 309.326 66.0898 310.018 65.668C310.709 65.2461 311.5 65.0352 312.391 65.0352ZM321.021 65.0352C321.525 65.0352 322.035 65.1582 322.551 65.4043C323.078 65.6387 323.529 65.9668 323.904 66.3887V65.2109H325.346V74H323.904V72.5059C323.6 72.9746 323.184 73.3848 322.656 73.7363C322.141 74.0879 321.549 74.2637 320.881 74.2637C320.131 74.2637 319.445 74.0762 318.824 73.7012C318.203 73.3145 317.705 72.7812 317.33 72.1016C316.967 71.4219 316.785 70.6367 316.785 69.7461C316.785 68.7734 316.967 67.9355 317.33 67.2324C317.705 66.5293 318.215 65.9902 318.859 65.6152C319.504 65.2285 320.225 65.0352 321.021 65.0352ZM321.285 66.4414C320.652 66.4414 320.113 66.5996 319.668 66.916C319.223 67.2324 318.877 67.6426 318.631 68.1465C318.396 68.6387 318.279 69.1719 318.279 69.7461C318.279 70.3086 318.396 70.8301 318.631 71.3105C318.865 71.7793 319.193 72.1543 319.615 72.4355C320.049 72.7168 320.547 72.8574 321.109 72.8574C321.648 72.8574 322.129 72.7168 322.551 72.4355C322.973 72.1543 323.307 71.7676 323.553 71.2754C323.799 70.7715 323.916 70.209 323.904 69.5879L323.887 67.9004C323.523 67.4434 323.131 67.0859 322.709 66.8281C322.299 66.5703 321.824 66.4414 321.285 66.4414ZM330.76 62.6797V65.2109H333.326V66.5645H330.76V71.7148C330.76 72.0781 330.854 72.3652 331.041 72.5762C331.229 72.7871 331.516 72.8926 331.902 72.8926C332.254 72.8926 332.547 72.8516 332.781 72.7695C333.016 72.6758 333.221 72.5762 333.396 72.4707V73.6484C333.162 73.8359 332.91 73.9824 332.641 74.0879C332.383 74.2051 332.031 74.2637 331.586 74.2637C330.836 74.2637 330.268 74.041 329.881 73.5957C329.506 73.1387 329.318 72.5352 329.318 71.7852V66.5645H327.631V66.1426C328.205 65.8848 328.686 65.4629 329.072 64.877C329.459 64.2793 329.799 63.5469 330.092 62.6797H330.76ZM339.566 65.0352C340.469 65.0352 341.219 65.2227 341.816 65.5977C342.414 65.9727 342.859 66.4824 343.152 67.127C343.457 67.7715 343.609 68.498 343.609 69.3066V70.168H336.859C336.93 70.6602 337.1 71.1113 337.369 71.5215C337.639 71.9316 337.99 72.2598 338.424 72.5059C338.857 72.7402 339.355 72.8574 339.918 72.8574C340.551 72.8574 341.143 72.6992 341.693 72.3828C342.244 72.0547 342.707 71.6973 343.082 71.3105L343.064 72.875C342.9 73.0742 342.654 73.2852 342.326 73.5078C342.01 73.7188 341.641 73.8945 341.219 74.0352C340.809 74.1875 340.375 74.2637 339.918 74.2637C339.027 74.2637 338.236 74.0527 337.545 73.6309C336.854 73.209 336.309 72.6523 335.91 71.9609C335.523 71.2578 335.33 70.4902 335.33 69.6582C335.33 68.8262 335.512 68.0586 335.875 67.3555C336.238 66.6523 336.736 66.0898 337.369 65.668C338.014 65.2461 338.746 65.0352 339.566 65.0352ZM339.566 66.4414C338.84 66.4414 338.242 66.6875 337.773 67.1797C337.305 67.6602 337.012 68.2461 336.895 68.9375H342.186C342.127 68.3633 341.963 67.8945 341.693 67.5312C341.436 67.168 341.119 66.8984 340.744 66.7227C340.369 66.5352 339.977 66.4414 339.566 66.4414ZM352.662 60.9922C353.002 60.9922 353.283 61.1152 353.506 61.3613C353.74 61.5957 353.857 61.8711 353.857 62.1875C353.857 62.4922 353.74 62.7676 353.506 63.0137C353.283 63.2598 353.002 63.3828 352.662 63.3828C352.322 63.3828 352.035 63.2598 351.801 63.0137C351.578 62.7676 351.467 62.4922 351.467 62.1875C351.467 61.8711 351.578 61.5957 351.801 61.3613C352.035 61.1152 352.322 60.9922 352.662 60.9922ZM353.559 65.2109V74H352.117V66.5645H350.729V65.2109H353.559ZM358.111 65.2109V66.5996C358.299 66.3652 358.539 66.1309 358.832 65.8965C359.125 65.6504 359.453 65.4453 359.816 65.2812C360.191 65.1172 360.578 65.0352 360.977 65.0352C361.574 65.0352 362.119 65.1699 362.611 65.4395C363.104 65.6973 363.496 66.0957 363.789 66.6348C364.082 67.1621 364.229 67.8301 364.229 68.6387V74H362.787L362.77 68.7793C362.77 68.0176 362.6 67.4375 362.26 67.0391C361.932 66.6406 361.422 66.4414 360.73 66.4414C360.262 66.4414 359.793 66.6172 359.324 66.9688C358.867 67.3086 358.463 67.707 358.111 68.1641V74H356.67V65.2109H358.111ZM370.926 65.0352C371.57 65.0352 372.127 65.1406 372.596 65.3516C373.064 65.5508 373.387 65.7324 373.562 65.8965V67.3555C373.234 67.1094 372.859 66.8984 372.438 66.7227C372.016 66.5352 371.512 66.4414 370.926 66.4414C370.305 66.4414 369.76 66.5938 369.291 66.8984C368.822 67.1914 368.459 67.584 368.201 68.0762C367.955 68.5566 367.832 69.084 367.832 69.6582C367.832 70.2207 367.955 70.748 368.201 71.2402C368.459 71.7207 368.822 72.1133 369.291 72.418C369.76 72.7109 370.305 72.8574 370.926 72.8574C371.512 72.8574 372.016 72.7695 372.438 72.5938C372.859 72.4062 373.234 72.1895 373.562 71.9434V73.4023C373.387 73.5781 373.064 73.7656 372.596 73.9648C372.127 74.1641 371.57 74.2637 370.926 74.2637C370.035 74.2637 369.244 74.0527 368.553 73.6309C367.861 73.209 367.316 72.6523 366.918 71.9609C366.531 71.2578 366.338 70.4902 366.338 69.6582C366.338 68.8262 366.531 68.0586 366.918 67.3555C367.316 66.6523 367.861 66.0898 368.553 65.668C369.244 65.2461 370.035 65.0352 370.926 65.0352ZM377.377 65.2109V66.9688C377.717 66.3828 378.127 65.9141 378.607 65.5625C379.088 65.2109 379.58 65.0352 380.084 65.0352C380.424 65.0352 380.729 65.0938 380.998 65.2109V66.8809C380.623 66.6582 380.248 66.5469 379.873 66.5469C379.275 66.5469 378.789 66.7578 378.414 67.1797C378.051 67.6016 377.705 68.1055 377.377 68.6914V74H375.936V65.2109H377.377ZM386.465 65.0352C387.367 65.0352 388.117 65.2227 388.715 65.5977C389.312 65.9727 389.758 66.4824 390.051 67.127C390.355 67.7715 390.508 68.498 390.508 69.3066V70.168H383.758C383.828 70.6602 383.998 71.1113 384.268 71.5215C384.537 71.9316 384.889 72.2598 385.322 72.5059C385.756 72.7402 386.254 72.8574 386.816 72.8574C387.449 72.8574 388.041 72.6992 388.592 72.3828C389.143 72.0547 389.605 71.6973 389.98 71.3105L389.963 72.875C389.799 73.0742 389.553 73.2852 389.225 73.5078C388.908 73.7188 388.539 73.8945 388.117 74.0352C387.707 74.1875 387.273 74.2637 386.816 74.2637C385.926 74.2637 385.135 74.0527 384.443 73.6309C383.752 73.209 383.207 72.6523 382.809 71.9609C382.422 71.2578 382.229 70.4902 382.229 69.6582C382.229 68.8262 382.41 68.0586 382.773 67.3555C383.137 66.6523 383.635 66.0898 384.268 65.668C384.912 65.2461 385.645 65.0352 386.465 65.0352ZM386.465 66.4414C385.738 66.4414 385.141 66.6875 384.672 67.1797C384.203 67.6602 383.91 68.2461 383.793 68.9375H389.084C389.025 68.3633 388.861 67.8945 388.592 67.5312C388.334 67.168 388.018 66.8984 387.643 66.7227C387.268 66.5352 386.875 66.4414 386.465 66.4414ZM396.502 65.0352C397.006 65.0352 397.516 65.1582 398.031 65.4043C398.559 65.6387 399.01 65.9668 399.385 66.3887V65.2109H400.826V74H399.385V72.5059C399.08 72.9746 398.664 73.3848 398.137 73.7363C397.621 74.0879 397.029 74.2637 396.361 74.2637C395.611 74.2637 394.926 74.0762 394.305 73.7012C393.684 73.3145 393.186 72.7812 392.811 72.1016C392.447 71.4219 392.266 70.6367 392.266 69.7461C392.266 68.7734 392.447 67.9355 392.811 67.2324C393.186 66.5293 393.695 65.9902 394.34 65.6152C394.984 65.2285 395.705 65.0352 396.502 65.0352ZM396.766 66.4414C396.133 66.4414 395.594 66.5996 395.148 66.916C394.703 67.2324 394.357 67.6426 394.111 68.1465C393.877 68.6387 393.76 69.1719 393.76 69.7461C393.76 70.3086 393.877 70.8301 394.111 71.3105C394.346 71.7793 394.674 72.1543 395.096 72.4355C395.529 72.7168 396.027 72.8574 396.59 72.8574C397.129 72.8574 397.609 72.7168 398.031 72.4355C398.453 72.1543 398.787 71.7676 399.033 71.2754C399.279 70.7715 399.396 70.209 399.385 69.5879L399.367 67.9004C399.004 67.4434 398.611 67.0859 398.189 66.8281C397.779 66.5703 397.305 66.4414 396.766 66.4414ZM406.434 65.0352C406.949 65.0352 407.43 65.1113 407.875 65.2637C408.32 65.4043 408.643 65.5508 408.842 65.7031V67.25C408.596 67.0625 408.262 66.8809 407.84 66.7051C407.418 66.5293 406.984 66.4414 406.539 66.4414C405.988 66.4414 405.572 66.5703 405.291 66.8281C405.021 67.0859 404.887 67.3555 404.887 67.6367C404.887 67.8594 404.963 68.0879 405.115 68.3223C405.279 68.5449 405.561 68.7266 405.959 68.8672L407.436 69.3945C408.01 69.5938 408.438 69.8809 408.719 70.2559C409 70.6309 409.141 71.0703 409.141 71.5742C409.141 72.0664 409 72.5176 408.719 72.9277C408.449 73.3379 408.068 73.666 407.576 73.9121C407.096 74.1465 406.539 74.2637 405.906 74.2637C405.566 74.2637 405.209 74.2168 404.834 74.123C404.471 74.041 404.143 73.9414 403.85 73.8242C403.557 73.6953 403.34 73.584 403.199 73.4902V71.9434C403.363 72.0605 403.592 72.1953 403.885 72.3477C404.189 72.4883 404.512 72.6113 404.852 72.7168C405.191 72.8105 405.508 72.8574 405.801 72.8574C406.352 72.8574 406.785 72.7344 407.102 72.4883C407.43 72.2422 407.594 71.9375 407.594 71.5742C407.594 71.293 407.482 71.0703 407.26 70.9062C407.049 70.7422 406.738 70.584 406.328 70.4316L405.027 69.957C404.348 69.6992 403.896 69.377 403.674 68.9902C403.451 68.5918 403.34 68.1406 403.34 67.6367C403.34 66.8867 403.621 66.2656 404.184 65.7734C404.746 65.2812 405.496 65.0352 406.434 65.0352ZM414.959 65.0352C415.861 65.0352 416.611 65.2227 417.209 65.5977C417.807 65.9727 418.252 66.4824 418.545 67.127C418.85 67.7715 419.002 68.498 419.002 69.3066V70.168H412.252C412.322 70.6602 412.492 71.1113 412.762 71.5215C413.031 71.9316 413.383 72.2598 413.816 72.5059C414.25 72.7402 414.748 72.8574 415.311 72.8574C415.943 72.8574 416.535 72.6992 417.086 72.3828C417.637 72.0547 418.1 71.6973 418.475 71.3105L418.457 72.875C418.293 73.0742 418.047 73.2852 417.719 73.5078C417.402 73.7188 417.033 73.8945 416.611 74.0352C416.201 74.1875 415.768 74.2637 415.311 74.2637C414.42 74.2637 413.629 74.0527 412.938 73.6309C412.246 73.209 411.701 72.6523 411.303 71.9609C410.916 71.2578 410.723 70.4902 410.723 69.6582C410.723 68.8262 410.904 68.0586 411.268 67.3555C411.631 66.6523 412.129 66.0898 412.762 65.668C413.406 65.2461 414.139 65.0352 414.959 65.0352ZM414.959 66.4414C414.232 66.4414 413.635 66.6875 413.166 67.1797C412.697 67.6602 412.404 68.2461 412.287 68.9375H417.578C417.52 68.3633 417.355 67.8945 417.086 67.5312C416.828 67.168 416.512 66.8984 416.137 66.7227C415.762 66.5352 415.369 66.4414 414.959 66.4414ZM428.09 65.2109V66.3359C428.371 66.0195 428.729 65.7266 429.162 65.457C429.607 65.1758 430.129 65.0352 430.727 65.0352C431.359 65.0352 431.951 65.1875 432.502 65.4922C433.053 65.7852 433.475 66.2305 433.768 66.8281C434.178 66.3359 434.623 65.9141 435.104 65.5625C435.584 65.2109 436.146 65.0352 436.791 65.0352C437.389 65.0352 437.945 65.1699 438.461 65.4395C438.988 65.6973 439.41 66.0957 439.727 66.6348C440.055 67.1621 440.219 67.8301 440.219 68.6387V74H438.777L438.76 68.7793C438.76 68.0176 438.561 67.4375 438.162 67.0391C437.775 66.6406 437.236 66.4414 436.545 66.4414C436.041 66.4414 435.602 66.5996 435.227 66.916C434.852 67.2324 434.494 67.6016 434.154 68.0234V74H432.713L432.695 68.7793C432.695 68.0176 432.496 67.4375 432.098 67.0391C431.711 66.6406 431.172 66.4414 430.48 66.4414C430 66.4414 429.561 66.582 429.162 66.8633C428.775 67.1445 428.418 67.4844 428.09 67.8828V74H426.648V65.2109H428.09ZM443.436 65.2109L446.512 71.6797L449.5 65.2109H451.223L444.754 78.2188H443.084L445.598 73.4727L441.713 65.2109H443.436ZM462.227 65.0352C462.871 65.0352 463.428 65.1406 463.896 65.3516C464.365 65.5508 464.688 65.7324 464.863 65.8965V67.3555C464.535 67.1094 464.16 66.8984 463.738 66.7227C463.316 66.5352 462.812 66.4414 462.227 66.4414C461.605 66.4414 461.061 66.5938 460.592 66.8984C460.123 67.1914 459.76 67.584 459.502 68.0762C459.256 68.5566 459.133 69.084 459.133 69.6582C459.133 70.2207 459.256 70.748 459.502 71.2402C459.76 71.7207 460.123 72.1133 460.592 72.418C461.061 72.7109 461.605 72.8574 462.227 72.8574C462.812 72.8574 463.316 72.7695 463.738 72.5938C464.16 72.4062 464.535 72.1895 464.863 71.9434V73.4023C464.688 73.5781 464.365 73.7656 463.896 73.9648C463.428 74.1641 462.871 74.2637 462.227 74.2637C461.336 74.2637 460.545 74.0527 459.854 73.6309C459.162 73.209 458.617 72.6523 458.219 71.9609C457.832 71.2578 457.639 70.4902 457.639 69.6582C457.639 68.8262 457.832 68.0586 458.219 67.3555C458.617 66.6523 459.162 66.0898 459.854 65.668C460.545 65.2461 461.336 65.0352 462.227 65.0352ZM471.543 65.0352C472.141 65.0352 472.686 65.1699 473.178 65.4395C473.67 65.6973 474.062 66.0957 474.355 66.6348C474.648 67.1621 474.795 67.8301 474.795 68.6387V74H473.354L473.336 68.7793C473.336 68.0176 473.166 67.4375 472.826 67.0391C472.498 66.6406 471.988 66.4414 471.297 66.4414C470.828 66.4414 470.359 66.6172 469.891 66.9688C469.434 67.3086 469.029 67.707 468.678 68.1641V74H467.236V61.3438H468.678V66.5996C468.865 66.3652 469.105 66.1309 469.398 65.8965C469.691 65.6504 470.02 65.4453 470.383 65.2812C470.758 65.1172 471.145 65.0352 471.543 65.0352ZM481.141 65.0352C481.645 65.0352 482.154 65.1582 482.67 65.4043C483.197 65.6387 483.648 65.9668 484.023 66.3887V65.2109H485.465V74H484.023V72.5059C483.719 72.9746 483.303 73.3848 482.775 73.7363C482.26 74.0879 481.668 74.2637 481 74.2637C480.25 74.2637 479.564 74.0762 478.943 73.7012C478.322 73.3145 477.824 72.7812 477.449 72.1016C477.086 71.4219 476.904 70.6367 476.904 69.7461C476.904 68.7734 477.086 67.9355 477.449 67.2324C477.824 66.5293 478.334 65.9902 478.979 65.6152C479.623 65.2285 480.344 65.0352 481.141 65.0352ZM481.404 66.4414C480.771 66.4414 480.232 66.5996 479.787 66.916C479.342 67.2324 478.996 67.6426 478.75 68.1465C478.516 68.6387 478.398 69.1719 478.398 69.7461C478.398 70.3086 478.516 70.8301 478.75 71.3105C478.984 71.7793 479.312 72.1543 479.734 72.4355C480.168 72.7168 480.666 72.8574 481.229 72.8574C481.768 72.8574 482.248 72.7168 482.67 72.4355C483.092 72.1543 483.426 71.7676 483.672 71.2754C483.918 70.7715 484.035 70.209 484.023 69.5879L484.006 67.9004C483.643 67.4434 483.25 67.0859 482.828 66.8281C482.418 66.5703 481.943 66.4414 481.404 66.4414ZM489.895 65.2109V66.5996C490.082 66.3652 490.322 66.1309 490.615 65.8965C490.908 65.6504 491.236 65.4453 491.6 65.2812C491.975 65.1172 492.361 65.0352 492.76 65.0352C493.357 65.0352 493.902 65.1699 494.395 65.4395C494.887 65.6973 495.279 66.0957 495.572 66.6348C495.865 67.1621 496.012 67.8301 496.012 68.6387V74H494.57L494.553 68.7793C494.553 68.0176 494.383 67.4375 494.043 67.0391C493.715 66.6406 493.205 66.4414 492.514 66.4414C492.045 66.4414 491.576 66.6172 491.107 66.9688C490.65 67.3086 490.246 67.707 489.895 68.1641V74H488.453V65.2109H489.895ZM502.709 65.0352C503.354 65.0352 503.91 65.1406 504.379 65.3516C504.848 65.5508 505.17 65.7324 505.346 65.8965V67.3555C505.018 67.1094 504.643 66.8984 504.221 66.7227C503.799 66.5352 503.295 66.4414 502.709 66.4414C502.088 66.4414 501.543 66.5938 501.074 66.8984C500.605 67.1914 500.242 67.584 499.984 68.0762C499.738 68.5566 499.615 69.084 499.615 69.6582C499.615 70.2207 499.738 70.748 499.984 71.2402C500.242 71.7207 500.605 72.1133 501.074 72.418C501.543 72.7109 502.088 72.8574 502.709 72.8574C503.295 72.8574 503.799 72.7695 504.221 72.5938C504.643 72.4062 505.018 72.1895 505.346 71.9434V73.4023C505.17 73.5781 504.848 73.7656 504.379 73.9648C503.91 74.1641 503.354 74.2637 502.709 74.2637C501.818 74.2637 501.027 74.0527 500.336 73.6309C499.645 73.209 499.1 72.6523 498.701 71.9609C498.314 71.2578 498.121 70.4902 498.121 69.6582C498.121 68.8262 498.314 68.0586 498.701 67.3555C499.1 66.6523 499.645 66.0898 500.336 65.668C501.027 65.2461 501.818 65.0352 502.709 65.0352ZM511.34 65.0352C512.242 65.0352 512.992 65.2227 513.59 65.5977C514.188 65.9727 514.633 66.4824 514.926 67.127C515.23 67.7715 515.383 68.498 515.383 69.3066V70.168H508.633C508.703 70.6602 508.873 71.1113 509.143 71.5215C509.412 71.9316 509.764 72.2598 510.197 72.5059C510.631 72.7402 511.129 72.8574 511.691 72.8574C512.324 72.8574 512.916 72.6992 513.467 72.3828C514.018 72.0547 514.48 71.6973 514.855 71.3105L514.838 72.875C514.674 73.0742 514.428 73.2852 514.1 73.5078C513.783 73.7188 513.414 73.8945 512.992 74.0352C512.582 74.1875 512.148 74.2637 511.691 74.2637C510.801 74.2637 510.01 74.0527 509.318 73.6309C508.627 73.209 508.082 72.6523 507.684 71.9609C507.297 71.2578 507.104 70.4902 507.104 69.6582C507.104 68.8262 507.285 68.0586 507.648 67.3555C508.012 66.6523 508.51 66.0898 509.143 65.668C509.787 65.2461 510.52 65.0352 511.34 65.0352ZM511.34 66.4414C510.613 66.4414 510.016 66.6875 509.547 67.1797C509.078 67.6602 508.785 68.2461 508.668 68.9375H513.959C513.9 68.3633 513.736 67.8945 513.467 67.5312C513.209 67.168 512.893 66.8984 512.518 66.7227C512.143 66.5352 511.75 66.4414 511.34 66.4414ZM520.375 65.0352C520.891 65.0352 521.371 65.1113 521.816 65.2637C522.262 65.4043 522.584 65.5508 522.783 65.7031V67.25C522.537 67.0625 522.203 66.8809 521.781 66.7051C521.359 66.5293 520.926 66.4414 520.48 66.4414C519.93 66.4414 519.514 66.5703 519.232 66.8281C518.963 67.0859 518.828 67.3555 518.828 67.6367C518.828 67.8594 518.904 68.0879 519.057 68.3223C519.221 68.5449 519.502 68.7266 519.9 68.8672L521.377 69.3945C521.951 69.5938 522.379 69.8809 522.66 70.2559C522.941 70.6309 523.082 71.0703 523.082 71.5742C523.082 72.0664 522.941 72.5176 522.66 72.9277C522.391 73.3379 522.01 73.666 521.518 73.9121C521.037 74.1465 520.48 74.2637 519.848 74.2637C519.508 74.2637 519.15 74.2168 518.775 74.123C518.412 74.041 518.084 73.9414 517.791 73.8242C517.498 73.6953 517.281 73.584 517.141 73.4902V71.9434C517.305 72.0605 517.533 72.1953 517.826 72.3477C518.131 72.4883 518.453 72.6113 518.793 72.7168C519.133 72.8105 519.449 72.8574 519.742 72.8574C520.293 72.8574 520.727 72.7344 521.043 72.4883C521.371 72.2422 521.535 71.9375 521.535 71.5742C521.535 71.293 521.424 71.0703 521.201 70.9062C520.99 70.7422 520.68 70.584 520.27 70.4316L518.969 69.957C518.289 69.6992 517.838 69.377 517.615 68.9902C517.393 68.5918 517.281 68.1406 517.281 67.6367C517.281 66.8867 517.562 66.2656 518.125 65.7734C518.688 65.2812 519.438 65.0352 520.375 65.0352ZM538.498 61.3438V74H537.057V72.5059C536.752 72.9746 536.336 73.3848 535.809 73.7363C535.293 74.0879 534.701 74.2637 534.033 74.2637C533.283 74.2637 532.598 74.0762 531.977 73.7012C531.355 73.3145 530.857 72.7812 530.482 72.1016C530.119 71.4219 529.938 70.6367 529.938 69.7461C529.938 68.7734 530.119 67.9355 530.482 67.2324C530.857 66.5293 531.367 65.9902 532.012 65.6152C532.656 65.2285 533.377 65.0352 534.174 65.0352C534.678 65.0352 535.188 65.1582 535.703 65.4043C536.23 65.6387 536.682 65.9668 537.057 66.3887V61.3438H538.498ZM534.438 66.4766C533.805 66.4766 533.266 66.6348 532.82 66.9512C532.375 67.2559 532.029 67.6543 531.783 68.1465C531.549 68.6387 531.432 69.1719 531.432 69.7461C531.432 70.3086 531.549 70.8301 531.783 71.3105C532.018 71.7793 532.346 72.1543 532.768 72.4355C533.201 72.7168 533.699 72.8574 534.262 72.8574C534.801 72.8574 535.281 72.7168 535.703 72.4355C536.125 72.1543 536.459 71.7676 536.705 71.2754C536.951 70.7715 537.068 70.209 537.057 69.5879L537.039 67.9004C536.676 67.4434 536.283 67.0918 535.861 66.8457C535.451 66.5996 534.977 66.4766 534.438 66.4766ZM548.676 65.2109V70.4141C548.676 71.1875 548.512 71.8555 548.184 72.418C547.855 72.9805 547.41 73.4141 546.848 73.7188C546.285 74.0234 545.652 74.1758 544.949 74.1758C544.246 74.1758 543.613 74.0234 543.051 73.7188C542.488 73.4141 542.043 72.9805 541.715 72.418C541.387 71.8555 541.223 71.1875 541.223 70.4141V65.2109H542.717V70.4141C542.717 71.1758 542.939 71.7617 543.385 72.1719C543.842 72.5703 544.363 72.7695 544.949 72.7695C545.535 72.7695 546.051 72.5703 546.496 72.1719C546.953 71.7617 547.182 71.1758 547.182 70.4141V65.2109H548.676ZM552.842 65.2109V66.9688C553.182 66.3828 553.592 65.9141 554.072 65.5625C554.553 65.2109 555.045 65.0352 555.549 65.0352C555.889 65.0352 556.193 65.0938 556.463 65.2109V66.8809C556.088 66.6582 555.713 66.5469 555.338 66.5469C554.74 66.5469 554.254 66.7578 553.879 67.1797C553.516 67.6016 553.17 68.1055 552.842 68.6914V74H551.4V65.2109H552.842ZM559.715 60.9922C560.055 60.9922 560.336 61.1152 560.559 61.3613C560.793 61.5957 560.91 61.8711 560.91 62.1875C560.91 62.4922 560.793 62.7676 560.559 63.0137C560.336 63.2598 560.055 63.3828 559.715 63.3828C559.375 63.3828 559.088 63.2598 558.854 63.0137C558.631 62.7676 558.52 62.4922 558.52 62.1875C558.52 61.8711 558.631 61.5957 558.854 61.3613C559.088 61.1152 559.375 60.9922 559.715 60.9922ZM560.611 65.2109V74H559.17V66.5645H557.781V65.2109H560.611ZM565.164 65.2109V66.5996C565.352 66.3652 565.592 66.1309 565.885 65.8965C566.178 65.6504 566.506 65.4453 566.869 65.2812C567.244 65.1172 567.631 65.0352 568.029 65.0352C568.627 65.0352 569.172 65.1699 569.664 65.4395C570.156 65.6973 570.549 66.0957 570.842 66.6348C571.135 67.1621 571.281 67.8301 571.281 68.6387V74H569.84L569.822 68.7793C569.822 68.0176 569.652 67.4375 569.312 67.0391C568.984 66.6406 568.475 66.4414 567.783 66.4414C567.314 66.4414 566.846 66.6172 566.377 66.9688C565.92 67.3086 565.516 67.707 565.164 68.1641V74H563.723V65.2109H565.164ZM577.627 65.0352C578.131 65.0352 578.641 65.1582 579.156 65.4043C579.684 65.6387 580.135 65.9668 580.51 66.3887V65.2109H581.951V73.8242C581.951 74.8672 581.74 75.7344 581.318 76.4258C580.896 77.1172 580.334 77.6328 579.631 77.9727C578.928 78.3125 578.16 78.4824 577.328 78.4824C576.789 78.4824 576.326 78.418 575.939 78.2891C575.564 78.1719 575.242 78.0195 574.973 77.832C574.703 77.6562 574.457 77.4863 574.234 77.3223V75.7754C574.41 75.9043 574.639 76.0684 574.92 76.2676C575.213 76.4785 575.559 76.666 575.957 76.8301C576.367 76.9941 576.824 77.0762 577.328 77.0762C577.902 77.0762 578.43 76.9707 578.91 76.7598C579.391 76.5488 579.777 76.2383 580.07 75.8281C580.363 75.418 580.51 74.9258 580.51 74.3516V72.5059C580.205 72.9746 579.789 73.3848 579.262 73.7363C578.746 74.0879 578.154 74.2637 577.486 74.2637C576.736 74.2637 576.051 74.0762 575.43 73.7012C574.809 73.3145 574.311 72.7812 573.936 72.1016C573.572 71.4219 573.391 70.6367 573.391 69.7461C573.391 68.7734 573.572 67.9355 573.936 67.2324C574.311 66.5293 574.82 65.9902 575.465 65.6152C576.109 65.2285 576.83 65.0352 577.627 65.0352ZM577.891 66.459C577.258 66.459 576.719 66.6172 576.273 66.9336C575.828 67.2383 575.482 67.6426 575.236 68.1465C575.002 68.6387 574.885 69.1719 574.885 69.7461C574.885 70.3086 575.002 70.8242 575.236 71.293C575.471 71.7617 575.799 72.1367 576.221 72.418C576.654 72.6992 577.152 72.8398 577.715 72.8398C578.254 72.8398 578.734 72.6992 579.156 72.418C579.578 72.1367 579.912 71.75 580.158 71.2578C580.404 70.7656 580.521 70.209 580.51 69.5879L580.492 67.9004C580.129 67.4434 579.736 67.0918 579.314 66.8457C578.904 66.5879 578.43 66.459 577.891 66.459ZM591.619 60.9922C591.959 60.9922 592.24 61.1152 592.463 61.3613C592.697 61.5957 592.814 61.8711 592.814 62.1875C592.814 62.4922 592.697 62.7676 592.463 63.0137C592.24 63.2598 591.959 63.3828 591.619 63.3828C591.279 63.3828 590.992 63.2598 590.758 63.0137C590.535 62.7676 590.424 62.4922 590.424 62.1875C590.424 61.8711 590.535 61.5957 590.758 61.3613C590.992 61.1152 591.279 60.9922 591.619 60.9922ZM592.516 65.2109V74H591.074V66.5645H589.686V65.2109H592.516ZM597.068 65.2109V66.5996C597.256 66.3652 597.496 66.1309 597.789 65.8965C598.082 65.6504 598.41 65.4453 598.773 65.2812C599.148 65.1172 599.535 65.0352 599.934 65.0352C600.531 65.0352 601.076 65.1699 601.568 65.4395C602.061 65.6973 602.453 66.0957 602.746 66.6348C603.039 67.1621 603.186 67.8301 603.186 68.6387V74H601.744L601.727 68.7793C601.727 68.0176 601.557 67.4375 601.217 67.0391C600.889 66.6406 600.379 66.4414 599.688 66.4414C599.219 66.4414 598.75 66.6172 598.281 66.9688C597.824 67.3086 597.42 67.707 597.068 68.1641V74H595.627V65.2109H597.068ZM608.336 62.6797V65.2109H610.902V66.5645H608.336V71.7148C608.336 72.0781 608.43 72.3652 608.617 72.5762C608.805 72.7871 609.092 72.8926 609.479 72.8926C609.83 72.8926 610.123 72.8516 610.357 72.7695C610.592 72.6758 610.797 72.5762 610.973 72.4707V73.6484C610.738 73.8359 610.486 73.9824 610.217 74.0879C609.959 74.2051 609.607 74.2637 609.162 74.2637C608.412 74.2637 607.844 74.041 607.457 73.5957C607.082 73.1387 606.895 72.5352 606.895 71.7852V66.5645H605.207V66.1426C605.781 65.8848 606.262 65.4629 606.648 64.877C607.035 64.2793 607.375 63.5469 607.668 62.6797H608.336ZM617.143 65.0352C618.045 65.0352 618.795 65.2227 619.393 65.5977C619.99 65.9727 620.436 66.4824 620.729 67.127C621.033 67.7715 621.186 68.498 621.186 69.3066V70.168H614.436C614.506 70.6602 614.676 71.1113 614.945 71.5215C615.215 71.9316 615.566 72.2598 616 72.5059C616.434 72.7402 616.932 72.8574 617.494 72.8574C618.127 72.8574 618.719 72.6992 619.27 72.3828C619.82 72.0547 620.283 71.6973 620.658 71.3105L620.641 72.875C620.477 73.0742 620.23 73.2852 619.902 73.5078C619.586 73.7188 619.217 73.8945 618.795 74.0352C618.385 74.1875 617.951 74.2637 617.494 74.2637C616.604 74.2637 615.812 74.0527 615.121 73.6309C614.43 73.209 613.885 72.6523 613.486 71.9609C613.1 71.2578 612.906 70.4902 612.906 69.6582C612.906 68.8262 613.088 68.0586 613.451 67.3555C613.814 66.6523 614.312 66.0898 614.945 65.668C615.59 65.2461 616.322 65.0352 617.143 65.0352ZM617.143 66.4414C616.416 66.4414 615.818 66.6875 615.35 67.1797C614.881 67.6602 614.588 68.2461 614.471 68.9375H619.762C619.703 68.3633 619.539 67.8945 619.27 67.5312C619.012 67.168 618.695 66.8984 618.32 66.7227C617.945 66.5352 617.553 66.4414 617.143 66.4414ZM625 65.2109V66.9688C625.34 66.3828 625.75 65.9141 626.23 65.5625C626.711 65.2109 627.203 65.0352 627.707 65.0352C628.047 65.0352 628.352 65.0938 628.621 65.2109V66.8809C628.246 66.6582 627.871 66.5469 627.496 66.5469C626.898 66.5469 626.412 66.7578 626.037 67.1797C625.674 67.6016 625.328 68.1055 625 68.6914V74H623.559V65.2109H625ZM638.219 65.2109L634.088 74H633.191L629.236 65.2109H630.959L633.613 71.6797L636.496 65.2109H638.219ZM641.383 60.9922C641.723 60.9922 642.004 61.1152 642.227 61.3613C642.461 61.5957 642.578 61.8711 642.578 62.1875C642.578 62.4922 642.461 62.7676 642.227 63.0137C642.004 63.2598 641.723 63.3828 641.383 63.3828C641.043 63.3828 640.756 63.2598 640.521 63.0137C640.299 62.7676 640.188 62.4922 640.188 62.1875C640.188 61.8711 640.299 61.5957 640.521 61.3613C640.756 61.1152 641.043 60.9922 641.383 60.9922ZM642.279 65.2109V74H640.838V66.5645H639.449V65.2109H642.279ZM649.012 65.0352C649.914 65.0352 650.664 65.2227 651.262 65.5977C651.859 65.9727 652.305 66.4824 652.598 67.127C652.902 67.7715 653.055 68.498 653.055 69.3066V70.168H646.305C646.375 70.6602 646.545 71.1113 646.814 71.5215C647.084 71.9316 647.436 72.2598 647.869 72.5059C648.303 72.7402 648.801 72.8574 649.363 72.8574C649.996 72.8574 650.588 72.6992 651.139 72.3828C651.689 72.0547 652.152 71.6973 652.527 71.3105L652.51 72.875C652.346 73.0742 652.1 73.2852 651.771 73.5078C651.455 73.7188 651.086 73.8945 650.664 74.0352C650.254 74.1875 649.82 74.2637 649.363 74.2637C648.473 74.2637 647.682 74.0527 646.99 73.6309C646.299 73.209 645.754 72.6523 645.355 71.9609C644.969 71.2578 644.775 70.4902 644.775 69.6582C644.775 68.8262 644.957 68.0586 645.32 67.3555C645.684 66.6523 646.182 66.0898 646.814 65.668C647.459 65.2461 648.191 65.0352 649.012 65.0352ZM649.012 66.4414C648.285 66.4414 647.688 66.6875 647.219 67.1797C646.75 67.6602 646.457 68.2461 646.34 68.9375H651.631C651.572 68.3633 651.408 67.8945 651.139 67.5312C650.881 67.168 650.564 66.8984 650.189 66.7227C649.814 66.5352 649.422 66.4414 649.012 66.4414ZM666.959 65.2109L663.883 74H662.986L660.578 67.7949L658.17 74H657.273L654.197 65.2109H655.92L657.871 71.3809L660.174 65.2109H660.982L663.285 71.3809L665.236 65.2109H666.959ZM671.336 65.0352C671.852 65.0352 672.332 65.1113 672.777 65.2637C673.223 65.4043 673.545 65.5508 673.744 65.7031V67.25C673.498 67.0625 673.164 66.8809 672.742 66.7051C672.32 66.5293 671.887 66.4414 671.441 66.4414C670.891 66.4414 670.475 66.5703 670.193 66.8281C669.924 67.0859 669.789 67.3555 669.789 67.6367C669.789 67.8594 669.865 68.0879 670.018 68.3223C670.182 68.5449 670.463 68.7266 670.861 68.8672L672.338 69.3945C672.912 69.5938 673.34 69.8809 673.621 70.2559C673.902 70.6309 674.043 71.0703 674.043 71.5742C674.043 72.0664 673.902 72.5176 673.621 72.9277C673.352 73.3379 672.971 73.666 672.479 73.9121C671.998 74.1465 671.441 74.2637 670.809 74.2637C670.469 74.2637 670.111 74.2168 669.736 74.123C669.373 74.041 669.045 73.9414 668.752 73.8242C668.459 73.6953 668.242 73.584 668.102 73.4902V71.9434C668.266 72.0605 668.494 72.1953 668.787 72.3477C669.092 72.4883 669.414 72.6113 669.754 72.7168C670.094 72.8105 670.41 72.8574 670.703 72.8574C671.254 72.8574 671.688 72.7344 672.004 72.4883C672.332 72.2422 672.496 71.9375 672.496 71.5742C672.496 71.293 672.385 71.0703 672.162 70.9062C671.951 70.7422 671.641 70.584 671.23 70.4316L669.93 69.957C669.25 69.6992 668.799 69.377 668.576 68.9902C668.354 68.5918 668.242 68.1406 668.242 67.6367C668.242 66.8867 668.523 66.2656 669.086 65.7734C669.648 65.2812 670.398 65.0352 671.336 65.0352ZM72.1152 87.0352C72.6191 87.0352 73.1289 87.1582 73.6445 87.4043C74.1719 87.6387 74.623 87.9668 74.998 88.3887V87.2109H76.4395V96H74.998V94.5059C74.6934 94.9746 74.2773 95.3848 73.75 95.7363C73.2344 96.0879 72.6426 96.2637 71.9746 96.2637C71.2246 96.2637 70.5391 96.0762 69.918 95.7012C69.2969 95.3145 68.7988 94.7812 68.4238 94.1016C68.0605 93.4219 67.8789 92.6367 67.8789 91.7461C67.8789 90.7734 68.0605 89.9355 68.4238 89.2324C68.7988 88.5293 69.3086 87.9902 69.9531 87.6152C70.5977 87.2285 71.3184 87.0352 72.1152 87.0352ZM72.3789 88.4414C71.7461 88.4414 71.207 88.5996 70.7617 88.916C70.3164 89.2324 69.9707 89.6426 69.7246 90.1465C69.4902 90.6387 69.373 91.1719 69.373 91.7461C69.373 92.3086 69.4902 92.8301 69.7246 93.3105C69.959 93.7793 70.2871 94.1543 70.709 94.4355C71.1426 94.7168 71.6406 94.8574 72.2031 94.8574C72.7422 94.8574 73.2227 94.7168 73.6445 94.4355C74.0664 94.1543 74.4004 93.7676 74.6465 93.2754C74.8926 92.7715 75.0098 92.209 74.998 91.5879L74.9805 89.9004C74.6172 89.4434 74.2246 89.0859 73.8027 88.8281C73.3926 88.5703 72.918 88.4414 72.3789 88.4414ZM80.8691 87.2109V88.5996C81.0566 88.3652 81.2969 88.1309 81.5898 87.8965C81.8828 87.6504 82.2109 87.4453 82.5742 87.2812C82.9492 87.1172 83.3359 87.0352 83.7344 87.0352C84.332 87.0352 84.877 87.1699 85.3691 87.4395C85.8613 87.6973 86.2539 88.0957 86.5469 88.6348C86.8398 89.1621 86.9863 89.8301 86.9863 90.6387V96H85.5449L85.5273 90.7793C85.5273 90.0176 85.3574 89.4375 85.0176 89.0391C84.6895 88.6406 84.1797 88.4414 83.4883 88.4414C83.0195 88.4414 82.5508 88.6172 82.082 88.9688C81.625 89.3086 81.2207 89.707 80.8691 90.1641V96H79.4277V87.2109H80.8691ZM97.6562 83.3438V96H96.2148V94.5059C95.9102 94.9746 95.4941 95.3848 94.9668 95.7363C94.4512 96.0879 93.8594 96.2637 93.1914 96.2637C92.4414 96.2637 91.7559 96.0762 91.1348 95.7012C90.5137 95.3145 90.0156 94.7812 89.6406 94.1016C89.2773 93.4219 89.0957 92.6367 89.0957 91.7461C89.0957 90.7734 89.2773 89.9355 89.6406 89.2324C90.0156 88.5293 90.5254 87.9902 91.1699 87.6152C91.8145 87.2285 92.5352 87.0352 93.332 87.0352C93.8359 87.0352 94.3457 87.1582 94.8613 87.4043C95.3887 87.6387 95.8398 87.9668 96.2148 88.3887V83.3438H97.6562ZM93.5957 88.4766C92.9629 88.4766 92.4238 88.6348 91.9785 88.9512C91.5332 89.2559 91.1875 89.6543 90.9414 90.1465C90.707 90.6387 90.5898 91.1719 90.5898 91.7461C90.5898 92.3086 90.707 92.8301 90.9414 93.3105C91.1758 93.7793 91.5039 94.1543 91.9258 94.4355C92.3594 94.7168 92.8574 94.8574 93.4199 94.8574C93.959 94.8574 94.4395 94.7168 94.8613 94.4355C95.2832 94.1543 95.6172 93.7676 95.8633 93.2754C96.1094 92.7715 96.2266 92.209 96.2148 91.5879L96.1973 89.9004C95.834 89.4434 95.4414 89.0918 95.0195 88.8457C94.6094 88.5996 94.1348 88.4766 93.5957 88.4766ZM107.359 87.2109V88.9688C107.699 88.3828 108.109 87.9141 108.59 87.5625C109.07 87.2109 109.562 87.0352 110.066 87.0352C110.406 87.0352 110.711 87.0938 110.98 87.2109V88.8809C110.605 88.6582 110.23 88.5469 109.855 88.5469C109.258 88.5469 108.771 88.7578 108.396 89.1797C108.033 89.6016 107.688 90.1055 107.359 90.6914V96H105.918V87.2109H107.359ZM116.447 87.0352C117.35 87.0352 118.1 87.2227 118.697 87.5977C119.295 87.9727 119.74 88.4824 120.033 89.127C120.338 89.7715 120.49 90.498 120.49 91.3066V92.168H113.74C113.811 92.6602 113.98 93.1113 114.25 93.5215C114.52 93.9316 114.871 94.2598 115.305 94.5059C115.738 94.7402 116.236 94.8574 116.799 94.8574C117.432 94.8574 118.023 94.6992 118.574 94.3828C119.125 94.0547 119.588 93.6973 119.963 93.3105L119.945 94.875C119.781 95.0742 119.535 95.2852 119.207 95.5078C118.891 95.7188 118.521 95.8945 118.1 96.0352C117.689 96.1875 117.256 96.2637 116.799 96.2637C115.908 96.2637 115.117 96.0527 114.426 95.6309C113.734 95.209 113.189 94.6523 112.791 93.9609C112.404 93.2578 112.211 92.4902 112.211 91.6582C112.211 90.8262 112.393 90.0586 112.756 89.3555C113.119 88.6523 113.617 88.0898 114.25 87.668C114.895 87.2461 115.627 87.0352 116.447 87.0352ZM116.447 88.4414C115.721 88.4414 115.123 88.6875 114.654 89.1797C114.186 89.6602 113.893 90.2461 113.775 90.9375H119.066C119.008 90.3633 118.844 89.8945 118.574 89.5312C118.316 89.168 118 88.8984 117.625 88.7227C117.25 88.5352 116.857 88.4414 116.447 88.4414ZM126.836 87.0352C127.48 87.0352 128.037 87.1406 128.506 87.3516C128.975 87.5508 129.297 87.7324 129.473 87.8965V89.3555C129.145 89.1094 128.77 88.8984 128.348 88.7227C127.926 88.5352 127.422 88.4414 126.836 88.4414C126.215 88.4414 125.67 88.5938 125.201 88.8984C124.732 89.1914 124.369 89.584 124.111 90.0762C123.865 90.5566 123.742 91.084 123.742 91.6582C123.742 92.2207 123.865 92.748 124.111 93.2402C124.369 93.7207 124.732 94.1133 125.201 94.418C125.67 94.7109 126.215 94.8574 126.836 94.8574C127.422 94.8574 127.926 94.7695 128.348 94.5938C128.77 94.4062 129.145 94.1895 129.473 93.9434V95.4023C129.297 95.5781 128.975 95.7656 128.506 95.9648C128.037 96.1641 127.48 96.2637 126.836 96.2637C125.945 96.2637 125.154 96.0527 124.463 95.6309C123.771 95.209 123.227 94.6523 122.828 93.9609C122.441 93.2578 122.248 92.4902 122.248 91.6582C122.248 90.8262 122.441 90.0586 122.828 89.3555C123.227 88.6523 123.771 88.0898 124.463 87.668C125.154 87.2461 125.945 87.0352 126.836 87.0352ZM133.287 87.2109V88.9688C133.627 88.3828 134.037 87.9141 134.518 87.5625C134.998 87.2109 135.49 87.0352 135.994 87.0352C136.334 87.0352 136.639 87.0938 136.908 87.2109V88.8809C136.533 88.6582 136.158 88.5469 135.783 88.5469C135.186 88.5469 134.699 88.7578 134.324 89.1797C133.961 89.6016 133.615 90.1055 133.287 90.6914V96H131.846V87.2109H133.287ZM145.943 87.2109V92.4141C145.943 93.1875 145.779 93.8555 145.451 94.418C145.123 94.9805 144.678 95.4141 144.115 95.7188C143.553 96.0234 142.92 96.1758 142.217 96.1758C141.514 96.1758 140.881 96.0234 140.318 95.7188C139.756 95.4141 139.311 94.9805 138.982 94.418C138.654 93.8555 138.49 93.1875 138.49 92.4141V87.2109H139.984V92.4141C139.984 93.1758 140.207 93.7617 140.652 94.1719C141.109 94.5703 141.631 94.7695 142.217 94.7695C142.803 94.7695 143.318 94.5703 143.764 94.1719C144.221 93.7617 144.449 93.1758 144.449 92.4141V87.2109H145.943ZM150.074 82.9922C150.414 82.9922 150.695 83.1152 150.918 83.3613C151.152 83.5957 151.27 83.8711 151.27 84.1875C151.27 84.4922 151.152 84.7676 150.918 85.0137C150.695 85.2598 150.414 85.3828 150.074 85.3828C149.734 85.3828 149.447 85.2598 149.213 85.0137C148.99 84.7676 148.879 84.4922 148.879 84.1875C148.879 83.8711 148.99 83.5957 149.213 83.3613C149.447 83.1152 149.734 82.9922 150.074 82.9922ZM150.971 87.2109V96H149.529V88.5645H148.141V87.2109H150.971ZM156.508 84.6797V87.2109H159.074V88.5645H156.508V93.7148C156.508 94.0781 156.602 94.3652 156.789 94.5762C156.977 94.7871 157.264 94.8926 157.65 94.8926C158.002 94.8926 158.295 94.8516 158.529 94.7695C158.764 94.6758 158.969 94.5762 159.145 94.4707V95.6484C158.91 95.8359 158.658 95.9824 158.389 96.0879C158.131 96.2051 157.779 96.2637 157.334 96.2637C156.584 96.2637 156.016 96.041 155.629 95.5957C155.254 95.1387 155.066 94.5352 155.066 93.7852V88.5645H153.379V88.1426C153.953 87.8848 154.434 87.4629 154.82 86.877C155.207 86.2793 155.547 85.5469 155.84 84.6797H156.508ZM163.135 87.2109V88.3359C163.416 88.0195 163.773 87.7266 164.207 87.457C164.652 87.1758 165.174 87.0352 165.771 87.0352C166.404 87.0352 166.996 87.1875 167.547 87.4922C168.098 87.7852 168.52 88.2305 168.812 88.8281C169.223 88.3359 169.668 87.9141 170.148 87.5625C170.629 87.2109 171.191 87.0352 171.836 87.0352C172.434 87.0352 172.99 87.1699 173.506 87.4395C174.033 87.6973 174.455 88.0957 174.771 88.6348C175.1 89.1621 175.264 89.8301 175.264 90.6387V96H173.822L173.805 90.7793C173.805 90.0176 173.605 89.4375 173.207 89.0391C172.82 88.6406 172.281 88.4414 171.59 88.4414C171.086 88.4414 170.646 88.5996 170.271 88.916C169.896 89.2324 169.539 89.6016 169.199 90.0234V96H167.758L167.74 90.7793C167.74 90.0176 167.541 89.4375 167.143 89.0391C166.756 88.6406 166.217 88.4414 165.525 88.4414C165.045 88.4414 164.605 88.582 164.207 88.8633C163.82 89.1445 163.463 89.4844 163.135 89.8828V96H161.693V87.2109H163.135ZM181.609 87.0352C182.512 87.0352 183.262 87.2227 183.859 87.5977C184.457 87.9727 184.902 88.4824 185.195 89.127C185.5 89.7715 185.652 90.498 185.652 91.3066V92.168H178.902C178.973 92.6602 179.143 93.1113 179.412 93.5215C179.682 93.9316 180.033 94.2598 180.467 94.5059C180.9 94.7402 181.398 94.8574 181.961 94.8574C182.594 94.8574 183.186 94.6992 183.736 94.3828C184.287 94.0547 184.75 93.6973 185.125 93.3105L185.107 94.875C184.943 95.0742 184.697 95.2852 184.369 95.5078C184.053 95.7188 183.684 95.8945 183.262 96.0352C182.852 96.1875 182.418 96.2637 181.961 96.2637C181.07 96.2637 180.279 96.0527 179.588 95.6309C178.896 95.209 178.352 94.6523 177.953 93.9609C177.566 93.2578 177.373 92.4902 177.373 91.6582C177.373 90.8262 177.555 90.0586 177.918 89.3555C178.281 88.6523 178.779 88.0898 179.412 87.668C180.057 87.2461 180.789 87.0352 181.609 87.0352ZM181.609 88.4414C180.883 88.4414 180.285 88.6875 179.816 89.1797C179.348 89.6602 179.055 90.2461 178.938 90.9375H184.229C184.17 90.3633 184.006 89.8945 183.736 89.5312C183.479 89.168 183.162 88.8984 182.787 88.7227C182.412 88.5352 182.02 88.4414 181.609 88.4414ZM189.467 87.2109V88.5996C189.654 88.3652 189.895 88.1309 190.188 87.8965C190.48 87.6504 190.809 87.4453 191.172 87.2812C191.547 87.1172 191.934 87.0352 192.332 87.0352C192.93 87.0352 193.475 87.1699 193.967 87.4395C194.459 87.6973 194.852 88.0957 195.145 88.6348C195.438 89.1621 195.584 89.8301 195.584 90.6387V96H194.143L194.125 90.7793C194.125 90.0176 193.955 89.4375 193.615 89.0391C193.287 88.6406 192.777 88.4414 192.086 88.4414C191.617 88.4414 191.148 88.6172 190.68 88.9688C190.223 89.3086 189.818 89.707 189.467 90.1641V96H188.025V87.2109H189.467ZM200.734 84.6797V87.2109H203.301V88.5645H200.734V93.7148C200.734 94.0781 200.828 94.3652 201.016 94.5762C201.203 94.7871 201.49 94.8926 201.877 94.8926C202.229 94.8926 202.521 94.8516 202.756 94.7695C202.99 94.6758 203.195 94.5762 203.371 94.4707V95.6484C203.137 95.8359 202.885 95.9824 202.615 96.0879C202.357 96.2051 202.006 96.2637 201.561 96.2637C200.811 96.2637 200.242 96.041 199.855 95.5957C199.48 95.1387 199.293 94.5352 199.293 93.7852V88.5645H197.605V88.1426C198.18 87.8848 198.66 87.4629 199.047 86.877C199.434 86.2793 199.773 85.5469 200.066 84.6797H200.734ZM209.084 83.959C209.787 83.959 210.426 84.1055 211 84.3984C211.574 84.6914 212.025 85.0957 212.354 85.6113C212.693 86.127 212.863 86.7188 212.863 87.3867C212.863 87.8203 212.752 88.2129 212.529 88.5645C212.318 88.9043 212.049 89.2148 211.721 89.4961C211.404 89.7773 211.088 90.041 210.771 90.2871C210.455 90.5332 210.191 90.7793 209.98 91.0254C209.77 91.2715 209.67 91.5293 209.682 91.7988L209.699 92.168H207.994V91.4648C207.994 91.207 208.094 90.9609 208.293 90.7266C208.504 90.4805 208.762 90.2402 209.066 90.0059C209.371 89.7598 209.676 89.5137 209.98 89.2676C210.297 89.0098 210.555 88.7461 210.754 88.4766C210.965 88.207 211.07 87.9199 211.07 87.6152C211.07 87.041 210.883 86.5664 210.508 86.1914C210.145 85.8164 209.611 85.6289 208.908 85.6289C208.205 85.6289 207.619 85.7695 207.15 86.0508C206.693 86.3203 206.254 86.7246 205.832 87.2637V85.3477C206.148 84.9609 206.6 84.6328 207.186 84.3633C207.771 84.0938 208.404 83.959 209.084 83.959ZM208.926 93.8555C209.266 93.8555 209.553 93.9785 209.787 94.2246C210.033 94.459 210.156 94.7461 210.156 95.0859C210.156 95.4141 210.033 95.7012 209.787 95.9473C209.553 96.1934 209.266 96.3164 208.926 96.3164C208.586 96.3164 208.293 96.1934 208.047 95.9473C207.812 95.7012 207.695 95.4141 207.695 95.0859C207.695 94.7461 207.812 94.459 208.047 94.2246C208.293 93.9785 208.586 93.8555 208.926 93.8555Z" fill="#1F365D"/>
<path d="M799.668 66.6665V58.6665H802.335V66.6665H810.335V69.3332H802.335V77.3332H799.668V69.3332H791.668V66.6665H799.668Z" fill="#1F365D"/>
</g>
<defs>
<filter id="filter0_d_610_7042" x="0" y="0" width="884" height="160" filterUnits="userSpaceOnUse" color-interpolation-filters="sRGB">
<feFlood flood-opacity="0" result="BackgroundImageFix"/>
<feColorMatrix in="SourceAlpha" type="matrix" values="0 0 0 0 0 0 0 0 0 0 0 0 0 0 0 0 0 0 127 0" result="hardAlpha"/>
<feOffset dy="4"/>
<feGaussianBlur stdDeviation="17.5"/>
<feComposite in2="hardAlpha" operator="out"/>
<feColorMatrix type="matrix" values="0 0 0 0 0.920833 0 0 0 0 0.916997 0 0 0 0 0.916997 0 0 0 0.25 0"/>
<feBlend mode="normal" in2="BackgroundImageFix" result="effect1_dropShadow_610_7042"/>
<feBlend mode="normal" in="SourceGraphic" in2="effect1_dropShadow_610_7042" result="shape"/>
</filter>
</defs>
</svg>
