<svg width="884" height="160" viewBox="0 0 884 160" fill="none" xmlns="http://www.w3.org/2000/svg">
<g filter="url(#filter0_d_610_6815)">
<rect x="35" y="31" width="814" height="90" rx="4" fill="white"/>
<path d="M74.084 69.959C74.9395 69.959 75.6367 70.0762 76.1758 70.3105C76.7266 70.5449 77.207 70.8496 77.6172 71.2246V72.9648C77.3594 72.7773 77.0664 72.5723 76.7383 72.3496C76.4219 72.127 76.0469 71.9336 75.6133 71.7695C75.1914 71.5938 74.6816 71.5059 74.084 71.5059C73.2051 71.5059 72.4199 71.7051 71.7285 72.1035C71.0371 72.502 70.4922 73.0527 70.0938 73.7559C69.6953 74.4473 69.4961 75.2324 69.4961 76.1113C69.4961 76.9902 69.6953 77.7754 70.0938 78.4668C70.4922 79.1582 71.0371 79.709 71.7285 80.1191C72.4199 80.5176 73.2051 80.7168 74.084 80.7168C74.9863 80.7168 75.7539 80.5703 76.3867 80.2773C77.0312 79.9727 77.5586 79.6621 77.9688 79.3457V80.9277C77.5586 81.291 77.0195 81.6074 76.3516 81.877C75.6953 82.1348 74.9395 82.2637 74.084 82.2637C73.1934 82.2637 72.373 82.1055 71.623 81.7891C70.873 81.4609 70.2168 81.0156 69.6543 80.4531C69.0918 79.8906 68.6523 79.2402 68.3359 78.502C68.0312 77.752 67.8789 76.9551 67.8789 76.1113C67.8789 75.2676 68.0312 74.4766 68.3359 73.7383C68.6523 72.9883 69.0918 72.332 69.6543 71.7695C70.2168 71.207 70.873 70.7676 71.623 70.4512C72.373 70.123 73.1934 69.959 74.084 69.959ZM83.9629 73.0352C84.4668 73.0352 84.9766 73.1582 85.4922 73.4043C86.0195 73.6387 86.4707 73.9668 86.8457 74.3887V73.2109H88.2871V82H86.8457V80.5059C86.541 80.9746 86.125 81.3848 85.5977 81.7363C85.082 82.0879 84.4902 82.2637 83.8223 82.2637C83.0723 82.2637 82.3867 82.0762 81.7656 81.7012C81.1445 81.3145 80.6465 80.7812 80.2715 80.1016C79.9082 79.4219 79.7266 78.6367 79.7266 77.7461C79.7266 76.7734 79.9082 75.9355 80.2715 75.2324C80.6465 74.5293 81.1562 73.9902 81.8008 73.6152C82.4453 73.2285 83.166 73.0352 83.9629 73.0352ZM84.2266 74.4414C83.5938 74.4414 83.0547 74.5996 82.6094 74.916C82.1641 75.2324 81.8184 75.6426 81.5723 76.1465C81.3379 76.6387 81.2207 77.1719 81.2207 77.7461C81.2207 78.3086 81.3379 78.8301 81.5723 79.3105C81.8066 79.7793 82.1348 80.1543 82.5566 80.4355C82.9902 80.7168 83.4883 80.8574 84.0508 80.8574C84.5898 80.8574 85.0703 80.7168 85.4922 80.4355C85.9141 80.1543 86.248 79.7676 86.4941 79.2754C86.7402 78.7715 86.8574 78.209 86.8457 77.5879L86.8281 75.9004C86.4648 75.4434 86.0723 75.0859 85.6504 74.8281C85.2402 74.5703 84.7656 74.4414 84.2266 74.4414ZM92.7168 73.2109V74.5996C92.9043 74.3652 93.1445 74.1309 93.4375 73.8965C93.7305 73.6504 94.0586 73.4453 94.4219 73.2812C94.7969 73.1172 95.1836 73.0352 95.582 73.0352C96.1797 73.0352 96.7246 73.1699 97.2168 73.4395C97.709 73.6973 98.1016 74.0957 98.3945 74.6348C98.6875 75.1621 98.834 75.8301 98.834 76.6387V82H97.3926L97.375 76.7793C97.375 76.0176 97.2051 75.4375 96.8652 75.0391C96.5371 74.6406 96.0273 74.4414 95.3359 74.4414C94.8672 74.4414 94.3984 74.6172 93.9297 74.9688C93.4727 75.3086 93.0684 75.707 92.7168 76.1641V82H91.2754V73.2109H92.7168ZM112.826 80.5059V82H107.271V80.5059H109.258V71.7168H107.271V70.2227H112.826V71.7168H110.84V80.5059H112.826ZM123.953 70.6797V73.2109H126.52V74.5645H123.953V79.7148C123.953 80.0781 124.047 80.3652 124.234 80.5762C124.422 80.7871 124.709 80.8926 125.096 80.8926C125.447 80.8926 125.74 80.8516 125.975 80.7695C126.209 80.6758 126.414 80.5762 126.59 80.4707V81.6484C126.355 81.8359 126.104 81.9824 125.834 82.0879C125.576 82.2051 125.225 82.2637 124.779 82.2637C124.029 82.2637 123.461 82.041 123.074 81.5957C122.699 81.1387 122.512 80.5352 122.512 79.7852V74.5645H120.824V74.1426C121.398 73.8848 121.879 73.4629 122.266 72.877C122.652 72.2793 122.992 71.5469 123.285 70.6797H123.953ZM132.76 73.0352C133.264 73.0352 133.773 73.1582 134.289 73.4043C134.816 73.6387 135.268 73.9668 135.643 74.3887V73.2109H137.084V82H135.643V80.5059C135.338 80.9746 134.922 81.3848 134.395 81.7363C133.879 82.0879 133.287 82.2637 132.619 82.2637C131.869 82.2637 131.184 82.0762 130.562 81.7012C129.941 81.3145 129.443 80.7812 129.068 80.1016C128.705 79.4219 128.523 78.6367 128.523 77.7461C128.523 76.7734 128.705 75.9355 129.068 75.2324C129.443 74.5293 129.953 73.9902 130.598 73.6152C131.242 73.2285 131.963 73.0352 132.76 73.0352ZM133.023 74.4414C132.391 74.4414 131.852 74.5996 131.406 74.916C130.961 75.2324 130.615 75.6426 130.369 76.1465C130.135 76.6387 130.018 77.1719 130.018 77.7461C130.018 78.3086 130.135 78.8301 130.369 79.3105C130.604 79.7793 130.932 80.1543 131.354 80.4355C131.787 80.7168 132.285 80.8574 132.848 80.8574C133.387 80.8574 133.867 80.7168 134.289 80.4355C134.711 80.1543 135.045 79.7676 135.291 79.2754C135.537 78.7715 135.654 78.209 135.643 77.5879L135.625 75.9004C135.262 75.4434 134.869 75.0859 134.447 74.8281C134.037 74.5703 133.562 74.4414 133.023 74.4414ZM147.842 73.2109L143.764 77.043L148.07 82H146.242L142.762 77.9922L141.514 79.1523V82H140.072V69.3438H141.514V77.5L145.891 73.2109H147.842ZM152.746 73.0352C153.648 73.0352 154.398 73.2227 154.996 73.5977C155.594 73.9727 156.039 74.4824 156.332 75.127C156.637 75.7715 156.789 76.498 156.789 77.3066V78.168H150.039C150.109 78.6602 150.279 79.1113 150.549 79.5215C150.818 79.9316 151.17 80.2598 151.604 80.5059C152.037 80.7402 152.535 80.8574 153.098 80.8574C153.73 80.8574 154.322 80.6992 154.873 80.3828C155.424 80.0547 155.887 79.6973 156.262 79.3105L156.244 80.875C156.08 81.0742 155.834 81.2852 155.506 81.5078C155.189 81.7188 154.82 81.8945 154.398 82.0352C153.988 82.1875 153.555 82.2637 153.098 82.2637C152.207 82.2637 151.416 82.0527 150.725 81.6309C150.033 81.209 149.488 80.6523 149.09 79.9609C148.703 79.2578 148.51 78.4902 148.51 77.6582C148.51 76.8262 148.691 76.0586 149.055 75.3555C149.418 74.6523 149.916 74.0898 150.549 73.668C151.193 73.2461 151.926 73.0352 152.746 73.0352ZM152.746 74.4414C152.02 74.4414 151.422 74.6875 150.953 75.1797C150.484 75.6602 150.191 76.2461 150.074 76.9375H155.365C155.307 76.3633 155.143 75.8945 154.873 75.5312C154.615 75.168 154.299 74.8984 153.924 74.7227C153.549 74.5352 153.156 74.4414 152.746 74.4414ZM166.861 70.6797V73.2109H169.428V74.5645H166.861V79.7148C166.861 80.0781 166.955 80.3652 167.143 80.5762C167.33 80.7871 167.617 80.8926 168.004 80.8926C168.355 80.8926 168.648 80.8516 168.883 80.7695C169.117 80.6758 169.322 80.5762 169.498 80.4707V81.6484C169.264 81.8359 169.012 81.9824 168.742 82.0879C168.484 82.2051 168.133 82.2637 167.688 82.2637C166.938 82.2637 166.369 82.041 165.982 81.5957C165.607 81.1387 165.42 80.5352 165.42 79.7852V74.5645H163.732V74.1426C164.307 73.8848 164.787 73.4629 165.174 72.877C165.561 72.2793 165.9 71.5469 166.193 70.6797H166.861ZM176.354 73.0352C176.951 73.0352 177.496 73.1699 177.988 73.4395C178.48 73.6973 178.873 74.0957 179.166 74.6348C179.459 75.1621 179.605 75.8301 179.605 76.6387V82H178.164L178.146 76.7793C178.146 76.0176 177.977 75.4375 177.637 75.0391C177.309 74.6406 176.799 74.4414 176.107 74.4414C175.639 74.4414 175.17 74.6172 174.701 74.9688C174.244 75.3086 173.84 75.707 173.488 76.1641V82H172.047V69.3438H173.488V74.5996C173.676 74.3652 173.916 74.1309 174.209 73.8965C174.502 73.6504 174.83 73.4453 175.193 73.2812C175.568 73.1172 175.955 73.0352 176.354 73.0352ZM185.951 73.0352C186.854 73.0352 187.604 73.2227 188.201 73.5977C188.799 73.9727 189.244 74.4824 189.537 75.127C189.842 75.7715 189.994 76.498 189.994 77.3066V78.168H183.244C183.314 78.6602 183.484 79.1113 183.754 79.5215C184.023 79.9316 184.375 80.2598 184.809 80.5059C185.242 80.7402 185.74 80.8574 186.303 80.8574C186.936 80.8574 187.527 80.6992 188.078 80.3828C188.629 80.0547 189.092 79.6973 189.467 79.3105L189.449 80.875C189.285 81.0742 189.039 81.2852 188.711 81.5078C188.395 81.7188 188.025 81.8945 187.604 82.0352C187.193 82.1875 186.76 82.2637 186.303 82.2637C185.412 82.2637 184.621 82.0527 183.93 81.6309C183.238 81.209 182.693 80.6523 182.295 79.9609C181.908 79.2578 181.715 78.4902 181.715 77.6582C181.715 76.8262 181.896 76.0586 182.26 75.3555C182.623 74.6523 183.121 74.0898 183.754 73.668C184.398 73.2461 185.131 73.0352 185.951 73.0352ZM185.951 74.4414C185.225 74.4414 184.627 74.6875 184.158 75.1797C183.689 75.6602 183.396 76.2461 183.279 76.9375H188.57C188.512 76.3633 188.348 75.8945 188.078 75.5312C187.82 75.168 187.504 74.8984 187.129 74.7227C186.754 74.5352 186.361 74.4414 185.951 74.4414ZM201.613 73.0352C202.258 73.0352 202.814 73.1406 203.283 73.3516C203.752 73.5508 204.074 73.7324 204.25 73.8965V75.3555C203.922 75.1094 203.547 74.8984 203.125 74.7227C202.703 74.5352 202.199 74.4414 201.613 74.4414C200.992 74.4414 200.447 74.5938 199.979 74.8984C199.51 75.1914 199.146 75.584 198.889 76.0762C198.643 76.5566 198.52 77.084 198.52 77.6582C198.52 78.2207 198.643 78.748 198.889 79.2402C199.146 79.7207 199.51 80.1133 199.979 80.418C200.447 80.7109 200.992 80.8574 201.613 80.8574C202.199 80.8574 202.703 80.7695 203.125 80.5938C203.547 80.4062 203.922 80.1895 204.25 79.9434V81.4023C204.074 81.5781 203.752 81.7656 203.283 81.9648C202.814 82.1641 202.258 82.2637 201.613 82.2637C200.723 82.2637 199.932 82.0527 199.24 81.6309C198.549 81.209 198.004 80.6523 197.605 79.9609C197.219 79.2578 197.025 78.4902 197.025 77.6582C197.025 76.8262 197.219 76.0586 197.605 75.3555C198.004 74.6523 198.549 74.0898 199.24 73.668C199.932 73.2461 200.723 73.0352 201.613 73.0352ZM210.596 73.0352C211.486 73.0352 212.277 73.2461 212.969 73.668C213.66 74.0898 214.199 74.6523 214.586 75.3555C214.984 76.0586 215.184 76.8262 215.184 77.6582C215.184 78.4902 214.984 79.2578 214.586 79.9609C214.199 80.6523 213.66 81.209 212.969 81.6309C212.277 82.0527 211.486 82.2637 210.596 82.2637C209.705 82.2637 208.914 82.0527 208.223 81.6309C207.531 81.209 206.986 80.6523 206.588 79.9609C206.201 79.2578 206.008 78.4902 206.008 77.6582C206.008 76.8262 206.201 76.0586 206.588 75.3555C206.986 74.6523 207.531 74.0898 208.223 73.668C208.914 73.2461 209.705 73.0352 210.596 73.0352ZM210.596 74.4414C209.975 74.4414 209.43 74.5938 208.961 74.8984C208.492 75.1914 208.129 75.584 207.871 76.0762C207.625 76.5566 207.502 77.084 207.502 77.6582C207.502 78.2207 207.625 78.748 207.871 79.2402C208.129 79.7207 208.492 80.1133 208.961 80.418C209.43 80.7109 209.975 80.8574 210.596 80.8574C211.229 80.8574 211.773 80.7109 212.23 80.418C212.699 80.1133 213.057 79.7207 213.303 79.2402C213.561 78.748 213.689 78.2207 213.689 77.6582C213.689 77.084 213.561 76.5566 213.303 76.0762C213.057 75.584 212.699 75.1914 212.23 74.8984C211.773 74.5938 211.229 74.4414 210.596 74.4414ZM224.746 73.2109V78.4141C224.746 79.1875 224.582 79.8555 224.254 80.418C223.926 80.9805 223.48 81.4141 222.918 81.7188C222.355 82.0234 221.723 82.1758 221.02 82.1758C220.316 82.1758 219.684 82.0234 219.121 81.7188C218.559 81.4141 218.113 80.9805 217.785 80.418C217.457 79.8555 217.293 79.1875 217.293 78.4141V73.2109H218.787V78.4141C218.787 79.1758 219.01 79.7617 219.455 80.1719C219.912 80.5703 220.434 80.7695 221.02 80.7695C221.605 80.7695 222.121 80.5703 222.566 80.1719C223.023 79.7617 223.252 79.1758 223.252 78.4141V73.2109H224.746ZM228.912 73.2109V74.9688C229.252 74.3828 229.662 73.9141 230.143 73.5625C230.623 73.2109 231.115 73.0352 231.619 73.0352C231.959 73.0352 232.264 73.0938 232.533 73.2109V74.8809C232.158 74.6582 231.783 74.5469 231.408 74.5469C230.811 74.5469 230.324 74.7578 229.949 75.1797C229.586 75.6016 229.24 76.1055 228.912 76.6914V82H227.471V73.2109H228.912ZM236.998 73.0352C237.514 73.0352 237.994 73.1113 238.439 73.2637C238.885 73.4043 239.207 73.5508 239.406 73.7031V75.25C239.16 75.0625 238.826 74.8809 238.404 74.7051C237.982 74.5293 237.549 74.4414 237.104 74.4414C236.553 74.4414 236.137 74.5703 235.855 74.8281C235.586 75.0859 235.451 75.3555 235.451 75.6367C235.451 75.8594 235.527 76.0879 235.68 76.3223C235.844 76.5449 236.125 76.7266 236.523 76.8672L238 77.3945C238.574 77.5938 239.002 77.8809 239.283 78.2559C239.564 78.6309 239.705 79.0703 239.705 79.5742C239.705 80.0664 239.564 80.5176 239.283 80.9277C239.014 81.3379 238.633 81.666 238.141 81.9121C237.66 82.1465 237.104 82.2637 236.471 82.2637C236.131 82.2637 235.773 82.2168 235.398 82.123C235.035 82.041 234.707 81.9414 234.414 81.8242C234.121 81.6953 233.904 81.584 233.764 81.4902V79.9434C233.928 80.0605 234.156 80.1953 234.449 80.3477C234.754 80.4883 235.076 80.6113 235.416 80.7168C235.756 80.8105 236.072 80.8574 236.365 80.8574C236.916 80.8574 237.35 80.7344 237.666 80.4883C237.994 80.2422 238.158 79.9375 238.158 79.5742C238.158 79.293 238.047 79.0703 237.824 78.9062C237.613 78.7422 237.303 78.584 236.893 78.4316L235.592 77.957C234.912 77.6992 234.461 77.377 234.238 76.9902C234.016 76.5918 233.904 76.1406 233.904 75.6367C233.904 74.8867 234.186 74.2656 234.748 73.7734C235.311 73.2812 236.061 73.0352 236.998 73.0352ZM245.523 73.0352C246.426 73.0352 247.176 73.2227 247.773 73.5977C248.371 73.9727 248.816 74.4824 249.109 75.127C249.414 75.7715 249.566 76.498 249.566 77.3066V78.168H242.816C242.887 78.6602 243.057 79.1113 243.326 79.5215C243.596 79.9316 243.947 80.2598 244.381 80.5059C244.814 80.7402 245.312 80.8574 245.875 80.8574C246.508 80.8574 247.1 80.6992 247.65 80.3828C248.201 80.0547 248.664 79.6973 249.039 79.3105L249.021 80.875C248.857 81.0742 248.611 81.2852 248.283 81.5078C247.967 81.7188 247.598 81.8945 247.176 82.0352C246.766 82.1875 246.332 82.2637 245.875 82.2637C244.984 82.2637 244.193 82.0527 243.502 81.6309C242.811 81.209 242.266 80.6523 241.867 79.9609C241.48 79.2578 241.287 78.4902 241.287 77.6582C241.287 76.8262 241.469 76.0586 241.832 75.3555C242.195 74.6523 242.693 74.0898 243.326 73.668C243.971 73.2461 244.703 73.0352 245.523 73.0352ZM245.523 74.4414C244.797 74.4414 244.199 74.6875 243.73 75.1797C243.262 75.6602 242.969 76.2461 242.852 76.9375H248.143C248.084 76.3633 247.92 75.8945 247.65 75.5312C247.393 75.168 247.076 74.8984 246.701 74.7227C246.326 74.5352 245.934 74.4414 245.523 74.4414ZM260.834 73.0352C261.338 73.0352 261.848 73.1582 262.363 73.4043C262.891 73.6387 263.342 73.9668 263.717 74.3887V73.2109H265.158V82H263.717V80.5059C263.412 80.9746 262.996 81.3848 262.469 81.7363C261.953 82.0879 261.361 82.2637 260.693 82.2637C259.943 82.2637 259.258 82.0762 258.637 81.7012C258.016 81.3145 257.518 80.7812 257.143 80.1016C256.779 79.4219 256.598 78.6367 256.598 77.7461C256.598 76.7734 256.779 75.9355 257.143 75.2324C257.518 74.5293 258.027 73.9902 258.672 73.6152C259.316 73.2285 260.037 73.0352 260.834 73.0352ZM261.098 74.4414C260.465 74.4414 259.926 74.5996 259.48 74.916C259.035 75.2324 258.689 75.6426 258.443 76.1465C258.209 76.6387 258.092 77.1719 258.092 77.7461C258.092 78.3086 258.209 78.8301 258.443 79.3105C258.678 79.7793 259.006 80.1543 259.428 80.4355C259.861 80.7168 260.359 80.8574 260.922 80.8574C261.461 80.8574 261.941 80.7168 262.363 80.4355C262.785 80.1543 263.119 79.7676 263.365 79.2754C263.611 78.7715 263.729 78.209 263.717 77.5879L263.699 75.9004C263.336 75.4434 262.943 75.0859 262.521 74.8281C262.111 74.5703 261.637 74.4414 261.098 74.4414ZM272.119 73.0352C272.764 73.0352 273.32 73.1406 273.789 73.3516C274.258 73.5508 274.58 73.7324 274.756 73.8965V75.3555C274.428 75.1094 274.053 74.8984 273.631 74.7227C273.209 74.5352 272.705 74.4414 272.119 74.4414C271.498 74.4414 270.953 74.5938 270.484 74.8984C270.016 75.1914 269.652 75.584 269.395 76.0762C269.148 76.5566 269.025 77.084 269.025 77.6582C269.025 78.2207 269.148 78.748 269.395 79.2402C269.652 79.7207 270.016 80.1133 270.484 80.418C270.953 80.7109 271.498 80.8574 272.119 80.8574C272.705 80.8574 273.209 80.7695 273.631 80.5938C274.053 80.4062 274.428 80.1895 274.756 79.9434V81.4023C274.58 81.5781 274.258 81.7656 273.789 81.9648C273.32 82.1641 272.764 82.2637 272.119 82.2637C271.229 82.2637 270.438 82.0527 269.746 81.6309C269.055 81.209 268.51 80.6523 268.111 79.9609C267.725 79.2578 267.531 78.4902 267.531 77.6582C267.531 76.8262 267.725 76.0586 268.111 75.3555C268.51 74.6523 269.055 74.0898 269.746 73.668C270.438 73.2461 271.229 73.0352 272.119 73.0352ZM281.102 73.0352C281.746 73.0352 282.303 73.1406 282.771 73.3516C283.24 73.5508 283.562 73.7324 283.738 73.8965V75.3555C283.41 75.1094 283.035 74.8984 282.613 74.7227C282.191 74.5352 281.688 74.4414 281.102 74.4414C280.48 74.4414 279.936 74.5938 279.467 74.8984C278.998 75.1914 278.635 75.584 278.377 76.0762C278.131 76.5566 278.008 77.084 278.008 77.6582C278.008 78.2207 278.131 78.748 278.377 79.2402C278.635 79.7207 278.998 80.1133 279.467 80.418C279.936 80.7109 280.48 80.8574 281.102 80.8574C281.688 80.8574 282.191 80.7695 282.613 80.5938C283.035 80.4062 283.41 80.1895 283.738 79.9434V81.4023C283.562 81.5781 283.24 81.7656 282.771 81.9648C282.303 82.1641 281.746 82.2637 281.102 82.2637C280.211 82.2637 279.42 82.0527 278.729 81.6309C278.037 81.209 277.492 80.6523 277.094 79.9609C276.707 79.2578 276.514 78.4902 276.514 77.6582C276.514 76.8262 276.707 76.0586 277.094 75.3555C277.492 74.6523 278.037 74.0898 278.729 73.668C279.42 73.2461 280.211 73.0352 281.102 73.0352ZM290.084 73.0352C290.975 73.0352 291.766 73.2461 292.457 73.668C293.148 74.0898 293.688 74.6523 294.074 75.3555C294.473 76.0586 294.672 76.8262 294.672 77.6582C294.672 78.4902 294.473 79.2578 294.074 79.9609C293.688 80.6523 293.148 81.209 292.457 81.6309C291.766 82.0527 290.975 82.2637 290.084 82.2637C289.193 82.2637 288.402 82.0527 287.711 81.6309C287.02 81.209 286.475 80.6523 286.076 79.9609C285.689 79.2578 285.496 78.4902 285.496 77.6582C285.496 76.8262 285.689 76.0586 286.076 75.3555C286.475 74.6523 287.02 74.0898 287.711 73.668C288.402 73.2461 289.193 73.0352 290.084 73.0352ZM290.084 74.4414C289.463 74.4414 288.918 74.5938 288.449 74.8984C287.98 75.1914 287.617 75.584 287.359 76.0762C287.113 76.5566 286.99 77.084 286.99 77.6582C286.99 78.2207 287.113 78.748 287.359 79.2402C287.617 79.7207 287.98 80.1133 288.449 80.418C288.918 80.7109 289.463 80.8574 290.084 80.8574C290.717 80.8574 291.262 80.7109 291.719 80.418C292.188 80.1133 292.545 79.7207 292.791 79.2402C293.049 78.748 293.178 78.2207 293.178 77.6582C293.178 77.084 293.049 76.5566 292.791 76.0762C292.545 75.584 292.188 75.1914 291.719 74.8984C291.262 74.5938 290.717 74.4414 290.084 74.4414ZM298.486 73.2109V74.9688C298.826 74.3828 299.236 73.9141 299.717 73.5625C300.197 73.2109 300.689 73.0352 301.193 73.0352C301.533 73.0352 301.838 73.0938 302.107 73.2109V74.8809C301.732 74.6582 301.357 74.5469 300.982 74.5469C300.385 74.5469 299.898 74.7578 299.523 75.1797C299.16 75.6016 298.814 76.1055 298.486 76.6914V82H297.045V73.2109H298.486ZM311.898 69.3438V82H310.457V80.5059C310.152 80.9746 309.736 81.3848 309.209 81.7363C308.693 82.0879 308.102 82.2637 307.434 82.2637C306.684 82.2637 305.998 82.0762 305.377 81.7012C304.756 81.3145 304.258 80.7812 303.883 80.1016C303.52 79.4219 303.338 78.6367 303.338 77.7461C303.338 76.7734 303.52 75.9355 303.883 75.2324C304.258 74.5293 304.768 73.9902 305.412 73.6152C306.057 73.2285 306.777 73.0352 307.574 73.0352C308.078 73.0352 308.588 73.1582 309.104 73.4043C309.631 73.6387 310.082 73.9668 310.457 74.3887V69.3438H311.898ZM307.838 74.4766C307.205 74.4766 306.666 74.6348 306.221 74.9512C305.775 75.2559 305.43 75.6543 305.184 76.1465C304.949 76.6387 304.832 77.1719 304.832 77.7461C304.832 78.3086 304.949 78.8301 305.184 79.3105C305.418 79.7793 305.746 80.1543 306.168 80.4355C306.602 80.7168 307.1 80.8574 307.662 80.8574C308.201 80.8574 308.682 80.7168 309.104 80.4355C309.525 80.1543 309.859 79.7676 310.105 79.2754C310.352 78.7715 310.469 78.209 310.457 77.5879L310.439 75.9004C310.076 75.4434 309.684 75.0918 309.262 74.8457C308.852 74.5996 308.377 74.4766 307.838 74.4766ZM316.293 68.9922C316.633 68.9922 316.914 69.1152 317.137 69.3613C317.371 69.5957 317.488 69.8711 317.488 70.1875C317.488 70.4922 317.371 70.7676 317.137 71.0137C316.914 71.2598 316.633 71.3828 316.293 71.3828C315.953 71.3828 315.666 71.2598 315.432 71.0137C315.209 70.7676 315.098 70.4922 315.098 70.1875C315.098 69.8711 315.209 69.5957 315.432 69.3613C315.666 69.1152 315.953 68.9922 316.293 68.9922ZM317.189 73.2109V82H315.748V74.5645H314.359V73.2109H317.189ZM321.742 73.2109V74.5996C321.93 74.3652 322.17 74.1309 322.463 73.8965C322.756 73.6504 323.084 73.4453 323.447 73.2812C323.822 73.1172 324.209 73.0352 324.607 73.0352C325.205 73.0352 325.75 73.1699 326.242 73.4395C326.734 73.6973 327.127 74.0957 327.42 74.6348C327.713 75.1621 327.859 75.8301 327.859 76.6387V82H326.418L326.4 76.7793C326.4 76.0176 326.23 75.4375 325.891 75.0391C325.562 74.6406 325.053 74.4414 324.361 74.4414C323.893 74.4414 323.424 74.6172 322.955 74.9688C322.498 75.3086 322.094 75.707 321.742 76.1641V82H320.301V73.2109H321.742ZM334.205 73.0352C334.709 73.0352 335.219 73.1582 335.734 73.4043C336.262 73.6387 336.713 73.9668 337.088 74.3887V73.2109H338.529V81.8242C338.529 82.8672 338.318 83.7344 337.896 84.4258C337.475 85.1172 336.912 85.6328 336.209 85.9727C335.506 86.3125 334.738 86.4824 333.906 86.4824C333.367 86.4824 332.904 86.418 332.518 86.2891C332.143 86.1719 331.82 86.0195 331.551 85.832C331.281 85.6562 331.035 85.4863 330.812 85.3223V83.7754C330.988 83.9043 331.217 84.0684 331.498 84.2676C331.791 84.4785 332.137 84.666 332.535 84.8301C332.945 84.9941 333.402 85.0762 333.906 85.0762C334.48 85.0762 335.008 84.9707 335.488 84.7598C335.969 84.5488 336.355 84.2383 336.648 83.8281C336.941 83.418 337.088 82.9258 337.088 82.3516V80.5059C336.783 80.9746 336.367 81.3848 335.84 81.7363C335.324 82.0879 334.732 82.2637 334.064 82.2637C333.314 82.2637 332.629 82.0762 332.008 81.7012C331.387 81.3145 330.889 80.7812 330.514 80.1016C330.15 79.4219 329.969 78.6367 329.969 77.7461C329.969 76.7734 330.15 75.9355 330.514 75.2324C330.889 74.5293 331.398 73.9902 332.043 73.6152C332.688 73.2285 333.408 73.0352 334.205 73.0352ZM334.469 74.459C333.836 74.459 333.297 74.6172 332.852 74.9336C332.406 75.2383 332.061 75.6426 331.814 76.1465C331.58 76.6387 331.463 77.1719 331.463 77.7461C331.463 78.3086 331.58 78.8242 331.814 79.293C332.049 79.7617 332.377 80.1367 332.799 80.418C333.232 80.6992 333.73 80.8398 334.293 80.8398C334.832 80.8398 335.312 80.6992 335.734 80.418C336.156 80.1367 336.49 79.75 336.736 79.2578C336.982 78.7656 337.1 78.209 337.088 77.5879L337.07 75.9004C336.707 75.4434 336.314 75.0918 335.893 74.8457C335.482 74.5879 335.008 74.459 334.469 74.459ZM349.217 70.6797V73.2109H351.783V74.5645H349.217V79.7148C349.217 80.0781 349.311 80.3652 349.498 80.5762C349.686 80.7871 349.973 80.8926 350.359 80.8926C350.711 80.8926 351.004 80.8516 351.238 80.7695C351.473 80.6758 351.678 80.5762 351.854 80.4707V81.6484C351.619 81.8359 351.367 81.9824 351.098 82.0879C350.84 82.2051 350.488 82.2637 350.043 82.2637C349.293 82.2637 348.725 82.041 348.338 81.5957C347.963 81.1387 347.775 80.5352 347.775 79.7852V74.5645H346.088V74.1426C346.662 73.8848 347.143 73.4629 347.529 72.877C347.916 72.2793 348.256 71.5469 348.549 70.6797H349.217ZM358.375 73.0352C359.266 73.0352 360.057 73.2461 360.748 73.668C361.439 74.0898 361.979 74.6523 362.365 75.3555C362.764 76.0586 362.963 76.8262 362.963 77.6582C362.963 78.4902 362.764 79.2578 362.365 79.9609C361.979 80.6523 361.439 81.209 360.748 81.6309C360.057 82.0527 359.266 82.2637 358.375 82.2637C357.484 82.2637 356.693 82.0527 356.002 81.6309C355.311 81.209 354.766 80.6523 354.367 79.9609C353.98 79.2578 353.787 78.4902 353.787 77.6582C353.787 76.8262 353.98 76.0586 354.367 75.3555C354.766 74.6523 355.311 74.0898 356.002 73.668C356.693 73.2461 357.484 73.0352 358.375 73.0352ZM358.375 74.4414C357.754 74.4414 357.209 74.5938 356.74 74.8984C356.271 75.1914 355.908 75.584 355.65 76.0762C355.404 76.5566 355.281 77.084 355.281 77.6582C355.281 78.2207 355.404 78.748 355.65 79.2402C355.908 79.7207 356.271 80.1133 356.74 80.418C357.209 80.7109 357.754 80.8574 358.375 80.8574C359.008 80.8574 359.553 80.7109 360.01 80.418C360.479 80.1133 360.836 79.7207 361.082 79.2402C361.34 78.748 361.469 78.2207 361.469 77.6582C361.469 77.084 361.34 76.5566 361.082 76.0762C360.836 75.584 360.479 75.1914 360.01 74.8984C359.553 74.5938 359.008 74.4414 358.375 74.4414ZM372.051 73.2109V74.3359C372.332 74.0195 372.689 73.7266 373.123 73.457C373.568 73.1758 374.09 73.0352 374.688 73.0352C375.32 73.0352 375.912 73.1875 376.463 73.4922C377.014 73.7852 377.436 74.2305 377.729 74.8281C378.139 74.3359 378.584 73.9141 379.064 73.5625C379.545 73.2109 380.107 73.0352 380.752 73.0352C381.35 73.0352 381.906 73.1699 382.422 73.4395C382.949 73.6973 383.371 74.0957 383.688 74.6348C384.016 75.1621 384.18 75.8301 384.18 76.6387V82H382.738L382.721 76.7793C382.721 76.0176 382.521 75.4375 382.123 75.0391C381.736 74.6406 381.197 74.4414 380.506 74.4414C380.002 74.4414 379.562 74.5996 379.188 74.916C378.812 75.2324 378.455 75.6016 378.115 76.0234V82H376.674L376.656 76.7793C376.656 76.0176 376.457 75.4375 376.059 75.0391C375.672 74.6406 375.133 74.4414 374.441 74.4414C373.961 74.4414 373.521 74.582 373.123 74.8633C372.736 75.1445 372.379 75.4844 372.051 75.8828V82H370.609V73.2109H372.051ZM387.396 73.2109L390.473 79.6797L393.461 73.2109H395.184L388.715 86.2188H387.045L389.559 81.4727L385.674 73.2109H387.396ZM404.834 73.0352C405.35 73.0352 405.83 73.1113 406.275 73.2637C406.721 73.4043 407.043 73.5508 407.242 73.7031V75.25C406.996 75.0625 406.662 74.8809 406.24 74.7051C405.818 74.5293 405.385 74.4414 404.939 74.4414C404.389 74.4414 403.973 74.5703 403.691 74.8281C403.422 75.0859 403.287 75.3555 403.287 75.6367C403.287 75.8594 403.363 76.0879 403.516 76.3223C403.68 76.5449 403.961 76.7266 404.359 76.8672L405.836 77.3945C406.41 77.5938 406.838 77.8809 407.119 78.2559C407.4 78.6309 407.541 79.0703 407.541 79.5742C407.541 80.0664 407.4 80.5176 407.119 80.9277C406.85 81.3379 406.469 81.666 405.977 81.9121C405.496 82.1465 404.939 82.2637 404.307 82.2637C403.967 82.2637 403.609 82.2168 403.234 82.123C402.871 82.041 402.543 81.9414 402.25 81.8242C401.957 81.6953 401.74 81.584 401.6 81.4902V79.9434C401.764 80.0605 401.992 80.1953 402.285 80.3477C402.59 80.4883 402.912 80.6113 403.252 80.7168C403.592 80.8105 403.908 80.8574 404.201 80.8574C404.752 80.8574 405.186 80.7344 405.502 80.4883C405.83 80.2422 405.994 79.9375 405.994 79.5742C405.994 79.293 405.883 79.0703 405.66 78.9062C405.449 78.7422 405.139 78.584 404.729 78.4316L403.428 77.957C402.748 77.6992 402.297 77.377 402.074 76.9902C401.852 76.5918 401.74 76.1406 401.74 75.6367C401.74 74.8867 402.021 74.2656 402.584 73.7734C403.146 73.2812 403.896 73.0352 404.834 73.0352ZM413.711 73.0352C414.355 73.0352 414.912 73.1406 415.381 73.3516C415.85 73.5508 416.172 73.7324 416.348 73.8965V75.3555C416.02 75.1094 415.645 74.8984 415.223 74.7227C414.801 74.5352 414.297 74.4414 413.711 74.4414C413.09 74.4414 412.545 74.5938 412.076 74.8984C411.607 75.1914 411.244 75.584 410.986 76.0762C410.74 76.5566 410.617 77.084 410.617 77.6582C410.617 78.2207 410.74 78.748 410.986 79.2402C411.244 79.7207 411.607 80.1133 412.076 80.418C412.545 80.7109 413.09 80.8574 413.711 80.8574C414.297 80.8574 414.801 80.7695 415.223 80.5938C415.645 80.4062 416.02 80.1895 416.348 79.9434V81.4023C416.172 81.5781 415.85 81.7656 415.381 81.9648C414.912 82.1641 414.355 82.2637 413.711 82.2637C412.82 82.2637 412.029 82.0527 411.338 81.6309C410.646 81.209 410.102 80.6523 409.703 79.9609C409.316 79.2578 409.123 78.4902 409.123 77.6582C409.123 76.8262 409.316 76.0586 409.703 75.3555C410.102 74.6523 410.646 74.0898 411.338 73.668C412.029 73.2461 412.82 73.0352 413.711 73.0352ZM423.027 73.0352C423.625 73.0352 424.17 73.1699 424.662 73.4395C425.154 73.6973 425.547 74.0957 425.84 74.6348C426.133 75.1621 426.279 75.8301 426.279 76.6387V82H424.838L424.82 76.7793C424.82 76.0176 424.65 75.4375 424.311 75.0391C423.982 74.6406 423.473 74.4414 422.781 74.4414C422.312 74.4414 421.844 74.6172 421.375 74.9688C420.918 75.3086 420.514 75.707 420.162 76.1641V82H418.721V69.3438H420.162V74.5996C420.35 74.3652 420.59 74.1309 420.883 73.8965C421.176 73.6504 421.504 73.4453 421.867 73.2812C422.242 73.1172 422.629 73.0352 423.027 73.0352ZM432.625 73.0352C433.527 73.0352 434.277 73.2227 434.875 73.5977C435.473 73.9727 435.918 74.4824 436.211 75.127C436.516 75.7715 436.668 76.498 436.668 77.3066V78.168H429.918C429.988 78.6602 430.158 79.1113 430.428 79.5215C430.697 79.9316 431.049 80.2598 431.482 80.5059C431.916 80.7402 432.414 80.8574 432.977 80.8574C433.609 80.8574 434.201 80.6992 434.752 80.3828C435.303 80.0547 435.766 79.6973 436.141 79.3105L436.123 80.875C435.959 81.0742 435.713 81.2852 435.385 81.5078C435.068 81.7188 434.699 81.8945 434.277 82.0352C433.867 82.1875 433.434 82.2637 432.977 82.2637C432.086 82.2637 431.295 82.0527 430.604 81.6309C429.912 81.209 429.367 80.6523 428.969 79.9609C428.582 79.2578 428.389 78.4902 428.389 77.6582C428.389 76.8262 428.57 76.0586 428.934 75.3555C429.297 74.6523 429.795 74.0898 430.428 73.668C431.072 73.2461 431.805 73.0352 432.625 73.0352ZM432.625 74.4414C431.898 74.4414 431.301 74.6875 430.832 75.1797C430.363 75.6602 430.07 76.2461 429.953 76.9375H435.244C435.186 76.3633 435.021 75.8945 434.752 75.5312C434.494 75.168 434.178 74.8984 433.803 74.7227C433.428 74.5352 433.035 74.4414 432.625 74.4414ZM446.986 69.3438V82H445.545V80.5059C445.24 80.9746 444.824 81.3848 444.297 81.7363C443.781 82.0879 443.189 82.2637 442.521 82.2637C441.771 82.2637 441.086 82.0762 440.465 81.7012C439.844 81.3145 439.346 80.7812 438.971 80.1016C438.607 79.4219 438.426 78.6367 438.426 77.7461C438.426 76.7734 438.607 75.9355 438.971 75.2324C439.346 74.5293 439.855 73.9902 440.5 73.6152C441.145 73.2285 441.865 73.0352 442.662 73.0352C443.166 73.0352 443.676 73.1582 444.191 73.4043C444.719 73.6387 445.17 73.9668 445.545 74.3887V69.3438H446.986ZM442.926 74.4766C442.293 74.4766 441.754 74.6348 441.309 74.9512C440.863 75.2559 440.518 75.6543 440.271 76.1465C440.037 76.6387 439.92 77.1719 439.92 77.7461C439.92 78.3086 440.037 78.8301 440.271 79.3105C440.506 79.7793 440.834 80.1543 441.256 80.4355C441.689 80.7168 442.188 80.8574 442.75 80.8574C443.289 80.8574 443.77 80.7168 444.191 80.4355C444.613 80.1543 444.947 79.7676 445.193 79.2754C445.439 78.7715 445.557 78.209 445.545 77.5879L445.527 75.9004C445.164 75.4434 444.771 75.0918 444.35 74.8457C443.939 74.5996 443.465 74.4766 442.926 74.4766ZM457.164 73.2109V78.4141C457.164 79.1875 457 79.8555 456.672 80.418C456.344 80.9805 455.898 81.4141 455.336 81.7188C454.773 82.0234 454.141 82.1758 453.438 82.1758C452.734 82.1758 452.102 82.0234 451.539 81.7188C450.977 81.4141 450.531 80.9805 450.203 80.418C449.875 79.8555 449.711 79.1875 449.711 78.4141V73.2109H451.205V78.4141C451.205 79.1758 451.428 79.7617 451.873 80.1719C452.33 80.5703 452.852 80.7695 453.438 80.7695C454.023 80.7695 454.539 80.5703 454.984 80.1719C455.441 79.7617 455.67 79.1758 455.67 78.4141V73.2109H457.164ZM461.33 69.3438V82H459.889V69.3438H461.33ZM467.939 73.0352C468.842 73.0352 469.592 73.2227 470.189 73.5977C470.787 73.9727 471.232 74.4824 471.525 75.127C471.83 75.7715 471.982 76.498 471.982 77.3066V78.168H465.232C465.303 78.6602 465.473 79.1113 465.742 79.5215C466.012 79.9316 466.363 80.2598 466.797 80.5059C467.23 80.7402 467.729 80.8574 468.291 80.8574C468.924 80.8574 469.516 80.6992 470.066 80.3828C470.617 80.0547 471.08 79.6973 471.455 79.3105L471.438 80.875C471.273 81.0742 471.027 81.2852 470.699 81.5078C470.383 81.7188 470.014 81.8945 469.592 82.0352C469.182 82.1875 468.748 82.2637 468.291 82.2637C467.4 82.2637 466.609 82.0527 465.918 81.6309C465.227 81.209 464.682 80.6523 464.283 79.9609C463.896 79.2578 463.703 78.4902 463.703 77.6582C463.703 76.8262 463.885 76.0586 464.248 75.3555C464.611 74.6523 465.109 74.0898 465.742 73.668C466.387 73.2461 467.119 73.0352 467.939 73.0352ZM467.939 74.4414C467.213 74.4414 466.615 74.6875 466.146 75.1797C465.678 75.6602 465.385 76.2461 465.268 76.9375H470.559C470.5 76.3633 470.336 75.8945 470.066 75.5312C469.809 75.168 469.492 74.8984 469.117 74.7227C468.742 74.5352 468.35 74.4414 467.939 74.4414ZM477.52 69.959C478.223 69.959 478.861 70.1055 479.436 70.3984C480.01 70.6914 480.461 71.0957 480.789 71.6113C481.129 72.127 481.299 72.7188 481.299 73.3867C481.299 73.8203 481.188 74.2129 480.965 74.5645C480.754 74.9043 480.484 75.2148 480.156 75.4961C479.84 75.7773 479.523 76.041 479.207 76.2871C478.891 76.5332 478.627 76.7793 478.416 77.0254C478.205 77.2715 478.105 77.5293 478.117 77.7988L478.135 78.168H476.43V77.4648C476.43 77.207 476.529 76.9609 476.729 76.7266C476.939 76.4805 477.197 76.2402 477.502 76.0059C477.807 75.7598 478.111 75.5137 478.416 75.2676C478.732 75.0098 478.99 74.7461 479.189 74.4766C479.4 74.207 479.506 73.9199 479.506 73.6152C479.506 73.041 479.318 72.5664 478.943 72.1914C478.58 71.8164 478.047 71.6289 477.344 71.6289C476.641 71.6289 476.055 71.7695 475.586 72.0508C475.129 72.3203 474.689 72.7246 474.268 73.2637V71.3477C474.584 70.9609 475.035 70.6328 475.621 70.3633C476.207 70.0938 476.84 69.959 477.52 69.959ZM477.361 79.8555C477.701 79.8555 477.988 79.9785 478.223 80.2246C478.469 80.459 478.592 80.7461 478.592 81.0859C478.592 81.4141 478.469 81.7012 478.223 81.9473C477.988 82.1934 477.701 82.3164 477.361 82.3164C477.021 82.3164 476.729 82.1934 476.482 81.9473C476.248 81.7012 476.131 81.4141 476.131 81.0859C476.131 80.7461 476.248 80.459 476.482 80.2246C476.729 79.9785 477.021 79.8555 477.361 79.8555Z" fill="#1F365D"/>
<path d="M799.668 74.6667V66.6667H802.335V74.6667H810.335V77.3334H802.335V85.3334H799.668V77.3334H791.668V74.6667H799.668Z" fill="#1F365D"/>
</g>
<defs>
<filter id="filter0_d_610_6815" x="0" y="0" width="884" height="160" filterUnits="userSpaceOnUse" color-interpolation-filters="sRGB">
<feFlood flood-opacity="0" result="BackgroundImageFix"/>
<feColorMatrix in="SourceAlpha" type="matrix" values="0 0 0 0 0 0 0 0 0 0 0 0 0 0 0 0 0 0 127 0" result="hardAlpha"/>
<feOffset dy="4"/>
<feGaussianBlur stdDeviation="17.5"/>
<feComposite in2="hardAlpha" operator="out"/>
<feColorMatrix type="matrix" values="0 0 0 0 0.920833 0 0 0 0 0.916997 0 0 0 0 0.916997 0 0 0 0.25 0"/>
<feBlend mode="normal" in2="BackgroundImageFix" result="effect1_dropShadow_610_6815"/>
<feBlend mode="normal" in="SourceGraphic" in2="effect1_dropShadow_610_6815" result="shape"/>
</filter>
</defs>
</svg>
