<svg width="884" height="160" viewBox="0 0 884 160" fill="none" xmlns="http://www.w3.org/2000/svg">
<g filter="url(#filter0_d_610_7056)">
<rect x="35" y="31" width="814" height="90" rx="4" fill="white"/>
<path d="M70.5156 70.2227V75.1797H77.2305V70.2227H78.8125V82H77.2305V76.6738H70.5156V82H68.9336V70.2227H70.5156ZM86.2129 73.0352C87.1035 73.0352 87.8945 73.2461 88.5859 73.668C89.2773 74.0898 89.8164 74.6523 90.2031 75.3555C90.6016 76.0586 90.8008 76.8262 90.8008 77.6582C90.8008 78.4902 90.6016 79.2578 90.2031 79.9609C89.8164 80.6523 89.2773 81.209 88.5859 81.6309C87.8945 82.0527 87.1035 82.2637 86.2129 82.2637C85.3223 82.2637 84.5312 82.0527 83.8398 81.6309C83.1484 81.209 82.6035 80.6523 82.2051 79.9609C81.8184 79.2578 81.625 78.4902 81.625 77.6582C81.625 76.8262 81.8184 76.0586 82.2051 75.3555C82.6035 74.6523 83.1484 74.0898 83.8398 73.668C84.5312 73.2461 85.3223 73.0352 86.2129 73.0352ZM86.2129 74.4414C85.5918 74.4414 85.0469 74.5938 84.5781 74.8984C84.1094 75.1914 83.7461 75.584 83.4883 76.0762C83.2422 76.5566 83.1191 77.084 83.1191 77.6582C83.1191 78.2207 83.2422 78.748 83.4883 79.2402C83.7461 79.7207 84.1094 80.1133 84.5781 80.418C85.0469 80.7109 85.5918 80.8574 86.2129 80.8574C86.8457 80.8574 87.3906 80.7109 87.8477 80.418C88.3164 80.1133 88.6738 79.7207 88.9199 79.2402C89.1777 78.748 89.3066 78.2207 89.3066 77.6582C89.3066 77.084 89.1777 76.5566 88.9199 76.0762C88.6738 75.584 88.3164 75.1914 87.8477 74.8984C87.3906 74.5938 86.8457 74.4414 86.2129 74.4414ZM104.705 73.2109L101.629 82H100.732L98.3242 75.7949L95.916 82H95.0195L91.9434 73.2109H93.666L95.6172 79.3809L97.9199 73.2109H98.7285L101.031 79.3809L102.982 73.2109H104.705ZM113.178 73.2109V74.3359C113.459 74.0195 113.816 73.7266 114.25 73.457C114.695 73.1758 115.217 73.0352 115.814 73.0352C116.447 73.0352 117.039 73.1875 117.59 73.4922C118.141 73.7852 118.562 74.2305 118.855 74.8281C119.266 74.3359 119.711 73.9141 120.191 73.5625C120.672 73.2109 121.234 73.0352 121.879 73.0352C122.477 73.0352 123.033 73.1699 123.549 73.4395C124.076 73.6973 124.498 74.0957 124.814 74.6348C125.143 75.1621 125.307 75.8301 125.307 76.6387V82H123.865L123.848 76.7793C123.848 76.0176 123.648 75.4375 123.25 75.0391C122.863 74.6406 122.324 74.4414 121.633 74.4414C121.129 74.4414 120.689 74.5996 120.314 74.916C119.939 75.2324 119.582 75.6016 119.242 76.0234V82H117.801L117.783 76.7793C117.783 76.0176 117.584 75.4375 117.186 75.0391C116.799 74.6406 116.26 74.4414 115.568 74.4414C115.088 74.4414 114.648 74.582 114.25 74.8633C113.863 75.1445 113.506 75.4844 113.178 75.8828V82H111.736V73.2109H113.178ZM135.221 73.2109V78.4141C135.221 79.1875 135.057 79.8555 134.729 80.418C134.4 80.9805 133.955 81.4141 133.393 81.7188C132.83 82.0234 132.197 82.1758 131.494 82.1758C130.791 82.1758 130.158 82.0234 129.596 81.7188C129.033 81.4141 128.588 80.9805 128.26 80.418C127.932 79.8555 127.768 79.1875 127.768 78.4141V73.2109H129.262V78.4141C129.262 79.1758 129.484 79.7617 129.93 80.1719C130.387 80.5703 130.908 80.7695 131.494 80.7695C132.08 80.7695 132.596 80.5703 133.041 80.1719C133.498 79.7617 133.727 79.1758 133.727 78.4141V73.2109H135.221ZM141.918 73.0352C142.562 73.0352 143.119 73.1406 143.588 73.3516C144.057 73.5508 144.379 73.7324 144.555 73.8965V75.3555C144.227 75.1094 143.852 74.8984 143.43 74.7227C143.008 74.5352 142.504 74.4414 141.918 74.4414C141.297 74.4414 140.752 74.5938 140.283 74.8984C139.814 75.1914 139.451 75.584 139.193 76.0762C138.947 76.5566 138.824 77.084 138.824 77.6582C138.824 78.2207 138.947 78.748 139.193 79.2402C139.451 79.7207 139.814 80.1133 140.283 80.418C140.752 80.7109 141.297 80.8574 141.918 80.8574C142.504 80.8574 143.008 80.7695 143.43 80.5938C143.852 80.4062 144.227 80.1895 144.555 79.9434V81.4023C144.379 81.5781 144.057 81.7656 143.588 81.9648C143.119 82.1641 142.562 82.2637 141.918 82.2637C141.027 82.2637 140.236 82.0527 139.545 81.6309C138.854 81.209 138.309 80.6523 137.91 79.9609C137.523 79.2578 137.33 78.4902 137.33 77.6582C137.33 76.8262 137.523 76.0586 137.91 75.3555C138.309 74.6523 138.854 74.0898 139.545 73.668C140.236 73.2461 141.027 73.0352 141.918 73.0352ZM151.234 73.0352C151.832 73.0352 152.377 73.1699 152.869 73.4395C153.361 73.6973 153.754 74.0957 154.047 74.6348C154.34 75.1621 154.486 75.8301 154.486 76.6387V82H153.045L153.027 76.7793C153.027 76.0176 152.857 75.4375 152.518 75.0391C152.189 74.6406 151.68 74.4414 150.988 74.4414C150.52 74.4414 150.051 74.6172 149.582 74.9688C149.125 75.3086 148.721 75.707 148.369 76.1641V82H146.928V69.3438H148.369V74.5996C148.557 74.3652 148.797 74.1309 149.09 73.8965C149.383 73.6504 149.711 73.4453 150.074 73.2812C150.449 73.1172 150.836 73.0352 151.234 73.0352ZM163.891 68.9922C164.23 68.9922 164.512 69.1152 164.734 69.3613C164.969 69.5957 165.086 69.8711 165.086 70.1875C165.086 70.4922 164.969 70.7676 164.734 71.0137C164.512 71.2598 164.23 71.3828 163.891 71.3828C163.551 71.3828 163.264 71.2598 163.029 71.0137C162.807 70.7676 162.695 70.4922 162.695 70.1875C162.695 69.8711 162.807 69.5957 163.029 69.3613C163.264 69.1152 163.551 68.9922 163.891 68.9922ZM164.787 73.2109V82H163.346V74.5645H161.957V73.2109H164.787ZM170.518 73.0352C171.033 73.0352 171.514 73.1113 171.959 73.2637C172.404 73.4043 172.727 73.5508 172.926 73.7031V75.25C172.68 75.0625 172.346 74.8809 171.924 74.7051C171.502 74.5293 171.068 74.4414 170.623 74.4414C170.072 74.4414 169.656 74.5703 169.375 74.8281C169.105 75.0859 168.971 75.3555 168.971 75.6367C168.971 75.8594 169.047 76.0879 169.199 76.3223C169.363 76.5449 169.645 76.7266 170.043 76.8672L171.52 77.3945C172.094 77.5938 172.521 77.8809 172.803 78.2559C173.084 78.6309 173.225 79.0703 173.225 79.5742C173.225 80.0664 173.084 80.5176 172.803 80.9277C172.533 81.3379 172.152 81.666 171.66 81.9121C171.18 82.1465 170.623 82.2637 169.99 82.2637C169.65 82.2637 169.293 82.2168 168.918 82.123C168.555 82.041 168.227 81.9414 167.934 81.8242C167.641 81.6953 167.424 81.584 167.283 81.4902V79.9434C167.447 80.0605 167.676 80.1953 167.969 80.3477C168.273 80.4883 168.596 80.6113 168.936 80.7168C169.275 80.8105 169.592 80.8574 169.885 80.8574C170.436 80.8574 170.869 80.7344 171.186 80.4883C171.514 80.2422 171.678 79.9375 171.678 79.5742C171.678 79.293 171.566 79.0703 171.344 78.9062C171.133 78.7422 170.822 78.584 170.412 78.4316L169.111 77.957C168.432 77.6992 167.98 77.377 167.758 76.9902C167.535 76.5918 167.424 76.1406 167.424 75.6367C167.424 74.8867 167.705 74.2656 168.268 73.7734C168.83 73.2812 169.58 73.0352 170.518 73.0352ZM183.121 70.6797V73.2109H185.688V74.5645H183.121V79.7148C183.121 80.0781 183.215 80.3652 183.402 80.5762C183.59 80.7871 183.877 80.8926 184.264 80.8926C184.615 80.8926 184.908 80.8516 185.143 80.7695C185.377 80.6758 185.582 80.5762 185.758 80.4707V81.6484C185.523 81.8359 185.271 81.9824 185.002 82.0879C184.744 82.2051 184.393 82.2637 183.947 82.2637C183.197 82.2637 182.629 82.041 182.242 81.5957C181.867 81.1387 181.68 80.5352 181.68 79.7852V74.5645H179.992V74.1426C180.566 73.8848 181.047 73.4629 181.434 72.877C181.82 72.2793 182.16 71.5469 182.453 70.6797H183.121ZM192.613 73.0352C193.211 73.0352 193.756 73.1699 194.248 73.4395C194.74 73.6973 195.133 74.0957 195.426 74.6348C195.719 75.1621 195.865 75.8301 195.865 76.6387V82H194.424L194.406 76.7793C194.406 76.0176 194.236 75.4375 193.896 75.0391C193.568 74.6406 193.059 74.4414 192.367 74.4414C191.898 74.4414 191.43 74.6172 190.961 74.9688C190.504 75.3086 190.1 75.707 189.748 76.1641V82H188.307V69.3438H189.748V74.5996C189.936 74.3652 190.176 74.1309 190.469 73.8965C190.762 73.6504 191.09 73.4453 191.453 73.2812C191.828 73.1172 192.215 73.0352 192.613 73.0352ZM202.211 73.0352C203.113 73.0352 203.863 73.2227 204.461 73.5977C205.059 73.9727 205.504 74.4824 205.797 75.127C206.102 75.7715 206.254 76.498 206.254 77.3066V78.168H199.504C199.574 78.6602 199.744 79.1113 200.014 79.5215C200.283 79.9316 200.635 80.2598 201.068 80.5059C201.502 80.7402 202 80.8574 202.562 80.8574C203.195 80.8574 203.787 80.6992 204.338 80.3828C204.889 80.0547 205.352 79.6973 205.727 79.3105L205.709 80.875C205.545 81.0742 205.299 81.2852 204.971 81.5078C204.654 81.7188 204.285 81.8945 203.863 82.0352C203.453 82.1875 203.02 82.2637 202.562 82.2637C201.672 82.2637 200.881 82.0527 200.189 81.6309C199.498 81.209 198.953 80.6523 198.555 79.9609C198.168 79.2578 197.975 78.4902 197.975 77.6582C197.975 76.8262 198.156 76.0586 198.52 75.3555C198.883 74.6523 199.381 74.0898 200.014 73.668C200.658 73.2461 201.391 73.0352 202.211 73.0352ZM202.211 74.4414C201.484 74.4414 200.887 74.6875 200.418 75.1797C199.949 75.6602 199.656 76.2461 199.539 76.9375H204.83C204.771 76.3633 204.607 75.8945 204.338 75.5312C204.08 75.168 203.764 74.8984 203.389 74.7227C203.014 74.5352 202.621 74.4414 202.211 74.4414ZM217.873 73.0352C218.518 73.0352 219.074 73.1406 219.543 73.3516C220.012 73.5508 220.334 73.7324 220.51 73.8965V75.3555C220.182 75.1094 219.807 74.8984 219.385 74.7227C218.963 74.5352 218.459 74.4414 217.873 74.4414C217.252 74.4414 216.707 74.5938 216.238 74.8984C215.77 75.1914 215.406 75.584 215.148 76.0762C214.902 76.5566 214.779 77.084 214.779 77.6582C214.779 78.2207 214.902 78.748 215.148 79.2402C215.406 79.7207 215.77 80.1133 216.238 80.418C216.707 80.7109 217.252 80.8574 217.873 80.8574C218.459 80.8574 218.963 80.7695 219.385 80.5938C219.807 80.4062 220.182 80.1895 220.51 79.9434V81.4023C220.334 81.5781 220.012 81.7656 219.543 81.9648C219.074 82.1641 218.518 82.2637 217.873 82.2637C216.982 82.2637 216.191 82.0527 215.5 81.6309C214.809 81.209 214.264 80.6523 213.865 79.9609C213.479 79.2578 213.285 78.4902 213.285 77.6582C213.285 76.8262 213.479 76.0586 213.865 75.3555C214.264 74.6523 214.809 74.0898 215.5 73.668C216.191 73.2461 216.982 73.0352 217.873 73.0352ZM227.189 73.0352C227.787 73.0352 228.332 73.1699 228.824 73.4395C229.316 73.6973 229.709 74.0957 230.002 74.6348C230.295 75.1621 230.441 75.8301 230.441 76.6387V82H229L228.982 76.7793C228.982 76.0176 228.812 75.4375 228.473 75.0391C228.145 74.6406 227.635 74.4414 226.943 74.4414C226.475 74.4414 226.006 74.6172 225.537 74.9688C225.08 75.3086 224.676 75.707 224.324 76.1641V82H222.883V69.3438H224.324V74.5996C224.512 74.3652 224.752 74.1309 225.045 73.8965C225.338 73.6504 225.666 73.4453 226.029 73.2812C226.404 73.1172 226.791 73.0352 227.189 73.0352ZM236.787 73.0352C237.291 73.0352 237.801 73.1582 238.316 73.4043C238.844 73.6387 239.295 73.9668 239.67 74.3887V73.2109H241.111V82H239.67V80.5059C239.365 80.9746 238.949 81.3848 238.422 81.7363C237.906 82.0879 237.314 82.2637 236.646 82.2637C235.896 82.2637 235.211 82.0762 234.59 81.7012C233.969 81.3145 233.471 80.7812 233.096 80.1016C232.732 79.4219 232.551 78.6367 232.551 77.7461C232.551 76.7734 232.732 75.9355 233.096 75.2324C233.471 74.5293 233.98 73.9902 234.625 73.6152C235.27 73.2285 235.99 73.0352 236.787 73.0352ZM237.051 74.4414C236.418 74.4414 235.879 74.5996 235.434 74.916C234.988 75.2324 234.643 75.6426 234.396 76.1465C234.162 76.6387 234.045 77.1719 234.045 77.7461C234.045 78.3086 234.162 78.8301 234.396 79.3105C234.631 79.7793 234.959 80.1543 235.381 80.4355C235.814 80.7168 236.312 80.8574 236.875 80.8574C237.414 80.8574 237.895 80.7168 238.316 80.4355C238.738 80.1543 239.072 79.7676 239.318 79.2754C239.564 78.7715 239.682 78.209 239.67 77.5879L239.652 75.9004C239.289 75.4434 238.896 75.0859 238.475 74.8281C238.064 74.5703 237.59 74.4414 237.051 74.4414ZM245.541 73.2109V74.9688C245.881 74.3828 246.291 73.9141 246.771 73.5625C247.252 73.2109 247.744 73.0352 248.248 73.0352C248.588 73.0352 248.893 73.0938 249.162 73.2109V74.8809C248.787 74.6582 248.412 74.5469 248.037 74.5469C247.439 74.5469 246.953 74.7578 246.578 75.1797C246.215 75.6016 245.869 76.1055 245.541 76.6914V82H244.1V73.2109H245.541ZM254.629 73.0352C255.133 73.0352 255.643 73.1582 256.158 73.4043C256.686 73.6387 257.137 73.9668 257.512 74.3887V73.2109H258.953V81.8242C258.953 82.8672 258.742 83.7344 258.32 84.4258C257.898 85.1172 257.336 85.6328 256.633 85.9727C255.93 86.3125 255.162 86.4824 254.33 86.4824C253.791 86.4824 253.328 86.418 252.941 86.2891C252.566 86.1719 252.244 86.0195 251.975 85.832C251.705 85.6562 251.459 85.4863 251.236 85.3223V83.7754C251.412 83.9043 251.641 84.0684 251.922 84.2676C252.215 84.4785 252.561 84.666 252.959 84.8301C253.369 84.9941 253.826 85.0762 254.33 85.0762C254.904 85.0762 255.432 84.9707 255.912 84.7598C256.393 84.5488 256.779 84.2383 257.072 83.8281C257.365 83.418 257.512 82.9258 257.512 82.3516V80.5059C257.207 80.9746 256.791 81.3848 256.264 81.7363C255.748 82.0879 255.156 82.2637 254.488 82.2637C253.738 82.2637 253.053 82.0762 252.432 81.7012C251.811 81.3145 251.312 80.7812 250.938 80.1016C250.574 79.4219 250.393 78.6367 250.393 77.7461C250.393 76.7734 250.574 75.9355 250.938 75.2324C251.312 74.5293 251.822 73.9902 252.467 73.6152C253.111 73.2285 253.832 73.0352 254.629 73.0352ZM254.893 74.459C254.26 74.459 253.721 74.6172 253.275 74.9336C252.83 75.2383 252.484 75.6426 252.238 76.1465C252.004 76.6387 251.887 77.1719 251.887 77.7461C251.887 78.3086 252.004 78.8242 252.238 79.293C252.473 79.7617 252.801 80.1367 253.223 80.418C253.656 80.6992 254.154 80.8398 254.717 80.8398C255.256 80.8398 255.736 80.6992 256.158 80.418C256.58 80.1367 256.914 79.75 257.16 79.2578C257.406 78.7656 257.523 78.209 257.512 77.5879L257.494 75.9004C257.131 75.4434 256.738 75.0918 256.316 74.8457C255.906 74.5879 255.432 74.459 254.893 74.459ZM265.562 73.0352C266.465 73.0352 267.215 73.2227 267.812 73.5977C268.41 73.9727 268.855 74.4824 269.148 75.127C269.453 75.7715 269.605 76.498 269.605 77.3066V78.168H262.855C262.926 78.6602 263.096 79.1113 263.365 79.5215C263.635 79.9316 263.986 80.2598 264.42 80.5059C264.854 80.7402 265.352 80.8574 265.914 80.8574C266.547 80.8574 267.139 80.6992 267.689 80.3828C268.24 80.0547 268.703 79.6973 269.078 79.3105L269.061 80.875C268.896 81.0742 268.65 81.2852 268.322 81.5078C268.006 81.7188 267.637 81.8945 267.215 82.0352C266.805 82.1875 266.371 82.2637 265.914 82.2637C265.023 82.2637 264.232 82.0527 263.541 81.6309C262.85 81.209 262.305 80.6523 261.906 79.9609C261.52 79.2578 261.326 78.4902 261.326 77.6582C261.326 76.8262 261.508 76.0586 261.871 75.3555C262.234 74.6523 262.732 74.0898 263.365 73.668C264.01 73.2461 264.742 73.0352 265.562 73.0352ZM265.562 74.4414C264.836 74.4414 264.238 74.6875 263.77 75.1797C263.301 75.6602 263.008 76.2461 262.891 76.9375H268.182C268.123 76.3633 267.959 75.8945 267.689 75.5312C267.432 75.168 267.115 74.8984 266.74 74.7227C266.365 74.5352 265.973 74.4414 265.562 74.4414ZM281.805 73.2109V74.5645H279.238V82H277.797V74.5645H276.408V73.2109H277.797V72.0859C277.797 71.3945 277.932 70.832 278.201 70.3984C278.471 69.9531 278.816 69.625 279.238 69.4141C279.66 69.1914 280.088 69.0801 280.521 69.0801C281.119 69.0801 281.605 69.2383 281.98 69.5547V70.8203C281.805 70.7031 281.594 70.6094 281.348 70.5391C281.102 70.4688 280.855 70.4395 280.609 70.4512C280.176 70.4629 279.836 70.6035 279.59 70.873C279.355 71.1309 279.238 71.5879 279.238 72.2441V73.2109H281.805ZM287.693 73.0352C288.584 73.0352 289.375 73.2461 290.066 73.668C290.758 74.0898 291.297 74.6523 291.684 75.3555C292.082 76.0586 292.281 76.8262 292.281 77.6582C292.281 78.4902 292.082 79.2578 291.684 79.9609C291.297 80.6523 290.758 81.209 290.066 81.6309C289.375 82.0527 288.584 82.2637 287.693 82.2637C286.803 82.2637 286.012 82.0527 285.32 81.6309C284.629 81.209 284.084 80.6523 283.686 79.9609C283.299 79.2578 283.105 78.4902 283.105 77.6582C283.105 76.8262 283.299 76.0586 283.686 75.3555C284.084 74.6523 284.629 74.0898 285.32 73.668C286.012 73.2461 286.803 73.0352 287.693 73.0352ZM287.693 74.4414C287.072 74.4414 286.527 74.5938 286.059 74.8984C285.59 75.1914 285.227 75.584 284.969 76.0762C284.723 76.5566 284.6 77.084 284.6 77.6582C284.6 78.2207 284.723 78.748 284.969 79.2402C285.227 79.7207 285.59 80.1133 286.059 80.418C286.527 80.7109 287.072 80.8574 287.693 80.8574C288.326 80.8574 288.871 80.7109 289.328 80.418C289.797 80.1133 290.154 79.7207 290.4 79.2402C290.658 78.748 290.787 78.2207 290.787 77.6582C290.787 77.084 290.658 76.5566 290.4 76.0762C290.154 75.584 289.797 75.1914 289.328 74.8984C288.871 74.5938 288.326 74.4414 287.693 74.4414ZM296.096 73.2109V74.9688C296.436 74.3828 296.846 73.9141 297.326 73.5625C297.807 73.2109 298.299 73.0352 298.803 73.0352C299.143 73.0352 299.447 73.0938 299.717 73.2109V74.8809C299.342 74.6582 298.967 74.5469 298.592 74.5469C297.994 74.5469 297.508 74.7578 297.133 75.1797C296.77 75.6016 296.424 76.1055 296.096 76.6914V82H294.654V73.2109H296.096ZM308.277 73.2109V74.9688C308.617 74.3828 309.027 73.9141 309.508 73.5625C309.988 73.2109 310.48 73.0352 310.984 73.0352C311.324 73.0352 311.629 73.0938 311.898 73.2109V74.8809C311.523 74.6582 311.148 74.5469 310.773 74.5469C310.176 74.5469 309.689 74.7578 309.314 75.1797C308.951 75.6016 308.605 76.1055 308.277 76.6914V82H306.836V73.2109H308.277ZM317.365 73.0352C318.268 73.0352 319.018 73.2227 319.615 73.5977C320.213 73.9727 320.658 74.4824 320.951 75.127C321.256 75.7715 321.408 76.498 321.408 77.3066V78.168H314.658C314.729 78.6602 314.898 79.1113 315.168 79.5215C315.438 79.9316 315.789 80.2598 316.223 80.5059C316.656 80.7402 317.154 80.8574 317.717 80.8574C318.35 80.8574 318.941 80.6992 319.492 80.3828C320.043 80.0547 320.506 79.6973 320.881 79.3105L320.863 80.875C320.699 81.0742 320.453 81.2852 320.125 81.5078C319.809 81.7188 319.439 81.8945 319.018 82.0352C318.607 82.1875 318.174 82.2637 317.717 82.2637C316.826 82.2637 316.035 82.0527 315.344 81.6309C314.652 81.209 314.107 80.6523 313.709 79.9609C313.322 79.2578 313.129 78.4902 313.129 77.6582C313.129 76.8262 313.311 76.0586 313.674 75.3555C314.037 74.6523 314.535 74.0898 315.168 73.668C315.812 73.2461 316.545 73.0352 317.365 73.0352ZM317.365 74.4414C316.639 74.4414 316.041 74.6875 315.572 75.1797C315.104 75.6602 314.811 76.2461 314.693 76.9375H319.984C319.926 76.3633 319.762 75.8945 319.492 75.5312C319.234 75.168 318.918 74.8984 318.543 74.7227C318.168 74.5352 317.775 74.4414 317.365 74.4414ZM325.188 68.9922C325.527 68.9922 325.809 69.1152 326.031 69.3613C326.266 69.5957 326.383 69.8711 326.383 70.1875C326.383 70.4922 326.266 70.7676 326.031 71.0137C325.809 71.2598 325.527 71.3828 325.188 71.3828C324.848 71.3828 324.561 71.2598 324.326 71.0137C324.104 70.7676 323.992 70.4922 323.992 70.1875C323.992 69.8711 324.104 69.5957 324.326 69.3613C324.561 69.1152 324.848 68.9922 325.188 68.9922ZM326.084 73.2109V82H324.643V74.5645H323.254V73.2109H326.084ZM331.814 73.0352C332.33 73.0352 332.811 73.1113 333.256 73.2637C333.701 73.4043 334.023 73.5508 334.223 73.7031V75.25C333.977 75.0625 333.643 74.8809 333.221 74.7051C332.799 74.5293 332.365 74.4414 331.92 74.4414C331.369 74.4414 330.953 74.5703 330.672 74.8281C330.402 75.0859 330.268 75.3555 330.268 75.6367C330.268 75.8594 330.344 76.0879 330.496 76.3223C330.66 76.5449 330.941 76.7266 331.34 76.8672L332.816 77.3945C333.391 77.5938 333.818 77.8809 334.1 78.2559C334.381 78.6309 334.521 79.0703 334.521 79.5742C334.521 80.0664 334.381 80.5176 334.1 80.9277C333.83 81.3379 333.449 81.666 332.957 81.9121C332.477 82.1465 331.92 82.2637 331.287 82.2637C330.947 82.2637 330.59 82.2168 330.215 82.123C329.852 82.041 329.523 81.9414 329.23 81.8242C328.938 81.6953 328.721 81.584 328.58 81.4902V79.9434C328.744 80.0605 328.973 80.1953 329.266 80.3477C329.57 80.4883 329.893 80.6113 330.232 80.7168C330.572 80.8105 330.889 80.8574 331.182 80.8574C331.732 80.8574 332.166 80.7344 332.482 80.4883C332.811 80.2422 332.975 79.9375 332.975 79.5742C332.975 79.293 332.863 79.0703 332.641 78.9062C332.43 78.7422 332.119 78.584 331.709 78.4316L330.408 77.957C329.729 77.6992 329.277 77.377 329.055 76.9902C328.832 76.5918 328.721 76.1406 328.721 75.6367C328.721 74.8867 329.002 74.2656 329.564 73.7734C330.127 73.2812 330.877 73.0352 331.814 73.0352ZM339.338 73.0352C339.854 73.0352 340.334 73.1113 340.779 73.2637C341.225 73.4043 341.547 73.5508 341.746 73.7031V75.25C341.5 75.0625 341.166 74.8809 340.744 74.7051C340.322 74.5293 339.889 74.4414 339.443 74.4414C338.893 74.4414 338.477 74.5703 338.195 74.8281C337.926 75.0859 337.791 75.3555 337.791 75.6367C337.791 75.8594 337.867 76.0879 338.02 76.3223C338.184 76.5449 338.465 76.7266 338.863 76.8672L340.34 77.3945C340.914 77.5938 341.342 77.8809 341.623 78.2559C341.904 78.6309 342.045 79.0703 342.045 79.5742C342.045 80.0664 341.904 80.5176 341.623 80.9277C341.354 81.3379 340.973 81.666 340.48 81.9121C340 82.1465 339.443 82.2637 338.811 82.2637C338.471 82.2637 338.113 82.2168 337.738 82.123C337.375 82.041 337.047 81.9414 336.754 81.8242C336.461 81.6953 336.244 81.584 336.104 81.4902V79.9434C336.268 80.0605 336.496 80.1953 336.789 80.3477C337.094 80.4883 337.416 80.6113 337.756 80.7168C338.096 80.8105 338.412 80.8574 338.705 80.8574C339.256 80.8574 339.689 80.7344 340.006 80.4883C340.334 80.2422 340.498 79.9375 340.498 79.5742C340.498 79.293 340.387 79.0703 340.164 78.9062C339.953 78.7422 339.643 78.584 339.232 78.4316L337.932 77.957C337.252 77.6992 336.801 77.377 336.578 76.9902C336.355 76.5918 336.244 76.1406 336.244 75.6367C336.244 74.8867 336.525 74.2656 337.088 73.7734C337.65 73.2812 338.4 73.0352 339.338 73.0352ZM351.432 73.2109V78.4141C351.432 79.1875 351.268 79.8555 350.939 80.418C350.611 80.9805 350.166 81.4141 349.604 81.7188C349.041 82.0234 348.408 82.1758 347.705 82.1758C347.002 82.1758 346.369 82.0234 345.807 81.7188C345.244 81.4141 344.799 80.9805 344.471 80.418C344.143 79.8555 343.979 79.1875 343.979 78.4141V73.2109H345.473V78.4141C345.473 79.1758 345.695 79.7617 346.141 80.1719C346.598 80.5703 347.119 80.7695 347.705 80.7695C348.291 80.7695 348.807 80.5703 349.252 80.1719C349.709 79.7617 349.938 79.1758 349.938 78.4141V73.2109H351.432ZM355.562 68.9922C355.902 68.9922 356.184 69.1152 356.406 69.3613C356.641 69.5957 356.758 69.8711 356.758 70.1875C356.758 70.4922 356.641 70.7676 356.406 71.0137C356.184 71.2598 355.902 71.3828 355.562 71.3828C355.223 71.3828 354.936 71.2598 354.701 71.0137C354.479 70.7676 354.367 70.4922 354.367 70.1875C354.367 69.8711 354.479 69.5957 354.701 69.3613C354.936 69.1152 355.223 68.9922 355.562 68.9922ZM356.459 73.2109V82H355.018V74.5645H353.629V73.2109H356.459ZM361.012 73.2109V74.5996C361.199 74.3652 361.439 74.1309 361.732 73.8965C362.025 73.6504 362.354 73.4453 362.717 73.2812C363.092 73.1172 363.479 73.0352 363.877 73.0352C364.475 73.0352 365.02 73.1699 365.512 73.4395C366.004 73.6973 366.396 74.0957 366.689 74.6348C366.982 75.1621 367.129 75.8301 367.129 76.6387V82H365.688L365.67 76.7793C365.67 76.0176 365.5 75.4375 365.16 75.0391C364.832 74.6406 364.322 74.4414 363.631 74.4414C363.162 74.4414 362.693 74.6172 362.225 74.9688C361.768 75.3086 361.363 75.707 361.012 76.1641V82H359.57V73.2109H361.012ZM373.475 73.0352C373.979 73.0352 374.488 73.1582 375.004 73.4043C375.531 73.6387 375.982 73.9668 376.357 74.3887V73.2109H377.799V81.8242C377.799 82.8672 377.588 83.7344 377.166 84.4258C376.744 85.1172 376.182 85.6328 375.479 85.9727C374.775 86.3125 374.008 86.4824 373.176 86.4824C372.637 86.4824 372.174 86.418 371.787 86.2891C371.412 86.1719 371.09 86.0195 370.82 85.832C370.551 85.6562 370.305 85.4863 370.082 85.3223V83.7754C370.258 83.9043 370.486 84.0684 370.768 84.2676C371.061 84.4785 371.406 84.666 371.805 84.8301C372.215 84.9941 372.672 85.0762 373.176 85.0762C373.75 85.0762 374.277 84.9707 374.758 84.7598C375.238 84.5488 375.625 84.2383 375.918 83.8281C376.211 83.418 376.357 82.9258 376.357 82.3516V80.5059C376.053 80.9746 375.637 81.3848 375.109 81.7363C374.594 82.0879 374.002 82.2637 373.334 82.2637C372.584 82.2637 371.898 82.0762 371.277 81.7012C370.656 81.3145 370.158 80.7812 369.783 80.1016C369.42 79.4219 369.238 78.6367 369.238 77.7461C369.238 76.7734 369.42 75.9355 369.783 75.2324C370.158 74.5293 370.668 73.9902 371.312 73.6152C371.957 73.2285 372.678 73.0352 373.475 73.0352ZM373.738 74.459C373.105 74.459 372.566 74.6172 372.121 74.9336C371.676 75.2383 371.33 75.6426 371.084 76.1465C370.85 76.6387 370.732 77.1719 370.732 77.7461C370.732 78.3086 370.85 78.8242 371.084 79.293C371.318 79.7617 371.646 80.1367 372.068 80.418C372.502 80.6992 373 80.8398 373.562 80.8398C374.102 80.8398 374.582 80.6992 375.004 80.418C375.426 80.1367 375.76 79.75 376.006 79.2578C376.252 78.7656 376.369 78.209 376.357 77.5879L376.34 75.9004C375.977 75.4434 375.584 75.0918 375.162 74.8457C374.752 74.5879 374.277 74.459 373.738 74.459ZM389.682 73.0352C390.186 73.0352 390.695 73.1582 391.211 73.4043C391.738 73.6387 392.189 73.9668 392.564 74.3887V73.2109H394.006V82H392.564V80.5059C392.26 80.9746 391.844 81.3848 391.316 81.7363C390.801 82.0879 390.209 82.2637 389.541 82.2637C388.791 82.2637 388.105 82.0762 387.484 81.7012C386.863 81.3145 386.365 80.7812 385.99 80.1016C385.627 79.4219 385.445 78.6367 385.445 77.7461C385.445 76.7734 385.627 75.9355 385.99 75.2324C386.365 74.5293 386.875 73.9902 387.52 73.6152C388.164 73.2285 388.885 73.0352 389.682 73.0352ZM389.945 74.4414C389.312 74.4414 388.773 74.5996 388.328 74.916C387.883 75.2324 387.537 75.6426 387.291 76.1465C387.057 76.6387 386.939 77.1719 386.939 77.7461C386.939 78.3086 387.057 78.8301 387.291 79.3105C387.525 79.7793 387.854 80.1543 388.275 80.4355C388.709 80.7168 389.207 80.8574 389.77 80.8574C390.309 80.8574 390.789 80.7168 391.211 80.4355C391.633 80.1543 391.967 79.7676 392.213 79.2754C392.459 78.7715 392.576 78.209 392.564 77.5879L392.547 75.9004C392.184 75.4434 391.791 75.0859 391.369 74.8281C390.959 74.5703 390.484 74.4414 389.945 74.4414ZM403.709 69.3438V82H402.268V69.3438H403.709ZM410.67 73.0352C411.561 73.0352 412.352 73.2461 413.043 73.668C413.734 74.0898 414.273 74.6523 414.66 75.3555C415.059 76.0586 415.258 76.8262 415.258 77.6582C415.258 78.4902 415.059 79.2578 414.66 79.9609C414.273 80.6523 413.734 81.209 413.043 81.6309C412.352 82.0527 411.561 82.2637 410.67 82.2637C409.779 82.2637 408.988 82.0527 408.297 81.6309C407.605 81.209 407.061 80.6523 406.662 79.9609C406.275 79.2578 406.082 78.4902 406.082 77.6582C406.082 76.8262 406.275 76.0586 406.662 75.3555C407.061 74.6523 407.605 74.0898 408.297 73.668C408.988 73.2461 409.779 73.0352 410.67 73.0352ZM410.67 74.4414C410.049 74.4414 409.504 74.5938 409.035 74.8984C408.566 75.1914 408.203 75.584 407.945 76.0762C407.699 76.5566 407.576 77.084 407.576 77.6582C407.576 78.2207 407.699 78.748 407.945 79.2402C408.203 79.7207 408.566 80.1133 409.035 80.418C409.504 80.7109 410.049 80.8574 410.67 80.8574C411.303 80.8574 411.848 80.7109 412.305 80.418C412.773 80.1133 413.131 79.7207 413.377 79.2402C413.635 78.748 413.764 78.2207 413.764 77.6582C413.764 77.084 413.635 76.5566 413.377 76.0762C413.131 75.584 412.773 75.1914 412.305 74.8984C411.848 74.5938 411.303 74.4414 410.67 74.4414ZM420.25 73.0352C420.766 73.0352 421.246 73.1113 421.691 73.2637C422.137 73.4043 422.459 73.5508 422.658 73.7031V75.25C422.412 75.0625 422.078 74.8809 421.656 74.7051C421.234 74.5293 420.801 74.4414 420.355 74.4414C419.805 74.4414 419.389 74.5703 419.107 74.8281C418.838 75.0859 418.703 75.3555 418.703 75.6367C418.703 75.8594 418.779 76.0879 418.932 76.3223C419.096 76.5449 419.377 76.7266 419.775 76.8672L421.252 77.3945C421.826 77.5938 422.254 77.8809 422.535 78.2559C422.816 78.6309 422.957 79.0703 422.957 79.5742C422.957 80.0664 422.816 80.5176 422.535 80.9277C422.266 81.3379 421.885 81.666 421.393 81.9121C420.912 82.1465 420.355 82.2637 419.723 82.2637C419.383 82.2637 419.025 82.2168 418.65 82.123C418.287 82.041 417.959 81.9414 417.666 81.8242C417.373 81.6953 417.156 81.584 417.016 81.4902V79.9434C417.18 80.0605 417.408 80.1953 417.701 80.3477C418.006 80.4883 418.328 80.6113 418.668 80.7168C419.008 80.8105 419.324 80.8574 419.617 80.8574C420.168 80.8574 420.602 80.7344 420.918 80.4883C421.246 80.2422 421.41 79.9375 421.41 79.5742C421.41 79.293 421.299 79.0703 421.076 78.9062C420.865 78.7422 420.555 78.584 420.145 78.4316L418.844 77.957C418.164 77.6992 417.713 77.377 417.49 76.9902C417.268 76.5918 417.156 76.1406 417.156 75.6367C417.156 74.8867 417.438 74.2656 418 73.7734C418.562 73.2812 419.312 73.0352 420.25 73.0352ZM427.58 70.6797V73.2109H430.146V74.5645H427.58V79.7148C427.58 80.0781 427.674 80.3652 427.861 80.5762C428.049 80.7871 428.336 80.8926 428.723 80.8926C429.074 80.8926 429.367 80.8516 429.602 80.7695C429.836 80.6758 430.041 80.5762 430.217 80.4707V81.6484C429.982 81.8359 429.73 81.9824 429.461 82.0879C429.203 82.2051 428.852 82.2637 428.406 82.2637C427.656 82.2637 427.088 82.041 426.701 81.5957C426.326 81.1387 426.139 80.5352 426.139 79.7852V74.5645H424.451V74.1426C425.025 73.8848 425.506 73.4629 425.893 72.877C426.279 72.2793 426.619 71.5469 426.912 70.6797H427.58ZM442.012 73.0352C442.902 73.0352 443.693 73.2461 444.385 73.668C445.076 74.0898 445.615 74.6523 446.002 75.3555C446.4 76.0586 446.6 76.8262 446.6 77.6582C446.6 78.4902 446.4 79.2578 446.002 79.9609C445.615 80.6523 445.076 81.209 444.385 81.6309C443.693 82.0527 442.902 82.2637 442.012 82.2637C441.121 82.2637 440.33 82.0527 439.639 81.6309C438.947 81.209 438.402 80.6523 438.004 79.9609C437.617 79.2578 437.424 78.4902 437.424 77.6582C437.424 76.8262 437.617 76.0586 438.004 75.3555C438.402 74.6523 438.947 74.0898 439.639 73.668C440.33 73.2461 441.121 73.0352 442.012 73.0352ZM442.012 74.4414C441.391 74.4414 440.846 74.5938 440.377 74.8984C439.908 75.1914 439.545 75.584 439.287 76.0762C439.041 76.5566 438.918 77.084 438.918 77.6582C438.918 78.2207 439.041 78.748 439.287 79.2402C439.545 79.7207 439.908 80.1133 440.377 80.418C440.846 80.7109 441.391 80.8574 442.012 80.8574C442.645 80.8574 443.189 80.7109 443.646 80.418C444.115 80.1133 444.473 79.7207 444.719 79.2402C444.977 78.748 445.105 78.2207 445.105 77.6582C445.105 77.084 444.977 76.5566 444.719 76.0762C444.473 75.584 444.115 75.1914 443.646 74.8984C443.189 74.5938 442.645 74.4414 442.012 74.4414ZM450.414 73.2109V74.9688C450.754 74.3828 451.164 73.9141 451.645 73.5625C452.125 73.2109 452.617 73.0352 453.121 73.0352C453.461 73.0352 453.766 73.0938 454.035 73.2109V74.8809C453.66 74.6582 453.285 74.5469 452.91 74.5469C452.312 74.5469 451.826 74.7578 451.451 75.1797C451.088 75.6016 450.742 76.1055 450.414 76.6914V82H448.973V73.2109H450.414ZM469.1 69.3438V82H467.658V80.5059C467.354 80.9746 466.938 81.3848 466.41 81.7363C465.895 82.0879 465.303 82.2637 464.635 82.2637C463.885 82.2637 463.199 82.0762 462.578 81.7012C461.957 81.3145 461.459 80.7812 461.084 80.1016C460.721 79.4219 460.539 78.6367 460.539 77.7461C460.539 76.7734 460.721 75.9355 461.084 75.2324C461.459 74.5293 461.969 73.9902 462.613 73.6152C463.258 73.2285 463.979 73.0352 464.775 73.0352C465.279 73.0352 465.789 73.1582 466.305 73.4043C466.832 73.6387 467.283 73.9668 467.658 74.3887V69.3438H469.1ZM465.039 74.4766C464.406 74.4766 463.867 74.6348 463.422 74.9512C462.977 75.2559 462.631 75.6543 462.385 76.1465C462.15 76.6387 462.033 77.1719 462.033 77.7461C462.033 78.3086 462.15 78.8301 462.385 79.3105C462.619 79.7793 462.947 80.1543 463.369 80.4355C463.803 80.7168 464.301 80.8574 464.863 80.8574C465.402 80.8574 465.883 80.7168 466.305 80.4355C466.727 80.1543 467.061 79.7676 467.307 79.2754C467.553 78.7715 467.67 78.209 467.658 77.5879L467.641 75.9004C467.277 75.4434 466.885 75.0918 466.463 74.8457C466.053 74.5996 465.578 74.4766 465.039 74.4766ZM475.709 73.0352C476.611 73.0352 477.361 73.2227 477.959 73.5977C478.557 73.9727 479.002 74.4824 479.295 75.127C479.6 75.7715 479.752 76.498 479.752 77.3066V78.168H473.002C473.072 78.6602 473.242 79.1113 473.512 79.5215C473.781 79.9316 474.133 80.2598 474.566 80.5059C475 80.7402 475.498 80.8574 476.061 80.8574C476.693 80.8574 477.285 80.6992 477.836 80.3828C478.387 80.0547 478.85 79.6973 479.225 79.3105L479.207 80.875C479.043 81.0742 478.797 81.2852 478.469 81.5078C478.152 81.7188 477.783 81.8945 477.361 82.0352C476.951 82.1875 476.518 82.2637 476.061 82.2637C475.17 82.2637 474.379 82.0527 473.688 81.6309C472.996 81.209 472.451 80.6523 472.053 79.9609C471.666 79.2578 471.473 78.4902 471.473 77.6582C471.473 76.8262 471.654 76.0586 472.018 75.3555C472.381 74.6523 472.879 74.0898 473.512 73.668C474.156 73.2461 474.889 73.0352 475.709 73.0352ZM475.709 74.4414C474.982 74.4414 474.385 74.6875 473.916 75.1797C473.447 75.6602 473.154 76.2461 473.037 76.9375H478.328C478.27 76.3633 478.105 75.8945 477.836 75.5312C477.578 75.168 477.262 74.8984 476.887 74.7227C476.512 74.5352 476.119 74.4414 475.709 74.4414ZM484.744 73.0352C485.26 73.0352 485.74 73.1113 486.186 73.2637C486.631 73.4043 486.953 73.5508 487.152 73.7031V75.25C486.906 75.0625 486.572 74.8809 486.15 74.7051C485.729 74.5293 485.295 74.4414 484.85 74.4414C484.299 74.4414 483.883 74.5703 483.602 74.8281C483.332 75.0859 483.197 75.3555 483.197 75.6367C483.197 75.8594 483.273 76.0879 483.426 76.3223C483.59 76.5449 483.871 76.7266 484.27 76.8672L485.746 77.3945C486.32 77.5938 486.748 77.8809 487.029 78.2559C487.311 78.6309 487.451 79.0703 487.451 79.5742C487.451 80.0664 487.311 80.5176 487.029 80.9277C486.76 81.3379 486.379 81.666 485.887 81.9121C485.406 82.1465 484.85 82.2637 484.217 82.2637C483.877 82.2637 483.52 82.2168 483.145 82.123C482.781 82.041 482.453 81.9414 482.16 81.8242C481.867 81.6953 481.65 81.584 481.51 81.4902V79.9434C481.674 80.0605 481.902 80.1953 482.195 80.3477C482.5 80.4883 482.822 80.6113 483.162 80.7168C483.502 80.8105 483.818 80.8574 484.111 80.8574C484.662 80.8574 485.096 80.7344 485.412 80.4883C485.74 80.2422 485.904 79.9375 485.904 79.5742C485.904 79.293 485.793 79.0703 485.57 78.9062C485.359 78.7422 485.049 78.584 484.639 78.4316L483.338 77.957C482.658 77.6992 482.207 77.377 481.984 76.9902C481.762 76.5918 481.65 76.1406 481.65 75.6367C481.65 74.8867 481.932 74.2656 482.494 73.7734C483.057 73.2812 483.807 73.0352 484.744 73.0352ZM492.074 70.6797V73.2109H494.641V74.5645H492.074V79.7148C492.074 80.0781 492.168 80.3652 492.355 80.5762C492.543 80.7871 492.83 80.8926 493.217 80.8926C493.568 80.8926 493.861 80.8516 494.096 80.7695C494.33 80.6758 494.535 80.5762 494.711 80.4707V81.6484C494.477 81.8359 494.225 81.9824 493.955 82.0879C493.697 82.2051 493.346 82.2637 492.9 82.2637C492.15 82.2637 491.582 82.041 491.195 81.5957C490.82 81.1387 490.633 80.5352 490.633 79.7852V74.5645H488.945V74.1426C489.52 73.8848 490 73.4629 490.387 72.877C490.773 72.2793 491.113 71.5469 491.406 70.6797H492.074ZM498.701 73.2109V74.9688C499.041 74.3828 499.451 73.9141 499.932 73.5625C500.412 73.2109 500.904 73.0352 501.408 73.0352C501.748 73.0352 502.053 73.0938 502.322 73.2109V74.8809C501.947 74.6582 501.572 74.5469 501.197 74.5469C500.6 74.5469 500.113 74.7578 499.738 75.1797C499.375 75.6016 499.029 76.1055 498.701 76.6914V82H497.26V73.2109H498.701ZM508.141 73.0352C509.031 73.0352 509.822 73.2461 510.514 73.668C511.205 74.0898 511.744 74.6523 512.131 75.3555C512.529 76.0586 512.729 76.8262 512.729 77.6582C512.729 78.4902 512.529 79.2578 512.131 79.9609C511.744 80.6523 511.205 81.209 510.514 81.6309C509.822 82.0527 509.031 82.2637 508.141 82.2637C507.25 82.2637 506.459 82.0527 505.768 81.6309C505.076 81.209 504.531 80.6523 504.133 79.9609C503.746 79.2578 503.553 78.4902 503.553 77.6582C503.553 76.8262 503.746 76.0586 504.133 75.3555C504.531 74.6523 505.076 74.0898 505.768 73.668C506.459 73.2461 507.25 73.0352 508.141 73.0352ZM508.141 74.4414C507.52 74.4414 506.975 74.5938 506.506 74.8984C506.037 75.1914 505.674 75.584 505.416 76.0762C505.17 76.5566 505.047 77.084 505.047 77.6582C505.047 78.2207 505.17 78.748 505.416 79.2402C505.674 79.7207 506.037 80.1133 506.506 80.418C506.975 80.7109 507.52 80.8574 508.141 80.8574C508.773 80.8574 509.318 80.7109 509.775 80.418C510.244 80.1133 510.602 79.7207 510.848 79.2402C511.105 78.748 511.234 78.2207 511.234 77.6582C511.234 77.084 511.105 76.5566 510.848 76.0762C510.602 75.584 510.244 75.1914 509.775 74.8984C509.318 74.5938 508.773 74.4414 508.141 74.4414ZM515.594 73.2109L518.67 79.6797L521.658 73.2109H523.381L516.912 86.2188H515.242L517.756 81.4727L513.871 73.2109H515.594ZM528.76 73.0352C529.662 73.0352 530.412 73.2227 531.01 73.5977C531.607 73.9727 532.053 74.4824 532.346 75.127C532.65 75.7715 532.803 76.498 532.803 77.3066V78.168H526.053C526.123 78.6602 526.293 79.1113 526.562 79.5215C526.832 79.9316 527.184 80.2598 527.617 80.5059C528.051 80.7402 528.549 80.8574 529.111 80.8574C529.744 80.8574 530.336 80.6992 530.887 80.3828C531.438 80.0547 531.9 79.6973 532.275 79.3105L532.258 80.875C532.094 81.0742 531.848 81.2852 531.52 81.5078C531.203 81.7188 530.834 81.8945 530.412 82.0352C530.002 82.1875 529.568 82.2637 529.111 82.2637C528.221 82.2637 527.43 82.0527 526.738 81.6309C526.047 81.209 525.502 80.6523 525.104 79.9609C524.717 79.2578 524.523 78.4902 524.523 77.6582C524.523 76.8262 524.705 76.0586 525.068 75.3555C525.432 74.6523 525.93 74.0898 526.562 73.668C527.207 73.2461 527.939 73.0352 528.76 73.0352ZM528.76 74.4414C528.033 74.4414 527.436 74.6875 526.967 75.1797C526.498 75.6602 526.205 76.2461 526.088 76.9375H531.379C531.32 76.3633 531.156 75.8945 530.887 75.5312C530.629 75.168 530.312 74.8984 529.938 74.7227C529.562 74.5352 529.17 74.4414 528.76 74.4414ZM543.121 69.3438V82H541.68V80.5059C541.375 80.9746 540.959 81.3848 540.432 81.7363C539.916 82.0879 539.324 82.2637 538.656 82.2637C537.906 82.2637 537.221 82.0762 536.6 81.7012C535.979 81.3145 535.48 80.7812 535.105 80.1016C534.742 79.4219 534.561 78.6367 534.561 77.7461C534.561 76.7734 534.742 75.9355 535.105 75.2324C535.48 74.5293 535.99 73.9902 536.635 73.6152C537.279 73.2285 538 73.0352 538.797 73.0352C539.301 73.0352 539.811 73.1582 540.326 73.4043C540.854 73.6387 541.305 73.9668 541.68 74.3887V69.3438H543.121ZM539.061 74.4766C538.428 74.4766 537.889 74.6348 537.443 74.9512C536.998 75.2559 536.652 75.6543 536.406 76.1465C536.172 76.6387 536.055 77.1719 536.055 77.7461C536.055 78.3086 536.172 78.8301 536.406 79.3105C536.641 79.7793 536.969 80.1543 537.391 80.4355C537.824 80.7168 538.322 80.8574 538.885 80.8574C539.424 80.8574 539.904 80.7168 540.326 80.4355C540.748 80.1543 541.082 79.7676 541.328 79.2754C541.574 78.7715 541.691 78.209 541.68 77.5879L541.662 75.9004C541.299 75.4434 540.906 75.0918 540.484 74.8457C540.074 74.5996 539.6 74.4766 539.061 74.4766ZM555.355 73.0352C556 73.0352 556.557 73.1406 557.025 73.3516C557.494 73.5508 557.816 73.7324 557.992 73.8965V75.3555C557.664 75.1094 557.289 74.8984 556.867 74.7227C556.445 74.5352 555.941 74.4414 555.355 74.4414C554.734 74.4414 554.189 74.5938 553.721 74.8984C553.252 75.1914 552.889 75.584 552.631 76.0762C552.385 76.5566 552.262 77.084 552.262 77.6582C552.262 78.2207 552.385 78.748 552.631 79.2402C552.889 79.7207 553.252 80.1133 553.721 80.418C554.189 80.7109 554.734 80.8574 555.355 80.8574C555.941 80.8574 556.445 80.7695 556.867 80.5938C557.289 80.4062 557.664 80.1895 557.992 79.9434V81.4023C557.816 81.5781 557.494 81.7656 557.025 81.9648C556.557 82.1641 556 82.2637 555.355 82.2637C554.465 82.2637 553.674 82.0527 552.982 81.6309C552.291 81.209 551.746 80.6523 551.348 79.9609C550.961 79.2578 550.768 78.4902 550.768 77.6582C550.768 76.8262 550.961 76.0586 551.348 75.3555C551.746 74.6523 552.291 74.0898 552.982 73.668C553.674 73.2461 554.465 73.0352 555.355 73.0352ZM563.986 73.0352C564.889 73.0352 565.639 73.2227 566.236 73.5977C566.834 73.9727 567.279 74.4824 567.572 75.127C567.877 75.7715 568.029 76.498 568.029 77.3066V78.168H561.279C561.35 78.6602 561.52 79.1113 561.789 79.5215C562.059 79.9316 562.41 80.2598 562.844 80.5059C563.277 80.7402 563.775 80.8574 564.338 80.8574C564.971 80.8574 565.562 80.6992 566.113 80.3828C566.664 80.0547 567.127 79.6973 567.502 79.3105L567.484 80.875C567.32 81.0742 567.074 81.2852 566.746 81.5078C566.43 81.7188 566.061 81.8945 565.639 82.0352C565.229 82.1875 564.795 82.2637 564.338 82.2637C563.447 82.2637 562.656 82.0527 561.965 81.6309C561.273 81.209 560.729 80.6523 560.33 79.9609C559.943 79.2578 559.75 78.4902 559.75 77.6582C559.75 76.8262 559.932 76.0586 560.295 75.3555C560.658 74.6523 561.156 74.0898 561.789 73.668C562.434 73.2461 563.166 73.0352 563.986 73.0352ZM563.986 74.4414C563.26 74.4414 562.662 74.6875 562.193 75.1797C561.725 75.6602 561.432 76.2461 561.314 76.9375H566.605C566.547 76.3633 566.383 75.8945 566.113 75.5312C565.855 75.168 565.539 74.8984 565.164 74.7227C564.789 74.5352 564.396 74.4414 563.986 74.4414ZM571.844 73.2109V74.9688C572.184 74.3828 572.594 73.9141 573.074 73.5625C573.555 73.2109 574.047 73.0352 574.551 73.0352C574.891 73.0352 575.195 73.0938 575.465 73.2109V74.8809C575.09 74.6582 574.715 74.5469 574.34 74.5469C573.742 74.5469 573.256 74.7578 572.881 75.1797C572.518 75.6016 572.172 76.1055 571.844 76.6914V82H570.402V73.2109H571.844ZM579.736 70.6797V73.2109H582.303V74.5645H579.736V79.7148C579.736 80.0781 579.83 80.3652 580.018 80.5762C580.205 80.7871 580.492 80.8926 580.879 80.8926C581.23 80.8926 581.523 80.8516 581.758 80.7695C581.992 80.6758 582.197 80.5762 582.373 80.4707V81.6484C582.139 81.8359 581.887 81.9824 581.617 82.0879C581.359 82.2051 581.008 82.2637 580.562 82.2637C579.812 82.2637 579.244 82.041 578.857 81.5957C578.482 81.1387 578.295 80.5352 578.295 79.7852V74.5645H576.607V74.1426C577.182 73.8848 577.662 73.4629 578.049 72.877C578.436 72.2793 578.775 71.5469 579.068 70.6797H579.736ZM586.328 68.9922C586.668 68.9922 586.949 69.1152 587.172 69.3613C587.406 69.5957 587.523 69.8711 587.523 70.1875C587.523 70.4922 587.406 70.7676 587.172 71.0137C586.949 71.2598 586.668 71.3828 586.328 71.3828C585.988 71.3828 585.701 71.2598 585.467 71.0137C585.244 70.7676 585.133 70.4922 585.133 70.1875C585.133 69.8711 585.244 69.5957 585.467 69.3613C585.701 69.1152 585.988 68.9922 586.328 68.9922ZM587.225 73.2109V82H585.783V74.5645H584.395V73.2109H587.225ZM594.889 73.2109V74.5645H592.322V82H590.881V74.5645H589.492V73.2109H590.881V72.0859C590.881 71.3945 591.016 70.832 591.285 70.3984C591.555 69.9531 591.9 69.625 592.322 69.4141C592.744 69.1914 593.172 69.0801 593.605 69.0801C594.203 69.0801 594.689 69.2383 595.064 69.5547V70.8203C594.889 70.7031 594.678 70.6094 594.432 70.5391C594.186 70.4688 593.939 70.4395 593.693 70.4512C593.26 70.4629 592.92 70.6035 592.674 70.873C592.439 71.1309 592.322 71.5879 592.322 72.2441V73.2109H594.889ZM598.211 68.9922C598.551 68.9922 598.832 69.1152 599.055 69.3613C599.289 69.5957 599.406 69.8711 599.406 70.1875C599.406 70.4922 599.289 70.7676 599.055 71.0137C598.832 71.2598 598.551 71.3828 598.211 71.3828C597.871 71.3828 597.584 71.2598 597.35 71.0137C597.127 70.7676 597.016 70.4922 597.016 70.1875C597.016 69.8711 597.127 69.5957 597.35 69.3613C597.584 69.1152 597.871 68.9922 598.211 68.9922ZM599.107 73.2109V82H597.666V74.5645H596.277V73.2109H599.107ZM606.191 73.0352C606.836 73.0352 607.393 73.1406 607.861 73.3516C608.33 73.5508 608.652 73.7324 608.828 73.8965V75.3555C608.5 75.1094 608.125 74.8984 607.703 74.7227C607.281 74.5352 606.777 74.4414 606.191 74.4414C605.57 74.4414 605.025 74.5938 604.557 74.8984C604.088 75.1914 603.725 75.584 603.467 76.0762C603.221 76.5566 603.098 77.084 603.098 77.6582C603.098 78.2207 603.221 78.748 603.467 79.2402C603.725 79.7207 604.088 80.1133 604.557 80.418C605.025 80.7109 605.57 80.8574 606.191 80.8574C606.777 80.8574 607.281 80.7695 607.703 80.5938C608.125 80.4062 608.5 80.1895 608.828 79.9434V81.4023C608.652 81.5781 608.33 81.7656 607.861 81.9648C607.393 82.1641 606.836 82.2637 606.191 82.2637C605.301 82.2637 604.51 82.0527 603.818 81.6309C603.127 81.209 602.582 80.6523 602.184 79.9609C601.797 79.2578 601.604 78.4902 601.604 77.6582C601.604 76.8262 601.797 76.0586 602.184 75.3555C602.582 74.6523 603.127 74.0898 603.818 73.668C604.51 73.2461 605.301 73.0352 606.191 73.0352ZM614.822 73.0352C615.326 73.0352 615.836 73.1582 616.352 73.4043C616.879 73.6387 617.33 73.9668 617.705 74.3887V73.2109H619.146V82H617.705V80.5059C617.4 80.9746 616.984 81.3848 616.457 81.7363C615.941 82.0879 615.35 82.2637 614.682 82.2637C613.932 82.2637 613.246 82.0762 612.625 81.7012C612.004 81.3145 611.506 80.7812 611.131 80.1016C610.768 79.4219 610.586 78.6367 610.586 77.7461C610.586 76.7734 610.768 75.9355 611.131 75.2324C611.506 74.5293 612.016 73.9902 612.66 73.6152C613.305 73.2285 614.025 73.0352 614.822 73.0352ZM615.086 74.4414C614.453 74.4414 613.914 74.5996 613.469 74.916C613.023 75.2324 612.678 75.6426 612.432 76.1465C612.197 76.6387 612.08 77.1719 612.08 77.7461C612.08 78.3086 612.197 78.8301 612.432 79.3105C612.666 79.7793 612.994 80.1543 613.416 80.4355C613.85 80.7168 614.348 80.8574 614.91 80.8574C615.449 80.8574 615.93 80.7168 616.352 80.4355C616.773 80.1543 617.107 79.7676 617.354 79.2754C617.6 78.7715 617.717 78.209 617.705 77.5879L617.688 75.9004C617.324 75.4434 616.932 75.0859 616.51 74.8281C616.1 74.5703 615.625 74.4414 615.086 74.4414ZM624.561 70.6797V73.2109H627.127V74.5645H624.561V79.7148C624.561 80.0781 624.654 80.3652 624.842 80.5762C625.029 80.7871 625.316 80.8926 625.703 80.8926C626.055 80.8926 626.348 80.8516 626.582 80.7695C626.816 80.6758 627.021 80.5762 627.197 80.4707V81.6484C626.963 81.8359 626.711 81.9824 626.441 82.0879C626.184 82.2051 625.832 82.2637 625.387 82.2637C624.637 82.2637 624.068 82.041 623.682 81.5957C623.307 81.1387 623.119 80.5352 623.119 79.7852V74.5645H621.432V74.1426C622.006 73.8848 622.486 73.4629 622.873 72.877C623.26 72.2793 623.6 71.5469 623.893 70.6797H624.561ZM633.367 73.0352C634.27 73.0352 635.02 73.2227 635.617 73.5977C636.215 73.9727 636.66 74.4824 636.953 75.127C637.258 75.7715 637.41 76.498 637.41 77.3066V78.168H630.66C630.73 78.6602 630.9 79.1113 631.17 79.5215C631.439 79.9316 631.791 80.2598 632.225 80.5059C632.658 80.7402 633.156 80.8574 633.719 80.8574C634.352 80.8574 634.943 80.6992 635.494 80.3828C636.045 80.0547 636.508 79.6973 636.883 79.3105L636.865 80.875C636.701 81.0742 636.455 81.2852 636.127 81.5078C635.811 81.7188 635.441 81.8945 635.02 82.0352C634.609 82.1875 634.176 82.2637 633.719 82.2637C632.828 82.2637 632.037 82.0527 631.346 81.6309C630.654 81.209 630.109 80.6523 629.711 79.9609C629.324 79.2578 629.131 78.4902 629.131 77.6582C629.131 76.8262 629.312 76.0586 629.676 75.3555C630.039 74.6523 630.537 74.0898 631.17 73.668C631.814 73.2461 632.547 73.0352 633.367 73.0352ZM633.367 74.4414C632.641 74.4414 632.043 74.6875 631.574 75.1797C631.105 75.6602 630.812 76.2461 630.695 76.9375H635.986C635.928 76.3633 635.764 75.8945 635.494 75.5312C635.236 75.168 634.92 74.8984 634.545 74.7227C634.17 74.5352 633.777 74.4414 633.367 74.4414ZM642.947 69.959C643.65 69.959 644.289 70.1055 644.863 70.3984C645.438 70.6914 645.889 71.0957 646.217 71.6113C646.557 72.127 646.727 72.7188 646.727 73.3867C646.727 73.8203 646.615 74.2129 646.393 74.5645C646.182 74.9043 645.912 75.2148 645.584 75.4961C645.268 75.7773 644.951 76.041 644.635 76.2871C644.318 76.5332 644.055 76.7793 643.844 77.0254C643.633 77.2715 643.533 77.5293 643.545 77.7988L643.562 78.168H641.857V77.4648C641.857 77.207 641.957 76.9609 642.156 76.7266C642.367 76.4805 642.625 76.2402 642.93 76.0059C643.234 75.7598 643.539 75.5137 643.844 75.2676C644.16 75.0098 644.418 74.7461 644.617 74.4766C644.828 74.207 644.934 73.9199 644.934 73.6152C644.934 73.041 644.746 72.5664 644.371 72.1914C644.008 71.8164 643.475 71.6289 642.771 71.6289C642.068 71.6289 641.482 71.7695 641.014 72.0508C640.557 72.3203 640.117 72.7246 639.695 73.2637V71.3477C640.012 70.9609 640.463 70.6328 641.049 70.3633C641.635 70.0938 642.268 69.959 642.947 69.959ZM642.789 79.8555C643.129 79.8555 643.416 79.9785 643.65 80.2246C643.896 80.459 644.02 80.7461 644.02 81.0859C644.02 81.4141 643.896 81.7012 643.65 81.9473C643.416 82.1934 643.129 82.3164 642.789 82.3164C642.449 82.3164 642.156 82.1934 641.91 81.9473C641.676 81.7012 641.559 81.4141 641.559 81.0859C641.559 80.7461 641.676 80.459 641.91 80.2246C642.156 79.9785 642.449 79.8555 642.789 79.8555Z" fill="#1F365D"/>
<path d="M799.668 74.6665V66.6665H802.335V74.6665H810.335V77.3332H802.335V85.3332H799.668V77.3332H791.668V74.6665H799.668Z" fill="#1F365D"/>
</g>
<defs>
<filter id="filter0_d_610_7056" x="0" y="0" width="884" height="160" filterUnits="userSpaceOnUse" color-interpolation-filters="sRGB">
<feFlood flood-opacity="0" result="BackgroundImageFix"/>
<feColorMatrix in="SourceAlpha" type="matrix" values="0 0 0 0 0 0 0 0 0 0 0 0 0 0 0 0 0 0 127 0" result="hardAlpha"/>
<feOffset dy="4"/>
<feGaussianBlur stdDeviation="17.5"/>
<feComposite in2="hardAlpha" operator="out"/>
<feColorMatrix type="matrix" values="0 0 0 0 0.920833 0 0 0 0 0.916997 0 0 0 0 0.916997 0 0 0 0.25 0"/>
<feBlend mode="normal" in2="BackgroundImageFix" result="effect1_dropShadow_610_7056"/>
<feBlend mode="normal" in="SourceGraphic" in2="effect1_dropShadow_610_7056" result="shape"/>
</filter>
</defs>
</svg>
