<svg width="152" height="24" viewBox="0 0 152 24" fill="none" xmlns="http://www.w3.org/2000/svg">
<path d="M140 15.968L144.247 18.345L143.298 13.572L146.871 10.267L142.038 9.694L140 5.275V15.968ZM140 18.26L132.947 22.208L134.522 14.28L128.587 8.792L136.614 7.84L140 0.5L143.386 7.84L151.413 8.792L145.478 14.28L147.053 22.208L140 18.26Z" fill="#F6A523"/>
<path d="M12 18.26L4.94704 22.208L6.52204 14.28L0.587036 8.792L8.61404 7.84L12 0.5L15.386 7.84L23.413 8.792L17.478 14.28L19.053 22.208L12 18.26Z" fill="#F6A523"/>
<path d="M44 18.26L36.947 22.208L38.522 14.28L32.587 8.792L40.614 7.84L44 0.5L47.386 7.84L55.413 8.792L49.478 14.28L51.053 22.208L44 18.26Z" fill="#F6A523"/>
<path d="M76 18.26L68.947 22.208L70.522 14.28L64.587 8.792L72.614 7.84L76 0.5L79.386 7.84L87.413 8.792L81.478 14.28L83.053 22.208L76 18.26Z" fill="#F6A523"/>
<path d="M108 18.26L100.947 22.208L102.522 14.28L96.587 8.792L104.614 7.84L108 0.5L111.386 7.84L119.413 8.792L113.478 14.28L115.053 22.208L108 18.26Z" fill="#F6A523"/>
</svg>
