<svg width="884" height="160" viewBox="0 0 884 160" fill="none" xmlns="http://www.w3.org/2000/svg">
<g filter="url(#filter0_d_610_7269)">
<rect x="35" y="31" width="814" height="90" rx="4" fill="white"/>
<path d="M70.5156 70.2227V75.1797H77.2305V70.2227H78.8125V82H77.2305V76.6738H70.5156V82H68.9336V70.2227H70.5156ZM86.2129 73.0352C87.1035 73.0352 87.8945 73.2461 88.5859 73.668C89.2773 74.0898 89.8164 74.6523 90.2031 75.3555C90.6016 76.0586 90.8008 76.8262 90.8008 77.6582C90.8008 78.4902 90.6016 79.2578 90.2031 79.9609C89.8164 80.6523 89.2773 81.209 88.5859 81.6309C87.8945 82.0527 87.1035 82.2637 86.2129 82.2637C85.3223 82.2637 84.5312 82.0527 83.8398 81.6309C83.1484 81.209 82.6035 80.6523 82.2051 79.9609C81.8184 79.2578 81.625 78.4902 81.625 77.6582C81.625 76.8262 81.8184 76.0586 82.2051 75.3555C82.6035 74.6523 83.1484 74.0898 83.8398 73.668C84.5312 73.2461 85.3223 73.0352 86.2129 73.0352ZM86.2129 74.4414C85.5918 74.4414 85.0469 74.5938 84.5781 74.8984C84.1094 75.1914 83.7461 75.584 83.4883 76.0762C83.2422 76.5566 83.1191 77.084 83.1191 77.6582C83.1191 78.2207 83.2422 78.748 83.4883 79.2402C83.7461 79.7207 84.1094 80.1133 84.5781 80.418C85.0469 80.7109 85.5918 80.8574 86.2129 80.8574C86.8457 80.8574 87.3906 80.7109 87.8477 80.418C88.3164 80.1133 88.6738 79.7207 88.9199 79.2402C89.1777 78.748 89.3066 78.2207 89.3066 77.6582C89.3066 77.084 89.1777 76.5566 88.9199 76.0762C88.6738 75.584 88.3164 75.1914 87.8477 74.8984C87.3906 74.5938 86.8457 74.4414 86.2129 74.4414ZM104.705 73.2109L101.629 82H100.732L98.3242 75.7949L95.916 82H95.0195L91.9434 73.2109H93.666L95.6172 79.3809L97.9199 73.2109H98.7285L101.031 79.3809L102.982 73.2109H104.705ZM119.682 69.3438V82H118.24V80.5059C117.936 80.9746 117.52 81.3848 116.992 81.7363C116.477 82.0879 115.885 82.2637 115.217 82.2637C114.467 82.2637 113.781 82.0762 113.16 81.7012C112.539 81.3145 112.041 80.7812 111.666 80.1016C111.303 79.4219 111.121 78.6367 111.121 77.7461C111.121 76.7734 111.303 75.9355 111.666 75.2324C112.041 74.5293 112.551 73.9902 113.195 73.6152C113.84 73.2285 114.561 73.0352 115.357 73.0352C115.861 73.0352 116.371 73.1582 116.887 73.4043C117.414 73.6387 117.865 73.9668 118.24 74.3887V69.3438H119.682ZM115.621 74.4766C114.988 74.4766 114.449 74.6348 114.004 74.9512C113.559 75.2559 113.213 75.6543 112.967 76.1465C112.732 76.6387 112.615 77.1719 112.615 77.7461C112.615 78.3086 112.732 78.8301 112.967 79.3105C113.201 79.7793 113.529 80.1543 113.951 80.4355C114.385 80.7168 114.883 80.8574 115.445 80.8574C115.984 80.8574 116.465 80.7168 116.887 80.4355C117.309 80.1543 117.643 79.7676 117.889 79.2754C118.135 78.7715 118.252 78.209 118.24 77.5879L118.223 75.9004C117.859 75.4434 117.467 75.0918 117.045 74.8457C116.635 74.5996 116.16 74.4766 115.621 74.4766ZM126.643 73.0352C127.533 73.0352 128.324 73.2461 129.016 73.668C129.707 74.0898 130.246 74.6523 130.633 75.3555C131.031 76.0586 131.23 76.8262 131.23 77.6582C131.23 78.4902 131.031 79.2578 130.633 79.9609C130.246 80.6523 129.707 81.209 129.016 81.6309C128.324 82.0527 127.533 82.2637 126.643 82.2637C125.752 82.2637 124.961 82.0527 124.27 81.6309C123.578 81.209 123.033 80.6523 122.635 79.9609C122.248 79.2578 122.055 78.4902 122.055 77.6582C122.055 76.8262 122.248 76.0586 122.635 75.3555C123.033 74.6523 123.578 74.0898 124.27 73.668C124.961 73.2461 125.752 73.0352 126.643 73.0352ZM126.643 74.4414C126.021 74.4414 125.477 74.5938 125.008 74.8984C124.539 75.1914 124.176 75.584 123.918 76.0762C123.672 76.5566 123.549 77.084 123.549 77.6582C123.549 78.2207 123.672 78.748 123.918 79.2402C124.176 79.7207 124.539 80.1133 125.008 80.418C125.477 80.7109 126.021 80.8574 126.643 80.8574C127.275 80.8574 127.82 80.7109 128.277 80.418C128.746 80.1133 129.104 79.7207 129.35 79.2402C129.607 78.748 129.736 78.2207 129.736 77.6582C129.736 77.084 129.607 76.5566 129.35 76.0762C129.104 75.584 128.746 75.1914 128.277 74.8984C127.82 74.5938 127.275 74.4414 126.643 74.4414ZM144.871 80.5059V82H139.316V80.5059H141.303V71.7168H139.316V70.2227H144.871V71.7168H142.885V80.5059H144.871ZM157.545 73.0352C158.189 73.0352 158.746 73.1406 159.215 73.3516C159.684 73.5508 160.006 73.7324 160.182 73.8965V75.3555C159.854 75.1094 159.479 74.8984 159.057 74.7227C158.635 74.5352 158.131 74.4414 157.545 74.4414C156.924 74.4414 156.379 74.5938 155.91 74.8984C155.441 75.1914 155.078 75.584 154.82 76.0762C154.574 76.5566 154.451 77.084 154.451 77.6582C154.451 78.2207 154.574 78.748 154.82 79.2402C155.078 79.7207 155.441 80.1133 155.91 80.418C156.379 80.7109 156.924 80.8574 157.545 80.8574C158.131 80.8574 158.635 80.7695 159.057 80.5938C159.479 80.4062 159.854 80.1895 160.182 79.9434V81.4023C160.006 81.5781 159.684 81.7656 159.215 81.9648C158.746 82.1641 158.189 82.2637 157.545 82.2637C156.654 82.2637 155.863 82.0527 155.172 81.6309C154.48 81.209 153.936 80.6523 153.537 79.9609C153.15 79.2578 152.957 78.4902 152.957 77.6582C152.957 76.8262 153.15 76.0586 153.537 75.3555C153.936 74.6523 154.48 74.0898 155.172 73.668C155.863 73.2461 156.654 73.0352 157.545 73.0352ZM166.861 73.0352C167.459 73.0352 168.004 73.1699 168.496 73.4395C168.988 73.6973 169.381 74.0957 169.674 74.6348C169.967 75.1621 170.113 75.8301 170.113 76.6387V82H168.672L168.654 76.7793C168.654 76.0176 168.484 75.4375 168.145 75.0391C167.816 74.6406 167.307 74.4414 166.615 74.4414C166.146 74.4414 165.678 74.6172 165.209 74.9688C164.752 75.3086 164.348 75.707 163.996 76.1641V82H162.555V69.3438H163.996V74.5996C164.184 74.3652 164.424 74.1309 164.717 73.8965C165.01 73.6504 165.338 73.4453 165.701 73.2812C166.076 73.1172 166.463 73.0352 166.861 73.0352ZM176.459 73.0352C176.963 73.0352 177.473 73.1582 177.988 73.4043C178.516 73.6387 178.967 73.9668 179.342 74.3887V73.2109H180.783V82H179.342V80.5059C179.037 80.9746 178.621 81.3848 178.094 81.7363C177.578 82.0879 176.986 82.2637 176.318 82.2637C175.568 82.2637 174.883 82.0762 174.262 81.7012C173.641 81.3145 173.143 80.7812 172.768 80.1016C172.404 79.4219 172.223 78.6367 172.223 77.7461C172.223 76.7734 172.404 75.9355 172.768 75.2324C173.143 74.5293 173.652 73.9902 174.297 73.6152C174.941 73.2285 175.662 73.0352 176.459 73.0352ZM176.723 74.4414C176.09 74.4414 175.551 74.5996 175.105 74.916C174.66 75.2324 174.314 75.6426 174.068 76.1465C173.834 76.6387 173.717 77.1719 173.717 77.7461C173.717 78.3086 173.834 78.8301 174.068 79.3105C174.303 79.7793 174.631 80.1543 175.053 80.4355C175.486 80.7168 175.984 80.8574 176.547 80.8574C177.086 80.8574 177.566 80.7168 177.988 80.4355C178.41 80.1543 178.744 79.7676 178.99 79.2754C179.236 78.7715 179.354 78.209 179.342 77.5879L179.324 75.9004C178.961 75.4434 178.568 75.0859 178.146 74.8281C177.736 74.5703 177.262 74.4414 176.723 74.4414ZM185.213 73.2109V74.5996C185.4 74.3652 185.641 74.1309 185.934 73.8965C186.227 73.6504 186.555 73.4453 186.918 73.2812C187.293 73.1172 187.68 73.0352 188.078 73.0352C188.676 73.0352 189.221 73.1699 189.713 73.4395C190.205 73.6973 190.598 74.0957 190.891 74.6348C191.184 75.1621 191.33 75.8301 191.33 76.6387V82H189.889L189.871 76.7793C189.871 76.0176 189.701 75.4375 189.361 75.0391C189.033 74.6406 188.523 74.4414 187.832 74.4414C187.363 74.4414 186.895 74.6172 186.426 74.9688C185.969 75.3086 185.564 75.707 185.213 76.1641V82H183.771V73.2109H185.213ZM197.676 73.0352C198.18 73.0352 198.689 73.1582 199.205 73.4043C199.732 73.6387 200.184 73.9668 200.559 74.3887V73.2109H202V81.8242C202 82.8672 201.789 83.7344 201.367 84.4258C200.945 85.1172 200.383 85.6328 199.68 85.9727C198.977 86.3125 198.209 86.4824 197.377 86.4824C196.838 86.4824 196.375 86.418 195.988 86.2891C195.613 86.1719 195.291 86.0195 195.021 85.832C194.752 85.6562 194.506 85.4863 194.283 85.3223V83.7754C194.459 83.9043 194.688 84.0684 194.969 84.2676C195.262 84.4785 195.607 84.666 196.006 84.8301C196.416 84.9941 196.873 85.0762 197.377 85.0762C197.951 85.0762 198.479 84.9707 198.959 84.7598C199.439 84.5488 199.826 84.2383 200.119 83.8281C200.412 83.418 200.559 82.9258 200.559 82.3516V80.5059C200.254 80.9746 199.838 81.3848 199.311 81.7363C198.795 82.0879 198.203 82.2637 197.535 82.2637C196.785 82.2637 196.1 82.0762 195.479 81.7012C194.857 81.3145 194.359 80.7812 193.984 80.1016C193.621 79.4219 193.439 78.6367 193.439 77.7461C193.439 76.7734 193.621 75.9355 193.984 75.2324C194.359 74.5293 194.869 73.9902 195.514 73.6152C196.158 73.2285 196.879 73.0352 197.676 73.0352ZM197.939 74.459C197.307 74.459 196.768 74.6172 196.322 74.9336C195.877 75.2383 195.531 75.6426 195.285 76.1465C195.051 76.6387 194.934 77.1719 194.934 77.7461C194.934 78.3086 195.051 78.8242 195.285 79.293C195.52 79.7617 195.848 80.1367 196.27 80.418C196.703 80.6992 197.201 80.8398 197.764 80.8398C198.303 80.8398 198.783 80.6992 199.205 80.418C199.627 80.1367 199.961 79.75 200.207 79.2578C200.453 78.7656 200.57 78.209 200.559 77.5879L200.541 75.9004C200.178 75.4434 199.785 75.0918 199.363 74.8457C198.953 74.5879 198.479 74.459 197.939 74.459ZM208.609 73.0352C209.512 73.0352 210.262 73.2227 210.859 73.5977C211.457 73.9727 211.902 74.4824 212.195 75.127C212.5 75.7715 212.652 76.498 212.652 77.3066V78.168H205.902C205.973 78.6602 206.143 79.1113 206.412 79.5215C206.682 79.9316 207.033 80.2598 207.467 80.5059C207.9 80.7402 208.398 80.8574 208.961 80.8574C209.594 80.8574 210.186 80.6992 210.736 80.3828C211.287 80.0547 211.75 79.6973 212.125 79.3105L212.107 80.875C211.943 81.0742 211.697 81.2852 211.369 81.5078C211.053 81.7188 210.684 81.8945 210.262 82.0352C209.852 82.1875 209.418 82.2637 208.961 82.2637C208.07 82.2637 207.279 82.0527 206.588 81.6309C205.896 81.209 205.352 80.6523 204.953 79.9609C204.566 79.2578 204.373 78.4902 204.373 77.6582C204.373 76.8262 204.555 76.0586 204.918 75.3555C205.281 74.6523 205.779 74.0898 206.412 73.668C207.057 73.2461 207.789 73.0352 208.609 73.0352ZM208.609 74.4414C207.883 74.4414 207.285 74.6875 206.816 75.1797C206.348 75.6602 206.055 76.2461 205.938 76.9375H211.229C211.17 76.3633 211.006 75.8945 210.736 75.5312C210.479 75.168 210.162 74.8984 209.787 74.7227C209.412 74.5352 209.02 74.4414 208.609 74.4414ZM221.74 73.2109V74.3359C222.021 74.0195 222.379 73.7266 222.812 73.457C223.258 73.1758 223.779 73.0352 224.377 73.0352C225.01 73.0352 225.602 73.1875 226.152 73.4922C226.703 73.7852 227.125 74.2305 227.418 74.8281C227.828 74.3359 228.273 73.9141 228.754 73.5625C229.234 73.2109 229.797 73.0352 230.441 73.0352C231.039 73.0352 231.596 73.1699 232.111 73.4395C232.639 73.6973 233.061 74.0957 233.377 74.6348C233.705 75.1621 233.869 75.8301 233.869 76.6387V82H232.428L232.41 76.7793C232.41 76.0176 232.211 75.4375 231.812 75.0391C231.426 74.6406 230.887 74.4414 230.195 74.4414C229.691 74.4414 229.252 74.5996 228.877 74.916C228.502 75.2324 228.145 75.6016 227.805 76.0234V82H226.363L226.346 76.7793C226.346 76.0176 226.146 75.4375 225.748 75.0391C225.361 74.6406 224.822 74.4414 224.131 74.4414C223.65 74.4414 223.211 74.582 222.812 74.8633C222.426 75.1445 222.068 75.4844 221.74 75.8828V82H220.299V73.2109H221.74ZM237.086 73.2109L240.162 79.6797L243.15 73.2109H244.873L238.404 86.2188H236.734L239.248 81.4727L235.363 73.2109H237.086ZM256.369 73.0352C257.131 73.0352 257.816 73.2227 258.426 73.5977C259.047 73.9609 259.539 74.4766 259.902 75.1445C260.277 75.8008 260.465 76.5742 260.465 77.4648C260.465 78.4258 260.277 79.2695 259.902 79.9961C259.539 80.7109 259.035 81.2676 258.391 81.666C257.758 82.0645 257.037 82.2637 256.229 82.2637C255.725 82.2637 255.209 82.1289 254.682 81.8594C254.166 81.5898 253.721 81.2441 253.346 80.8223V86.2188H251.904V73.2109H253.346V74.7051C253.65 74.2363 254.061 73.8438 254.576 73.5273C255.104 73.1992 255.701 73.0352 256.369 73.0352ZM256.141 74.4414C255.613 74.4414 255.133 74.5762 254.699 74.8457C254.277 75.1152 253.943 75.4902 253.697 75.9707C253.463 76.4395 253.346 76.9902 253.346 77.623L253.363 79.3105C253.738 79.7676 254.131 80.1426 254.541 80.4355C254.951 80.7168 255.426 80.8574 255.965 80.8574C256.598 80.8574 257.137 80.6934 257.582 80.3652C258.027 80.0371 258.367 79.6152 258.602 79.0996C258.848 78.5723 258.971 78.0273 258.971 77.4648C258.971 76.8906 258.854 76.3809 258.619 75.9355C258.385 75.4785 258.057 75.1152 257.635 74.8457C257.213 74.5762 256.715 74.4414 256.141 74.4414ZM266.459 73.0352C266.963 73.0352 267.473 73.1582 267.988 73.4043C268.516 73.6387 268.967 73.9668 269.342 74.3887V73.2109H270.783V82H269.342V80.5059C269.037 80.9746 268.621 81.3848 268.094 81.7363C267.578 82.0879 266.986 82.2637 266.318 82.2637C265.568 82.2637 264.883 82.0762 264.262 81.7012C263.641 81.3145 263.143 80.7812 262.768 80.1016C262.404 79.4219 262.223 78.6367 262.223 77.7461C262.223 76.7734 262.404 75.9355 262.768 75.2324C263.143 74.5293 263.652 73.9902 264.297 73.6152C264.941 73.2285 265.662 73.0352 266.459 73.0352ZM266.723 74.4414C266.09 74.4414 265.551 74.5996 265.105 74.916C264.66 75.2324 264.314 75.6426 264.068 76.1465C263.834 76.6387 263.717 77.1719 263.717 77.7461C263.717 78.3086 263.834 78.8301 264.068 79.3105C264.303 79.7793 264.631 80.1543 265.053 80.4355C265.486 80.7168 265.984 80.8574 266.547 80.8574C267.086 80.8574 267.566 80.7168 267.988 80.4355C268.41 80.1543 268.744 79.7676 268.99 79.2754C269.236 78.7715 269.354 78.209 269.342 77.5879L269.324 75.9004C268.961 75.4434 268.568 75.0859 268.146 74.8281C267.736 74.5703 267.262 74.4414 266.723 74.4414ZM276.391 73.0352C276.906 73.0352 277.387 73.1113 277.832 73.2637C278.277 73.4043 278.6 73.5508 278.799 73.7031V75.25C278.553 75.0625 278.219 74.8809 277.797 74.7051C277.375 74.5293 276.941 74.4414 276.496 74.4414C275.945 74.4414 275.529 74.5703 275.248 74.8281C274.979 75.0859 274.844 75.3555 274.844 75.6367C274.844 75.8594 274.92 76.0879 275.072 76.3223C275.236 76.5449 275.518 76.7266 275.916 76.8672L277.393 77.3945C277.967 77.5938 278.395 77.8809 278.676 78.2559C278.957 78.6309 279.098 79.0703 279.098 79.5742C279.098 80.0664 278.957 80.5176 278.676 80.9277C278.406 81.3379 278.025 81.666 277.533 81.9121C277.053 82.1465 276.496 82.2637 275.863 82.2637C275.523 82.2637 275.166 82.2168 274.791 82.123C274.428 82.041 274.1 81.9414 273.807 81.8242C273.514 81.6953 273.297 81.584 273.156 81.4902V79.9434C273.32 80.0605 273.549 80.1953 273.842 80.3477C274.146 80.4883 274.469 80.6113 274.809 80.7168C275.148 80.8105 275.465 80.8574 275.758 80.8574C276.309 80.8574 276.742 80.7344 277.059 80.4883C277.387 80.2422 277.551 79.9375 277.551 79.5742C277.551 79.293 277.439 79.0703 277.217 78.9062C277.006 78.7422 276.695 78.584 276.285 78.4316L274.984 77.957C274.305 77.6992 273.854 77.377 273.631 76.9902C273.408 76.5918 273.297 76.1406 273.297 75.6367C273.297 74.8867 273.578 74.2656 274.141 73.7734C274.703 73.2812 275.453 73.0352 276.391 73.0352ZM283.914 73.0352C284.43 73.0352 284.91 73.1113 285.355 73.2637C285.801 73.4043 286.123 73.5508 286.322 73.7031V75.25C286.076 75.0625 285.742 74.8809 285.32 74.7051C284.898 74.5293 284.465 74.4414 284.02 74.4414C283.469 74.4414 283.053 74.5703 282.771 74.8281C282.502 75.0859 282.367 75.3555 282.367 75.6367C282.367 75.8594 282.443 76.0879 282.596 76.3223C282.76 76.5449 283.041 76.7266 283.439 76.8672L284.916 77.3945C285.49 77.5938 285.918 77.8809 286.199 78.2559C286.48 78.6309 286.621 79.0703 286.621 79.5742C286.621 80.0664 286.48 80.5176 286.199 80.9277C285.93 81.3379 285.549 81.666 285.057 81.9121C284.576 82.1465 284.02 82.2637 283.387 82.2637C283.047 82.2637 282.689 82.2168 282.314 82.123C281.951 82.041 281.623 81.9414 281.33 81.8242C281.037 81.6953 280.82 81.584 280.68 81.4902V79.9434C280.844 80.0605 281.072 80.1953 281.365 80.3477C281.67 80.4883 281.992 80.6113 282.332 80.7168C282.672 80.8105 282.988 80.8574 283.281 80.8574C283.832 80.8574 284.266 80.7344 284.582 80.4883C284.91 80.2422 285.074 79.9375 285.074 79.5742C285.074 79.293 284.963 79.0703 284.74 78.9062C284.529 78.7422 284.219 78.584 283.809 78.4316L282.508 77.957C281.828 77.6992 281.377 77.377 281.154 76.9902C280.932 76.5918 280.82 76.1406 280.82 75.6367C280.82 74.8867 281.102 74.2656 281.664 73.7734C282.227 73.2812 282.977 73.0352 283.914 73.0352ZM300.35 73.2109L297.273 82H296.377L293.969 75.7949L291.561 82H290.664L287.588 73.2109H289.311L291.262 79.3809L293.564 73.2109H294.373L296.676 79.3809L298.627 73.2109H300.35ZM306.08 73.0352C306.971 73.0352 307.762 73.2461 308.453 73.668C309.145 74.0898 309.684 74.6523 310.07 75.3555C310.469 76.0586 310.668 76.8262 310.668 77.6582C310.668 78.4902 310.469 79.2578 310.07 79.9609C309.684 80.6523 309.145 81.209 308.453 81.6309C307.762 82.0527 306.971 82.2637 306.08 82.2637C305.189 82.2637 304.398 82.0527 303.707 81.6309C303.016 81.209 302.471 80.6523 302.072 79.9609C301.686 79.2578 301.492 78.4902 301.492 77.6582C301.492 76.8262 301.686 76.0586 302.072 75.3555C302.471 74.6523 303.016 74.0898 303.707 73.668C304.398 73.2461 305.189 73.0352 306.08 73.0352ZM306.08 74.4414C305.459 74.4414 304.914 74.5938 304.445 74.8984C303.977 75.1914 303.613 75.584 303.355 76.0762C303.109 76.5566 302.986 77.084 302.986 77.6582C302.986 78.2207 303.109 78.748 303.355 79.2402C303.613 79.7207 303.977 80.1133 304.445 80.418C304.914 80.7109 305.459 80.8574 306.08 80.8574C306.713 80.8574 307.258 80.7109 307.715 80.418C308.184 80.1133 308.541 79.7207 308.787 79.2402C309.045 78.748 309.174 78.2207 309.174 77.6582C309.174 77.084 309.045 76.5566 308.787 76.0762C308.541 75.584 308.184 75.1914 307.715 74.8984C307.258 74.5938 306.713 74.4414 306.08 74.4414ZM314.482 73.2109V74.9688C314.822 74.3828 315.232 73.9141 315.713 73.5625C316.193 73.2109 316.686 73.0352 317.189 73.0352C317.529 73.0352 317.834 73.0938 318.104 73.2109V74.8809C317.729 74.6582 317.354 74.5469 316.979 74.5469C316.381 74.5469 315.895 74.7578 315.52 75.1797C315.156 75.6016 314.811 76.1055 314.482 76.6914V82H313.041V73.2109H314.482ZM327.895 69.3438V82H326.453V80.5059C326.148 80.9746 325.732 81.3848 325.205 81.7363C324.689 82.0879 324.098 82.2637 323.43 82.2637C322.68 82.2637 321.994 82.0762 321.373 81.7012C320.752 81.3145 320.254 80.7812 319.879 80.1016C319.516 79.4219 319.334 78.6367 319.334 77.7461C319.334 76.7734 319.516 75.9355 319.879 75.2324C320.254 74.5293 320.764 73.9902 321.408 73.6152C322.053 73.2285 322.773 73.0352 323.57 73.0352C324.074 73.0352 324.584 73.1582 325.1 73.4043C325.627 73.6387 326.078 73.9668 326.453 74.3887V69.3438H327.895ZM323.834 74.4766C323.201 74.4766 322.662 74.6348 322.217 74.9512C321.771 75.2559 321.426 75.6543 321.18 76.1465C320.945 76.6387 320.828 77.1719 320.828 77.7461C320.828 78.3086 320.945 78.8301 321.18 79.3105C321.414 79.7793 321.742 80.1543 322.164 80.4355C322.598 80.7168 323.096 80.8574 323.658 80.8574C324.197 80.8574 324.678 80.7168 325.1 80.4355C325.521 80.1543 325.855 79.7676 326.102 79.2754C326.348 78.7715 326.465 78.209 326.453 77.5879L326.436 75.9004C326.072 75.4434 325.68 75.0918 325.258 74.8457C324.848 74.5996 324.373 74.4766 323.834 74.4766ZM334.047 69.959C334.75 69.959 335.389 70.1055 335.963 70.3984C336.537 70.6914 336.988 71.0957 337.316 71.6113C337.656 72.127 337.826 72.7188 337.826 73.3867C337.826 73.8203 337.715 74.2129 337.492 74.5645C337.281 74.9043 337.012 75.2148 336.684 75.4961C336.367 75.7773 336.051 76.041 335.734 76.2871C335.418 76.5332 335.154 76.7793 334.943 77.0254C334.732 77.2715 334.633 77.5293 334.645 77.7988L334.662 78.168H332.957V77.4648C332.957 77.207 333.057 76.9609 333.256 76.7266C333.467 76.4805 333.725 76.2402 334.029 76.0059C334.334 75.7598 334.639 75.5137 334.943 75.2676C335.26 75.0098 335.518 74.7461 335.717 74.4766C335.928 74.207 336.033 73.9199 336.033 73.6152C336.033 73.041 335.846 72.5664 335.471 72.1914C335.107 71.8164 334.574 71.6289 333.871 71.6289C333.168 71.6289 332.582 71.7695 332.113 72.0508C331.656 72.3203 331.217 72.7246 330.795 73.2637V71.3477C331.111 70.9609 331.562 70.6328 332.148 70.3633C332.734 70.0938 333.367 69.959 334.047 69.959ZM333.889 79.8555C334.229 79.8555 334.516 79.9785 334.75 80.2246C334.996 80.459 335.119 80.7461 335.119 81.0859C335.119 81.4141 334.996 81.7012 334.75 81.9473C334.516 82.1934 334.229 82.3164 333.889 82.3164C333.549 82.3164 333.256 82.1934 333.01 81.9473C332.775 81.7012 332.658 81.4141 332.658 81.0859C332.658 80.7461 332.775 80.459 333.01 80.2246C333.256 79.9785 333.549 79.8555 333.889 79.8555Z" fill="#1F365D"/>
<path d="M799.668 74.6665V66.6665H802.335V74.6665H810.335V77.3332H802.335V85.3332H799.668V77.3332H791.668V74.6665H799.668Z" fill="#1F365D"/>
</g>
<defs>
<filter id="filter0_d_610_7269" x="0" y="0" width="884" height="160" filterUnits="userSpaceOnUse" color-interpolation-filters="sRGB">
<feFlood flood-opacity="0" result="BackgroundImageFix"/>
<feColorMatrix in="SourceAlpha" type="matrix" values="0 0 0 0 0 0 0 0 0 0 0 0 0 0 0 0 0 0 127 0" result="hardAlpha"/>
<feOffset dy="4"/>
<feGaussianBlur stdDeviation="17.5"/>
<feComposite in2="hardAlpha" operator="out"/>
<feColorMatrix type="matrix" values="0 0 0 0 0.920833 0 0 0 0 0.916997 0 0 0 0 0.916997 0 0 0 0.25 0"/>
<feBlend mode="normal" in2="BackgroundImageFix" result="effect1_dropShadow_610_7269"/>
<feBlend mode="normal" in="SourceGraphic" in2="effect1_dropShadow_610_7269" result="shape"/>
</filter>
</defs>
</svg>
