<svg width="884" height="160" viewBox="0 0 884 160" fill="none" xmlns="http://www.w3.org/2000/svg">
<g filter="url(#filter0_d_610_6704)">
<rect x="35" y="31" width="814" height="90" rx="4" fill="white"/>
<path d="M74.4883 80.5059V82H68.9336V80.5059H70.9199V71.7168H68.9336V70.2227H74.4883V71.7168H72.502V80.5059H74.4883ZM80.5352 73.0352C81.0508 73.0352 81.5312 73.1113 81.9766 73.2637C82.4219 73.4043 82.7441 73.5508 82.9434 73.7031V75.25C82.6973 75.0625 82.3633 74.8809 81.9414 74.7051C81.5195 74.5293 81.0859 74.4414 80.6406 74.4414C80.0898 74.4414 79.6738 74.5703 79.3926 74.8281C79.123 75.0859 78.9883 75.3555 78.9883 75.6367C78.9883 75.8594 79.0645 76.0879 79.2168 76.3223C79.3809 76.5449 79.6621 76.7266 80.0605 76.8672L81.5371 77.3945C82.1113 77.5938 82.5391 77.8809 82.8203 78.2559C83.1016 78.6309 83.2422 79.0703 83.2422 79.5742C83.2422 80.0664 83.1016 80.5176 82.8203 80.9277C82.5508 81.3379 82.1699 81.666 81.6777 81.9121C81.1973 82.1465 80.6406 82.2637 80.0078 82.2637C79.668 82.2637 79.3105 82.2168 78.9355 82.123C78.5723 82.041 78.2441 81.9414 77.9512 81.8242C77.6582 81.6953 77.4414 81.584 77.3008 81.4902V79.9434C77.4648 80.0605 77.6934 80.1953 77.9863 80.3477C78.291 80.4883 78.6133 80.6113 78.9531 80.7168C79.293 80.8105 79.6094 80.8574 79.9023 80.8574C80.4531 80.8574 80.8867 80.7344 81.2031 80.4883C81.5312 80.2422 81.6953 79.9375 81.6953 79.5742C81.6953 79.293 81.584 79.0703 81.3613 78.9062C81.1504 78.7422 80.8398 78.584 80.4297 78.4316L79.1289 77.957C78.4492 77.6992 77.998 77.377 77.7754 76.9902C77.5527 76.5918 77.4414 76.1406 77.4414 75.6367C77.4414 74.8867 77.7227 74.2656 78.2852 73.7734C78.8477 73.2812 79.5977 73.0352 80.5352 73.0352ZM92.7344 70.2227V80.5059H99.2207V82H91.1523V70.2227H92.7344ZM105.18 70.0469C105.871 70.0469 106.439 70.1465 106.885 70.3457C107.342 70.5449 107.74 70.7559 108.08 70.9785V72.6133C107.752 72.3672 107.354 72.1387 106.885 71.9277C106.416 71.7051 105.906 71.5938 105.355 71.5938C105.004 71.5938 104.635 71.6582 104.248 71.7871C103.873 71.9043 103.557 72.0977 103.299 72.3672C103.041 72.6367 102.912 72.9824 102.912 73.4043C102.912 73.873 103.082 74.2305 103.422 74.4766C103.762 74.7227 104.172 74.957 104.652 75.1797L106.27 75.918C107.078 76.2812 107.688 76.6855 108.098 77.1309C108.508 77.5762 108.713 78.168 108.713 78.9062C108.713 79.5508 108.525 80.1191 108.15 80.6113C107.775 81.0918 107.283 81.4727 106.674 81.7539C106.064 82.0352 105.396 82.1758 104.67 82.1758C103.99 82.1758 103.363 82.0586 102.789 81.8242C102.215 81.5898 101.717 81.3262 101.295 81.0332V79.3984C101.752 79.7148 102.273 80.002 102.859 80.2598C103.457 80.5059 104.131 80.6289 104.881 80.6289C105.467 80.6289 105.982 80.4824 106.428 80.1895C106.873 79.8965 107.096 79.4922 107.096 78.9766C107.096 78.6836 107.002 78.4316 106.814 78.2207C106.639 78.0098 106.422 77.8281 106.164 77.6758C105.906 77.5234 105.654 77.3945 105.408 77.2891L103.457 76.4102C102.613 76.0352 102.039 75.5957 101.734 75.0918C101.43 74.5879 101.277 74.0078 101.277 73.3516C101.277 72.7305 101.453 72.1738 101.805 71.6816C102.168 71.1777 102.648 70.7793 103.246 70.4863C103.844 70.1934 104.488 70.0469 105.18 70.0469ZM116.219 70.2227C116.898 70.2227 117.549 70.3809 118.17 70.6973C118.791 71.002 119.301 71.4473 119.699 72.0332C120.109 72.6074 120.314 73.2988 120.314 74.1074C120.314 74.7988 120.121 75.4375 119.734 76.0234C119.348 76.6094 118.82 77.084 118.152 77.4473C117.496 77.7988 116.764 77.9746 115.955 77.9746C115.357 77.9746 114.807 77.916 114.303 77.7988C113.811 77.6699 113.412 77.5352 113.107 77.3945V82H111.525V70.2227H116.219ZM113.107 71.7168V75.9531C113.424 76.082 113.834 76.2051 114.338 76.3223C114.854 76.4277 115.375 76.4805 115.902 76.4805C116.793 76.4805 117.479 76.252 117.959 75.7949C118.451 75.3262 118.697 74.7637 118.697 74.1074C118.697 73.6035 118.557 73.1758 118.275 72.8242C118.006 72.4727 117.648 72.2031 117.203 72.0156C116.758 71.8164 116.283 71.7168 115.779 71.7168H113.107ZM127.645 70.2227C128.324 70.2227 128.975 70.3516 129.596 70.6094C130.217 70.8555 130.727 71.2422 131.125 71.7695C131.535 72.2852 131.74 72.9473 131.74 73.7559C131.74 74.4824 131.529 75.0977 131.107 75.6016C130.697 76.1055 130.17 76.4863 129.525 76.7441C128.893 76.9902 128.236 77.1133 127.557 77.1133C127.346 77.1133 127.064 77.1016 126.713 77.0781L132.197 82H129.771L124.709 77.0781V82H123.127V70.2227H127.645ZM124.709 71.7168V75.4961C125.096 75.6016 125.518 75.6836 125.975 75.7422C126.432 75.8008 126.883 75.8301 127.328 75.8301C128.219 75.8301 128.904 75.6426 129.385 75.2676C129.877 74.8926 130.123 74.3887 130.123 73.7559C130.123 73.0996 129.854 72.5957 129.314 72.2441C128.787 71.8926 128.143 71.7168 127.381 71.7168H124.709ZM149.406 70.2227V82H148.809L141.162 73.5801V82H139.58V70.2227H140.178L147.824 78.748V70.2227H149.406ZM154.24 68.9922C154.58 68.9922 154.861 69.1152 155.084 69.3613C155.318 69.5957 155.436 69.8711 155.436 70.1875C155.436 70.4922 155.318 70.7676 155.084 71.0137C154.861 71.2598 154.58 71.3828 154.24 71.3828C153.9 71.3828 153.613 71.2598 153.379 71.0137C153.156 70.7676 153.045 70.4922 153.045 70.1875C153.045 69.8711 153.156 69.5957 153.379 69.3613C153.613 69.1152 153.9 68.9922 154.24 68.9922ZM155.137 73.2109V82H153.695V74.5645H152.307V73.2109H155.137ZM161.869 73.0352C162.373 73.0352 162.883 73.1582 163.398 73.4043C163.926 73.6387 164.377 73.9668 164.752 74.3887V73.2109H166.193V81.8242C166.193 82.8672 165.982 83.7344 165.561 84.4258C165.139 85.1172 164.576 85.6328 163.873 85.9727C163.17 86.3125 162.402 86.4824 161.57 86.4824C161.031 86.4824 160.568 86.418 160.182 86.2891C159.807 86.1719 159.484 86.0195 159.215 85.832C158.945 85.6562 158.699 85.4863 158.477 85.3223V83.7754C158.652 83.9043 158.881 84.0684 159.162 84.2676C159.455 84.4785 159.801 84.666 160.199 84.8301C160.609 84.9941 161.066 85.0762 161.57 85.0762C162.145 85.0762 162.672 84.9707 163.152 84.7598C163.633 84.5488 164.02 84.2383 164.312 83.8281C164.605 83.418 164.752 82.9258 164.752 82.3516V80.5059C164.447 80.9746 164.031 81.3848 163.504 81.7363C162.988 82.0879 162.396 82.2637 161.729 82.2637C160.979 82.2637 160.293 82.0762 159.672 81.7012C159.051 81.3145 158.553 80.7812 158.178 80.1016C157.814 79.4219 157.633 78.6367 157.633 77.7461C157.633 76.7734 157.814 75.9355 158.178 75.2324C158.553 74.5293 159.062 73.9902 159.707 73.6152C160.352 73.2285 161.072 73.0352 161.869 73.0352ZM162.133 74.459C161.5 74.459 160.961 74.6172 160.516 74.9336C160.07 75.2383 159.725 75.6426 159.479 76.1465C159.244 76.6387 159.127 77.1719 159.127 77.7461C159.127 78.3086 159.244 78.8242 159.479 79.293C159.713 79.7617 160.041 80.1367 160.463 80.418C160.896 80.6992 161.395 80.8398 161.957 80.8398C162.496 80.8398 162.977 80.6992 163.398 80.418C163.82 80.1367 164.154 79.75 164.4 79.2578C164.646 78.7656 164.764 78.209 164.752 77.5879L164.734 75.9004C164.371 75.4434 163.979 75.0918 163.557 74.8457C163.146 74.5879 162.672 74.459 162.133 74.459ZM172.803 73.0352C173.705 73.0352 174.455 73.2227 175.053 73.5977C175.65 73.9727 176.096 74.4824 176.389 75.127C176.693 75.7715 176.846 76.498 176.846 77.3066V78.168H170.096C170.166 78.6602 170.336 79.1113 170.605 79.5215C170.875 79.9316 171.227 80.2598 171.66 80.5059C172.094 80.7402 172.592 80.8574 173.154 80.8574C173.787 80.8574 174.379 80.6992 174.93 80.3828C175.48 80.0547 175.943 79.6973 176.318 79.3105L176.301 80.875C176.137 81.0742 175.891 81.2852 175.562 81.5078C175.246 81.7188 174.877 81.8945 174.455 82.0352C174.045 82.1875 173.611 82.2637 173.154 82.2637C172.264 82.2637 171.473 82.0527 170.781 81.6309C170.09 81.209 169.545 80.6523 169.146 79.9609C168.76 79.2578 168.566 78.4902 168.566 77.6582C168.566 76.8262 168.748 76.0586 169.111 75.3555C169.475 74.6523 169.973 74.0898 170.605 73.668C171.25 73.2461 171.982 73.0352 172.803 73.0352ZM172.803 74.4414C172.076 74.4414 171.479 74.6875 171.01 75.1797C170.541 75.6602 170.248 76.2461 170.131 76.9375H175.422C175.363 76.3633 175.199 75.8945 174.93 75.5312C174.672 75.168 174.355 74.8984 173.98 74.7227C173.605 74.5352 173.213 74.4414 172.803 74.4414ZM180.66 73.2109V74.9688C181 74.3828 181.41 73.9141 181.891 73.5625C182.371 73.2109 182.863 73.0352 183.367 73.0352C183.707 73.0352 184.012 73.0938 184.281 73.2109V74.8809C183.906 74.6582 183.531 74.5469 183.156 74.5469C182.559 74.5469 182.072 74.7578 181.697 75.1797C181.334 75.6016 180.988 76.1055 180.66 76.6914V82H179.219V73.2109H180.66ZM187.533 68.9922C187.873 68.9922 188.154 69.1152 188.377 69.3613C188.611 69.5957 188.729 69.8711 188.729 70.1875C188.729 70.4922 188.611 70.7676 188.377 71.0137C188.154 71.2598 187.873 71.3828 187.533 71.3828C187.193 71.3828 186.906 71.2598 186.672 71.0137C186.449 70.7676 186.338 70.4922 186.338 70.1875C186.338 69.8711 186.449 69.5957 186.672 69.3613C186.906 69.1152 187.193 68.9922 187.533 68.9922ZM188.43 73.2109V82H186.988V74.5645H185.6V73.2109H188.43ZM195.162 73.0352C195.666 73.0352 196.176 73.1582 196.691 73.4043C197.219 73.6387 197.67 73.9668 198.045 74.3887V73.2109H199.486V82H198.045V80.5059C197.74 80.9746 197.324 81.3848 196.797 81.7363C196.281 82.0879 195.689 82.2637 195.021 82.2637C194.271 82.2637 193.586 82.0762 192.965 81.7012C192.344 81.3145 191.846 80.7812 191.471 80.1016C191.107 79.4219 190.926 78.6367 190.926 77.7461C190.926 76.7734 191.107 75.9355 191.471 75.2324C191.846 74.5293 192.355 73.9902 193 73.6152C193.645 73.2285 194.365 73.0352 195.162 73.0352ZM195.426 74.4414C194.793 74.4414 194.254 74.5996 193.809 74.916C193.363 75.2324 193.018 75.6426 192.771 76.1465C192.537 76.6387 192.42 77.1719 192.42 77.7461C192.42 78.3086 192.537 78.8301 192.771 79.3105C193.006 79.7793 193.334 80.1543 193.756 80.4355C194.189 80.7168 194.688 80.8574 195.25 80.8574C195.789 80.8574 196.27 80.7168 196.691 80.4355C197.113 80.1543 197.447 79.7676 197.693 79.2754C197.939 78.7715 198.057 78.209 198.045 77.5879L198.027 75.9004C197.664 75.4434 197.271 75.0859 196.85 74.8281C196.439 74.5703 195.965 74.4414 195.426 74.4414ZM211.369 73.0352C211.873 73.0352 212.383 73.1582 212.898 73.4043C213.426 73.6387 213.877 73.9668 214.252 74.3887V73.2109H215.693V82H214.252V80.5059C213.947 80.9746 213.531 81.3848 213.004 81.7363C212.488 82.0879 211.896 82.2637 211.229 82.2637C210.479 82.2637 209.793 82.0762 209.172 81.7012C208.551 81.3145 208.053 80.7812 207.678 80.1016C207.314 79.4219 207.133 78.6367 207.133 77.7461C207.133 76.7734 207.314 75.9355 207.678 75.2324C208.053 74.5293 208.562 73.9902 209.207 73.6152C209.852 73.2285 210.572 73.0352 211.369 73.0352ZM211.633 74.4414C211 74.4414 210.461 74.5996 210.016 74.916C209.57 75.2324 209.225 75.6426 208.979 76.1465C208.744 76.6387 208.627 77.1719 208.627 77.7461C208.627 78.3086 208.744 78.8301 208.979 79.3105C209.213 79.7793 209.541 80.1543 209.963 80.4355C210.396 80.7168 210.895 80.8574 211.457 80.8574C211.996 80.8574 212.477 80.7168 212.898 80.4355C213.32 80.1543 213.654 79.7676 213.9 79.2754C214.146 78.7715 214.264 78.209 214.252 77.5879L214.234 75.9004C213.871 75.4434 213.479 75.0859 213.057 74.8281C212.646 74.5703 212.172 74.4414 211.633 74.4414ZM228.508 73.2109V74.5645H225.941V82H224.5V74.5645H223.111V73.2109H224.5V72.0859C224.5 71.3945 224.635 70.832 224.904 70.3984C225.174 69.9531 225.52 69.625 225.941 69.4141C226.363 69.1914 226.791 69.0801 227.225 69.0801C227.822 69.0801 228.309 69.2383 228.684 69.5547V70.8203C228.508 70.7031 228.297 70.6094 228.051 70.5391C227.805 70.4688 227.559 70.4395 227.312 70.4512C226.879 70.4629 226.539 70.6035 226.293 70.873C226.059 71.1309 225.941 71.5879 225.941 72.2441V73.2109H228.508ZM231.865 73.2109V74.9688C232.205 74.3828 232.615 73.9141 233.096 73.5625C233.576 73.2109 234.068 73.0352 234.572 73.0352C234.912 73.0352 235.217 73.0938 235.486 73.2109V74.8809C235.111 74.6582 234.736 74.5469 234.361 74.5469C233.764 74.5469 233.277 74.7578 232.902 75.1797C232.539 75.6016 232.193 76.1055 231.865 76.6914V82H230.424V73.2109H231.865ZM240.953 73.0352C241.457 73.0352 241.967 73.1582 242.482 73.4043C243.01 73.6387 243.461 73.9668 243.836 74.3887V73.2109H245.277V82H243.836V80.5059C243.531 80.9746 243.115 81.3848 242.588 81.7363C242.072 82.0879 241.48 82.2637 240.812 82.2637C240.062 82.2637 239.377 82.0762 238.756 81.7012C238.135 81.3145 237.637 80.7812 237.262 80.1016C236.898 79.4219 236.717 78.6367 236.717 77.7461C236.717 76.7734 236.898 75.9355 237.262 75.2324C237.637 74.5293 238.146 73.9902 238.791 73.6152C239.436 73.2285 240.156 73.0352 240.953 73.0352ZM241.217 74.4414C240.584 74.4414 240.045 74.5996 239.6 74.916C239.154 75.2324 238.809 75.6426 238.562 76.1465C238.328 76.6387 238.211 77.1719 238.211 77.7461C238.211 78.3086 238.328 78.8301 238.562 79.3105C238.797 79.7793 239.125 80.1543 239.547 80.4355C239.98 80.7168 240.479 80.8574 241.041 80.8574C241.58 80.8574 242.061 80.7168 242.482 80.4355C242.904 80.1543 243.238 79.7676 243.484 79.2754C243.73 78.7715 243.848 78.209 243.836 77.5879L243.818 75.9004C243.455 75.4434 243.062 75.0859 242.641 74.8281C242.23 74.5703 241.756 74.4414 241.217 74.4414ZM249.707 73.2109V74.5996C249.895 74.3652 250.135 74.1309 250.428 73.8965C250.721 73.6504 251.049 73.4453 251.412 73.2812C251.787 73.1172 252.174 73.0352 252.572 73.0352C253.17 73.0352 253.715 73.1699 254.207 73.4395C254.699 73.6973 255.092 74.0957 255.385 74.6348C255.678 75.1621 255.824 75.8301 255.824 76.6387V82H254.383L254.365 76.7793C254.365 76.0176 254.195 75.4375 253.855 75.0391C253.527 74.6406 253.018 74.4414 252.326 74.4414C251.857 74.4414 251.389 74.6172 250.92 74.9688C250.463 75.3086 250.059 75.707 249.707 76.1641V82H248.266V73.2109H249.707ZM262.521 73.0352C263.166 73.0352 263.723 73.1406 264.191 73.3516C264.66 73.5508 264.982 73.7324 265.158 73.8965V75.3555C264.83 75.1094 264.455 74.8984 264.033 74.7227C263.611 74.5352 263.107 74.4414 262.521 74.4414C261.9 74.4414 261.355 74.5938 260.887 74.8984C260.418 75.1914 260.055 75.584 259.797 76.0762C259.551 76.5566 259.428 77.084 259.428 77.6582C259.428 78.2207 259.551 78.748 259.797 79.2402C260.055 79.7207 260.418 80.1133 260.887 80.418C261.355 80.7109 261.9 80.8574 262.521 80.8574C263.107 80.8574 263.611 80.7695 264.033 80.5938C264.455 80.4062 264.83 80.1895 265.158 79.9434V81.4023C264.982 81.5781 264.66 81.7656 264.191 81.9648C263.723 82.1641 263.166 82.2637 262.521 82.2637C261.631 82.2637 260.84 82.0527 260.148 81.6309C259.457 81.209 258.912 80.6523 258.514 79.9609C258.127 79.2578 257.934 78.4902 257.934 77.6582C257.934 76.8262 258.127 76.0586 258.514 75.3555C258.912 74.6523 259.457 74.0898 260.148 73.668C260.84 73.2461 261.631 73.0352 262.521 73.0352ZM271.838 73.0352C272.436 73.0352 272.98 73.1699 273.473 73.4395C273.965 73.6973 274.357 74.0957 274.65 74.6348C274.943 75.1621 275.09 75.8301 275.09 76.6387V82H273.648L273.631 76.7793C273.631 76.0176 273.461 75.4375 273.121 75.0391C272.793 74.6406 272.283 74.4414 271.592 74.4414C271.123 74.4414 270.654 74.6172 270.186 74.9688C269.729 75.3086 269.324 75.707 268.973 76.1641V82H267.531V69.3438H268.973V74.5996C269.16 74.3652 269.4 74.1309 269.693 73.8965C269.986 73.6504 270.314 73.4453 270.678 73.2812C271.053 73.1172 271.439 73.0352 271.838 73.0352ZM279.221 68.9922C279.561 68.9922 279.842 69.1152 280.064 69.3613C280.299 69.5957 280.416 69.8711 280.416 70.1875C280.416 70.4922 280.299 70.7676 280.064 71.0137C279.842 71.2598 279.561 71.3828 279.221 71.3828C278.881 71.3828 278.594 71.2598 278.359 71.0137C278.137 70.7676 278.025 70.4922 278.025 70.1875C278.025 69.8711 278.137 69.5957 278.359 69.3613C278.594 69.1152 278.881 68.9922 279.221 68.9922ZM280.117 73.2109V82H278.676V74.5645H277.287V73.2109H280.117ZM285.848 73.0352C286.363 73.0352 286.844 73.1113 287.289 73.2637C287.734 73.4043 288.057 73.5508 288.256 73.7031V75.25C288.01 75.0625 287.676 74.8809 287.254 74.7051C286.832 74.5293 286.398 74.4414 285.953 74.4414C285.402 74.4414 284.986 74.5703 284.705 74.8281C284.436 75.0859 284.301 75.3555 284.301 75.6367C284.301 75.8594 284.377 76.0879 284.529 76.3223C284.693 76.5449 284.975 76.7266 285.373 76.8672L286.85 77.3945C287.424 77.5938 287.852 77.8809 288.133 78.2559C288.414 78.6309 288.555 79.0703 288.555 79.5742C288.555 80.0664 288.414 80.5176 288.133 80.9277C287.863 81.3379 287.482 81.666 286.99 81.9121C286.51 82.1465 285.953 82.2637 285.32 82.2637C284.98 82.2637 284.623 82.2168 284.248 82.123C283.885 82.041 283.557 81.9414 283.264 81.8242C282.971 81.6953 282.754 81.584 282.613 81.4902V79.9434C282.777 80.0605 283.006 80.1953 283.299 80.3477C283.604 80.4883 283.926 80.6113 284.266 80.7168C284.605 80.8105 284.922 80.8574 285.215 80.8574C285.766 80.8574 286.199 80.7344 286.516 80.4883C286.844 80.2422 287.008 79.9375 287.008 79.5742C287.008 79.293 286.896 79.0703 286.674 78.9062C286.463 78.7422 286.152 78.584 285.742 78.4316L284.441 77.957C283.762 77.6992 283.311 77.377 283.088 76.9902C282.865 76.5918 282.754 76.1406 282.754 75.6367C282.754 74.8867 283.035 74.2656 283.598 73.7734C284.16 73.2812 284.91 73.0352 285.848 73.0352ZM294.373 73.0352C295.275 73.0352 296.025 73.2227 296.623 73.5977C297.221 73.9727 297.666 74.4824 297.959 75.127C298.264 75.7715 298.416 76.498 298.416 77.3066V78.168H291.666C291.736 78.6602 291.906 79.1113 292.176 79.5215C292.445 79.9316 292.797 80.2598 293.23 80.5059C293.664 80.7402 294.162 80.8574 294.725 80.8574C295.357 80.8574 295.949 80.6992 296.5 80.3828C297.051 80.0547 297.514 79.6973 297.889 79.3105L297.871 80.875C297.707 81.0742 297.461 81.2852 297.133 81.5078C296.816 81.7188 296.447 81.8945 296.025 82.0352C295.615 82.1875 295.182 82.2637 294.725 82.2637C293.834 82.2637 293.043 82.0527 292.352 81.6309C291.66 81.209 291.115 80.6523 290.717 79.9609C290.33 79.2578 290.137 78.4902 290.137 77.6582C290.137 76.8262 290.318 76.0586 290.682 75.3555C291.045 74.6523 291.543 74.0898 292.176 73.668C292.82 73.2461 293.553 73.0352 294.373 73.0352ZM294.373 74.4414C293.646 74.4414 293.049 74.6875 292.58 75.1797C292.111 75.6602 291.818 76.2461 291.701 76.9375H296.992C296.934 76.3633 296.77 75.8945 296.5 75.5312C296.242 75.168 295.926 74.8984 295.551 74.7227C295.176 74.5352 294.783 74.4414 294.373 74.4414ZM310.035 73.0352C310.926 73.0352 311.717 73.2461 312.408 73.668C313.1 74.0898 313.639 74.6523 314.025 75.3555C314.424 76.0586 314.623 76.8262 314.623 77.6582C314.623 78.4902 314.424 79.2578 314.025 79.9609C313.639 80.6523 313.1 81.209 312.408 81.6309C311.717 82.0527 310.926 82.2637 310.035 82.2637C309.145 82.2637 308.354 82.0527 307.662 81.6309C306.971 81.209 306.426 80.6523 306.027 79.9609C305.641 79.2578 305.447 78.4902 305.447 77.6582C305.447 76.8262 305.641 76.0586 306.027 75.3555C306.426 74.6523 306.971 74.0898 307.662 73.668C308.354 73.2461 309.145 73.0352 310.035 73.0352ZM310.035 74.4414C309.414 74.4414 308.869 74.5938 308.4 74.8984C307.932 75.1914 307.568 75.584 307.311 76.0762C307.064 76.5566 306.941 77.084 306.941 77.6582C306.941 78.2207 307.064 78.748 307.311 79.2402C307.568 79.7207 307.932 80.1133 308.4 80.418C308.869 80.7109 309.414 80.8574 310.035 80.8574C310.668 80.8574 311.213 80.7109 311.67 80.418C312.139 80.1133 312.496 79.7207 312.742 79.2402C313 78.748 313.129 78.2207 313.129 77.6582C313.129 77.084 313 76.5566 312.742 76.0762C312.496 75.584 312.139 75.1914 311.67 74.8984C311.213 74.5938 310.668 74.4414 310.035 74.4414ZM321.549 73.2109V74.5645H318.982V82H317.541V74.5645H316.152V73.2109H317.541V72.0859C317.541 71.3945 317.676 70.832 317.945 70.3984C318.215 69.9531 318.561 69.625 318.982 69.4141C319.404 69.1914 319.832 69.0801 320.266 69.0801C320.863 69.0801 321.35 69.2383 321.725 69.5547V70.8203C321.549 70.7031 321.338 70.6094 321.092 70.5391C320.846 70.4688 320.6 70.4395 320.354 70.4512C319.92 70.4629 319.58 70.6035 319.334 70.873C319.1 71.1309 318.982 71.5879 318.982 72.2441V73.2109H321.549ZM330.76 70.2227V80.5059H337.246V82H329.178V70.2227H330.76ZM343.205 70.0469C343.896 70.0469 344.465 70.1465 344.91 70.3457C345.367 70.5449 345.766 70.7559 346.105 70.9785V72.6133C345.777 72.3672 345.379 72.1387 344.91 71.9277C344.441 71.7051 343.932 71.5938 343.381 71.5938C343.029 71.5938 342.66 71.6582 342.273 71.7871C341.898 71.9043 341.582 72.0977 341.324 72.3672C341.066 72.6367 340.938 72.9824 340.938 73.4043C340.938 73.873 341.107 74.2305 341.447 74.4766C341.787 74.7227 342.197 74.957 342.678 75.1797L344.295 75.918C345.104 76.2812 345.713 76.6855 346.123 77.1309C346.533 77.5762 346.738 78.168 346.738 78.9062C346.738 79.5508 346.551 80.1191 346.176 80.6113C345.801 81.0918 345.309 81.4727 344.699 81.7539C344.09 82.0352 343.422 82.1758 342.695 82.1758C342.016 82.1758 341.389 82.0586 340.814 81.8242C340.24 81.5898 339.742 81.3262 339.32 81.0332V79.3984C339.777 79.7148 340.299 80.002 340.885 80.2598C341.482 80.5059 342.156 80.6289 342.906 80.6289C343.492 80.6289 344.008 80.4824 344.453 80.1895C344.898 79.8965 345.121 79.4922 345.121 78.9766C345.121 78.6836 345.027 78.4316 344.84 78.2207C344.664 78.0098 344.447 77.8281 344.189 77.6758C343.932 77.5234 343.68 77.3945 343.434 77.2891L341.482 76.4102C340.639 76.0352 340.064 75.5957 339.76 75.0918C339.455 74.5879 339.303 74.0078 339.303 73.3516C339.303 72.7305 339.479 72.1738 339.83 71.6816C340.193 71.1777 340.674 70.7793 341.271 70.4863C341.869 70.1934 342.514 70.0469 343.205 70.0469ZM354.244 70.2227C354.924 70.2227 355.574 70.3809 356.195 70.6973C356.816 71.002 357.326 71.4473 357.725 72.0332C358.135 72.6074 358.34 73.2988 358.34 74.1074C358.34 74.7988 358.146 75.4375 357.76 76.0234C357.373 76.6094 356.846 77.084 356.178 77.4473C355.521 77.7988 354.789 77.9746 353.98 77.9746C353.383 77.9746 352.832 77.916 352.328 77.7988C351.836 77.6699 351.438 77.5352 351.133 77.3945V82H349.551V70.2227H354.244ZM351.133 71.7168V75.9531C351.449 76.082 351.859 76.2051 352.363 76.3223C352.879 76.4277 353.4 76.4805 353.928 76.4805C354.818 76.4805 355.504 76.252 355.984 75.7949C356.477 75.3262 356.723 74.7637 356.723 74.1074C356.723 73.6035 356.582 73.1758 356.301 72.8242C356.031 72.4727 355.674 72.2031 355.229 72.0156C354.783 71.8164 354.309 71.7168 353.805 71.7168H351.133ZM365.67 70.2227C366.35 70.2227 367 70.3516 367.621 70.6094C368.242 70.8555 368.752 71.2422 369.15 71.7695C369.561 72.2852 369.766 72.9473 369.766 73.7559C369.766 74.4824 369.555 75.0977 369.133 75.6016C368.723 76.1055 368.195 76.4863 367.551 76.7441C366.918 76.9902 366.262 77.1133 365.582 77.1133C365.371 77.1133 365.09 77.1016 364.738 77.0781L370.223 82H367.797L362.734 77.0781V82H361.152V70.2227H365.67ZM362.734 71.7168V75.4961C363.121 75.6016 363.543 75.6836 364 75.7422C364.457 75.8008 364.908 75.8301 365.354 75.8301C366.244 75.8301 366.93 75.6426 367.41 75.2676C367.902 74.8926 368.148 74.3887 368.148 73.7559C368.148 73.0996 367.879 72.5957 367.34 72.2441C366.812 71.8926 366.168 71.7168 365.406 71.7168H362.734ZM375.057 69.959C375.76 69.959 376.398 70.1055 376.973 70.3984C377.547 70.6914 377.998 71.0957 378.326 71.6113C378.666 72.127 378.836 72.7188 378.836 73.3867C378.836 73.8203 378.725 74.2129 378.502 74.5645C378.291 74.9043 378.021 75.2148 377.693 75.4961C377.377 75.7773 377.061 76.041 376.744 76.2871C376.428 76.5332 376.164 76.7793 375.953 77.0254C375.742 77.2715 375.643 77.5293 375.654 77.7988L375.672 78.168H373.967V77.4648C373.967 77.207 374.066 76.9609 374.266 76.7266C374.477 76.4805 374.734 76.2402 375.039 76.0059C375.344 75.7598 375.648 75.5137 375.953 75.2676C376.27 75.0098 376.527 74.7461 376.727 74.4766C376.938 74.207 377.043 73.9199 377.043 73.6152C377.043 73.041 376.855 72.5664 376.48 72.1914C376.117 71.8164 375.584 71.6289 374.881 71.6289C374.178 71.6289 373.592 71.7695 373.123 72.0508C372.666 72.3203 372.227 72.7246 371.805 73.2637V71.3477C372.121 70.9609 372.572 70.6328 373.158 70.3633C373.744 70.0938 374.377 69.959 375.057 69.959ZM374.898 79.8555C375.238 79.8555 375.525 79.9785 375.76 80.2246C376.006 80.459 376.129 80.7461 376.129 81.0859C376.129 81.4141 376.006 81.7012 375.76 81.9473C375.525 82.1934 375.238 82.3164 374.898 82.3164C374.559 82.3164 374.266 82.1934 374.02 81.9473C373.785 81.7012 373.668 81.4141 373.668 81.0859C373.668 80.7461 373.785 80.459 374.02 80.2246C374.266 79.9785 374.559 79.8555 374.898 79.8555Z" fill="#1F365D"/>
<path d="M799.668 74.6667V66.6667H802.335V74.6667H810.335V77.3334H802.335V85.3334H799.668V77.3334H791.668V74.6667H799.668Z" fill="#1F365D"/>
</g>
<defs>
<filter id="filter0_d_610_6704" x="0" y="0" width="884" height="160" filterUnits="userSpaceOnUse" color-interpolation-filters="sRGB">
<feFlood flood-opacity="0" result="BackgroundImageFix"/>
<feColorMatrix in="SourceAlpha" type="matrix" values="0 0 0 0 0 0 0 0 0 0 0 0 0 0 0 0 0 0 127 0" result="hardAlpha"/>
<feOffset dy="4"/>
<feGaussianBlur stdDeviation="17.5"/>
<feComposite in2="hardAlpha" operator="out"/>
<feColorMatrix type="matrix" values="0 0 0 0 0.920833 0 0 0 0 0.916997 0 0 0 0 0.916997 0 0 0 0.25 0"/>
<feBlend mode="normal" in2="BackgroundImageFix" result="effect1_dropShadow_610_6704"/>
<feBlend mode="normal" in="SourceGraphic" in2="effect1_dropShadow_610_6704" result="shape"/>
</filter>
</defs>
</svg>
