<svg width="19" height="19" viewBox="0 0 19 19" fill="none" xmlns="http://www.w3.org/2000/svg">
<path fill-rule="evenodd" clip-rule="evenodd" d="M12.5636 2.11523H5.89569C3.57204 2.11523 2.11523 3.76048 2.11523 6.08875V12.3713C2.11523 14.6996 3.56434 16.3448 5.89569 16.3448H12.5628C14.8942 16.3448 16.3448 14.6996 16.3448 12.3713V6.08875C16.3448 3.76048 14.8942 2.11523 12.5636 2.11523Z" stroke="#45B5E3" stroke-width="1.5" stroke-linecap="round" stroke-linejoin="round"/>
<path d="M5.78474 10.1507C5.27632 10.1507 4.86328 9.7377 4.86328 9.23006C4.86328 8.72241 5.27632 8.30859 5.78474 8.30859C6.29316 8.30859 6.7062 8.72241 6.7062 9.23006C6.7062 9.7377 6.29316 10.1507 5.78474 10.1507Z" fill="#45B5E3"/>
<path d="M9.23006 10.1507C8.72164 10.1507 8.30859 9.7377 8.30859 9.23006C8.30859 8.72241 8.72164 8.30859 9.23006 8.30859C9.73847 8.30859 10.1515 8.72241 10.1515 9.23006C10.1515 9.7377 9.73847 10.1507 9.23006 10.1507Z" fill="#45B5E3"/>
<path d="M12.6754 10.1507C12.1669 10.1507 11.7539 9.7377 11.7539 9.23006C11.7539 8.72241 12.1669 8.30859 12.6754 8.30859C13.1838 8.30859 13.5968 8.72241 13.5968 9.23006C13.5968 9.7377 13.1838 10.1507 12.6754 10.1507Z" fill="#45B5E3"/>
</svg>
