<svg width="22" height="22" viewBox="0 0 22 22" fill="none" xmlns="http://www.w3.org/2000/svg">
<path d="M10.3128 14.9138C10.3128 14.5343 10.6208 14.2208 11.0003 14.2208C11.3798 14.2208 11.6878 14.5242 11.6878 14.9037V14.9138C11.6878 15.2933 11.3798 15.6013 11.0003 15.6013C10.6208 15.6013 10.3128 15.2933 10.3128 14.9138Z" fill="#01814E"/>
<path d="M4.39609 18.7164H17.6713C18.7227 18.6614 19.5312 17.7658 19.4771 16.7144C19.4652 16.5017 19.4193 16.2918 19.3387 16.0957L12.6681 4.42099C12.1584 3.49974 10.9988 3.16608 10.0776 3.67666C9.76409 3.84899 9.50559 4.10749 9.33234 4.42099L2.66175 16.0957C2.26575 17.071 2.73508 18.182 3.7095 18.5789C3.9075 18.6587 4.1165 18.7045 4.32917 18.7164" stroke="#01814E" stroke-width="1.5" stroke-linecap="round" stroke-linejoin="round"/>
<path d="M10.9907 12.2798V9.4381" stroke="#01814E" stroke-width="1.5" stroke-linecap="round" stroke-linejoin="round"/>
</svg>
