<svg width="1440" height="330" viewBox="0 0 1440 330" fill="none" xmlns="http://www.w3.org/2000/svg">
<mask id="mask0_2365_30130" style="mask-type:alpha" maskUnits="userSpaceOnUse" x="0" y="0" width="1440" height="330">
<rect width="1440" height="330" fill="#F5FCFF"/>
</mask>
<g mask="url(#mask0_2365_30130)">
<path d="M286.063 -323.638L286.668 -295.685C291.348 -79.5663 594.029 32.1917 884.371 -74.9971L923.171 -89.3216C1195.86 -189.992 1479.71 -83.9893 1481.81 119.298L1482.38 174.227C1483.94 324.618 1672.38 415.935 1883.63 368.668V368.668" stroke="#1F365D" stroke-opacity="0.15" stroke-width="0.653416"/>
<path d="M272.114 -307.986L272.719 -280.033C277.399 -63.914 580.08 47.8441 870.421 -59.3447L909.222 -73.6692C1181.91 -174.34 1465.76 -68.337 1467.87 134.95L1468.43 189.88C1469.99 340.27 1658.43 431.587 1869.68 384.32V384.32" stroke="#1F365D" stroke-opacity="0.15" stroke-width="0.653416"/>
<path d="M258.168 -292.333L258.773 -264.38C263.452 -48.2617 566.133 63.4964 856.475 -43.6924L895.276 -58.0169C1167.96 -158.687 1451.82 -52.6846 1453.92 150.602L1454.49 205.532C1456.04 355.922 1644.48 447.239 1855.73 399.972V399.972" stroke="#1F365D" stroke-opacity="0.15" stroke-width="0.653416"/>
<path d="M244.218 -276.685L244.824 -248.732C249.503 -32.6132 552.184 79.1449 842.526 -28.044L881.327 -42.3685C1154.01 -143.039 1437.87 -37.0362 1439.97 166.251L1440.54 221.18C1442.09 371.571 1630.53 462.888 1841.78 415.621V415.621" stroke="#1F365D" stroke-opacity="0.15" stroke-width="0.653416"/>
<path d="M230.272 -261.032L230.877 -233.08C235.557 -16.9609 538.238 94.7972 828.58 -12.3916L867.38 -26.7161C1140.07 -127.387 1423.92 -21.3838 1426.02 181.903L1426.59 236.833C1428.15 387.223 1616.59 478.54 1827.84 431.273V431.273" stroke="#1F365D" stroke-opacity="0.15" stroke-width="0.653416"/>
<path d="M216.321 -245.38L216.926 -217.427C221.606 -1.30853 524.287 110.45 814.628 3.26073L853.429 -11.0638C1126.11 -111.734 1409.97 -5.73149 1412.07 197.555L1412.64 252.485C1414.2 402.876 1602.64 494.192 1813.88 446.925V446.925" stroke="#1F365D" stroke-opacity="0.15" stroke-width="0.653416"/>
<path d="M202.377 -229.728L202.982 -201.775C207.661 14.3438 510.342 126.102 800.684 18.9131L839.485 4.58858C1112.17 -96.0818 1396.03 9.92086 1398.13 213.208L1398.7 268.138C1400.25 418.528 1588.69 509.845 1799.94 462.578V462.578" stroke="#1F365D" stroke-opacity="0.15" stroke-width="0.653416"/>
<path d="M188.429 -214.075L189.035 -186.122C193.714 29.9962 496.395 141.754 786.737 34.5654L825.537 20.2409C1098.22 -80.4295 1382.08 25.5732 1384.18 228.86L1384.75 283.79C1386.3 434.18 1574.74 525.497 1785.99 478.23V478.23" stroke="#1F365D" stroke-opacity="0.15" stroke-width="0.653416"/>
<path d="M174.479 -198.427L175.084 -170.474C179.764 45.6446 482.445 157.403 772.787 50.2139L811.587 35.8894C1084.27 -64.781 1368.13 41.2216 1370.23 244.509L1370.8 299.438C1372.35 449.829 1560.79 541.146 1772.04 493.879V493.879" stroke="#1F365D" stroke-opacity="0.15" stroke-width="0.653416"/>
<path d="M160.534 -182.775L161.139 -154.822C165.818 61.2969 468.499 173.055 758.841 65.8662L797.642 51.5417C1070.33 -49.1287 1354.18 56.874 1356.28 260.161L1356.85 315.091C1358.41 465.481 1546.85 556.798 1758.1 509.531V509.531" stroke="#1F365D" stroke-opacity="0.15" stroke-width="0.653416"/>
<path d="M146.584 -167.122L147.189 -139.169C151.868 76.9493 454.549 188.707 744.891 81.5185L783.692 67.194C1056.38 -33.4764 1340.23 72.5263 1342.33 275.813L1342.9 330.743C1344.46 481.133 1532.9 572.45 1744.15 525.183V525.183" stroke="#1F365D" stroke-opacity="0.15" stroke-width="0.653416"/>
<path d="M132.637 -151.474L133.243 -123.521C137.922 92.5977 440.603 204.356 730.945 97.167L769.745 82.8425C1042.43 -17.8279 1326.29 88.1748 1328.39 291.462L1328.96 346.391C1330.51 496.782 1518.95 588.099 1730.2 540.832V540.832" stroke="#1F365D" stroke-opacity="0.15" stroke-width="0.653416"/>
<path d="M118.69 -135.821L119.295 -107.869C123.975 108.25 426.656 220.008 716.997 112.819L755.798 98.4948C1028.48 -2.17557 1312.34 103.827 1314.44 307.114L1315.01 362.044C1316.56 512.434 1505.01 603.751 1716.25 556.484V556.484" stroke="#1F365D" stroke-opacity="0.15" stroke-width="0.653416"/>
<path d="M104.741 -120.169L105.346 -92.2162C110.025 123.902 412.706 235.66 703.048 128.472L741.849 114.147C1014.53 13.4768 1298.39 119.479 1300.49 322.766L1301.06 377.696C1302.62 528.086 1491.06 619.403 1702.3 572.136V572.136" stroke="#1F365D" stroke-opacity="0.15" stroke-width="0.653416"/>
<path d="M90.7947 -104.517L91.3999 -76.5639C96.0792 139.555 398.76 251.313 689.102 144.124L727.903 129.8C1000.59 29.1291 1284.44 135.132 1286.55 338.419L1287.11 393.348C1288.67 543.739 1477.11 635.056 1688.36 587.789V587.789" stroke="#1F365D" stroke-opacity="0.15" stroke-width="0.653416"/>
<path d="M77.1755 -89.2356L77.7808 -61.2826C82.46 154.836 385.141 266.594 675.483 159.405L714.284 145.081C986.969 44.4104 1270.82 150.413 1272.93 353.7L1273.49 408.63C1275.05 559.02 1463.49 650.337 1674.74 603.07V603.07" stroke="#1F365D" stroke-opacity="0.15" stroke-width="0.653416"/>
<path d="M63.5593 -73.9543L64.1645 -46.0014C68.8438 170.117 371.525 281.875 661.867 174.687L700.667 160.362C973.353 59.6916 1257.21 165.694 1259.31 368.981L1259.88 423.911C1261.43 574.301 1449.87 665.618 1661.12 618.351V618.351" stroke="#1F365D" stroke-opacity="0.15" stroke-width="0.653416"/>
<path d="M49.9402 -58.677L50.5454 -30.724C55.2247 185.395 357.906 297.153 648.247 189.964L687.048 175.639C959.734 74.969 1243.59 180.972 1245.69 384.259L1246.26 439.188C1247.81 589.579 1436.26 680.896 1647.5 633.629V633.629" stroke="#1F365D" stroke-opacity="0.15" stroke-width="0.653416"/>
<path d="M36.323 -43.3957L36.9282 -15.4428C41.6075 200.676 344.289 312.434 634.63 205.245L673.431 190.921C946.116 90.2502 1229.97 196.253 1232.07 399.54L1232.64 454.47C1234.2 604.86 1422.64 696.177 1633.89 648.91V648.91" stroke="#1F365D" stroke-opacity="0.15" stroke-width="0.653416"/>
<path d="M22.7058 -28.1145L23.311 -0.161537C27.9903 215.957 330.671 327.715 621.013 220.526L659.814 206.202C932.499 105.531 1216.35 211.534 1218.46 414.821L1219.02 469.751C1220.58 620.141 1409.02 711.458 1620.27 664.191V664.191" stroke="#1F365D" stroke-opacity="0.15" stroke-width="0.653416"/>
<path d="M9.08764 -12.8332L9.69286 15.1197C14.3721 231.238 317.053 342.996 607.395 235.808L646.196 221.483C918.881 120.813 1202.74 226.815 1204.84 430.102L1205.41 485.032C1206.96 635.422 1395.4 726.739 1606.65 679.472V679.472" stroke="#1F365D" stroke-opacity="0.15" stroke-width="0.653416"/>
<path d="M-4.53053 2.44804L-3.9253 30.401C0.75397 246.52 303.435 358.278 593.777 251.089L632.577 236.764C905.263 136.094 1189.12 242.097 1191.22 445.384L1191.79 500.313C1193.34 650.704 1381.78 742.021 1593.03 694.754V694.754" stroke="#1F365D" stroke-opacity="0.15" stroke-width="0.653416"/>
<path d="M-18.1477 17.7293L-17.5425 45.6822C-12.8632 261.801 289.818 373.559 580.16 266.37L618.96 252.046C891.646 151.375 1175.5 257.378 1177.6 460.665L1178.17 515.595C1179.73 665.985 1368.17 757.302 1579.42 710.035V710.035" stroke="#1F365D" stroke-opacity="0.15" stroke-width="0.653416"/>
<path d="M-31.7649 33.0105L-31.1597 60.9635C-26.4804 277.082 276.201 388.84 566.542 281.651L605.343 267.327C878.029 166.656 1161.88 272.659 1163.99 475.946L1164.55 530.876C1166.11 681.266 1354.55 772.583 1565.8 725.316V725.316" stroke="#1F365D" stroke-opacity="0.15" stroke-width="0.653416"/>
<path d="M-45.3831 48.2918L-44.7778 76.2447C-40.0986 292.363 262.582 404.121 552.924 296.933L591.725 282.608C864.41 181.938 1148.27 287.94 1150.37 491.227L1150.94 546.157C1152.49 696.547 1340.93 787.864 1552.18 740.597V740.597" stroke="#1F365D" stroke-opacity="0.15" stroke-width="0.653416"/>
<path d="M-59.0003 63.573L-58.395 91.526C-53.7158 307.645 248.965 419.403 539.307 312.214L578.108 297.889C850.793 197.219 1134.65 303.222 1136.75 506.509L1137.32 561.438C1138.87 711.829 1327.31 803.146 1538.56 755.879V755.879" stroke="#1F365D" stroke-opacity="0.15" stroke-width="0.653416"/>
<path d="M-72.6184 78.8543L-72.0132 106.807C-67.3339 322.926 235.347 434.684 525.689 327.495L564.49 313.171C837.175 212.5 1121.03 318.503 1123.13 521.79L1123.7 576.72C1125.26 727.11 1313.7 818.427 1524.95 771.16V771.16" stroke="#1F365D" stroke-opacity="0.15" stroke-width="0.653416"/>
<path d="M-86.2356 94.1355L-85.6304 122.088C-80.9511 338.207 221.73 449.965 512.072 342.776L550.872 328.452C823.558 227.781 1107.41 333.784 1109.52 537.071L1110.08 592.001C1111.64 742.391 1300.08 833.708 1511.33 786.441V786.441" stroke="#1F365D" stroke-opacity="0.15" stroke-width="0.653416"/>
<path d="M-99.8528 109.417L-99.2476 137.37C-94.5683 353.488 208.113 465.246 498.455 358.058L537.255 343.733C809.941 243.063 1093.8 349.065 1095.9 552.352L1096.47 607.282C1098.02 757.672 1286.46 848.989 1497.71 801.722V801.722" stroke="#1F365D" stroke-opacity="0.15" stroke-width="0.653416"/>
<path d="M-131.279 109.643L-130.673 137.596C-125.994 353.715 176.687 465.473 467.029 358.284L505.829 343.96C778.515 243.289 1062.37 349.292 1064.47 552.579L1065.04 607.509C1066.6 757.899 1255.04 849.216 1466.29 801.949V801.949" stroke="#1F365D" stroke-opacity="0.15" stroke-width="0.653416"/>
<path d="M-145.227 125.296L-144.622 153.249C-139.942 369.367 162.739 481.125 453.081 373.937L491.881 359.612C764.567 258.942 1048.42 364.944 1050.52 568.231L1051.09 623.161C1052.65 773.551 1241.09 864.868 1452.34 817.601V817.601" stroke="#1F365D" stroke-opacity="0.15" stroke-width="0.653416"/>
<path d="M-159.173 140.948L-158.568 168.901C-153.889 385.02 148.792 496.778 439.134 389.589L477.935 375.264C750.62 274.594 1034.48 380.597 1036.58 583.884L1037.15 638.813C1038.7 789.204 1227.14 880.521 1438.39 833.254V833.254" stroke="#1F365D" stroke-opacity="0.15" stroke-width="0.653416"/>
<path d="M-173.122 156.6L-172.517 184.553C-167.838 400.672 134.843 512.43 425.185 405.241L463.986 390.917C736.671 290.246 1020.53 396.249 1022.63 599.536L1023.2 654.466C1024.75 804.856 1213.19 896.173 1424.44 848.906V848.906" stroke="#1F365D" stroke-opacity="0.15" stroke-width="0.653416"/>
<path d="M-187.069 172.253L-186.463 200.206C-181.784 416.324 120.897 528.082 411.239 420.894L450.039 406.569C722.725 305.899 1006.58 411.901 1008.68 615.188L1009.25 670.118C1010.81 820.508 1199.25 911.825 1410.5 864.558V864.558" stroke="#1F365D" stroke-opacity="0.15" stroke-width="0.653416"/>
<path d="M-201.019 187.901L-200.414 215.854C-195.734 431.973 106.947 543.731 397.289 436.542L436.089 422.217C708.775 321.547 992.63 427.55 994.732 630.837L995.3 685.766C996.855 836.157 1185.3 927.474 1396.54 880.207V880.207" stroke="#1F365D" stroke-opacity="0.15" stroke-width="0.653416"/>
<path d="M-214.964 203.554L-214.359 231.506C-209.68 447.625 93.0014 559.383 383.343 452.194L422.144 437.87C694.829 337.199 978.685 443.202 980.787 646.489L981.355 701.419C982.91 851.809 1171.35 943.126 1382.6 895.859V895.859" stroke="#1F365D" stroke-opacity="0.15" stroke-width="0.653416"/>
<path d="M-228.912 219.206L-228.307 247.159C-223.628 463.277 79.0532 575.035 369.395 467.847L408.196 453.522C680.881 352.852 964.737 458.854 966.839 662.141L967.407 717.071C968.962 867.461 1157.4 958.778 1368.65 911.511V911.511" stroke="#1F365D" stroke-opacity="0.15" stroke-width="0.653416"/>
<path d="M-242.861 234.854L-242.255 262.807C-237.576 478.926 65.1049 590.684 355.447 483.495L394.247 469.171C666.933 368.5 950.788 474.503 952.89 677.79L953.458 732.72C955.014 883.11 1143.45 974.427 1354.7 927.16V927.16" stroke="#1F365D" stroke-opacity="0.15" stroke-width="0.653416"/>
<path d="M-256.808 250.507L-256.203 278.46C-251.523 494.578 51.1577 606.336 341.499 499.147L380.3 484.823C652.986 384.153 936.841 490.155 938.943 693.442L939.511 748.372C941.066 898.762 1129.51 990.079 1340.76 942.812V942.812" stroke="#1F365D" stroke-opacity="0.15" stroke-width="0.653416"/>
<path d="M-270.758 266.159L-270.153 294.112C-265.474 510.231 37.2075 621.989 327.549 514.8L366.35 500.475C639.035 399.805 922.891 505.808 924.993 709.095L925.561 764.024C927.116 914.415 1115.56 1005.73 1326.81 958.465V958.465" stroke="#1F365D" stroke-opacity="0.15" stroke-width="0.653416"/>
<path d="M-284.704 281.807L-284.099 309.76C-279.42 525.879 23.2612 637.637 313.603 530.448L352.404 516.124C625.089 415.453 908.945 521.456 911.047 724.743L911.615 779.673C913.17 930.063 1101.61 1021.38 1312.86 974.113V974.113" stroke="#1F365D" stroke-opacity="0.15" stroke-width="0.653416"/>
<path d="M-298.652 297.46L-298.046 325.413C-293.367 541.531 9.3139 653.289 299.656 546.101L338.456 531.776C611.142 431.106 894.997 537.108 897.099 740.395L897.667 795.325C899.223 945.715 1087.66 1037.03 1298.91 989.765V989.765" stroke="#1F365D" stroke-opacity="0.15" stroke-width="0.653416"/>
<path d="M-312.6 313.112L-311.995 341.065C-307.315 557.184 -4.63434 668.942 285.707 561.753L324.508 547.428C597.194 446.758 881.049 552.761 883.151 756.048L883.719 810.977C885.274 961.368 1073.72 1052.68 1284.96 1005.42V1005.42" stroke="#1F365D" stroke-opacity="0.15" stroke-width="0.653416"/>
<path d="M-326.546 328.764L-325.941 356.717C-321.262 572.836 -18.5806 684.594 271.761 577.405L310.562 563.081C583.247 462.41 867.103 568.413 869.205 771.7L869.773 826.63C871.328 977.02 1059.77 1068.34 1271.02 1021.07V1021.07" stroke="#1F365D" stroke-opacity="0.15" stroke-width="0.653416"/>
<path d="M-340.165 344.046L-339.56 371.999C-334.881 588.117 -32.1998 699.875 258.142 592.687L296.943 578.362C569.628 477.692 853.484 583.694 855.586 786.981L856.154 841.911C857.709 992.301 1046.15 1083.62 1257.4 1036.35V1036.35" stroke="#1F365D" stroke-opacity="0.15" stroke-width="0.653416"/>
<path d="M-353.782 359.327L-353.177 387.28C-348.498 603.398 -45.817 715.157 244.525 607.968L283.326 593.643C556.011 492.973 839.866 598.976 841.969 802.263L842.537 857.192C844.092 1007.58 1032.53 1098.9 1243.78 1051.63V1051.63" stroke="#1F365D" stroke-opacity="0.15" stroke-width="0.653416"/>
<path d="M-367.401 374.608L-366.795 402.561C-362.116 618.68 -59.4351 730.438 230.907 623.249L269.707 608.925C542.393 508.254 826.248 614.257 828.35 817.544L828.918 872.473C830.474 1022.86 1018.91 1114.18 1230.16 1066.91V1066.91" stroke="#1F365D" stroke-opacity="0.15" stroke-width="0.653416"/>
<path d="M-381.018 389.889L-380.413 417.842C-375.733 633.961 -73.0524 745.719 217.289 638.53L256.09 624.206C528.776 523.535 812.631 629.538 814.733 832.825L815.301 887.755C816.856 1038.14 1005.3 1129.46 1216.55 1082.19V1082.19" stroke="#1F365D" stroke-opacity="0.15" stroke-width="0.653416"/>
<path d="M-394.636 405.171L-394.031 433.124C-389.351 649.242 -86.6705 761 203.671 653.812L242.472 639.487C515.157 538.817 799.013 644.819 801.115 848.106L801.683 903.036C803.238 1053.43 991.679 1144.74 1202.93 1097.48V1097.48" stroke="#1F365D" stroke-opacity="0.15" stroke-width="0.653416"/>
<path d="M-408.253 420.452L-407.648 448.405C-402.969 664.523 -100.288 776.282 190.054 669.093L228.855 654.768C501.54 554.098 785.396 660.101 787.498 863.388L788.066 918.317C789.621 1068.71 978.062 1160.02 1189.31 1112.76V1112.76" stroke="#1F365D" stroke-opacity="0.15" stroke-width="0.653416"/>
<path d="M-421.871 435.729L-421.266 463.682C-416.587 679.801 -113.906 791.559 176.436 684.37L215.237 670.046C487.922 569.375 771.778 675.378 773.88 878.665L774.448 933.595C776.003 1083.98 964.444 1175.3 1175.69 1128.03V1128.03" stroke="#1F365D" stroke-opacity="0.15" stroke-width="0.653416"/>
<path d="M-435.489 451.011L-434.883 478.963C-430.204 695.082 -127.523 806.84 162.819 699.651L201.619 685.327C474.305 584.656 758.16 690.659 760.263 893.946L760.831 948.876C762.386 1099.27 950.826 1190.58 1162.08 1143.32V1143.32" stroke="#1F365D" stroke-opacity="0.15" stroke-width="0.653416"/>
<path d="M-449.107 466.292L-448.501 494.245C-443.822 710.363 -141.141 822.121 149.201 714.933L188.001 700.608C460.687 599.938 744.542 705.94 746.644 909.227L747.212 964.157C748.767 1114.55 937.208 1205.86 1148.46 1158.6V1158.6" stroke="#1F365D" stroke-opacity="0.15" stroke-width="0.653416"/>
<path d="M-462.724 481.573L-462.119 509.526C-457.439 725.645 -154.758 837.403 135.583 730.214L174.384 715.889C447.07 615.219 730.925 721.222 733.027 924.509L733.595 979.438C735.15 1129.83 923.591 1221.15 1134.84 1173.88V1173.88" stroke="#1F365D" stroke-opacity="0.15" stroke-width="0.653416"/>
</g>
</svg>
