<svg width="38" height="38" viewBox="0 0 38 38" fill="none" xmlns="http://www.w3.org/2000/svg">
<path d="M5.04688 30.2812C5.04688 30.5175 5.14071 30.744 5.30773 30.911C5.47476 31.078 5.70129 31.1719 5.9375 31.1719H7.94141C8.14003 31.1719 8.33295 31.1055 8.48951 30.9833C8.64607 30.861 8.75728 30.69 8.80546 30.4973L10.1954 24.9375H5.04688V30.2812Z" fill="#45B5E3"/>
<path d="M10.9844 24.1271C13.9194 24.574 20.381 26.8785 24.6406 30.7882V7.21143C20.381 11.1211 13.9194 13.4256 10.9844 13.8725V24.1271Z" fill="#45B5E3"/>
<path d="M27.9062 3.5625C27.2766 3.56321 26.6729 3.81366 26.2277 4.2589C25.7824 4.70415 25.532 5.30783 25.5312 5.9375V32.0625C25.5312 32.6924 25.7815 33.2965 26.2269 33.7419C26.6723 34.1873 27.2764 34.4375 27.9062 34.4375C28.5361 34.4375 29.1402 34.1873 29.5856 33.7419C30.031 33.2965 30.2812 32.6924 30.2812 32.0625V5.9375C30.2805 5.30783 30.0301 4.70415 29.5848 4.2589C29.1396 3.81366 28.5359 3.56321 27.9062 3.5625Z" fill="#45B5E3"/>
<path d="M5.04688 13.9531H10.0938V24.0469H5.04688V13.9531Z" fill="#45B5E3"/>
<path d="M0.296875 16.625V21.375C0.297661 22.0834 0.579413 22.7625 1.08032 23.2634C1.58122 23.7643 2.26037 24.0461 2.96875 24.0469H4.15625V13.9531H2.96875C2.26037 13.9539 1.58122 14.2357 1.08032 14.7366C0.579413 15.2375 0.297661 15.9166 0.296875 16.625Z" fill="#45B5E3"/>
<path d="M36.8125 18.1094H33.8438C33.6075 18.1094 33.381 18.2032 33.214 18.3702C33.047 18.5373 32.9531 18.7638 32.9531 19C32.9531 19.2362 33.047 19.4627 33.214 19.6298C33.381 19.7968 33.6075 19.8906 33.8438 19.8906H36.8125C37.0487 19.8906 37.2752 19.7968 37.4423 19.6298C37.6093 19.4627 37.7031 19.2362 37.7031 19C37.7031 18.7638 37.6093 18.5373 37.4423 18.3702C37.2752 18.2032 37.0487 18.1094 36.8125 18.1094Z" fill="#45B5E3"/>
<path d="M32.3782 13.4585C32.5116 13.4585 32.6433 13.4284 32.7634 13.3704L35.4392 12.0839C35.6521 11.9816 35.8156 11.7989 35.8938 11.5759C35.9719 11.353 35.9583 11.1082 35.856 10.8953C35.7536 10.6824 35.5709 10.5189 35.348 10.4408C35.1251 10.3626 34.8802 10.3762 34.6674 10.4786L31.9918 11.7651C31.8098 11.8525 31.6629 11.9992 31.5752 12.1811C31.4875 12.363 31.4642 12.5693 31.5092 12.7661C31.5541 12.963 31.6646 13.1388 31.8226 13.2646C31.9805 13.3904 32.1765 13.4588 32.3785 13.4585H32.3782Z" fill="#45B5E3"/>
<path d="M35.4393 25.9157L32.7638 24.6293C32.5512 24.5288 32.3075 24.5166 32.0858 24.5951C31.8641 24.6737 31.6826 24.8367 31.5806 25.0486C31.4787 25.2606 31.4648 25.5042 31.5418 25.7264C31.6189 25.9486 31.7807 26.1312 31.9919 26.2346L34.6674 27.5211C34.8803 27.6234 35.1252 27.637 35.3481 27.5589C35.571 27.4807 35.7537 27.3172 35.8561 27.1043C35.9584 26.8915 35.972 26.6466 35.8939 26.4237C35.8157 26.2008 35.6522 26.0181 35.4393 25.9157Z" fill="#45B5E3"/>
</svg>
