<svg width="38" height="38" viewBox="0 0 38 38" fill="none" xmlns="http://www.w3.org/2000/svg">
<path d="M19 12.6172C22.4841 12.6172 25.3086 9.79273 25.3086 6.30859C25.3086 2.82445 22.4841 0 19 0C15.5159 0 12.6914 2.82445 12.6914 6.30859C12.6914 9.79273 15.5159 12.6172 19 12.6172Z" fill="#45B5E3"/>
<path d="M23.6354 13.4717C22.2997 14.3391 20.7076 14.8436 18.9998 14.8436C17.2919 14.8436 15.6999 14.3391 14.3641 13.4717C12.8876 14.036 11.5185 14.8685 10.3281 15.9369L18.9998 19.1888L27.6714 15.9369C26.481 14.8685 25.112 14.0359 23.6354 13.4717Z" fill="#45B5E3"/>
<path d="M32.3594 23.0078H31.6172C31.0024 23.0078 30.5039 23.5063 30.5039 24.1211V27.0898C30.5039 27.7047 31.0024 28.2031 31.6172 28.2031H32.3594C33.794 28.2031 34.957 27.0401 34.957 25.6055C34.957 24.1708 33.794 23.0078 32.3594 23.0078Z" fill="#45B5E3"/>
<path d="M6.49088 17.3878C6.19073 17.5958 6.01172 17.9377 6.01172 18.3028V20.7814H6.38281C8.2244 20.7814 9.72266 22.2796 9.72266 24.1212V27.09C9.72266 28.9316 8.2244 30.4298 6.38281 30.4298H6.01172V32.7755C6.01172 33.2396 6.29961 33.655 6.73409 33.8179L17.8867 38.0001V21.1495L7.51591 17.2604C7.17398 17.1321 6.79094 17.1797 6.49088 17.3878Z" fill="#45B5E3"/>
<path d="M28.2773 27.09V24.1212C28.2773 22.2796 29.7756 20.7814 31.6172 20.7814H31.9883V18.3028C31.9883 17.9377 31.8093 17.5958 31.5091 17.3878C31.209 17.1797 30.8259 17.1321 30.4841 17.2604L20.1133 21.1495V38.0001L31.2659 33.8179C31.7004 33.655 31.9883 33.2396 31.9883 32.7755V30.4298H31.6172C29.7756 30.4298 28.2773 28.9316 28.2773 27.09Z" fill="#45B5E3"/>
<path d="M7.49609 27.0898V24.1211C7.49609 23.5063 6.99764 23.0078 6.38281 23.0078H5.64062C4.20598 23.0078 3.04297 24.1708 3.04297 25.6055C3.04297 27.0401 4.20598 28.2031 5.64062 28.2031H6.38281C6.99764 28.2031 7.49609 27.7047 7.49609 27.0898Z" fill="#45B5E3"/>
</svg>
