<svg width="38" height="38" viewBox="0 0 38 38" fill="none" xmlns="http://www.w3.org/2000/svg">
<path d="M19 4.75C14.1281 4.75 10.1786 8.69949 10.1786 13.5714C10.1786 18.4434 14.1281 22.3929 19 22.3929C23.872 22.3929 27.8214 18.4434 27.8214 13.5714C27.8214 11.2318 26.892 8.98808 25.2377 7.33374C23.5834 5.6794 21.3396 4.75 19 4.75ZM15.2272 19.6175C15.0199 19.5962 14.834 19.481 14.7227 19.3048C14.6115 19.1287 14.5873 18.9113 14.6572 18.715C15.698 16.2501 17.4184 14.132 19.6175 12.6079C19.9197 12.3905 20.3405 12.4571 20.5607 12.7571C20.6673 12.9028 20.7114 13.0849 20.6834 13.2632C20.6554 13.4414 20.5575 13.6012 20.4114 13.7071C18.7177 14.9203 17.3248 16.5058 16.34 18.3418C17.1656 18.3346 17.9851 18.1995 18.7693 17.9414C22.1147 16.8286 23.7229 12.635 22.8407 9.22857C21.9585 9.7781 20.9759 10.1471 19.95 10.3143C18.4639 10.5654 17.2357 10.8368 16.2314 11.8546C15.3691 12.6936 14.8967 13.8548 14.9286 15.0575C14.929 15.4194 14.6454 15.718 14.2839 15.7361C13.9092 15.7361 13.6054 15.4323 13.6054 15.0575C13.5555 13.4766 14.168 11.9466 15.295 10.8368C16.6047 9.54071 18.0839 9.20143 19.7464 8.92321C20.8726 8.7149 21.9318 8.23768 22.8339 7.53214C23.0033 7.4109 23.2189 7.37412 23.4188 7.43238C23.6188 7.49064 23.7809 7.63749 23.8586 7.83071C25.8604 12.9268 22.7797 20.4386 15.2272 19.6175Z" fill="#45B5E3"/>
<path d="M15.4578 26.7835C14.4128 26.5121 12.8046 27.2246 11.5356 26.4917C11.4678 26.451 11.7731 25.6639 8.14276 36.2428L10.3888 34.6414C10.7404 34.3854 11.1933 34.3133 11.6069 34.4476C12.0205 34.5819 12.3447 34.9063 12.4788 35.32L13.2796 38.0003L16.8488 27.6114C16.4278 27.2693 15.9592 26.9905 15.4578 26.7835Z" fill="#45B5E3"/>
<path d="M31.8114 12.0107C30.8478 10.6536 30.7053 10.2057 30.8614 8.44821C31.0175 6.69071 30.9225 6.56857 29.3414 5.84249C27.7603 5.11642 27.4482 4.79071 26.7289 3.22321C26.0096 1.65571 25.8196 1.55392 24.1164 1.70999C22.4132 1.86607 21.9314 1.70999 20.5539 0.759994C19.1764 -0.190006 18.8778 -0.251077 17.446 0.759994C16.0142 1.77107 15.6071 1.85928 13.8835 1.70999C12.16 1.56071 11.9971 1.64892 11.271 3.22321C10.545 4.79749 10.2125 5.12321 8.65852 5.84249C7.10459 6.56178 6.98245 6.74499 7.13852 8.44821C7.29459 10.1514 7.13852 10.6468 6.18852 12.0107C5.23852 13.3746 5.17745 13.6868 6.18852 15.1186C7.19959 16.5504 7.29459 16.9236 7.13852 18.6811C6.98245 20.4386 7.07745 20.5607 8.65852 21.2936C10.2396 22.0264 10.545 22.3386 11.271 23.9061C11.9971 25.4736 12.2142 25.5821 13.8835 25.4261C14.5215 25.3298 15.1714 25.3458 15.8039 25.4736C17.0457 25.7857 18.0907 27.1429 19 27.1429C19.9092 27.1429 20.9271 25.8264 22.196 25.4871C23.465 25.1479 25.0325 25.7586 25.7857 25.3311C26.5389 24.9036 26.7832 23.2343 27.7196 22.2979C28.656 21.3614 30.3117 21.1239 30.7528 20.3639C31.1939 19.6039 30.5696 18.0568 30.9157 16.7743C31.2617 15.4918 32.5714 14.4739 32.5714 13.5714C32.4686 12.9905 32.2053 12.4499 31.8114 12.0107ZM19 23.75C13.3785 23.75 8.82138 19.1929 8.82138 13.5714C8.82138 7.94995 13.3785 3.39285 19 3.39285C24.6214 3.39285 29.1785 7.94995 29.1785 13.5714C29.1785 16.2709 28.1061 18.8599 26.1973 20.7688C24.2884 22.6776 21.6995 23.75 19 23.75Z" fill="#45B5E3"/>
<path d="M26.4643 26.4642C25.209 27.1903 23.5465 26.4642 22.5422 26.7628C22.0504 26.9653 21.5926 27.2422 21.1851 27.5839L24.7204 38L25.5143 35.3535C25.6405 34.934 25.9614 34.6011 26.3761 34.4597C26.7908 34.3184 27.2482 34.3859 27.6043 34.641L29.8572 36.2357C26.2268 25.6703 26.5322 26.4642 26.4643 26.4642Z" fill="#45B5E3"/>
</svg>
