<svg width="38" height="38" viewBox="0 0 38 38" fill="none" xmlns="http://www.w3.org/2000/svg">
<path d="M34.7813 8.42841L34.2128 8.60864L31.1852 8.87838L30.3301 10.244L29.7096 10.0468L27.3001 7.87443L26.9505 6.74469L26.4824 5.53995L24.968 4.1816L23.1815 3.83203L23.1404 4.6497L24.8906 6.35762L25.747 7.36641L24.7842 7.86959L24.0004 7.63856L22.8259 7.14868L22.8658 6.20159L21.3248 5.56777L20.8131 7.7946L19.26 8.14658L19.4137 9.38882L21.4373 9.7783L21.7868 7.79339L23.4573 8.04014L24.2338 8.49494H25.4797L26.3324 10.2029L28.5931 12.4962L28.4274 13.3877L26.6046 13.1554L23.4548 14.746L21.1869 17.4664L20.8918 18.6711H20.0777L18.5609 17.972L17.0876 18.6711L17.4541 20.2254L18.0952 19.4863L19.2225 19.4513L19.1439 20.8471L20.0777 21.1205L21.0103 22.168L22.5332 21.7398L24.2725 22.0144L26.2925 22.5575L27.3013 22.676L29.0116 24.6174L32.3126 26.5587L30.1777 30.6374L27.9242 31.6849L27.0691 34.0158L23.808 36.193L23.4609 37.4485C31.7973 35.4406 37.9988 27.9522 37.9988 18.9989C37.9964 15.0883 36.811 11.4487 34.7813 8.42841Z" fill="#45B5E3"/>
<path d="M21.1857 28.9292L19.802 26.3637L21.072 23.7172L19.802 23.3374L18.3759 21.9052L15.2165 21.1964L14.1678 19.0023V20.305H13.7057L10.983 16.6133V13.5809L8.98718 10.3357L5.8181 10.9005H3.6832L2.6091 10.1965L3.97955 9.11035L2.61273 9.42605C0.965285 12.2395 0.00488281 15.5042 0.00488281 19.001C0.00488281 29.4917 8.5094 37.9998 19.0013 37.9998C19.8092 37.9998 20.6015 37.9285 21.3853 37.8341L21.187 35.5323C21.187 35.5323 22.0591 32.114 22.0591 31.9979C22.0578 31.8806 21.1857 28.9292 21.1857 28.9292Z" fill="#45B5E3"/>
<path d="M7.06402 6.1265L10.4387 5.65597L11.9942 4.80322L13.7445 5.30761L16.541 5.15279L17.499 3.64687L18.8961 3.87669L22.2889 3.55857L23.2239 2.52801L24.5424 1.64744L26.4075 1.92806L27.0873 1.82525C24.6307 0.668895 21.897 0 19.0001 0C13.1034 0 7.83089 2.68767 4.34973 6.90788H4.35941L7.06402 6.1265ZM19.8033 1.88936L21.7434 0.821301L22.9893 1.541L21.1858 2.91387L19.4634 3.08683L18.688 2.58365L19.8033 1.88936ZM14.0566 2.04539L14.9129 2.40222L16.0342 2.04539L16.6451 3.10377L14.0566 3.78355L12.8119 3.05539C12.8107 3.05539 14.0287 2.27158 14.0566 2.04539Z" fill="#45B5E3"/>
</svg>
